G04 #@! TF.GenerationSoftware,KiCad,Pcbnew,(6.0.0)*
G04 #@! TF.CreationDate,2022-08-31T22:59:22+03:00*
G04 #@! TF.ProjectId,hellen154hyundai,68656c6c-656e-4313-9534-6879756e6461,b*
G04 #@! TF.SameCoordinates,PX5f5e100PYc845880*
G04 #@! TF.FileFunction,Paste,Top*
G04 #@! TF.FilePolarity,Positive*
%FSLAX46Y46*%
G04 Gerber Fmt 4.6, Leading zero omitted, Abs format (unit mm)*
G04 Created by KiCad (PCBNEW (6.0.0)) date 2022-08-31 22:59:22*
%MOMM*%
%LPD*%
G01*
G04 APERTURE LIST*
%ADD10R,3.050000X2.750000*%
%ADD11R,2.200000X1.200000*%
%ADD12R,0.900000X1.200000*%
%ADD13R,1.310000X0.650000*%
%ADD14R,1.310000X0.600000*%
%ADD15R,0.795000X0.900000*%
%ADD16R,1.200000X0.900000*%
%ADD17O,0.000001X0.000001*%
%ADD18R,0.350000X0.375000*%
%ADD19R,0.375000X0.350000*%
%ADD20R,1.950000X1.160000*%
%ADD21R,2.000000X0.650000*%
%ADD22R,3.600000X2.600000*%
G04 APERTURE END LIST*
G04 #@! TO.C,R70*
G36*
G01*
X67350000Y125910000D02*
X67350000Y126690000D01*
G75*
G02*
X67420000Y126760000I70000J0D01*
G01*
X67980000Y126760000D01*
G75*
G02*
X68050000Y126690000I0J-70000D01*
G01*
X68050000Y125910000D01*
G75*
G02*
X67980000Y125840000I-70000J0D01*
G01*
X67420000Y125840000D01*
G75*
G02*
X67350000Y125910000I0J70000D01*
G01*
G37*
G36*
G01*
X68950000Y125910000D02*
X68950000Y126690000D01*
G75*
G02*
X69020000Y126760000I70000J0D01*
G01*
X69580000Y126760000D01*
G75*
G02*
X69650000Y126690000I0J-70000D01*
G01*
X69650000Y125910000D01*
G75*
G02*
X69580000Y125840000I-70000J0D01*
G01*
X69020000Y125840000D01*
G75*
G02*
X68950000Y125910000I0J70000D01*
G01*
G37*
G04 #@! TD*
G04 #@! TO.C,R31*
G36*
G01*
X102550000Y122090000D02*
X102550000Y121310000D01*
G75*
G02*
X102480000Y121240000I-70000J0D01*
G01*
X101920000Y121240000D01*
G75*
G02*
X101850000Y121310000I0J70000D01*
G01*
X101850000Y122090000D01*
G75*
G02*
X101920000Y122160000I70000J0D01*
G01*
X102480000Y122160000D01*
G75*
G02*
X102550000Y122090000I0J-70000D01*
G01*
G37*
G36*
G01*
X100950000Y122090000D02*
X100950000Y121310000D01*
G75*
G02*
X100880000Y121240000I-70000J0D01*
G01*
X100320000Y121240000D01*
G75*
G02*
X100250000Y121310000I0J70000D01*
G01*
X100250000Y122090000D01*
G75*
G02*
X100320000Y122160000I70000J0D01*
G01*
X100880000Y122160000D01*
G75*
G02*
X100950000Y122090000I0J-70000D01*
G01*
G37*
G04 #@! TD*
G04 #@! TO.C,R66*
G36*
G01*
X151575000Y95425000D02*
X151575000Y92575000D01*
G75*
G02*
X151325000Y92325000I-250000J0D01*
G01*
X150600000Y92325000D01*
G75*
G02*
X150350000Y92575000I0J250000D01*
G01*
X150350000Y95425000D01*
G75*
G02*
X150600000Y95675000I250000J0D01*
G01*
X151325000Y95675000D01*
G75*
G02*
X151575000Y95425000I0J-250000D01*
G01*
G37*
G36*
G01*
X145650000Y95425000D02*
X145650000Y92575000D01*
G75*
G02*
X145400000Y92325000I-250000J0D01*
G01*
X144675000Y92325000D01*
G75*
G02*
X144425000Y92575000I0J250000D01*
G01*
X144425000Y95425000D01*
G75*
G02*
X144675000Y95675000I250000J0D01*
G01*
X145400000Y95675000D01*
G75*
G02*
X145650000Y95425000I0J-250000D01*
G01*
G37*
G04 #@! TD*
G04 #@! TO.C,F1*
G36*
G01*
X83400000Y122105010D02*
X83400000Y122795010D01*
G75*
G02*
X83630000Y123025010I230000J0D01*
G01*
X84970000Y123025010D01*
G75*
G02*
X85200000Y122795010I0J-230000D01*
G01*
X85200000Y122105010D01*
G75*
G02*
X84970000Y121875010I-230000J0D01*
G01*
X83630000Y121875010D01*
G75*
G02*
X83400000Y122105010I0J230000D01*
G01*
G37*
G36*
G01*
X83400000Y119204990D02*
X83400000Y119894990D01*
G75*
G02*
X83630000Y120124990I230000J0D01*
G01*
X84970000Y120124990D01*
G75*
G02*
X85200000Y119894990I0J-230000D01*
G01*
X85200000Y119204990D01*
G75*
G02*
X84970000Y118974990I-230000J0D01*
G01*
X83630000Y118974990D01*
G75*
G02*
X83400000Y119204990I0J230000D01*
G01*
G37*
G04 #@! TD*
D10*
G04 #@! TO.C,Q1*
X143325000Y89525000D03*
X143325000Y86475000D03*
X146675000Y86475000D03*
X146675000Y89525000D03*
D11*
X151300000Y85720000D03*
X151300000Y90280000D03*
G04 #@! TD*
G04 #@! TO.C,R14*
G36*
G01*
X106344715Y100110000D02*
X106344715Y100890000D01*
G75*
G02*
X106414715Y100960000I70000J0D01*
G01*
X106974715Y100960000D01*
G75*
G02*
X107044715Y100890000I0J-70000D01*
G01*
X107044715Y100110000D01*
G75*
G02*
X106974715Y100040000I-70000J0D01*
G01*
X106414715Y100040000D01*
G75*
G02*
X106344715Y100110000I0J70000D01*
G01*
G37*
G36*
G01*
X107944715Y100110000D02*
X107944715Y100890000D01*
G75*
G02*
X108014715Y100960000I70000J0D01*
G01*
X108574715Y100960000D01*
G75*
G02*
X108644715Y100890000I0J-70000D01*
G01*
X108644715Y100110000D01*
G75*
G02*
X108574715Y100040000I-70000J0D01*
G01*
X108014715Y100040000D01*
G75*
G02*
X107944715Y100110000I0J70000D01*
G01*
G37*
G04 #@! TD*
G04 #@! TO.C,D13*
G36*
G01*
X29700000Y82660000D02*
X29700000Y83140000D01*
G75*
G02*
X29760000Y83200000I60000J0D01*
G01*
X30240000Y83200000D01*
G75*
G02*
X30300000Y83140000I0J-60000D01*
G01*
X30300000Y82660000D01*
G75*
G02*
X30240000Y82600000I-60000J0D01*
G01*
X29760000Y82600000D01*
G75*
G02*
X29700000Y82660000I0J60000D01*
G01*
G37*
G36*
G01*
X29700000Y84860000D02*
X29700000Y85340000D01*
G75*
G02*
X29760000Y85400000I60000J0D01*
G01*
X30240000Y85400000D01*
G75*
G02*
X30300000Y85340000I0J-60000D01*
G01*
X30300000Y84860000D01*
G75*
G02*
X30240000Y84800000I-60000J0D01*
G01*
X29760000Y84800000D01*
G75*
G02*
X29700000Y84860000I0J60000D01*
G01*
G37*
G04 #@! TD*
G04 #@! TO.C,R17*
G36*
G01*
X42125000Y111749999D02*
X40875000Y111749999D01*
G75*
G02*
X40775000Y111849999I0J100000D01*
G01*
X40775000Y112649999D01*
G75*
G02*
X40875000Y112749999I100000J0D01*
G01*
X42125000Y112749999D01*
G75*
G02*
X42225000Y112649999I0J-100000D01*
G01*
X42225000Y111849999D01*
G75*
G02*
X42125000Y111749999I-100000J0D01*
G01*
G37*
G36*
G01*
X42125000Y113650021D02*
X40875000Y113650021D01*
G75*
G02*
X40775000Y113750021I0J100000D01*
G01*
X40775000Y114550021D01*
G75*
G02*
X40875000Y114650021I100000J0D01*
G01*
X42125000Y114650021D01*
G75*
G02*
X42225000Y114550021I0J-100000D01*
G01*
X42225000Y113750021D01*
G75*
G02*
X42125000Y113650021I-100000J0D01*
G01*
G37*
G04 #@! TD*
G04 #@! TO.C,C5*
G36*
G01*
X122349999Y15394998D02*
X121669999Y15394998D01*
G75*
G02*
X121584999Y15479998I0J85000D01*
G01*
X121584999Y16159998D01*
G75*
G02*
X121669999Y16244998I85000J0D01*
G01*
X122349999Y16244998D01*
G75*
G02*
X122434999Y16159998I0J-85000D01*
G01*
X122434999Y15479998D01*
G75*
G02*
X122349999Y15394998I-85000J0D01*
G01*
G37*
G36*
G01*
X122349999Y16975000D02*
X121669999Y16975000D01*
G75*
G02*
X121584999Y17060000I0J85000D01*
G01*
X121584999Y17740000D01*
G75*
G02*
X121669999Y17825000I85000J0D01*
G01*
X122349999Y17825000D01*
G75*
G02*
X122434999Y17740000I0J-85000D01*
G01*
X122434999Y17060000D01*
G75*
G02*
X122349999Y16975000I-85000J0D01*
G01*
G37*
G04 #@! TD*
G04 #@! TO.C,R5*
G36*
G01*
X29402861Y53157216D02*
X29402861Y52377216D01*
G75*
G02*
X29332861Y52307216I-70000J0D01*
G01*
X28772861Y52307216D01*
G75*
G02*
X28702861Y52377216I0J70000D01*
G01*
X28702861Y53157216D01*
G75*
G02*
X28772861Y53227216I70000J0D01*
G01*
X29332861Y53227216D01*
G75*
G02*
X29402861Y53157216I0J-70000D01*
G01*
G37*
G36*
G01*
X27802861Y53157216D02*
X27802861Y52377216D01*
G75*
G02*
X27732861Y52307216I-70000J0D01*
G01*
X27172861Y52307216D01*
G75*
G02*
X27102861Y52377216I0J70000D01*
G01*
X27102861Y53157216D01*
G75*
G02*
X27172861Y53227216I70000J0D01*
G01*
X27732861Y53227216D01*
G75*
G02*
X27802861Y53157216I0J-70000D01*
G01*
G37*
G04 #@! TD*
G04 #@! TO.C,R30*
G36*
G01*
X36125000Y111749999D02*
X34875000Y111749999D01*
G75*
G02*
X34775000Y111849999I0J100000D01*
G01*
X34775000Y112649999D01*
G75*
G02*
X34875000Y112749999I100000J0D01*
G01*
X36125000Y112749999D01*
G75*
G02*
X36225000Y112649999I0J-100000D01*
G01*
X36225000Y111849999D01*
G75*
G02*
X36125000Y111749999I-100000J0D01*
G01*
G37*
G36*
G01*
X36125000Y113650021D02*
X34875000Y113650021D01*
G75*
G02*
X34775000Y113750021I0J100000D01*
G01*
X34775000Y114550021D01*
G75*
G02*
X34875000Y114650021I100000J0D01*
G01*
X36125000Y114650021D01*
G75*
G02*
X36225000Y114550021I0J-100000D01*
G01*
X36225000Y113750021D01*
G75*
G02*
X36125000Y113650021I-100000J0D01*
G01*
G37*
G04 #@! TD*
G04 #@! TO.C,R26*
G36*
G01*
X103344715Y92610000D02*
X103344715Y93390000D01*
G75*
G02*
X103414715Y93460000I70000J0D01*
G01*
X103974715Y93460000D01*
G75*
G02*
X104044715Y93390000I0J-70000D01*
G01*
X104044715Y92610000D01*
G75*
G02*
X103974715Y92540000I-70000J0D01*
G01*
X103414715Y92540000D01*
G75*
G02*
X103344715Y92610000I0J70000D01*
G01*
G37*
G36*
G01*
X104944715Y92610000D02*
X104944715Y93390000D01*
G75*
G02*
X105014715Y93460000I70000J0D01*
G01*
X105574715Y93460000D01*
G75*
G02*
X105644715Y93390000I0J-70000D01*
G01*
X105644715Y92610000D01*
G75*
G02*
X105574715Y92540000I-70000J0D01*
G01*
X105014715Y92540000D01*
G75*
G02*
X104944715Y92610000I0J70000D01*
G01*
G37*
G04 #@! TD*
G04 #@! TO.C,R42*
G36*
G01*
X96975000Y104200000D02*
X98225000Y104200000D01*
G75*
G02*
X98325000Y104100000I0J-100000D01*
G01*
X98325000Y103300000D01*
G75*
G02*
X98225000Y103200000I-100000J0D01*
G01*
X96975000Y103200000D01*
G75*
G02*
X96875000Y103300000I0J100000D01*
G01*
X96875000Y104100000D01*
G75*
G02*
X96975000Y104200000I100000J0D01*
G01*
G37*
G36*
G01*
X96975000Y102299978D02*
X98225000Y102299978D01*
G75*
G02*
X98325000Y102199978I0J-100000D01*
G01*
X98325000Y101399978D01*
G75*
G02*
X98225000Y101299978I-100000J0D01*
G01*
X96975000Y101299978D01*
G75*
G02*
X96875000Y101399978I0J100000D01*
G01*
X96875000Y102199978D01*
G75*
G02*
X96975000Y102299978I100000J0D01*
G01*
G37*
G04 #@! TD*
G04 #@! TO.C,U3*
G36*
G01*
X113650000Y17255000D02*
X113650000Y17555000D01*
G75*
G02*
X113800000Y17705000I150000J0D01*
G01*
X115450000Y17705000D01*
G75*
G02*
X115600000Y17555000I0J-150000D01*
G01*
X115600000Y17255000D01*
G75*
G02*
X115450000Y17105000I-150000J0D01*
G01*
X113800000Y17105000D01*
G75*
G02*
X113650000Y17255000I0J150000D01*
G01*
G37*
G36*
G01*
X113650000Y15985000D02*
X113650000Y16285000D01*
G75*
G02*
X113800000Y16435000I150000J0D01*
G01*
X115450000Y16435000D01*
G75*
G02*
X115600000Y16285000I0J-150000D01*
G01*
X115600000Y15985000D01*
G75*
G02*
X115450000Y15835000I-150000J0D01*
G01*
X113800000Y15835000D01*
G75*
G02*
X113650000Y15985000I0J150000D01*
G01*
G37*
G36*
G01*
X113650000Y14715000D02*
X113650000Y15015000D01*
G75*
G02*
X113800000Y15165000I150000J0D01*
G01*
X115450000Y15165000D01*
G75*
G02*
X115600000Y15015000I0J-150000D01*
G01*
X115600000Y14715000D01*
G75*
G02*
X115450000Y14565000I-150000J0D01*
G01*
X113800000Y14565000D01*
G75*
G02*
X113650000Y14715000I0J150000D01*
G01*
G37*
G36*
G01*
X113650000Y13445000D02*
X113650000Y13745000D01*
G75*
G02*
X113800000Y13895000I150000J0D01*
G01*
X115450000Y13895000D01*
G75*
G02*
X115600000Y13745000I0J-150000D01*
G01*
X115600000Y13445000D01*
G75*
G02*
X115450000Y13295000I-150000J0D01*
G01*
X113800000Y13295000D01*
G75*
G02*
X113650000Y13445000I0J150000D01*
G01*
G37*
G36*
G01*
X118600000Y13445000D02*
X118600000Y13745000D01*
G75*
G02*
X118750000Y13895000I150000J0D01*
G01*
X120400000Y13895000D01*
G75*
G02*
X120550000Y13745000I0J-150000D01*
G01*
X120550000Y13445000D01*
G75*
G02*
X120400000Y13295000I-150000J0D01*
G01*
X118750000Y13295000D01*
G75*
G02*
X118600000Y13445000I0J150000D01*
G01*
G37*
G36*
G01*
X118600000Y14715000D02*
X118600000Y15015000D01*
G75*
G02*
X118750000Y15165000I150000J0D01*
G01*
X120400000Y15165000D01*
G75*
G02*
X120550000Y15015000I0J-150000D01*
G01*
X120550000Y14715000D01*
G75*
G02*
X120400000Y14565000I-150000J0D01*
G01*
X118750000Y14565000D01*
G75*
G02*
X118600000Y14715000I0J150000D01*
G01*
G37*
G36*
G01*
X118600000Y15985000D02*
X118600000Y16285000D01*
G75*
G02*
X118750000Y16435000I150000J0D01*
G01*
X120400000Y16435000D01*
G75*
G02*
X120550000Y16285000I0J-150000D01*
G01*
X120550000Y15985000D01*
G75*
G02*
X120400000Y15835000I-150000J0D01*
G01*
X118750000Y15835000D01*
G75*
G02*
X118600000Y15985000I0J150000D01*
G01*
G37*
G36*
G01*
X118600000Y17255000D02*
X118600000Y17555000D01*
G75*
G02*
X118750000Y17705000I150000J0D01*
G01*
X120400000Y17705000D01*
G75*
G02*
X120550000Y17555000I0J-150000D01*
G01*
X120550000Y17255000D01*
G75*
G02*
X120400000Y17105000I-150000J0D01*
G01*
X118750000Y17105000D01*
G75*
G02*
X118600000Y17255000I0J150000D01*
G01*
G37*
G04 #@! TD*
G04 #@! TO.C,R67*
G36*
G01*
X151575000Y107425000D02*
X151575000Y104575000D01*
G75*
G02*
X151325000Y104325000I-250000J0D01*
G01*
X150600000Y104325000D01*
G75*
G02*
X150350000Y104575000I0J250000D01*
G01*
X150350000Y107425000D01*
G75*
G02*
X150600000Y107675000I250000J0D01*
G01*
X151325000Y107675000D01*
G75*
G02*
X151575000Y107425000I0J-250000D01*
G01*
G37*
G36*
G01*
X145650000Y107425000D02*
X145650000Y104575000D01*
G75*
G02*
X145400000Y104325000I-250000J0D01*
G01*
X144675000Y104325000D01*
G75*
G02*
X144425000Y104575000I0J250000D01*
G01*
X144425000Y107425000D01*
G75*
G02*
X144675000Y107675000I250000J0D01*
G01*
X145400000Y107675000D01*
G75*
G02*
X145650000Y107425000I0J-250000D01*
G01*
G37*
G04 #@! TD*
G04 #@! TO.C,D16*
G36*
G01*
X47600002Y89299999D02*
X48500002Y89299999D01*
G75*
G02*
X48600002Y89199999I0J-100000D01*
G01*
X48600002Y88399999D01*
G75*
G02*
X48500002Y88299999I-100000J0D01*
G01*
X47600002Y88299999D01*
G75*
G02*
X47500002Y88399999I0J100000D01*
G01*
X47500002Y89199999D01*
G75*
G02*
X47600002Y89299999I100000J0D01*
G01*
G37*
G36*
G01*
X47600002Y87599999D02*
X48500002Y87599999D01*
G75*
G02*
X48600002Y87499999I0J-100000D01*
G01*
X48600002Y86699999D01*
G75*
G02*
X48500002Y86599999I-100000J0D01*
G01*
X47600002Y86599999D01*
G75*
G02*
X47500002Y86699999I0J100000D01*
G01*
X47500002Y87499999D01*
G75*
G02*
X47600002Y87599999I100000J0D01*
G01*
G37*
G04 #@! TD*
G04 #@! TO.C,R52*
G36*
G01*
X47125000Y120149999D02*
X45875000Y120149999D01*
G75*
G02*
X45775000Y120249999I0J100000D01*
G01*
X45775000Y121049999D01*
G75*
G02*
X45875000Y121149999I100000J0D01*
G01*
X47125000Y121149999D01*
G75*
G02*
X47225000Y121049999I0J-100000D01*
G01*
X47225000Y120249999D01*
G75*
G02*
X47125000Y120149999I-100000J0D01*
G01*
G37*
G36*
G01*
X47125000Y122050021D02*
X45875000Y122050021D01*
G75*
G02*
X45775000Y122150021I0J100000D01*
G01*
X45775000Y122950021D01*
G75*
G02*
X45875000Y123050021I100000J0D01*
G01*
X47125000Y123050021D01*
G75*
G02*
X47225000Y122950021I0J-100000D01*
G01*
X47225000Y122150021D01*
G75*
G02*
X47125000Y122050021I-100000J0D01*
G01*
G37*
G04 #@! TD*
G04 #@! TO.C,D27*
G36*
G01*
X65750004Y94299999D02*
X66650004Y94299999D01*
G75*
G02*
X66750004Y94199999I0J-100000D01*
G01*
X66750004Y93399999D01*
G75*
G02*
X66650004Y93299999I-100000J0D01*
G01*
X65750004Y93299999D01*
G75*
G02*
X65650004Y93399999I0J100000D01*
G01*
X65650004Y94199999D01*
G75*
G02*
X65750004Y94299999I100000J0D01*
G01*
G37*
G36*
G01*
X65750004Y92599999D02*
X66650004Y92599999D01*
G75*
G02*
X66750004Y92499999I0J-100000D01*
G01*
X66750004Y91699999D01*
G75*
G02*
X66650004Y91599999I-100000J0D01*
G01*
X65750004Y91599999D01*
G75*
G02*
X65650004Y91699999I0J100000D01*
G01*
X65650004Y92499999D01*
G75*
G02*
X65750004Y92599999I100000J0D01*
G01*
G37*
G04 #@! TD*
G04 #@! TO.C,R25*
G36*
G01*
X103344715Y95110000D02*
X103344715Y95890000D01*
G75*
G02*
X103414715Y95960000I70000J0D01*
G01*
X103974715Y95960000D01*
G75*
G02*
X104044715Y95890000I0J-70000D01*
G01*
X104044715Y95110000D01*
G75*
G02*
X103974715Y95040000I-70000J0D01*
G01*
X103414715Y95040000D01*
G75*
G02*
X103344715Y95110000I0J70000D01*
G01*
G37*
G36*
G01*
X104944715Y95110000D02*
X104944715Y95890000D01*
G75*
G02*
X105014715Y95960000I70000J0D01*
G01*
X105574715Y95960000D01*
G75*
G02*
X105644715Y95890000I0J-70000D01*
G01*
X105644715Y95110000D01*
G75*
G02*
X105574715Y95040000I-70000J0D01*
G01*
X105014715Y95040000D01*
G75*
G02*
X104944715Y95110000I0J70000D01*
G01*
G37*
G04 #@! TD*
G04 #@! TO.C,R62*
G36*
G01*
X153610000Y97150000D02*
X154390000Y97150000D01*
G75*
G02*
X154460000Y97080000I0J-70000D01*
G01*
X154460000Y96520000D01*
G75*
G02*
X154390000Y96450000I-70000J0D01*
G01*
X153610000Y96450000D01*
G75*
G02*
X153540000Y96520000I0J70000D01*
G01*
X153540000Y97080000D01*
G75*
G02*
X153610000Y97150000I70000J0D01*
G01*
G37*
G36*
G01*
X153610000Y95550000D02*
X154390000Y95550000D01*
G75*
G02*
X154460000Y95480000I0J-70000D01*
G01*
X154460000Y94920000D01*
G75*
G02*
X154390000Y94850000I-70000J0D01*
G01*
X153610000Y94850000D01*
G75*
G02*
X153540000Y94920000I0J70000D01*
G01*
X153540000Y95480000D01*
G75*
G02*
X153610000Y95550000I70000J0D01*
G01*
G37*
G04 #@! TD*
G04 #@! TO.C,C2*
G36*
G01*
X67840000Y109484999D02*
X67160000Y109484999D01*
G75*
G02*
X67075000Y109569999I0J85000D01*
G01*
X67075000Y110249999D01*
G75*
G02*
X67160000Y110334999I85000J0D01*
G01*
X67840000Y110334999D01*
G75*
G02*
X67925000Y110249999I0J-85000D01*
G01*
X67925000Y109569999D01*
G75*
G02*
X67840000Y109484999I-85000J0D01*
G01*
G37*
G36*
G01*
X67840000Y111065001D02*
X67160000Y111065001D01*
G75*
G02*
X67075000Y111150001I0J85000D01*
G01*
X67075000Y111830001D01*
G75*
G02*
X67160000Y111915001I85000J0D01*
G01*
X67840000Y111915001D01*
G75*
G02*
X67925000Y111830001I0J-85000D01*
G01*
X67925000Y111150001D01*
G75*
G02*
X67840000Y111065001I-85000J0D01*
G01*
G37*
G04 #@! TD*
G04 #@! TO.C,D26*
G36*
G01*
X57750004Y94299999D02*
X58650004Y94299999D01*
G75*
G02*
X58750004Y94199999I0J-100000D01*
G01*
X58750004Y93399999D01*
G75*
G02*
X58650004Y93299999I-100000J0D01*
G01*
X57750004Y93299999D01*
G75*
G02*
X57650004Y93399999I0J100000D01*
G01*
X57650004Y94199999D01*
G75*
G02*
X57750004Y94299999I100000J0D01*
G01*
G37*
G36*
G01*
X57750004Y92599999D02*
X58650004Y92599999D01*
G75*
G02*
X58750004Y92499999I0J-100000D01*
G01*
X58750004Y91699999D01*
G75*
G02*
X58650004Y91599999I-100000J0D01*
G01*
X57750004Y91599999D01*
G75*
G02*
X57650004Y91699999I0J100000D01*
G01*
X57650004Y92499999D01*
G75*
G02*
X57750004Y92599999I100000J0D01*
G01*
G37*
G04 #@! TD*
G04 #@! TO.C,R76*
G36*
G01*
X39125000Y78765000D02*
X39125000Y79435000D01*
G75*
G02*
X39190000Y79500000I65000J0D01*
G01*
X39710000Y79500000D01*
G75*
G02*
X39775000Y79435000I0J-65000D01*
G01*
X39775000Y78765000D01*
G75*
G02*
X39710000Y78700000I-65000J0D01*
G01*
X39190000Y78700000D01*
G75*
G02*
X39125000Y78765000I0J65000D01*
G01*
G37*
G36*
G01*
X40100000Y78745000D02*
X40100000Y79455000D01*
G75*
G02*
X40145000Y79500000I45000J0D01*
G01*
X40505000Y79500000D01*
G75*
G02*
X40550000Y79455000I0J-45000D01*
G01*
X40550000Y78745000D01*
G75*
G02*
X40505000Y78700000I-45000J0D01*
G01*
X40145000Y78700000D01*
G75*
G02*
X40100000Y78745000I0J45000D01*
G01*
G37*
G36*
G01*
X40900000Y78745000D02*
X40900000Y79455000D01*
G75*
G02*
X40945000Y79500000I45000J0D01*
G01*
X41305000Y79500000D01*
G75*
G02*
X41350000Y79455000I0J-45000D01*
G01*
X41350000Y78745000D01*
G75*
G02*
X41305000Y78700000I-45000J0D01*
G01*
X40945000Y78700000D01*
G75*
G02*
X40900000Y78745000I0J45000D01*
G01*
G37*
G36*
G01*
X41675000Y78765000D02*
X41675000Y79435000D01*
G75*
G02*
X41740000Y79500000I65000J0D01*
G01*
X42260000Y79500000D01*
G75*
G02*
X42325000Y79435000I0J-65000D01*
G01*
X42325000Y78765000D01*
G75*
G02*
X42260000Y78700000I-65000J0D01*
G01*
X41740000Y78700000D01*
G75*
G02*
X41675000Y78765000I0J65000D01*
G01*
G37*
G36*
G01*
X41675000Y80565000D02*
X41675000Y81235000D01*
G75*
G02*
X41740000Y81300000I65000J0D01*
G01*
X42260000Y81300000D01*
G75*
G02*
X42325000Y81235000I0J-65000D01*
G01*
X42325000Y80565000D01*
G75*
G02*
X42260000Y80500000I-65000J0D01*
G01*
X41740000Y80500000D01*
G75*
G02*
X41675000Y80565000I0J65000D01*
G01*
G37*
G36*
G01*
X40900000Y80545000D02*
X40900000Y81255000D01*
G75*
G02*
X40945000Y81300000I45000J0D01*
G01*
X41305000Y81300000D01*
G75*
G02*
X41350000Y81255000I0J-45000D01*
G01*
X41350000Y80545000D01*
G75*
G02*
X41305000Y80500000I-45000J0D01*
G01*
X40945000Y80500000D01*
G75*
G02*
X40900000Y80545000I0J45000D01*
G01*
G37*
G36*
G01*
X40100000Y80545000D02*
X40100000Y81255000D01*
G75*
G02*
X40145000Y81300000I45000J0D01*
G01*
X40505000Y81300000D01*
G75*
G02*
X40550000Y81255000I0J-45000D01*
G01*
X40550000Y80545000D01*
G75*
G02*
X40505000Y80500000I-45000J0D01*
G01*
X40145000Y80500000D01*
G75*
G02*
X40100000Y80545000I0J45000D01*
G01*
G37*
G36*
G01*
X39125000Y80565000D02*
X39125000Y81235000D01*
G75*
G02*
X39190000Y81300000I65000J0D01*
G01*
X39710000Y81300000D01*
G75*
G02*
X39775000Y81235000I0J-65000D01*
G01*
X39775000Y80565000D01*
G75*
G02*
X39710000Y80500000I-65000J0D01*
G01*
X39190000Y80500000D01*
G75*
G02*
X39125000Y80565000I0J65000D01*
G01*
G37*
G04 #@! TD*
D12*
G04 #@! TO.C,D4*
X44250000Y126000000D03*
X40950000Y126000000D03*
G04 #@! TD*
G04 #@! TO.C,R28*
G36*
G01*
X54725000Y111849999D02*
X53475000Y111849999D01*
G75*
G02*
X53375000Y111949999I0J100000D01*
G01*
X53375000Y112749999D01*
G75*
G02*
X53475000Y112849999I100000J0D01*
G01*
X54725000Y112849999D01*
G75*
G02*
X54825000Y112749999I0J-100000D01*
G01*
X54825000Y111949999D01*
G75*
G02*
X54725000Y111849999I-100000J0D01*
G01*
G37*
G36*
G01*
X54725000Y113750021D02*
X53475000Y113750021D01*
G75*
G02*
X53375000Y113850021I0J100000D01*
G01*
X53375000Y114650021D01*
G75*
G02*
X53475000Y114750021I100000J0D01*
G01*
X54725000Y114750021D01*
G75*
G02*
X54825000Y114650021I0J-100000D01*
G01*
X54825000Y113850021D01*
G75*
G02*
X54725000Y113750021I-100000J0D01*
G01*
G37*
G04 #@! TD*
G04 #@! TO.C,D44*
G36*
G01*
X64450002Y94340000D02*
X64450002Y93860000D01*
G75*
G02*
X64390002Y93800000I-60000J0D01*
G01*
X63910002Y93800000D01*
G75*
G02*
X63850002Y93860000I0J60000D01*
G01*
X63850002Y94340000D01*
G75*
G02*
X63910002Y94400000I60000J0D01*
G01*
X64390002Y94400000D01*
G75*
G02*
X64450002Y94340000I0J-60000D01*
G01*
G37*
G36*
G01*
X64450002Y92140000D02*
X64450002Y91660000D01*
G75*
G02*
X64390002Y91600000I-60000J0D01*
G01*
X63910002Y91600000D01*
G75*
G02*
X63850002Y91660000I0J60000D01*
G01*
X63850002Y92140000D01*
G75*
G02*
X63910002Y92200000I60000J0D01*
G01*
X64390002Y92200000D01*
G75*
G02*
X64450002Y92140000I0J-60000D01*
G01*
G37*
G04 #@! TD*
G04 #@! TO.C,R18*
G36*
G01*
X106344715Y95110000D02*
X106344715Y95890000D01*
G75*
G02*
X106414715Y95960000I70000J0D01*
G01*
X106974715Y95960000D01*
G75*
G02*
X107044715Y95890000I0J-70000D01*
G01*
X107044715Y95110000D01*
G75*
G02*
X106974715Y95040000I-70000J0D01*
G01*
X106414715Y95040000D01*
G75*
G02*
X106344715Y95110000I0J70000D01*
G01*
G37*
G36*
G01*
X107944715Y95110000D02*
X107944715Y95890000D01*
G75*
G02*
X108014715Y95960000I70000J0D01*
G01*
X108574715Y95960000D01*
G75*
G02*
X108644715Y95890000I0J-70000D01*
G01*
X108644715Y95110000D01*
G75*
G02*
X108574715Y95040000I-70000J0D01*
G01*
X108014715Y95040000D01*
G75*
G02*
X107944715Y95110000I0J70000D01*
G01*
G37*
G04 #@! TD*
G04 #@! TO.C,R68*
G36*
G01*
X151575000Y119425000D02*
X151575000Y116575000D01*
G75*
G02*
X151325000Y116325000I-250000J0D01*
G01*
X150600000Y116325000D01*
G75*
G02*
X150350000Y116575000I0J250000D01*
G01*
X150350000Y119425000D01*
G75*
G02*
X150600000Y119675000I250000J0D01*
G01*
X151325000Y119675000D01*
G75*
G02*
X151575000Y119425000I0J-250000D01*
G01*
G37*
G36*
G01*
X145650000Y119425000D02*
X145650000Y116575000D01*
G75*
G02*
X145400000Y116325000I-250000J0D01*
G01*
X144675000Y116325000D01*
G75*
G02*
X144425000Y116575000I0J250000D01*
G01*
X144425000Y119425000D01*
G75*
G02*
X144675000Y119675000I250000J0D01*
G01*
X145400000Y119675000D01*
G75*
G02*
X145650000Y119425000I0J-250000D01*
G01*
G37*
G04 #@! TD*
G04 #@! TO.C,D6*
G36*
G01*
X27600002Y89299999D02*
X28500002Y89299999D01*
G75*
G02*
X28600002Y89199999I0J-100000D01*
G01*
X28600002Y88399999D01*
G75*
G02*
X28500002Y88299999I-100000J0D01*
G01*
X27600002Y88299999D01*
G75*
G02*
X27500002Y88399999I0J100000D01*
G01*
X27500002Y89199999D01*
G75*
G02*
X27600002Y89299999I100000J0D01*
G01*
G37*
G36*
G01*
X27600002Y87599999D02*
X28500002Y87599999D01*
G75*
G02*
X28600002Y87499999I0J-100000D01*
G01*
X28600002Y86699999D01*
G75*
G02*
X28500002Y86599999I-100000J0D01*
G01*
X27600002Y86599999D01*
G75*
G02*
X27500002Y86699999I0J100000D01*
G01*
X27500002Y87499999D01*
G75*
G02*
X27600002Y87599999I100000J0D01*
G01*
G37*
G04 #@! TD*
D13*
G04 #@! TO.C,U2*
X58655000Y111555000D03*
X58655000Y110285000D03*
X58655000Y109015000D03*
D14*
X58655000Y107745000D03*
D13*
X64345000Y107745000D03*
X64345000Y109015000D03*
X64345000Y110285000D03*
X64345000Y111555000D03*
D15*
X60837500Y108900000D03*
X62162500Y108900000D03*
X62162500Y110400000D03*
X60837500Y110400000D03*
G04 #@! TD*
G04 #@! TO.C,R41*
G36*
G01*
X96975000Y98200000D02*
X98225000Y98200000D01*
G75*
G02*
X98325000Y98100000I0J-100000D01*
G01*
X98325000Y97300000D01*
G75*
G02*
X98225000Y97200000I-100000J0D01*
G01*
X96975000Y97200000D01*
G75*
G02*
X96875000Y97300000I0J100000D01*
G01*
X96875000Y98100000D01*
G75*
G02*
X96975000Y98200000I100000J0D01*
G01*
G37*
G36*
G01*
X96975000Y96299978D02*
X98225000Y96299978D01*
G75*
G02*
X98325000Y96199978I0J-100000D01*
G01*
X98325000Y95399978D01*
G75*
G02*
X98225000Y95299978I-100000J0D01*
G01*
X96975000Y95299978D01*
G75*
G02*
X96875000Y95399978I0J100000D01*
G01*
X96875000Y96199978D01*
G75*
G02*
X96975000Y96299978I100000J0D01*
G01*
G37*
G04 #@! TD*
G04 #@! TO.C,C19*
G36*
G01*
X96784999Y18660000D02*
X96784999Y19340000D01*
G75*
G02*
X96869999Y19425000I85000J0D01*
G01*
X97549999Y19425000D01*
G75*
G02*
X97634999Y19340000I0J-85000D01*
G01*
X97634999Y18660000D01*
G75*
G02*
X97549999Y18575000I-85000J0D01*
G01*
X96869999Y18575000D01*
G75*
G02*
X96784999Y18660000I0J85000D01*
G01*
G37*
G36*
G01*
X98365001Y18660000D02*
X98365001Y19340000D01*
G75*
G02*
X98450001Y19425000I85000J0D01*
G01*
X99130001Y19425000D01*
G75*
G02*
X99215001Y19340000I0J-85000D01*
G01*
X99215001Y18660000D01*
G75*
G02*
X99130001Y18575000I-85000J0D01*
G01*
X98450001Y18575000D01*
G75*
G02*
X98365001Y18660000I0J85000D01*
G01*
G37*
G04 #@! TD*
G04 #@! TO.C,R32*
G36*
G01*
X77525000Y120149999D02*
X76275000Y120149999D01*
G75*
G02*
X76175000Y120249999I0J100000D01*
G01*
X76175000Y121049999D01*
G75*
G02*
X76275000Y121149999I100000J0D01*
G01*
X77525000Y121149999D01*
G75*
G02*
X77625000Y121049999I0J-100000D01*
G01*
X77625000Y120249999D01*
G75*
G02*
X77525000Y120149999I-100000J0D01*
G01*
G37*
G36*
G01*
X77525000Y122050021D02*
X76275000Y122050021D01*
G75*
G02*
X76175000Y122150021I0J100000D01*
G01*
X76175000Y122950021D01*
G75*
G02*
X76275000Y123050021I100000J0D01*
G01*
X77525000Y123050021D01*
G75*
G02*
X77625000Y122950021I0J-100000D01*
G01*
X77625000Y122150021D01*
G75*
G02*
X77525000Y122050021I-100000J0D01*
G01*
G37*
G04 #@! TD*
G04 #@! TO.C,R44*
G36*
G01*
X149110000Y64650000D02*
X149890000Y64650000D01*
G75*
G02*
X149960000Y64580000I0J-70000D01*
G01*
X149960000Y64020000D01*
G75*
G02*
X149890000Y63950000I-70000J0D01*
G01*
X149110000Y63950000D01*
G75*
G02*
X149040000Y64020000I0J70000D01*
G01*
X149040000Y64580000D01*
G75*
G02*
X149110000Y64650000I70000J0D01*
G01*
G37*
G36*
G01*
X149110000Y63050000D02*
X149890000Y63050000D01*
G75*
G02*
X149960000Y62980000I0J-70000D01*
G01*
X149960000Y62420000D01*
G75*
G02*
X149890000Y62350000I-70000J0D01*
G01*
X149110000Y62350000D01*
G75*
G02*
X149040000Y62420000I0J70000D01*
G01*
X149040000Y62980000D01*
G75*
G02*
X149110000Y63050000I70000J0D01*
G01*
G37*
G04 #@! TD*
G04 #@! TO.C,R58*
G36*
G01*
X102125000Y125049999D02*
X100875000Y125049999D01*
G75*
G02*
X100775000Y125149999I0J100000D01*
G01*
X100775000Y125949999D01*
G75*
G02*
X100875000Y126049999I100000J0D01*
G01*
X102125000Y126049999D01*
G75*
G02*
X102225000Y125949999I0J-100000D01*
G01*
X102225000Y125149999D01*
G75*
G02*
X102125000Y125049999I-100000J0D01*
G01*
G37*
G36*
G01*
X102125000Y126950021D02*
X100875000Y126950021D01*
G75*
G02*
X100775000Y127050021I0J100000D01*
G01*
X100775000Y127850021D01*
G75*
G02*
X100875000Y127950021I100000J0D01*
G01*
X102125000Y127950021D01*
G75*
G02*
X102225000Y127850021I0J-100000D01*
G01*
X102225000Y127050021D01*
G75*
G02*
X102125000Y126950021I-100000J0D01*
G01*
G37*
G04 #@! TD*
G04 #@! TO.C,R11*
G36*
G01*
X106344715Y102610000D02*
X106344715Y103390000D01*
G75*
G02*
X106414715Y103460000I70000J0D01*
G01*
X106974715Y103460000D01*
G75*
G02*
X107044715Y103390000I0J-70000D01*
G01*
X107044715Y102610000D01*
G75*
G02*
X106974715Y102540000I-70000J0D01*
G01*
X106414715Y102540000D01*
G75*
G02*
X106344715Y102610000I0J70000D01*
G01*
G37*
G36*
G01*
X107944715Y102610000D02*
X107944715Y103390000D01*
G75*
G02*
X108014715Y103460000I70000J0D01*
G01*
X108574715Y103460000D01*
G75*
G02*
X108644715Y103390000I0J-70000D01*
G01*
X108644715Y102610000D01*
G75*
G02*
X108574715Y102540000I-70000J0D01*
G01*
X108014715Y102540000D01*
G75*
G02*
X107944715Y102610000I0J70000D01*
G01*
G37*
G04 #@! TD*
G04 #@! TO.C,D11*
G36*
G01*
X28002861Y55487216D02*
X28002861Y54247216D01*
G75*
G02*
X27872861Y54117216I-130000J0D01*
G01*
X26832861Y54117216D01*
G75*
G02*
X26702861Y54247216I0J130000D01*
G01*
X26702861Y55487216D01*
G75*
G02*
X26832861Y55617216I130000J0D01*
G01*
X27872861Y55617216D01*
G75*
G02*
X28002861Y55487216I0J-130000D01*
G01*
G37*
G36*
G01*
X29902882Y55487216D02*
X29902882Y54247216D01*
G75*
G02*
X29772882Y54117216I-130000J0D01*
G01*
X28732882Y54117216D01*
G75*
G02*
X28602882Y54247216I0J130000D01*
G01*
X28602882Y55487216D01*
G75*
G02*
X28732882Y55617216I130000J0D01*
G01*
X29772882Y55617216D01*
G75*
G02*
X29902882Y55487216I0J-130000D01*
G01*
G37*
G04 #@! TD*
G04 #@! TO.C,R75*
G36*
G01*
X57811056Y126837400D02*
X58362600Y127388944D01*
G75*
G02*
X58461594Y127388944I49497J-49497D01*
G01*
X58857574Y126992964D01*
G75*
G02*
X58857574Y126893970I-49497J-49497D01*
G01*
X58306030Y126342426D01*
G75*
G02*
X58207036Y126342426I-49497J49497D01*
G01*
X57811056Y126738406D01*
G75*
G02*
X57811056Y126837400I49497J49497D01*
G01*
G37*
G36*
G01*
X58942426Y125706030D02*
X59493970Y126257574D01*
G75*
G02*
X59592964Y126257574I49497J-49497D01*
G01*
X59988944Y125861594D01*
G75*
G02*
X59988944Y125762600I-49497J-49497D01*
G01*
X59437400Y125211056D01*
G75*
G02*
X59338406Y125211056I-49497J49497D01*
G01*
X58942426Y125607036D01*
G75*
G02*
X58942426Y125706030I49497J49497D01*
G01*
G37*
G04 #@! TD*
D16*
G04 #@! TO.C,D45*
X134200000Y63350000D03*
X134200000Y66650000D03*
G04 #@! TD*
G04 #@! TO.C,R10*
G36*
G01*
X106344715Y105110000D02*
X106344715Y105890000D01*
G75*
G02*
X106414715Y105960000I70000J0D01*
G01*
X106974715Y105960000D01*
G75*
G02*
X107044715Y105890000I0J-70000D01*
G01*
X107044715Y105110000D01*
G75*
G02*
X106974715Y105040000I-70000J0D01*
G01*
X106414715Y105040000D01*
G75*
G02*
X106344715Y105110000I0J70000D01*
G01*
G37*
G36*
G01*
X107944715Y105110000D02*
X107944715Y105890000D01*
G75*
G02*
X108014715Y105960000I70000J0D01*
G01*
X108574715Y105960000D01*
G75*
G02*
X108644715Y105890000I0J-70000D01*
G01*
X108644715Y105110000D01*
G75*
G02*
X108574715Y105040000I-70000J0D01*
G01*
X108014715Y105040000D01*
G75*
G02*
X107944715Y105110000I0J70000D01*
G01*
G37*
G04 #@! TD*
G04 #@! TO.C,D5*
G36*
G01*
X70950002Y94340000D02*
X70950002Y93860000D01*
G75*
G02*
X70890002Y93800000I-60000J0D01*
G01*
X70410002Y93800000D01*
G75*
G02*
X70350002Y93860000I0J60000D01*
G01*
X70350002Y94340000D01*
G75*
G02*
X70410002Y94400000I60000J0D01*
G01*
X70890002Y94400000D01*
G75*
G02*
X70950002Y94340000I0J-60000D01*
G01*
G37*
G36*
G01*
X70950002Y92140000D02*
X70950002Y91660000D01*
G75*
G02*
X70890002Y91600000I-60000J0D01*
G01*
X70410002Y91600000D01*
G75*
G02*
X70350002Y91660000I0J60000D01*
G01*
X70350002Y92140000D01*
G75*
G02*
X70410002Y92200000I60000J0D01*
G01*
X70890002Y92200000D01*
G75*
G02*
X70950002Y92140000I0J-60000D01*
G01*
G37*
G04 #@! TD*
G04 #@! TO.C,R39*
G36*
G01*
X49625000Y113249999D02*
X48375000Y113249999D01*
G75*
G02*
X48275000Y113349999I0J100000D01*
G01*
X48275000Y114149999D01*
G75*
G02*
X48375000Y114249999I100000J0D01*
G01*
X49625000Y114249999D01*
G75*
G02*
X49725000Y114149999I0J-100000D01*
G01*
X49725000Y113349999D01*
G75*
G02*
X49625000Y113249999I-100000J0D01*
G01*
G37*
G36*
G01*
X49625000Y115150021D02*
X48375000Y115150021D01*
G75*
G02*
X48275000Y115250021I0J100000D01*
G01*
X48275000Y116050021D01*
G75*
G02*
X48375000Y116150021I100000J0D01*
G01*
X49625000Y116150021D01*
G75*
G02*
X49725000Y116050021I0J-100000D01*
G01*
X49725000Y115250021D01*
G75*
G02*
X49625000Y115150021I-100000J0D01*
G01*
G37*
G04 #@! TD*
G04 #@! TO.C,R4*
G36*
G01*
X87125000Y120144999D02*
X85875000Y120144999D01*
G75*
G02*
X85775000Y120244999I0J100000D01*
G01*
X85775000Y121044999D01*
G75*
G02*
X85875000Y121144999I100000J0D01*
G01*
X87125000Y121144999D01*
G75*
G02*
X87225000Y121044999I0J-100000D01*
G01*
X87225000Y120244999D01*
G75*
G02*
X87125000Y120144999I-100000J0D01*
G01*
G37*
G36*
G01*
X87125000Y122045021D02*
X85875000Y122045021D01*
G75*
G02*
X85775000Y122145021I0J100000D01*
G01*
X85775000Y122945021D01*
G75*
G02*
X85875000Y123045021I100000J0D01*
G01*
X87125000Y123045021D01*
G75*
G02*
X87225000Y122945021I0J-100000D01*
G01*
X87225000Y122145021D01*
G75*
G02*
X87125000Y122045021I-100000J0D01*
G01*
G37*
G04 #@! TD*
G04 #@! TO.C,R12*
G36*
G01*
X39125000Y111749999D02*
X37875000Y111749999D01*
G75*
G02*
X37775000Y111849999I0J100000D01*
G01*
X37775000Y112649999D01*
G75*
G02*
X37875000Y112749999I100000J0D01*
G01*
X39125000Y112749999D01*
G75*
G02*
X39225000Y112649999I0J-100000D01*
G01*
X39225000Y111849999D01*
G75*
G02*
X39125000Y111749999I-100000J0D01*
G01*
G37*
G36*
G01*
X39125000Y113650021D02*
X37875000Y113650021D01*
G75*
G02*
X37775000Y113750021I0J100000D01*
G01*
X37775000Y114550021D01*
G75*
G02*
X37875000Y114650021I100000J0D01*
G01*
X39125000Y114650021D01*
G75*
G02*
X39225000Y114550021I0J-100000D01*
G01*
X39225000Y113750021D01*
G75*
G02*
X39125000Y113650021I-100000J0D01*
G01*
G37*
G04 #@! TD*
G04 #@! TO.C,Q7*
G36*
G01*
X56350002Y87325000D02*
X56050002Y87325000D01*
G75*
G02*
X55900002Y87475000I0J150000D01*
G01*
X55900002Y88650000D01*
G75*
G02*
X56050002Y88800000I150000J0D01*
G01*
X56350002Y88800000D01*
G75*
G02*
X56500002Y88650000I0J-150000D01*
G01*
X56500002Y87475000D01*
G75*
G02*
X56350002Y87325000I-150000J0D01*
G01*
G37*
G36*
G01*
X57300002Y89200000D02*
X57000002Y89200000D01*
G75*
G02*
X56850002Y89350000I0J150000D01*
G01*
X56850002Y90525000D01*
G75*
G02*
X57000002Y90675000I150000J0D01*
G01*
X57300002Y90675000D01*
G75*
G02*
X57450002Y90525000I0J-150000D01*
G01*
X57450002Y89350000D01*
G75*
G02*
X57300002Y89200000I-150000J0D01*
G01*
G37*
G36*
G01*
X58250002Y87325000D02*
X57950002Y87325000D01*
G75*
G02*
X57800002Y87475000I0J150000D01*
G01*
X57800002Y88650000D01*
G75*
G02*
X57950002Y88800000I150000J0D01*
G01*
X58250002Y88800000D01*
G75*
G02*
X58400002Y88650000I0J-150000D01*
G01*
X58400002Y87475000D01*
G75*
G02*
X58250002Y87325000I-150000J0D01*
G01*
G37*
G04 #@! TD*
D10*
G04 #@! TO.C,Q2*
X146675000Y98475000D03*
X143325000Y101525000D03*
X143325000Y98475000D03*
X146675000Y101525000D03*
D11*
X151300000Y97720000D03*
X151300000Y102280000D03*
G04 #@! TD*
G04 #@! TO.C,R19*
G36*
G01*
X106344715Y92610000D02*
X106344715Y93390000D01*
G75*
G02*
X106414715Y93460000I70000J0D01*
G01*
X106974715Y93460000D01*
G75*
G02*
X107044715Y93390000I0J-70000D01*
G01*
X107044715Y92610000D01*
G75*
G02*
X106974715Y92540000I-70000J0D01*
G01*
X106414715Y92540000D01*
G75*
G02*
X106344715Y92610000I0J70000D01*
G01*
G37*
G36*
G01*
X107944715Y92610000D02*
X107944715Y93390000D01*
G75*
G02*
X108014715Y93460000I70000J0D01*
G01*
X108574715Y93460000D01*
G75*
G02*
X108644715Y93390000I0J-70000D01*
G01*
X108644715Y92610000D01*
G75*
G02*
X108574715Y92540000I-70000J0D01*
G01*
X108014715Y92540000D01*
G75*
G02*
X107944715Y92610000I0J70000D01*
G01*
G37*
G04 #@! TD*
G04 #@! TO.C,D10*
G36*
G01*
X69270002Y93350000D02*
X68030002Y93350000D01*
G75*
G02*
X67900002Y93480000I0J130000D01*
G01*
X67900002Y94520000D01*
G75*
G02*
X68030002Y94650000I130000J0D01*
G01*
X69270002Y94650000D01*
G75*
G02*
X69400002Y94520000I0J-130000D01*
G01*
X69400002Y93480000D01*
G75*
G02*
X69270002Y93350000I-130000J0D01*
G01*
G37*
G36*
G01*
X69270002Y91449979D02*
X68030002Y91449979D01*
G75*
G02*
X67900002Y91579979I0J130000D01*
G01*
X67900002Y92619979D01*
G75*
G02*
X68030002Y92749979I130000J0D01*
G01*
X69270002Y92749979D01*
G75*
G02*
X69400002Y92619979I0J-130000D01*
G01*
X69400002Y91579979D01*
G75*
G02*
X69270002Y91449979I-130000J0D01*
G01*
G37*
G04 #@! TD*
G04 #@! TO.C,R20*
G36*
G01*
X103344715Y105110000D02*
X103344715Y105890000D01*
G75*
G02*
X103414715Y105960000I70000J0D01*
G01*
X103974715Y105960000D01*
G75*
G02*
X104044715Y105890000I0J-70000D01*
G01*
X104044715Y105110000D01*
G75*
G02*
X103974715Y105040000I-70000J0D01*
G01*
X103414715Y105040000D01*
G75*
G02*
X103344715Y105110000I0J70000D01*
G01*
G37*
G36*
G01*
X104944715Y105110000D02*
X104944715Y105890000D01*
G75*
G02*
X105014715Y105960000I70000J0D01*
G01*
X105574715Y105960000D01*
G75*
G02*
X105644715Y105890000I0J-70000D01*
G01*
X105644715Y105110000D01*
G75*
G02*
X105574715Y105040000I-70000J0D01*
G01*
X105014715Y105040000D01*
G75*
G02*
X104944715Y105110000I0J70000D01*
G01*
G37*
G04 #@! TD*
G04 #@! TO.C,R15*
G36*
G01*
X106344715Y97610000D02*
X106344715Y98390000D01*
G75*
G02*
X106414715Y98460000I70000J0D01*
G01*
X106974715Y98460000D01*
G75*
G02*
X107044715Y98390000I0J-70000D01*
G01*
X107044715Y97610000D01*
G75*
G02*
X106974715Y97540000I-70000J0D01*
G01*
X106414715Y97540000D01*
G75*
G02*
X106344715Y97610000I0J70000D01*
G01*
G37*
G36*
G01*
X107944715Y97610000D02*
X107944715Y98390000D01*
G75*
G02*
X108014715Y98460000I70000J0D01*
G01*
X108574715Y98460000D01*
G75*
G02*
X108644715Y98390000I0J-70000D01*
G01*
X108644715Y97610000D01*
G75*
G02*
X108574715Y97540000I-70000J0D01*
G01*
X108014715Y97540000D01*
G75*
G02*
X107944715Y97610000I0J70000D01*
G01*
G37*
G04 #@! TD*
G04 #@! TO.C,D19*
G36*
G01*
X53600002Y89299999D02*
X54500002Y89299999D01*
G75*
G02*
X54600002Y89199999I0J-100000D01*
G01*
X54600002Y88399999D01*
G75*
G02*
X54500002Y88299999I-100000J0D01*
G01*
X53600002Y88299999D01*
G75*
G02*
X53500002Y88399999I0J100000D01*
G01*
X53500002Y89199999D01*
G75*
G02*
X53600002Y89299999I100000J0D01*
G01*
G37*
G36*
G01*
X53600002Y87599999D02*
X54500002Y87599999D01*
G75*
G02*
X54600002Y87499999I0J-100000D01*
G01*
X54600002Y86699999D01*
G75*
G02*
X54500002Y86599999I-100000J0D01*
G01*
X53600002Y86599999D01*
G75*
G02*
X53500002Y86699999I0J100000D01*
G01*
X53500002Y87499999D01*
G75*
G02*
X53600002Y87599999I100000J0D01*
G01*
G37*
G04 #@! TD*
G04 #@! TO.C,D28*
G36*
G01*
X142700001Y10600002D02*
X142700001Y11500002D01*
G75*
G02*
X142800001Y11600002I100000J0D01*
G01*
X143600001Y11600002D01*
G75*
G02*
X143700001Y11500002I0J-100000D01*
G01*
X143700001Y10600002D01*
G75*
G02*
X143600001Y10500002I-100000J0D01*
G01*
X142800001Y10500002D01*
G75*
G02*
X142700001Y10600002I0J100000D01*
G01*
G37*
G36*
G01*
X144400001Y10600002D02*
X144400001Y11500002D01*
G75*
G02*
X144500001Y11600002I100000J0D01*
G01*
X145300001Y11600002D01*
G75*
G02*
X145400001Y11500002I0J-100000D01*
G01*
X145400001Y10600002D01*
G75*
G02*
X145300001Y10500002I-100000J0D01*
G01*
X144500001Y10500002D01*
G75*
G02*
X144400001Y10600002I0J100000D01*
G01*
G37*
G04 #@! TD*
G04 #@! TO.C,C9*
G36*
G01*
X98100000Y110600000D02*
X97150000Y110600000D01*
G75*
G02*
X96900000Y110850000I0J250000D01*
G01*
X96900000Y111350000D01*
G75*
G02*
X97150000Y111600000I250000J0D01*
G01*
X98100000Y111600000D01*
G75*
G02*
X98350000Y111350000I0J-250000D01*
G01*
X98350000Y110850000D01*
G75*
G02*
X98100000Y110600000I-250000J0D01*
G01*
G37*
G36*
G01*
X98100000Y112500000D02*
X97150000Y112500000D01*
G75*
G02*
X96900000Y112750000I0J250000D01*
G01*
X96900000Y113250000D01*
G75*
G02*
X97150000Y113500000I250000J0D01*
G01*
X98100000Y113500000D01*
G75*
G02*
X98350000Y113250000I0J-250000D01*
G01*
X98350000Y112750000D01*
G75*
G02*
X98100000Y112500000I-250000J0D01*
G01*
G37*
G04 #@! TD*
G04 #@! TO.C,D24*
G36*
G01*
X134160000Y23300000D02*
X134640000Y23300000D01*
G75*
G02*
X134700000Y23240000I0J-60000D01*
G01*
X134700000Y22760000D01*
G75*
G02*
X134640000Y22700000I-60000J0D01*
G01*
X134160000Y22700000D01*
G75*
G02*
X134100000Y22760000I0J60000D01*
G01*
X134100000Y23240000D01*
G75*
G02*
X134160000Y23300000I60000J0D01*
G01*
G37*
G36*
G01*
X136360000Y23300000D02*
X136840000Y23300000D01*
G75*
G02*
X136900000Y23240000I0J-60000D01*
G01*
X136900000Y22760000D01*
G75*
G02*
X136840000Y22700000I-60000J0D01*
G01*
X136360000Y22700000D01*
G75*
G02*
X136300000Y22760000I0J60000D01*
G01*
X136300000Y23240000D01*
G75*
G02*
X136360000Y23300000I60000J0D01*
G01*
G37*
G04 #@! TD*
G04 #@! TO.C,R2*
G36*
G01*
X68260002Y90150000D02*
X69040002Y90150000D01*
G75*
G02*
X69110002Y90080000I0J-70000D01*
G01*
X69110002Y89520000D01*
G75*
G02*
X69040002Y89450000I-70000J0D01*
G01*
X68260002Y89450000D01*
G75*
G02*
X68190002Y89520000I0J70000D01*
G01*
X68190002Y90080000D01*
G75*
G02*
X68260002Y90150000I70000J0D01*
G01*
G37*
G36*
G01*
X68260002Y88550000D02*
X69040002Y88550000D01*
G75*
G02*
X69110002Y88480000I0J-70000D01*
G01*
X69110002Y87920000D01*
G75*
G02*
X69040002Y87850000I-70000J0D01*
G01*
X68260002Y87850000D01*
G75*
G02*
X68190002Y87920000I0J70000D01*
G01*
X68190002Y88480000D01*
G75*
G02*
X68260002Y88550000I70000J0D01*
G01*
G37*
G04 #@! TD*
D12*
G04 #@! TO.C,D25*
X31500000Y126000000D03*
X34800000Y126000000D03*
G04 #@! TD*
G04 #@! TO.C,S1*
G36*
G01*
X65499999Y18080000D02*
X65499999Y19920000D01*
G75*
G02*
X65579999Y20000000I80000J0D01*
G01*
X66219999Y20000000D01*
G75*
G02*
X66299999Y19920000I0J-80000D01*
G01*
X66299999Y18080000D01*
G75*
G02*
X66219999Y18000000I-80000J0D01*
G01*
X65579999Y18000000D01*
G75*
G02*
X65499999Y18080000I0J80000D01*
G01*
G37*
G36*
G01*
X69700000Y18080000D02*
X69700000Y19920000D01*
G75*
G02*
X69780000Y20000000I80000J0D01*
G01*
X70420000Y20000000D01*
G75*
G02*
X70500000Y19920000I0J-80000D01*
G01*
X70500000Y18080000D01*
G75*
G02*
X70420000Y18000000I-80000J0D01*
G01*
X69780000Y18000000D01*
G75*
G02*
X69700000Y18080000I0J80000D01*
G01*
G37*
G04 #@! TD*
G04 #@! TO.C,U5*
G36*
G01*
X60280000Y113525000D02*
X60280000Y114175000D01*
G75*
G02*
X60440000Y114335000I160000J0D01*
G01*
X60760000Y114335000D01*
G75*
G02*
X60920000Y114175000I0J-160000D01*
G01*
X60920000Y113525000D01*
G75*
G02*
X60760000Y113365000I-160000J0D01*
G01*
X60440000Y113365000D01*
G75*
G02*
X60280000Y113525000I0J160000D01*
G01*
G37*
G36*
G01*
X60280000Y114725000D02*
X60280000Y115375000D01*
G75*
G02*
X60440000Y115535000I160000J0D01*
G01*
X60760000Y115535000D01*
G75*
G02*
X60920000Y115375000I0J-160000D01*
G01*
X60920000Y114725000D01*
G75*
G02*
X60760000Y114565000I-160000J0D01*
G01*
X60440000Y114565000D01*
G75*
G02*
X60280000Y114725000I0J160000D01*
G01*
G37*
G36*
G01*
X59480000Y113525000D02*
X59480000Y114175000D01*
G75*
G02*
X59640000Y114335000I160000J0D01*
G01*
X59960000Y114335000D01*
G75*
G02*
X60120000Y114175000I0J-160000D01*
G01*
X60120000Y113525000D01*
G75*
G02*
X59960000Y113365000I-160000J0D01*
G01*
X59640000Y113365000D01*
G75*
G02*
X59480000Y113525000I0J160000D01*
G01*
G37*
G36*
G01*
X59480000Y114725000D02*
X59480000Y115375000D01*
G75*
G02*
X59640000Y115535000I160000J0D01*
G01*
X59960000Y115535000D01*
G75*
G02*
X60120000Y115375000I0J-160000D01*
G01*
X60120000Y114725000D01*
G75*
G02*
X59960000Y114565000I-160000J0D01*
G01*
X59640000Y114565000D01*
G75*
G02*
X59480000Y114725000I0J160000D01*
G01*
G37*
G36*
G01*
X58325000Y115350000D02*
X58325000Y115500000D01*
G75*
G02*
X58400000Y115575000I75000J0D01*
G01*
X59100000Y115575000D01*
G75*
G02*
X59175000Y115500000I0J-75000D01*
G01*
X59175000Y115350000D01*
G75*
G02*
X59100000Y115275000I-75000J0D01*
G01*
X58400000Y115275000D01*
G75*
G02*
X58325000Y115350000I0J75000D01*
G01*
G37*
G36*
G01*
X58325000Y114700000D02*
X58325000Y114850000D01*
G75*
G02*
X58400000Y114925000I75000J0D01*
G01*
X59100000Y114925000D01*
G75*
G02*
X59175000Y114850000I0J-75000D01*
G01*
X59175000Y114700000D01*
G75*
G02*
X59100000Y114625000I-75000J0D01*
G01*
X58400000Y114625000D01*
G75*
G02*
X58325000Y114700000I0J75000D01*
G01*
G37*
G36*
G01*
X58325000Y114050000D02*
X58325000Y114200000D01*
G75*
G02*
X58400000Y114275000I75000J0D01*
G01*
X59100000Y114275000D01*
G75*
G02*
X59175000Y114200000I0J-75000D01*
G01*
X59175000Y114050000D01*
G75*
G02*
X59100000Y113975000I-75000J0D01*
G01*
X58400000Y113975000D01*
G75*
G02*
X58325000Y114050000I0J75000D01*
G01*
G37*
G36*
G01*
X58325000Y113400000D02*
X58325000Y113550000D01*
G75*
G02*
X58400000Y113625000I75000J0D01*
G01*
X59100000Y113625000D01*
G75*
G02*
X59175000Y113550000I0J-75000D01*
G01*
X59175000Y113400000D01*
G75*
G02*
X59100000Y113325000I-75000J0D01*
G01*
X58400000Y113325000D01*
G75*
G02*
X58325000Y113400000I0J75000D01*
G01*
G37*
G36*
G01*
X61225000Y113400000D02*
X61225000Y113550000D01*
G75*
G02*
X61300000Y113625000I75000J0D01*
G01*
X62000000Y113625000D01*
G75*
G02*
X62075000Y113550000I0J-75000D01*
G01*
X62075000Y113400000D01*
G75*
G02*
X62000000Y113325000I-75000J0D01*
G01*
X61300000Y113325000D01*
G75*
G02*
X61225000Y113400000I0J75000D01*
G01*
G37*
G36*
G01*
X61225000Y114050000D02*
X61225000Y114200000D01*
G75*
G02*
X61300000Y114275000I75000J0D01*
G01*
X62000000Y114275000D01*
G75*
G02*
X62075000Y114200000I0J-75000D01*
G01*
X62075000Y114050000D01*
G75*
G02*
X62000000Y113975000I-75000J0D01*
G01*
X61300000Y113975000D01*
G75*
G02*
X61225000Y114050000I0J75000D01*
G01*
G37*
G36*
G01*
X61225000Y114700000D02*
X61225000Y114850000D01*
G75*
G02*
X61300000Y114925000I75000J0D01*
G01*
X62000000Y114925000D01*
G75*
G02*
X62075000Y114850000I0J-75000D01*
G01*
X62075000Y114700000D01*
G75*
G02*
X62000000Y114625000I-75000J0D01*
G01*
X61300000Y114625000D01*
G75*
G02*
X61225000Y114700000I0J75000D01*
G01*
G37*
G36*
G01*
X61225000Y115350000D02*
X61225000Y115500000D01*
G75*
G02*
X61300000Y115575000I75000J0D01*
G01*
X62000000Y115575000D01*
G75*
G02*
X62075000Y115500000I0J-75000D01*
G01*
X62075000Y115350000D01*
G75*
G02*
X62000000Y115275000I-75000J0D01*
G01*
X61300000Y115275000D01*
G75*
G02*
X61225000Y115350000I0J75000D01*
G01*
G37*
G04 #@! TD*
G04 #@! TO.C,R1*
G36*
G01*
X149735000Y9900000D02*
X149065000Y9900000D01*
G75*
G02*
X149000000Y9965000I0J65000D01*
G01*
X149000000Y10485000D01*
G75*
G02*
X149065000Y10550000I65000J0D01*
G01*
X149735000Y10550000D01*
G75*
G02*
X149800000Y10485000I0J-65000D01*
G01*
X149800000Y9965000D01*
G75*
G02*
X149735000Y9900000I-65000J0D01*
G01*
G37*
G36*
G01*
X149755000Y10875000D02*
X149045000Y10875000D01*
G75*
G02*
X149000000Y10920000I0J45000D01*
G01*
X149000000Y11280000D01*
G75*
G02*
X149045000Y11325000I45000J0D01*
G01*
X149755000Y11325000D01*
G75*
G02*
X149800000Y11280000I0J-45000D01*
G01*
X149800000Y10920000D01*
G75*
G02*
X149755000Y10875000I-45000J0D01*
G01*
G37*
G36*
G01*
X149755000Y11675000D02*
X149045000Y11675000D01*
G75*
G02*
X149000000Y11720000I0J45000D01*
G01*
X149000000Y12080000D01*
G75*
G02*
X149045000Y12125000I45000J0D01*
G01*
X149755000Y12125000D01*
G75*
G02*
X149800000Y12080000I0J-45000D01*
G01*
X149800000Y11720000D01*
G75*
G02*
X149755000Y11675000I-45000J0D01*
G01*
G37*
G36*
G01*
X149735000Y12450000D02*
X149065000Y12450000D01*
G75*
G02*
X149000000Y12515000I0J65000D01*
G01*
X149000000Y13035000D01*
G75*
G02*
X149065000Y13100000I65000J0D01*
G01*
X149735000Y13100000D01*
G75*
G02*
X149800000Y13035000I0J-65000D01*
G01*
X149800000Y12515000D01*
G75*
G02*
X149735000Y12450000I-65000J0D01*
G01*
G37*
G36*
G01*
X147935000Y12450000D02*
X147265000Y12450000D01*
G75*
G02*
X147200000Y12515000I0J65000D01*
G01*
X147200000Y13035000D01*
G75*
G02*
X147265000Y13100000I65000J0D01*
G01*
X147935000Y13100000D01*
G75*
G02*
X148000000Y13035000I0J-65000D01*
G01*
X148000000Y12515000D01*
G75*
G02*
X147935000Y12450000I-65000J0D01*
G01*
G37*
G36*
G01*
X147955000Y11675000D02*
X147245000Y11675000D01*
G75*
G02*
X147200000Y11720000I0J45000D01*
G01*
X147200000Y12080000D01*
G75*
G02*
X147245000Y12125000I45000J0D01*
G01*
X147955000Y12125000D01*
G75*
G02*
X148000000Y12080000I0J-45000D01*
G01*
X148000000Y11720000D01*
G75*
G02*
X147955000Y11675000I-45000J0D01*
G01*
G37*
G36*
G01*
X147955000Y10875000D02*
X147245000Y10875000D01*
G75*
G02*
X147200000Y10920000I0J45000D01*
G01*
X147200000Y11280000D01*
G75*
G02*
X147245000Y11325000I45000J0D01*
G01*
X147955000Y11325000D01*
G75*
G02*
X148000000Y11280000I0J-45000D01*
G01*
X148000000Y10920000D01*
G75*
G02*
X147955000Y10875000I-45000J0D01*
G01*
G37*
G36*
G01*
X147935000Y9900000D02*
X147265000Y9900000D01*
G75*
G02*
X147200000Y9965000I0J65000D01*
G01*
X147200000Y10485000D01*
G75*
G02*
X147265000Y10550000I65000J0D01*
G01*
X147935000Y10550000D01*
G75*
G02*
X148000000Y10485000I0J-65000D01*
G01*
X148000000Y9965000D01*
G75*
G02*
X147935000Y9900000I-65000J0D01*
G01*
G37*
G04 #@! TD*
G04 #@! TO.C,R35*
G36*
G01*
X59625000Y120149999D02*
X58375000Y120149999D01*
G75*
G02*
X58275000Y120249999I0J100000D01*
G01*
X58275000Y121049999D01*
G75*
G02*
X58375000Y121149999I100000J0D01*
G01*
X59625000Y121149999D01*
G75*
G02*
X59725000Y121049999I0J-100000D01*
G01*
X59725000Y120249999D01*
G75*
G02*
X59625000Y120149999I-100000J0D01*
G01*
G37*
G36*
G01*
X59625000Y122050021D02*
X58375000Y122050021D01*
G75*
G02*
X58275000Y122150021I0J100000D01*
G01*
X58275000Y122950021D01*
G75*
G02*
X58375000Y123050021I100000J0D01*
G01*
X59625000Y123050021D01*
G75*
G02*
X59725000Y122950021I0J-100000D01*
G01*
X59725000Y122150021D01*
G75*
G02*
X59625000Y122050021I-100000J0D01*
G01*
G37*
G04 #@! TD*
G04 #@! TO.C,R21*
G36*
G01*
X103344715Y102610000D02*
X103344715Y103390000D01*
G75*
G02*
X103414715Y103460000I70000J0D01*
G01*
X103974715Y103460000D01*
G75*
G02*
X104044715Y103390000I0J-70000D01*
G01*
X104044715Y102610000D01*
G75*
G02*
X103974715Y102540000I-70000J0D01*
G01*
X103414715Y102540000D01*
G75*
G02*
X103344715Y102610000I0J70000D01*
G01*
G37*
G36*
G01*
X104944715Y102610000D02*
X104944715Y103390000D01*
G75*
G02*
X105014715Y103460000I70000J0D01*
G01*
X105574715Y103460000D01*
G75*
G02*
X105644715Y103390000I0J-70000D01*
G01*
X105644715Y102610000D01*
G75*
G02*
X105574715Y102540000I-70000J0D01*
G01*
X105014715Y102540000D01*
G75*
G02*
X104944715Y102610000I0J70000D01*
G01*
G37*
G04 #@! TD*
D10*
G04 #@! TO.C,Q5*
X138725000Y59025000D03*
X142075000Y59025000D03*
X142075000Y55975000D03*
X138725000Y55975000D03*
D11*
X146700000Y55220000D03*
X146700000Y59780000D03*
G04 #@! TD*
G04 #@! TO.C,R29*
G36*
G01*
X44625000Y113249999D02*
X43375000Y113249999D01*
G75*
G02*
X43275000Y113349999I0J100000D01*
G01*
X43275000Y114149999D01*
G75*
G02*
X43375000Y114249999I100000J0D01*
G01*
X44625000Y114249999D01*
G75*
G02*
X44725000Y114149999I0J-100000D01*
G01*
X44725000Y113349999D01*
G75*
G02*
X44625000Y113249999I-100000J0D01*
G01*
G37*
G36*
G01*
X44625000Y115150021D02*
X43375000Y115150021D01*
G75*
G02*
X43275000Y115250021I0J100000D01*
G01*
X43275000Y116050021D01*
G75*
G02*
X43375000Y116150021I100000J0D01*
G01*
X44625000Y116150021D01*
G75*
G02*
X44725000Y116050021I0J-100000D01*
G01*
X44725000Y115250021D01*
G75*
G02*
X44625000Y115150021I-100000J0D01*
G01*
G37*
G04 #@! TD*
G04 #@! TO.C,R53*
G36*
G01*
X44625000Y120149999D02*
X43375000Y120149999D01*
G75*
G02*
X43275000Y120249999I0J100000D01*
G01*
X43275000Y121049999D01*
G75*
G02*
X43375000Y121149999I100000J0D01*
G01*
X44625000Y121149999D01*
G75*
G02*
X44725000Y121049999I0J-100000D01*
G01*
X44725000Y120249999D01*
G75*
G02*
X44625000Y120149999I-100000J0D01*
G01*
G37*
G36*
G01*
X44625000Y122050021D02*
X43375000Y122050021D01*
G75*
G02*
X43275000Y122150021I0J100000D01*
G01*
X43275000Y122950021D01*
G75*
G02*
X43375000Y123050021I100000J0D01*
G01*
X44625000Y123050021D01*
G75*
G02*
X44725000Y122950021I0J-100000D01*
G01*
X44725000Y122150021D01*
G75*
G02*
X44625000Y122050021I-100000J0D01*
G01*
G37*
G04 #@! TD*
G04 #@! TO.C,F2*
G36*
G01*
X81100000Y122105010D02*
X81100000Y122795010D01*
G75*
G02*
X81330000Y123025010I230000J0D01*
G01*
X82670000Y123025010D01*
G75*
G02*
X82900000Y122795010I0J-230000D01*
G01*
X82900000Y122105010D01*
G75*
G02*
X82670000Y121875010I-230000J0D01*
G01*
X81330000Y121875010D01*
G75*
G02*
X81100000Y122105010I0J230000D01*
G01*
G37*
G36*
G01*
X81100000Y119204990D02*
X81100000Y119894990D01*
G75*
G02*
X81330000Y120124990I230000J0D01*
G01*
X82670000Y120124990D01*
G75*
G02*
X82900000Y119894990I0J-230000D01*
G01*
X82900000Y119204990D01*
G75*
G02*
X82670000Y118974990I-230000J0D01*
G01*
X81330000Y118974990D01*
G75*
G02*
X81100000Y119204990I0J230000D01*
G01*
G37*
G04 #@! TD*
G04 #@! TO.C,D38*
G36*
G01*
X42100002Y89299999D02*
X43000002Y89299999D01*
G75*
G02*
X43100002Y89199999I0J-100000D01*
G01*
X43100002Y88399999D01*
G75*
G02*
X43000002Y88299999I-100000J0D01*
G01*
X42100002Y88299999D01*
G75*
G02*
X42000002Y88399999I0J100000D01*
G01*
X42000002Y89199999D01*
G75*
G02*
X42100002Y89299999I100000J0D01*
G01*
G37*
G36*
G01*
X42100002Y87599999D02*
X43000002Y87599999D01*
G75*
G02*
X43100002Y87499999I0J-100000D01*
G01*
X43100002Y86699999D01*
G75*
G02*
X43000002Y86599999I-100000J0D01*
G01*
X42100002Y86599999D01*
G75*
G02*
X42000002Y86699999I0J100000D01*
G01*
X42000002Y87499999D01*
G75*
G02*
X42100002Y87599999I100000J0D01*
G01*
G37*
G04 #@! TD*
G04 #@! TO.C,D18*
G36*
G01*
X51600002Y89299999D02*
X52500002Y89299999D01*
G75*
G02*
X52600002Y89199999I0J-100000D01*
G01*
X52600002Y88399999D01*
G75*
G02*
X52500002Y88299999I-100000J0D01*
G01*
X51600002Y88299999D01*
G75*
G02*
X51500002Y88399999I0J100000D01*
G01*
X51500002Y89199999D01*
G75*
G02*
X51600002Y89299999I100000J0D01*
G01*
G37*
G36*
G01*
X51600002Y87599999D02*
X52500002Y87599999D01*
G75*
G02*
X52600002Y87499999I0J-100000D01*
G01*
X52600002Y86699999D01*
G75*
G02*
X52500002Y86599999I-100000J0D01*
G01*
X51600002Y86599999D01*
G75*
G02*
X51500002Y86699999I0J100000D01*
G01*
X51500002Y87499999D01*
G75*
G02*
X51600002Y87599999I100000J0D01*
G01*
G37*
G04 #@! TD*
G04 #@! TO.C,D36*
G36*
G01*
X38100002Y89299999D02*
X39000002Y89299999D01*
G75*
G02*
X39100002Y89199999I0J-100000D01*
G01*
X39100002Y88399999D01*
G75*
G02*
X39000002Y88299999I-100000J0D01*
G01*
X38100002Y88299999D01*
G75*
G02*
X38000002Y88399999I0J100000D01*
G01*
X38000002Y89199999D01*
G75*
G02*
X38100002Y89299999I100000J0D01*
G01*
G37*
G36*
G01*
X38100002Y87599999D02*
X39000002Y87599999D01*
G75*
G02*
X39100002Y87499999I0J-100000D01*
G01*
X39100002Y86699999D01*
G75*
G02*
X39000002Y86599999I-100000J0D01*
G01*
X38100002Y86599999D01*
G75*
G02*
X38000002Y86699999I0J100000D01*
G01*
X38000002Y87499999D01*
G75*
G02*
X38100002Y87599999I100000J0D01*
G01*
G37*
G04 #@! TD*
G04 #@! TO.C,C7*
G36*
G01*
X43200000Y102520000D02*
X42250000Y102520000D01*
G75*
G02*
X42000000Y102770000I0J250000D01*
G01*
X42000000Y103270000D01*
G75*
G02*
X42250000Y103520000I250000J0D01*
G01*
X43200000Y103520000D01*
G75*
G02*
X43450000Y103270000I0J-250000D01*
G01*
X43450000Y102770000D01*
G75*
G02*
X43200000Y102520000I-250000J0D01*
G01*
G37*
G36*
G01*
X43200000Y104420000D02*
X42250000Y104420000D01*
G75*
G02*
X42000000Y104670000I0J250000D01*
G01*
X42000000Y105170000D01*
G75*
G02*
X42250000Y105420000I250000J0D01*
G01*
X43200000Y105420000D01*
G75*
G02*
X43450000Y105170000I0J-250000D01*
G01*
X43450000Y104670000D01*
G75*
G02*
X43200000Y104420000I-250000J0D01*
G01*
G37*
G04 #@! TD*
G04 #@! TO.C,R55*
G36*
G01*
X96125000Y116549999D02*
X94875000Y116549999D01*
G75*
G02*
X94775000Y116649999I0J100000D01*
G01*
X94775000Y117449999D01*
G75*
G02*
X94875000Y117549999I100000J0D01*
G01*
X96125000Y117549999D01*
G75*
G02*
X96225000Y117449999I0J-100000D01*
G01*
X96225000Y116649999D01*
G75*
G02*
X96125000Y116549999I-100000J0D01*
G01*
G37*
G36*
G01*
X96125000Y118450021D02*
X94875000Y118450021D01*
G75*
G02*
X94775000Y118550021I0J100000D01*
G01*
X94775000Y119350021D01*
G75*
G02*
X94875000Y119450021I100000J0D01*
G01*
X96125000Y119450021D01*
G75*
G02*
X96225000Y119350021I0J-100000D01*
G01*
X96225000Y118550021D01*
G75*
G02*
X96125000Y118450021I-100000J0D01*
G01*
G37*
G04 #@! TD*
G04 #@! TO.C,Q8*
G36*
G01*
X60300000Y87325000D02*
X60000000Y87325000D01*
G75*
G02*
X59850000Y87475000I0J150000D01*
G01*
X59850000Y88650000D01*
G75*
G02*
X60000000Y88800000I150000J0D01*
G01*
X60300000Y88800000D01*
G75*
G02*
X60450000Y88650000I0J-150000D01*
G01*
X60450000Y87475000D01*
G75*
G02*
X60300000Y87325000I-150000J0D01*
G01*
G37*
G36*
G01*
X61250000Y89200000D02*
X60950000Y89200000D01*
G75*
G02*
X60800000Y89350000I0J150000D01*
G01*
X60800000Y90525000D01*
G75*
G02*
X60950000Y90675000I150000J0D01*
G01*
X61250000Y90675000D01*
G75*
G02*
X61400000Y90525000I0J-150000D01*
G01*
X61400000Y89350000D01*
G75*
G02*
X61250000Y89200000I-150000J0D01*
G01*
G37*
G36*
G01*
X62200000Y87325000D02*
X61900000Y87325000D01*
G75*
G02*
X61750000Y87475000I0J150000D01*
G01*
X61750000Y88650000D01*
G75*
G02*
X61900000Y88800000I150000J0D01*
G01*
X62200000Y88800000D01*
G75*
G02*
X62350000Y88650000I0J-150000D01*
G01*
X62350000Y87475000D01*
G75*
G02*
X62200000Y87325000I-150000J0D01*
G01*
G37*
G04 #@! TD*
G04 #@! TO.C,D9*
G36*
G01*
X33600002Y89299999D02*
X34500002Y89299999D01*
G75*
G02*
X34600002Y89199999I0J-100000D01*
G01*
X34600002Y88399999D01*
G75*
G02*
X34500002Y88299999I-100000J0D01*
G01*
X33600002Y88299999D01*
G75*
G02*
X33500002Y88399999I0J100000D01*
G01*
X33500002Y89199999D01*
G75*
G02*
X33600002Y89299999I100000J0D01*
G01*
G37*
G36*
G01*
X33600002Y87599999D02*
X34500002Y87599999D01*
G75*
G02*
X34600002Y87499999I0J-100000D01*
G01*
X34600002Y86699999D01*
G75*
G02*
X34500002Y86599999I-100000J0D01*
G01*
X33600002Y86599999D01*
G75*
G02*
X33500002Y86699999I0J100000D01*
G01*
X33500002Y87499999D01*
G75*
G02*
X33600002Y87599999I100000J0D01*
G01*
G37*
G04 #@! TD*
D10*
G04 #@! TO.C,Q10*
X142075000Y70975000D03*
X138725000Y74025000D03*
X138725000Y70975000D03*
X142075000Y74025000D03*
D11*
X146700000Y70220000D03*
X146700000Y74780000D03*
G04 #@! TD*
D10*
G04 #@! TO.C,Q4*
X143325000Y122475000D03*
X146675000Y125525000D03*
X143325000Y125525000D03*
X146675000Y122475000D03*
D11*
X151300000Y121720000D03*
X151300000Y126280000D03*
G04 #@! TD*
G04 #@! TO.C,R24*
G36*
G01*
X103344715Y97610000D02*
X103344715Y98390000D01*
G75*
G02*
X103414715Y98460000I70000J0D01*
G01*
X103974715Y98460000D01*
G75*
G02*
X104044715Y98390000I0J-70000D01*
G01*
X104044715Y97610000D01*
G75*
G02*
X103974715Y97540000I-70000J0D01*
G01*
X103414715Y97540000D01*
G75*
G02*
X103344715Y97610000I0J70000D01*
G01*
G37*
G36*
G01*
X104944715Y97610000D02*
X104944715Y98390000D01*
G75*
G02*
X105014715Y98460000I70000J0D01*
G01*
X105574715Y98460000D01*
G75*
G02*
X105644715Y98390000I0J-70000D01*
G01*
X105644715Y97610000D01*
G75*
G02*
X105574715Y97540000I-70000J0D01*
G01*
X105014715Y97540000D01*
G75*
G02*
X104944715Y97610000I0J70000D01*
G01*
G37*
G04 #@! TD*
G04 #@! TO.C,R72*
G36*
G01*
X45762600Y124511056D02*
X45211056Y125062600D01*
G75*
G02*
X45211056Y125161594I49497J49497D01*
G01*
X45607036Y125557574D01*
G75*
G02*
X45706030Y125557574I49497J-49497D01*
G01*
X46257574Y125006030D01*
G75*
G02*
X46257574Y124907036I-49497J-49497D01*
G01*
X45861594Y124511056D01*
G75*
G02*
X45762600Y124511056I-49497J49497D01*
G01*
G37*
G36*
G01*
X46893970Y125642426D02*
X46342426Y126193970D01*
G75*
G02*
X46342426Y126292964I49497J49497D01*
G01*
X46738406Y126688944D01*
G75*
G02*
X46837400Y126688944I49497J-49497D01*
G01*
X47388944Y126137400D01*
G75*
G02*
X47388944Y126038406I-49497J-49497D01*
G01*
X46992964Y125642426D01*
G75*
G02*
X46893970Y125642426I-49497J49497D01*
G01*
G37*
G04 #@! TD*
G04 #@! TO.C,C3*
G36*
G01*
X89884999Y17559999D02*
X89884999Y18239999D01*
G75*
G02*
X89969999Y18324999I85000J0D01*
G01*
X90649999Y18324999D01*
G75*
G02*
X90734999Y18239999I0J-85000D01*
G01*
X90734999Y17559999D01*
G75*
G02*
X90649999Y17474999I-85000J0D01*
G01*
X89969999Y17474999D01*
G75*
G02*
X89884999Y17559999I0J85000D01*
G01*
G37*
G36*
G01*
X91465001Y17559999D02*
X91465001Y18239999D01*
G75*
G02*
X91550001Y18324999I85000J0D01*
G01*
X92230001Y18324999D01*
G75*
G02*
X92315001Y18239999I0J-85000D01*
G01*
X92315001Y17559999D01*
G75*
G02*
X92230001Y17474999I-85000J0D01*
G01*
X91550001Y17474999D01*
G75*
G02*
X91465001Y17559999I0J85000D01*
G01*
G37*
G04 #@! TD*
G04 #@! TO.C,D40*
G36*
G01*
X56450002Y94340000D02*
X56450002Y93860000D01*
G75*
G02*
X56390002Y93800000I-60000J0D01*
G01*
X55910002Y93800000D01*
G75*
G02*
X55850002Y93860000I0J60000D01*
G01*
X55850002Y94340000D01*
G75*
G02*
X55910002Y94400000I60000J0D01*
G01*
X56390002Y94400000D01*
G75*
G02*
X56450002Y94340000I0J-60000D01*
G01*
G37*
G36*
G01*
X56450002Y92140000D02*
X56450002Y91660000D01*
G75*
G02*
X56390002Y91600000I-60000J0D01*
G01*
X55910002Y91600000D01*
G75*
G02*
X55850002Y91660000I0J60000D01*
G01*
X55850002Y92140000D01*
G75*
G02*
X55910002Y92200000I60000J0D01*
G01*
X56390002Y92200000D01*
G75*
G02*
X56450002Y92140000I0J-60000D01*
G01*
G37*
G04 #@! TD*
G04 #@! TO.C,D14*
G36*
G01*
X31700000Y82660000D02*
X31700000Y83140000D01*
G75*
G02*
X31760000Y83200000I60000J0D01*
G01*
X32240000Y83200000D01*
G75*
G02*
X32300000Y83140000I0J-60000D01*
G01*
X32300000Y82660000D01*
G75*
G02*
X32240000Y82600000I-60000J0D01*
G01*
X31760000Y82600000D01*
G75*
G02*
X31700000Y82660000I0J60000D01*
G01*
G37*
G36*
G01*
X31700000Y84860000D02*
X31700000Y85340000D01*
G75*
G02*
X31760000Y85400000I60000J0D01*
G01*
X32240000Y85400000D01*
G75*
G02*
X32300000Y85340000I0J-60000D01*
G01*
X32300000Y84860000D01*
G75*
G02*
X32240000Y84800000I-60000J0D01*
G01*
X31760000Y84800000D01*
G75*
G02*
X31700000Y84860000I0J60000D01*
G01*
G37*
G04 #@! TD*
G04 #@! TO.C,R51*
G36*
G01*
X49625000Y120149999D02*
X48375000Y120149999D01*
G75*
G02*
X48275000Y120249999I0J100000D01*
G01*
X48275000Y121049999D01*
G75*
G02*
X48375000Y121149999I100000J0D01*
G01*
X49625000Y121149999D01*
G75*
G02*
X49725000Y121049999I0J-100000D01*
G01*
X49725000Y120249999D01*
G75*
G02*
X49625000Y120149999I-100000J0D01*
G01*
G37*
G36*
G01*
X49625000Y122050021D02*
X48375000Y122050021D01*
G75*
G02*
X48275000Y122150021I0J100000D01*
G01*
X48275000Y122950021D01*
G75*
G02*
X48375000Y123050021I100000J0D01*
G01*
X49625000Y123050021D01*
G75*
G02*
X49725000Y122950021I0J-100000D01*
G01*
X49725000Y122150021D01*
G75*
G02*
X49625000Y122050021I-100000J0D01*
G01*
G37*
G04 #@! TD*
G04 #@! TO.C,R36*
G36*
G01*
X57125000Y120149999D02*
X55875000Y120149999D01*
G75*
G02*
X55775000Y120249999I0J100000D01*
G01*
X55775000Y121049999D01*
G75*
G02*
X55875000Y121149999I100000J0D01*
G01*
X57125000Y121149999D01*
G75*
G02*
X57225000Y121049999I0J-100000D01*
G01*
X57225000Y120249999D01*
G75*
G02*
X57125000Y120149999I-100000J0D01*
G01*
G37*
G36*
G01*
X57125000Y122050021D02*
X55875000Y122050021D01*
G75*
G02*
X55775000Y122150021I0J100000D01*
G01*
X55775000Y122950021D01*
G75*
G02*
X55875000Y123050021I100000J0D01*
G01*
X57125000Y123050021D01*
G75*
G02*
X57225000Y122950021I0J-100000D01*
G01*
X57225000Y122150021D01*
G75*
G02*
X57125000Y122050021I-100000J0D01*
G01*
G37*
G04 #@! TD*
G04 #@! TO.C,R73*
G36*
G01*
X56788944Y125362600D02*
X56237400Y124811056D01*
G75*
G02*
X56138406Y124811056I-49497J49497D01*
G01*
X55742426Y125207036D01*
G75*
G02*
X55742426Y125306030I49497J49497D01*
G01*
X56293970Y125857574D01*
G75*
G02*
X56392964Y125857574I49497J-49497D01*
G01*
X56788944Y125461594D01*
G75*
G02*
X56788944Y125362600I-49497J-49497D01*
G01*
G37*
G36*
G01*
X55657574Y126493970D02*
X55106030Y125942426D01*
G75*
G02*
X55007036Y125942426I-49497J49497D01*
G01*
X54611056Y126338406D01*
G75*
G02*
X54611056Y126437400I49497J49497D01*
G01*
X55162600Y126988944D01*
G75*
G02*
X55261594Y126988944I49497J-49497D01*
G01*
X55657574Y126592964D01*
G75*
G02*
X55657574Y126493970I-49497J-49497D01*
G01*
G37*
G04 #@! TD*
G04 #@! TO.C,R57*
G36*
G01*
X91525000Y120149999D02*
X90275000Y120149999D01*
G75*
G02*
X90175000Y120249999I0J100000D01*
G01*
X90175000Y121049999D01*
G75*
G02*
X90275000Y121149999I100000J0D01*
G01*
X91525000Y121149999D01*
G75*
G02*
X91625000Y121049999I0J-100000D01*
G01*
X91625000Y120249999D01*
G75*
G02*
X91525000Y120149999I-100000J0D01*
G01*
G37*
G36*
G01*
X91525000Y122050021D02*
X90275000Y122050021D01*
G75*
G02*
X90175000Y122150021I0J100000D01*
G01*
X90175000Y122950021D01*
G75*
G02*
X90275000Y123050021I100000J0D01*
G01*
X91525000Y123050021D01*
G75*
G02*
X91625000Y122950021I0J-100000D01*
G01*
X91625000Y122150021D01*
G75*
G02*
X91525000Y122050021I-100000J0D01*
G01*
G37*
G04 #@! TD*
D10*
G04 #@! TO.C,Q3*
X143325000Y113525000D03*
X146675000Y113525000D03*
X143325000Y110475000D03*
X146675000Y110475000D03*
D11*
X151300000Y109720000D03*
X151300000Y114280000D03*
G04 #@! TD*
G04 #@! TO.C,R64*
G36*
G01*
X153610000Y121150000D02*
X154390000Y121150000D01*
G75*
G02*
X154460000Y121080000I0J-70000D01*
G01*
X154460000Y120520000D01*
G75*
G02*
X154390000Y120450000I-70000J0D01*
G01*
X153610000Y120450000D01*
G75*
G02*
X153540000Y120520000I0J70000D01*
G01*
X153540000Y121080000D01*
G75*
G02*
X153610000Y121150000I70000J0D01*
G01*
G37*
G36*
G01*
X153610000Y119550000D02*
X154390000Y119550000D01*
G75*
G02*
X154460000Y119480000I0J-70000D01*
G01*
X154460000Y118920000D01*
G75*
G02*
X154390000Y118850000I-70000J0D01*
G01*
X153610000Y118850000D01*
G75*
G02*
X153540000Y118920000I0J70000D01*
G01*
X153540000Y119480000D01*
G75*
G02*
X153610000Y119550000I70000J0D01*
G01*
G37*
G04 #@! TD*
D17*
G04 #@! TO.C,M11*
X114387503Y87393187D03*
X99512501Y83987476D03*
X75692505Y87937491D03*
X75692500Y86037490D03*
X112687486Y89395164D03*
G04 #@! TD*
G04 #@! TO.C,R33*
G36*
G01*
X27575000Y97530000D02*
X27575000Y98310000D01*
G75*
G02*
X27645000Y98380000I70000J0D01*
G01*
X28205000Y98380000D01*
G75*
G02*
X28275000Y98310000I0J-70000D01*
G01*
X28275000Y97530000D01*
G75*
G02*
X28205000Y97460000I-70000J0D01*
G01*
X27645000Y97460000D01*
G75*
G02*
X27575000Y97530000I0J70000D01*
G01*
G37*
G36*
G01*
X29175000Y97530000D02*
X29175000Y98310000D01*
G75*
G02*
X29245000Y98380000I70000J0D01*
G01*
X29805000Y98380000D01*
G75*
G02*
X29875000Y98310000I0J-70000D01*
G01*
X29875000Y97530000D01*
G75*
G02*
X29805000Y97460000I-70000J0D01*
G01*
X29245000Y97460000D01*
G75*
G02*
X29175000Y97530000I0J70000D01*
G01*
G37*
G04 #@! TD*
G04 #@! TO.C,M10*
X62891015Y76137887D03*
X62976216Y81640452D03*
X72216020Y83062887D03*
G36*
G01*
X71716011Y86062884D02*
X71716011Y86062884D01*
X71716011Y86062884D01*
X71716011Y86062884D01*
X71716011Y86062884D01*
G37*
G04 #@! TD*
G04 #@! TO.C,R23*
G36*
G01*
X103344715Y100110000D02*
X103344715Y100890000D01*
G75*
G02*
X103414715Y100960000I70000J0D01*
G01*
X103974715Y100960000D01*
G75*
G02*
X104044715Y100890000I0J-70000D01*
G01*
X104044715Y100110000D01*
G75*
G02*
X103974715Y100040000I-70000J0D01*
G01*
X103414715Y100040000D01*
G75*
G02*
X103344715Y100110000I0J70000D01*
G01*
G37*
G36*
G01*
X104944715Y100110000D02*
X104944715Y100890000D01*
G75*
G02*
X105014715Y100960000I70000J0D01*
G01*
X105574715Y100960000D01*
G75*
G02*
X105644715Y100890000I0J-70000D01*
G01*
X105644715Y100110000D01*
G75*
G02*
X105574715Y100040000I-70000J0D01*
G01*
X105014715Y100040000D01*
G75*
G02*
X104944715Y100110000I0J70000D01*
G01*
G37*
G04 #@! TD*
G04 #@! TO.C,M4*
X85537499Y9934844D03*
X78557501Y8659810D03*
X77787507Y23484827D03*
G04 #@! TD*
G04 #@! TO.C,R7*
G36*
G01*
X49400000Y78765000D02*
X49400000Y79435000D01*
G75*
G02*
X49465000Y79500000I65000J0D01*
G01*
X49985000Y79500000D01*
G75*
G02*
X50050000Y79435000I0J-65000D01*
G01*
X50050000Y78765000D01*
G75*
G02*
X49985000Y78700000I-65000J0D01*
G01*
X49465000Y78700000D01*
G75*
G02*
X49400000Y78765000I0J65000D01*
G01*
G37*
G36*
G01*
X50375000Y78745000D02*
X50375000Y79455000D01*
G75*
G02*
X50420000Y79500000I45000J0D01*
G01*
X50780000Y79500000D01*
G75*
G02*
X50825000Y79455000I0J-45000D01*
G01*
X50825000Y78745000D01*
G75*
G02*
X50780000Y78700000I-45000J0D01*
G01*
X50420000Y78700000D01*
G75*
G02*
X50375000Y78745000I0J45000D01*
G01*
G37*
G36*
G01*
X51175000Y78745000D02*
X51175000Y79455000D01*
G75*
G02*
X51220000Y79500000I45000J0D01*
G01*
X51580000Y79500000D01*
G75*
G02*
X51625000Y79455000I0J-45000D01*
G01*
X51625000Y78745000D01*
G75*
G02*
X51580000Y78700000I-45000J0D01*
G01*
X51220000Y78700000D01*
G75*
G02*
X51175000Y78745000I0J45000D01*
G01*
G37*
G36*
G01*
X51950000Y78765000D02*
X51950000Y79435000D01*
G75*
G02*
X52015000Y79500000I65000J0D01*
G01*
X52535000Y79500000D01*
G75*
G02*
X52600000Y79435000I0J-65000D01*
G01*
X52600000Y78765000D01*
G75*
G02*
X52535000Y78700000I-65000J0D01*
G01*
X52015000Y78700000D01*
G75*
G02*
X51950000Y78765000I0J65000D01*
G01*
G37*
G36*
G01*
X51950000Y80565000D02*
X51950000Y81235000D01*
G75*
G02*
X52015000Y81300000I65000J0D01*
G01*
X52535000Y81300000D01*
G75*
G02*
X52600000Y81235000I0J-65000D01*
G01*
X52600000Y80565000D01*
G75*
G02*
X52535000Y80500000I-65000J0D01*
G01*
X52015000Y80500000D01*
G75*
G02*
X51950000Y80565000I0J65000D01*
G01*
G37*
G36*
G01*
X51175000Y80545000D02*
X51175000Y81255000D01*
G75*
G02*
X51220000Y81300000I45000J0D01*
G01*
X51580000Y81300000D01*
G75*
G02*
X51625000Y81255000I0J-45000D01*
G01*
X51625000Y80545000D01*
G75*
G02*
X51580000Y80500000I-45000J0D01*
G01*
X51220000Y80500000D01*
G75*
G02*
X51175000Y80545000I0J45000D01*
G01*
G37*
G36*
G01*
X50375000Y80545000D02*
X50375000Y81255000D01*
G75*
G02*
X50420000Y81300000I45000J0D01*
G01*
X50780000Y81300000D01*
G75*
G02*
X50825000Y81255000I0J-45000D01*
G01*
X50825000Y80545000D01*
G75*
G02*
X50780000Y80500000I-45000J0D01*
G01*
X50420000Y80500000D01*
G75*
G02*
X50375000Y80545000I0J45000D01*
G01*
G37*
G36*
G01*
X49400000Y80565000D02*
X49400000Y81235000D01*
G75*
G02*
X49465000Y81300000I65000J0D01*
G01*
X49985000Y81300000D01*
G75*
G02*
X50050000Y81235000I0J-65000D01*
G01*
X50050000Y80565000D01*
G75*
G02*
X49985000Y80500000I-65000J0D01*
G01*
X49465000Y80500000D01*
G75*
G02*
X49400000Y80565000I0J65000D01*
G01*
G37*
G04 #@! TD*
D12*
G04 #@! TO.C,D31*
X30050000Y128100000D03*
X26750000Y128100000D03*
G04 #@! TD*
G04 #@! TO.C,R45*
G36*
G01*
X149110000Y72150000D02*
X149890000Y72150000D01*
G75*
G02*
X149960000Y72080000I0J-70000D01*
G01*
X149960000Y71520000D01*
G75*
G02*
X149890000Y71450000I-70000J0D01*
G01*
X149110000Y71450000D01*
G75*
G02*
X149040000Y71520000I0J70000D01*
G01*
X149040000Y72080000D01*
G75*
G02*
X149110000Y72150000I70000J0D01*
G01*
G37*
G36*
G01*
X149110000Y70550000D02*
X149890000Y70550000D01*
G75*
G02*
X149960000Y70480000I0J-70000D01*
G01*
X149960000Y69920000D01*
G75*
G02*
X149890000Y69850000I-70000J0D01*
G01*
X149110000Y69850000D01*
G75*
G02*
X149040000Y69920000I0J70000D01*
G01*
X149040000Y70480000D01*
G75*
G02*
X149110000Y70550000I70000J0D01*
G01*
G37*
G04 #@! TD*
G04 #@! TO.C,R34*
G36*
G01*
X72025000Y116249999D02*
X70775000Y116249999D01*
G75*
G02*
X70675000Y116349999I0J100000D01*
G01*
X70675000Y117149999D01*
G75*
G02*
X70775000Y117249999I100000J0D01*
G01*
X72025000Y117249999D01*
G75*
G02*
X72125000Y117149999I0J-100000D01*
G01*
X72125000Y116349999D01*
G75*
G02*
X72025000Y116249999I-100000J0D01*
G01*
G37*
G36*
G01*
X72025000Y118150021D02*
X70775000Y118150021D01*
G75*
G02*
X70675000Y118250021I0J100000D01*
G01*
X70675000Y119050021D01*
G75*
G02*
X70775000Y119150021I100000J0D01*
G01*
X72025000Y119150021D01*
G75*
G02*
X72125000Y119050021I0J-100000D01*
G01*
X72125000Y118250021D01*
G75*
G02*
X72025000Y118150021I-100000J0D01*
G01*
G37*
G04 #@! TD*
G04 #@! TO.C,D12*
G36*
G01*
X27700000Y82660000D02*
X27700000Y83140000D01*
G75*
G02*
X27760000Y83200000I60000J0D01*
G01*
X28240000Y83200000D01*
G75*
G02*
X28300000Y83140000I0J-60000D01*
G01*
X28300000Y82660000D01*
G75*
G02*
X28240000Y82600000I-60000J0D01*
G01*
X27760000Y82600000D01*
G75*
G02*
X27700000Y82660000I0J60000D01*
G01*
G37*
G36*
G01*
X27700000Y84860000D02*
X27700000Y85340000D01*
G75*
G02*
X27760000Y85400000I60000J0D01*
G01*
X28240000Y85400000D01*
G75*
G02*
X28300000Y85340000I0J-60000D01*
G01*
X28300000Y84860000D01*
G75*
G02*
X28240000Y84800000I-60000J0D01*
G01*
X27760000Y84800000D01*
G75*
G02*
X27700000Y84860000I0J60000D01*
G01*
G37*
G04 #@! TD*
G04 #@! TO.C,C10*
G36*
G01*
X95965000Y110994998D02*
X95285000Y110994998D01*
G75*
G02*
X95200000Y111079998I0J85000D01*
G01*
X95200000Y111759998D01*
G75*
G02*
X95285000Y111844998I85000J0D01*
G01*
X95965000Y111844998D01*
G75*
G02*
X96050000Y111759998I0J-85000D01*
G01*
X96050000Y111079998D01*
G75*
G02*
X95965000Y110994998I-85000J0D01*
G01*
G37*
G36*
G01*
X95965000Y112575000D02*
X95285000Y112575000D01*
G75*
G02*
X95200000Y112660000I0J85000D01*
G01*
X95200000Y113340000D01*
G75*
G02*
X95285000Y113425000I85000J0D01*
G01*
X95965000Y113425000D01*
G75*
G02*
X96050000Y113340000I0J-85000D01*
G01*
X96050000Y112660000D01*
G75*
G02*
X95965000Y112575000I-85000J0D01*
G01*
G37*
G04 #@! TD*
G04 #@! TO.C,D20*
G36*
G01*
X47700000Y82660000D02*
X47700000Y83140000D01*
G75*
G02*
X47760000Y83200000I60000J0D01*
G01*
X48240000Y83200000D01*
G75*
G02*
X48300000Y83140000I0J-60000D01*
G01*
X48300000Y82660000D01*
G75*
G02*
X48240000Y82600000I-60000J0D01*
G01*
X47760000Y82600000D01*
G75*
G02*
X47700000Y82660000I0J60000D01*
G01*
G37*
G36*
G01*
X47700000Y84860000D02*
X47700000Y85340000D01*
G75*
G02*
X47760000Y85400000I60000J0D01*
G01*
X48240000Y85400000D01*
G75*
G02*
X48300000Y85340000I0J-60000D01*
G01*
X48300000Y84860000D01*
G75*
G02*
X48240000Y84800000I-60000J0D01*
G01*
X47760000Y84800000D01*
G75*
G02*
X47700000Y84860000I0J60000D01*
G01*
G37*
G04 #@! TD*
G04 #@! TO.C,R69*
G36*
G01*
X72850000Y126690000D02*
X72850000Y125910000D01*
G75*
G02*
X72780000Y125840000I-70000J0D01*
G01*
X72220000Y125840000D01*
G75*
G02*
X72150000Y125910000I0J70000D01*
G01*
X72150000Y126690000D01*
G75*
G02*
X72220000Y126760000I70000J0D01*
G01*
X72780000Y126760000D01*
G75*
G02*
X72850000Y126690000I0J-70000D01*
G01*
G37*
G36*
G01*
X71250000Y126690000D02*
X71250000Y125910000D01*
G75*
G02*
X71180000Y125840000I-70000J0D01*
G01*
X70620000Y125840000D01*
G75*
G02*
X70550000Y125910000I0J70000D01*
G01*
X70550000Y126690000D01*
G75*
G02*
X70620000Y126760000I70000J0D01*
G01*
X71180000Y126760000D01*
G75*
G02*
X71250000Y126690000I0J-70000D01*
G01*
G37*
G04 #@! TD*
G04 #@! TO.C,D15*
G36*
G01*
X33700000Y82660000D02*
X33700000Y83140000D01*
G75*
G02*
X33760000Y83200000I60000J0D01*
G01*
X34240000Y83200000D01*
G75*
G02*
X34300000Y83140000I0J-60000D01*
G01*
X34300000Y82660000D01*
G75*
G02*
X34240000Y82600000I-60000J0D01*
G01*
X33760000Y82600000D01*
G75*
G02*
X33700000Y82660000I0J60000D01*
G01*
G37*
G36*
G01*
X33700000Y84860000D02*
X33700000Y85340000D01*
G75*
G02*
X33760000Y85400000I60000J0D01*
G01*
X34240000Y85400000D01*
G75*
G02*
X34300000Y85340000I0J-60000D01*
G01*
X34300000Y84860000D01*
G75*
G02*
X34240000Y84800000I-60000J0D01*
G01*
X33760000Y84800000D01*
G75*
G02*
X33700000Y84860000I0J60000D01*
G01*
G37*
G04 #@! TD*
G04 #@! TO.C,D41*
G36*
G01*
X60400000Y94340000D02*
X60400000Y93860000D01*
G75*
G02*
X60340000Y93800000I-60000J0D01*
G01*
X59860000Y93800000D01*
G75*
G02*
X59800000Y93860000I0J60000D01*
G01*
X59800000Y94340000D01*
G75*
G02*
X59860000Y94400000I60000J0D01*
G01*
X60340000Y94400000D01*
G75*
G02*
X60400000Y94340000I0J-60000D01*
G01*
G37*
G36*
G01*
X60400000Y92140000D02*
X60400000Y91660000D01*
G75*
G02*
X60340000Y91600000I-60000J0D01*
G01*
X59860000Y91600000D01*
G75*
G02*
X59800000Y91660000I0J60000D01*
G01*
X59800000Y92140000D01*
G75*
G02*
X59860000Y92200000I60000J0D01*
G01*
X60340000Y92200000D01*
G75*
G02*
X60400000Y92140000I0J-60000D01*
G01*
G37*
G04 #@! TD*
D16*
G04 #@! TO.C,D43*
X134200000Y74150000D03*
X134200000Y70850000D03*
G04 #@! TD*
G04 #@! TO.C,D33*
G36*
G01*
X38200000Y82660000D02*
X38200000Y83140000D01*
G75*
G02*
X38260000Y83200000I60000J0D01*
G01*
X38740000Y83200000D01*
G75*
G02*
X38800000Y83140000I0J-60000D01*
G01*
X38800000Y82660000D01*
G75*
G02*
X38740000Y82600000I-60000J0D01*
G01*
X38260000Y82600000D01*
G75*
G02*
X38200000Y82660000I0J60000D01*
G01*
G37*
G36*
G01*
X38200000Y84860000D02*
X38200000Y85340000D01*
G75*
G02*
X38260000Y85400000I60000J0D01*
G01*
X38740000Y85400000D01*
G75*
G02*
X38800000Y85340000I0J-60000D01*
G01*
X38800000Y84860000D01*
G75*
G02*
X38740000Y84800000I-60000J0D01*
G01*
X38260000Y84800000D01*
G75*
G02*
X38200000Y84860000I0J60000D01*
G01*
G37*
G04 #@! TD*
G04 #@! TO.C,R61*
G36*
G01*
X153610000Y85550000D02*
X154390000Y85550000D01*
G75*
G02*
X154460000Y85480000I0J-70000D01*
G01*
X154460000Y84920000D01*
G75*
G02*
X154390000Y84850000I-70000J0D01*
G01*
X153610000Y84850000D01*
G75*
G02*
X153540000Y84920000I0J70000D01*
G01*
X153540000Y85480000D01*
G75*
G02*
X153610000Y85550000I70000J0D01*
G01*
G37*
G36*
G01*
X153610000Y83950000D02*
X154390000Y83950000D01*
G75*
G02*
X154460000Y83880000I0J-70000D01*
G01*
X154460000Y83320000D01*
G75*
G02*
X154390000Y83250000I-70000J0D01*
G01*
X153610000Y83250000D01*
G75*
G02*
X153540000Y83320000I0J70000D01*
G01*
X153540000Y83880000D01*
G75*
G02*
X153610000Y83950000I70000J0D01*
G01*
G37*
G04 #@! TD*
G04 #@! TO.C,R71*
G36*
G01*
X99650000Y115190000D02*
X99650000Y114410000D01*
G75*
G02*
X99580000Y114340000I-70000J0D01*
G01*
X99020000Y114340000D01*
G75*
G02*
X98950000Y114410000I0J70000D01*
G01*
X98950000Y115190000D01*
G75*
G02*
X99020000Y115260000I70000J0D01*
G01*
X99580000Y115260000D01*
G75*
G02*
X99650000Y115190000I0J-70000D01*
G01*
G37*
G36*
G01*
X98050000Y115190000D02*
X98050000Y114410000D01*
G75*
G02*
X97980000Y114340000I-70000J0D01*
G01*
X97420000Y114340000D01*
G75*
G02*
X97350000Y114410000I0J70000D01*
G01*
X97350000Y115190000D01*
G75*
G02*
X97420000Y115260000I70000J0D01*
G01*
X97980000Y115260000D01*
G75*
G02*
X98050000Y115190000I0J-70000D01*
G01*
G37*
G04 #@! TD*
G04 #@! TO.C,D34*
G36*
G01*
X40200000Y82660000D02*
X40200000Y83140000D01*
G75*
G02*
X40260000Y83200000I60000J0D01*
G01*
X40740000Y83200000D01*
G75*
G02*
X40800000Y83140000I0J-60000D01*
G01*
X40800000Y82660000D01*
G75*
G02*
X40740000Y82600000I-60000J0D01*
G01*
X40260000Y82600000D01*
G75*
G02*
X40200000Y82660000I0J60000D01*
G01*
G37*
G36*
G01*
X40200000Y84860000D02*
X40200000Y85340000D01*
G75*
G02*
X40260000Y85400000I60000J0D01*
G01*
X40740000Y85400000D01*
G75*
G02*
X40800000Y85340000I0J-60000D01*
G01*
X40800000Y84860000D01*
G75*
G02*
X40740000Y84800000I-60000J0D01*
G01*
X40260000Y84800000D01*
G75*
G02*
X40200000Y84860000I0J60000D01*
G01*
G37*
G04 #@! TD*
G04 #@! TO.C,U4*
G36*
G01*
X98700000Y21300000D02*
X98700000Y21100000D01*
G75*
G02*
X98600000Y21000000I-100000J0D01*
G01*
X98250000Y21000000D01*
G75*
G02*
X98150000Y21100000I0J100000D01*
G01*
X98150000Y21300000D01*
G75*
G02*
X98250000Y21400000I100000J0D01*
G01*
X98600000Y21400000D01*
G75*
G02*
X98700000Y21300000I0J-100000D01*
G01*
G37*
G36*
G01*
X98700000Y21900000D02*
X98700000Y21700000D01*
G75*
G02*
X98600000Y21600000I-100000J0D01*
G01*
X98250000Y21600000D01*
G75*
G02*
X98150000Y21700000I0J100000D01*
G01*
X98150000Y21900000D01*
G75*
G02*
X98250000Y22000000I100000J0D01*
G01*
X98600000Y22000000D01*
G75*
G02*
X98700000Y21900000I0J-100000D01*
G01*
G37*
G36*
G01*
X98300000Y22600000D02*
X98300000Y22250000D01*
G75*
G02*
X98200000Y22150000I-100000J0D01*
G01*
X98000000Y22150000D01*
G75*
G02*
X97900000Y22250000I0J100000D01*
G01*
X97900000Y22600000D01*
G75*
G02*
X98000000Y22700000I100000J0D01*
G01*
X98200000Y22700000D01*
G75*
G02*
X98300000Y22600000I0J-100000D01*
G01*
G37*
G36*
G01*
X97700000Y22600000D02*
X97700000Y22250000D01*
G75*
G02*
X97600000Y22150000I-100000J0D01*
G01*
X97400000Y22150000D01*
G75*
G02*
X97300000Y22250000I0J100000D01*
G01*
X97300000Y22600000D01*
G75*
G02*
X97400000Y22700000I100000J0D01*
G01*
X97600000Y22700000D01*
G75*
G02*
X97700000Y22600000I0J-100000D01*
G01*
G37*
G36*
G01*
X97100000Y22600000D02*
X97100000Y22250000D01*
G75*
G02*
X97000000Y22150000I-100000J0D01*
G01*
X96800000Y22150000D01*
G75*
G02*
X96700000Y22250000I0J100000D01*
G01*
X96700000Y22600000D01*
G75*
G02*
X96800000Y22700000I100000J0D01*
G01*
X97000000Y22700000D01*
G75*
G02*
X97100000Y22600000I0J-100000D01*
G01*
G37*
G36*
G01*
X96850000Y21900000D02*
X96850000Y21700000D01*
G75*
G02*
X96750000Y21600000I-100000J0D01*
G01*
X96400000Y21600000D01*
G75*
G02*
X96300000Y21700000I0J100000D01*
G01*
X96300000Y21900000D01*
G75*
G02*
X96400000Y22000000I100000J0D01*
G01*
X96750000Y22000000D01*
G75*
G02*
X96850000Y21900000I0J-100000D01*
G01*
G37*
G36*
G01*
X96850000Y21300000D02*
X96850000Y21100000D01*
G75*
G02*
X96750000Y21000000I-100000J0D01*
G01*
X96400000Y21000000D01*
G75*
G02*
X96300000Y21100000I0J100000D01*
G01*
X96300000Y21300000D01*
G75*
G02*
X96400000Y21400000I100000J0D01*
G01*
X96750000Y21400000D01*
G75*
G02*
X96850000Y21300000I0J-100000D01*
G01*
G37*
G36*
G01*
X97100000Y20750000D02*
X97100000Y20400000D01*
G75*
G02*
X97000000Y20300000I-100000J0D01*
G01*
X96800000Y20300000D01*
G75*
G02*
X96700000Y20400000I0J100000D01*
G01*
X96700000Y20750000D01*
G75*
G02*
X96800000Y20850000I100000J0D01*
G01*
X97000000Y20850000D01*
G75*
G02*
X97100000Y20750000I0J-100000D01*
G01*
G37*
G36*
G01*
X97700000Y20750000D02*
X97700000Y20400000D01*
G75*
G02*
X97600000Y20300000I-100000J0D01*
G01*
X97400000Y20300000D01*
G75*
G02*
X97300000Y20400000I0J100000D01*
G01*
X97300000Y20750000D01*
G75*
G02*
X97400000Y20850000I100000J0D01*
G01*
X97600000Y20850000D01*
G75*
G02*
X97700000Y20750000I0J-100000D01*
G01*
G37*
G36*
G01*
X98300000Y20750000D02*
X98300000Y20400000D01*
G75*
G02*
X98200000Y20300000I-100000J0D01*
G01*
X98000000Y20300000D01*
G75*
G02*
X97900000Y20400000I0J100000D01*
G01*
X97900000Y20750000D01*
G75*
G02*
X98000000Y20850000I100000J0D01*
G01*
X98200000Y20850000D01*
G75*
G02*
X98300000Y20750000I0J-100000D01*
G01*
G37*
G04 #@! TD*
G04 #@! TO.C,R3*
G36*
G01*
X89325000Y120149999D02*
X88075000Y120149999D01*
G75*
G02*
X87975000Y120249999I0J100000D01*
G01*
X87975000Y121049999D01*
G75*
G02*
X88075000Y121149999I100000J0D01*
G01*
X89325000Y121149999D01*
G75*
G02*
X89425000Y121049999I0J-100000D01*
G01*
X89425000Y120249999D01*
G75*
G02*
X89325000Y120149999I-100000J0D01*
G01*
G37*
G36*
G01*
X89325000Y122050021D02*
X88075000Y122050021D01*
G75*
G02*
X87975000Y122150021I0J100000D01*
G01*
X87975000Y122950021D01*
G75*
G02*
X88075000Y123050021I100000J0D01*
G01*
X89325000Y123050021D01*
G75*
G02*
X89425000Y122950021I0J-100000D01*
G01*
X89425000Y122150021D01*
G75*
G02*
X89325000Y122050021I-100000J0D01*
G01*
G37*
G04 #@! TD*
G04 #@! TO.C,D21*
G36*
G01*
X49700000Y82660000D02*
X49700000Y83140000D01*
G75*
G02*
X49760000Y83200000I60000J0D01*
G01*
X50240000Y83200000D01*
G75*
G02*
X50300000Y83140000I0J-60000D01*
G01*
X50300000Y82660000D01*
G75*
G02*
X50240000Y82600000I-60000J0D01*
G01*
X49760000Y82600000D01*
G75*
G02*
X49700000Y82660000I0J60000D01*
G01*
G37*
G36*
G01*
X49700000Y84860000D02*
X49700000Y85340000D01*
G75*
G02*
X49760000Y85400000I60000J0D01*
G01*
X50240000Y85400000D01*
G75*
G02*
X50300000Y85340000I0J-60000D01*
G01*
X50300000Y84860000D01*
G75*
G02*
X50240000Y84800000I-60000J0D01*
G01*
X49760000Y84800000D01*
G75*
G02*
X49700000Y84860000I0J60000D01*
G01*
G37*
G04 #@! TD*
G04 #@! TO.C,R6*
G36*
G01*
X29400000Y78765000D02*
X29400000Y79435000D01*
G75*
G02*
X29465000Y79500000I65000J0D01*
G01*
X29985000Y79500000D01*
G75*
G02*
X30050000Y79435000I0J-65000D01*
G01*
X30050000Y78765000D01*
G75*
G02*
X29985000Y78700000I-65000J0D01*
G01*
X29465000Y78700000D01*
G75*
G02*
X29400000Y78765000I0J65000D01*
G01*
G37*
G36*
G01*
X30375000Y78745000D02*
X30375000Y79455000D01*
G75*
G02*
X30420000Y79500000I45000J0D01*
G01*
X30780000Y79500000D01*
G75*
G02*
X30825000Y79455000I0J-45000D01*
G01*
X30825000Y78745000D01*
G75*
G02*
X30780000Y78700000I-45000J0D01*
G01*
X30420000Y78700000D01*
G75*
G02*
X30375000Y78745000I0J45000D01*
G01*
G37*
G36*
G01*
X31175000Y78745000D02*
X31175000Y79455000D01*
G75*
G02*
X31220000Y79500000I45000J0D01*
G01*
X31580000Y79500000D01*
G75*
G02*
X31625000Y79455000I0J-45000D01*
G01*
X31625000Y78745000D01*
G75*
G02*
X31580000Y78700000I-45000J0D01*
G01*
X31220000Y78700000D01*
G75*
G02*
X31175000Y78745000I0J45000D01*
G01*
G37*
G36*
G01*
X31950000Y78765000D02*
X31950000Y79435000D01*
G75*
G02*
X32015000Y79500000I65000J0D01*
G01*
X32535000Y79500000D01*
G75*
G02*
X32600000Y79435000I0J-65000D01*
G01*
X32600000Y78765000D01*
G75*
G02*
X32535000Y78700000I-65000J0D01*
G01*
X32015000Y78700000D01*
G75*
G02*
X31950000Y78765000I0J65000D01*
G01*
G37*
G36*
G01*
X31950000Y80565000D02*
X31950000Y81235000D01*
G75*
G02*
X32015000Y81300000I65000J0D01*
G01*
X32535000Y81300000D01*
G75*
G02*
X32600000Y81235000I0J-65000D01*
G01*
X32600000Y80565000D01*
G75*
G02*
X32535000Y80500000I-65000J0D01*
G01*
X32015000Y80500000D01*
G75*
G02*
X31950000Y80565000I0J65000D01*
G01*
G37*
G36*
G01*
X31175000Y80545000D02*
X31175000Y81255000D01*
G75*
G02*
X31220000Y81300000I45000J0D01*
G01*
X31580000Y81300000D01*
G75*
G02*
X31625000Y81255000I0J-45000D01*
G01*
X31625000Y80545000D01*
G75*
G02*
X31580000Y80500000I-45000J0D01*
G01*
X31220000Y80500000D01*
G75*
G02*
X31175000Y80545000I0J45000D01*
G01*
G37*
G36*
G01*
X30375000Y80545000D02*
X30375000Y81255000D01*
G75*
G02*
X30420000Y81300000I45000J0D01*
G01*
X30780000Y81300000D01*
G75*
G02*
X30825000Y81255000I0J-45000D01*
G01*
X30825000Y80545000D01*
G75*
G02*
X30780000Y80500000I-45000J0D01*
G01*
X30420000Y80500000D01*
G75*
G02*
X30375000Y80545000I0J45000D01*
G01*
G37*
G36*
G01*
X29400000Y80565000D02*
X29400000Y81235000D01*
G75*
G02*
X29465000Y81300000I65000J0D01*
G01*
X29985000Y81300000D01*
G75*
G02*
X30050000Y81235000I0J-65000D01*
G01*
X30050000Y80565000D01*
G75*
G02*
X29985000Y80500000I-65000J0D01*
G01*
X29465000Y80500000D01*
G75*
G02*
X29400000Y80565000I0J65000D01*
G01*
G37*
G04 #@! TD*
G04 #@! TO.C,C6*
G36*
G01*
X56340000Y111165001D02*
X55660000Y111165001D01*
G75*
G02*
X55575000Y111250001I0J85000D01*
G01*
X55575000Y111930001D01*
G75*
G02*
X55660000Y112015001I85000J0D01*
G01*
X56340000Y112015001D01*
G75*
G02*
X56425000Y111930001I0J-85000D01*
G01*
X56425000Y111250001D01*
G75*
G02*
X56340000Y111165001I-85000J0D01*
G01*
G37*
G36*
G01*
X56340000Y109584999D02*
X55660000Y109584999D01*
G75*
G02*
X55575000Y109669999I0J85000D01*
G01*
X55575000Y110349999D01*
G75*
G02*
X55660000Y110434999I85000J0D01*
G01*
X56340000Y110434999D01*
G75*
G02*
X56425000Y110349999I0J-85000D01*
G01*
X56425000Y109669999D01*
G75*
G02*
X56340000Y109584999I-85000J0D01*
G01*
G37*
G04 #@! TD*
G04 #@! TO.C,R13*
G36*
G01*
X29502861Y45357216D02*
X29502861Y44577216D01*
G75*
G02*
X29432861Y44507216I-70000J0D01*
G01*
X28872861Y44507216D01*
G75*
G02*
X28802861Y44577216I0J70000D01*
G01*
X28802861Y45357216D01*
G75*
G02*
X28872861Y45427216I70000J0D01*
G01*
X29432861Y45427216D01*
G75*
G02*
X29502861Y45357216I0J-70000D01*
G01*
G37*
G36*
G01*
X27902861Y45357216D02*
X27902861Y44577216D01*
G75*
G02*
X27832861Y44507216I-70000J0D01*
G01*
X27272861Y44507216D01*
G75*
G02*
X27202861Y44577216I0J70000D01*
G01*
X27202861Y45357216D01*
G75*
G02*
X27272861Y45427216I70000J0D01*
G01*
X27832861Y45427216D01*
G75*
G02*
X27902861Y45357216I0J-70000D01*
G01*
G37*
G04 #@! TD*
G04 #@! TO.C,D42*
X134200000Y55850000D03*
X134200000Y59150000D03*
G04 #@! TD*
G04 #@! TO.C,R8*
G36*
G01*
X80025000Y116249999D02*
X78775000Y116249999D01*
G75*
G02*
X78675000Y116349999I0J100000D01*
G01*
X78675000Y117149999D01*
G75*
G02*
X78775000Y117249999I100000J0D01*
G01*
X80025000Y117249999D01*
G75*
G02*
X80125000Y117149999I0J-100000D01*
G01*
X80125000Y116349999D01*
G75*
G02*
X80025000Y116249999I-100000J0D01*
G01*
G37*
G36*
G01*
X80025000Y118150021D02*
X78775000Y118150021D01*
G75*
G02*
X78675000Y118250021I0J100000D01*
G01*
X78675000Y119050021D01*
G75*
G02*
X78775000Y119150021I100000J0D01*
G01*
X80025000Y119150021D01*
G75*
G02*
X80125000Y119050021I0J-100000D01*
G01*
X80125000Y118250021D01*
G75*
G02*
X80025000Y118150021I-100000J0D01*
G01*
G37*
G04 #@! TD*
D18*
G04 #@! TO.C,U1*
X91850000Y20662500D03*
X91350000Y20662500D03*
X90850000Y20662500D03*
X90350000Y20662500D03*
D19*
X90337500Y20150000D03*
X90337500Y19650000D03*
D18*
X90350000Y19137500D03*
X90850000Y19137500D03*
X91350000Y19137500D03*
X91850000Y19137500D03*
D19*
X91862500Y19650000D03*
X91862500Y20150000D03*
G04 #@! TD*
G04 #@! TO.C,R40*
G36*
G01*
X47125000Y113249999D02*
X45875000Y113249999D01*
G75*
G02*
X45775000Y113349999I0J100000D01*
G01*
X45775000Y114149999D01*
G75*
G02*
X45875000Y114249999I100000J0D01*
G01*
X47125000Y114249999D01*
G75*
G02*
X47225000Y114149999I0J-100000D01*
G01*
X47225000Y113349999D01*
G75*
G02*
X47125000Y113249999I-100000J0D01*
G01*
G37*
G36*
G01*
X47125000Y115150021D02*
X45875000Y115150021D01*
G75*
G02*
X45775000Y115250021I0J100000D01*
G01*
X45775000Y116050021D01*
G75*
G02*
X45875000Y116150021I100000J0D01*
G01*
X47125000Y116150021D01*
G75*
G02*
X47225000Y116050021I0J-100000D01*
G01*
X47225000Y115250021D01*
G75*
G02*
X47125000Y115150021I-100000J0D01*
G01*
G37*
G04 #@! TD*
G04 #@! TO.C,D8*
G36*
G01*
X31600002Y89299999D02*
X32500002Y89299999D01*
G75*
G02*
X32600002Y89199999I0J-100000D01*
G01*
X32600002Y88399999D01*
G75*
G02*
X32500002Y88299999I-100000J0D01*
G01*
X31600002Y88299999D01*
G75*
G02*
X31500002Y88399999I0J100000D01*
G01*
X31500002Y89199999D01*
G75*
G02*
X31600002Y89299999I100000J0D01*
G01*
G37*
G36*
G01*
X31600002Y87599999D02*
X32500002Y87599999D01*
G75*
G02*
X32600002Y87499999I0J-100000D01*
G01*
X32600002Y86699999D01*
G75*
G02*
X32500002Y86599999I-100000J0D01*
G01*
X31600002Y86599999D01*
G75*
G02*
X31500002Y86699999I0J100000D01*
G01*
X31500002Y87499999D01*
G75*
G02*
X31600002Y87599999I100000J0D01*
G01*
G37*
G04 #@! TD*
G04 #@! TO.C,R59*
G36*
G01*
X99125000Y118049999D02*
X97875000Y118049999D01*
G75*
G02*
X97775000Y118149999I0J100000D01*
G01*
X97775000Y118949999D01*
G75*
G02*
X97875000Y119049999I100000J0D01*
G01*
X99125000Y119049999D01*
G75*
G02*
X99225000Y118949999I0J-100000D01*
G01*
X99225000Y118149999D01*
G75*
G02*
X99125000Y118049999I-100000J0D01*
G01*
G37*
G36*
G01*
X99125000Y119950021D02*
X97875000Y119950021D01*
G75*
G02*
X97775000Y120050021I0J100000D01*
G01*
X97775000Y120850021D01*
G75*
G02*
X97875000Y120950021I100000J0D01*
G01*
X99125000Y120950021D01*
G75*
G02*
X99225000Y120850021I0J-100000D01*
G01*
X99225000Y120050021D01*
G75*
G02*
X99125000Y119950021I-100000J0D01*
G01*
G37*
G04 #@! TD*
G04 #@! TO.C,D23*
G36*
G01*
X53700000Y82660000D02*
X53700000Y83140000D01*
G75*
G02*
X53760000Y83200000I60000J0D01*
G01*
X54240000Y83200000D01*
G75*
G02*
X54300000Y83140000I0J-60000D01*
G01*
X54300000Y82660000D01*
G75*
G02*
X54240000Y82600000I-60000J0D01*
G01*
X53760000Y82600000D01*
G75*
G02*
X53700000Y82660000I0J60000D01*
G01*
G37*
G36*
G01*
X53700000Y84860000D02*
X53700000Y85340000D01*
G75*
G02*
X53760000Y85400000I60000J0D01*
G01*
X54240000Y85400000D01*
G75*
G02*
X54300000Y85340000I0J-60000D01*
G01*
X54300000Y84860000D01*
G75*
G02*
X54240000Y84800000I-60000J0D01*
G01*
X53760000Y84800000D01*
G75*
G02*
X53700000Y84860000I0J60000D01*
G01*
G37*
G04 #@! TD*
G04 #@! TO.C,D7*
G36*
G01*
X29600002Y89299999D02*
X30500002Y89299999D01*
G75*
G02*
X30600002Y89199999I0J-100000D01*
G01*
X30600002Y88399999D01*
G75*
G02*
X30500002Y88299999I-100000J0D01*
G01*
X29600002Y88299999D01*
G75*
G02*
X29500002Y88399999I0J100000D01*
G01*
X29500002Y89199999D01*
G75*
G02*
X29600002Y89299999I100000J0D01*
G01*
G37*
G36*
G01*
X29600002Y87599999D02*
X30500002Y87599999D01*
G75*
G02*
X30600002Y87499999I0J-100000D01*
G01*
X30600002Y86699999D01*
G75*
G02*
X30500002Y86599999I-100000J0D01*
G01*
X29600002Y86599999D01*
G75*
G02*
X29500002Y86699999I0J100000D01*
G01*
X29500002Y87499999D01*
G75*
G02*
X29600002Y87599999I100000J0D01*
G01*
G37*
G04 #@! TD*
G04 #@! TO.C,D39*
G36*
G01*
X61700002Y94299999D02*
X62600002Y94299999D01*
G75*
G02*
X62700002Y94199999I0J-100000D01*
G01*
X62700002Y93399999D01*
G75*
G02*
X62600002Y93299999I-100000J0D01*
G01*
X61700002Y93299999D01*
G75*
G02*
X61600002Y93399999I0J100000D01*
G01*
X61600002Y94199999D01*
G75*
G02*
X61700002Y94299999I100000J0D01*
G01*
G37*
G36*
G01*
X61700002Y92599999D02*
X62600002Y92599999D01*
G75*
G02*
X62700002Y92499999I0J-100000D01*
G01*
X62700002Y91699999D01*
G75*
G02*
X62600002Y91599999I-100000J0D01*
G01*
X61700002Y91599999D01*
G75*
G02*
X61600002Y91699999I0J100000D01*
G01*
X61600002Y92499999D01*
G75*
G02*
X61700002Y92599999I100000J0D01*
G01*
G37*
G04 #@! TD*
G04 #@! TO.C,R74*
G36*
G01*
X64050000Y125910000D02*
X64050000Y126690000D01*
G75*
G02*
X64120000Y126760000I70000J0D01*
G01*
X64680000Y126760000D01*
G75*
G02*
X64750000Y126690000I0J-70000D01*
G01*
X64750000Y125910000D01*
G75*
G02*
X64680000Y125840000I-70000J0D01*
G01*
X64120000Y125840000D01*
G75*
G02*
X64050000Y125910000I0J70000D01*
G01*
G37*
G36*
G01*
X65650000Y125910000D02*
X65650000Y126690000D01*
G75*
G02*
X65720000Y126760000I70000J0D01*
G01*
X66280000Y126760000D01*
G75*
G02*
X66350000Y126690000I0J-70000D01*
G01*
X66350000Y125910000D01*
G75*
G02*
X66280000Y125840000I-70000J0D01*
G01*
X65720000Y125840000D01*
G75*
G02*
X65650000Y125910000I0J70000D01*
G01*
G37*
G04 #@! TD*
D10*
G04 #@! TO.C,Q6*
X138725000Y66525000D03*
X142075000Y66525000D03*
X138725000Y63475000D03*
X142075000Y63475000D03*
D11*
X146700000Y62720000D03*
X146700000Y67280000D03*
G04 #@! TD*
G04 #@! TO.C,R65*
G36*
G01*
X149975000Y83425000D02*
X149975000Y80575000D01*
G75*
G02*
X149725000Y80325000I-250000J0D01*
G01*
X149000000Y80325000D01*
G75*
G02*
X148750000Y80575000I0J250000D01*
G01*
X148750000Y83425000D01*
G75*
G02*
X149000000Y83675000I250000J0D01*
G01*
X149725000Y83675000D01*
G75*
G02*
X149975000Y83425000I0J-250000D01*
G01*
G37*
G36*
G01*
X144050000Y83425000D02*
X144050000Y80575000D01*
G75*
G02*
X143800000Y80325000I-250000J0D01*
G01*
X143075000Y80325000D01*
G75*
G02*
X142825000Y80575000I0J250000D01*
G01*
X142825000Y83425000D01*
G75*
G02*
X143075000Y83675000I250000J0D01*
G01*
X143800000Y83675000D01*
G75*
G02*
X144050000Y83425000I0J-250000D01*
G01*
G37*
G04 #@! TD*
G04 #@! TO.C,R38*
G36*
G01*
X52125000Y120149999D02*
X50875000Y120149999D01*
G75*
G02*
X50775000Y120249999I0J100000D01*
G01*
X50775000Y121049999D01*
G75*
G02*
X50875000Y121149999I100000J0D01*
G01*
X52125000Y121149999D01*
G75*
G02*
X52225000Y121049999I0J-100000D01*
G01*
X52225000Y120249999D01*
G75*
G02*
X52125000Y120149999I-100000J0D01*
G01*
G37*
G36*
G01*
X52125000Y122050021D02*
X50875000Y122050021D01*
G75*
G02*
X50775000Y122150021I0J100000D01*
G01*
X50775000Y122950021D01*
G75*
G02*
X50875000Y123050021I100000J0D01*
G01*
X52125000Y123050021D01*
G75*
G02*
X52225000Y122950021I0J-100000D01*
G01*
X52225000Y122150021D01*
G75*
G02*
X52125000Y122050021I-100000J0D01*
G01*
G37*
G04 #@! TD*
G04 #@! TO.C,R37*
G36*
G01*
X79235000Y111650000D02*
X80015000Y111650000D01*
G75*
G02*
X80085000Y111580000I0J-70000D01*
G01*
X80085000Y111020000D01*
G75*
G02*
X80015000Y110950000I-70000J0D01*
G01*
X79235000Y110950000D01*
G75*
G02*
X79165000Y111020000I0J70000D01*
G01*
X79165000Y111580000D01*
G75*
G02*
X79235000Y111650000I70000J0D01*
G01*
G37*
G36*
G01*
X79235000Y110050000D02*
X80015000Y110050000D01*
G75*
G02*
X80085000Y109980000I0J-70000D01*
G01*
X80085000Y109420000D01*
G75*
G02*
X80015000Y109350000I-70000J0D01*
G01*
X79235000Y109350000D01*
G75*
G02*
X79165000Y109420000I0J70000D01*
G01*
X79165000Y109980000D01*
G75*
G02*
X79235000Y110050000I70000J0D01*
G01*
G37*
G04 #@! TD*
G04 #@! TO.C,D35*
G36*
G01*
X42200000Y82660000D02*
X42200000Y83140000D01*
G75*
G02*
X42260000Y83200000I60000J0D01*
G01*
X42740000Y83200000D01*
G75*
G02*
X42800000Y83140000I0J-60000D01*
G01*
X42800000Y82660000D01*
G75*
G02*
X42740000Y82600000I-60000J0D01*
G01*
X42260000Y82600000D01*
G75*
G02*
X42200000Y82660000I0J60000D01*
G01*
G37*
G36*
G01*
X42200000Y84860000D02*
X42200000Y85340000D01*
G75*
G02*
X42260000Y85400000I60000J0D01*
G01*
X42740000Y85400000D01*
G75*
G02*
X42800000Y85340000I0J-60000D01*
G01*
X42800000Y84860000D01*
G75*
G02*
X42740000Y84800000I-60000J0D01*
G01*
X42260000Y84800000D01*
G75*
G02*
X42200000Y84860000I0J60000D01*
G01*
G37*
G04 #@! TD*
G04 #@! TO.C,R9*
G36*
G01*
X67125000Y120149999D02*
X65875000Y120149999D01*
G75*
G02*
X65775000Y120249999I0J100000D01*
G01*
X65775000Y121049999D01*
G75*
G02*
X65875000Y121149999I100000J0D01*
G01*
X67125000Y121149999D01*
G75*
G02*
X67225000Y121049999I0J-100000D01*
G01*
X67225000Y120249999D01*
G75*
G02*
X67125000Y120149999I-100000J0D01*
G01*
G37*
G36*
G01*
X67125000Y122050021D02*
X65875000Y122050021D01*
G75*
G02*
X65775000Y122150021I0J100000D01*
G01*
X65775000Y122950021D01*
G75*
G02*
X65875000Y123050021I100000J0D01*
G01*
X67125000Y123050021D01*
G75*
G02*
X67225000Y122950021I0J-100000D01*
G01*
X67225000Y122150021D01*
G75*
G02*
X67125000Y122050021I-100000J0D01*
G01*
G37*
G04 #@! TD*
D20*
G04 #@! TO.C,U6*
X31600000Y104420000D03*
X33850000Y101500000D03*
X33850000Y107340000D03*
X31600000Y101500000D03*
X33850000Y105880000D03*
X31600000Y107340000D03*
X31600000Y105880000D03*
X33850000Y104420000D03*
X33850000Y102960000D03*
X31600000Y102960000D03*
D21*
X37525000Y101920000D03*
X37525000Y102920000D03*
X37525000Y103920000D03*
X37525000Y104920000D03*
X37525000Y105920000D03*
X37525000Y106920000D03*
X27925000Y106920000D03*
X27925000Y105920000D03*
X27925000Y104920000D03*
X27925000Y103920000D03*
X27925000Y102920000D03*
X27925000Y101920000D03*
G04 #@! TD*
G04 #@! TO.C,R50*
G36*
G01*
X29402861Y37257216D02*
X29402861Y36477216D01*
G75*
G02*
X29332861Y36407216I-70000J0D01*
G01*
X28772861Y36407216D01*
G75*
G02*
X28702861Y36477216I0J70000D01*
G01*
X28702861Y37257216D01*
G75*
G02*
X28772861Y37327216I70000J0D01*
G01*
X29332861Y37327216D01*
G75*
G02*
X29402861Y37257216I0J-70000D01*
G01*
G37*
G36*
G01*
X27802861Y37257216D02*
X27802861Y36477216D01*
G75*
G02*
X27732861Y36407216I-70000J0D01*
G01*
X27172861Y36407216D01*
G75*
G02*
X27102861Y36477216I0J70000D01*
G01*
X27102861Y37257216D01*
G75*
G02*
X27172861Y37327216I70000J0D01*
G01*
X27732861Y37327216D01*
G75*
G02*
X27802861Y37257216I0J-70000D01*
G01*
G37*
G04 #@! TD*
D16*
G04 #@! TO.C,D32*
X33000000Y114650000D03*
X33000000Y111350000D03*
G04 #@! TD*
D17*
G04 #@! TO.C,M6*
X115387500Y12043334D03*
G04 #@! TD*
G04 #@! TO.C,C1*
G36*
G01*
X69115001Y15240000D02*
X69115001Y14560000D01*
G75*
G02*
X69030001Y14475000I-85000J0D01*
G01*
X68350001Y14475000D01*
G75*
G02*
X68265001Y14560000I0J85000D01*
G01*
X68265001Y15240000D01*
G75*
G02*
X68350001Y15325000I85000J0D01*
G01*
X69030001Y15325000D01*
G75*
G02*
X69115001Y15240000I0J-85000D01*
G01*
G37*
G36*
G01*
X67534999Y15240000D02*
X67534999Y14560000D01*
G75*
G02*
X67449999Y14475000I-85000J0D01*
G01*
X66769999Y14475000D01*
G75*
G02*
X66684999Y14560000I0J85000D01*
G01*
X66684999Y15240000D01*
G75*
G02*
X66769999Y15325000I85000J0D01*
G01*
X67449999Y15325000D01*
G75*
G02*
X67534999Y15240000I0J-85000D01*
G01*
G37*
G04 #@! TD*
D22*
G04 #@! TO.C,BT1*
X144500000Y22350000D03*
X144500000Y51650000D03*
G04 #@! TD*
G04 #@! TO.C,D30*
G36*
G01*
X142700001Y14600002D02*
X142700001Y15500002D01*
G75*
G02*
X142800001Y15600002I100000J0D01*
G01*
X143600001Y15600002D01*
G75*
G02*
X143700001Y15500002I0J-100000D01*
G01*
X143700001Y14600002D01*
G75*
G02*
X143600001Y14500002I-100000J0D01*
G01*
X142800001Y14500002D01*
G75*
G02*
X142700001Y14600002I0J100000D01*
G01*
G37*
G36*
G01*
X144400001Y14600002D02*
X144400001Y15500002D01*
G75*
G02*
X144500001Y15600002I100000J0D01*
G01*
X145300001Y15600002D01*
G75*
G02*
X145400001Y15500002I0J-100000D01*
G01*
X145400001Y14600002D01*
G75*
G02*
X145300001Y14500002I-100000J0D01*
G01*
X144500001Y14500002D01*
G75*
G02*
X144400001Y14600002I0J100000D01*
G01*
G37*
G04 #@! TD*
G04 #@! TO.C,D37*
G36*
G01*
X40100002Y89299999D02*
X41000002Y89299999D01*
G75*
G02*
X41100002Y89199999I0J-100000D01*
G01*
X41100002Y88399999D01*
G75*
G02*
X41000002Y88299999I-100000J0D01*
G01*
X40100002Y88299999D01*
G75*
G02*
X40000002Y88399999I0J100000D01*
G01*
X40000002Y89199999D01*
G75*
G02*
X40100002Y89299999I100000J0D01*
G01*
G37*
G36*
G01*
X40100002Y87599999D02*
X41000002Y87599999D01*
G75*
G02*
X41100002Y87499999I0J-100000D01*
G01*
X41100002Y86699999D01*
G75*
G02*
X41000002Y86599999I-100000J0D01*
G01*
X40100002Y86599999D01*
G75*
G02*
X40000002Y86699999I0J100000D01*
G01*
X40000002Y87499999D01*
G75*
G02*
X40100002Y87599999I100000J0D01*
G01*
G37*
G04 #@! TD*
G04 #@! TO.C,R46*
G36*
G01*
X69625000Y120149999D02*
X68375000Y120149999D01*
G75*
G02*
X68275000Y120249999I0J100000D01*
G01*
X68275000Y121049999D01*
G75*
G02*
X68375000Y121149999I100000J0D01*
G01*
X69625000Y121149999D01*
G75*
G02*
X69725000Y121049999I0J-100000D01*
G01*
X69725000Y120249999D01*
G75*
G02*
X69625000Y120149999I-100000J0D01*
G01*
G37*
G36*
G01*
X69625000Y122050021D02*
X68375000Y122050021D01*
G75*
G02*
X68275000Y122150021I0J100000D01*
G01*
X68275000Y122950021D01*
G75*
G02*
X68375000Y123050021I100000J0D01*
G01*
X69625000Y123050021D01*
G75*
G02*
X69725000Y122950021I0J-100000D01*
G01*
X69725000Y122150021D01*
G75*
G02*
X69625000Y122050021I-100000J0D01*
G01*
G37*
G04 #@! TD*
G04 #@! TO.C,D3*
G36*
G01*
X142700001Y8600002D02*
X142700001Y9500002D01*
G75*
G02*
X142800001Y9600002I100000J0D01*
G01*
X143600001Y9600002D01*
G75*
G02*
X143700001Y9500002I0J-100000D01*
G01*
X143700001Y8600002D01*
G75*
G02*
X143600001Y8500002I-100000J0D01*
G01*
X142800001Y8500002D01*
G75*
G02*
X142700001Y8600002I0J100000D01*
G01*
G37*
G36*
G01*
X144400001Y8600002D02*
X144400001Y9500002D01*
G75*
G02*
X144500001Y9600002I100000J0D01*
G01*
X145300001Y9600002D01*
G75*
G02*
X145400001Y9500002I0J-100000D01*
G01*
X145400001Y8600002D01*
G75*
G02*
X145300001Y8500002I-100000J0D01*
G01*
X144500001Y8500002D01*
G75*
G02*
X144400001Y8600002I0J100000D01*
G01*
G37*
G04 #@! TD*
G04 #@! TO.C,D1*
G36*
G01*
X28002861Y47487216D02*
X28002861Y46247216D01*
G75*
G02*
X27872861Y46117216I-130000J0D01*
G01*
X26832861Y46117216D01*
G75*
G02*
X26702861Y46247216I0J130000D01*
G01*
X26702861Y47487216D01*
G75*
G02*
X26832861Y47617216I130000J0D01*
G01*
X27872861Y47617216D01*
G75*
G02*
X28002861Y47487216I0J-130000D01*
G01*
G37*
G36*
G01*
X29902882Y47487216D02*
X29902882Y46247216D01*
G75*
G02*
X29772882Y46117216I-130000J0D01*
G01*
X28732882Y46117216D01*
G75*
G02*
X28602882Y46247216I0J130000D01*
G01*
X28602882Y47487216D01*
G75*
G02*
X28732882Y47617216I130000J0D01*
G01*
X29772882Y47617216D01*
G75*
G02*
X29902882Y47487216I0J-130000D01*
G01*
G37*
G04 #@! TD*
G04 #@! TO.C,S2*
G36*
G01*
X65499999Y11580000D02*
X65499999Y13420000D01*
G75*
G02*
X65579999Y13500000I80000J0D01*
G01*
X66219999Y13500000D01*
G75*
G02*
X66299999Y13420000I0J-80000D01*
G01*
X66299999Y11580000D01*
G75*
G02*
X66219999Y11500000I-80000J0D01*
G01*
X65579999Y11500000D01*
G75*
G02*
X65499999Y11580000I0J80000D01*
G01*
G37*
G36*
G01*
X69700000Y11580000D02*
X69700000Y13420000D01*
G75*
G02*
X69780000Y13500000I80000J0D01*
G01*
X70420000Y13500000D01*
G75*
G02*
X70500000Y13420000I0J-80000D01*
G01*
X70500000Y11580000D01*
G75*
G02*
X70420000Y11500000I-80000J0D01*
G01*
X69780000Y11500000D01*
G75*
G02*
X69700000Y11580000I0J80000D01*
G01*
G37*
G04 #@! TD*
G04 #@! TO.C,C4*
G36*
G01*
X112849999Y15394998D02*
X112169999Y15394998D01*
G75*
G02*
X112084999Y15479998I0J85000D01*
G01*
X112084999Y16159998D01*
G75*
G02*
X112169999Y16244998I85000J0D01*
G01*
X112849999Y16244998D01*
G75*
G02*
X112934999Y16159998I0J-85000D01*
G01*
X112934999Y15479998D01*
G75*
G02*
X112849999Y15394998I-85000J0D01*
G01*
G37*
G36*
G01*
X112849999Y16975000D02*
X112169999Y16975000D01*
G75*
G02*
X112084999Y17060000I0J85000D01*
G01*
X112084999Y17740000D01*
G75*
G02*
X112169999Y17825000I85000J0D01*
G01*
X112849999Y17825000D01*
G75*
G02*
X112934999Y17740000I0J-85000D01*
G01*
X112934999Y17060000D01*
G75*
G02*
X112849999Y16975000I-85000J0D01*
G01*
G37*
G04 #@! TD*
G04 #@! TO.C,D22*
G36*
G01*
X51700000Y82660000D02*
X51700000Y83140000D01*
G75*
G02*
X51760000Y83200000I60000J0D01*
G01*
X52240000Y83200000D01*
G75*
G02*
X52300000Y83140000I0J-60000D01*
G01*
X52300000Y82660000D01*
G75*
G02*
X52240000Y82600000I-60000J0D01*
G01*
X51760000Y82600000D01*
G75*
G02*
X51700000Y82660000I0J60000D01*
G01*
G37*
G36*
G01*
X51700000Y84860000D02*
X51700000Y85340000D01*
G75*
G02*
X51760000Y85400000I60000J0D01*
G01*
X52240000Y85400000D01*
G75*
G02*
X52300000Y85340000I0J-60000D01*
G01*
X52300000Y84860000D01*
G75*
G02*
X52240000Y84800000I-60000J0D01*
G01*
X51760000Y84800000D01*
G75*
G02*
X51700000Y84860000I0J60000D01*
G01*
G37*
G04 #@! TD*
G04 #@! TO.C,C8*
G36*
G01*
X41065000Y102914998D02*
X40385000Y102914998D01*
G75*
G02*
X40300000Y102999998I0J85000D01*
G01*
X40300000Y103679998D01*
G75*
G02*
X40385000Y103764998I85000J0D01*
G01*
X41065000Y103764998D01*
G75*
G02*
X41150000Y103679998I0J-85000D01*
G01*
X41150000Y102999998D01*
G75*
G02*
X41065000Y102914998I-85000J0D01*
G01*
G37*
G36*
G01*
X41065000Y104495000D02*
X40385000Y104495000D01*
G75*
G02*
X40300000Y104580000I0J85000D01*
G01*
X40300000Y105260000D01*
G75*
G02*
X40385000Y105345000I85000J0D01*
G01*
X41065000Y105345000D01*
G75*
G02*
X41150000Y105260000I0J-85000D01*
G01*
X41150000Y104580000D01*
G75*
G02*
X41065000Y104495000I-85000J0D01*
G01*
G37*
G04 #@! TD*
G04 #@! TO.C,R54*
G36*
G01*
X33625000Y120144999D02*
X32375000Y120144999D01*
G75*
G02*
X32275000Y120244999I0J100000D01*
G01*
X32275000Y121044999D01*
G75*
G02*
X32375000Y121144999I100000J0D01*
G01*
X33625000Y121144999D01*
G75*
G02*
X33725000Y121044999I0J-100000D01*
G01*
X33725000Y120244999D01*
G75*
G02*
X33625000Y120144999I-100000J0D01*
G01*
G37*
G36*
G01*
X33625000Y122045021D02*
X32375000Y122045021D01*
G75*
G02*
X32275000Y122145021I0J100000D01*
G01*
X32275000Y122945021D01*
G75*
G02*
X32375000Y123045021I100000J0D01*
G01*
X33625000Y123045021D01*
G75*
G02*
X33725000Y122945021I0J-100000D01*
G01*
X33725000Y122145021D01*
G75*
G02*
X33625000Y122045021I-100000J0D01*
G01*
G37*
G04 #@! TD*
G04 #@! TO.C,R16*
G36*
G01*
X55600004Y83864999D02*
X55600004Y84534999D01*
G75*
G02*
X55665004Y84599999I65000J0D01*
G01*
X56185004Y84599999D01*
G75*
G02*
X56250004Y84534999I0J-65000D01*
G01*
X56250004Y83864999D01*
G75*
G02*
X56185004Y83799999I-65000J0D01*
G01*
X55665004Y83799999D01*
G75*
G02*
X55600004Y83864999I0J65000D01*
G01*
G37*
G36*
G01*
X56575004Y83844999D02*
X56575004Y84554999D01*
G75*
G02*
X56620004Y84599999I45000J0D01*
G01*
X56980004Y84599999D01*
G75*
G02*
X57025004Y84554999I0J-45000D01*
G01*
X57025004Y83844999D01*
G75*
G02*
X56980004Y83799999I-45000J0D01*
G01*
X56620004Y83799999D01*
G75*
G02*
X56575004Y83844999I0J45000D01*
G01*
G37*
G36*
G01*
X57375004Y83844999D02*
X57375004Y84554999D01*
G75*
G02*
X57420004Y84599999I45000J0D01*
G01*
X57780004Y84599999D01*
G75*
G02*
X57825004Y84554999I0J-45000D01*
G01*
X57825004Y83844999D01*
G75*
G02*
X57780004Y83799999I-45000J0D01*
G01*
X57420004Y83799999D01*
G75*
G02*
X57375004Y83844999I0J45000D01*
G01*
G37*
G36*
G01*
X58150004Y83864999D02*
X58150004Y84534999D01*
G75*
G02*
X58215004Y84599999I65000J0D01*
G01*
X58735004Y84599999D01*
G75*
G02*
X58800004Y84534999I0J-65000D01*
G01*
X58800004Y83864999D01*
G75*
G02*
X58735004Y83799999I-65000J0D01*
G01*
X58215004Y83799999D01*
G75*
G02*
X58150004Y83864999I0J65000D01*
G01*
G37*
G36*
G01*
X58150004Y85664999D02*
X58150004Y86334999D01*
G75*
G02*
X58215004Y86399999I65000J0D01*
G01*
X58735004Y86399999D01*
G75*
G02*
X58800004Y86334999I0J-65000D01*
G01*
X58800004Y85664999D01*
G75*
G02*
X58735004Y85599999I-65000J0D01*
G01*
X58215004Y85599999D01*
G75*
G02*
X58150004Y85664999I0J65000D01*
G01*
G37*
G36*
G01*
X57375004Y85644999D02*
X57375004Y86354999D01*
G75*
G02*
X57420004Y86399999I45000J0D01*
G01*
X57780004Y86399999D01*
G75*
G02*
X57825004Y86354999I0J-45000D01*
G01*
X57825004Y85644999D01*
G75*
G02*
X57780004Y85599999I-45000J0D01*
G01*
X57420004Y85599999D01*
G75*
G02*
X57375004Y85644999I0J45000D01*
G01*
G37*
G36*
G01*
X56575004Y85644999D02*
X56575004Y86354999D01*
G75*
G02*
X56620004Y86399999I45000J0D01*
G01*
X56980004Y86399999D01*
G75*
G02*
X57025004Y86354999I0J-45000D01*
G01*
X57025004Y85644999D01*
G75*
G02*
X56980004Y85599999I-45000J0D01*
G01*
X56620004Y85599999D01*
G75*
G02*
X56575004Y85644999I0J45000D01*
G01*
G37*
G36*
G01*
X55600004Y85664999D02*
X55600004Y86334999D01*
G75*
G02*
X55665004Y86399999I65000J0D01*
G01*
X56185004Y86399999D01*
G75*
G02*
X56250004Y86334999I0J-65000D01*
G01*
X56250004Y85664999D01*
G75*
G02*
X56185004Y85599999I-65000J0D01*
G01*
X55665004Y85599999D01*
G75*
G02*
X55600004Y85664999I0J65000D01*
G01*
G37*
G04 #@! TD*
G04 #@! TO.C,D2*
G36*
G01*
X28002861Y39487216D02*
X28002861Y38247216D01*
G75*
G02*
X27872861Y38117216I-130000J0D01*
G01*
X26832861Y38117216D01*
G75*
G02*
X26702861Y38247216I0J130000D01*
G01*
X26702861Y39487216D01*
G75*
G02*
X26832861Y39617216I130000J0D01*
G01*
X27872861Y39617216D01*
G75*
G02*
X28002861Y39487216I0J-130000D01*
G01*
G37*
G36*
G01*
X29902882Y39487216D02*
X29902882Y38247216D01*
G75*
G02*
X29772882Y38117216I-130000J0D01*
G01*
X28732882Y38117216D01*
G75*
G02*
X28602882Y38247216I0J130000D01*
G01*
X28602882Y39487216D01*
G75*
G02*
X28732882Y39617216I130000J0D01*
G01*
X29772882Y39617216D01*
G75*
G02*
X29902882Y39487216I0J-130000D01*
G01*
G37*
G04 #@! TD*
G04 #@! TO.C,R22*
G36*
G01*
X77525000Y113249999D02*
X76275000Y113249999D01*
G75*
G02*
X76175000Y113349999I0J100000D01*
G01*
X76175000Y114149999D01*
G75*
G02*
X76275000Y114249999I100000J0D01*
G01*
X77525000Y114249999D01*
G75*
G02*
X77625000Y114149999I0J-100000D01*
G01*
X77625000Y113349999D01*
G75*
G02*
X77525000Y113249999I-100000J0D01*
G01*
G37*
G36*
G01*
X77525000Y115150021D02*
X76275000Y115150021D01*
G75*
G02*
X76175000Y115250021I0J100000D01*
G01*
X76175000Y116050021D01*
G75*
G02*
X76275000Y116150021I100000J0D01*
G01*
X77525000Y116150021D01*
G75*
G02*
X77625000Y116050021I0J-100000D01*
G01*
X77625000Y115250021D01*
G75*
G02*
X77525000Y115150021I-100000J0D01*
G01*
G37*
G04 #@! TD*
G04 #@! TO.C,R63*
G36*
G01*
X153610000Y109150000D02*
X154390000Y109150000D01*
G75*
G02*
X154460000Y109080000I0J-70000D01*
G01*
X154460000Y108520000D01*
G75*
G02*
X154390000Y108450000I-70000J0D01*
G01*
X153610000Y108450000D01*
G75*
G02*
X153540000Y108520000I0J70000D01*
G01*
X153540000Y109080000D01*
G75*
G02*
X153610000Y109150000I70000J0D01*
G01*
G37*
G36*
G01*
X153610000Y107550000D02*
X154390000Y107550000D01*
G75*
G02*
X154460000Y107480000I0J-70000D01*
G01*
X154460000Y106920000D01*
G75*
G02*
X154390000Y106850000I-70000J0D01*
G01*
X153610000Y106850000D01*
G75*
G02*
X153540000Y106920000I0J70000D01*
G01*
X153540000Y107480000D01*
G75*
G02*
X153610000Y107550000I70000J0D01*
G01*
G37*
G04 #@! TD*
G04 #@! TO.C,R43*
G36*
G01*
X149110000Y57150000D02*
X149890000Y57150000D01*
G75*
G02*
X149960000Y57080000I0J-70000D01*
G01*
X149960000Y56520000D01*
G75*
G02*
X149890000Y56450000I-70000J0D01*
G01*
X149110000Y56450000D01*
G75*
G02*
X149040000Y56520000I0J70000D01*
G01*
X149040000Y57080000D01*
G75*
G02*
X149110000Y57150000I70000J0D01*
G01*
G37*
G36*
G01*
X149110000Y55550000D02*
X149890000Y55550000D01*
G75*
G02*
X149960000Y55480000I0J-70000D01*
G01*
X149960000Y54920000D01*
G75*
G02*
X149890000Y54850000I-70000J0D01*
G01*
X149110000Y54850000D01*
G75*
G02*
X149040000Y54920000I0J70000D01*
G01*
X149040000Y55480000D01*
G75*
G02*
X149110000Y55550000I70000J0D01*
G01*
G37*
G04 #@! TD*
G04 #@! TO.C,R56*
G36*
G01*
X99125000Y125049999D02*
X97875000Y125049999D01*
G75*
G02*
X97775000Y125149999I0J100000D01*
G01*
X97775000Y125949999D01*
G75*
G02*
X97875000Y126049999I100000J0D01*
G01*
X99125000Y126049999D01*
G75*
G02*
X99225000Y125949999I0J-100000D01*
G01*
X99225000Y125149999D01*
G75*
G02*
X99125000Y125049999I-100000J0D01*
G01*
G37*
G36*
G01*
X99125000Y126950021D02*
X97875000Y126950021D01*
G75*
G02*
X97775000Y127050021I0J100000D01*
G01*
X97775000Y127850021D01*
G75*
G02*
X97875000Y127950021I100000J0D01*
G01*
X99125000Y127950021D01*
G75*
G02*
X99225000Y127850021I0J-100000D01*
G01*
X99225000Y127050021D01*
G75*
G02*
X99125000Y126950021I-100000J0D01*
G01*
G37*
G04 #@! TD*
G04 #@! TO.C,R60*
G36*
G01*
X93725000Y120149999D02*
X92475000Y120149999D01*
G75*
G02*
X92375000Y120249999I0J100000D01*
G01*
X92375000Y121049999D01*
G75*
G02*
X92475000Y121149999I100000J0D01*
G01*
X93725000Y121149999D01*
G75*
G02*
X93825000Y121049999I0J-100000D01*
G01*
X93825000Y120249999D01*
G75*
G02*
X93725000Y120149999I-100000J0D01*
G01*
G37*
G36*
G01*
X93725000Y122050021D02*
X92475000Y122050021D01*
G75*
G02*
X92375000Y122150021I0J100000D01*
G01*
X92375000Y122950021D01*
G75*
G02*
X92475000Y123050021I100000J0D01*
G01*
X93725000Y123050021D01*
G75*
G02*
X93825000Y122950021I0J-100000D01*
G01*
X93825000Y122150021D01*
G75*
G02*
X93725000Y122050021I-100000J0D01*
G01*
G37*
G04 #@! TD*
G04 #@! TO.C,Q9*
G36*
G01*
X64350002Y87325000D02*
X64050002Y87325000D01*
G75*
G02*
X63900002Y87475000I0J150000D01*
G01*
X63900002Y88650000D01*
G75*
G02*
X64050002Y88800000I150000J0D01*
G01*
X64350002Y88800000D01*
G75*
G02*
X64500002Y88650000I0J-150000D01*
G01*
X64500002Y87475000D01*
G75*
G02*
X64350002Y87325000I-150000J0D01*
G01*
G37*
G36*
G01*
X65300002Y89200000D02*
X65000002Y89200000D01*
G75*
G02*
X64850002Y89350000I0J150000D01*
G01*
X64850002Y90525000D01*
G75*
G02*
X65000002Y90675000I150000J0D01*
G01*
X65300002Y90675000D01*
G75*
G02*
X65450002Y90525000I0J-150000D01*
G01*
X65450002Y89350000D01*
G75*
G02*
X65300002Y89200000I-150000J0D01*
G01*
G37*
G36*
G01*
X66250002Y87325000D02*
X65950002Y87325000D01*
G75*
G02*
X65800002Y87475000I0J150000D01*
G01*
X65800002Y88650000D01*
G75*
G02*
X65950002Y88800000I150000J0D01*
G01*
X66250002Y88800000D01*
G75*
G02*
X66400002Y88650000I0J-150000D01*
G01*
X66400002Y87475000D01*
G75*
G02*
X66250002Y87325000I-150000J0D01*
G01*
G37*
G04 #@! TD*
D17*
G04 #@! TO.C,M5*
X58528459Y65302494D03*
G04 #@! TD*
G04 #@! TO.C,D29*
G36*
G01*
X142700000Y12600002D02*
X142700000Y13500002D01*
G75*
G02*
X142800000Y13600002I100000J0D01*
G01*
X143600000Y13600002D01*
G75*
G02*
X143700000Y13500002I0J-100000D01*
G01*
X143700000Y12600002D01*
G75*
G02*
X143600000Y12500002I-100000J0D01*
G01*
X142800000Y12500002D01*
G75*
G02*
X142700000Y12600002I0J100000D01*
G01*
G37*
G36*
G01*
X144400000Y12600002D02*
X144400000Y13500002D01*
G75*
G02*
X144500000Y13600002I100000J0D01*
G01*
X145300000Y13600002D01*
G75*
G02*
X145400000Y13500002I0J-100000D01*
G01*
X145400000Y12600002D01*
G75*
G02*
X145300000Y12500002I-100000J0D01*
G01*
X144500000Y12500002D01*
G75*
G02*
X144400000Y12600002I0J100000D01*
G01*
G37*
G04 #@! TD*
G04 #@! TO.C,D17*
G36*
G01*
X49600002Y89299999D02*
X50500002Y89299999D01*
G75*
G02*
X50600002Y89199999I0J-100000D01*
G01*
X50600002Y88399999D01*
G75*
G02*
X50500002Y88299999I-100000J0D01*
G01*
X49600002Y88299999D01*
G75*
G02*
X49500002Y88399999I0J100000D01*
G01*
X49500002Y89199999D01*
G75*
G02*
X49600002Y89299999I100000J0D01*
G01*
G37*
G36*
G01*
X49600002Y87599999D02*
X50500002Y87599999D01*
G75*
G02*
X50600002Y87499999I0J-100000D01*
G01*
X50600002Y86699999D01*
G75*
G02*
X50500002Y86599999I-100000J0D01*
G01*
X49600002Y86599999D01*
G75*
G02*
X49500002Y86699999I0J100000D01*
G01*
X49500002Y87499999D01*
G75*
G02*
X49600002Y87599999I100000J0D01*
G01*
G37*
G04 #@! TD*
G04 #@! TO.C,R27*
G36*
G01*
X62125000Y120149999D02*
X60875000Y120149999D01*
G75*
G02*
X60775000Y120249999I0J100000D01*
G01*
X60775000Y121049999D01*
G75*
G02*
X60875000Y121149999I100000J0D01*
G01*
X62125000Y121149999D01*
G75*
G02*
X62225000Y121049999I0J-100000D01*
G01*
X62225000Y120249999D01*
G75*
G02*
X62125000Y120149999I-100000J0D01*
G01*
G37*
G36*
G01*
X62125000Y122050021D02*
X60875000Y122050021D01*
G75*
G02*
X60775000Y122150021I0J100000D01*
G01*
X60775000Y122950021D01*
G75*
G02*
X60875000Y123050021I100000J0D01*
G01*
X62125000Y123050021D01*
G75*
G02*
X62225000Y122950021I0J-100000D01*
G01*
X62225000Y122150021D01*
G75*
G02*
X62125000Y122050021I-100000J0D01*
G01*
G37*
G04 #@! TD*
G04 #@! TO.C,M13*
X99643334Y12312500D03*
G04 #@! TD*
D20*
G04 #@! TO.C,U7*
X86500000Y113960000D03*
X88750000Y115420000D03*
X86500000Y109580000D03*
X86500000Y115420000D03*
X86500000Y111040000D03*
X88750000Y111040000D03*
X88750000Y109580000D03*
X86500000Y112500000D03*
X88750000Y112500000D03*
X88750000Y113960000D03*
D21*
X92425000Y110000000D03*
X92425000Y111000000D03*
X92425000Y112000000D03*
X92425000Y113000000D03*
X92425000Y114000000D03*
X92425000Y115000000D03*
X82825000Y115000000D03*
X82825000Y114000000D03*
X82825000Y113000000D03*
X82825000Y112000000D03*
X82825000Y111000000D03*
X82825000Y110000000D03*
G04 #@! TD*
G04 #@! TO.C,R47*
G36*
G01*
X64625000Y120149999D02*
X63375000Y120149999D01*
G75*
G02*
X63275000Y120249999I0J100000D01*
G01*
X63275000Y121049999D01*
G75*
G02*
X63375000Y121149999I100000J0D01*
G01*
X64625000Y121149999D01*
G75*
G02*
X64725000Y121049999I0J-100000D01*
G01*
X64725000Y120249999D01*
G75*
G02*
X64625000Y120149999I-100000J0D01*
G01*
G37*
G36*
G01*
X64625000Y122050021D02*
X63375000Y122050021D01*
G75*
G02*
X63275000Y122150021I0J100000D01*
G01*
X63275000Y122950021D01*
G75*
G02*
X63375000Y123050021I100000J0D01*
G01*
X64625000Y123050021D01*
G75*
G02*
X64725000Y122950021I0J-100000D01*
G01*
X64725000Y122150021D01*
G75*
G02*
X64625000Y122050021I-100000J0D01*
G01*
G37*
G04 #@! TD*
M02*
