M48
INCH,TZ
T01C0.011800
T02C0.025600
T03C0.031750
T04C0.037800
T05C0.045250
T06C0.057100
T07C0.091700
T08C0.118100
T09C0.145700
T10C0.181100
%
T01
X25512Y6988
X25856Y6781
X25945Y8681
X25974Y7283
X3110Y54921
X3543Y39961
X3847Y52388
X3898Y47756
X4843Y14134
X4921Y5630
X5394Y23701
X5512Y34134
X6535Y42638
X6575Y55394
X6636Y40081
X7441Y44409
X7520Y50000
X7677Y44173
X7717Y15630
X7795Y14567
X7795Y5118
X7953Y43917
X7953Y16063
X7953Y4291
X8093Y3790
X8186Y55362
X8239Y43744
X8450Y15886
X8495Y43497
X8583Y47244
X8714Y4154
X8718Y43249
X8839Y3287
X8927Y42987
X9137Y42679
X9147Y3130
X9370Y34173
X9602Y2873
X9685Y42008
X9685Y39646
X9685Y35000
X9724Y55197
X9835Y36882
X9921Y2972
X9961Y34764
X10000Y13386
X10039Y15118
X10039Y12008
X10039Y4094
X10079Y10118
X10276Y4685
X10354Y18622
X10787Y54921
X10827Y4921
X10866Y9370
X11063Y15512
X11102Y35630
X11260Y21142
X11535Y27874
X11640Y23150
X11654Y25787
X11699Y25216
X11929Y55669
X11929Y32205
X12087Y23543
X12165Y15551
X12323Y45118
X12402Y31378
X12520Y25551
X12559Y26890
X12663Y25157
X12766Y23236
X12835Y29213
X12944Y55470
X13071Y23504
X13189Y31378
X13504Y32795
X13504Y25512
X13514Y19360
X13740Y54606
X13858Y34882
X13878Y31378
X14002Y25197
X14002Y23071
X14055Y25945
X14213Y31378
X14370Y20118
X14488Y41024
X14488Y37520
X14606Y19685
X14843Y16260
X14843Y54810
X14862Y20965
X14921Y9291
X14986Y25197
X15079Y23898
X15144Y23071
X15433Y27126
X15472Y16535
X15531Y29843
X15669Y31378
X15669Y26063
X15709Y54764
X15787Y24016
X15787Y21299
X16319Y29764
X16339Y31555
X16364Y25197
X16364Y23071
X16693Y42087
X16693Y32480
X16732Y40157
X16732Y38189
X16772Y25315
X16811Y23937
X17087Y20669
X17106Y29882
X17348Y25197
X17520Y34882
X17545Y23071
X17677Y40000
X17677Y38346
X17874Y23937
X17894Y29843
X17913Y25315
X17958Y55135
X18268Y20354
X18681Y29843
X18740Y25197
X18740Y23071
X18780Y42126
X18780Y9409
X18819Y40236
X19154Y40571
X19173Y23898
X19213Y25276
X19370Y17520
X19409Y37165
X19409Y32402
X19724Y25197
X19882Y29961
X19921Y23071
X20276Y29882
X20276Y25276
X20276Y23898
X20340Y54790
X20551Y18504
X20630Y33740
X20709Y25866
X21063Y23898
X21083Y29882
X21102Y54370
X21102Y25157
X21102Y23071
X21143Y31908
X21299Y34646
X21417Y14252
X21417Y13858
X21417Y10039
X21431Y13490
X21496Y15157
X21575Y35748
X21575Y26457
X21575Y23937
X21575Y23494
X21634Y17874
X21729Y32067
X21732Y35118
X21772Y44961
X21850Y2992
X21870Y29843
X22087Y25197
X22087Y23898
X22165Y34488
X22308Y23079
X22308Y55257
X22480Y42953
X22480Y39961
X22480Y25866
X22522Y33917
X22573Y32019
X22618Y29921
X22618Y8474
X22618Y7175
X22677Y39213
X22795Y43622
X22913Y35354
X22953Y23898
X23031Y25276
X23150Y13189
X23307Y38937
X23307Y35906
X23307Y33071
X23346Y9409
X23386Y23071
X23386Y13504
X23465Y25197
X23550Y34186
X23937Y39370
X23976Y23819
X24055Y43504
X24055Y21860
X24075Y9222
X24355Y24021
X24390Y27264
X24409Y25866
X24449Y25197
X24567Y34291
X24646Y23071
X24921Y36378
X25039Y23898
X25118Y25315
X25276Y43583
X25335Y6033
X25413Y9409
X25419Y18957
X25739Y25152
X25748Y9409
X25827Y23898
X25827Y23071
X25879Y26110
X25907Y14724
X26004Y13151
X26024Y33346
X26063Y9390
X26260Y15276
X26291Y25149
X26292Y33136
X26339Y36457
X26378Y16850
X26425Y25543
X26654Y15000
X26929Y23876
X26931Y18740
X26937Y23102
X27075Y17126
X27087Y16575
X27249Y33088
X27283Y36457
X27323Y35984
X27323Y12205
X27362Y12756
X27421Y21614
X27441Y28583
X27520Y6575
X27563Y32954
X27598Y13425
X27638Y35945
X27657Y8239
X27657Y5640
X27734Y28744
X27797Y18110
X27874Y33071
X27874Y3937
X27953Y8878
X28007Y35928
X28008Y28936
X28189Y10787
X28248Y19213
X28289Y35768
X28346Y25512
X28366Y23656
X28386Y26929
X28622Y43622
X28780Y28701
X28937Y26811
X28976Y58839
X28976Y6024
X29025Y31199
X29114Y32316
X29213Y31810
X29331Y55118
X29492Y31426
X29803Y26772
X29921Y36535
X30118Y56772
X30276Y43543
X30588Y33563
X30748Y7992
X30890Y33141
X31024Y43898
X31102Y36535
X31128Y33414
X31234Y31673
X31393Y3430
X31535Y29173
X31732Y4016
X32047Y29409
X32047Y3701
X32167Y33256
X32328Y35352
X32362Y4685
X32441Y39567
X32441Y37087
X32559Y28898
X32598Y34291
X32666Y31083
X32868Y34497
X33028Y26847
X33228Y33937
X33307Y8228
X33346Y5472
X33366Y35635
X33423Y44443
X33901Y40393
X34094Y30079
X34134Y44843
X34173Y30472
X34252Y7717
X34409Y50984
X34409Y35000
X34449Y36102
X34488Y38819
X34528Y49409
X34567Y28898
X34567Y8484
X34646Y27953
X34764Y40354
X34764Y36260
X34843Y55118
X34843Y32480
X34882Y7953
X35000Y5827
X35079Y37874
X35118Y44724
X35236Y8701
X35354Y30591
X35512Y31024
X35748Y37638
X35748Y26850
X35748Y31559
X35807Y27916
X35827Y3720
X35886Y29658
X35886Y29230
X35984Y32953
X36102Y9843
X36178Y36083
X36220Y40354
X36314Y35374
X36656Y35470
X36752Y34075
X36823Y56886
X36929Y44724
X37008Y58839
X37008Y35354
X37165Y38307
X37185Y33406
X37323Y54961
X37343Y2825
X37371Y32906
X37402Y50472
X37402Y31969
X37402Y30000
X37402Y29016
X37402Y9843
X37402Y30984
X38150Y40354
X38583Y37362
X38583Y37047
X38622Y38189
X38622Y8878
X38626Y31269
X38642Y30935
X38644Y31592
X38661Y30394
X38729Y44684
X38740Y30039
X38858Y32598
X38937Y34134
X38976Y36732
X38976Y7480
X39074Y45295
X39104Y30669
X39331Y35197
X39331Y33819
X39368Y36400
X39567Y9685
X39568Y45440
X39606Y35945
X39646Y34213
X39804Y45766
X39843Y35394
X39863Y36204
X39903Y46069
X39941Y34449
X40567Y55107
X41378Y6102
X42172Y9724
X42480Y45000
X42638Y4409
X43228Y55118
X43307Y26890
X43724Y26244
X44016Y9764
X44094Y25984
X44331Y45118
X44856Y3917
X45000Y8662
X45276Y15787
X45279Y40834
X45315Y42402
X45315Y39291
X45315Y37992
X45472Y44685
X45472Y35236
X45630Y27795
X45669Y20276
X45709Y31614
X45709Y25512
X45709Y22717
X45709Y18465
X45787Y43661
X45787Y24843
X45923Y25769
X45945Y14016
X45945Y11024
X46181Y45748
X46417Y45984
X46654Y25984
X46693Y8484
X46969Y26142
X46969Y8228
X47205Y25768
X47205Y7953
X47244Y6181
X47480Y25512
X47480Y7717
X47756Y7480
X47795Y55033
X48543Y19685
X48701Y15472
X48701Y14252
X48752Y18566
X49173Y54606
X49567Y18819
X49567Y5000
X49803Y19055
X49803Y4764
X50177Y24726
X50236Y45315
X50394Y28543
X50551Y22283
X50709Y7953
X50787Y15984
X50945Y12559
X51457Y14764
X51654Y55070
X51693Y15118
X52283Y3307
X52638Y17283
X52835Y4528
X52920Y58839
X53071Y2953
X53307Y34055
X53307Y2716
X53465Y49764
X54252Y15079
X55118Y10276
X55157Y3346
X55394Y45079
X55538Y8357
X55943Y28127
X56535Y45157
X56575Y56181
X56575Y50748
X56614Y20866
X57008Y26929
X57342Y27272
X57638Y26693
X57847Y26432
X59724Y53898
X59764Y33583
X60118Y47126
X60374Y38263
X60787Y23110
X60787Y8504
X61260Y3425
X61457Y54882
X10555Y14646
X10555Y14252
X10555Y13858
X10555Y12961
X10555Y12561
X12372Y42077
X12687Y42077
X13002Y42077
X13317Y42077
X13632Y42077
X13947Y42077
X14262Y42077
X14262Y41762
X21024Y11634
X21024Y11240
X21024Y10846
X21024Y10453
X22904Y39823
X23278Y39823
X23297Y43248
X23652Y43248
X23652Y39823
X25571Y36801
X25965Y36801
X28580Y24863
X28580Y21910
X28580Y21595
X28580Y21280
X28580Y20965
X28580Y20650
X28580Y20020
X28580Y19705
X28580Y19390
X28580Y19075
X28580Y18760
X28580Y18445
X28580Y18130
X28580Y17815
X28580Y17501
X28580Y17186
X28580Y16241
X28580Y15926
X28580Y15611
X28580Y14351
X28580Y14036
X28580Y13721
X28580Y13406
X28580Y12461
X28580Y12146
X28580Y11831
X28580Y11516
X28580Y11201
X28580Y10178
X28580Y24548
X28580Y20335
X28580Y16871
X28580Y16556
X28580Y15296
X28580Y14981
X28580Y14666
X28580Y13091
X28580Y12776
X28816Y25729
X28895Y10178
X29210Y10178
X29288Y25729
X29524Y10178
X29761Y25729
X29839Y10178
X30154Y10178
X30233Y25729
X30469Y10178
X30706Y25729
X30784Y10178
X31099Y10178
X31139Y25729
X31414Y10178
X31611Y25729
X31729Y10178
X32044Y10178
X32084Y25729
X32359Y10178
X32556Y25729
X32674Y10178
X32989Y10178
X33028Y25729
X33304Y10178
X33501Y25729
X33619Y10178
X33934Y10178
X33973Y25729
X34249Y10178
X34446Y25729
X34564Y10178
X34879Y10178
X34918Y25729
X35194Y10178
X35391Y25729
X35509Y10178
X35863Y25729
X36336Y25729
X36808Y25729
X37280Y25729
X37674Y10178
X37753Y25729
X37989Y10178
X38225Y25729
X38304Y10178
X38619Y10178
X38652Y40758
X38698Y25729
X38934Y10178
X38967Y42648
X38967Y42333
X38967Y42018
X38967Y41703
X38967Y41388
X38967Y41073
X38967Y40758
X39170Y25729
X39643Y25729
X40115Y25729
X40256Y43110
X40256Y42795
X40256Y31909
X40256Y31594
X40256Y31280
X40256Y30965
X40256Y30650
X40256Y30335
X40256Y30020
X40256Y29705
X40256Y29390
X40256Y29075
X40256Y28760
X40256Y28445
X40256Y28130
X40256Y27815
X40256Y27500
X40256Y27185
X40587Y25729
X41060Y25729
X41532Y25729
X42005Y25729
X42005Y10178
X42320Y10178
X42477Y25729
X42635Y10178
X42950Y25729
X43422Y25729
X43895Y25729
X43996Y27185
X44311Y27185
X44626Y27185
X44839Y25729
X44941Y27185
X44997Y21831
X44997Y19075
X44997Y18682
X44997Y18288
X44997Y17894
X44997Y17501
X44997Y17107
X44997Y16713
X44997Y16319
X44997Y15099
X44997Y14784
X44997Y10178
X44997Y24745
X44997Y24351
X44839Y25729
X44916Y25330
X44997Y24745
X44997Y24351
X44239Y24091
X43525Y24075
X43241Y24052
X42635Y24233
X42320Y24233
X41754Y24045
X41328Y24045
X40745Y24233
X40430Y24233
X39861Y24063
X39576Y24054
X38888Y24255
X38504Y24255
X37993Y24029
X37551Y24045
X36965Y24233
X36650Y24233
X36070Y24136
X35686Y24075
X35076Y24233
X34761Y24233
X34131Y24075
X33816Y24075
X33186Y24233
X32871Y24233
X32241Y24075
X31926Y24075
X31296Y24233
X31060Y23997
X30784Y23130
X30469Y23249
X30272Y23524
X29918Y23524
X29830Y22599
X30332Y22579
X30269Y22301
X30371Y21457
X29997Y21319
X29893Y21044
X29790Y21556
X30069Y20230
X30077Y19733
X30391Y19705
X30351Y19312
X30469Y18524
X31064Y18448
X31454Y18406
X31788Y18395
X31532Y18682
X31280Y18842
X31117Y17978
X31101Y17591
X31346Y17431
X30960Y17186
X31050Y16478
X30981Y16201
X31099Y15335
X31296Y14981
X31069Y14420
X31048Y14036
X30247Y14332
X29924Y14553
X29541Y14577
X29962Y13117
X30011Y12467
X29792Y12284
X30354Y11869
X31078Y11676
X31454Y11989
X31698Y11841
X31847Y11162
X32123Y11280
X30901Y11073
X30623Y11199
X30479Y10680
X30164Y10579
X29541Y11135
X33450Y11145
X33748Y11095
X33694Y11734
X33355Y11944
X32758Y12619
X32950Y12855
X33186Y13091
X34013Y13327
X34632Y13431
X34603Y13091
X34913Y13519
X35115Y13721
X34958Y14666
X34524Y14690
X33698Y14430
X33383Y14430
X33239Y14846
X32595Y14745
X32556Y14036
X32328Y13865
X32005Y14508
X32005Y15453
X32950Y15768
X33265Y15768
X33186Y16335
X33265Y17304
X32871Y17304
X32593Y16827
X31879Y16718
X32015Y17475
X32001Y17852
X33068Y17934
X32989Y18653
X32674Y18642
X33562Y18727
X33343Y19508
X33028Y19587
X32398Y19469
X32152Y19614
X31858Y19862
X32221Y20335
X32615Y20335
X33265Y20650
X33580Y20647
X33895Y20650
X34524Y20514
X34791Y20325
X34682Y19784
X34469Y19548
X34319Y19953
X35312Y19784
X35233Y19508
X36099Y19469
X36178Y19823
X36178Y20650
X35863Y20647
X35548Y20611
X35272Y21044
X35272Y21359
X35263Y21644
X35036Y22186
X34446Y22186
X34072Y21949
X34072Y21319
X34505Y21457
X33048Y21595
X33053Y21305
X32221Y21457
X31788Y21319
X31788Y21949
X32162Y22186
X32753Y22186
X33324Y22934
X33831Y23032
X34116Y23032
X35720Y23032
X36006Y23032
X36279Y22948
X36355Y21949
X36729Y22186
X37280Y22186
X37615Y21595
X37620Y21305
X37811Y20635
X38146Y20647
X38461Y20650
X38639Y21319
X39072Y21457
X38973Y22186
X38639Y21949
X38401Y22916
X37896Y23071
X37610Y23032
X39143Y22676
X39500Y23032
X39785Y23032
X39800Y22382
X39850Y21681
X39869Y21004
X39856Y20709
X39869Y20350
X39879Y19863
X39839Y19430
X40219Y19302
X40504Y19282
X40666Y19784
X40528Y20217
X41060Y20217
X41519Y19954
X41681Y19713
X42083Y19593
X42302Y19822
X42701Y19539
X42379Y19193
X41887Y19107
X41820Y18624
X41854Y18288
X41808Y17904
X41808Y17619
X41808Y17067
X41847Y16319
X41650Y15729
X41896Y15527
X41705Y15070
X41754Y14496
X42209Y13838
X42172Y13327
X42871Y13012
X42799Y13906
X42955Y14390
X43343Y14469
X43737Y14473
X44325Y13905
X44721Y13918
X44997Y14784
X44997Y15099
X44958Y15493
X44997Y16319
X44997Y16713
X44997Y17107
X44997Y17501
X44997Y17894
X44997Y18288
X44997Y18682
X44997Y19075
X44856Y19596
X44342Y19802
X43816Y20119
X43501Y19981
X43324Y20219
X42664Y20424
X42651Y20709
X42664Y21004
X42635Y21359
X43116Y21216
X43618Y21209
X43461Y21634
X43578Y21960
X43190Y21988
X43521Y22382
X43560Y22934
X43279Y23032
X42517Y22963
X42044Y22963
X41675Y23032
X41390Y23032
X40981Y22973
X40627Y23012
X41040Y22382
X40981Y21949
X40666Y21634
X40804Y21241
X40174Y21241
X40300Y22074
X42044Y21949
X42280Y22382
X41504Y21352
X41463Y21069
X41532Y20493
X41375Y19292
X40975Y18976
X40930Y17791
X40971Y17186
X40993Y16772
X40981Y16201
X40971Y15690
X40971Y14981
X40930Y13957
X41030Y13687
X40127Y13578
X40129Y13899
X40103Y12964
X39899Y12763
X39456Y12835
X39406Y13249
X39406Y13534
X39406Y14355
X39420Y14744
X39943Y14745
X39943Y15030
X39657Y15049
X39446Y15296
X39524Y15650
X39411Y16103
X38505Y16096
X38222Y15987
X38343Y15729
X38592Y15412
X38580Y16516
X38432Y17298
X38343Y17697
X38530Y18042
X38816Y18957
X39345Y18973
X39488Y18717
X39524Y19715
X39170Y20008
X39090Y20318
X38422Y19784
X37937Y19770
X37950Y19485
X37789Y18504
X37381Y18461
X37320Y18740
X37044Y18445
X36395Y18421
X36404Y18706
X35981Y18426
X35730Y18563
X35243Y18030
X36136Y17737
X36619Y17733
X36355Y17373
X36021Y16871
X35548Y16398
X36454Y16359
X36926Y15178
X37241Y15217
X37520Y15715
X37989Y16152
X37517Y17343
X39367Y17146
X39603Y17737
X39918Y17678
X40328Y17614
X40115Y15630
X38590Y14163
X38580Y13721
X38658Y13091
X38650Y12806
X38518Y12332
X38590Y12055
X38461Y11556
X38914Y10971
X38146Y10416
X37350Y10303
X37025Y10348
X36737Y10306
X36418Y10309
X36104Y10315
X36493Y11201
X37113Y11172
X37399Y11172
X37684Y11162
X37539Y12167
X37477Y12461
X37822Y12973
X37674Y13721
X37832Y14233
X36926Y14312
X36571Y14400
X36296Y14666
X36493Y13524
X36946Y13800
X35784Y13091
X36257Y12619
X36257Y11681
X35863Y11477
X35523Y11078
X34574Y11160
X35391Y12422
X35076Y15875
X34564Y15757
X34342Y15938
X34122Y15757
X33944Y15980
X34091Y17146
X34603Y17343
X34721Y16634
X36806Y19557
X37044Y19902
X37182Y20335
X36887Y20335
X36788Y21457
X36355Y21319
X36572Y25532
X36335Y25729
X36099Y25532
X35863Y25729
X35627Y25532
X35391Y25729
X35154Y25532
X34918Y25729
X34682Y25532
X34446Y25729
X34209Y25532
X33973Y25729
X33737Y25532
X33501Y25729
X33265Y25532
X33028Y25729
X32792Y25532
X32556Y25729
X32320Y25532
X32083Y25729
X31847Y25532
X31611Y25729
X31375Y25532
X31139Y25729
X30706Y25729
X30469Y25532
X30233Y25729
X29997Y25532
X29761Y25729
X29524Y25532
X29828Y24825
X30301Y24825
X31335Y22973
X31941Y23032
X32226Y23032
X31611Y20650
X31296Y20647
X30981Y20650
X30695Y20705
X29593Y17688
X31887Y13327
X31846Y13045
X39327Y12458
X39651Y12127
X39576Y11851
X39900Y11986
X40292Y11536
X40560Y11652
X40850Y11813
X41150Y11826
X41099Y12107
X40863Y12737
X40488Y13002
X40359Y11152
X41030Y11308
X41782Y11615
X42151Y11460
X42170Y11755
X42020Y12159
X42349Y12146
X42843Y11947
X43706Y12149
X44115Y12240
X44052Y11674
X44898Y11595
X44918Y11989
X44328Y10709
X44288Y10256
X43206Y10256
X42566Y11053
X41826Y10956
X40806Y10414
X39800Y10532
X43845Y13092
X44013Y13327
X43041Y15045
X43431Y16451
X42625Y16477
X42625Y17186
X42625Y17894
X42625Y18603
X43060Y18987
X43375Y18756
X43745Y19431
X44869Y20384
X44259Y21004
X44584Y21674
X44997Y21831
X44761Y22382
X44958Y22973
X44406Y23170
X44643Y23652
X44007Y22837
X44131Y22048
X44406Y25138
X44363Y25698
X44131Y25532
X43895Y25729
X43658Y25532
X43422Y25729
X43186Y25532
X42950Y25729
X42713Y25532
X42477Y25729
X42241Y25532
X42005Y25729
X41769Y25532
X41532Y25729
X41296Y25532
X41060Y25729
X40824Y25532
X40587Y25729
X40351Y25532
X40115Y25729
X39879Y25532
X39643Y25729
X39406Y25532
X39170Y25729
X38934Y25532
X38698Y25729
X38461Y25532
X38225Y25729
X37989Y25532
X37753Y25729
X37517Y25532
X37280Y25729
X37044Y25532
X36808Y25729
X44446Y15926
X29408Y15766
X29446Y15001
X29259Y14785
X28580Y14666
X28580Y14351
X28580Y14036
X28580Y13721
X28580Y13406
X28580Y13091
X28580Y12776
X28580Y12461
X28580Y12146
X28580Y11831
X28580Y11516
X28580Y11201
X28658Y10886
X28981Y11201
X28853Y12031
X28818Y13249
X28818Y14193
X29435Y13851
X28580Y14981
X28580Y15296
X28580Y15611
X28580Y15926
X28580Y16241
X28580Y16556
X28580Y16871
X28580Y17186
X28580Y17501
X28580Y17816
X28580Y18130
X28580Y18445
X28580Y18760
X28580Y19075
X28580Y19390
X28580Y19705
X28580Y20020
X28580Y20335
X28580Y20650
X28580Y20965
X28580Y21280
X28580Y21595
X28580Y21910
X29408Y22035
X29406Y22737
X29091Y22894
X28946Y22648
X28973Y23209
X28855Y23524
X28776Y23800
X28776Y24193
X28580Y24548
X28580Y24863
X28924Y24833
X29386Y24832
X29288Y25729
X29052Y25532
X28816Y25729
X28619Y25414
X29091Y21359
X29431Y21304
X28863Y18410
X29190Y16821
X29485Y16821
X29209Y10178
X28895Y10178
X28580Y10178
X29524Y10178
X29839Y10178
X30154Y10178
X30469Y10178
X30784Y10178
X31099Y10178
X31414Y10178
X31729Y10178
X32044Y10178
X32359Y10178
X32674Y10178
X32989Y10178
X33304Y10178
X33619Y10178
X33934Y10178
X34249Y10178
X34564Y10178
X34879Y10178
X35194Y10178
X35509Y10178
X37674Y10178
X37989Y10178
X38304Y10178
X38619Y10178
X38934Y10178
X41070Y10204
X42005Y10178
X42320Y10178
X42635Y10178
X44997Y10178
X24337Y42283
X24973Y42555
X25358Y42341
X25787Y42982
X26123Y43022
X26713Y42825
X26969Y42549
X27500Y42431
X27796Y42825
X27304Y43022
X28485Y43022
X30060Y43022
X30040Y42549
X30332Y41438
X30307Y40391
X30019Y40069
X29944Y39016
X30060Y37904
X30060Y37116
X29056Y37589
X29050Y38234
X27804Y38174
X27894Y37707
X27414Y37539
X27697Y37116
X26529Y37538
X26357Y36842
X25965Y36801
X25571Y36801
X25665Y37483
X25176Y37793
X24859Y37406
X24429Y37803
X24808Y38192
X25532Y38267
X25965Y38219
X24980Y39535
X24351Y39535
X24337Y40454
X24337Y41309
X24979Y41086
X26004Y40502
X27451Y40109
X27500Y40856
X28010Y40423
X29008Y39834
X30965Y38888
X31032Y37956
X31437Y37904
X31241Y37116
X30650Y37510
X31790Y39984
X32196Y39942
X31780Y40771
X31377Y41036
X31454Y42473
X30819Y42064
X30586Y42904
X44945Y44396
X40358Y44366
X41638Y44130
X41583Y43718
X40358Y43579
X40654Y43126
X41638Y42319
X40315Y42017
X43410Y41531
X41677Y41531
X44889Y41475
X41638Y41059
X41583Y40647
X41284Y40276
X41579Y39425
X43410Y38539
X44890Y38405
X40358Y38362
X41520Y38342
X41638Y37988
X41583Y37576
X41569Y36229
X43607Y35429
X44895Y35320
X41677Y35232
X41638Y34917
X41583Y34505
X40358Y33402
X41539Y32988
X40477Y32161
X41402Y32063
X44492Y31965
X43508Y31610
X41895Y31588
X41462Y31583
X44813Y31566
X44217Y31487
X42819Y31315
X43508Y31118
X42622Y31079
X41952Y30942
X42815Y30838
X42626Y30606
X41332Y30291
X43390Y30134
X41992Y30016
X41244Y29972
X41325Y29688
X44000Y29583
X42622Y29386
X41332Y29386
X44000Y29268
X41272Y29095
X41874Y28992
X43998Y28972
X43252Y28933
X43774Y28595
X42721Y28559
X44029Y28445
X41301Y28240
X41795Y28205
X42589Y28198
X43711Y27991
X44045Y27963
X41323Y27929
X43587Y27723
X43154Y27713
X41874Y27279
X40260Y43106
X40260Y42791
X40260Y31905
X40260Y31591
X40260Y31276
X40260Y30961
X40260Y30646
X40260Y30331
X40260Y30016
X40260Y29701
X40260Y29386
X40260Y29071
X40260Y28756
X40260Y28441
X40260Y28126
X40260Y27811
X40260Y27496
X44945Y27181
X44630Y27181
X44315Y27181
X44000Y27181
X40260Y27181
X10683Y41955
X12140Y41797
X14167Y40892
X11133Y40875
X12691Y40498
X12027Y40460
X14148Y40104
X10644Y40104
X13400Y40065
X11274Y40065
X14167Y39356
X13400Y39356
X12691Y39356
X11982Y39356
X11274Y39356
X12691Y38648
X10644Y38608
X11982Y38215
X11274Y38215
X13760Y37784
X14069Y37782
X13597Y37467
X14148Y37152
X11037Y37112
X12534Y37014
X10683Y36994
X13636Y36955
X14266Y42073
X13951Y42073
X13636Y42073
X13321Y42073
X13006Y42073
X12691Y42073
X12376Y42073
X14266Y41758
X10492Y12185
X10567Y15115
X10611Y13445
X10611Y10079
X10844Y10269
X10900Y11549
X10900Y11860
X11054Y14883
X11282Y13292
X11374Y13990
X11437Y11362
X11574Y10429
X11866Y10157
X11969Y15197
X12015Y14560
X12057Y14183
X12132Y12876
X12136Y11639
X12412Y10118
X12493Y12204
X12618Y10915
X12678Y12864
X12687Y13911
X12796Y12154
X12894Y10079
X13691Y15202
X13859Y10886
X14149Y12691
X14379Y13630
X14380Y12130
X14381Y12923
X14587Y13166
X14607Y9980
X14665Y12825
X14972Y14202
X15180Y12067
X15269Y14151
X15394Y10010
X15410Y13504
X15579Y14157
X15597Y10724
X15670Y12106
X15729Y13106
X15882Y13781
X15886Y10807
X16187Y11540
X16205Y14506
X16213Y14807
X16585Y10000
X16792Y14638
X16817Y15223
X16826Y14339
X17083Y15004
X17221Y13362
X17267Y12515
X17337Y12002
X17337Y11102
X17337Y10801
X17337Y10500
X17337Y10199
X17341Y11594
X17717Y13130
X17973Y12913
X20048Y9958
X20265Y11707
X20305Y14960
X20453Y14547
X20552Y11614
X20591Y13966
X20591Y13691
X20591Y13415
X20768Y14527
X20788Y9951
X20896Y13966
X20896Y13691
X21093Y14941
X10555Y14646
X10555Y14252
X10555Y13858
X10555Y12960
X10555Y12560
X21024Y11634
X21024Y11240
X21024Y10846
X21024Y10453
X25512Y6988
X25856Y6781
X25975Y7283
X25945Y8681
X38845Y44337
X38687Y42880
X37782Y40853
X37765Y43887
X37388Y42329
X37350Y42993
X36994Y40872
X36994Y44376
X36955Y41620
X36955Y43746
X36246Y40853
X36246Y41620
X36246Y42329
X36246Y43038
X36246Y43746
X35538Y42329
X35498Y44376
X35105Y43038
X35105Y43746
X34674Y41260
X34672Y40951
X34357Y41423
X34042Y40872
X34002Y43983
X33904Y42486
X33884Y44337
X33845Y41384
X38963Y40754
X38963Y41069
X38963Y41384
X38963Y41699
X38963Y42014
X38963Y42329
X38963Y42644
X38648Y40754
X22757Y43242
X23010Y43090
X23297Y43248
X23652Y43248
X23318Y42246
X23213Y41972
X23426Y41729
X22913Y42279
X23653Y40800
X23652Y39823
X23278Y39823
X22904Y39823
T02
X10640Y41447
X10640Y40974
X10640Y37746
X14183Y38612
X34636Y44380
X35502Y40837
X37864Y44380
X38337Y44380
X44862Y43031
X44862Y39961
X44862Y36890
X44862Y33819
X40703Y41846
X40703Y38776
X40703Y35705
X40703Y32634
X44866Y43028
X44866Y39957
X44866Y36886
X44866Y33815
X10644Y41443
X10644Y40971
X14187Y38608
X10644Y37742
X38333Y44376
X37861Y44376
X35498Y40833
X34632Y44376
T03
X12008Y48622
X12008Y47122
X12992Y48622
X12992Y47122
X13976Y45317
X13976Y43817
X15157Y45317
X15157Y43817
X16339Y45317
X16339Y43817
X17323Y48624
X17323Y47124
X17323Y45907
X17323Y44407
X18307Y48624
X18307Y47124
X18307Y45907
X18307Y44407
X19291Y48624
X19291Y47124
X19291Y45907
X19291Y44407
X20276Y48624
X20276Y47124
X21260Y45907
X21260Y44407
X22244Y48624
X22244Y47124
X23228Y48624
X23228Y47124
X24213Y48624
X24213Y47124
X25197Y48624
X25197Y47124
X26181Y48624
X26181Y47124
X27165Y48624
X27165Y47124
X28110Y47089
X28110Y45589
X30276Y48624
X30276Y47124
X30276Y45907
X30276Y44407
X31260Y47089
X31260Y45589
X32283Y48622
X32283Y46693
X33189Y48622
X33189Y46693
X34055Y48622
X34055Y47122
X34921Y48622
X34921Y47122
X35787Y48622
X35787Y47122
X36654Y48622
X36654Y47122
X37677Y47207
X37677Y45707
X38780Y50553
X38780Y49053
X38780Y47207
X38780Y45707
X39961Y50553
X39961Y49053
X39131Y19627
X37438Y19745
X35706Y19705
X33816Y19745
X32674Y19745
X31493Y19745
X30981Y19272
T04
X13716Y8104
X13716Y7317
X14700Y8104
X14700Y7317
X19409Y8583
X19409Y7598
X19409Y6614
X19409Y5630
X19409Y4646
X10827Y48622
X10866Y46890
X12008Y45748
X13976Y48622
X13976Y46850
X15157Y48622
X15157Y46850
X16339Y48622
X20276Y45709
X21260Y48622
X21260Y46890
X22618Y5246
X23760Y5246
X24449Y36978
X24626Y43081
X25197Y45709
X26811Y11654
X26909Y36978
X28150Y48622
X28602Y36978
X29291Y48622
X29291Y46890
X29350Y36978
X29370Y43081
X31260Y48624
X31319Y43081
X31870Y36978
X32047Y43081
X32283Y45748
X34606Y26850
X37677Y48819
X38085Y6726
X38085Y5726
X39085Y6726
X39085Y5726
X40000Y46614
X41142Y50591
X41142Y48819
X41181Y47047
X41220Y45315
X42323Y50591
X42323Y48819
X42323Y47047
X43504Y50591
X43504Y48819
X43504Y47047
X44685Y50591
X44685Y48819
X44685Y47047
X45866Y50591
X45866Y48819
X45866Y47047
X47047Y50591
X47047Y48819
X47047Y47047
X48228Y50591
X48228Y48819
X48228Y47047
X49409Y50591
X49409Y48819
X49409Y47047
X50591Y50591
X50591Y48819
X50591Y47047
X51772Y50591
X51772Y48819
X51772Y47047
X53627Y13821
X53627Y12821
X53627Y11821
X53627Y10821
X53627Y9821
X54627Y13821
X54627Y12821
X54627Y11821
X54627Y10821
X54627Y9821
X55593Y18821
X55593Y17821
X55593Y16821
X55593Y15821
X55593Y14821
X55593Y13821
X55593Y12821
X55593Y11821
X55593Y10821
X55593Y9821
X56593Y18821
X56593Y17821
X56593Y16821
X56593Y15821
X56593Y14821
X56593Y13821
X56593Y12821
X56593Y11821
X56593Y10821
X56593Y9821
X57601Y18821
X57601Y17821
X57601Y16821
X57601Y15821
X57601Y14821
X57601Y13821
X57601Y12821
X57601Y11821
X57601Y10821
X57601Y9821
X58601Y18821
X58601Y17821
X58601Y16821
X58601Y15821
X58601Y14821
X58601Y13821
X58601Y12821
X58601Y11821
X58601Y10821
X58601Y9821
X59609Y18821
X59609Y17821
X59609Y16821
X59609Y15821
X59609Y14821
X59609Y13821
X59609Y12821
X59609Y11821
X59609Y10821
X59609Y9821
X60609Y18821
X60609Y17821
X60609Y16821
X60609Y15821
X60609Y14821
X60609Y13821
X60609Y12821
X60609Y11821
X60609Y10821
X60609Y9821
X44682Y10493
X41540Y11253
X41540Y10453
X39540Y10853
X24626Y43081
X29371Y43081
X29351Y36978
X28603Y36978
X26910Y36978
X24449Y36978
X31871Y36978
X32048Y43081
X31319Y43081
X17878Y10964
X18666Y12146
X19453Y10964
X10752Y10886
X12752Y11286
X12752Y10486
T05
X7840Y57283
X7840Y56299
X7840Y53937
X7840Y52953
X8824Y57283
X8824Y56299
X8824Y53937
X8824Y52953
X9808Y57283
X9808Y56299
X9808Y53937
X9808Y52953
X10792Y57283
X10792Y56299
X10792Y53937
X10792Y52953
X11777Y57283
X11777Y56299
X11777Y53937
X11777Y52953
X12761Y57283
X12761Y56299
X12761Y53937
X12761Y52953
X13745Y57283
X13745Y56299
X13745Y53937
X13745Y52953
X14729Y57283
X14729Y56299
X14729Y53937
X14729Y52953
X15714Y57283
X15714Y56299
X15714Y53937
X15714Y52953
X16698Y57283
X16698Y56299
X16698Y53937
X16698Y52953
X17682Y57283
X17682Y56299
X17682Y53937
X17682Y52953
X18666Y57283
X18666Y56299
X18666Y53937
X18666Y52953
X19651Y57283
X19651Y56299
X19651Y53937
X19651Y52953
X20635Y57283
X20635Y56299
X20635Y53937
X20635Y52953
X21619Y57283
X21619Y56299
X21619Y53937
X21619Y52953
X22603Y57283
X22603Y56299
X22603Y53937
X22603Y52953
X23588Y57283
X23588Y56299
X23588Y53937
X23588Y52953
X24572Y57283
X24572Y56299
X24572Y53937
X24572Y52953
X25556Y57283
X25556Y56299
X25556Y53937
X25556Y52953
X26540Y57283
X26540Y56299
X26540Y53937
X26540Y52953
X27525Y57283
X27525Y56299
X27525Y53937
X27525Y52953
X28706Y57283
X28706Y56299
X28706Y53937
X28706Y52953
X38548Y57283
X38548Y56299
X38548Y53937
X38548Y52953
X39729Y57283
X39729Y56299
X39729Y53937
X39729Y52953
X40714Y57283
X40714Y56299
X40714Y53937
X40714Y52953
X41698Y57283
X41698Y56299
X41698Y53937
X41698Y52953
X42682Y57283
X42682Y56299
X42682Y53937
X42682Y52953
X43666Y57283
X43666Y56299
X43666Y53937
X43666Y52953
X44651Y57283
X44651Y56299
X44651Y53937
X44651Y52953
X45635Y57283
X45635Y56299
X45635Y53937
X45635Y52953
X46619Y57283
X46619Y56299
X46619Y53937
X46619Y52953
X47603Y57283
X47603Y56299
X47603Y53937
X47603Y52953
X48784Y57283
X48784Y56299
X48784Y53937
X48784Y52953
X50162Y57283
X50162Y56299
X50162Y53937
X50162Y52953
X51540Y57283
X51540Y56299
X51540Y53937
X51540Y52953
X52918Y57283
X52918Y56299
X52918Y53937
X52918Y52953
X54296Y57283
X54296Y56299
X54296Y53937
X54296Y52953
X17701Y14773
X18701Y14773
X19701Y14773
T06
X22559Y14173
X22559Y12520
X22559Y10866
X24724Y14173
X24724Y12520
X24724Y10866
X25079Y32382
X25079Y30217
X26732Y32382
X26732Y30217
X28386Y32382
X28386Y30217
X30039Y32382
X30039Y30217
X31693Y32382
X31693Y30217
X33346Y32382
X33346Y30217
X31304Y57283
X31304Y55118
X31304Y52953
X33351Y57283
X33351Y55118
X33351Y52953
X13386Y18543
X16339Y18543
T07
X11838Y6250
X16578Y6250
T08
X37052Y51575
T09
X14532Y59882
X49966Y59882
T10
X6757Y51280
X55969Y57972
M30
