M48
; DRILL file {KiCad 7.0.11-7.0.11~ubuntu22.04.1} date Wed Mar 27 01:00:30 2024
; FORMAT={2:4/ absolute / inch / suppress leading zeros}
; #@! TF.CreationDate,2024-03-27T01:00:30+00:00
; #@! TF.GenerationSoftware,Kicad,Pcbnew,7.0.11-7.0.11~ubuntu22.04.1
; #@! TF.FileFunction,MixedPlating,1,4
FMAT,2
INCH,TZ
; #@! TA.AperFunction,Plated,PTH,ComponentDrill
T1C0.0118
; #@! TA.AperFunction,Plated,PTH,ViaDrill
T2C0.0118
; #@! TA.AperFunction,Plated,PTH,ComponentDrill
T3C0.0118
; #@! TA.AperFunction,Plated,PTH,ComponentDrill
T4C0.0276
; #@! TA.AperFunction,Plated,PTH,ComponentDrill
T5C0.0320
; #@! TA.AperFunction,Plated,PTH,ComponentDrill
T6C0.0362
; #@! TA.AperFunction,Plated,PTH,ComponentDrill
T7C0.0374
; #@! TA.AperFunction,Plated,PTH,ComponentDrill
T8C0.0394
; #@! TA.AperFunction,Plated,PTH,ComponentDrill
T9C0.0472
; #@! TA.AperFunction,Plated,PTH,ComponentDrill
T10C0.0551
; #@! TA.AperFunction,Plated,PTH,ComponentDrill
T11C0.0591
; #@! TA.AperFunction,Plated,PTH,ComponentDrill
T12C0.0917
; #@! TA.AperFunction,NonPlated,NPTH,ComponentDrill
T13C0.0591
; #@! TA.AperFunction,NonPlated,NPTH,ComponentDrill
T14C0.1181
; #@! TA.AperFunction,NonPlated,NPTH,ComponentDrill
T15C0.1457
; #@! TA.AperFunction,NonPlated,NPTH,ComponentDrill
T16C0.1811
%
G90
G05
T1
X25512Y6988
X25856Y6781
X25945Y8681
X25974Y7283
T2
X3110Y54921
X3543Y39961
X3847Y52388
X3898Y47756
X4843Y14134
X4921Y5630
X5394Y23701
X5512Y34134
X6253Y39698
X6535Y42638
X6575Y55394
X7441Y44409
X7520Y50000
X7677Y44173
X7717Y15630
X7795Y14567
X7795Y5118
X7953Y43917
X7953Y16063
X7953Y4291
X8186Y55362
X8239Y43744
X8249Y3946
X8450Y15886
X8495Y43497
X8550Y3799
X8583Y47244
X8718Y43249
X8839Y3630
X8927Y42987
X9137Y42679
X9147Y3425
X9370Y34173
X9685Y2913
X9685Y42008
X9685Y39646
X9685Y36732
X9724Y55197
X9921Y3150
X10000Y13386
X10039Y15118
X10039Y12008
X10079Y10118
X10354Y18622
X10787Y54921
X10827Y4921
X10866Y9370
X11063Y15512
X11102Y35630
X11260Y21142
X11535Y27874
X11640Y23150
X11654Y25787
X11699Y25216
X11929Y55669
X11929Y32205
X12087Y23543
X12165Y15551
X12323Y45118
X12402Y31378
X12520Y25551
X12559Y26890
X12663Y25157
X12766Y23236
X12835Y29213
X12944Y55470
X13071Y23504
X13189Y31378
X13504Y32795
X13504Y25512
X13514Y19360
X13740Y54606
X13858Y34882
X13878Y31378
X14002Y25197
X14002Y23071
X14055Y25945
X14213Y31378
X14370Y20118
X14488Y41024
X14488Y37520
X14606Y19685
X14843Y16260
X14843Y54810
X14862Y20965
X14921Y9291
X14986Y25197
X15079Y23898
X15144Y23071
X15433Y27126
X15472Y16535
X15531Y29843
X15669Y31378
X15669Y26063
X15709Y54764
X15787Y24016
X15787Y21299
X16319Y29764
X16339Y31555
X16364Y25197
X16364Y23071
X16693Y42087
X16693Y32480
X16732Y37008
X16772Y25315
X16811Y23937
X17087Y20669
X17106Y29882
X17348Y25197
X17520Y34882
X17545Y23071
X17874Y23937
X17894Y29843
X17913Y25315
X17958Y55135
X18268Y20354
X18681Y29843
X18740Y25197
X18740Y23071
X18780Y42126
X18780Y9409
X18819Y40236
X19154Y40571
X19173Y23898
X19213Y25276
X19370Y17520
X19409Y37165
X19409Y32402
X19724Y25197
X19882Y29961
X19921Y23071
X20276Y29882
X20276Y25276
X20276Y23898
X20340Y54790
X20551Y18504
X20630Y33740
X20709Y25866
X21063Y23898
X21083Y29882
X21102Y54370
X21102Y25157
X21102Y23071
X21143Y31908
X21299Y34646
X21417Y14252
X21417Y13858
X21417Y10039
X21431Y13490
X21496Y15157
X21575Y26457
X21575Y23937
X21575Y23494
X21634Y17874
X21729Y32067
X21732Y35118
X21772Y44961
X21850Y2992
X21870Y29843
X22087Y25197
X22087Y23898
X22165Y34488
X22308Y23079
X22308Y55257
X22480Y42953
X22480Y39961
X22480Y25866
X22522Y33917
X22573Y32019
X22618Y29921
X22618Y8474
X22618Y7175
X22677Y39213
X22795Y43622
X22913Y35354
X22953Y23898
X23031Y25276
X23150Y13189
X23307Y38937
X23307Y35906
X23307Y33071
X23346Y9409
X23386Y23071
X23386Y13504
X23465Y25197
X23550Y34186
X23937Y39370
X23976Y23819
X24055Y43504
X24055Y21860
X24075Y9222
X24355Y24021
X24390Y27264
X24409Y25866
X24449Y25197
X24567Y34291
X24646Y23071
X24921Y36378
X25039Y23898
X25118Y25315
X25276Y43583
X25335Y6033
X25413Y9409
X25419Y18957
X25739Y25152
X25748Y9409
X25827Y23898
X25827Y23071
X25879Y26110
X25907Y14724
X26004Y13151
X26024Y33346
X26063Y9390
X26260Y15276
X26291Y25149
X26292Y33136
X26339Y36457
X26378Y16850
X26425Y25543
X26654Y15000
X26929Y23876
X26931Y18740
X26937Y23102
X27075Y17126
X27087Y16575
X27249Y33088
X27283Y36457
X27323Y35984
X27323Y12205
X27362Y12756
X27421Y21614
X27441Y28583
X27520Y6575
X27563Y32954
X27598Y13425
X27638Y35945
X27657Y8239
X27657Y5640
X27674Y3789
X27734Y28744
X27797Y18110
X27874Y33071
X27953Y8878
X28007Y35928
X28008Y28936
X28189Y10787
X28248Y19213
X28289Y35768
X28346Y25512
X28366Y23656
X28386Y26929
X28622Y43622
X28780Y28701
X28937Y26811
X28976Y58839
X28976Y6024
X29025Y31199
X29114Y32316
X29213Y31810
X29331Y55118
X29492Y31426
X29803Y26772
X29921Y36535
X30118Y56772
X30276Y43543
X30588Y33563
X30748Y7992
X30890Y33141
X31024Y43898
X31102Y36535
X31128Y33414
X31234Y31673
X31378Y3465
X31535Y29173
X31732Y4016
X32047Y29409
X32047Y3701
X32167Y33256
X32304Y35377
X32362Y4685
X32441Y39567
X32441Y37087
X32559Y28898
X32598Y34291
X32666Y31083
X32868Y34497
X33028Y26847
X33228Y33937
X33307Y8228
X33346Y5472
X33366Y35635
X33423Y44443
X33901Y40393
X34094Y30079
X34134Y44843
X34173Y30472
X34252Y7717
X34409Y50984
X34409Y35000
X34488Y38819
X34528Y49409
X34567Y36260
X34567Y28898
X34567Y8484
X34646Y27953
X34764Y40354
X34843Y55118
X34843Y32480
X34882Y7953
X35000Y5827
X35079Y37874
X35118Y44724
X35236Y8701
X35354Y30591
X35512Y31024
X35748Y37638
X35748Y26850
X35748Y31559
X35807Y27916
X35827Y3819
X35886Y29658
X35886Y29230
X35984Y32953
X36102Y9843
X36178Y36083
X36220Y40354
X36314Y35374
X36656Y35470
X36752Y34075
X36823Y56886
X36929Y44724
X37008Y58839
X37008Y35354
X37165Y38307
X37185Y33406
X37323Y54961
X37343Y2825
X37371Y32906
X37402Y50472
X37402Y31969
X37402Y30000
X37402Y29016
X37402Y9843
X37402Y30984
X38150Y40354
X38583Y37362
X38583Y37047
X38622Y38189
X38622Y8878
X38626Y31269
X38642Y30935
X38644Y31592
X38661Y30394
X38729Y44684
X38740Y30039
X38858Y32598
X38937Y34134
X38976Y36732
X38976Y7480
X39074Y45295
X39104Y30669
X39331Y35197
X39331Y33819
X39368Y36400
X39567Y9685
X39568Y45440
X39606Y35945
X39646Y34213
X39804Y45766
X39843Y35394
X39863Y36204
X39903Y46069
X39941Y34449
X40567Y55107
X41378Y6102
X42172Y9724
X42480Y45000
X42638Y4409
X43228Y55118
X43307Y26890
X43724Y26244
X44016Y9764
X44094Y25984
X44331Y45118
X44843Y3976
X45000Y8662
X45279Y40834
X45315Y42402
X45315Y39291
X45315Y37992
X45472Y44685
X45472Y35236
X45630Y27795
X45669Y20276
X45669Y16457
X45709Y31614
X45709Y25512
X45709Y22717
X45787Y43661
X45787Y24843
X45923Y25769
X45945Y14016
X45945Y11024
X46181Y45748
X46417Y45984
X46654Y25984
X46693Y8484
X46969Y26142
X46969Y8228
X47205Y25768
X47205Y7953
X47244Y6181
X47480Y25512
X47480Y7717
X47756Y7480
X47795Y55033
X48189Y14724
X48425Y14961
X48752Y18566
X49173Y54606
X50177Y24726
X50236Y45315
X50394Y28543
X50551Y22283
X50709Y7953
X50945Y12559
X51654Y55070
X52283Y3307
X52835Y4528
X52920Y58839
X53071Y2953
X53307Y34055
X53307Y2716
X53465Y49764
X54252Y15079
X55118Y10276
X55157Y3346
X55394Y45079
X55538Y8357
X55943Y28127
X56535Y45157
X56575Y56181
X56575Y50748
X56614Y20866
X57008Y26929
X57342Y27272
X57638Y26693
X57847Y26432
X59724Y53898
X59764Y33583
X60118Y47126
X60374Y38263
X60787Y23110
X60787Y8504
X61260Y3425
X61457Y54882
T3
X10555Y14646
X10555Y14252
X10555Y13858
X10555Y12961
X10555Y12561
X12372Y42077
X12687Y42077
X13002Y42077
X13317Y42077
X13632Y42077
X13947Y42077
X14262Y42077
X14262Y41762
X21024Y11634
X21024Y11240
X21024Y10846
X21024Y10453
X22904Y39823
X23278Y39823
X23297Y43248
X23652Y43248
X23652Y39823
X25571Y36801
X25965Y36801
X28580Y24863
X28580Y21910
X28580Y21595
X28580Y21280
X28580Y20965
X28580Y20650
X28580Y20020
X28580Y19705
X28580Y19390
X28580Y19075
X28580Y18760
X28580Y18445
X28580Y18130
X28580Y17815
X28580Y17501
X28580Y17186
X28580Y16241
X28580Y15926
X28580Y15611
X28580Y14351
X28580Y14036
X28580Y13721
X28580Y13406
X28580Y12461
X28580Y12146
X28580Y11831
X28580Y11516
X28580Y11201
X28580Y10178
X28580Y24548
X28580Y20335
X28580Y16871
X28580Y16556
X28580Y15296
X28580Y14981
X28580Y14666
X28580Y13091
X28580Y12776
X28816Y25729
X28895Y10178
X29210Y10178
X29288Y25729
X29524Y10178
X29761Y25729
X29839Y10178
X30154Y10178
X30233Y25729
X30469Y10178
X30706Y25729
X30784Y10178
X31099Y10178
X31139Y25729
X31414Y10178
X31611Y25729
X31729Y10178
X32044Y10178
X32084Y25729
X32359Y10178
X32556Y25729
X32674Y10178
X32989Y10178
X33028Y25729
X33304Y10178
X33501Y25729
X33619Y10178
X33934Y10178
X33973Y25729
X34249Y10178
X34446Y25729
X34564Y10178
X34879Y10178
X34918Y25729
X35194Y10178
X35391Y25729
X35509Y10178
X35863Y25729
X36336Y25729
X36808Y25729
X37280Y25729
X37674Y10178
X37753Y25729
X37989Y10178
X38225Y25729
X38304Y10178
X38619Y10178
X38652Y40758
X38698Y25729
X38934Y10178
X38967Y42648
X38967Y42333
X38967Y42018
X38967Y41703
X38967Y41388
X38967Y41073
X38967Y40758
X39170Y25729
X39643Y25729
X40115Y25729
X40256Y43110
X40256Y42795
X40256Y31909
X40256Y31594
X40256Y31280
X40256Y30965
X40256Y30650
X40256Y30335
X40256Y30020
X40256Y29705
X40256Y29390
X40256Y29075
X40256Y28760
X40256Y28445
X40256Y28130
X40256Y27815
X40256Y27500
X40256Y27185
X40587Y25729
X41060Y25729
X41532Y25729
X42005Y25729
X42005Y10178
X42320Y10178
X42477Y25729
X42635Y10178
X42950Y25729
X43422Y25729
X43895Y25729
X43996Y27185
X44311Y27185
X44626Y27185
X44839Y25729
X44941Y27185
X44997Y21831
X44997Y19075
X44997Y18682
X44997Y18288
X44997Y17894
X44997Y17501
X44997Y17107
X44997Y16713
X44997Y16319
X44997Y15099
X44997Y14784
X44997Y10178
X44997Y24745
X44997Y24351
T4
X10640Y41447
X10640Y40974
X10640Y37746
X14183Y38612
X34636Y44380
X35502Y40837
X37864Y44380
X38337Y44380
X44862Y43031
X44862Y39961
X44862Y36890
X44862Y33819
T5
X12992Y48622
X12992Y47122
X13976Y45317
X13976Y43817
X15157Y45317
X15157Y43817
X16339Y45317
X16339Y43817
X17323Y48624
X17323Y47124
X17323Y45907
X17323Y44407
X18307Y48624
X18307Y47124
X18307Y45907
X18307Y44407
X19291Y48624
X19291Y47124
X19291Y45907
X19291Y44407
X20276Y48624
X20276Y47124
X21260Y45907
X21260Y44407
X22244Y48624
X22244Y47124
X23228Y48624
X23228Y47124
X24213Y48624
X24213Y47124
X25197Y48624
X25197Y47124
X26181Y48624
X26181Y47124
X27165Y48624
X27165Y47124
X28110Y47089
X28110Y45589
X30276Y48624
X30276Y47124
X30276Y45907
X30276Y44407
X31260Y47089
X31260Y45589
X32283Y48622
X32283Y46693
X33189Y48622
X33189Y46693
X34055Y48622
X34055Y47122
X34921Y48622
X34921Y47122
X35787Y48622
X35787Y47122
X36654Y48622
X36654Y47122
X37677Y47207
X37677Y45707
X38780Y50553
X38780Y49053
X38780Y47207
X38780Y45707
X39961Y50553
X39961Y49053
T6
X13716Y8104
X13716Y7317
X14700Y8104
X14700Y7317
T7
X19409Y8583
X19409Y7598
X19409Y6614
X19409Y5630
X19409Y4646
T8
X10827Y48622
X10866Y46890
X12008Y48622
X12008Y46890
X13976Y48622
X13976Y46850
X15157Y48622
X15157Y46850
X16339Y48622
X16339Y46850
X20276Y45709
X21260Y48622
X21260Y46890
X22244Y45709
X22618Y5246
X23760Y5246
X24449Y36978
X24626Y43081
X25197Y45709
X26811Y11654
X26909Y36978
X28150Y48622
X28602Y36978
X29291Y48622
X29291Y46890
X29350Y36978
X29370Y43081
X31260Y48624
X31319Y43081
X31870Y36978
X32047Y43081
X32283Y45748
X34606Y26850
X37677Y48819
X38085Y6726
X38085Y5726
X39085Y6726
X39085Y5726
X40000Y46614
X41142Y50591
X41142Y48819
X41181Y47047
X41220Y45315
X42323Y50591
X42323Y48819
X42323Y47047
X43504Y50591
X43504Y48819
X43504Y47047
X44685Y50591
X44685Y48819
X44685Y47047
X45866Y50591
X45866Y48819
X45866Y47047
X47047Y50591
X47047Y48819
X47047Y47047
X48228Y50591
X48228Y48819
X48228Y47047
X49409Y50591
X49409Y48819
X49409Y47047
X50591Y50591
X50591Y48819
X50591Y47047
X51772Y50591
X51772Y48819
X51772Y47047
X53627Y13821
X53627Y12821
X53627Y11821
X53627Y10821
X53627Y9821
X54627Y13821
X54627Y12821
X54627Y11821
X54627Y10821
X54627Y9821
X55593Y18821
X55593Y17821
X55593Y16821
X55593Y15821
X55593Y14821
X55593Y13821
X55593Y12821
X55593Y11821
X55593Y10821
X55593Y9821
X56593Y18821
X56593Y17821
X56593Y16821
X56593Y15821
X56593Y14821
X56593Y13821
X56593Y12821
X56593Y11821
X56593Y10821
X56593Y9821
X57601Y18821
X57601Y17821
X57601Y16821
X57601Y15821
X57601Y14821
X57601Y13821
X57601Y12821
X57601Y11821
X57601Y10821
X57601Y9821
X58601Y18821
X58601Y17821
X58601Y16821
X58601Y15821
X58601Y14821
X58601Y13821
X58601Y12821
X58601Y11821
X58601Y10821
X58601Y9821
X59609Y18821
X59609Y17821
X59609Y16821
X59609Y15821
X59609Y14821
X59609Y13821
X59609Y12821
X59609Y11821
X59609Y10821
X59609Y9821
X60609Y18821
X60609Y17821
X60609Y16821
X60609Y15821
X60609Y14821
X60609Y13821
X60609Y12821
X60609Y11821
X60609Y10821
X60609Y9821
T9
X7840Y57283
X7840Y56299
X7840Y53937
X7840Y52953
X8824Y57283
X8824Y56299
X8824Y53937
X8824Y52953
X9808Y57283
X9808Y56299
X9808Y53937
X9808Y52953
X10792Y57283
X10792Y56299
X10792Y53937
X10792Y52953
X11777Y57283
X11777Y56299
X11777Y53937
X11777Y52953
X12761Y57283
X12761Y56299
X12761Y53937
X12761Y52953
X13745Y57283
X13745Y56299
X13745Y53937
X13745Y52953
X14729Y57283
X14729Y56299
X14729Y53937
X14729Y52953
X15714Y57283
X15714Y56299
X15714Y53937
X15714Y52953
X16698Y57283
X16698Y56299
X16698Y53937
X16698Y52953
X17682Y57283
X17682Y56299
X17682Y53937
X17682Y52953
X18666Y57283
X18666Y56299
X18666Y53937
X18666Y52953
X19651Y57283
X19651Y56299
X19651Y53937
X19651Y52953
X20635Y57283
X20635Y56299
X20635Y53937
X20635Y52953
X21619Y57283
X21619Y56299
X21619Y53937
X21619Y52953
X22603Y57283
X22603Y56299
X22603Y53937
X22603Y52953
X23588Y57283
X23588Y56299
X23588Y53937
X23588Y52953
X24572Y57283
X24572Y56299
X24572Y53937
X24572Y52953
X25556Y57283
X25556Y56299
X25556Y53937
X25556Y52953
X26540Y57283
X26540Y56299
X26540Y53937
X26540Y52953
X27525Y57283
X27525Y56299
X27525Y53937
X27525Y52953
X28706Y57283
X28706Y56299
X28706Y53937
X28706Y52953
X38548Y57283
X38548Y56299
X38548Y53937
X38548Y52953
X39729Y57283
X39729Y56299
X39729Y53937
X39729Y52953
X40714Y57283
X40714Y56299
X40714Y53937
X40714Y52953
X41698Y57283
X41698Y56299
X41698Y53937
X41698Y52953
X42682Y57283
X42682Y56299
X42682Y53937
X42682Y52953
X43666Y57283
X43666Y56299
X43666Y53937
X43666Y52953
X44651Y57283
X44651Y56299
X44651Y53937
X44651Y52953
X45635Y57283
X45635Y56299
X45635Y53937
X45635Y52953
X46619Y57283
X46619Y56299
X46619Y53937
X46619Y52953
X47603Y57283
X47603Y56299
X47603Y53937
X47603Y52953
X48784Y57283
X48784Y56299
X48784Y53937
X48784Y52953
X50162Y57283
X50162Y56299
X50162Y53937
X50162Y52953
X51540Y57283
X51540Y56299
X51540Y53937
X51540Y52953
X52918Y57283
X52918Y56299
X52918Y53937
X52918Y52953
X54296Y57283
X54296Y56299
X54296Y53937
X54296Y52953
T10
X22559Y14173
X22559Y12520
X22559Y10866
X24724Y14173
X24724Y12520
X24724Y10866
X25079Y32382
X25079Y30217
X26732Y32382
X26732Y30217
X28386Y32382
X28386Y30217
X30039Y32382
X30039Y30217
X31693Y32382
X31693Y30217
X33346Y32382
X33346Y30217
T11
X31304Y57283
X31304Y55118
X31304Y52953
X33351Y57283
X33351Y55118
X33351Y52953
T12
X11838Y6250
X16578Y6250
T13
X13386Y18543
X16339Y18543
T14
X37052Y51575
T15
X14532Y59882
X49966Y59882
T16
X6757Y51280
X55969Y57972
M30
