G04 #@! TF.GenerationSoftware,KiCad,Pcbnew,8.0.2-8.0.2-0~ubuntu22.04.1*
G04 #@! TF.CreationDate,2024-05-13T19:35:08+00:00*
G04 #@! TF.ProjectId,hellen154hyundai,68656c6c-656e-4313-9534-6879756e6461,E*
G04 #@! TF.SameCoordinates,PX5f5e100PYc845880*
G04 #@! TF.FileFunction,Paste,Bot*
G04 #@! TF.FilePolarity,Positive*
%FSLAX46Y46*%
G04 Gerber Fmt 4.6, Leading zero omitted, Abs format (unit mm)*
G04 Created by KiCad (PCBNEW 8.0.2-8.0.2-0~ubuntu22.04.1) date 2024-05-13 19:35:08*
%MOMM*%
%LPD*%
G01*
G04 APERTURE LIST*
%ADD10R,0.200000X2.300000*%
%ADD11R,0.200000X10.700000*%
%ADD12R,0.200000X2.100000*%
%ADD13R,0.200000X6.000000*%
%ADD14R,0.200000X5.400000*%
%ADD15R,1.400000X0.200000*%
%ADD16R,5.000000X0.200000*%
%ADD17R,6.800000X0.200000*%
%ADD18R,4.500000X0.200000*%
%ADD19R,0.200000X1.600000*%
%ADD20R,0.200000X5.700000*%
%ADD21R,0.200000X2.000000*%
G04 APERTURE END LIST*
D10*
G04 #@! TO.C,M1*
X114492191Y64501268D03*
D11*
X114492189Y31701270D03*
D12*
X114492189Y39901269D03*
D13*
X114492189Y51951268D03*
D14*
X114492189Y58651265D03*
D15*
X112692182Y65551271D03*
D16*
X111292187Y25651270D03*
D17*
X102792184Y25651270D03*
D18*
X92942181Y25651270D03*
D19*
X72392186Y27151269D03*
D20*
X72392186Y59001272D03*
D21*
X72392186Y64651265D03*
G04 #@! TD*
G04 #@! TO.C,R81*
G36*
G01*
X48705000Y58325000D02*
X49485000Y58325000D01*
G75*
G02*
X49555000Y58255000I0J-70000D01*
G01*
X49555000Y57695000D01*
G75*
G02*
X49485000Y57625000I-70000J0D01*
G01*
X48705000Y57625000D01*
G75*
G02*
X48635000Y57695000I0J70000D01*
G01*
X48635000Y58255000D01*
G75*
G02*
X48705000Y58325000I70000J0D01*
G01*
G37*
G36*
G01*
X48705000Y56725000D02*
X49485000Y56725000D01*
G75*
G02*
X49555000Y56655000I0J-70000D01*
G01*
X49555000Y56095000D01*
G75*
G02*
X49485000Y56025000I-70000J0D01*
G01*
X48705000Y56025000D01*
G75*
G02*
X48635000Y56095000I0J70000D01*
G01*
X48635000Y56655000D01*
G75*
G02*
X48705000Y56725000I70000J0D01*
G01*
G37*
G04 #@! TD*
G04 #@! TO.C,R48*
G36*
G01*
X35200000Y58325000D02*
X35980000Y58325000D01*
G75*
G02*
X36050000Y58255000I0J-70000D01*
G01*
X36050000Y57695000D01*
G75*
G02*
X35980000Y57625000I-70000J0D01*
G01*
X35200000Y57625000D01*
G75*
G02*
X35130000Y57695000I0J70000D01*
G01*
X35130000Y58255000D01*
G75*
G02*
X35200000Y58325000I70000J0D01*
G01*
G37*
G36*
G01*
X35200000Y56725000D02*
X35980000Y56725000D01*
G75*
G02*
X36050000Y56655000I0J-70000D01*
G01*
X36050000Y56095000D01*
G75*
G02*
X35980000Y56025000I-70000J0D01*
G01*
X35200000Y56025000D01*
G75*
G02*
X35130000Y56095000I0J70000D01*
G01*
X35130000Y56655000D01*
G75*
G02*
X35200000Y56725000I70000J0D01*
G01*
G37*
G04 #@! TD*
G04 #@! TO.C,R74*
G36*
G01*
X39700000Y58325000D02*
X40480000Y58325000D01*
G75*
G02*
X40550000Y58255000I0J-70000D01*
G01*
X40550000Y57695000D01*
G75*
G02*
X40480000Y57625000I-70000J0D01*
G01*
X39700000Y57625000D01*
G75*
G02*
X39630000Y57695000I0J70000D01*
G01*
X39630000Y58255000D01*
G75*
G02*
X39700000Y58325000I70000J0D01*
G01*
G37*
G36*
G01*
X39700000Y56725000D02*
X40480000Y56725000D01*
G75*
G02*
X40550000Y56655000I0J-70000D01*
G01*
X40550000Y56095000D01*
G75*
G02*
X40480000Y56025000I-70000J0D01*
G01*
X39700000Y56025000D01*
G75*
G02*
X39630000Y56095000I0J70000D01*
G01*
X39630000Y56655000D01*
G75*
G02*
X39700000Y56725000I70000J0D01*
G01*
G37*
G04 #@! TD*
G04 #@! TO.C,R26*
G36*
G01*
X29200000Y58325000D02*
X29980000Y58325000D01*
G75*
G02*
X30050000Y58255000I0J-70000D01*
G01*
X30050000Y57695000D01*
G75*
G02*
X29980000Y57625000I-70000J0D01*
G01*
X29200000Y57625000D01*
G75*
G02*
X29130000Y57695000I0J70000D01*
G01*
X29130000Y58255000D01*
G75*
G02*
X29200000Y58325000I70000J0D01*
G01*
G37*
G36*
G01*
X29200000Y56725000D02*
X29980000Y56725000D01*
G75*
G02*
X30050000Y56655000I0J-70000D01*
G01*
X30050000Y56095000D01*
G75*
G02*
X29980000Y56025000I-70000J0D01*
G01*
X29200000Y56025000D01*
G75*
G02*
X29130000Y56095000I0J70000D01*
G01*
X29130000Y56655000D01*
G75*
G02*
X29200000Y56725000I70000J0D01*
G01*
G37*
G04 #@! TD*
G04 #@! TO.C,R13*
G36*
G01*
X65205000Y58325000D02*
X65985000Y58325000D01*
G75*
G02*
X66055000Y58255000I0J-70000D01*
G01*
X66055000Y57695000D01*
G75*
G02*
X65985000Y57625000I-70000J0D01*
G01*
X65205000Y57625000D01*
G75*
G02*
X65135000Y57695000I0J70000D01*
G01*
X65135000Y58255000D01*
G75*
G02*
X65205000Y58325000I70000J0D01*
G01*
G37*
G36*
G01*
X65205000Y56725000D02*
X65985000Y56725000D01*
G75*
G02*
X66055000Y56655000I0J-70000D01*
G01*
X66055000Y56095000D01*
G75*
G02*
X65985000Y56025000I-70000J0D01*
G01*
X65205000Y56025000D01*
G75*
G02*
X65135000Y56095000I0J70000D01*
G01*
X65135000Y56655000D01*
G75*
G02*
X65205000Y56725000I70000J0D01*
G01*
G37*
G04 #@! TD*
G04 #@! TO.C,R80*
G36*
G01*
X51705000Y58325000D02*
X52485000Y58325000D01*
G75*
G02*
X52555000Y58255000I0J-70000D01*
G01*
X52555000Y57695000D01*
G75*
G02*
X52485000Y57625000I-70000J0D01*
G01*
X51705000Y57625000D01*
G75*
G02*
X51635000Y57695000I0J70000D01*
G01*
X51635000Y58255000D01*
G75*
G02*
X51705000Y58325000I70000J0D01*
G01*
G37*
G36*
G01*
X51705000Y56725000D02*
X52485000Y56725000D01*
G75*
G02*
X52555000Y56655000I0J-70000D01*
G01*
X52555000Y56095000D01*
G75*
G02*
X52485000Y56025000I-70000J0D01*
G01*
X51705000Y56025000D01*
G75*
G02*
X51635000Y56095000I0J70000D01*
G01*
X51635000Y56655000D01*
G75*
G02*
X51705000Y56725000I70000J0D01*
G01*
G37*
G04 #@! TD*
G04 #@! TO.C,D5*
G36*
G01*
X66105000Y59225000D02*
X65085000Y59225000D01*
G75*
G02*
X64995000Y59315000I0J90000D01*
G01*
X64995000Y60035000D01*
G75*
G02*
X65085000Y60125000I90000J0D01*
G01*
X66105000Y60125000D01*
G75*
G02*
X66195000Y60035000I0J-90000D01*
G01*
X66195000Y59315000D01*
G75*
G02*
X66105000Y59225000I-90000J0D01*
G01*
G37*
G36*
G01*
X66105000Y62525000D02*
X65085000Y62525000D01*
G75*
G02*
X64995000Y62615000I0J90000D01*
G01*
X64995000Y63335000D01*
G75*
G02*
X65085000Y63425000I90000J0D01*
G01*
X66105000Y63425000D01*
G75*
G02*
X66195000Y63335000I0J-90000D01*
G01*
X66195000Y62615000D01*
G75*
G02*
X66105000Y62525000I-90000J0D01*
G01*
G37*
G04 #@! TD*
G04 #@! TO.C,R50*
G36*
G01*
X60705000Y58325000D02*
X61485000Y58325000D01*
G75*
G02*
X61555000Y58255000I0J-70000D01*
G01*
X61555000Y57695000D01*
G75*
G02*
X61485000Y57625000I-70000J0D01*
G01*
X60705000Y57625000D01*
G75*
G02*
X60635000Y57695000I0J70000D01*
G01*
X60635000Y58255000D01*
G75*
G02*
X60705000Y58325000I70000J0D01*
G01*
G37*
G36*
G01*
X60705000Y56725000D02*
X61485000Y56725000D01*
G75*
G02*
X61555000Y56655000I0J-70000D01*
G01*
X61555000Y56095000D01*
G75*
G02*
X61485000Y56025000I-70000J0D01*
G01*
X60705000Y56025000D01*
G75*
G02*
X60635000Y56095000I0J70000D01*
G01*
X60635000Y56655000D01*
G75*
G02*
X60705000Y56725000I70000J0D01*
G01*
G37*
G04 #@! TD*
G04 #@! TO.C,R49*
G36*
G01*
X38200000Y58325000D02*
X38980000Y58325000D01*
G75*
G02*
X39050000Y58255000I0J-70000D01*
G01*
X39050000Y57695000D01*
G75*
G02*
X38980000Y57625000I-70000J0D01*
G01*
X38200000Y57625000D01*
G75*
G02*
X38130000Y57695000I0J70000D01*
G01*
X38130000Y58255000D01*
G75*
G02*
X38200000Y58325000I70000J0D01*
G01*
G37*
G36*
G01*
X38200000Y56725000D02*
X38980000Y56725000D01*
G75*
G02*
X39050000Y56655000I0J-70000D01*
G01*
X39050000Y56095000D01*
G75*
G02*
X38980000Y56025000I-70000J0D01*
G01*
X38200000Y56025000D01*
G75*
G02*
X38130000Y56095000I0J70000D01*
G01*
X38130000Y56655000D01*
G75*
G02*
X38200000Y56725000I70000J0D01*
G01*
G37*
G04 #@! TD*
G04 #@! TO.C,R70*
G36*
G01*
X57705000Y58325000D02*
X58485000Y58325000D01*
G75*
G02*
X58555000Y58255000I0J-70000D01*
G01*
X58555000Y57695000D01*
G75*
G02*
X58485000Y57625000I-70000J0D01*
G01*
X57705000Y57625000D01*
G75*
G02*
X57635000Y57695000I0J70000D01*
G01*
X57635000Y58255000D01*
G75*
G02*
X57705000Y58325000I70000J0D01*
G01*
G37*
G36*
G01*
X57705000Y56725000D02*
X58485000Y56725000D01*
G75*
G02*
X58555000Y56655000I0J-70000D01*
G01*
X58555000Y56095000D01*
G75*
G02*
X58485000Y56025000I-70000J0D01*
G01*
X57705000Y56025000D01*
G75*
G02*
X57635000Y56095000I0J70000D01*
G01*
X57635000Y56655000D01*
G75*
G02*
X57705000Y56725000I70000J0D01*
G01*
G37*
G04 #@! TD*
G04 #@! TO.C,D39*
G36*
G01*
X42100000Y59225000D02*
X41080000Y59225000D01*
G75*
G02*
X40990000Y59315000I0J90000D01*
G01*
X40990000Y60035000D01*
G75*
G02*
X41080000Y60125000I90000J0D01*
G01*
X42100000Y60125000D01*
G75*
G02*
X42190000Y60035000I0J-90000D01*
G01*
X42190000Y59315000D01*
G75*
G02*
X42100000Y59225000I-90000J0D01*
G01*
G37*
G36*
G01*
X42100000Y62525000D02*
X41080000Y62525000D01*
G75*
G02*
X40990000Y62615000I0J90000D01*
G01*
X40990000Y63335000D01*
G75*
G02*
X41080000Y63425000I90000J0D01*
G01*
X42100000Y63425000D01*
G75*
G02*
X42190000Y63335000I0J-90000D01*
G01*
X42190000Y62615000D01*
G75*
G02*
X42100000Y62525000I-90000J0D01*
G01*
G37*
G04 #@! TD*
G04 #@! TO.C,D10*
G36*
G01*
X68605000Y59225000D02*
X67585000Y59225000D01*
G75*
G02*
X67495000Y59315000I0J90000D01*
G01*
X67495000Y60035000D01*
G75*
G02*
X67585000Y60125000I90000J0D01*
G01*
X68605000Y60125000D01*
G75*
G02*
X68695000Y60035000I0J-90000D01*
G01*
X68695000Y59315000D01*
G75*
G02*
X68605000Y59225000I-90000J0D01*
G01*
G37*
G36*
G01*
X68605000Y62525000D02*
X67585000Y62525000D01*
G75*
G02*
X67495000Y62615000I0J90000D01*
G01*
X67495000Y63335000D01*
G75*
G02*
X67585000Y63425000I90000J0D01*
G01*
X68605000Y63425000D01*
G75*
G02*
X68695000Y63335000I0J-90000D01*
G01*
X68695000Y62615000D01*
G75*
G02*
X68605000Y62525000I-90000J0D01*
G01*
G37*
G04 #@! TD*
G04 #@! TO.C,D2*
G36*
G01*
X62605000Y59225000D02*
X61585000Y59225000D01*
G75*
G02*
X61495000Y59315000I0J90000D01*
G01*
X61495000Y60035000D01*
G75*
G02*
X61585000Y60125000I90000J0D01*
G01*
X62605000Y60125000D01*
G75*
G02*
X62695000Y60035000I0J-90000D01*
G01*
X62695000Y59315000D01*
G75*
G02*
X62605000Y59225000I-90000J0D01*
G01*
G37*
G36*
G01*
X62605000Y62525000D02*
X61585000Y62525000D01*
G75*
G02*
X61495000Y62615000I0J90000D01*
G01*
X61495000Y63335000D01*
G75*
G02*
X61585000Y63425000I90000J0D01*
G01*
X62605000Y63425000D01*
G75*
G02*
X62695000Y63335000I0J-90000D01*
G01*
X62695000Y62615000D01*
G75*
G02*
X62605000Y62525000I-90000J0D01*
G01*
G37*
G04 #@! TD*
G04 #@! TO.C,R61*
G36*
G01*
X66705000Y58325000D02*
X67485000Y58325000D01*
G75*
G02*
X67555000Y58255000I0J-70000D01*
G01*
X67555000Y57695000D01*
G75*
G02*
X67485000Y57625000I-70000J0D01*
G01*
X66705000Y57625000D01*
G75*
G02*
X66635000Y57695000I0J70000D01*
G01*
X66635000Y58255000D01*
G75*
G02*
X66705000Y58325000I70000J0D01*
G01*
G37*
G36*
G01*
X66705000Y56725000D02*
X67485000Y56725000D01*
G75*
G02*
X67555000Y56655000I0J-70000D01*
G01*
X67555000Y56095000D01*
G75*
G02*
X67485000Y56025000I-70000J0D01*
G01*
X66705000Y56025000D01*
G75*
G02*
X66635000Y56095000I0J70000D01*
G01*
X66635000Y56655000D01*
G75*
G02*
X66705000Y56725000I70000J0D01*
G01*
G37*
G04 #@! TD*
G04 #@! TO.C,R69*
G36*
G01*
X33700000Y58325000D02*
X34480000Y58325000D01*
G75*
G02*
X34550000Y58255000I0J-70000D01*
G01*
X34550000Y57695000D01*
G75*
G02*
X34480000Y57625000I-70000J0D01*
G01*
X33700000Y57625000D01*
G75*
G02*
X33630000Y57695000I0J70000D01*
G01*
X33630000Y58255000D01*
G75*
G02*
X33700000Y58325000I70000J0D01*
G01*
G37*
G36*
G01*
X33700000Y56725000D02*
X34480000Y56725000D01*
G75*
G02*
X34550000Y56655000I0J-70000D01*
G01*
X34550000Y56095000D01*
G75*
G02*
X34480000Y56025000I-70000J0D01*
G01*
X33700000Y56025000D01*
G75*
G02*
X33630000Y56095000I0J70000D01*
G01*
X33630000Y56655000D01*
G75*
G02*
X33700000Y56725000I70000J0D01*
G01*
G37*
G04 #@! TD*
G04 #@! TO.C,D44*
G36*
G01*
X38600000Y59225000D02*
X37580000Y59225000D01*
G75*
G02*
X37490000Y59315000I0J90000D01*
G01*
X37490000Y60035000D01*
G75*
G02*
X37580000Y60125000I90000J0D01*
G01*
X38600000Y60125000D01*
G75*
G02*
X38690000Y60035000I0J-90000D01*
G01*
X38690000Y59315000D01*
G75*
G02*
X38600000Y59225000I-90000J0D01*
G01*
G37*
G36*
G01*
X38600000Y62525000D02*
X37580000Y62525000D01*
G75*
G02*
X37490000Y62615000I0J90000D01*
G01*
X37490000Y63335000D01*
G75*
G02*
X37580000Y63425000I90000J0D01*
G01*
X38600000Y63425000D01*
G75*
G02*
X38690000Y63335000I0J-90000D01*
G01*
X38690000Y62615000D01*
G75*
G02*
X38600000Y62525000I-90000J0D01*
G01*
G37*
G04 #@! TD*
G04 #@! TO.C,R33*
G36*
G01*
X53205000Y58325000D02*
X53985000Y58325000D01*
G75*
G02*
X54055000Y58255000I0J-70000D01*
G01*
X54055000Y57695000D01*
G75*
G02*
X53985000Y57625000I-70000J0D01*
G01*
X53205000Y57625000D01*
G75*
G02*
X53135000Y57695000I0J70000D01*
G01*
X53135000Y58255000D01*
G75*
G02*
X53205000Y58325000I70000J0D01*
G01*
G37*
G36*
G01*
X53205000Y56725000D02*
X53985000Y56725000D01*
G75*
G02*
X54055000Y56655000I0J-70000D01*
G01*
X54055000Y56095000D01*
G75*
G02*
X53985000Y56025000I-70000J0D01*
G01*
X53205000Y56025000D01*
G75*
G02*
X53135000Y56095000I0J70000D01*
G01*
X53135000Y56655000D01*
G75*
G02*
X53205000Y56725000I70000J0D01*
G01*
G37*
G04 #@! TD*
G04 #@! TO.C,R45*
G36*
G01*
X69705000Y58325000D02*
X70485000Y58325000D01*
G75*
G02*
X70555000Y58255000I0J-70000D01*
G01*
X70555000Y57695000D01*
G75*
G02*
X70485000Y57625000I-70000J0D01*
G01*
X69705000Y57625000D01*
G75*
G02*
X69635000Y57695000I0J70000D01*
G01*
X69635000Y58255000D01*
G75*
G02*
X69705000Y58325000I70000J0D01*
G01*
G37*
G36*
G01*
X69705000Y56725000D02*
X70485000Y56725000D01*
G75*
G02*
X70555000Y56655000I0J-70000D01*
G01*
X70555000Y56095000D01*
G75*
G02*
X70485000Y56025000I-70000J0D01*
G01*
X69705000Y56025000D01*
G75*
G02*
X69635000Y56095000I0J70000D01*
G01*
X69635000Y56655000D01*
G75*
G02*
X69705000Y56725000I70000J0D01*
G01*
G37*
G04 #@! TD*
G04 #@! TO.C,R73*
G36*
G01*
X45700000Y58325000D02*
X46480000Y58325000D01*
G75*
G02*
X46550000Y58255000I0J-70000D01*
G01*
X46550000Y57695000D01*
G75*
G02*
X46480000Y57625000I-70000J0D01*
G01*
X45700000Y57625000D01*
G75*
G02*
X45630000Y57695000I0J70000D01*
G01*
X45630000Y58255000D01*
G75*
G02*
X45700000Y58325000I70000J0D01*
G01*
G37*
G36*
G01*
X45700000Y56725000D02*
X46480000Y56725000D01*
G75*
G02*
X46550000Y56655000I0J-70000D01*
G01*
X46550000Y56095000D01*
G75*
G02*
X46480000Y56025000I-70000J0D01*
G01*
X45700000Y56025000D01*
G75*
G02*
X45630000Y56095000I0J70000D01*
G01*
X45630000Y56655000D01*
G75*
G02*
X45700000Y56725000I70000J0D01*
G01*
G37*
G04 #@! TD*
G04 #@! TO.C,D41*
G36*
G01*
X36100000Y59225000D02*
X35080000Y59225000D01*
G75*
G02*
X34990000Y59315000I0J90000D01*
G01*
X34990000Y60035000D01*
G75*
G02*
X35080000Y60125000I90000J0D01*
G01*
X36100000Y60125000D01*
G75*
G02*
X36190000Y60035000I0J-90000D01*
G01*
X36190000Y59315000D01*
G75*
G02*
X36100000Y59225000I-90000J0D01*
G01*
G37*
G36*
G01*
X36100000Y62525000D02*
X35080000Y62525000D01*
G75*
G02*
X34990000Y62615000I0J90000D01*
G01*
X34990000Y63335000D01*
G75*
G02*
X35080000Y63425000I90000J0D01*
G01*
X36100000Y63425000D01*
G75*
G02*
X36190000Y63335000I0J-90000D01*
G01*
X36190000Y62615000D01*
G75*
G02*
X36100000Y62525000I-90000J0D01*
G01*
G37*
G04 #@! TD*
G04 #@! TO.C,R77*
G36*
G01*
X36700000Y58325000D02*
X37480000Y58325000D01*
G75*
G02*
X37550000Y58255000I0J-70000D01*
G01*
X37550000Y57695000D01*
G75*
G02*
X37480000Y57625000I-70000J0D01*
G01*
X36700000Y57625000D01*
G75*
G02*
X36630000Y57695000I0J70000D01*
G01*
X36630000Y58255000D01*
G75*
G02*
X36700000Y58325000I70000J0D01*
G01*
G37*
G36*
G01*
X36700000Y56725000D02*
X37480000Y56725000D01*
G75*
G02*
X37550000Y56655000I0J-70000D01*
G01*
X37550000Y56095000D01*
G75*
G02*
X37480000Y56025000I-70000J0D01*
G01*
X36700000Y56025000D01*
G75*
G02*
X36630000Y56095000I0J70000D01*
G01*
X36630000Y56655000D01*
G75*
G02*
X36700000Y56725000I70000J0D01*
G01*
G37*
G04 #@! TD*
G04 #@! TO.C,R42*
G36*
G01*
X44200000Y58325000D02*
X44980000Y58325000D01*
G75*
G02*
X45050000Y58255000I0J-70000D01*
G01*
X45050000Y57695000D01*
G75*
G02*
X44980000Y57625000I-70000J0D01*
G01*
X44200000Y57625000D01*
G75*
G02*
X44130000Y57695000I0J70000D01*
G01*
X44130000Y58255000D01*
G75*
G02*
X44200000Y58325000I70000J0D01*
G01*
G37*
G36*
G01*
X44200000Y56725000D02*
X44980000Y56725000D01*
G75*
G02*
X45050000Y56655000I0J-70000D01*
G01*
X45050000Y56095000D01*
G75*
G02*
X44980000Y56025000I-70000J0D01*
G01*
X44200000Y56025000D01*
G75*
G02*
X44130000Y56095000I0J70000D01*
G01*
X44130000Y56655000D01*
G75*
G02*
X44200000Y56725000I70000J0D01*
G01*
G37*
G04 #@! TD*
G04 #@! TO.C,R44*
G36*
G01*
X63705000Y58325000D02*
X64485000Y58325000D01*
G75*
G02*
X64555000Y58255000I0J-70000D01*
G01*
X64555000Y57695000D01*
G75*
G02*
X64485000Y57625000I-70000J0D01*
G01*
X63705000Y57625000D01*
G75*
G02*
X63635000Y57695000I0J70000D01*
G01*
X63635000Y58255000D01*
G75*
G02*
X63705000Y58325000I70000J0D01*
G01*
G37*
G36*
G01*
X63705000Y56725000D02*
X64485000Y56725000D01*
G75*
G02*
X64555000Y56655000I0J-70000D01*
G01*
X64555000Y56095000D01*
G75*
G02*
X64485000Y56025000I-70000J0D01*
G01*
X63705000Y56025000D01*
G75*
G02*
X63635000Y56095000I0J70000D01*
G01*
X63635000Y56655000D01*
G75*
G02*
X63705000Y56725000I70000J0D01*
G01*
G37*
G04 #@! TD*
G04 #@! TO.C,R2*
G36*
G01*
X59205000Y58325000D02*
X59985000Y58325000D01*
G75*
G02*
X60055000Y58255000I0J-70000D01*
G01*
X60055000Y57695000D01*
G75*
G02*
X59985000Y57625000I-70000J0D01*
G01*
X59205000Y57625000D01*
G75*
G02*
X59135000Y57695000I0J70000D01*
G01*
X59135000Y58255000D01*
G75*
G02*
X59205000Y58325000I70000J0D01*
G01*
G37*
G36*
G01*
X59205000Y56725000D02*
X59985000Y56725000D01*
G75*
G02*
X60055000Y56655000I0J-70000D01*
G01*
X60055000Y56095000D01*
G75*
G02*
X59985000Y56025000I-70000J0D01*
G01*
X59205000Y56025000D01*
G75*
G02*
X59135000Y56095000I0J70000D01*
G01*
X59135000Y56655000D01*
G75*
G02*
X59205000Y56725000I70000J0D01*
G01*
G37*
G04 #@! TD*
G04 #@! TO.C,D1*
G36*
G01*
X60105000Y59225000D02*
X59085000Y59225000D01*
G75*
G02*
X58995000Y59315000I0J90000D01*
G01*
X58995000Y60035000D01*
G75*
G02*
X59085000Y60125000I90000J0D01*
G01*
X60105000Y60125000D01*
G75*
G02*
X60195000Y60035000I0J-90000D01*
G01*
X60195000Y59315000D01*
G75*
G02*
X60105000Y59225000I-90000J0D01*
G01*
G37*
G36*
G01*
X60105000Y62525000D02*
X59085000Y62525000D01*
G75*
G02*
X58995000Y62615000I0J90000D01*
G01*
X58995000Y63335000D01*
G75*
G02*
X59085000Y63425000I90000J0D01*
G01*
X60105000Y63425000D01*
G75*
G02*
X60195000Y63335000I0J-90000D01*
G01*
X60195000Y62615000D01*
G75*
G02*
X60105000Y62525000I-90000J0D01*
G01*
G37*
G04 #@! TD*
G04 #@! TO.C,R75*
G36*
G01*
X42700000Y58325000D02*
X43480000Y58325000D01*
G75*
G02*
X43550000Y58255000I0J-70000D01*
G01*
X43550000Y57695000D01*
G75*
G02*
X43480000Y57625000I-70000J0D01*
G01*
X42700000Y57625000D01*
G75*
G02*
X42630000Y57695000I0J70000D01*
G01*
X42630000Y58255000D01*
G75*
G02*
X42700000Y58325000I70000J0D01*
G01*
G37*
G36*
G01*
X42700000Y56725000D02*
X43480000Y56725000D01*
G75*
G02*
X43550000Y56655000I0J-70000D01*
G01*
X43550000Y56095000D01*
G75*
G02*
X43480000Y56025000I-70000J0D01*
G01*
X42700000Y56025000D01*
G75*
G02*
X42630000Y56095000I0J70000D01*
G01*
X42630000Y56655000D01*
G75*
G02*
X42700000Y56725000I70000J0D01*
G01*
G37*
G04 #@! TD*
G04 #@! TO.C,R72*
G36*
G01*
X54705000Y58325000D02*
X55485000Y58325000D01*
G75*
G02*
X55555000Y58255000I0J-70000D01*
G01*
X55555000Y57695000D01*
G75*
G02*
X55485000Y57625000I-70000J0D01*
G01*
X54705000Y57625000D01*
G75*
G02*
X54635000Y57695000I0J70000D01*
G01*
X54635000Y58255000D01*
G75*
G02*
X54705000Y58325000I70000J0D01*
G01*
G37*
G36*
G01*
X54705000Y56725000D02*
X55485000Y56725000D01*
G75*
G02*
X55555000Y56655000I0J-70000D01*
G01*
X55555000Y56095000D01*
G75*
G02*
X55485000Y56025000I-70000J0D01*
G01*
X54705000Y56025000D01*
G75*
G02*
X54635000Y56095000I0J70000D01*
G01*
X54635000Y56655000D01*
G75*
G02*
X54705000Y56725000I70000J0D01*
G01*
G37*
G04 #@! TD*
G04 #@! TO.C,R79*
G36*
G01*
X50205000Y58325000D02*
X50985000Y58325000D01*
G75*
G02*
X51055000Y58255000I0J-70000D01*
G01*
X51055000Y57695000D01*
G75*
G02*
X50985000Y57625000I-70000J0D01*
G01*
X50205000Y57625000D01*
G75*
G02*
X50135000Y57695000I0J70000D01*
G01*
X50135000Y58255000D01*
G75*
G02*
X50205000Y58325000I70000J0D01*
G01*
G37*
G36*
G01*
X50205000Y56725000D02*
X50985000Y56725000D01*
G75*
G02*
X51055000Y56655000I0J-70000D01*
G01*
X51055000Y56095000D01*
G75*
G02*
X50985000Y56025000I-70000J0D01*
G01*
X50205000Y56025000D01*
G75*
G02*
X50135000Y56095000I0J70000D01*
G01*
X50135000Y56655000D01*
G75*
G02*
X50205000Y56725000I70000J0D01*
G01*
G37*
G04 #@! TD*
G04 #@! TO.C,R37*
G36*
G01*
X56205000Y58325000D02*
X56985000Y58325000D01*
G75*
G02*
X57055000Y58255000I0J-70000D01*
G01*
X57055000Y57695000D01*
G75*
G02*
X56985000Y57625000I-70000J0D01*
G01*
X56205000Y57625000D01*
G75*
G02*
X56135000Y57695000I0J70000D01*
G01*
X56135000Y58255000D01*
G75*
G02*
X56205000Y58325000I70000J0D01*
G01*
G37*
G36*
G01*
X56205000Y56725000D02*
X56985000Y56725000D01*
G75*
G02*
X57055000Y56655000I0J-70000D01*
G01*
X57055000Y56095000D01*
G75*
G02*
X56985000Y56025000I-70000J0D01*
G01*
X56205000Y56025000D01*
G75*
G02*
X56135000Y56095000I0J70000D01*
G01*
X56135000Y56655000D01*
G75*
G02*
X56205000Y56725000I70000J0D01*
G01*
G37*
G04 #@! TD*
G04 #@! TO.C,D40*
G36*
G01*
X44600000Y59225000D02*
X43580000Y59225000D01*
G75*
G02*
X43490000Y59315000I0J90000D01*
G01*
X43490000Y60035000D01*
G75*
G02*
X43580000Y60125000I90000J0D01*
G01*
X44600000Y60125000D01*
G75*
G02*
X44690000Y60035000I0J-90000D01*
G01*
X44690000Y59315000D01*
G75*
G02*
X44600000Y59225000I-90000J0D01*
G01*
G37*
G36*
G01*
X44600000Y62525000D02*
X43580000Y62525000D01*
G75*
G02*
X43490000Y62615000I0J90000D01*
G01*
X43490000Y63335000D01*
G75*
G02*
X43580000Y63425000I90000J0D01*
G01*
X44600000Y63425000D01*
G75*
G02*
X44690000Y63335000I0J-90000D01*
G01*
X44690000Y62615000D01*
G75*
G02*
X44600000Y62525000I-90000J0D01*
G01*
G37*
G04 #@! TD*
G04 #@! TO.C,R31*
G36*
G01*
X32200000Y58325000D02*
X32980000Y58325000D01*
G75*
G02*
X33050000Y58255000I0J-70000D01*
G01*
X33050000Y57695000D01*
G75*
G02*
X32980000Y57625000I-70000J0D01*
G01*
X32200000Y57625000D01*
G75*
G02*
X32130000Y57695000I0J70000D01*
G01*
X32130000Y58255000D01*
G75*
G02*
X32200000Y58325000I70000J0D01*
G01*
G37*
G36*
G01*
X32200000Y56725000D02*
X32980000Y56725000D01*
G75*
G02*
X33050000Y56655000I0J-70000D01*
G01*
X33050000Y56095000D01*
G75*
G02*
X32980000Y56025000I-70000J0D01*
G01*
X32200000Y56025000D01*
G75*
G02*
X32130000Y56095000I0J70000D01*
G01*
X32130000Y56655000D01*
G75*
G02*
X32200000Y56725000I70000J0D01*
G01*
G37*
G04 #@! TD*
G04 #@! TO.C,R41*
G36*
G01*
X41200000Y58325000D02*
X41980000Y58325000D01*
G75*
G02*
X42050000Y58255000I0J-70000D01*
G01*
X42050000Y57695000D01*
G75*
G02*
X41980000Y57625000I-70000J0D01*
G01*
X41200000Y57625000D01*
G75*
G02*
X41130000Y57695000I0J70000D01*
G01*
X41130000Y58255000D01*
G75*
G02*
X41200000Y58325000I70000J0D01*
G01*
G37*
G36*
G01*
X41200000Y56725000D02*
X41980000Y56725000D01*
G75*
G02*
X42050000Y56655000I0J-70000D01*
G01*
X42050000Y56095000D01*
G75*
G02*
X41980000Y56025000I-70000J0D01*
G01*
X41200000Y56025000D01*
G75*
G02*
X41130000Y56095000I0J70000D01*
G01*
X41130000Y56655000D01*
G75*
G02*
X41200000Y56725000I70000J0D01*
G01*
G37*
G04 #@! TD*
G04 #@! TO.C,R71*
G36*
G01*
X30700000Y58325000D02*
X31480000Y58325000D01*
G75*
G02*
X31550000Y58255000I0J-70000D01*
G01*
X31550000Y57695000D01*
G75*
G02*
X31480000Y57625000I-70000J0D01*
G01*
X30700000Y57625000D01*
G75*
G02*
X30630000Y57695000I0J70000D01*
G01*
X30630000Y58255000D01*
G75*
G02*
X30700000Y58325000I70000J0D01*
G01*
G37*
G36*
G01*
X30700000Y56725000D02*
X31480000Y56725000D01*
G75*
G02*
X31550000Y56655000I0J-70000D01*
G01*
X31550000Y56095000D01*
G75*
G02*
X31480000Y56025000I-70000J0D01*
G01*
X30700000Y56025000D01*
G75*
G02*
X30630000Y56095000I0J70000D01*
G01*
X30630000Y56655000D01*
G75*
G02*
X30700000Y56725000I70000J0D01*
G01*
G37*
G04 #@! TD*
G04 #@! TO.C,R43*
G36*
G01*
X68205000Y58325000D02*
X68985000Y58325000D01*
G75*
G02*
X69055000Y58255000I0J-70000D01*
G01*
X69055000Y57695000D01*
G75*
G02*
X68985000Y57625000I-70000J0D01*
G01*
X68205000Y57625000D01*
G75*
G02*
X68135000Y57695000I0J70000D01*
G01*
X68135000Y58255000D01*
G75*
G02*
X68205000Y58325000I70000J0D01*
G01*
G37*
G36*
G01*
X68205000Y56725000D02*
X68985000Y56725000D01*
G75*
G02*
X69055000Y56655000I0J-70000D01*
G01*
X69055000Y56095000D01*
G75*
G02*
X68985000Y56025000I-70000J0D01*
G01*
X68205000Y56025000D01*
G75*
G02*
X68135000Y56095000I0J70000D01*
G01*
X68135000Y56655000D01*
G75*
G02*
X68205000Y56725000I70000J0D01*
G01*
G37*
G04 #@! TD*
G04 #@! TO.C,R78*
G36*
G01*
X47205000Y58325000D02*
X47985000Y58325000D01*
G75*
G02*
X48055000Y58255000I0J-70000D01*
G01*
X48055000Y57695000D01*
G75*
G02*
X47985000Y57625000I-70000J0D01*
G01*
X47205000Y57625000D01*
G75*
G02*
X47135000Y57695000I0J70000D01*
G01*
X47135000Y58255000D01*
G75*
G02*
X47205000Y58325000I70000J0D01*
G01*
G37*
G36*
G01*
X47205000Y56725000D02*
X47985000Y56725000D01*
G75*
G02*
X48055000Y56655000I0J-70000D01*
G01*
X48055000Y56095000D01*
G75*
G02*
X47985000Y56025000I-70000J0D01*
G01*
X47205000Y56025000D01*
G75*
G02*
X47135000Y56095000I0J70000D01*
G01*
X47135000Y56655000D01*
G75*
G02*
X47205000Y56725000I70000J0D01*
G01*
G37*
G04 #@! TD*
G04 #@! TO.C,R5*
G36*
G01*
X62205000Y58325000D02*
X62985000Y58325000D01*
G75*
G02*
X63055000Y58255000I0J-70000D01*
G01*
X63055000Y57695000D01*
G75*
G02*
X62985000Y57625000I-70000J0D01*
G01*
X62205000Y57625000D01*
G75*
G02*
X62135000Y57695000I0J70000D01*
G01*
X62135000Y58255000D01*
G75*
G02*
X62205000Y58325000I70000J0D01*
G01*
G37*
G36*
G01*
X62205000Y56725000D02*
X62985000Y56725000D01*
G75*
G02*
X63055000Y56655000I0J-70000D01*
G01*
X63055000Y56095000D01*
G75*
G02*
X62985000Y56025000I-70000J0D01*
G01*
X62205000Y56025000D01*
G75*
G02*
X62135000Y56095000I0J70000D01*
G01*
X62135000Y56655000D01*
G75*
G02*
X62205000Y56725000I70000J0D01*
G01*
G37*
G04 #@! TD*
M02*
