G04 #@! TF.GenerationSoftware,KiCad,Pcbnew,8.0.3-8.0.3-0~ubuntu22.04.1*
G04 #@! TF.CreationDate,2024-06-29T16:23:50+00:00*
G04 #@! TF.ProjectId,hellen154hyundai,68656c6c-656e-4313-9534-6879756e6461,E*
G04 #@! TF.SameCoordinates,PX5f5e100PYc845880*
G04 #@! TF.FileFunction,Soldermask,Top*
G04 #@! TF.FilePolarity,Negative*
%FSLAX46Y46*%
G04 Gerber Fmt 4.6, Leading zero omitted, Abs format (unit mm)*
G04 Created by KiCad (PCBNEW 8.0.3-8.0.3-0~ubuntu22.04.1) date 2024-06-29 16:23:50*
%MOMM*%
%LPD*%
G01*
G04 APERTURE LIST*
%ADD10C,1.700000*%
%ADD11O,1.950000X1.700000*%
%ADD12C,1.524000*%
%ADD13C,4.600000*%
%ADD14C,3.700000*%
%ADD15C,3.000000*%
%ADD16C,2.000000*%
%ADD17R,1.700000X1.700000*%
%ADD18C,3.500000*%
%ADD19O,3.300000X2.700000*%
%ADD20O,1.700000X1.700000*%
%ADD21C,1.500000*%
%ADD22C,0.600000*%
%ADD23R,4.399991X2.299995*%
%ADD24R,3.999992X2.299995*%
%ADD25O,2.700000X3.300000*%
%ADD26O,0.499999X0.250000*%
%ADD27O,0.250000X0.499999*%
%ADD28C,0.599999*%
G04 APERTURE END LIST*
D10*
G04 #@! TO.C,P37*
X104500000Y128500000D03*
G04 #@! TD*
G04 #@! TO.C,J1*
G36*
G01*
X48575000Y22650000D02*
X50025000Y22650000D01*
G75*
G02*
X50275000Y22400000I0J-250000D01*
G01*
X50275000Y21200000D01*
G75*
G02*
X50025000Y20950000I-250000J0D01*
G01*
X48575000Y20950000D01*
G75*
G02*
X48325000Y21200000I0J250000D01*
G01*
X48325000Y22400000D01*
G75*
G02*
X48575000Y22650000I250000J0D01*
G01*
G37*
D11*
X49300000Y19300000D03*
X49300000Y16800000D03*
X49300000Y14300000D03*
X49300000Y11800000D03*
G04 #@! TD*
D10*
G04 #@! TO.C,P33*
X128500000Y119500000D03*
G04 #@! TD*
G04 #@! TO.C,P46*
X113500000Y124000000D03*
G04 #@! TD*
G04 #@! TO.C,D15*
G36*
G01*
X40435000Y106225000D02*
X41455000Y106225000D01*
G75*
G02*
X41545000Y106135000I0J-90000D01*
G01*
X41545000Y105415000D01*
G75*
G02*
X41455000Y105325000I-90000J0D01*
G01*
X40435000Y105325000D01*
G75*
G02*
X40345000Y105415000I0J90000D01*
G01*
X40345000Y106135000D01*
G75*
G02*
X40435000Y106225000I90000J0D01*
G01*
G37*
G36*
G01*
X40435000Y102925000D02*
X41455000Y102925000D01*
G75*
G02*
X41545000Y102835000I0J-90000D01*
G01*
X41545000Y102115000D01*
G75*
G02*
X41455000Y102025000I-90000J0D01*
G01*
X40435000Y102025000D01*
G75*
G02*
X40345000Y102115000I0J90000D01*
G01*
X40345000Y102835000D01*
G75*
G02*
X40435000Y102925000I90000J0D01*
G01*
G37*
G04 #@! TD*
D12*
G04 #@! TO.C,F1*
X84300000Y123500000D03*
G36*
G01*
X83400000Y122155010D02*
X83400000Y122845010D01*
G75*
G02*
X83630000Y123075010I230000J0D01*
G01*
X84970000Y123075010D01*
G75*
G02*
X85200000Y122845010I0J-230000D01*
G01*
X85200000Y122155010D01*
G75*
G02*
X84970000Y121925010I-230000J0D01*
G01*
X83630000Y121925010D01*
G75*
G02*
X83400000Y122155010I0J230000D01*
G01*
G37*
G36*
G01*
X83400000Y119254990D02*
X83400000Y119944990D01*
G75*
G02*
X83630000Y120174990I230000J0D01*
G01*
X84970000Y120174990D01*
G75*
G02*
X85200000Y119944990I0J-230000D01*
G01*
X85200000Y119254990D01*
G75*
G02*
X84970000Y119024990I-230000J0D01*
G01*
X83630000Y119024990D01*
G75*
G02*
X83400000Y119254990I0J230000D01*
G01*
G37*
X84300000Y118600000D03*
G04 #@! TD*
G04 #@! TO.C,U4*
G36*
G01*
X41740000Y56550000D02*
X41440000Y56550000D01*
G75*
G02*
X41290000Y56700000I0J150000D01*
G01*
X41290000Y58350000D01*
G75*
G02*
X41440000Y58500000I150000J0D01*
G01*
X41740000Y58500000D01*
G75*
G02*
X41890000Y58350000I0J-150000D01*
G01*
X41890000Y56700000D01*
G75*
G02*
X41740000Y56550000I-150000J0D01*
G01*
G37*
G36*
G01*
X43010000Y56550000D02*
X42710000Y56550000D01*
G75*
G02*
X42560000Y56700000I0J150000D01*
G01*
X42560000Y58350000D01*
G75*
G02*
X42710000Y58500000I150000J0D01*
G01*
X43010000Y58500000D01*
G75*
G02*
X43160000Y58350000I0J-150000D01*
G01*
X43160000Y56700000D01*
G75*
G02*
X43010000Y56550000I-150000J0D01*
G01*
G37*
G36*
G01*
X44280000Y56550000D02*
X43980000Y56550000D01*
G75*
G02*
X43830000Y56700000I0J150000D01*
G01*
X43830000Y58350000D01*
G75*
G02*
X43980000Y58500000I150000J0D01*
G01*
X44280000Y58500000D01*
G75*
G02*
X44430000Y58350000I0J-150000D01*
G01*
X44430000Y56700000D01*
G75*
G02*
X44280000Y56550000I-150000J0D01*
G01*
G37*
G36*
G01*
X45550000Y56550000D02*
X45250000Y56550000D01*
G75*
G02*
X45100000Y56700000I0J150000D01*
G01*
X45100000Y58350000D01*
G75*
G02*
X45250000Y58500000I150000J0D01*
G01*
X45550000Y58500000D01*
G75*
G02*
X45700000Y58350000I0J-150000D01*
G01*
X45700000Y56700000D01*
G75*
G02*
X45550000Y56550000I-150000J0D01*
G01*
G37*
G36*
G01*
X45550000Y61500000D02*
X45250000Y61500000D01*
G75*
G02*
X45100000Y61650000I0J150000D01*
G01*
X45100000Y63300000D01*
G75*
G02*
X45250000Y63450000I150000J0D01*
G01*
X45550000Y63450000D01*
G75*
G02*
X45700000Y63300000I0J-150000D01*
G01*
X45700000Y61650000D01*
G75*
G02*
X45550000Y61500000I-150000J0D01*
G01*
G37*
G36*
G01*
X44280000Y61500000D02*
X43980000Y61500000D01*
G75*
G02*
X43830000Y61650000I0J150000D01*
G01*
X43830000Y63300000D01*
G75*
G02*
X43980000Y63450000I150000J0D01*
G01*
X44280000Y63450000D01*
G75*
G02*
X44430000Y63300000I0J-150000D01*
G01*
X44430000Y61650000D01*
G75*
G02*
X44280000Y61500000I-150000J0D01*
G01*
G37*
G36*
G01*
X43010000Y61500000D02*
X42710000Y61500000D01*
G75*
G02*
X42560000Y61650000I0J150000D01*
G01*
X42560000Y63300000D01*
G75*
G02*
X42710000Y63450000I150000J0D01*
G01*
X43010000Y63450000D01*
G75*
G02*
X43160000Y63300000I0J-150000D01*
G01*
X43160000Y61650000D01*
G75*
G02*
X43010000Y61500000I-150000J0D01*
G01*
G37*
G36*
G01*
X41740000Y61500000D02*
X41440000Y61500000D01*
G75*
G02*
X41290000Y61650000I0J150000D01*
G01*
X41290000Y63300000D01*
G75*
G02*
X41440000Y63450000I150000J0D01*
G01*
X41740000Y63450000D01*
G75*
G02*
X41890000Y63300000I0J-150000D01*
G01*
X41890000Y61650000D01*
G75*
G02*
X41740000Y61500000I-150000J0D01*
G01*
G37*
G04 #@! TD*
D10*
G04 #@! TO.C,P85*
X68100000Y29600000D03*
G04 #@! TD*
G04 #@! TO.C,R14*
G36*
G01*
X95350000Y75810000D02*
X95350000Y76590000D01*
G75*
G02*
X95420000Y76660000I70000J0D01*
G01*
X95980000Y76660000D01*
G75*
G02*
X96050000Y76590000I0J-70000D01*
G01*
X96050000Y75810000D01*
G75*
G02*
X95980000Y75740000I-70000J0D01*
G01*
X95420000Y75740000D01*
G75*
G02*
X95350000Y75810000I0J70000D01*
G01*
G37*
G36*
G01*
X96950000Y75810000D02*
X96950000Y76590000D01*
G75*
G02*
X97020000Y76660000I70000J0D01*
G01*
X97580000Y76660000D01*
G75*
G02*
X97650000Y76590000I0J-70000D01*
G01*
X97650000Y75810000D01*
G75*
G02*
X97580000Y75740000I-70000J0D01*
G01*
X97020000Y75740000D01*
G75*
G02*
X96950000Y75810000I0J70000D01*
G01*
G37*
G04 #@! TD*
G04 #@! TO.C,P53*
X122500000Y128500000D03*
G04 #@! TD*
G04 #@! TO.C,G9*
X151406545Y24944788D03*
X151406545Y27484788D03*
X151406545Y30024788D03*
X151406545Y32564788D03*
X151406545Y35104788D03*
X153946545Y24944788D03*
X153946545Y27484788D03*
X153946545Y30024788D03*
X153946545Y32564788D03*
X153946545Y35104788D03*
G04 #@! TD*
G04 #@! TO.C,P14*
X79400000Y123505000D03*
G04 #@! TD*
G04 #@! TO.C,R95*
G36*
G01*
X44705000Y93175000D02*
X45485000Y93175000D01*
G75*
G02*
X45555000Y93105000I0J-70000D01*
G01*
X45555000Y92545000D01*
G75*
G02*
X45485000Y92475000I-70000J0D01*
G01*
X44705000Y92475000D01*
G75*
G02*
X44635000Y92545000I0J70000D01*
G01*
X44635000Y93105000D01*
G75*
G02*
X44705000Y93175000I70000J0D01*
G01*
G37*
G36*
G01*
X44705000Y91575000D02*
X45485000Y91575000D01*
G75*
G02*
X45555000Y91505000I0J-70000D01*
G01*
X45555000Y90945000D01*
G75*
G02*
X45485000Y90875000I-70000J0D01*
G01*
X44705000Y90875000D01*
G75*
G02*
X44635000Y90945000I0J70000D01*
G01*
X44635000Y91505000D01*
G75*
G02*
X44705000Y91575000I70000J0D01*
G01*
G37*
G04 #@! TD*
D13*
G04 #@! TO.C,P1*
X17162500Y130250000D03*
D14*
X36912500Y152100000D03*
D15*
X94112500Y131000000D03*
D14*
X126912500Y152100000D03*
D13*
X142162500Y147250000D03*
D10*
X137912500Y145500000D03*
X134412500Y145500000D03*
X130912500Y145500000D03*
X127412500Y145500000D03*
X123912500Y145500000D03*
X120912500Y145500000D03*
X118412500Y145500000D03*
X115912500Y145500000D03*
X113412500Y145500000D03*
X110912500Y145500000D03*
X108412500Y145500000D03*
X105912500Y145500000D03*
X103412500Y145500000D03*
X100912500Y145500000D03*
X97912500Y145500000D03*
X137912500Y143000000D03*
X134412500Y143000000D03*
X130912500Y143000000D03*
X127412500Y143000000D03*
X123912500Y143000000D03*
X120912500Y143000000D03*
X118412500Y143000000D03*
X115912500Y143000000D03*
X113412500Y143000000D03*
X110912500Y143000000D03*
X108412500Y143000000D03*
X105912500Y143000000D03*
X103412500Y143000000D03*
X100912500Y143000000D03*
X97912500Y143000000D03*
X137912500Y137000000D03*
X134412500Y137000000D03*
X130912500Y137000000D03*
X127412500Y137000000D03*
X123912500Y137000000D03*
X120912500Y137000000D03*
X118412500Y137000000D03*
X115912500Y137000000D03*
X113412500Y137000000D03*
X110912500Y137000000D03*
X108412500Y137000000D03*
X105912500Y137000000D03*
X103412500Y137000000D03*
X100912500Y137000000D03*
X97912500Y137000000D03*
X137912500Y134500000D03*
X134412500Y134500000D03*
X130912500Y134500000D03*
X127412500Y134500000D03*
X123912500Y134500000D03*
X120912500Y134500000D03*
X118412500Y134500000D03*
X115912500Y134500000D03*
X113412500Y134500000D03*
X110912500Y134500000D03*
X108412500Y134500000D03*
X105912500Y134500000D03*
X103412500Y134500000D03*
X100912500Y134500000D03*
X97912500Y134500000D03*
D16*
X84712500Y145500000D03*
X79512500Y145500000D03*
X84712500Y140000000D03*
X79512500Y140000000D03*
X84712500Y134500000D03*
X79512500Y134500000D03*
D10*
X72912500Y145500000D03*
X69912500Y145500000D03*
X67412500Y145500000D03*
X64912500Y145500000D03*
X62412500Y145500000D03*
X59912500Y145500000D03*
X57412500Y145500000D03*
X54912500Y145500000D03*
X52412500Y145500000D03*
X49912500Y145500000D03*
X47412500Y145500000D03*
X44912500Y145500000D03*
X42412500Y145500000D03*
X39912500Y145500000D03*
X37412500Y145500000D03*
X34912500Y145500000D03*
X32412500Y145500000D03*
X29912500Y145500000D03*
X27412500Y145500000D03*
X24912500Y145500000D03*
X22412500Y145500000D03*
X19912500Y145500000D03*
X72912500Y143000000D03*
X69912500Y143000000D03*
X67412500Y143000000D03*
X64912500Y143000000D03*
X62412500Y143000000D03*
X59912500Y143000000D03*
X57412500Y143000000D03*
X54912500Y143000000D03*
X52412500Y143000000D03*
X49912500Y143000000D03*
X47412500Y143000000D03*
X44912500Y143000000D03*
X42412500Y143000000D03*
X39912500Y143000000D03*
X37412500Y143000000D03*
X34912500Y143000000D03*
X32412500Y143000000D03*
X29912500Y143000000D03*
X27412500Y143000000D03*
X24912500Y143000000D03*
X22412500Y143000000D03*
X19912500Y143000000D03*
X72912500Y137000000D03*
X69912500Y137000000D03*
X67412500Y137000000D03*
X64912500Y137000000D03*
X62412500Y137000000D03*
X59912500Y137000000D03*
X57412500Y137000000D03*
X54912500Y137000000D03*
X52412500Y137000000D03*
X49912500Y137000000D03*
X47412500Y137000000D03*
X44912500Y137000000D03*
X42412500Y137000000D03*
X39912500Y137000000D03*
X37412500Y137000000D03*
X34912500Y137000000D03*
X32412500Y137000000D03*
X29912500Y137000000D03*
X27412500Y137000000D03*
X24912500Y137000000D03*
X22412500Y137000000D03*
X19912500Y137000000D03*
X72912500Y134500000D03*
X69912500Y134500000D03*
X67412500Y134500000D03*
X64912500Y134500000D03*
X62412500Y134500000D03*
X59912500Y134500000D03*
X57412500Y134500000D03*
X54912500Y134500000D03*
X52412500Y134500000D03*
X49912500Y134500000D03*
X47412500Y134500000D03*
X44912500Y134500000D03*
X42412500Y134500000D03*
X39912500Y134500000D03*
X37412500Y134500000D03*
X34912500Y134500000D03*
X32412500Y134500000D03*
X29912500Y134500000D03*
X27412500Y134500000D03*
X24912500Y134500000D03*
X22412500Y134500000D03*
X19912500Y134500000D03*
G04 #@! TD*
D12*
G04 #@! TO.C,R17*
X41500000Y111295000D03*
G36*
G01*
X42125000Y111749999D02*
X40875000Y111749999D01*
G75*
G02*
X40775000Y111849999I0J100000D01*
G01*
X40775000Y112649999D01*
G75*
G02*
X40875000Y112749999I100000J0D01*
G01*
X42125000Y112749999D01*
G75*
G02*
X42225000Y112649999I0J-100000D01*
G01*
X42225000Y111849999D01*
G75*
G02*
X42125000Y111749999I-100000J0D01*
G01*
G37*
G36*
G01*
X42125000Y113650021D02*
X40875000Y113650021D01*
G75*
G02*
X40775000Y113750021I0J100000D01*
G01*
X40775000Y114550021D01*
G75*
G02*
X40875000Y114650021I100000J0D01*
G01*
X42125000Y114650021D01*
G75*
G02*
X42225000Y114550021I0J-100000D01*
G01*
X42225000Y113750021D01*
G75*
G02*
X42125000Y113650021I-100000J0D01*
G01*
G37*
X41500000Y115105000D03*
G04 #@! TD*
D10*
G04 #@! TO.C,P45*
X116500000Y128500000D03*
G04 #@! TD*
D12*
G04 #@! TO.C,R30*
X35500000Y111295000D03*
G36*
G01*
X36125000Y111749999D02*
X34875000Y111749999D01*
G75*
G02*
X34775000Y111849999I0J100000D01*
G01*
X34775000Y112649999D01*
G75*
G02*
X34875000Y112749999I100000J0D01*
G01*
X36125000Y112749999D01*
G75*
G02*
X36225000Y112649999I0J-100000D01*
G01*
X36225000Y111849999D01*
G75*
G02*
X36125000Y111749999I-100000J0D01*
G01*
G37*
G36*
G01*
X36125000Y113650021D02*
X34875000Y113650021D01*
G75*
G02*
X34775000Y113750021I0J100000D01*
G01*
X34775000Y114550021D01*
G75*
G02*
X34875000Y114650021I100000J0D01*
G01*
X36125000Y114650021D01*
G75*
G02*
X36225000Y114550021I0J-100000D01*
G01*
X36225000Y113750021D01*
G75*
G02*
X36125000Y113650021I-100000J0D01*
G01*
G37*
X35500000Y115105000D03*
G04 #@! TD*
D10*
G04 #@! TO.C,P31*
X104600000Y119500000D03*
G04 #@! TD*
G04 #@! TO.C,P87*
X60350003Y13325003D03*
G04 #@! TD*
G04 #@! TO.C,P25*
X116500000Y124000000D03*
G04 #@! TD*
G04 #@! TO.C,P3*
X82000000Y116200000D03*
G04 #@! TD*
G04 #@! TO.C,D16*
G36*
G01*
X45050000Y79200000D02*
X45950000Y79200000D01*
G75*
G02*
X46050000Y79100000I0J-100000D01*
G01*
X46050000Y78300000D01*
G75*
G02*
X45950000Y78200000I-100000J0D01*
G01*
X45050000Y78200000D01*
G75*
G02*
X44950000Y78300000I0J100000D01*
G01*
X44950000Y79100000D01*
G75*
G02*
X45050000Y79200000I100000J0D01*
G01*
G37*
G36*
G01*
X45050000Y77500000D02*
X45950000Y77500000D01*
G75*
G02*
X46050000Y77400000I0J-100000D01*
G01*
X46050000Y76600000D01*
G75*
G02*
X45950000Y76500000I-100000J0D01*
G01*
X45050000Y76500000D01*
G75*
G02*
X44950000Y76600000I0J100000D01*
G01*
X44950000Y77400000D01*
G75*
G02*
X45050000Y77500000I100000J0D01*
G01*
G37*
G04 #@! TD*
D12*
G04 #@! TO.C,R52*
X46500000Y119695000D03*
G36*
G01*
X47125000Y120149999D02*
X45875000Y120149999D01*
G75*
G02*
X45775000Y120249999I0J100000D01*
G01*
X45775000Y121049999D01*
G75*
G02*
X45875000Y121149999I100000J0D01*
G01*
X47125000Y121149999D01*
G75*
G02*
X47225000Y121049999I0J-100000D01*
G01*
X47225000Y120249999D01*
G75*
G02*
X47125000Y120149999I-100000J0D01*
G01*
G37*
G36*
G01*
X47125000Y122050021D02*
X45875000Y122050021D01*
G75*
G02*
X45775000Y122150021I0J100000D01*
G01*
X45775000Y122950021D01*
G75*
G02*
X45875000Y123050021I100000J0D01*
G01*
X47125000Y123050021D01*
G75*
G02*
X47225000Y122950021I0J-100000D01*
G01*
X47225000Y122150021D01*
G75*
G02*
X47125000Y122050021I-100000J0D01*
G01*
G37*
X46500000Y123505000D03*
G04 #@! TD*
G04 #@! TO.C,D27*
G36*
G01*
X57112499Y72560002D02*
X57112499Y73040002D01*
G75*
G02*
X57172499Y73100002I60000J0D01*
G01*
X57652499Y73100002D01*
G75*
G02*
X57712499Y73040002I0J-60000D01*
G01*
X57712499Y72560002D01*
G75*
G02*
X57652499Y72500002I-60000J0D01*
G01*
X57172499Y72500002D01*
G75*
G02*
X57112499Y72560002I0J60000D01*
G01*
G37*
G36*
G01*
X57112499Y74760002D02*
X57112499Y75240002D01*
G75*
G02*
X57172499Y75300002I60000J0D01*
G01*
X57652499Y75300002D01*
G75*
G02*
X57712499Y75240002I0J-60000D01*
G01*
X57712499Y74760002D01*
G75*
G02*
X57652499Y74700002I-60000J0D01*
G01*
X57172499Y74700002D01*
G75*
G02*
X57112499Y74760002I0J60000D01*
G01*
G37*
G04 #@! TD*
D10*
G04 #@! TO.C,P42*
X125500000Y124000000D03*
G04 #@! TD*
G04 #@! TO.C,R25*
G36*
G01*
X92350000Y70810000D02*
X92350000Y71590000D01*
G75*
G02*
X92420000Y71660000I70000J0D01*
G01*
X92980000Y71660000D01*
G75*
G02*
X93050000Y71590000I0J-70000D01*
G01*
X93050000Y70810000D01*
G75*
G02*
X92980000Y70740000I-70000J0D01*
G01*
X92420000Y70740000D01*
G75*
G02*
X92350000Y70810000I0J70000D01*
G01*
G37*
G36*
G01*
X93950000Y70810000D02*
X93950000Y71590000D01*
G75*
G02*
X94020000Y71660000I70000J0D01*
G01*
X94580000Y71660000D01*
G75*
G02*
X94650000Y71590000I0J-70000D01*
G01*
X94650000Y70810000D01*
G75*
G02*
X94580000Y70740000I-70000J0D01*
G01*
X94020000Y70740000D01*
G75*
G02*
X93950000Y70810000I0J70000D01*
G01*
G37*
G04 #@! TD*
G04 #@! TO.C,D26*
G36*
G01*
X55187263Y72560001D02*
X55187263Y73040001D01*
G75*
G02*
X55247263Y73100001I60000J0D01*
G01*
X55727263Y73100001D01*
G75*
G02*
X55787263Y73040001I0J-60000D01*
G01*
X55787263Y72560001D01*
G75*
G02*
X55727263Y72500001I-60000J0D01*
G01*
X55247263Y72500001D01*
G75*
G02*
X55187263Y72560001I0J60000D01*
G01*
G37*
G36*
G01*
X55187263Y74760001D02*
X55187263Y75240001D01*
G75*
G02*
X55247263Y75300001I60000J0D01*
G01*
X55727263Y75300001D01*
G75*
G02*
X55787263Y75240001I0J-60000D01*
G01*
X55787263Y74760001D01*
G75*
G02*
X55727263Y74700001I-60000J0D01*
G01*
X55247263Y74700001D01*
G75*
G02*
X55187263Y74760001I0J60000D01*
G01*
G37*
G04 #@! TD*
G04 #@! TO.C,R76*
G36*
G01*
X40074998Y68665001D02*
X40074998Y69335001D01*
G75*
G02*
X40139998Y69400001I65000J0D01*
G01*
X40659998Y69400001D01*
G75*
G02*
X40724998Y69335001I0J-65000D01*
G01*
X40724998Y68665001D01*
G75*
G02*
X40659998Y68600001I-65000J0D01*
G01*
X40139998Y68600001D01*
G75*
G02*
X40074998Y68665001I0J65000D01*
G01*
G37*
G36*
G01*
X41049998Y68645001D02*
X41049998Y69355001D01*
G75*
G02*
X41094998Y69400001I45000J0D01*
G01*
X41454998Y69400001D01*
G75*
G02*
X41499998Y69355001I0J-45000D01*
G01*
X41499998Y68645001D01*
G75*
G02*
X41454998Y68600001I-45000J0D01*
G01*
X41094998Y68600001D01*
G75*
G02*
X41049998Y68645001I0J45000D01*
G01*
G37*
G36*
G01*
X41849998Y68645001D02*
X41849998Y69355001D01*
G75*
G02*
X41894998Y69400001I45000J0D01*
G01*
X42254998Y69400001D01*
G75*
G02*
X42299998Y69355001I0J-45000D01*
G01*
X42299998Y68645001D01*
G75*
G02*
X42254998Y68600001I-45000J0D01*
G01*
X41894998Y68600001D01*
G75*
G02*
X41849998Y68645001I0J45000D01*
G01*
G37*
G36*
G01*
X42624998Y68665001D02*
X42624998Y69335001D01*
G75*
G02*
X42689998Y69400001I65000J0D01*
G01*
X43209998Y69400001D01*
G75*
G02*
X43274998Y69335001I0J-65000D01*
G01*
X43274998Y68665001D01*
G75*
G02*
X43209998Y68600001I-65000J0D01*
G01*
X42689998Y68600001D01*
G75*
G02*
X42624998Y68665001I0J65000D01*
G01*
G37*
G36*
G01*
X42624998Y70465001D02*
X42624998Y71135001D01*
G75*
G02*
X42689998Y71200001I65000J0D01*
G01*
X43209998Y71200001D01*
G75*
G02*
X43274998Y71135001I0J-65000D01*
G01*
X43274998Y70465001D01*
G75*
G02*
X43209998Y70400001I-65000J0D01*
G01*
X42689998Y70400001D01*
G75*
G02*
X42624998Y70465001I0J65000D01*
G01*
G37*
G36*
G01*
X41849998Y70445001D02*
X41849998Y71155001D01*
G75*
G02*
X41894998Y71200001I45000J0D01*
G01*
X42254998Y71200001D01*
G75*
G02*
X42299998Y71155001I0J-45000D01*
G01*
X42299998Y70445001D01*
G75*
G02*
X42254998Y70400001I-45000J0D01*
G01*
X41894998Y70400001D01*
G75*
G02*
X41849998Y70445001I0J45000D01*
G01*
G37*
G36*
G01*
X41049998Y70445001D02*
X41049998Y71155001D01*
G75*
G02*
X41094998Y71200001I45000J0D01*
G01*
X41454998Y71200001D01*
G75*
G02*
X41499998Y71155001I0J-45000D01*
G01*
X41499998Y70445001D01*
G75*
G02*
X41454998Y70400001I-45000J0D01*
G01*
X41094998Y70400001D01*
G75*
G02*
X41049998Y70445001I0J45000D01*
G01*
G37*
G36*
G01*
X40074998Y70465001D02*
X40074998Y71135001D01*
G75*
G02*
X40139998Y71200001I65000J0D01*
G01*
X40659998Y71200001D01*
G75*
G02*
X40724998Y71135001I0J-65000D01*
G01*
X40724998Y70465001D01*
G75*
G02*
X40659998Y70400001I-65000J0D01*
G01*
X40139998Y70400001D01*
G75*
G02*
X40074998Y70465001I0J65000D01*
G01*
G37*
G04 #@! TD*
D12*
G04 #@! TO.C,R28*
X54000000Y112795000D03*
G36*
G01*
X54625000Y113249999D02*
X53375000Y113249999D01*
G75*
G02*
X53275000Y113349999I0J100000D01*
G01*
X53275000Y114149999D01*
G75*
G02*
X53375000Y114249999I100000J0D01*
G01*
X54625000Y114249999D01*
G75*
G02*
X54725000Y114149999I0J-100000D01*
G01*
X54725000Y113349999D01*
G75*
G02*
X54625000Y113249999I-100000J0D01*
G01*
G37*
G36*
G01*
X54625000Y115150021D02*
X53375000Y115150021D01*
G75*
G02*
X53275000Y115250021I0J100000D01*
G01*
X53275000Y116050021D01*
G75*
G02*
X53375000Y116150021I100000J0D01*
G01*
X54625000Y116150021D01*
G75*
G02*
X54725000Y116050021I0J-100000D01*
G01*
X54725000Y115250021D01*
G75*
G02*
X54625000Y115150021I-100000J0D01*
G01*
G37*
X54000000Y116605000D03*
G04 #@! TD*
D10*
G04 #@! TO.C,P24*
X119500000Y119500000D03*
G04 #@! TD*
D17*
G04 #@! TO.C,J40*
X37337501Y20584160D03*
D10*
X34837501Y20584160D03*
X34837501Y18584160D03*
X37337501Y18584160D03*
D18*
X42107501Y15874160D03*
X30067501Y15874160D03*
G04 #@! TD*
G04 #@! TO.C,R83*
G36*
G01*
X40205000Y93175000D02*
X40985000Y93175000D01*
G75*
G02*
X41055000Y93105000I0J-70000D01*
G01*
X41055000Y92545000D01*
G75*
G02*
X40985000Y92475000I-70000J0D01*
G01*
X40205000Y92475000D01*
G75*
G02*
X40135000Y92545000I0J70000D01*
G01*
X40135000Y93105000D01*
G75*
G02*
X40205000Y93175000I70000J0D01*
G01*
G37*
G36*
G01*
X40205000Y91575000D02*
X40985000Y91575000D01*
G75*
G02*
X41055000Y91505000I0J-70000D01*
G01*
X41055000Y90945000D01*
G75*
G02*
X40985000Y90875000I-70000J0D01*
G01*
X40205000Y90875000D01*
G75*
G02*
X40135000Y90945000I0J70000D01*
G01*
X40135000Y91505000D01*
G75*
G02*
X40205000Y91575000I70000J0D01*
G01*
G37*
G04 #@! TD*
G04 #@! TO.C,R18*
G36*
G01*
X95350000Y70810000D02*
X95350000Y71590000D01*
G75*
G02*
X95420000Y71660000I70000J0D01*
G01*
X95980000Y71660000D01*
G75*
G02*
X96050000Y71590000I0J-70000D01*
G01*
X96050000Y70810000D01*
G75*
G02*
X95980000Y70740000I-70000J0D01*
G01*
X95420000Y70740000D01*
G75*
G02*
X95350000Y70810000I0J70000D01*
G01*
G37*
G36*
G01*
X96950000Y70810000D02*
X96950000Y71590000D01*
G75*
G02*
X97020000Y71660000I70000J0D01*
G01*
X97580000Y71660000D01*
G75*
G02*
X97650000Y71590000I0J-70000D01*
G01*
X97650000Y70810000D01*
G75*
G02*
X97580000Y70740000I-70000J0D01*
G01*
X97020000Y70740000D01*
G75*
G02*
X96950000Y70810000I0J70000D01*
G01*
G37*
G04 #@! TD*
D10*
G04 #@! TO.C,P86*
X57450003Y13325003D03*
G04 #@! TD*
G04 #@! TO.C,D6*
G36*
G01*
X31068986Y79200000D02*
X31968986Y79200000D01*
G75*
G02*
X32068986Y79100000I0J-100000D01*
G01*
X32068986Y78300000D01*
G75*
G02*
X31968986Y78200000I-100000J0D01*
G01*
X31068986Y78200000D01*
G75*
G02*
X30968986Y78300000I0J100000D01*
G01*
X30968986Y79100000D01*
G75*
G02*
X31068986Y79200000I100000J0D01*
G01*
G37*
G36*
G01*
X31068986Y77500000D02*
X31968986Y77500000D01*
G75*
G02*
X32068986Y77400000I0J-100000D01*
G01*
X32068986Y76600000D01*
G75*
G02*
X31968986Y76500000I-100000J0D01*
G01*
X31068986Y76500000D01*
G75*
G02*
X30968986Y76600000I0J100000D01*
G01*
X30968986Y77400000D01*
G75*
G02*
X31068986Y77500000I100000J0D01*
G01*
G37*
G04 #@! TD*
G04 #@! TO.C,G7*
X141206545Y24944788D03*
X141206545Y27484788D03*
X141206545Y30024788D03*
X141206545Y32564788D03*
X141206545Y35104788D03*
X143746545Y24944788D03*
X143746545Y27484788D03*
X143746545Y30024788D03*
X143746545Y32564788D03*
X143746545Y35104788D03*
G04 #@! TD*
G04 #@! TO.C,P10*
X27600000Y119100000D03*
G04 #@! TD*
G04 #@! TO.C,P29*
X110500000Y124000000D03*
G04 #@! TD*
G04 #@! TO.C,P41*
X128500000Y124000000D03*
G04 #@! TD*
G04 #@! TO.C,P51*
X128500000Y128500000D03*
G04 #@! TD*
D12*
G04 #@! TO.C,R32*
X76900000Y119695000D03*
G36*
G01*
X77525000Y120149999D02*
X76275000Y120149999D01*
G75*
G02*
X76175000Y120249999I0J100000D01*
G01*
X76175000Y121049999D01*
G75*
G02*
X76275000Y121149999I100000J0D01*
G01*
X77525000Y121149999D01*
G75*
G02*
X77625000Y121049999I0J-100000D01*
G01*
X77625000Y120249999D01*
G75*
G02*
X77525000Y120149999I-100000J0D01*
G01*
G37*
G36*
G01*
X77525000Y122050021D02*
X76275000Y122050021D01*
G75*
G02*
X76175000Y122150021I0J100000D01*
G01*
X76175000Y122950021D01*
G75*
G02*
X76275000Y123050021I100000J0D01*
G01*
X77525000Y123050021D01*
G75*
G02*
X77625000Y122950021I0J-100000D01*
G01*
X77625000Y122150021D01*
G75*
G02*
X77525000Y122050021I-100000J0D01*
G01*
G37*
X76900000Y123505000D03*
G04 #@! TD*
D10*
G04 #@! TO.C,P44*
X119500000Y128500000D03*
G04 #@! TD*
D12*
G04 #@! TO.C,R58*
X101500000Y124595000D03*
G36*
G01*
X102125000Y125049999D02*
X100875000Y125049999D01*
G75*
G02*
X100775000Y125149999I0J100000D01*
G01*
X100775000Y125949999D01*
G75*
G02*
X100875000Y126049999I100000J0D01*
G01*
X102125000Y126049999D01*
G75*
G02*
X102225000Y125949999I0J-100000D01*
G01*
X102225000Y125149999D01*
G75*
G02*
X102125000Y125049999I-100000J0D01*
G01*
G37*
G36*
G01*
X102125000Y126950021D02*
X100875000Y126950021D01*
G75*
G02*
X100775000Y127050021I0J100000D01*
G01*
X100775000Y127850021D01*
G75*
G02*
X100875000Y127950021I100000J0D01*
G01*
X102125000Y127950021D01*
G75*
G02*
X102225000Y127850021I0J-100000D01*
G01*
X102225000Y127050021D01*
G75*
G02*
X102125000Y126950021I-100000J0D01*
G01*
G37*
X101500000Y128405000D03*
G04 #@! TD*
G04 #@! TO.C,R11*
G36*
G01*
X95350000Y78310000D02*
X95350000Y79090000D01*
G75*
G02*
X95420000Y79160000I70000J0D01*
G01*
X95980000Y79160000D01*
G75*
G02*
X96050000Y79090000I0J-70000D01*
G01*
X96050000Y78310000D01*
G75*
G02*
X95980000Y78240000I-70000J0D01*
G01*
X95420000Y78240000D01*
G75*
G02*
X95350000Y78310000I0J70000D01*
G01*
G37*
G36*
G01*
X96950000Y78310000D02*
X96950000Y79090000D01*
G75*
G02*
X97020000Y79160000I70000J0D01*
G01*
X97580000Y79160000D01*
G75*
G02*
X97650000Y79090000I0J-70000D01*
G01*
X97650000Y78310000D01*
G75*
G02*
X97580000Y78240000I-70000J0D01*
G01*
X97020000Y78240000D01*
G75*
G02*
X96950000Y78310000I0J70000D01*
G01*
G37*
G04 #@! TD*
D10*
G04 #@! TO.C,P13*
X35500000Y119000000D03*
G04 #@! TD*
G04 #@! TO.C,G5*
X146306545Y37644788D03*
X146306545Y40184788D03*
X146306545Y42724788D03*
X146306545Y45264788D03*
X146306545Y47804788D03*
X148846545Y37644788D03*
X148846545Y40184788D03*
X148846545Y42724788D03*
X148846545Y45264788D03*
X148846545Y47804788D03*
G04 #@! TD*
G04 #@! TO.C,P23*
X125500000Y119500000D03*
G04 #@! TD*
G04 #@! TO.C,R10*
G36*
G01*
X95350000Y80810000D02*
X95350000Y81590000D01*
G75*
G02*
X95420000Y81660000I70000J0D01*
G01*
X95980000Y81660000D01*
G75*
G02*
X96050000Y81590000I0J-70000D01*
G01*
X96050000Y80810000D01*
G75*
G02*
X95980000Y80740000I-70000J0D01*
G01*
X95420000Y80740000D01*
G75*
G02*
X95350000Y80810000I0J70000D01*
G01*
G37*
G36*
G01*
X96950000Y80810000D02*
X96950000Y81590000D01*
G75*
G02*
X97020000Y81660000I70000J0D01*
G01*
X97580000Y81660000D01*
G75*
G02*
X97650000Y81590000I0J-70000D01*
G01*
X97650000Y80810000D01*
G75*
G02*
X97580000Y80740000I-70000J0D01*
G01*
X97020000Y80740000D01*
G75*
G02*
X96950000Y80810000I0J70000D01*
G01*
G37*
G04 #@! TD*
D12*
G04 #@! TO.C,R39*
X49000000Y112795000D03*
G36*
G01*
X49625000Y113249999D02*
X48375000Y113249999D01*
G75*
G02*
X48275000Y113349999I0J100000D01*
G01*
X48275000Y114149999D01*
G75*
G02*
X48375000Y114249999I100000J0D01*
G01*
X49625000Y114249999D01*
G75*
G02*
X49725000Y114149999I0J-100000D01*
G01*
X49725000Y113349999D01*
G75*
G02*
X49625000Y113249999I-100000J0D01*
G01*
G37*
G36*
G01*
X49625000Y115150021D02*
X48375000Y115150021D01*
G75*
G02*
X48275000Y115250021I0J100000D01*
G01*
X48275000Y116050021D01*
G75*
G02*
X48375000Y116150021I100000J0D01*
G01*
X49625000Y116150021D01*
G75*
G02*
X49725000Y116050021I0J-100000D01*
G01*
X49725000Y115250021D01*
G75*
G02*
X49625000Y115150021I-100000J0D01*
G01*
G37*
X49000000Y116605000D03*
G04 #@! TD*
G04 #@! TO.C,R4*
X86500000Y119690000D03*
G36*
G01*
X87125000Y120144999D02*
X85875000Y120144999D01*
G75*
G02*
X85775000Y120244999I0J100000D01*
G01*
X85775000Y121044999D01*
G75*
G02*
X85875000Y121144999I100000J0D01*
G01*
X87125000Y121144999D01*
G75*
G02*
X87225000Y121044999I0J-100000D01*
G01*
X87225000Y120244999D01*
G75*
G02*
X87125000Y120144999I-100000J0D01*
G01*
G37*
G36*
G01*
X87125000Y122045021D02*
X85875000Y122045021D01*
G75*
G02*
X85775000Y122145021I0J100000D01*
G01*
X85775000Y122945021D01*
G75*
G02*
X85875000Y123045021I100000J0D01*
G01*
X87125000Y123045021D01*
G75*
G02*
X87225000Y122945021I0J-100000D01*
G01*
X87225000Y122145021D01*
G75*
G02*
X87125000Y122045021I-100000J0D01*
G01*
G37*
X86500000Y123500000D03*
G04 #@! TD*
G04 #@! TO.C,R12*
X38500000Y111295000D03*
G36*
G01*
X39125000Y111749999D02*
X37875000Y111749999D01*
G75*
G02*
X37775000Y111849999I0J100000D01*
G01*
X37775000Y112649999D01*
G75*
G02*
X37875000Y112749999I100000J0D01*
G01*
X39125000Y112749999D01*
G75*
G02*
X39225000Y112649999I0J-100000D01*
G01*
X39225000Y111849999D01*
G75*
G02*
X39125000Y111749999I-100000J0D01*
G01*
G37*
G36*
G01*
X39125000Y113650021D02*
X37875000Y113650021D01*
G75*
G02*
X37775000Y113750021I0J100000D01*
G01*
X37775000Y114550021D01*
G75*
G02*
X37875000Y114650021I100000J0D01*
G01*
X39125000Y114650021D01*
G75*
G02*
X39225000Y114550021I0J-100000D01*
G01*
X39225000Y113750021D01*
G75*
G02*
X39125000Y113650021I-100000J0D01*
G01*
G37*
X38500000Y115105000D03*
G04 #@! TD*
D10*
G04 #@! TO.C,P18*
X41500000Y123500000D03*
G04 #@! TD*
G04 #@! TO.C,J4*
G36*
G01*
X58699999Y26250000D02*
X55900001Y26250000D01*
G75*
G02*
X55650000Y26500001I0J250001D01*
G01*
X55650000Y28699999D01*
G75*
G02*
X55900001Y28950000I250001J0D01*
G01*
X58699999Y28950000D01*
G75*
G02*
X58950000Y28699999I0J-250001D01*
G01*
X58950000Y26500001D01*
G75*
G02*
X58699999Y26250000I-250001J0D01*
G01*
G37*
D19*
X57300000Y31800000D03*
X57300000Y36000000D03*
X62800000Y27600000D03*
X62800000Y31800000D03*
X62800000Y36000000D03*
G04 #@! TD*
G04 #@! TO.C,R19*
G36*
G01*
X92322472Y83336268D02*
X92322472Y84116268D01*
G75*
G02*
X92392472Y84186268I70000J0D01*
G01*
X92952472Y84186268D01*
G75*
G02*
X93022472Y84116268I0J-70000D01*
G01*
X93022472Y83336268D01*
G75*
G02*
X92952472Y83266268I-70000J0D01*
G01*
X92392472Y83266268D01*
G75*
G02*
X92322472Y83336268I0J70000D01*
G01*
G37*
G36*
G01*
X93922472Y83336268D02*
X93922472Y84116268D01*
G75*
G02*
X93992472Y84186268I70000J0D01*
G01*
X94552472Y84186268D01*
G75*
G02*
X94622472Y84116268I0J-70000D01*
G01*
X94622472Y83336268D01*
G75*
G02*
X94552472Y83266268I-70000J0D01*
G01*
X93992472Y83266268D01*
G75*
G02*
X93922472Y83336268I0J70000D01*
G01*
G37*
G04 #@! TD*
D10*
G04 #@! TO.C,P27*
X113500000Y119500000D03*
G04 #@! TD*
G04 #@! TO.C,P50*
X131500000Y128500000D03*
G04 #@! TD*
G04 #@! TO.C,R20*
G36*
G01*
X92350000Y80810000D02*
X92350000Y81590000D01*
G75*
G02*
X92420000Y81660000I70000J0D01*
G01*
X92980000Y81660000D01*
G75*
G02*
X93050000Y81590000I0J-70000D01*
G01*
X93050000Y80810000D01*
G75*
G02*
X92980000Y80740000I-70000J0D01*
G01*
X92420000Y80740000D01*
G75*
G02*
X92350000Y80810000I0J70000D01*
G01*
G37*
G36*
G01*
X93950000Y80810000D02*
X93950000Y81590000D01*
G75*
G02*
X94020000Y81660000I70000J0D01*
G01*
X94580000Y81660000D01*
G75*
G02*
X94650000Y81590000I0J-70000D01*
G01*
X94650000Y80810000D01*
G75*
G02*
X94580000Y80740000I-70000J0D01*
G01*
X94020000Y80740000D01*
G75*
G02*
X93950000Y80810000I0J70000D01*
G01*
G37*
G04 #@! TD*
G04 #@! TO.C,R15*
G36*
G01*
X95350000Y73310000D02*
X95350000Y74090000D01*
G75*
G02*
X95420000Y74160000I70000J0D01*
G01*
X95980000Y74160000D01*
G75*
G02*
X96050000Y74090000I0J-70000D01*
G01*
X96050000Y73310000D01*
G75*
G02*
X95980000Y73240000I-70000J0D01*
G01*
X95420000Y73240000D01*
G75*
G02*
X95350000Y73310000I0J70000D01*
G01*
G37*
G36*
G01*
X96950000Y73310000D02*
X96950000Y74090000D01*
G75*
G02*
X97020000Y74160000I70000J0D01*
G01*
X97580000Y74160000D01*
G75*
G02*
X97650000Y74090000I0J-70000D01*
G01*
X97650000Y73310000D01*
G75*
G02*
X97580000Y73240000I-70000J0D01*
G01*
X97020000Y73240000D01*
G75*
G02*
X96950000Y73310000I0J70000D01*
G01*
G37*
G04 #@! TD*
G04 #@! TO.C,D19*
G36*
G01*
X49050000Y79200000D02*
X49950000Y79200000D01*
G75*
G02*
X50050000Y79100000I0J-100000D01*
G01*
X50050000Y78300000D01*
G75*
G02*
X49950000Y78200000I-100000J0D01*
G01*
X49050000Y78200000D01*
G75*
G02*
X48950000Y78300000I0J100000D01*
G01*
X48950000Y79100000D01*
G75*
G02*
X49050000Y79200000I100000J0D01*
G01*
G37*
G36*
G01*
X49050000Y77500000D02*
X49950000Y77500000D01*
G75*
G02*
X50050000Y77400000I0J-100000D01*
G01*
X50050000Y76600000D01*
G75*
G02*
X49950000Y76500000I-100000J0D01*
G01*
X49050000Y76500000D01*
G75*
G02*
X48950000Y76600000I0J100000D01*
G01*
X48950000Y77400000D01*
G75*
G02*
X49050000Y77500000I100000J0D01*
G01*
G37*
G04 #@! TD*
G04 #@! TO.C,D28*
G36*
G01*
X53050000Y79200000D02*
X53950000Y79200000D01*
G75*
G02*
X54050000Y79100000I0J-100000D01*
G01*
X54050000Y78300000D01*
G75*
G02*
X53950000Y78200000I-100000J0D01*
G01*
X53050000Y78200000D01*
G75*
G02*
X52950000Y78300000I0J100000D01*
G01*
X52950000Y79100000D01*
G75*
G02*
X53050000Y79200000I100000J0D01*
G01*
G37*
G36*
G01*
X53050000Y77500000D02*
X53950000Y77500000D01*
G75*
G02*
X54050000Y77400000I0J-100000D01*
G01*
X54050000Y76600000D01*
G75*
G02*
X53950000Y76500000I-100000J0D01*
G01*
X53050000Y76500000D01*
G75*
G02*
X52950000Y76600000I0J100000D01*
G01*
X52950000Y77400000D01*
G75*
G02*
X53050000Y77500000I100000J0D01*
G01*
G37*
G04 #@! TD*
G04 #@! TO.C,G10*
X141206545Y37644788D03*
X141206545Y40184788D03*
X141206545Y42724788D03*
X141206545Y45264788D03*
X141206545Y47804788D03*
X143746545Y37644788D03*
X143746545Y40184788D03*
X143746545Y42724788D03*
X143746545Y45264788D03*
X143746545Y47804788D03*
G04 #@! TD*
G04 #@! TO.C,D24*
G36*
G01*
X52440000Y47900000D02*
X51960000Y47900000D01*
G75*
G02*
X51900000Y47960000I0J60000D01*
G01*
X51900000Y48440000D01*
G75*
G02*
X51960000Y48500000I60000J0D01*
G01*
X52440000Y48500000D01*
G75*
G02*
X52500000Y48440000I0J-60000D01*
G01*
X52500000Y47960000D01*
G75*
G02*
X52440000Y47900000I-60000J0D01*
G01*
G37*
G36*
G01*
X50240000Y47900000D02*
X49760000Y47900000D01*
G75*
G02*
X49700000Y47960000I0J60000D01*
G01*
X49700000Y48440000D01*
G75*
G02*
X49760000Y48500000I60000J0D01*
G01*
X50240000Y48500000D01*
G75*
G02*
X50300000Y48440000I0J-60000D01*
G01*
X50300000Y47960000D01*
G75*
G02*
X50240000Y47900000I-60000J0D01*
G01*
G37*
G04 #@! TD*
G04 #@! TO.C,G4*
X146306545Y24944788D03*
X146306545Y27484788D03*
X146306545Y30024788D03*
X146306545Y32564788D03*
X146306545Y35104788D03*
X148846545Y24944788D03*
X148846545Y27484788D03*
X148846545Y30024788D03*
X148846545Y32564788D03*
X148846545Y35104788D03*
G04 #@! TD*
D17*
G04 #@! TO.C,J3*
X99275000Y17082843D03*
D20*
X99275000Y14542843D03*
X96735000Y17082843D03*
X96735000Y14542843D03*
G04 #@! TD*
G04 #@! TO.C,R1*
G36*
G01*
X95322472Y83336268D02*
X95322472Y84116268D01*
G75*
G02*
X95392472Y84186268I70000J0D01*
G01*
X95952472Y84186268D01*
G75*
G02*
X96022472Y84116268I0J-70000D01*
G01*
X96022472Y83336268D01*
G75*
G02*
X95952472Y83266268I-70000J0D01*
G01*
X95392472Y83266268D01*
G75*
G02*
X95322472Y83336268I0J70000D01*
G01*
G37*
G36*
G01*
X96922472Y83336268D02*
X96922472Y84116268D01*
G75*
G02*
X96992472Y84186268I70000J0D01*
G01*
X97552472Y84186268D01*
G75*
G02*
X97622472Y84116268I0J-70000D01*
G01*
X97622472Y83336268D01*
G75*
G02*
X97552472Y83266268I-70000J0D01*
G01*
X96992472Y83266268D01*
G75*
G02*
X96922472Y83336268I0J70000D01*
G01*
G37*
G04 #@! TD*
D12*
G04 #@! TO.C,R35*
X59000000Y119695000D03*
G36*
G01*
X59625000Y120149999D02*
X58375000Y120149999D01*
G75*
G02*
X58275000Y120249999I0J100000D01*
G01*
X58275000Y121049999D01*
G75*
G02*
X58375000Y121149999I100000J0D01*
G01*
X59625000Y121149999D01*
G75*
G02*
X59725000Y121049999I0J-100000D01*
G01*
X59725000Y120249999D01*
G75*
G02*
X59625000Y120149999I-100000J0D01*
G01*
G37*
G36*
G01*
X59625000Y122050021D02*
X58375000Y122050021D01*
G75*
G02*
X58275000Y122150021I0J100000D01*
G01*
X58275000Y122950021D01*
G75*
G02*
X58375000Y123050021I100000J0D01*
G01*
X59625000Y123050021D01*
G75*
G02*
X59725000Y122950021I0J-100000D01*
G01*
X59725000Y122150021D01*
G75*
G02*
X59625000Y122050021I-100000J0D01*
G01*
G37*
X59000000Y123505000D03*
G04 #@! TD*
G04 #@! TO.C,R21*
G36*
G01*
X92350000Y78310000D02*
X92350000Y79090000D01*
G75*
G02*
X92420000Y79160000I70000J0D01*
G01*
X92980000Y79160000D01*
G75*
G02*
X93050000Y79090000I0J-70000D01*
G01*
X93050000Y78310000D01*
G75*
G02*
X92980000Y78240000I-70000J0D01*
G01*
X92420000Y78240000D01*
G75*
G02*
X92350000Y78310000I0J70000D01*
G01*
G37*
G36*
G01*
X93950000Y78310000D02*
X93950000Y79090000D01*
G75*
G02*
X94020000Y79160000I70000J0D01*
G01*
X94580000Y79160000D01*
G75*
G02*
X94650000Y79090000I0J-70000D01*
G01*
X94650000Y78310000D01*
G75*
G02*
X94580000Y78240000I-70000J0D01*
G01*
X94020000Y78240000D01*
G75*
G02*
X93950000Y78310000I0J70000D01*
G01*
G37*
G04 #@! TD*
G04 #@! TO.C,R29*
X44000000Y112795000D03*
G36*
G01*
X44625000Y113249999D02*
X43375000Y113249999D01*
G75*
G02*
X43275000Y113349999I0J100000D01*
G01*
X43275000Y114149999D01*
G75*
G02*
X43375000Y114249999I100000J0D01*
G01*
X44625000Y114249999D01*
G75*
G02*
X44725000Y114149999I0J-100000D01*
G01*
X44725000Y113349999D01*
G75*
G02*
X44625000Y113249999I-100000J0D01*
G01*
G37*
G36*
G01*
X44625000Y115150021D02*
X43375000Y115150021D01*
G75*
G02*
X43275000Y115250021I0J100000D01*
G01*
X43275000Y116050021D01*
G75*
G02*
X43375000Y116150021I100000J0D01*
G01*
X44625000Y116150021D01*
G75*
G02*
X44725000Y116050021I0J-100000D01*
G01*
X44725000Y115250021D01*
G75*
G02*
X44625000Y115150021I-100000J0D01*
G01*
G37*
X44000000Y116605000D03*
G04 #@! TD*
G04 #@! TO.C,R53*
X44000000Y119695000D03*
G36*
G01*
X44625000Y120149999D02*
X43375000Y120149999D01*
G75*
G02*
X43275000Y120249999I0J100000D01*
G01*
X43275000Y121049999D01*
G75*
G02*
X43375000Y121149999I100000J0D01*
G01*
X44625000Y121149999D01*
G75*
G02*
X44725000Y121049999I0J-100000D01*
G01*
X44725000Y120249999D01*
G75*
G02*
X44625000Y120149999I-100000J0D01*
G01*
G37*
G36*
G01*
X44625000Y122050021D02*
X43375000Y122050021D01*
G75*
G02*
X43275000Y122150021I0J100000D01*
G01*
X43275000Y122950021D01*
G75*
G02*
X43375000Y123050021I100000J0D01*
G01*
X44625000Y123050021D01*
G75*
G02*
X44725000Y122950021I0J-100000D01*
G01*
X44725000Y122150021D01*
G75*
G02*
X44625000Y122050021I-100000J0D01*
G01*
G37*
X44000000Y123505000D03*
G04 #@! TD*
G04 #@! TO.C,F2*
X82000000Y123500000D03*
G36*
G01*
X81100000Y122155010D02*
X81100000Y122845010D01*
G75*
G02*
X81330000Y123075010I230000J0D01*
G01*
X82670000Y123075010D01*
G75*
G02*
X82900000Y122845010I0J-230000D01*
G01*
X82900000Y122155010D01*
G75*
G02*
X82670000Y121925010I-230000J0D01*
G01*
X81330000Y121925010D01*
G75*
G02*
X81100000Y122155010I0J230000D01*
G01*
G37*
G36*
G01*
X81100000Y119254990D02*
X81100000Y119944990D01*
G75*
G02*
X81330000Y120174990I230000J0D01*
G01*
X82670000Y120174990D01*
G75*
G02*
X82900000Y119944990I0J-230000D01*
G01*
X82900000Y119254990D01*
G75*
G02*
X82670000Y119024990I-230000J0D01*
G01*
X81330000Y119024990D01*
G75*
G02*
X81100000Y119254990I0J230000D01*
G01*
G37*
X82000000Y118600000D03*
G04 #@! TD*
G04 #@! TO.C,D38*
G36*
G01*
X43050000Y79200000D02*
X43950000Y79200000D01*
G75*
G02*
X44050000Y79100000I0J-100000D01*
G01*
X44050000Y78300000D01*
G75*
G02*
X43950000Y78200000I-100000J0D01*
G01*
X43050000Y78200000D01*
G75*
G02*
X42950000Y78300000I0J100000D01*
G01*
X42950000Y79100000D01*
G75*
G02*
X43050000Y79200000I100000J0D01*
G01*
G37*
G36*
G01*
X43050000Y77500000D02*
X43950000Y77500000D01*
G75*
G02*
X44050000Y77400000I0J-100000D01*
G01*
X44050000Y76600000D01*
G75*
G02*
X43950000Y76500000I-100000J0D01*
G01*
X43050000Y76500000D01*
G75*
G02*
X42950000Y76600000I0J100000D01*
G01*
X42950000Y77400000D01*
G75*
G02*
X43050000Y77500000I100000J0D01*
G01*
G37*
G04 #@! TD*
G04 #@! TO.C,U1*
G36*
G01*
X29740000Y56550000D02*
X29440000Y56550000D01*
G75*
G02*
X29290000Y56700000I0J150000D01*
G01*
X29290000Y58350000D01*
G75*
G02*
X29440000Y58500000I150000J0D01*
G01*
X29740000Y58500000D01*
G75*
G02*
X29890000Y58350000I0J-150000D01*
G01*
X29890000Y56700000D01*
G75*
G02*
X29740000Y56550000I-150000J0D01*
G01*
G37*
G36*
G01*
X31010000Y56550000D02*
X30710000Y56550000D01*
G75*
G02*
X30560000Y56700000I0J150000D01*
G01*
X30560000Y58350000D01*
G75*
G02*
X30710000Y58500000I150000J0D01*
G01*
X31010000Y58500000D01*
G75*
G02*
X31160000Y58350000I0J-150000D01*
G01*
X31160000Y56700000D01*
G75*
G02*
X31010000Y56550000I-150000J0D01*
G01*
G37*
G36*
G01*
X32280000Y56550000D02*
X31980000Y56550000D01*
G75*
G02*
X31830000Y56700000I0J150000D01*
G01*
X31830000Y58350000D01*
G75*
G02*
X31980000Y58500000I150000J0D01*
G01*
X32280000Y58500000D01*
G75*
G02*
X32430000Y58350000I0J-150000D01*
G01*
X32430000Y56700000D01*
G75*
G02*
X32280000Y56550000I-150000J0D01*
G01*
G37*
G36*
G01*
X33550000Y56550000D02*
X33250000Y56550000D01*
G75*
G02*
X33100000Y56700000I0J150000D01*
G01*
X33100000Y58350000D01*
G75*
G02*
X33250000Y58500000I150000J0D01*
G01*
X33550000Y58500000D01*
G75*
G02*
X33700000Y58350000I0J-150000D01*
G01*
X33700000Y56700000D01*
G75*
G02*
X33550000Y56550000I-150000J0D01*
G01*
G37*
G36*
G01*
X33550000Y61500000D02*
X33250000Y61500000D01*
G75*
G02*
X33100000Y61650000I0J150000D01*
G01*
X33100000Y63300000D01*
G75*
G02*
X33250000Y63450000I150000J0D01*
G01*
X33550000Y63450000D01*
G75*
G02*
X33700000Y63300000I0J-150000D01*
G01*
X33700000Y61650000D01*
G75*
G02*
X33550000Y61500000I-150000J0D01*
G01*
G37*
G36*
G01*
X32280000Y61500000D02*
X31980000Y61500000D01*
G75*
G02*
X31830000Y61650000I0J150000D01*
G01*
X31830000Y63300000D01*
G75*
G02*
X31980000Y63450000I150000J0D01*
G01*
X32280000Y63450000D01*
G75*
G02*
X32430000Y63300000I0J-150000D01*
G01*
X32430000Y61650000D01*
G75*
G02*
X32280000Y61500000I-150000J0D01*
G01*
G37*
G36*
G01*
X31010000Y61500000D02*
X30710000Y61500000D01*
G75*
G02*
X30560000Y61650000I0J150000D01*
G01*
X30560000Y63300000D01*
G75*
G02*
X30710000Y63450000I150000J0D01*
G01*
X31010000Y63450000D01*
G75*
G02*
X31160000Y63300000I0J-150000D01*
G01*
X31160000Y61650000D01*
G75*
G02*
X31010000Y61500000I-150000J0D01*
G01*
G37*
G36*
G01*
X29740000Y61500000D02*
X29440000Y61500000D01*
G75*
G02*
X29290000Y61650000I0J150000D01*
G01*
X29290000Y63300000D01*
G75*
G02*
X29440000Y63450000I150000J0D01*
G01*
X29740000Y63450000D01*
G75*
G02*
X29890000Y63300000I0J-150000D01*
G01*
X29890000Y61650000D01*
G75*
G02*
X29740000Y61500000I-150000J0D01*
G01*
G37*
G04 #@! TD*
G04 #@! TO.C,D18*
G36*
G01*
X51050000Y79200000D02*
X51950000Y79200000D01*
G75*
G02*
X52050000Y79100000I0J-100000D01*
G01*
X52050000Y78300000D01*
G75*
G02*
X51950000Y78200000I-100000J0D01*
G01*
X51050000Y78200000D01*
G75*
G02*
X50950000Y78300000I0J100000D01*
G01*
X50950000Y79100000D01*
G75*
G02*
X51050000Y79200000I100000J0D01*
G01*
G37*
G36*
G01*
X51050000Y77500000D02*
X51950000Y77500000D01*
G75*
G02*
X52050000Y77400000I0J-100000D01*
G01*
X52050000Y76600000D01*
G75*
G02*
X51950000Y76500000I-100000J0D01*
G01*
X51050000Y76500000D01*
G75*
G02*
X50950000Y76600000I0J100000D01*
G01*
X50950000Y77400000D01*
G75*
G02*
X51050000Y77500000I100000J0D01*
G01*
G37*
G04 #@! TD*
G04 #@! TO.C,D36*
G36*
G01*
X39050000Y79200000D02*
X39950000Y79200000D01*
G75*
G02*
X40050000Y79100000I0J-100000D01*
G01*
X40050000Y78300000D01*
G75*
G02*
X39950000Y78200000I-100000J0D01*
G01*
X39050000Y78200000D01*
G75*
G02*
X38950000Y78300000I0J100000D01*
G01*
X38950000Y79100000D01*
G75*
G02*
X39050000Y79200000I100000J0D01*
G01*
G37*
G36*
G01*
X39050000Y77500000D02*
X39950000Y77500000D01*
G75*
G02*
X40050000Y77400000I0J-100000D01*
G01*
X40050000Y76600000D01*
G75*
G02*
X39950000Y76500000I-100000J0D01*
G01*
X39050000Y76500000D01*
G75*
G02*
X38950000Y76600000I0J100000D01*
G01*
X38950000Y77400000D01*
G75*
G02*
X39050000Y77500000I100000J0D01*
G01*
G37*
G04 #@! TD*
D10*
G04 #@! TO.C,P28*
X110500000Y119500000D03*
G04 #@! TD*
D12*
G04 #@! TO.C,R55*
X95700000Y116095000D03*
G36*
G01*
X96325000Y116549999D02*
X95075000Y116549999D01*
G75*
G02*
X94975000Y116649999I0J100000D01*
G01*
X94975000Y117449999D01*
G75*
G02*
X95075000Y117549999I100000J0D01*
G01*
X96325000Y117549999D01*
G75*
G02*
X96425000Y117449999I0J-100000D01*
G01*
X96425000Y116649999D01*
G75*
G02*
X96325000Y116549999I-100000J0D01*
G01*
G37*
G36*
G01*
X96325000Y118450021D02*
X95075000Y118450021D01*
G75*
G02*
X94975000Y118550021I0J100000D01*
G01*
X94975000Y119350021D01*
G75*
G02*
X95075000Y119450021I100000J0D01*
G01*
X96325000Y119450021D01*
G75*
G02*
X96425000Y119350021I0J-100000D01*
G01*
X96425000Y118550021D01*
G75*
G02*
X96325000Y118450021I-100000J0D01*
G01*
G37*
X95700000Y119905000D03*
G04 #@! TD*
D10*
G04 #@! TO.C,P36*
X107500000Y124000000D03*
G04 #@! TD*
G04 #@! TO.C,D9*
G36*
G01*
X37068986Y79200000D02*
X37968986Y79200000D01*
G75*
G02*
X38068986Y79100000I0J-100000D01*
G01*
X38068986Y78300000D01*
G75*
G02*
X37968986Y78200000I-100000J0D01*
G01*
X37068986Y78200000D01*
G75*
G02*
X36968986Y78300000I0J100000D01*
G01*
X36968986Y79100000D01*
G75*
G02*
X37068986Y79200000I100000J0D01*
G01*
G37*
G36*
G01*
X37068986Y77500000D02*
X37968986Y77500000D01*
G75*
G02*
X38068986Y77400000I0J-100000D01*
G01*
X38068986Y76600000D01*
G75*
G02*
X37968986Y76500000I-100000J0D01*
G01*
X37068986Y76500000D01*
G75*
G02*
X36968986Y76600000I0J100000D01*
G01*
X36968986Y77400000D01*
G75*
G02*
X37068986Y77500000I100000J0D01*
G01*
G37*
G04 #@! TD*
G04 #@! TO.C,R24*
G36*
G01*
X92350000Y73310000D02*
X92350000Y74090000D01*
G75*
G02*
X92420000Y74160000I70000J0D01*
G01*
X92980000Y74160000D01*
G75*
G02*
X93050000Y74090000I0J-70000D01*
G01*
X93050000Y73310000D01*
G75*
G02*
X92980000Y73240000I-70000J0D01*
G01*
X92420000Y73240000D01*
G75*
G02*
X92350000Y73310000I0J70000D01*
G01*
G37*
G36*
G01*
X93950000Y73310000D02*
X93950000Y74090000D01*
G75*
G02*
X94020000Y74160000I70000J0D01*
G01*
X94580000Y74160000D01*
G75*
G02*
X94650000Y74090000I0J-70000D01*
G01*
X94650000Y73310000D01*
G75*
G02*
X94580000Y73240000I-70000J0D01*
G01*
X94020000Y73240000D01*
G75*
G02*
X93950000Y73310000I0J70000D01*
G01*
G37*
G04 #@! TD*
G04 #@! TO.C,P9*
X38500000Y119000000D03*
G04 #@! TD*
D21*
G04 #@! TO.C,M2*
X80950000Y93925003D03*
X74550003Y93925003D03*
X72650000Y93925003D03*
X68350000Y93925003D03*
D22*
X65950003Y93475004D03*
X64950002Y93475004D03*
D21*
X62100000Y93925003D03*
X81400002Y109425000D03*
X79550003Y109425000D03*
X74600000Y109425000D03*
X62550002Y109425000D03*
G04 #@! TD*
D10*
G04 #@! TO.C,P38*
X101600000Y118400000D03*
G04 #@! TD*
G04 #@! TO.C,U12*
G36*
G01*
X41245000Y94050000D02*
X40945000Y94050000D01*
G75*
G02*
X40795000Y94200000I0J150000D01*
G01*
X40795000Y95850000D01*
G75*
G02*
X40945000Y96000000I150000J0D01*
G01*
X41245000Y96000000D01*
G75*
G02*
X41395000Y95850000I0J-150000D01*
G01*
X41395000Y94200000D01*
G75*
G02*
X41245000Y94050000I-150000J0D01*
G01*
G37*
G36*
G01*
X42515000Y94050000D02*
X42215000Y94050000D01*
G75*
G02*
X42065000Y94200000I0J150000D01*
G01*
X42065000Y95850000D01*
G75*
G02*
X42215000Y96000000I150000J0D01*
G01*
X42515000Y96000000D01*
G75*
G02*
X42665000Y95850000I0J-150000D01*
G01*
X42665000Y94200000D01*
G75*
G02*
X42515000Y94050000I-150000J0D01*
G01*
G37*
G36*
G01*
X43785000Y94050000D02*
X43485000Y94050000D01*
G75*
G02*
X43335000Y94200000I0J150000D01*
G01*
X43335000Y95850000D01*
G75*
G02*
X43485000Y96000000I150000J0D01*
G01*
X43785000Y96000000D01*
G75*
G02*
X43935000Y95850000I0J-150000D01*
G01*
X43935000Y94200000D01*
G75*
G02*
X43785000Y94050000I-150000J0D01*
G01*
G37*
G36*
G01*
X45055000Y94050000D02*
X44755000Y94050000D01*
G75*
G02*
X44605000Y94200000I0J150000D01*
G01*
X44605000Y95850000D01*
G75*
G02*
X44755000Y96000000I150000J0D01*
G01*
X45055000Y96000000D01*
G75*
G02*
X45205000Y95850000I0J-150000D01*
G01*
X45205000Y94200000D01*
G75*
G02*
X45055000Y94050000I-150000J0D01*
G01*
G37*
G36*
G01*
X45055000Y99000000D02*
X44755000Y99000000D01*
G75*
G02*
X44605000Y99150000I0J150000D01*
G01*
X44605000Y100800000D01*
G75*
G02*
X44755000Y100950000I150000J0D01*
G01*
X45055000Y100950000D01*
G75*
G02*
X45205000Y100800000I0J-150000D01*
G01*
X45205000Y99150000D01*
G75*
G02*
X45055000Y99000000I-150000J0D01*
G01*
G37*
G36*
G01*
X43785000Y99000000D02*
X43485000Y99000000D01*
G75*
G02*
X43335000Y99150000I0J150000D01*
G01*
X43335000Y100800000D01*
G75*
G02*
X43485000Y100950000I150000J0D01*
G01*
X43785000Y100950000D01*
G75*
G02*
X43935000Y100800000I0J-150000D01*
G01*
X43935000Y99150000D01*
G75*
G02*
X43785000Y99000000I-150000J0D01*
G01*
G37*
G36*
G01*
X42515000Y99000000D02*
X42215000Y99000000D01*
G75*
G02*
X42065000Y99150000I0J150000D01*
G01*
X42065000Y100800000D01*
G75*
G02*
X42215000Y100950000I150000J0D01*
G01*
X42515000Y100950000D01*
G75*
G02*
X42665000Y100800000I0J-150000D01*
G01*
X42665000Y99150000D01*
G75*
G02*
X42515000Y99000000I-150000J0D01*
G01*
G37*
G36*
G01*
X41245000Y99000000D02*
X40945000Y99000000D01*
G75*
G02*
X40795000Y99150000I0J150000D01*
G01*
X40795000Y100800000D01*
G75*
G02*
X40945000Y100950000I150000J0D01*
G01*
X41245000Y100950000D01*
G75*
G02*
X41395000Y100800000I0J-150000D01*
G01*
X41395000Y99150000D01*
G75*
G02*
X41245000Y99000000I-150000J0D01*
G01*
G37*
G04 #@! TD*
G04 #@! TO.C,P32*
X131500000Y119500000D03*
G04 #@! TD*
G04 #@! TO.C,P20*
X35500000Y123500000D03*
G04 #@! TD*
D12*
G04 #@! TO.C,R51*
X49000000Y119695000D03*
G36*
G01*
X49625000Y120149999D02*
X48375000Y120149999D01*
G75*
G02*
X48275000Y120249999I0J100000D01*
G01*
X48275000Y121049999D01*
G75*
G02*
X48375000Y121149999I100000J0D01*
G01*
X49625000Y121149999D01*
G75*
G02*
X49725000Y121049999I0J-100000D01*
G01*
X49725000Y120249999D01*
G75*
G02*
X49625000Y120149999I-100000J0D01*
G01*
G37*
G36*
G01*
X49625000Y122050021D02*
X48375000Y122050021D01*
G75*
G02*
X48275000Y122150021I0J100000D01*
G01*
X48275000Y122950021D01*
G75*
G02*
X48375000Y123050021I100000J0D01*
G01*
X49625000Y123050021D01*
G75*
G02*
X49725000Y122950021I0J-100000D01*
G01*
X49725000Y122150021D01*
G75*
G02*
X49625000Y122050021I-100000J0D01*
G01*
G37*
X49000000Y123505000D03*
G04 #@! TD*
G04 #@! TO.C,R36*
X56500000Y119695000D03*
G36*
G01*
X57125000Y120149999D02*
X55875000Y120149999D01*
G75*
G02*
X55775000Y120249999I0J100000D01*
G01*
X55775000Y121049999D01*
G75*
G02*
X55875000Y121149999I100000J0D01*
G01*
X57125000Y121149999D01*
G75*
G02*
X57225000Y121049999I0J-100000D01*
G01*
X57225000Y120249999D01*
G75*
G02*
X57125000Y120149999I-100000J0D01*
G01*
G37*
G36*
G01*
X57125000Y122050021D02*
X55875000Y122050021D01*
G75*
G02*
X55775000Y122150021I0J100000D01*
G01*
X55775000Y122950021D01*
G75*
G02*
X55875000Y123050021I100000J0D01*
G01*
X57125000Y123050021D01*
G75*
G02*
X57225000Y122950021I0J-100000D01*
G01*
X57225000Y122150021D01*
G75*
G02*
X57125000Y122050021I-100000J0D01*
G01*
G37*
X56500000Y123505000D03*
G04 #@! TD*
G04 #@! TO.C,R57*
X90900000Y119690000D03*
G36*
G01*
X91525000Y120144999D02*
X90275000Y120144999D01*
G75*
G02*
X90175000Y120244999I0J100000D01*
G01*
X90175000Y121044999D01*
G75*
G02*
X90275000Y121144999I100000J0D01*
G01*
X91525000Y121144999D01*
G75*
G02*
X91625000Y121044999I0J-100000D01*
G01*
X91625000Y120244999D01*
G75*
G02*
X91525000Y120144999I-100000J0D01*
G01*
G37*
G36*
G01*
X91525000Y122045021D02*
X90275000Y122045021D01*
G75*
G02*
X90175000Y122145021I0J100000D01*
G01*
X90175000Y122945021D01*
G75*
G02*
X90275000Y123045021I100000J0D01*
G01*
X91525000Y123045021D01*
G75*
G02*
X91625000Y122945021I0J-100000D01*
G01*
X91625000Y122145021D01*
G75*
G02*
X91525000Y122045021I-100000J0D01*
G01*
G37*
X90900000Y123500000D03*
G04 #@! TD*
G04 #@! TO.C,R62*
X30500000Y119690000D03*
G36*
G01*
X31125000Y120144999D02*
X29875000Y120144999D01*
G75*
G02*
X29775000Y120244999I0J100000D01*
G01*
X29775000Y121044999D01*
G75*
G02*
X29875000Y121144999I100000J0D01*
G01*
X31125000Y121144999D01*
G75*
G02*
X31225000Y121044999I0J-100000D01*
G01*
X31225000Y120244999D01*
G75*
G02*
X31125000Y120144999I-100000J0D01*
G01*
G37*
G36*
G01*
X31125000Y122045021D02*
X29875000Y122045021D01*
G75*
G02*
X29775000Y122145021I0J100000D01*
G01*
X29775000Y122945021D01*
G75*
G02*
X29875000Y123045021I100000J0D01*
G01*
X31125000Y123045021D01*
G75*
G02*
X31225000Y122945021I0J-100000D01*
G01*
X31225000Y122145021D01*
G75*
G02*
X31125000Y122045021I-100000J0D01*
G01*
G37*
X30500000Y123500000D03*
G04 #@! TD*
D10*
G04 #@! TO.C,P19*
X38500000Y123500000D03*
G04 #@! TD*
G04 #@! TO.C,U7*
G36*
G01*
X65745000Y56550000D02*
X65445000Y56550000D01*
G75*
G02*
X65295000Y56700000I0J150000D01*
G01*
X65295000Y58350000D01*
G75*
G02*
X65445000Y58500000I150000J0D01*
G01*
X65745000Y58500000D01*
G75*
G02*
X65895000Y58350000I0J-150000D01*
G01*
X65895000Y56700000D01*
G75*
G02*
X65745000Y56550000I-150000J0D01*
G01*
G37*
G36*
G01*
X67015000Y56550000D02*
X66715000Y56550000D01*
G75*
G02*
X66565000Y56700000I0J150000D01*
G01*
X66565000Y58350000D01*
G75*
G02*
X66715000Y58500000I150000J0D01*
G01*
X67015000Y58500000D01*
G75*
G02*
X67165000Y58350000I0J-150000D01*
G01*
X67165000Y56700000D01*
G75*
G02*
X67015000Y56550000I-150000J0D01*
G01*
G37*
G36*
G01*
X68285000Y56550000D02*
X67985000Y56550000D01*
G75*
G02*
X67835000Y56700000I0J150000D01*
G01*
X67835000Y58350000D01*
G75*
G02*
X67985000Y58500000I150000J0D01*
G01*
X68285000Y58500000D01*
G75*
G02*
X68435000Y58350000I0J-150000D01*
G01*
X68435000Y56700000D01*
G75*
G02*
X68285000Y56550000I-150000J0D01*
G01*
G37*
G36*
G01*
X69555000Y56550000D02*
X69255000Y56550000D01*
G75*
G02*
X69105000Y56700000I0J150000D01*
G01*
X69105000Y58350000D01*
G75*
G02*
X69255000Y58500000I150000J0D01*
G01*
X69555000Y58500000D01*
G75*
G02*
X69705000Y58350000I0J-150000D01*
G01*
X69705000Y56700000D01*
G75*
G02*
X69555000Y56550000I-150000J0D01*
G01*
G37*
G36*
G01*
X69555000Y61500000D02*
X69255000Y61500000D01*
G75*
G02*
X69105000Y61650000I0J150000D01*
G01*
X69105000Y63300000D01*
G75*
G02*
X69255000Y63450000I150000J0D01*
G01*
X69555000Y63450000D01*
G75*
G02*
X69705000Y63300000I0J-150000D01*
G01*
X69705000Y61650000D01*
G75*
G02*
X69555000Y61500000I-150000J0D01*
G01*
G37*
G36*
G01*
X68285000Y61500000D02*
X67985000Y61500000D01*
G75*
G02*
X67835000Y61650000I0J150000D01*
G01*
X67835000Y63300000D01*
G75*
G02*
X67985000Y63450000I150000J0D01*
G01*
X68285000Y63450000D01*
G75*
G02*
X68435000Y63300000I0J-150000D01*
G01*
X68435000Y61650000D01*
G75*
G02*
X68285000Y61500000I-150000J0D01*
G01*
G37*
G36*
G01*
X67015000Y61500000D02*
X66715000Y61500000D01*
G75*
G02*
X66565000Y61650000I0J150000D01*
G01*
X66565000Y63300000D01*
G75*
G02*
X66715000Y63450000I150000J0D01*
G01*
X67015000Y63450000D01*
G75*
G02*
X67165000Y63300000I0J-150000D01*
G01*
X67165000Y61650000D01*
G75*
G02*
X67015000Y61500000I-150000J0D01*
G01*
G37*
G36*
G01*
X65745000Y61500000D02*
X65445000Y61500000D01*
G75*
G02*
X65295000Y61650000I0J150000D01*
G01*
X65295000Y63300000D01*
G75*
G02*
X65445000Y63450000I150000J0D01*
G01*
X65745000Y63450000D01*
G75*
G02*
X65895000Y63300000I0J-150000D01*
G01*
X65895000Y61650000D01*
G75*
G02*
X65745000Y61500000I-150000J0D01*
G01*
G37*
G04 #@! TD*
G04 #@! TO.C,R23*
G36*
G01*
X92350000Y75810000D02*
X92350000Y76590000D01*
G75*
G02*
X92420000Y76660000I70000J0D01*
G01*
X92980000Y76660000D01*
G75*
G02*
X93050000Y76590000I0J-70000D01*
G01*
X93050000Y75810000D01*
G75*
G02*
X92980000Y75740000I-70000J0D01*
G01*
X92420000Y75740000D01*
G75*
G02*
X92350000Y75810000I0J70000D01*
G01*
G37*
G36*
G01*
X93950000Y75810000D02*
X93950000Y76590000D01*
G75*
G02*
X94020000Y76660000I70000J0D01*
G01*
X94580000Y76660000D01*
G75*
G02*
X94650000Y76590000I0J-70000D01*
G01*
X94650000Y75810000D01*
G75*
G02*
X94580000Y75740000I-70000J0D01*
G01*
X94020000Y75740000D01*
G75*
G02*
X93950000Y75810000I0J70000D01*
G01*
G37*
G04 #@! TD*
G04 #@! TO.C,P16*
X71500000Y123500000D03*
G04 #@! TD*
G04 #@! TO.C,P34*
X122500000Y119500000D03*
G04 #@! TD*
G04 #@! TO.C,R7*
G36*
G01*
X46849998Y68665001D02*
X46849998Y69335001D01*
G75*
G02*
X46914998Y69400001I65000J0D01*
G01*
X47434998Y69400001D01*
G75*
G02*
X47499998Y69335001I0J-65000D01*
G01*
X47499998Y68665001D01*
G75*
G02*
X47434998Y68600001I-65000J0D01*
G01*
X46914998Y68600001D01*
G75*
G02*
X46849998Y68665001I0J65000D01*
G01*
G37*
G36*
G01*
X47824998Y68645001D02*
X47824998Y69355001D01*
G75*
G02*
X47869998Y69400001I45000J0D01*
G01*
X48229998Y69400001D01*
G75*
G02*
X48274998Y69355001I0J-45000D01*
G01*
X48274998Y68645001D01*
G75*
G02*
X48229998Y68600001I-45000J0D01*
G01*
X47869998Y68600001D01*
G75*
G02*
X47824998Y68645001I0J45000D01*
G01*
G37*
G36*
G01*
X48624998Y68645001D02*
X48624998Y69355001D01*
G75*
G02*
X48669998Y69400001I45000J0D01*
G01*
X49029998Y69400001D01*
G75*
G02*
X49074998Y69355001I0J-45000D01*
G01*
X49074998Y68645001D01*
G75*
G02*
X49029998Y68600001I-45000J0D01*
G01*
X48669998Y68600001D01*
G75*
G02*
X48624998Y68645001I0J45000D01*
G01*
G37*
G36*
G01*
X49399998Y68665001D02*
X49399998Y69335001D01*
G75*
G02*
X49464998Y69400001I65000J0D01*
G01*
X49984998Y69400001D01*
G75*
G02*
X50049998Y69335001I0J-65000D01*
G01*
X50049998Y68665001D01*
G75*
G02*
X49984998Y68600001I-65000J0D01*
G01*
X49464998Y68600001D01*
G75*
G02*
X49399998Y68665001I0J65000D01*
G01*
G37*
G36*
G01*
X49399998Y70465001D02*
X49399998Y71135001D01*
G75*
G02*
X49464998Y71200001I65000J0D01*
G01*
X49984998Y71200001D01*
G75*
G02*
X50049998Y71135001I0J-65000D01*
G01*
X50049998Y70465001D01*
G75*
G02*
X49984998Y70400001I-65000J0D01*
G01*
X49464998Y70400001D01*
G75*
G02*
X49399998Y70465001I0J65000D01*
G01*
G37*
G36*
G01*
X48624998Y70445001D02*
X48624998Y71155001D01*
G75*
G02*
X48669998Y71200001I45000J0D01*
G01*
X49029998Y71200001D01*
G75*
G02*
X49074998Y71155001I0J-45000D01*
G01*
X49074998Y70445001D01*
G75*
G02*
X49029998Y70400001I-45000J0D01*
G01*
X48669998Y70400001D01*
G75*
G02*
X48624998Y70445001I0J45000D01*
G01*
G37*
G36*
G01*
X47824998Y70445001D02*
X47824998Y71155001D01*
G75*
G02*
X47869998Y71200001I45000J0D01*
G01*
X48229998Y71200001D01*
G75*
G02*
X48274998Y71155001I0J-45000D01*
G01*
X48274998Y70445001D01*
G75*
G02*
X48229998Y70400001I-45000J0D01*
G01*
X47869998Y70400001D01*
G75*
G02*
X47824998Y70445001I0J45000D01*
G01*
G37*
G36*
G01*
X46849998Y70465001D02*
X46849998Y71135001D01*
G75*
G02*
X46914998Y71200001I65000J0D01*
G01*
X47434998Y71200001D01*
G75*
G02*
X47499998Y71135001I0J-65000D01*
G01*
X47499998Y70465001D01*
G75*
G02*
X47434998Y70400001I-65000J0D01*
G01*
X46914998Y70400001D01*
G75*
G02*
X46849998Y70465001I0J65000D01*
G01*
G37*
G04 #@! TD*
D21*
G04 #@! TO.C,BT1*
X41499858Y47100000D03*
X34000000Y47100000D03*
D23*
X45599952Y47100000D03*
D24*
X29599933Y47100000D03*
G04 #@! TD*
D12*
G04 #@! TO.C,R34*
X71400000Y115795000D03*
G36*
G01*
X72025000Y116249999D02*
X70775000Y116249999D01*
G75*
G02*
X70675000Y116349999I0J100000D01*
G01*
X70675000Y117149999D01*
G75*
G02*
X70775000Y117249999I100000J0D01*
G01*
X72025000Y117249999D01*
G75*
G02*
X72125000Y117149999I0J-100000D01*
G01*
X72125000Y116349999D01*
G75*
G02*
X72025000Y116249999I-100000J0D01*
G01*
G37*
G36*
G01*
X72025000Y118150021D02*
X70775000Y118150021D01*
G75*
G02*
X70675000Y118250021I0J100000D01*
G01*
X70675000Y119050021D01*
G75*
G02*
X70775000Y119150021I100000J0D01*
G01*
X72025000Y119150021D01*
G75*
G02*
X72125000Y119050021I0J-100000D01*
G01*
X72125000Y118250021D01*
G75*
G02*
X72025000Y118150021I-100000J0D01*
G01*
G37*
X71400000Y119605000D03*
G04 #@! TD*
G04 #@! TO.C,D20*
G36*
G01*
X45149998Y72560001D02*
X45149998Y73040001D01*
G75*
G02*
X45209998Y73100001I60000J0D01*
G01*
X45689998Y73100001D01*
G75*
G02*
X45749998Y73040001I0J-60000D01*
G01*
X45749998Y72560001D01*
G75*
G02*
X45689998Y72500001I-60000J0D01*
G01*
X45209998Y72500001D01*
G75*
G02*
X45149998Y72560001I0J60000D01*
G01*
G37*
G36*
G01*
X45149998Y74760001D02*
X45149998Y75240001D01*
G75*
G02*
X45209998Y75300001I60000J0D01*
G01*
X45689998Y75300001D01*
G75*
G02*
X45749998Y75240001I0J-60000D01*
G01*
X45749998Y74760001D01*
G75*
G02*
X45689998Y74700001I-60000J0D01*
G01*
X45209998Y74700001D01*
G75*
G02*
X45149998Y74760001I0J60000D01*
G01*
G37*
G04 #@! TD*
D10*
G04 #@! TO.C,P26*
X119500000Y124000000D03*
G04 #@! TD*
G04 #@! TO.C,J2*
G36*
G01*
X62350000Y80850001D02*
X62350000Y83649999D01*
G75*
G02*
X62600001Y83900000I250001J0D01*
G01*
X64799999Y83900000D01*
G75*
G02*
X65050000Y83649999I0J-250001D01*
G01*
X65050000Y80850001D01*
G75*
G02*
X64799999Y80600000I-250001J0D01*
G01*
X62600001Y80600000D01*
G75*
G02*
X62350000Y80850001I0J250001D01*
G01*
G37*
D25*
X67900000Y82250000D03*
X72100000Y82250000D03*
X76300000Y82250000D03*
X80500000Y82250000D03*
X84700000Y82250000D03*
X63700000Y76750000D03*
X67900000Y76750000D03*
X72100000Y76750000D03*
X76300000Y76750000D03*
X80500000Y76750000D03*
X84700000Y76750000D03*
G04 #@! TD*
D10*
G04 #@! TO.C,P30*
X107500000Y119500000D03*
G04 #@! TD*
G04 #@! TO.C,P4*
X54000000Y119100000D03*
G04 #@! TD*
G04 #@! TO.C,D33*
G36*
G01*
X39149998Y72560001D02*
X39149998Y73040001D01*
G75*
G02*
X39209998Y73100001I60000J0D01*
G01*
X39689998Y73100001D01*
G75*
G02*
X39749998Y73040001I0J-60000D01*
G01*
X39749998Y72560001D01*
G75*
G02*
X39689998Y72500001I-60000J0D01*
G01*
X39209998Y72500001D01*
G75*
G02*
X39149998Y72560001I0J60000D01*
G01*
G37*
G36*
G01*
X39149998Y74760001D02*
X39149998Y75240001D01*
G75*
G02*
X39209998Y75300001I60000J0D01*
G01*
X39689998Y75300001D01*
G75*
G02*
X39749998Y75240001I0J-60000D01*
G01*
X39749998Y74760001D01*
G75*
G02*
X39689998Y74700001I-60000J0D01*
G01*
X39209998Y74700001D01*
G75*
G02*
X39149998Y74760001I0J60000D01*
G01*
G37*
G04 #@! TD*
G04 #@! TO.C,P5*
X51500000Y116100000D03*
G04 #@! TD*
G04 #@! TO.C,D34*
G36*
G01*
X41149998Y72560001D02*
X41149998Y73040001D01*
G75*
G02*
X41209998Y73100001I60000J0D01*
G01*
X41689998Y73100001D01*
G75*
G02*
X41749998Y73040001I0J-60000D01*
G01*
X41749998Y72560001D01*
G75*
G02*
X41689998Y72500001I-60000J0D01*
G01*
X41209998Y72500001D01*
G75*
G02*
X41149998Y72560001I0J60000D01*
G01*
G37*
G36*
G01*
X41149998Y74760001D02*
X41149998Y75240001D01*
G75*
G02*
X41209998Y75300001I60000J0D01*
G01*
X41689998Y75300001D01*
G75*
G02*
X41749998Y75240001I0J-60000D01*
G01*
X41749998Y74760001D01*
G75*
G02*
X41689998Y74700001I-60000J0D01*
G01*
X41209998Y74700001D01*
G75*
G02*
X41149998Y74760001I0J60000D01*
G01*
G37*
G04 #@! TD*
D12*
G04 #@! TO.C,R3*
X88700000Y119690000D03*
G36*
G01*
X89325000Y120144999D02*
X88075000Y120144999D01*
G75*
G02*
X87975000Y120244999I0J100000D01*
G01*
X87975000Y121044999D01*
G75*
G02*
X88075000Y121144999I100000J0D01*
G01*
X89325000Y121144999D01*
G75*
G02*
X89425000Y121044999I0J-100000D01*
G01*
X89425000Y120244999D01*
G75*
G02*
X89325000Y120144999I-100000J0D01*
G01*
G37*
G36*
G01*
X89325000Y122045021D02*
X88075000Y122045021D01*
G75*
G02*
X87975000Y122145021I0J100000D01*
G01*
X87975000Y122945021D01*
G75*
G02*
X88075000Y123045021I100000J0D01*
G01*
X89325000Y123045021D01*
G75*
G02*
X89425000Y122945021I0J-100000D01*
G01*
X89425000Y122145021D01*
G75*
G02*
X89325000Y122045021I-100000J0D01*
G01*
G37*
X88700000Y123500000D03*
G04 #@! TD*
G04 #@! TO.C,D21*
G36*
G01*
X47149998Y72560001D02*
X47149998Y73040001D01*
G75*
G02*
X47209998Y73100001I60000J0D01*
G01*
X47689998Y73100001D01*
G75*
G02*
X47749998Y73040001I0J-60000D01*
G01*
X47749998Y72560001D01*
G75*
G02*
X47689998Y72500001I-60000J0D01*
G01*
X47209998Y72500001D01*
G75*
G02*
X47149998Y72560001I0J60000D01*
G01*
G37*
G36*
G01*
X47149998Y74760001D02*
X47149998Y75240001D01*
G75*
G02*
X47209998Y75300001I60000J0D01*
G01*
X47689998Y75300001D01*
G75*
G02*
X47749998Y75240001I0J-60000D01*
G01*
X47749998Y74760001D01*
G75*
G02*
X47689998Y74700001I-60000J0D01*
G01*
X47209998Y74700001D01*
G75*
G02*
X47149998Y74760001I0J60000D01*
G01*
G37*
G04 #@! TD*
G04 #@! TO.C,R6*
G36*
G01*
X32868984Y68665001D02*
X32868984Y69335001D01*
G75*
G02*
X32933984Y69400001I65000J0D01*
G01*
X33453984Y69400001D01*
G75*
G02*
X33518984Y69335001I0J-65000D01*
G01*
X33518984Y68665001D01*
G75*
G02*
X33453984Y68600001I-65000J0D01*
G01*
X32933984Y68600001D01*
G75*
G02*
X32868984Y68665001I0J65000D01*
G01*
G37*
G36*
G01*
X33843984Y68645001D02*
X33843984Y69355001D01*
G75*
G02*
X33888984Y69400001I45000J0D01*
G01*
X34248984Y69400001D01*
G75*
G02*
X34293984Y69355001I0J-45000D01*
G01*
X34293984Y68645001D01*
G75*
G02*
X34248984Y68600001I-45000J0D01*
G01*
X33888984Y68600001D01*
G75*
G02*
X33843984Y68645001I0J45000D01*
G01*
G37*
G36*
G01*
X34643984Y68645001D02*
X34643984Y69355001D01*
G75*
G02*
X34688984Y69400001I45000J0D01*
G01*
X35048984Y69400001D01*
G75*
G02*
X35093984Y69355001I0J-45000D01*
G01*
X35093984Y68645001D01*
G75*
G02*
X35048984Y68600001I-45000J0D01*
G01*
X34688984Y68600001D01*
G75*
G02*
X34643984Y68645001I0J45000D01*
G01*
G37*
G36*
G01*
X35418984Y68665001D02*
X35418984Y69335001D01*
G75*
G02*
X35483984Y69400001I65000J0D01*
G01*
X36003984Y69400001D01*
G75*
G02*
X36068984Y69335001I0J-65000D01*
G01*
X36068984Y68665001D01*
G75*
G02*
X36003984Y68600001I-65000J0D01*
G01*
X35483984Y68600001D01*
G75*
G02*
X35418984Y68665001I0J65000D01*
G01*
G37*
G36*
G01*
X35418984Y70465001D02*
X35418984Y71135001D01*
G75*
G02*
X35483984Y71200001I65000J0D01*
G01*
X36003984Y71200001D01*
G75*
G02*
X36068984Y71135001I0J-65000D01*
G01*
X36068984Y70465001D01*
G75*
G02*
X36003984Y70400001I-65000J0D01*
G01*
X35483984Y70400001D01*
G75*
G02*
X35418984Y70465001I0J65000D01*
G01*
G37*
G36*
G01*
X34643984Y70445001D02*
X34643984Y71155001D01*
G75*
G02*
X34688984Y71200001I45000J0D01*
G01*
X35048984Y71200001D01*
G75*
G02*
X35093984Y71155001I0J-45000D01*
G01*
X35093984Y70445001D01*
G75*
G02*
X35048984Y70400001I-45000J0D01*
G01*
X34688984Y70400001D01*
G75*
G02*
X34643984Y70445001I0J45000D01*
G01*
G37*
G36*
G01*
X33843984Y70445001D02*
X33843984Y71155001D01*
G75*
G02*
X33888984Y71200001I45000J0D01*
G01*
X34248984Y71200001D01*
G75*
G02*
X34293984Y71155001I0J-45000D01*
G01*
X34293984Y70445001D01*
G75*
G02*
X34248984Y70400001I-45000J0D01*
G01*
X33888984Y70400001D01*
G75*
G02*
X33843984Y70445001I0J45000D01*
G01*
G37*
G36*
G01*
X32868984Y70465001D02*
X32868984Y71135001D01*
G75*
G02*
X32933984Y71200001I65000J0D01*
G01*
X33453984Y71200001D01*
G75*
G02*
X33518984Y71135001I0J-65000D01*
G01*
X33518984Y70465001D01*
G75*
G02*
X33453984Y70400001I-65000J0D01*
G01*
X32933984Y70400001D01*
G75*
G02*
X32868984Y70465001I0J65000D01*
G01*
G37*
G04 #@! TD*
D10*
G04 #@! TO.C,P11*
X64000000Y116100000D03*
G04 #@! TD*
D12*
G04 #@! TO.C,R8*
X79400000Y115795000D03*
G36*
G01*
X80025000Y116249999D02*
X78775000Y116249999D01*
G75*
G02*
X78675000Y116349999I0J100000D01*
G01*
X78675000Y117149999D01*
G75*
G02*
X78775000Y117249999I100000J0D01*
G01*
X80025000Y117249999D01*
G75*
G02*
X80125000Y117149999I0J-100000D01*
G01*
X80125000Y116349999D01*
G75*
G02*
X80025000Y116249999I-100000J0D01*
G01*
G37*
G36*
G01*
X80025000Y118150021D02*
X78775000Y118150021D01*
G75*
G02*
X78675000Y118250021I0J100000D01*
G01*
X78675000Y119050021D01*
G75*
G02*
X78775000Y119150021I100000J0D01*
G01*
X80025000Y119150021D01*
G75*
G02*
X80125000Y119050021I0J-100000D01*
G01*
X80125000Y118250021D01*
G75*
G02*
X80025000Y118150021I-100000J0D01*
G01*
G37*
X79400000Y119605000D03*
G04 #@! TD*
G04 #@! TO.C,R40*
X46500000Y112795000D03*
G36*
G01*
X47125000Y113249999D02*
X45875000Y113249999D01*
G75*
G02*
X45775000Y113349999I0J100000D01*
G01*
X45775000Y114149999D01*
G75*
G02*
X45875000Y114249999I100000J0D01*
G01*
X47125000Y114249999D01*
G75*
G02*
X47225000Y114149999I0J-100000D01*
G01*
X47225000Y113349999D01*
G75*
G02*
X47125000Y113249999I-100000J0D01*
G01*
G37*
G36*
G01*
X47125000Y115150021D02*
X45875000Y115150021D01*
G75*
G02*
X45775000Y115250021I0J100000D01*
G01*
X45775000Y116050021D01*
G75*
G02*
X45875000Y116150021I100000J0D01*
G01*
X47125000Y116150021D01*
G75*
G02*
X47225000Y116050021I0J-100000D01*
G01*
X47225000Y115250021D01*
G75*
G02*
X47125000Y115150021I-100000J0D01*
G01*
G37*
X46500000Y116605000D03*
G04 #@! TD*
G04 #@! TO.C,D8*
G36*
G01*
X35068986Y79200000D02*
X35968986Y79200000D01*
G75*
G02*
X36068986Y79100000I0J-100000D01*
G01*
X36068986Y78300000D01*
G75*
G02*
X35968986Y78200000I-100000J0D01*
G01*
X35068986Y78200000D01*
G75*
G02*
X34968986Y78300000I0J100000D01*
G01*
X34968986Y79100000D01*
G75*
G02*
X35068986Y79200000I100000J0D01*
G01*
G37*
G36*
G01*
X35068986Y77500000D02*
X35968986Y77500000D01*
G75*
G02*
X36068986Y77400000I0J-100000D01*
G01*
X36068986Y76600000D01*
G75*
G02*
X35968986Y76500000I-100000J0D01*
G01*
X35068986Y76500000D01*
G75*
G02*
X34968986Y76600000I0J100000D01*
G01*
X34968986Y77400000D01*
G75*
G02*
X35068986Y77500000I100000J0D01*
G01*
G37*
G04 #@! TD*
G04 #@! TO.C,R59*
X98500000Y116095000D03*
G36*
G01*
X99125000Y116549999D02*
X97875000Y116549999D01*
G75*
G02*
X97775000Y116649999I0J100000D01*
G01*
X97775000Y117449999D01*
G75*
G02*
X97875000Y117549999I100000J0D01*
G01*
X99125000Y117549999D01*
G75*
G02*
X99225000Y117449999I0J-100000D01*
G01*
X99225000Y116649999D01*
G75*
G02*
X99125000Y116549999I-100000J0D01*
G01*
G37*
G36*
G01*
X99125000Y118450021D02*
X97875000Y118450021D01*
G75*
G02*
X97775000Y118550021I0J100000D01*
G01*
X97775000Y119350021D01*
G75*
G02*
X97875000Y119450021I100000J0D01*
G01*
X99125000Y119450021D01*
G75*
G02*
X99225000Y119350021I0J-100000D01*
G01*
X99225000Y118550021D01*
G75*
G02*
X99125000Y118450021I-100000J0D01*
G01*
G37*
X98500000Y119905000D03*
G04 #@! TD*
G04 #@! TO.C,D23*
G36*
G01*
X49149998Y72560001D02*
X49149998Y73040001D01*
G75*
G02*
X49209998Y73100001I60000J0D01*
G01*
X49689998Y73100001D01*
G75*
G02*
X49749998Y73040001I0J-60000D01*
G01*
X49749998Y72560001D01*
G75*
G02*
X49689998Y72500001I-60000J0D01*
G01*
X49209998Y72500001D01*
G75*
G02*
X49149998Y72560001I0J60000D01*
G01*
G37*
G36*
G01*
X49149998Y74760001D02*
X49149998Y75240001D01*
G75*
G02*
X49209998Y75300001I60000J0D01*
G01*
X49689998Y75300001D01*
G75*
G02*
X49749998Y75240001I0J-60000D01*
G01*
X49749998Y74760001D01*
G75*
G02*
X49689998Y74700001I-60000J0D01*
G01*
X49209998Y74700001D01*
G75*
G02*
X49149998Y74760001I0J60000D01*
G01*
G37*
G04 #@! TD*
G04 #@! TO.C,D7*
G36*
G01*
X33068986Y79200000D02*
X33968986Y79200000D01*
G75*
G02*
X34068986Y79100000I0J-100000D01*
G01*
X34068986Y78300000D01*
G75*
G02*
X33968986Y78200000I-100000J0D01*
G01*
X33068986Y78200000D01*
G75*
G02*
X32968986Y78300000I0J100000D01*
G01*
X32968986Y79100000D01*
G75*
G02*
X33068986Y79200000I100000J0D01*
G01*
G37*
G36*
G01*
X33068986Y77500000D02*
X33968986Y77500000D01*
G75*
G02*
X34068986Y77400000I0J-100000D01*
G01*
X34068986Y76600000D01*
G75*
G02*
X33968986Y76500000I-100000J0D01*
G01*
X33068986Y76500000D01*
G75*
G02*
X32968986Y76600000I0J100000D01*
G01*
X32968986Y77400000D01*
G75*
G02*
X33068986Y77500000I100000J0D01*
G01*
G37*
G04 #@! TD*
G04 #@! TO.C,U5*
G36*
G01*
X35740000Y56550000D02*
X35440000Y56550000D01*
G75*
G02*
X35290000Y56700000I0J150000D01*
G01*
X35290000Y58350000D01*
G75*
G02*
X35440000Y58500000I150000J0D01*
G01*
X35740000Y58500000D01*
G75*
G02*
X35890000Y58350000I0J-150000D01*
G01*
X35890000Y56700000D01*
G75*
G02*
X35740000Y56550000I-150000J0D01*
G01*
G37*
G36*
G01*
X37010000Y56550000D02*
X36710000Y56550000D01*
G75*
G02*
X36560000Y56700000I0J150000D01*
G01*
X36560000Y58350000D01*
G75*
G02*
X36710000Y58500000I150000J0D01*
G01*
X37010000Y58500000D01*
G75*
G02*
X37160000Y58350000I0J-150000D01*
G01*
X37160000Y56700000D01*
G75*
G02*
X37010000Y56550000I-150000J0D01*
G01*
G37*
G36*
G01*
X38280000Y56550000D02*
X37980000Y56550000D01*
G75*
G02*
X37830000Y56700000I0J150000D01*
G01*
X37830000Y58350000D01*
G75*
G02*
X37980000Y58500000I150000J0D01*
G01*
X38280000Y58500000D01*
G75*
G02*
X38430000Y58350000I0J-150000D01*
G01*
X38430000Y56700000D01*
G75*
G02*
X38280000Y56550000I-150000J0D01*
G01*
G37*
G36*
G01*
X39550000Y56550000D02*
X39250000Y56550000D01*
G75*
G02*
X39100000Y56700000I0J150000D01*
G01*
X39100000Y58350000D01*
G75*
G02*
X39250000Y58500000I150000J0D01*
G01*
X39550000Y58500000D01*
G75*
G02*
X39700000Y58350000I0J-150000D01*
G01*
X39700000Y56700000D01*
G75*
G02*
X39550000Y56550000I-150000J0D01*
G01*
G37*
G36*
G01*
X39550000Y61500000D02*
X39250000Y61500000D01*
G75*
G02*
X39100000Y61650000I0J150000D01*
G01*
X39100000Y63300000D01*
G75*
G02*
X39250000Y63450000I150000J0D01*
G01*
X39550000Y63450000D01*
G75*
G02*
X39700000Y63300000I0J-150000D01*
G01*
X39700000Y61650000D01*
G75*
G02*
X39550000Y61500000I-150000J0D01*
G01*
G37*
G36*
G01*
X38280000Y61500000D02*
X37980000Y61500000D01*
G75*
G02*
X37830000Y61650000I0J150000D01*
G01*
X37830000Y63300000D01*
G75*
G02*
X37980000Y63450000I150000J0D01*
G01*
X38280000Y63450000D01*
G75*
G02*
X38430000Y63300000I0J-150000D01*
G01*
X38430000Y61650000D01*
G75*
G02*
X38280000Y61500000I-150000J0D01*
G01*
G37*
G36*
G01*
X37010000Y61500000D02*
X36710000Y61500000D01*
G75*
G02*
X36560000Y61650000I0J150000D01*
G01*
X36560000Y63300000D01*
G75*
G02*
X36710000Y63450000I150000J0D01*
G01*
X37010000Y63450000D01*
G75*
G02*
X37160000Y63300000I0J-150000D01*
G01*
X37160000Y61650000D01*
G75*
G02*
X37010000Y61500000I-150000J0D01*
G01*
G37*
G36*
G01*
X35740000Y61500000D02*
X35440000Y61500000D01*
G75*
G02*
X35290000Y61650000I0J150000D01*
G01*
X35290000Y63300000D01*
G75*
G02*
X35440000Y63450000I150000J0D01*
G01*
X35740000Y63450000D01*
G75*
G02*
X35890000Y63300000I0J-150000D01*
G01*
X35890000Y61650000D01*
G75*
G02*
X35740000Y61500000I-150000J0D01*
G01*
G37*
G04 #@! TD*
D10*
G04 #@! TO.C,P49*
X95700000Y124000000D03*
G04 #@! TD*
G04 #@! TO.C,P48*
X104500000Y124000000D03*
G04 #@! TD*
G04 #@! TO.C,R84*
G36*
G01*
X43205000Y93175000D02*
X43985000Y93175000D01*
G75*
G02*
X44055000Y93105000I0J-70000D01*
G01*
X44055000Y92545000D01*
G75*
G02*
X43985000Y92475000I-70000J0D01*
G01*
X43205000Y92475000D01*
G75*
G02*
X43135000Y92545000I0J70000D01*
G01*
X43135000Y93105000D01*
G75*
G02*
X43205000Y93175000I70000J0D01*
G01*
G37*
G36*
G01*
X43205000Y91575000D02*
X43985000Y91575000D01*
G75*
G02*
X44055000Y91505000I0J-70000D01*
G01*
X44055000Y90945000D01*
G75*
G02*
X43985000Y90875000I-70000J0D01*
G01*
X43205000Y90875000D01*
G75*
G02*
X43135000Y90945000I0J70000D01*
G01*
X43135000Y91505000D01*
G75*
G02*
X43205000Y91575000I70000J0D01*
G01*
G37*
G04 #@! TD*
G04 #@! TO.C,U3*
G36*
G01*
X59745000Y56550000D02*
X59445000Y56550000D01*
G75*
G02*
X59295000Y56700000I0J150000D01*
G01*
X59295000Y58350000D01*
G75*
G02*
X59445000Y58500000I150000J0D01*
G01*
X59745000Y58500000D01*
G75*
G02*
X59895000Y58350000I0J-150000D01*
G01*
X59895000Y56700000D01*
G75*
G02*
X59745000Y56550000I-150000J0D01*
G01*
G37*
G36*
G01*
X61015000Y56550000D02*
X60715000Y56550000D01*
G75*
G02*
X60565000Y56700000I0J150000D01*
G01*
X60565000Y58350000D01*
G75*
G02*
X60715000Y58500000I150000J0D01*
G01*
X61015000Y58500000D01*
G75*
G02*
X61165000Y58350000I0J-150000D01*
G01*
X61165000Y56700000D01*
G75*
G02*
X61015000Y56550000I-150000J0D01*
G01*
G37*
G36*
G01*
X62285000Y56550000D02*
X61985000Y56550000D01*
G75*
G02*
X61835000Y56700000I0J150000D01*
G01*
X61835000Y58350000D01*
G75*
G02*
X61985000Y58500000I150000J0D01*
G01*
X62285000Y58500000D01*
G75*
G02*
X62435000Y58350000I0J-150000D01*
G01*
X62435000Y56700000D01*
G75*
G02*
X62285000Y56550000I-150000J0D01*
G01*
G37*
G36*
G01*
X63555000Y56550000D02*
X63255000Y56550000D01*
G75*
G02*
X63105000Y56700000I0J150000D01*
G01*
X63105000Y58350000D01*
G75*
G02*
X63255000Y58500000I150000J0D01*
G01*
X63555000Y58500000D01*
G75*
G02*
X63705000Y58350000I0J-150000D01*
G01*
X63705000Y56700000D01*
G75*
G02*
X63555000Y56550000I-150000J0D01*
G01*
G37*
G36*
G01*
X63555000Y61500000D02*
X63255000Y61500000D01*
G75*
G02*
X63105000Y61650000I0J150000D01*
G01*
X63105000Y63300000D01*
G75*
G02*
X63255000Y63450000I150000J0D01*
G01*
X63555000Y63450000D01*
G75*
G02*
X63705000Y63300000I0J-150000D01*
G01*
X63705000Y61650000D01*
G75*
G02*
X63555000Y61500000I-150000J0D01*
G01*
G37*
G36*
G01*
X62285000Y61500000D02*
X61985000Y61500000D01*
G75*
G02*
X61835000Y61650000I0J150000D01*
G01*
X61835000Y63300000D01*
G75*
G02*
X61985000Y63450000I150000J0D01*
G01*
X62285000Y63450000D01*
G75*
G02*
X62435000Y63300000I0J-150000D01*
G01*
X62435000Y61650000D01*
G75*
G02*
X62285000Y61500000I-150000J0D01*
G01*
G37*
G36*
G01*
X61015000Y61500000D02*
X60715000Y61500000D01*
G75*
G02*
X60565000Y61650000I0J150000D01*
G01*
X60565000Y63300000D01*
G75*
G02*
X60715000Y63450000I150000J0D01*
G01*
X61015000Y63450000D01*
G75*
G02*
X61165000Y63300000I0J-150000D01*
G01*
X61165000Y61650000D01*
G75*
G02*
X61015000Y61500000I-150000J0D01*
G01*
G37*
G36*
G01*
X59745000Y61500000D02*
X59445000Y61500000D01*
G75*
G02*
X59295000Y61650000I0J150000D01*
G01*
X59295000Y63300000D01*
G75*
G02*
X59445000Y63450000I150000J0D01*
G01*
X59745000Y63450000D01*
G75*
G02*
X59895000Y63300000I0J-150000D01*
G01*
X59895000Y61650000D01*
G75*
G02*
X59745000Y61500000I-150000J0D01*
G01*
G37*
G04 #@! TD*
G04 #@! TO.C,P47*
X107500000Y128500000D03*
G04 #@! TD*
G04 #@! TO.C,U2*
G36*
G01*
X53745000Y56550000D02*
X53445000Y56550000D01*
G75*
G02*
X53295000Y56700000I0J150000D01*
G01*
X53295000Y58350000D01*
G75*
G02*
X53445000Y58500000I150000J0D01*
G01*
X53745000Y58500000D01*
G75*
G02*
X53895000Y58350000I0J-150000D01*
G01*
X53895000Y56700000D01*
G75*
G02*
X53745000Y56550000I-150000J0D01*
G01*
G37*
G36*
G01*
X55015000Y56550000D02*
X54715000Y56550000D01*
G75*
G02*
X54565000Y56700000I0J150000D01*
G01*
X54565000Y58350000D01*
G75*
G02*
X54715000Y58500000I150000J0D01*
G01*
X55015000Y58500000D01*
G75*
G02*
X55165000Y58350000I0J-150000D01*
G01*
X55165000Y56700000D01*
G75*
G02*
X55015000Y56550000I-150000J0D01*
G01*
G37*
G36*
G01*
X56285000Y56550000D02*
X55985000Y56550000D01*
G75*
G02*
X55835000Y56700000I0J150000D01*
G01*
X55835000Y58350000D01*
G75*
G02*
X55985000Y58500000I150000J0D01*
G01*
X56285000Y58500000D01*
G75*
G02*
X56435000Y58350000I0J-150000D01*
G01*
X56435000Y56700000D01*
G75*
G02*
X56285000Y56550000I-150000J0D01*
G01*
G37*
G36*
G01*
X57555000Y56550000D02*
X57255000Y56550000D01*
G75*
G02*
X57105000Y56700000I0J150000D01*
G01*
X57105000Y58350000D01*
G75*
G02*
X57255000Y58500000I150000J0D01*
G01*
X57555000Y58500000D01*
G75*
G02*
X57705000Y58350000I0J-150000D01*
G01*
X57705000Y56700000D01*
G75*
G02*
X57555000Y56550000I-150000J0D01*
G01*
G37*
G36*
G01*
X57555000Y61500000D02*
X57255000Y61500000D01*
G75*
G02*
X57105000Y61650000I0J150000D01*
G01*
X57105000Y63300000D01*
G75*
G02*
X57255000Y63450000I150000J0D01*
G01*
X57555000Y63450000D01*
G75*
G02*
X57705000Y63300000I0J-150000D01*
G01*
X57705000Y61650000D01*
G75*
G02*
X57555000Y61500000I-150000J0D01*
G01*
G37*
G36*
G01*
X56285000Y61500000D02*
X55985000Y61500000D01*
G75*
G02*
X55835000Y61650000I0J150000D01*
G01*
X55835000Y63300000D01*
G75*
G02*
X55985000Y63450000I150000J0D01*
G01*
X56285000Y63450000D01*
G75*
G02*
X56435000Y63300000I0J-150000D01*
G01*
X56435000Y61650000D01*
G75*
G02*
X56285000Y61500000I-150000J0D01*
G01*
G37*
G36*
G01*
X55015000Y61500000D02*
X54715000Y61500000D01*
G75*
G02*
X54565000Y61650000I0J150000D01*
G01*
X54565000Y63300000D01*
G75*
G02*
X54715000Y63450000I150000J0D01*
G01*
X55015000Y63450000D01*
G75*
G02*
X55165000Y63300000I0J-150000D01*
G01*
X55165000Y61650000D01*
G75*
G02*
X55015000Y61500000I-150000J0D01*
G01*
G37*
G36*
G01*
X53745000Y61500000D02*
X53445000Y61500000D01*
G75*
G02*
X53295000Y61650000I0J150000D01*
G01*
X53295000Y63300000D01*
G75*
G02*
X53445000Y63450000I150000J0D01*
G01*
X53745000Y63450000D01*
G75*
G02*
X53895000Y63300000I0J-150000D01*
G01*
X53895000Y61650000D01*
G75*
G02*
X53745000Y61500000I-150000J0D01*
G01*
G37*
G04 #@! TD*
D12*
G04 #@! TO.C,R38*
X51500000Y119695000D03*
G36*
G01*
X52125000Y120149999D02*
X50875000Y120149999D01*
G75*
G02*
X50775000Y120249999I0J100000D01*
G01*
X50775000Y121049999D01*
G75*
G02*
X50875000Y121149999I100000J0D01*
G01*
X52125000Y121149999D01*
G75*
G02*
X52225000Y121049999I0J-100000D01*
G01*
X52225000Y120249999D01*
G75*
G02*
X52125000Y120149999I-100000J0D01*
G01*
G37*
G36*
G01*
X52125000Y122050021D02*
X50875000Y122050021D01*
G75*
G02*
X50775000Y122150021I0J100000D01*
G01*
X50775000Y122950021D01*
G75*
G02*
X50875000Y123050021I100000J0D01*
G01*
X52125000Y123050021D01*
G75*
G02*
X52225000Y122950021I0J-100000D01*
G01*
X52225000Y122150021D01*
G75*
G02*
X52125000Y122050021I-100000J0D01*
G01*
G37*
X51500000Y123505000D03*
G04 #@! TD*
D16*
G04 #@! TO.C,J24*
X134800000Y73100000D03*
G04 #@! TD*
G04 #@! TO.C,D35*
G36*
G01*
X43149998Y72560001D02*
X43149998Y73040001D01*
G75*
G02*
X43209998Y73100001I60000J0D01*
G01*
X43689998Y73100001D01*
G75*
G02*
X43749998Y73040001I0J-60000D01*
G01*
X43749998Y72560001D01*
G75*
G02*
X43689998Y72500001I-60000J0D01*
G01*
X43209998Y72500001D01*
G75*
G02*
X43149998Y72560001I0J60000D01*
G01*
G37*
G36*
G01*
X43149998Y74760001D02*
X43149998Y75240001D01*
G75*
G02*
X43209998Y75300001I60000J0D01*
G01*
X43689998Y75300001D01*
G75*
G02*
X43749998Y75240001I0J-60000D01*
G01*
X43749998Y74760001D01*
G75*
G02*
X43689998Y74700001I-60000J0D01*
G01*
X43209998Y74700001D01*
G75*
G02*
X43149998Y74760001I0J60000D01*
G01*
G37*
G04 #@! TD*
D12*
G04 #@! TO.C,R9*
X66500000Y119695000D03*
G36*
G01*
X67125000Y120149999D02*
X65875000Y120149999D01*
G75*
G02*
X65775000Y120249999I0J100000D01*
G01*
X65775000Y121049999D01*
G75*
G02*
X65875000Y121149999I100000J0D01*
G01*
X67125000Y121149999D01*
G75*
G02*
X67225000Y121049999I0J-100000D01*
G01*
X67225000Y120249999D01*
G75*
G02*
X67125000Y120149999I-100000J0D01*
G01*
G37*
G36*
G01*
X67125000Y122050021D02*
X65875000Y122050021D01*
G75*
G02*
X65775000Y122150021I0J100000D01*
G01*
X65775000Y122950021D01*
G75*
G02*
X65875000Y123050021I100000J0D01*
G01*
X67125000Y123050021D01*
G75*
G02*
X67225000Y122950021I0J-100000D01*
G01*
X67225000Y122150021D01*
G75*
G02*
X67125000Y122050021I-100000J0D01*
G01*
G37*
X66500000Y123505000D03*
G04 #@! TD*
G04 #@! TO.C,R97*
G36*
G01*
X41705000Y93175000D02*
X42485000Y93175000D01*
G75*
G02*
X42555000Y93105000I0J-70000D01*
G01*
X42555000Y92545000D01*
G75*
G02*
X42485000Y92475000I-70000J0D01*
G01*
X41705000Y92475000D01*
G75*
G02*
X41635000Y92545000I0J70000D01*
G01*
X41635000Y93105000D01*
G75*
G02*
X41705000Y93175000I70000J0D01*
G01*
G37*
G36*
G01*
X41705000Y91575000D02*
X42485000Y91575000D01*
G75*
G02*
X42555000Y91505000I0J-70000D01*
G01*
X42555000Y90945000D01*
G75*
G02*
X42485000Y90875000I-70000J0D01*
G01*
X41705000Y90875000D01*
G75*
G02*
X41635000Y90945000I0J70000D01*
G01*
X41635000Y91505000D01*
G75*
G02*
X41705000Y91575000I70000J0D01*
G01*
G37*
G04 #@! TD*
D10*
G04 #@! TO.C,P35*
X116500000Y119500000D03*
G04 #@! TD*
G04 #@! TO.C,U6*
G36*
G01*
X47745000Y56550000D02*
X47445000Y56550000D01*
G75*
G02*
X47295000Y56700000I0J150000D01*
G01*
X47295000Y58350000D01*
G75*
G02*
X47445000Y58500000I150000J0D01*
G01*
X47745000Y58500000D01*
G75*
G02*
X47895000Y58350000I0J-150000D01*
G01*
X47895000Y56700000D01*
G75*
G02*
X47745000Y56550000I-150000J0D01*
G01*
G37*
G36*
G01*
X49015000Y56550000D02*
X48715000Y56550000D01*
G75*
G02*
X48565000Y56700000I0J150000D01*
G01*
X48565000Y58350000D01*
G75*
G02*
X48715000Y58500000I150000J0D01*
G01*
X49015000Y58500000D01*
G75*
G02*
X49165000Y58350000I0J-150000D01*
G01*
X49165000Y56700000D01*
G75*
G02*
X49015000Y56550000I-150000J0D01*
G01*
G37*
G36*
G01*
X50285000Y56550000D02*
X49985000Y56550000D01*
G75*
G02*
X49835000Y56700000I0J150000D01*
G01*
X49835000Y58350000D01*
G75*
G02*
X49985000Y58500000I150000J0D01*
G01*
X50285000Y58500000D01*
G75*
G02*
X50435000Y58350000I0J-150000D01*
G01*
X50435000Y56700000D01*
G75*
G02*
X50285000Y56550000I-150000J0D01*
G01*
G37*
G36*
G01*
X51555000Y56550000D02*
X51255000Y56550000D01*
G75*
G02*
X51105000Y56700000I0J150000D01*
G01*
X51105000Y58350000D01*
G75*
G02*
X51255000Y58500000I150000J0D01*
G01*
X51555000Y58500000D01*
G75*
G02*
X51705000Y58350000I0J-150000D01*
G01*
X51705000Y56700000D01*
G75*
G02*
X51555000Y56550000I-150000J0D01*
G01*
G37*
G36*
G01*
X51555000Y61500000D02*
X51255000Y61500000D01*
G75*
G02*
X51105000Y61650000I0J150000D01*
G01*
X51105000Y63300000D01*
G75*
G02*
X51255000Y63450000I150000J0D01*
G01*
X51555000Y63450000D01*
G75*
G02*
X51705000Y63300000I0J-150000D01*
G01*
X51705000Y61650000D01*
G75*
G02*
X51555000Y61500000I-150000J0D01*
G01*
G37*
G36*
G01*
X50285000Y61500000D02*
X49985000Y61500000D01*
G75*
G02*
X49835000Y61650000I0J150000D01*
G01*
X49835000Y63300000D01*
G75*
G02*
X49985000Y63450000I150000J0D01*
G01*
X50285000Y63450000D01*
G75*
G02*
X50435000Y63300000I0J-150000D01*
G01*
X50435000Y61650000D01*
G75*
G02*
X50285000Y61500000I-150000J0D01*
G01*
G37*
G36*
G01*
X49015000Y61500000D02*
X48715000Y61500000D01*
G75*
G02*
X48565000Y61650000I0J150000D01*
G01*
X48565000Y63300000D01*
G75*
G02*
X48715000Y63450000I150000J0D01*
G01*
X49015000Y63450000D01*
G75*
G02*
X49165000Y63300000I0J-150000D01*
G01*
X49165000Y61650000D01*
G75*
G02*
X49015000Y61500000I-150000J0D01*
G01*
G37*
G36*
G01*
X47745000Y61500000D02*
X47445000Y61500000D01*
G75*
G02*
X47295000Y61650000I0J150000D01*
G01*
X47295000Y63300000D01*
G75*
G02*
X47445000Y63450000I150000J0D01*
G01*
X47745000Y63450000D01*
G75*
G02*
X47895000Y63300000I0J-150000D01*
G01*
X47895000Y61650000D01*
G75*
G02*
X47745000Y61500000I-150000J0D01*
G01*
G37*
G04 #@! TD*
G04 #@! TO.C,P40*
X131500000Y124000000D03*
G04 #@! TD*
G04 #@! TO.C,G6*
X136212813Y24944788D03*
X136212813Y27484788D03*
X136212813Y30024788D03*
X136212813Y32564788D03*
X136212813Y35104788D03*
X138752813Y24944788D03*
X138752813Y27484788D03*
X138752813Y30024788D03*
X138752813Y32564788D03*
X138752813Y35104788D03*
G04 #@! TD*
G04 #@! TO.C,P8*
X54000000Y123500000D03*
G04 #@! TD*
G04 #@! TO.C,P39*
X104700000Y115100000D03*
G04 #@! TD*
D26*
G04 #@! TO.C,M6*
X68974998Y16125006D03*
D27*
X58625004Y16175004D03*
X59125005Y16175004D03*
D28*
X65675002Y17225002D03*
X64800000Y17750002D03*
X65975004Y18500000D03*
X65900001Y22050001D03*
G04 #@! TD*
D10*
G04 #@! TO.C,G8*
X151406545Y37644788D03*
X151406545Y40184788D03*
X151406545Y42724788D03*
X151406545Y45264788D03*
X151406545Y47804788D03*
X153946545Y37644788D03*
X153946545Y40184788D03*
X153946545Y42724788D03*
X153946545Y45264788D03*
X153946545Y47804788D03*
G04 #@! TD*
G04 #@! TO.C,P52*
X125500000Y128500000D03*
G04 #@! TD*
G04 #@! TO.C,D42*
G36*
G01*
X43085000Y106275000D02*
X44105000Y106275000D01*
G75*
G02*
X44195000Y106185000I0J-90000D01*
G01*
X44195000Y105465000D01*
G75*
G02*
X44105000Y105375000I-90000J0D01*
G01*
X43085000Y105375000D01*
G75*
G02*
X42995000Y105465000I0J90000D01*
G01*
X42995000Y106185000D01*
G75*
G02*
X43085000Y106275000I90000J0D01*
G01*
G37*
G36*
G01*
X43085000Y102975000D02*
X44105000Y102975000D01*
G75*
G02*
X44195000Y102885000I0J-90000D01*
G01*
X44195000Y102165000D01*
G75*
G02*
X44105000Y102075000I-90000J0D01*
G01*
X43085000Y102075000D01*
G75*
G02*
X42995000Y102165000I0J90000D01*
G01*
X42995000Y102885000D01*
G75*
G02*
X43085000Y102975000I90000J0D01*
G01*
G37*
G04 #@! TD*
G04 #@! TO.C,D30*
G36*
G01*
X56999998Y79200001D02*
X57899998Y79200001D01*
G75*
G02*
X57999998Y79100001I0J-100000D01*
G01*
X57999998Y78300001D01*
G75*
G02*
X57899998Y78200001I-100000J0D01*
G01*
X56999998Y78200001D01*
G75*
G02*
X56899998Y78300001I0J100000D01*
G01*
X56899998Y79100001D01*
G75*
G02*
X56999998Y79200001I100000J0D01*
G01*
G37*
G36*
G01*
X56999998Y77500001D02*
X57899998Y77500001D01*
G75*
G02*
X57999998Y77400001I0J-100000D01*
G01*
X57999998Y76600001D01*
G75*
G02*
X57899998Y76500001I-100000J0D01*
G01*
X56999998Y76500001D01*
G75*
G02*
X56899998Y76600001I0J100000D01*
G01*
X56899998Y77400001D01*
G75*
G02*
X56999998Y77500001I100000J0D01*
G01*
G37*
G04 #@! TD*
G04 #@! TO.C,D37*
G36*
G01*
X41050000Y79200000D02*
X41950000Y79200000D01*
G75*
G02*
X42050000Y79100000I0J-100000D01*
G01*
X42050000Y78300000D01*
G75*
G02*
X41950000Y78200000I-100000J0D01*
G01*
X41050000Y78200000D01*
G75*
G02*
X40950000Y78300000I0J100000D01*
G01*
X40950000Y79100000D01*
G75*
G02*
X41050000Y79200000I100000J0D01*
G01*
G37*
G36*
G01*
X41050000Y77500000D02*
X41950000Y77500000D01*
G75*
G02*
X42050000Y77400000I0J-100000D01*
G01*
X42050000Y76600000D01*
G75*
G02*
X41950000Y76500000I-100000J0D01*
G01*
X41050000Y76500000D01*
G75*
G02*
X40950000Y76600000I0J100000D01*
G01*
X40950000Y77400000D01*
G75*
G02*
X41050000Y77500000I100000J0D01*
G01*
G37*
G04 #@! TD*
D12*
G04 #@! TO.C,R46*
X69000000Y119695000D03*
G36*
G01*
X69625000Y120149999D02*
X68375000Y120149999D01*
G75*
G02*
X68275000Y120249999I0J100000D01*
G01*
X68275000Y121049999D01*
G75*
G02*
X68375000Y121149999I100000J0D01*
G01*
X69625000Y121149999D01*
G75*
G02*
X69725000Y121049999I0J-100000D01*
G01*
X69725000Y120249999D01*
G75*
G02*
X69625000Y120149999I-100000J0D01*
G01*
G37*
G36*
G01*
X69625000Y122050021D02*
X68375000Y122050021D01*
G75*
G02*
X68275000Y122150021I0J100000D01*
G01*
X68275000Y122950021D01*
G75*
G02*
X68375000Y123050021I100000J0D01*
G01*
X69625000Y123050021D01*
G75*
G02*
X69725000Y122950021I0J-100000D01*
G01*
X69725000Y122150021D01*
G75*
G02*
X69625000Y122050021I-100000J0D01*
G01*
G37*
X69000000Y123505000D03*
G04 #@! TD*
G04 #@! TO.C,D3*
G36*
G01*
X53249998Y72560001D02*
X53249998Y73040001D01*
G75*
G02*
X53309998Y73100001I60000J0D01*
G01*
X53789998Y73100001D01*
G75*
G02*
X53849998Y73040001I0J-60000D01*
G01*
X53849998Y72560001D01*
G75*
G02*
X53789998Y72500001I-60000J0D01*
G01*
X53309998Y72500001D01*
G75*
G02*
X53249998Y72560001I0J60000D01*
G01*
G37*
G36*
G01*
X53249998Y74760001D02*
X53249998Y75240001D01*
G75*
G02*
X53309998Y75300001I60000J0D01*
G01*
X53789998Y75300001D01*
G75*
G02*
X53849998Y75240001I0J-60000D01*
G01*
X53849998Y74760001D01*
G75*
G02*
X53789998Y74700001I-60000J0D01*
G01*
X53309998Y74700001D01*
G75*
G02*
X53249998Y74760001I0J60000D01*
G01*
G37*
G04 #@! TD*
G04 #@! TO.C,D22*
G36*
G01*
X51200000Y72560001D02*
X51200000Y73040001D01*
G75*
G02*
X51260000Y73100001I60000J0D01*
G01*
X51740000Y73100001D01*
G75*
G02*
X51800000Y73040001I0J-60000D01*
G01*
X51800000Y72560001D01*
G75*
G02*
X51740000Y72500001I-60000J0D01*
G01*
X51260000Y72500001D01*
G75*
G02*
X51200000Y72560001I0J60000D01*
G01*
G37*
G36*
G01*
X51200000Y74760001D02*
X51200000Y75240001D01*
G75*
G02*
X51260000Y75300001I60000J0D01*
G01*
X51740000Y75300001D01*
G75*
G02*
X51800000Y75240001I0J-60000D01*
G01*
X51800000Y74760001D01*
G75*
G02*
X51740000Y74700001I-60000J0D01*
G01*
X51260000Y74700001D01*
G75*
G02*
X51200000Y74760001I0J60000D01*
G01*
G37*
G04 #@! TD*
D10*
G04 #@! TO.C,P22*
X27500000Y123500000D03*
G04 #@! TD*
D22*
G04 #@! TO.C,M9*
X60074999Y101150000D03*
X59124999Y101150000D03*
X58175001Y101150000D03*
X59174999Y109850000D03*
X60074999Y109850000D03*
G04 #@! TD*
D10*
G04 #@! TO.C,P6*
X30500000Y116200000D03*
G04 #@! TD*
G04 #@! TO.C,P43*
X122500000Y124000000D03*
G04 #@! TD*
D12*
G04 #@! TO.C,R54*
X33000000Y119690000D03*
G36*
G01*
X33625000Y120144999D02*
X32375000Y120144999D01*
G75*
G02*
X32275000Y120244999I0J100000D01*
G01*
X32275000Y121044999D01*
G75*
G02*
X32375000Y121144999I100000J0D01*
G01*
X33625000Y121144999D01*
G75*
G02*
X33725000Y121044999I0J-100000D01*
G01*
X33725000Y120244999D01*
G75*
G02*
X33625000Y120144999I-100000J0D01*
G01*
G37*
G36*
G01*
X33625000Y122045021D02*
X32375000Y122045021D01*
G75*
G02*
X32275000Y122145021I0J100000D01*
G01*
X32275000Y122945021D01*
G75*
G02*
X32375000Y123045021I100000J0D01*
G01*
X33625000Y123045021D01*
G75*
G02*
X33725000Y122945021I0J-100000D01*
G01*
X33725000Y122145021D01*
G75*
G02*
X33625000Y122045021I-100000J0D01*
G01*
G37*
X33000000Y123500000D03*
G04 #@! TD*
D10*
G04 #@! TO.C,P2*
X74400000Y119100000D03*
G04 #@! TD*
G04 #@! TO.C,R16*
G36*
G01*
X57231012Y71235001D02*
X57231012Y70565001D01*
G75*
G02*
X57166012Y70500001I-65000J0D01*
G01*
X56646012Y70500001D01*
G75*
G02*
X56581012Y70565001I0J65000D01*
G01*
X56581012Y71235001D01*
G75*
G02*
X56646012Y71300001I65000J0D01*
G01*
X57166012Y71300001D01*
G75*
G02*
X57231012Y71235001I0J-65000D01*
G01*
G37*
G36*
G01*
X56256012Y71255001D02*
X56256012Y70545001D01*
G75*
G02*
X56211012Y70500001I-45000J0D01*
G01*
X55851012Y70500001D01*
G75*
G02*
X55806012Y70545001I0J45000D01*
G01*
X55806012Y71255001D01*
G75*
G02*
X55851012Y71300001I45000J0D01*
G01*
X56211012Y71300001D01*
G75*
G02*
X56256012Y71255001I0J-45000D01*
G01*
G37*
G36*
G01*
X55456012Y71255001D02*
X55456012Y70545001D01*
G75*
G02*
X55411012Y70500001I-45000J0D01*
G01*
X55051012Y70500001D01*
G75*
G02*
X55006012Y70545001I0J45000D01*
G01*
X55006012Y71255001D01*
G75*
G02*
X55051012Y71300001I45000J0D01*
G01*
X55411012Y71300001D01*
G75*
G02*
X55456012Y71255001I0J-45000D01*
G01*
G37*
G36*
G01*
X54681012Y71235001D02*
X54681012Y70565001D01*
G75*
G02*
X54616012Y70500001I-65000J0D01*
G01*
X54096012Y70500001D01*
G75*
G02*
X54031012Y70565001I0J65000D01*
G01*
X54031012Y71235001D01*
G75*
G02*
X54096012Y71300001I65000J0D01*
G01*
X54616012Y71300001D01*
G75*
G02*
X54681012Y71235001I0J-65000D01*
G01*
G37*
G36*
G01*
X54681012Y69435001D02*
X54681012Y68765001D01*
G75*
G02*
X54616012Y68700001I-65000J0D01*
G01*
X54096012Y68700001D01*
G75*
G02*
X54031012Y68765001I0J65000D01*
G01*
X54031012Y69435001D01*
G75*
G02*
X54096012Y69500001I65000J0D01*
G01*
X54616012Y69500001D01*
G75*
G02*
X54681012Y69435001I0J-65000D01*
G01*
G37*
G36*
G01*
X55456012Y69455001D02*
X55456012Y68745001D01*
G75*
G02*
X55411012Y68700001I-45000J0D01*
G01*
X55051012Y68700001D01*
G75*
G02*
X55006012Y68745001I0J45000D01*
G01*
X55006012Y69455001D01*
G75*
G02*
X55051012Y69500001I45000J0D01*
G01*
X55411012Y69500001D01*
G75*
G02*
X55456012Y69455001I0J-45000D01*
G01*
G37*
G36*
G01*
X56256012Y69455001D02*
X56256012Y68745001D01*
G75*
G02*
X56211012Y68700001I-45000J0D01*
G01*
X55851012Y68700001D01*
G75*
G02*
X55806012Y68745001I0J45000D01*
G01*
X55806012Y69455001D01*
G75*
G02*
X55851012Y69500001I45000J0D01*
G01*
X56211012Y69500001D01*
G75*
G02*
X56256012Y69455001I0J-45000D01*
G01*
G37*
G36*
G01*
X57231012Y69435001D02*
X57231012Y68765001D01*
G75*
G02*
X57166012Y68700001I-65000J0D01*
G01*
X56646012Y68700001D01*
G75*
G02*
X56581012Y68765001I0J65000D01*
G01*
X56581012Y69435001D01*
G75*
G02*
X56646012Y69500001I65000J0D01*
G01*
X57166012Y69500001D01*
G75*
G02*
X57231012Y69435001I0J-65000D01*
G01*
G37*
G04 #@! TD*
D12*
G04 #@! TO.C,R22*
X76900000Y112795000D03*
G36*
G01*
X77525000Y113249999D02*
X76275000Y113249999D01*
G75*
G02*
X76175000Y113349999I0J100000D01*
G01*
X76175000Y114149999D01*
G75*
G02*
X76275000Y114249999I100000J0D01*
G01*
X77525000Y114249999D01*
G75*
G02*
X77625000Y114149999I0J-100000D01*
G01*
X77625000Y113349999D01*
G75*
G02*
X77525000Y113249999I-100000J0D01*
G01*
G37*
G36*
G01*
X77525000Y115150021D02*
X76275000Y115150021D01*
G75*
G02*
X76175000Y115250021I0J100000D01*
G01*
X76175000Y116050021D01*
G75*
G02*
X76275000Y116150021I100000J0D01*
G01*
X77525000Y116150021D01*
G75*
G02*
X77625000Y116050021I0J-100000D01*
G01*
X77625000Y115250021D01*
G75*
G02*
X77525000Y115150021I-100000J0D01*
G01*
G37*
X76900000Y116605000D03*
G04 #@! TD*
G04 #@! TO.C,R56*
X98500000Y124595000D03*
G36*
G01*
X99125000Y125049999D02*
X97875000Y125049999D01*
G75*
G02*
X97775000Y125149999I0J100000D01*
G01*
X97775000Y125949999D01*
G75*
G02*
X97875000Y126049999I100000J0D01*
G01*
X99125000Y126049999D01*
G75*
G02*
X99225000Y125949999I0J-100000D01*
G01*
X99225000Y125149999D01*
G75*
G02*
X99125000Y125049999I-100000J0D01*
G01*
G37*
G36*
G01*
X99125000Y126950021D02*
X97875000Y126950021D01*
G75*
G02*
X97775000Y127050021I0J100000D01*
G01*
X97775000Y127850021D01*
G75*
G02*
X97875000Y127950021I100000J0D01*
G01*
X99125000Y127950021D01*
G75*
G02*
X99225000Y127850021I0J-100000D01*
G01*
X99225000Y127050021D01*
G75*
G02*
X99125000Y126950021I-100000J0D01*
G01*
G37*
X98500000Y128405000D03*
G04 #@! TD*
G04 #@! TO.C,R60*
X93100000Y119690000D03*
G36*
G01*
X93725000Y120144999D02*
X92475000Y120144999D01*
G75*
G02*
X92375000Y120244999I0J100000D01*
G01*
X92375000Y121044999D01*
G75*
G02*
X92475000Y121144999I100000J0D01*
G01*
X93725000Y121144999D01*
G75*
G02*
X93825000Y121044999I0J-100000D01*
G01*
X93825000Y120244999D01*
G75*
G02*
X93725000Y120144999I-100000J0D01*
G01*
G37*
G36*
G01*
X93725000Y122045021D02*
X92475000Y122045021D01*
G75*
G02*
X92375000Y122145021I0J100000D01*
G01*
X92375000Y122945021D01*
G75*
G02*
X92475000Y123045021I100000J0D01*
G01*
X93725000Y123045021D01*
G75*
G02*
X93825000Y122945021I0J-100000D01*
G01*
X93825000Y122145021D01*
G75*
G02*
X93725000Y122045021I-100000J0D01*
G01*
G37*
X93100000Y123500000D03*
G04 #@! TD*
G04 #@! TO.C,D29*
G36*
G01*
X55031014Y79200000D02*
X55931014Y79200000D01*
G75*
G02*
X56031014Y79100000I0J-100000D01*
G01*
X56031014Y78300000D01*
G75*
G02*
X55931014Y78200000I-100000J0D01*
G01*
X55031014Y78200000D01*
G75*
G02*
X54931014Y78300000I0J100000D01*
G01*
X54931014Y79100000D01*
G75*
G02*
X55031014Y79200000I100000J0D01*
G01*
G37*
G36*
G01*
X55031014Y77500000D02*
X55931014Y77500000D01*
G75*
G02*
X56031014Y77400000I0J-100000D01*
G01*
X56031014Y76600000D01*
G75*
G02*
X55931014Y76500000I-100000J0D01*
G01*
X55031014Y76500000D01*
G75*
G02*
X54931014Y76600000I0J100000D01*
G01*
X54931014Y77400000D01*
G75*
G02*
X55031014Y77500000I100000J0D01*
G01*
G37*
G04 #@! TD*
G04 #@! TO.C,D17*
G36*
G01*
X47050000Y79200000D02*
X47950000Y79200000D01*
G75*
G02*
X48050000Y79100000I0J-100000D01*
G01*
X48050000Y78300000D01*
G75*
G02*
X47950000Y78200000I-100000J0D01*
G01*
X47050000Y78200000D01*
G75*
G02*
X46950000Y78300000I0J100000D01*
G01*
X46950000Y79100000D01*
G75*
G02*
X47050000Y79200000I100000J0D01*
G01*
G37*
G36*
G01*
X47050000Y77500000D02*
X47950000Y77500000D01*
G75*
G02*
X48050000Y77400000I0J-100000D01*
G01*
X48050000Y76600000D01*
G75*
G02*
X47950000Y76500000I-100000J0D01*
G01*
X47050000Y76500000D01*
G75*
G02*
X46950000Y76600000I0J100000D01*
G01*
X46950000Y77400000D01*
G75*
G02*
X47050000Y77500000I100000J0D01*
G01*
G37*
G04 #@! TD*
G04 #@! TO.C,R27*
X61500000Y119695000D03*
G36*
G01*
X62125000Y120149999D02*
X60875000Y120149999D01*
G75*
G02*
X60775000Y120249999I0J100000D01*
G01*
X60775000Y121049999D01*
G75*
G02*
X60875000Y121149999I100000J0D01*
G01*
X62125000Y121149999D01*
G75*
G02*
X62225000Y121049999I0J-100000D01*
G01*
X62225000Y120249999D01*
G75*
G02*
X62125000Y120149999I-100000J0D01*
G01*
G37*
G36*
G01*
X62125000Y122050021D02*
X60875000Y122050021D01*
G75*
G02*
X60775000Y122150021I0J100000D01*
G01*
X60775000Y122950021D01*
G75*
G02*
X60875000Y123050021I100000J0D01*
G01*
X62125000Y123050021D01*
G75*
G02*
X62225000Y122950021I0J-100000D01*
G01*
X62225000Y122150021D01*
G75*
G02*
X62125000Y122050021I-100000J0D01*
G01*
G37*
X61500000Y123505000D03*
G04 #@! TD*
D10*
G04 #@! TO.C,P15*
X74400000Y123500000D03*
G04 #@! TD*
G04 #@! TO.C,P73*
X87900000Y68200000D03*
G04 #@! TD*
G04 #@! TO.C,P55*
X110500000Y128500000D03*
G04 #@! TD*
G04 #@! TO.C,P54*
X113500000Y128500000D03*
G04 #@! TD*
D12*
G04 #@! TO.C,R47*
X64000000Y119695000D03*
G36*
G01*
X64625000Y120149999D02*
X63375000Y120149999D01*
G75*
G02*
X63275000Y120249999I0J100000D01*
G01*
X63275000Y121049999D01*
G75*
G02*
X63375000Y121149999I100000J0D01*
G01*
X64625000Y121149999D01*
G75*
G02*
X64725000Y121049999I0J-100000D01*
G01*
X64725000Y120249999D01*
G75*
G02*
X64625000Y120149999I-100000J0D01*
G01*
G37*
G36*
G01*
X64625000Y122050021D02*
X63375000Y122050021D01*
G75*
G02*
X63275000Y122150021I0J100000D01*
G01*
X63275000Y122950021D01*
G75*
G02*
X63375000Y123050021I100000J0D01*
G01*
X64625000Y123050021D01*
G75*
G02*
X64725000Y122950021I0J-100000D01*
G01*
X64725000Y122150021D01*
G75*
G02*
X64625000Y122050021I-100000J0D01*
G01*
G37*
X64000000Y123505000D03*
G04 #@! TD*
M02*
