M48
; DRILL file {KiCad (6.0.0)} date Wed Aug 31 22:59:24 2022
; FORMAT={2:4/ absolute / inch / suppress leading zeros}
; #@! TF.CreationDate,2022-08-31T22:59:24+03:00
; #@! TF.GenerationSoftware,Kicad,Pcbnew,(6.0.0)
; #@! TF.FileFunction,MixedPlating,1,4
FMAT,2
INCH,TZ
; #@! TA.AperFunction,Plated,PTH,ComponentDrill
T1C0.0118
; #@! TA.AperFunction,Plated,PTH,ViaDrill
T2C0.0118
; #@! TA.AperFunction,Plated,PTH,ComponentDrill
T3C0.0118
; #@! TA.AperFunction,Plated,PTH,ComponentDrill
T4C0.0320
; #@! TA.AperFunction,Plated,PTH,ComponentDrill
T5C0.0362
; #@! TA.AperFunction,Plated,PTH,ComponentDrill
T6C0.0374
; #@! TA.AperFunction,Plated,PTH,ViaDrill
T7C0.0394
; #@! TA.AperFunction,Plated,PTH,ComponentDrill
T8C0.0394
; #@! TA.AperFunction,Plated,PTH,ComponentDrill
T9C0.0433
; #@! TA.AperFunction,Plated,PTH,ComponentDrill
T10C0.0472
; #@! TA.AperFunction,Plated,PTH,ComponentDrill
T11C0.0551
; #@! TA.AperFunction,Plated,PTH,ComponentDrill
T12C0.0591
; #@! TA.AperFunction,Plated,PTH,ComponentDrill
T13C0.0787
; #@! TA.AperFunction,Plated,PTH,ComponentDrill
T14C0.0917
; #@! TA.AperFunction,NonPlated,NPTH,ComponentDrill
T15C0.0984
; #@! TA.AperFunction,NonPlated,NPTH,ComponentDrill
T16C0.1181
; #@! TA.AperFunction,NonPlated,NPTH,ComponentDrill
T17C0.1457
%
G90
G05
T1
X25223Y28204
X27713Y30979
X27968Y8616
X28454Y30786
X28461Y28726
X28588Y6685
X30202Y33155
X30251Y6421
X30607Y31422
X30714Y6421
X31570Y6421
X32446Y6421
X33589Y6689
X34493Y33155
X36897Y5458
X38295Y5487
X38590Y5025
X38797Y5369
X40084Y33155
X44365Y34651
X44788Y3806
X44818Y2409
X44906Y4308
X44912Y33155
X45251Y4102
X49700Y2837
X49818Y4441
X50566Y4447
X50733Y5169
X50950Y4362
X51294Y4447
X51629Y4476
X51757Y5169
X52268Y4654
X52524Y5169
T2
X3031Y33465
X3071Y15197
X3071Y3031
X3110Y54921
X3110Y24606
X4331Y44252
X5276Y18110
X6575Y55394
X6890Y6299
X7087Y23425
X7520Y50000
X7638Y43661
X7677Y27165
X7820Y38583
X7874Y55276
X8543Y20236
X8780Y39528
X8858Y41220
X8898Y47441
X9016Y32126
X9213Y12008
X9567Y31181
X9724Y55197
X9803Y37992
X9882Y41654
X9882Y41220
X9882Y40709
X9882Y30866
X9921Y51614
X10000Y27835
X10039Y2205
X10197Y14488
X10512Y33268
X10630Y30906
X10769Y18995
X10769Y15926
X10787Y54921
X10787Y22126
X10827Y20394
X10827Y17283
X10906Y36535
X10945Y51102
X10945Y44409
X11043Y33878
X11575Y27992
X11732Y25945
X11772Y41260
X11772Y29882
X11772Y22756
X11772Y17126
X11811Y19291
X11831Y33878
X11850Y12126
X11929Y55669
X11929Y38543
X11969Y37520
X11986Y44532
X11993Y49567
X12480Y36024
X12618Y33878
X12677Y8937
X12944Y55470
X12992Y45512
X13228Y10354
X13406Y33878
X13583Y38976
X13648Y49921
X13740Y54606
X14016Y39488
X14193Y51196
X14213Y37598
X14213Y27677
X14252Y42087
X14252Y28819
X14331Y33701
X14409Y31929
X14567Y39213
X14843Y54810
X15092Y31942
X15157Y37559
X15177Y33878
X15276Y27717
X15394Y40512
X15591Y35827
X15630Y37717
X15709Y54764
X15709Y28819
X15748Y40394
X15965Y33878
X16084Y30790
X16123Y38189
X16284Y38583
X16339Y40394
X16339Y27756
X16398Y30781
X16520Y40039
X16713Y30801
X16752Y33878
X16811Y51181
X16811Y3858
X16860Y31949
X17204Y49961
X17205Y27756
X17244Y41299
X17244Y31890
X17323Y37086
X17362Y40551
X17362Y38150
X17638Y34764
X17795Y49449
X17795Y36457
X18031Y33543
X18147Y49959
X18150Y54961
X18150Y38228
X18346Y43780
X18346Y36850
X18425Y40669
X18425Y10354
X18583Y31890
X18661Y29606
X18917Y33878
X19488Y29843
X19646Y51732
X19705Y33878
X19724Y43780
X19803Y29843
X19961Y3386
X20039Y29016
X20039Y7323
X20079Y9331
X20079Y2165
X20158Y43425
X20275Y44407
X20472Y54882
X20492Y33878
X20553Y49094
X20709Y35925
X20984Y43425
X21024Y38150
X21046Y36839
X21063Y40354
X21299Y33858
X21417Y28597
X21535Y49961
X21536Y35984
X21789Y32834
X21929Y49528
X21953Y41752
X22008Y34134
X22027Y32520
X22106Y35748
X22244Y32795
X22469Y49189
X22480Y50748
X22480Y43268
X22502Y43976
X22638Y34406
X22642Y32795
X22717Y45236
X22724Y44594
X22756Y54921
X22756Y41752
X22795Y50197
X22954Y32756
X22992Y32443
X22992Y39213
X23041Y27491
X23268Y38976
X23268Y16654
X23308Y13443
X23319Y39287
X23363Y24165
X23386Y20197
X23386Y19213
X23391Y24527
X23415Y26417
X23415Y26060
X23415Y25373
X23430Y25728
X23465Y22362
X23465Y21063
X23504Y24823
X23555Y14670
X23583Y44095
X23701Y49291
X23701Y45728
X23740Y39331
X23766Y9872
X23780Y33976
X23819Y35977
X23867Y14626
X23937Y30157
X23937Y29843
X23937Y14952
X23976Y29213
X24094Y42126
X24139Y15201
X24171Y14704
X24181Y28604
X24213Y32126
X24252Y45669
X24362Y15424
X24400Y31181
X24486Y14704
X24567Y9872
X24584Y15646
X24685Y12717
X24715Y11811
X24804Y15872
X24841Y16457
X24867Y50748
X24881Y27835
X24881Y26102
X24961Y38780
X24961Y35118
X24961Y34345
X24961Y12205
X25118Y2244
X25128Y21132
X25177Y35433
X25197Y7205
X25237Y37953
X25354Y50039
X25394Y4213
X25472Y4803
X25486Y38189
X25551Y22953
X25551Y21732
X25591Y12835
X25591Y11772
X25591Y10472
X25606Y18809
X25630Y13701
X25709Y50039
X25709Y46181
X25709Y37913
X25945Y38189
X26024Y24724
X26063Y10039
X26142Y6890
X26181Y44252
X26181Y42953
X26339Y50315
X26378Y41752
X26378Y7480
X26535Y34528
X26673Y50079
X26693Y47874
X26811Y39449
X27040Y6355
X27047Y42953
X27047Y41142
X27087Y3543
X27165Y7874
X27402Y34646
X27480Y37008
X27520Y24685
X27559Y49724
X27598Y4331
X27717Y43936
X27717Y3819
X28150Y34882
X28465Y25906
X28465Y47953
X28701Y49409
X28701Y24685
X28780Y37914
X28858Y32362
X28976Y58701
X29016Y48110
X29055Y37756
X29134Y42933
X29243Y47419
X29252Y27165
X29331Y55118
X29409Y33858
X29409Y34646
X29724Y32283
X29803Y25945
X29803Y24646
X30118Y56772
X30118Y31969
X30236Y36378
X30433Y32638
X31024Y43150
X31053Y44104
X31260Y40236
X31282Y27581
X31299Y36339
X31299Y32244
X31375Y44294
X31456Y25394
X31457Y28110
X31575Y44589
X31654Y26929
X31667Y29544
X31693Y29229
X31732Y48228
X31890Y32638
X32244Y42933
X32270Y9521
X32585Y9521
X32756Y37913
X32835Y36575
X32874Y9646
X33124Y36811
X33199Y44951
X33268Y43425
X33268Y9646
X33386Y45591
X33416Y45197
X33855Y38110
X33937Y3425
X34060Y4121
X34213Y36501
X34291Y7756
X34370Y4173
X34409Y50984
X34513Y9213
X34528Y49409
X34694Y4184
X34843Y55118
X34920Y2553
X35039Y37441
X35039Y4173
X35039Y3386
X35118Y7008
X35157Y7677
X35424Y8382
X35581Y44147
X35583Y44638
X35738Y8406
X35827Y2283
X35957Y42986
X35965Y3189
X36339Y4252
X36378Y8150
X36575Y45669
X36575Y8406
X36823Y56886
X36929Y49882
X36969Y32362
X37008Y58780
X37087Y49173
X37155Y31882
X37283Y43360
X37323Y54961
X37323Y42953
X37562Y43158
X37992Y44488
X38150Y45109
X38257Y46529
X38269Y46183
X38418Y7820
X38428Y9094
X38504Y9606
X38583Y43183
X38630Y32345
X39055Y44819
X39070Y8661
X39094Y7008
X39134Y39646
X39134Y43031
X39213Y37480
X39291Y46890
X39331Y45857
X39528Y7205
X39528Y2126
X39528Y45345
X39567Y6260
X39606Y5236
X39606Y4094
X39606Y3346
X39754Y45621
X39842Y2126
X39843Y9409
X39902Y47913
X40039Y43504
X40275Y41024
X40287Y39685
X40287Y37283
X40287Y36575
X40355Y44502
X40472Y6220
X40567Y55107
X40591Y44724
X40906Y43754
X41211Y44164
X41732Y41535
X41732Y40551
X41732Y38583
X41732Y37598
X41732Y36614
X41890Y5866
X41929Y32283
X42638Y42992
X42756Y7677
X42871Y24593
X42875Y25789
X43071Y2362
X43110Y3465
X43150Y4567
X43228Y55118
X43504Y44055
X43622Y6732
X43658Y36658
X43898Y47913
X43973Y36659
X44055Y8661
X44094Y45630
X44242Y26339
X44252Y32362
X44306Y36571
X44409Y29567
X44409Y5394
X44449Y44055
X44488Y22165
X44567Y23819
X44606Y18898
X44685Y13150
X44764Y16063
X44882Y27992
X45433Y10000
X45669Y36732
X45683Y12022
X45866Y42244
X45905Y6890
X45945Y5079
X46299Y30748
X46339Y33858
X46339Y33071
X46654Y34646
X46654Y25512
X46989Y26732
X47205Y20354
X47480Y11024
X47795Y55033
X48622Y3583
X49016Y4488
X49016Y2362
X49173Y54606
X49370Y15433
X49370Y6063
X49646Y45630
X50118Y8740
X50236Y39764
X50433Y43228
X51575Y20118
X51654Y55070
X51811Y10079
X52638Y32638
X52638Y9055
X52953Y27559
X52953Y24567
X52953Y22323
X54345Y13138
X54764Y58740
X55000Y30512
X55276Y2598
X55866Y20354
X55906Y5512
X55906Y4724
X55906Y3937
X55925Y3563
X56339Y12008
X56417Y57835
X57717Y29961
X57717Y28937
X57717Y27008
X57717Y25984
X57756Y24055
X57756Y23031
X57992Y20315
X58322Y54588
X58425Y29449
X58425Y28268
X58425Y26496
X58433Y24693
X58465Y51890
X58465Y23543
X58465Y22402
X58496Y27646
X58496Y21740
X59252Y5000
X59252Y4016
X59567Y50236
X59567Y49213
X59567Y40787
X59567Y39764
X59567Y36063
X59567Y35039
X59606Y45512
X59606Y44488
X60039Y32717
X60079Y42205
X60118Y46929
X60118Y37441
X60197Y13110
X60276Y49724
X60276Y40276
X60276Y35551
X60315Y45000
X60591Y8661
X60984Y2362
X61260Y50984
X61457Y54882
X61509Y36277
T3
X22205Y41416
X22205Y40865
X22205Y40442
X22205Y39891
X22648Y40656
X25512Y40895
X25512Y40560
X25512Y40225
X25512Y39891
X26082Y41135
T4
X12992Y48622
X12992Y47122
X13976Y45317
X13976Y43817
X15157Y45317
X15157Y43817
X16339Y45317
X16339Y43817
X17323Y48624
X17323Y47124
X17323Y45907
X17323Y44407
X18307Y48624
X18307Y47124
X18307Y45907
X18307Y44407
X19291Y48624
X19291Y47124
X19291Y45907
X19291Y44407
X20276Y48624
X20276Y47124
X21299Y45356
X21299Y43856
X22244Y48624
X22244Y47124
X23228Y48624
X23228Y47124
X24213Y48624
X24213Y47124
X25197Y48624
X25197Y47124
X26181Y48624
X26181Y47124
X27165Y48624
X27165Y47124
X28110Y47089
X28110Y45589
X30276Y48624
X30276Y47124
X30276Y45907
X30276Y44407
X31260Y47089
X31260Y45589
X32283Y48602
X32283Y46673
X33189Y48602
X33189Y46673
X34055Y48622
X34055Y47122
X34921Y48624
X34921Y47124
X35787Y48624
X35787Y47124
X36654Y48624
X36654Y47124
X37598Y47207
X37598Y45707
X38425Y41203
X38425Y39703
X38425Y38841
X38425Y37341
X38780Y50553
X38780Y49053
X38780Y47797
X38780Y46297
X39961Y50553
X39961Y49053
T5
X16437Y8495
X16437Y7708
X17421Y8495
X17421Y7708
T6
X12008Y8071
X12008Y7087
X12008Y6102
X12008Y5118
X12008Y4134
T7
X23701Y45059
T8
X10827Y48622
X10827Y30118
X10827Y28346
X10827Y26575
X10827Y24803
X10866Y46890
X12008Y48622
X12008Y46890
X12884Y42291
X12884Y39929
X13937Y29961
X13976Y48622
X13976Y46850
X15118Y29961
X15157Y48622
X15157Y46850
X16299Y29961
X16339Y48622
X16339Y46850
X17480Y29961
X20276Y45709
X21260Y48622
X21260Y46890
X22244Y45709
X24213Y43169
X25197Y45709
X25197Y25197
X25197Y24016
X25472Y26339
X26063Y8661
X26614Y27047
X26614Y25866
X28150Y48622
X28299Y2559
X28701Y36850
X29291Y48622
X29291Y46890
X29291Y45197
X29299Y2559
X30299Y2559
X31260Y48624
X31299Y2559
X32299Y2559
X32559Y25236
X33299Y2559
X33661Y25236
X34498Y45472
X34498Y43110
X34931Y5992
X34931Y4992
X35931Y5992
X35931Y4992
X37598Y48819
X39961Y46614
X40709Y25197
X41142Y50591
X41142Y48819
X41181Y47047
X41220Y45315
X42323Y50591
X42323Y48819
X42323Y47047
X43504Y50591
X43504Y48819
X43504Y47047
X44685Y50591
X44685Y48819
X44685Y47047
X45866Y50591
X45866Y48819
X45866Y47047
X47047Y50591
X47047Y48819
X47047Y47047
X47992Y43177
X47992Y42177
X47992Y41177
X47992Y40177
X47992Y39177
X47992Y38177
X47992Y37177
X47992Y36177
X47992Y35177
X47992Y34177
X47992Y33177
X47992Y32177
X47992Y31177
X47992Y30177
X47992Y29177
X47992Y28177
X47992Y27177
X47992Y26177
X47992Y25177
X47992Y24177
X48228Y50591
X48228Y48819
X48228Y47047
X48543Y4173
X48543Y3031
X48992Y43177
X48992Y42177
X48992Y41177
X48992Y40177
X48992Y39177
X48992Y38177
X48992Y37177
X48992Y36177
X48992Y35177
X48992Y34177
X48992Y33177
X48992Y32177
X48992Y31177
X48992Y30177
X48992Y29177
X48992Y28177
X48992Y27177
X48992Y26177
X48992Y25177
X48992Y24177
X49409Y50591
X49409Y48819
X49409Y47047
X49992Y33177
X49992Y32177
X49992Y31177
X49992Y30177
X49992Y29177
X49992Y38177
X49992Y37177
X49992Y36177
X49992Y35177
X49992Y34177
X49992Y28177
X49992Y27177
X49992Y26177
X49992Y25177
X49992Y24177
X50591Y50591
X50591Y48819
X50591Y47047
X50992Y33177
X50992Y32177
X50992Y31177
X50992Y30177
X50992Y29177
X50992Y38177
X50992Y37177
X50992Y36177
X50992Y35177
X50992Y34177
X50992Y28177
X50992Y27177
X50992Y26177
X50992Y25177
X50992Y24177
X51181Y6890
X51772Y50591
X51772Y48819
X51772Y47047
X52362Y6102
X53543Y7874
X53543Y6102
T9
X53346Y49819
X53346Y47819
X53346Y45094
X53346Y43094
X53346Y40370
X53346Y38370
X53346Y35646
X53346Y33646
T10
X7840Y57283
X7840Y56299
X7840Y53937
X7840Y52953
X8824Y57283
X8824Y56299
X8824Y53937
X8824Y52953
X9808Y57283
X9808Y56299
X9808Y53937
X9808Y52953
X10792Y57283
X10792Y56299
X10792Y53937
X10792Y52953
X11777Y57283
X11777Y56299
X11777Y53937
X11777Y52953
X12761Y57283
X12761Y56299
X12761Y53937
X12761Y52953
X13745Y57283
X13745Y56299
X13745Y53937
X13745Y52953
X14729Y57283
X14729Y56299
X14729Y53937
X14729Y52953
X15714Y57283
X15714Y56299
X15714Y53937
X15714Y52953
X16698Y57283
X16698Y56299
X16698Y53937
X16698Y52953
X17682Y57283
X17682Y56299
X17682Y53937
X17682Y52953
X18666Y57283
X18666Y56299
X18666Y53937
X18666Y52953
X19651Y57283
X19651Y56299
X19651Y53937
X19651Y52953
X20635Y57283
X20635Y56299
X20635Y53937
X20635Y52953
X21619Y57283
X21619Y56299
X21619Y53937
X21619Y52953
X22603Y57283
X22603Y56299
X22603Y53937
X22603Y52953
X23588Y57283
X23588Y56299
X23588Y53937
X23588Y52953
X24572Y57283
X24572Y56299
X24572Y53937
X24572Y52953
X25556Y57283
X25556Y56299
X25556Y53937
X25556Y52953
X26540Y57283
X26540Y56299
X26540Y53937
X26540Y52953
X27525Y57283
X27525Y56299
X27525Y53937
X27525Y52953
X28706Y57283
X28706Y56299
X28706Y53937
X28706Y52953
X38548Y57283
X38548Y56299
X38548Y53937
X38548Y52953
X39729Y57283
X39729Y56299
X39729Y53937
X39729Y52953
X40714Y57283
X40714Y56299
X40714Y53937
X40714Y52953
X41698Y57283
X41698Y56299
X41698Y53937
X41698Y52953
X42682Y57283
X42682Y56299
X42682Y53937
X42682Y52953
X43666Y57283
X43666Y56299
X43666Y53937
X43666Y52953
X44651Y57283
X44651Y56299
X44651Y53937
X44651Y52953
X45635Y57283
X45635Y56299
X45635Y53937
X45635Y52953
X46619Y57283
X46619Y56299
X46619Y53937
X46619Y52953
X47603Y57283
X47603Y56299
X47603Y53937
X47603Y52953
X48784Y57283
X48784Y56299
X48784Y53937
X48784Y52953
X50162Y57283
X50162Y56299
X50162Y53937
X50162Y52953
X51540Y57283
X51540Y56299
X51540Y53937
X51540Y52953
X52918Y57283
X52918Y56299
X52918Y53937
X52918Y52953
X54296Y57283
X54296Y56299
X54296Y53937
X54296Y52953
T11
X28425Y41102
X28425Y38937
X30079Y41102
X30079Y38937
X31732Y41102
X31732Y38937
X33386Y41102
X33386Y38937
X35039Y41102
X35039Y38937
X36693Y41102
X36693Y38937
T12
X31304Y57283
X31304Y55118
X31304Y52953
X33351Y57283
X33351Y55118
X33351Y52953
T13
X40984Y7598
X40984Y5394
X41850Y9055
X41850Y6850
X41850Y4409
T14
X14559Y6641
X19299Y6641
T15
X7052Y51575
X55674Y58268
T16
X37052Y51575
T17
X14532Y59882
X49966Y59882
T0
M30
