G04 #@! TF.GenerationSoftware,KiCad,Pcbnew,7.0.11-7.0.11~ubuntu22.04.1*
G04 #@! TF.CreationDate,2024-03-21T14:40:54+00:00*
G04 #@! TF.ProjectId,hellen154hyundai,68656c6c-656e-4313-9534-6879756e6461,D*
G04 #@! TF.SameCoordinates,PX5f5e100PYc845880*
G04 #@! TF.FileFunction,Profile,NP*
%FSLAX46Y46*%
G04 Gerber Fmt 4.6, Leading zero omitted, Abs format (unit mm)*
G04 Created by KiCad (PCBNEW 7.0.11-7.0.11~ubuntu22.04.1) date 2024-03-21 14:40:54*
%MOMM*%
%LPD*%
G01*
G04 APERTURE LIST*
G04 #@! TA.AperFunction,Profile*
%ADD10C,0.050000*%
G04 #@! TD*
G04 #@! TA.AperFunction,Profile*
%ADD11C,0.200000*%
G04 #@! TD*
G04 APERTURE END LIST*
D10*
X164000000Y142000000D02*
X162000000Y144000000D01*
X0Y2000000D02*
X0Y61500000D01*
X2000000Y63500000D02*
G75*
G03*
X2000000Y83500000I0J10000000D01*
G01*
X25000000Y0D02*
G75*
G03*
X9000000Y0I-8000000J-6000000D01*
G01*
X147500000Y156000000D02*
X149500000Y154000000D01*
X16500000Y156000000D02*
X14500000Y154000000D01*
X162000000Y0D02*
X164000000Y2000000D01*
D11*
X5200000Y140150000D02*
G75*
G03*
X1500000Y140150000I-1850000J0D01*
G01*
X1500000Y140150000D02*
G75*
G03*
X5200000Y140150000I1850000J0D01*
G01*
D10*
X157500000Y144000000D02*
X162000000Y144000000D01*
X0Y142000000D02*
X2000000Y144000000D01*
X162000000Y0D02*
X155000000Y0D01*
X149500000Y152000000D02*
X149500000Y154000000D01*
X164000000Y85500000D02*
X164000000Y142000000D01*
X155000000Y0D02*
G75*
G03*
X139000000Y0I-8000000J-6000000D01*
G01*
D11*
X5700000Y3850000D02*
G75*
G03*
X2000000Y3850000I-1850000J0D01*
G01*
X2000000Y3850000D02*
G75*
G03*
X5700000Y3850000I1850000J0D01*
G01*
D10*
X0Y85500000D02*
X0Y142000000D01*
X162000000Y83500000D02*
G75*
G03*
X162000000Y63500000I0J-10000000D01*
G01*
X0Y61500000D02*
X2000000Y63500000D01*
X2000000Y0D02*
X0Y2000000D01*
X6500000Y144000000D02*
X2000000Y144000000D01*
X162000000Y83500000D02*
X164000000Y85500000D01*
X14500000Y152000000D02*
X14500000Y154000000D01*
X2000000Y0D02*
X9000000Y0D01*
X149500000Y152000000D02*
G75*
G03*
X157500000Y144000000I8000000J0D01*
G01*
X164000000Y61500000D02*
X162000000Y63500000D01*
X139000000Y0D02*
X25000000Y0D01*
D11*
X162500000Y140150000D02*
G75*
G03*
X158800000Y140150000I-1850000J0D01*
G01*
X158800000Y140150000D02*
G75*
G03*
X162500000Y140150000I1850000J0D01*
G01*
D10*
X2000000Y83500000D02*
X0Y85500000D01*
D11*
X162000000Y3850000D02*
G75*
G03*
X158300000Y3850000I-1850000J0D01*
G01*
X158300000Y3850000D02*
G75*
G03*
X162000000Y3850000I1850000J0D01*
G01*
D10*
X6500000Y144000000D02*
G75*
G03*
X14500000Y152000000I0J8000000D01*
G01*
X16500000Y156000000D02*
X147500000Y156000000D01*
X164000000Y2000000D02*
X164000000Y61500000D01*
M02*
