M48
; DRILL file {KiCad (5.99.0-12392-g2f9c6dd5cc)} date Sun Sep 19 22:51:59 2021
; FORMAT={2:4/ absolute / inch / suppress leading zeros}
; #@! TF.CreationDate,2021-09-19T22:51:59+03:00
; #@! TF.GenerationSoftware,Kicad,Pcbnew,(5.99.0-12392-g2f9c6dd5cc)
; #@! TF.FileFunction,MixedPlating,1,4
FMAT,2
INCH,TZ
; #@! TA.AperFunction,Plated,PTH,ComponentDrill
T1C0.0118
; #@! TA.AperFunction,Plated,PTH,ViaDrill
T2C0.0118
; #@! TA.AperFunction,Plated,PTH,ViaDrill
T3C0.0157
; #@! TA.AperFunction,Plated,PTH,ComponentDrill
T4C0.0320
; #@! TA.AperFunction,Plated,PTH,ComponentDrill
T5C0.0362
; #@! TA.AperFunction,Plated,PTH,ComponentDrill
T6C0.0394
; #@! TA.AperFunction,Plated,PTH,ComponentDrill
T7C0.0433
; #@! TA.AperFunction,Plated,PTH,ComponentDrill
T8C0.0512
; #@! TA.AperFunction,Plated,PTH,ComponentDrill
T9C0.0787
; #@! TA.AperFunction,Plated,PTH,ComponentDrill
T10C0.0917
; #@! TA.AperFunction,Plated,PTH,ComponentDrill
T11C0.0984
; #@! TA.AperFunction,Plated,PTH,ComponentDrill
T12C0.1181
%
G90
G05
T1
X25223Y28204
X27713Y30979
X27968Y8616
X28454Y30786
X28461Y28726
X28588Y6685
X30202Y33155
X30251Y6421
X30607Y31422
X30714Y6421
X31570Y6421
X32446Y6421
X33589Y6689
X34493Y33155
X36897Y5458
X38295Y5487
X38590Y5025
X38797Y5369
X40084Y33155
X44365Y34651
X44788Y3806
X44818Y2409
X44906Y4308
X44912Y33155
X45251Y4102
X49700Y2837
X49818Y4441
X50566Y4447
X50733Y5169
X50950Y4362
X51294Y4447
X51629Y4476
X51757Y5169
X52268Y4654
X52524Y5169
T2
X3031Y33465
X3071Y15197
X3071Y3031
X3110Y54921
X3110Y24606
X4331Y44252
X6063Y20276
X6890Y6299
X7638Y43661
X7677Y27165
X8268Y58740
X9016Y32126
X9094Y20354
X9213Y12008
X10039Y2205
X10472Y36102
X10512Y40118
X10512Y33268
X10630Y30906
X11043Y33878
X11512Y28917
X11535Y9567
X11535Y7756
X11535Y5433
X11535Y3661
X11575Y27992
X11732Y25945
X11772Y22756
X11772Y17126
X11811Y36063
X11811Y30827
X11811Y19291
X11831Y33878
X11850Y12126
X12008Y38150
X12205Y29449
X12330Y30231
X12480Y42480
X12480Y39134
X12618Y33878
X12668Y30245
X12677Y8937
X12756Y35945
X12874Y36929
X13071Y30669
X13228Y10354
X13386Y31496
X13406Y33878
X13858Y38937
X13858Y37953
X13858Y35984
X13898Y36929
X13937Y40472
X14213Y29252
X14331Y33701
X14370Y27795
X14567Y39961
X14606Y9606
X14634Y42650
X14724Y31929
X14846Y35586
X14961Y30669
X15079Y40315
X15079Y36832
X15157Y35630
X15157Y33858
X15551Y30709
X15709Y27756
X15945Y30788
X15945Y33858
X16071Y43039
X16071Y36045
X16142Y29213
X16518Y39782
X16687Y28921
X16752Y33878
X16811Y3858
X17087Y37874
X17087Y37205
X17165Y41102
X17165Y38858
X17244Y31890
X17362Y33150
X17638Y34764
X17638Y27717
X17717Y28268
X18268Y38465
X18268Y37244
X18307Y40984
X18307Y39803
X18425Y10354
X18583Y31890
X18771Y30788
X18917Y33878
X19094Y30788
X19173Y38858
X19173Y37362
X19213Y40669
X19291Y39803
X19705Y33878
X19935Y30541
X19961Y58819
X19961Y3386
X20039Y40000
X20039Y7323
X20079Y41732
X20079Y41260
X20079Y38150
X20079Y9331
X20079Y2165
X20276Y43307
X20276Y30542
X20492Y33878
X20748Y36850
X20803Y42471
X20879Y37666
X21130Y30797
X21220Y40591
X21280Y33878
X21299Y31063
X21378Y30599
X21654Y36024
X21850Y42323
X22047Y35630
X22047Y30241
X22342Y35407
X22362Y37913
X22362Y37402
X22441Y29921
X22638Y41299
X22756Y32283
X23071Y31417
X23268Y16654
X23308Y13443
X23356Y10896
X23386Y20197
X23386Y19213
X23425Y31102
X23465Y22362
X23465Y21063
X23555Y14670
X23590Y29055
X23622Y22805
X23671Y25197
X23671Y23858
X23671Y23465
X23671Y23116
X23671Y24803
X23766Y9872
X23767Y28760
X23819Y39449
X23858Y40669
X23861Y32142
X23867Y14626
X23878Y14940
X23937Y38780
X23937Y37677
X23937Y36378
X23946Y28482
X24115Y15177
X24171Y14704
X24291Y40709
X24330Y32874
X24351Y15413
X24394Y29981
X24409Y35512
X24486Y14704
X24587Y15649
X24646Y34724
X24676Y20679
X24685Y22638
X24685Y21811
X24685Y12717
X24715Y11811
X24812Y27205
X24833Y23376
X24855Y16521
X24961Y12205
X25118Y2244
X25197Y43543
X25197Y7205
X25394Y42205
X25472Y4803
X25551Y34685
X25551Y22953
X25551Y21732
X25591Y10472
X25606Y18809
X25606Y15748
X25630Y13701
X25695Y27717
X25827Y9291
X25831Y27433
X26024Y24724
X26063Y10039
X26142Y6890
X26378Y7480
X26457Y9606
X26654Y27756
X26732Y42520
X26929Y40748
X26929Y34843
X27040Y6355
X27087Y3543
X27165Y7874
X27283Y35472
X27362Y39409
X27362Y36378
X27402Y38740
X27441Y40748
X27441Y37874
X27501Y43562
X27504Y27709
X27520Y24685
X27598Y4331
X27717Y3819
X27756Y27520
X27795Y9567
X28012Y42126
X28071Y25748
X28225Y27835
X28465Y35433
X28465Y25709
X28701Y27835
X28701Y24685
X28819Y40591
X28819Y37913
X28858Y37441
X28976Y58701
X29055Y32953
X29173Y25433
X29213Y35906
X29213Y32047
X29331Y33858
X29334Y34892
X29409Y27756
X29646Y36969
X29685Y37559
X29803Y24646
X30000Y41457
X30079Y26614
X30512Y40669
X30591Y37874
X30709Y27559
X31221Y29921
X31260Y28307
X31280Y44498
X31299Y40669
X31299Y41457
X31496Y29528
X31575Y42913
X31575Y27402
X31666Y29229
X31772Y37756
X32082Y39624
X32087Y40669
X32087Y42913
X32087Y42126
X32087Y41339
X32087Y38307
X32126Y25354
X32165Y32677
X32270Y9521
X32585Y9521
X32777Y31841
X32872Y39626
X32874Y38307
X32874Y9646
X33268Y37047
X33268Y9646
X33383Y31854
X33937Y3425
X34060Y4121
X34149Y42536
X34267Y9055
X34291Y7756
X34370Y4173
X34371Y41611
X34409Y50984
X34528Y40656
X34621Y42536
X34694Y4184
X34724Y41748
X34843Y36028
X35039Y4173
X35235Y41103
X35236Y3504
X35424Y8382
X35738Y8406
X35827Y2283
X35935Y45482
X36339Y32362
X36378Y8150
X36417Y36457
X36575Y8406
X36811Y46654
X36929Y42598
X36969Y41772
X36969Y40354
X36969Y36378
X37008Y58780
X37008Y38425
X37047Y37165
X37155Y31882
X37362Y42717
X37402Y43032
X37402Y32520
X37746Y43032
X37992Y43268
X38386Y43504
X38418Y7820
X38425Y49803
X38428Y9094
X38504Y9606
X38543Y32638
X38583Y32008
X38626Y36028
X38858Y43572
X39070Y8661
X39098Y7874
X39098Y36028
X39173Y43572
X39413Y36028
X39499Y44913
X39504Y43572
X39528Y7205
X39606Y5236
X39606Y4094
X39606Y3346
X39724Y8346
X39803Y2859
X39803Y2525
X39843Y9409
X39882Y43144
X39882Y41339
X40040Y43455
X40394Y43966
X40472Y6220
X40512Y8307
X40591Y44223
X41260Y47598
X41378Y54921
X41417Y44961
X41811Y42756
X41890Y5866
X41929Y43504
X42047Y36142
X42087Y32638
X42323Y37126
X42402Y40276
X42520Y38583
X42756Y7677
X42871Y24593
X42875Y25789
X43110Y3465
X43150Y4567
X43189Y54961
X43268Y39921
X43386Y32126
X43622Y6732
X43858Y36220
X44055Y8661
X44094Y31457
X44105Y38199
X44242Y26339
X44409Y29567
X44409Y5394
X44488Y45315
X44528Y25157
X44567Y23819
X44606Y18898
X44685Y13150
X44724Y38740
X44764Y40827
X44843Y43976
X44843Y32520
X44882Y27992
X45079Y54882
X45433Y10000
X45669Y7559
X45866Y46890
X45905Y6890
X45945Y5079
X47126Y38622
X47126Y29567
X47165Y55118
X47165Y34094
X47205Y20354
X47244Y25748
X47283Y42677
X47283Y41575
X47480Y11024
X47520Y45039
X48622Y3583
X49016Y4488
X49016Y2362
X49173Y54606
X49370Y15433
X49370Y6063
X50118Y8740
X50394Y22559
X51535Y42047
X51575Y30984
X51575Y20118
X51614Y35472
X51693Y25433
X51811Y10079
X51890Y45039
X53858Y55118
X54764Y58740
X55276Y2598
X55906Y5512
X55906Y4724
X55906Y3937
X55925Y3563
X56417Y57835
X59252Y5000
X59252Y4016
X59724Y38819
X59724Y37953
X59803Y47677
X59803Y46811
X59803Y23661
X59803Y22795
X59803Y12559
X59803Y11693
X59882Y50394
X60586Y43353
X60601Y34493
X60630Y19342
X60659Y8268
X60984Y2362
X61024Y38819
X61024Y37953
X61102Y47677
X61102Y46811
X61102Y23661
X61102Y22795
X61102Y12559
X61102Y11693
X61378Y5906
X61457Y54882
T3
X20861Y38944
X22362Y39929
X28819Y39449
X31142Y38780
T4
X10827Y47010
X10827Y45510
X10827Y44254
X10827Y42754
X12008Y47010
X12008Y45510
X12008Y44293
X12008Y42793
X12992Y48622
X12992Y47122
X12992Y45907
X12992Y44407
X12992Y43191
X12992Y41691
X12992Y40474
X12992Y38974
X13976Y45317
X13976Y43817
X13976Y42600
X13976Y41100
X15118Y47010
X15118Y45510
X16339Y45396
X16339Y43896
X17126Y43191
X17126Y41691
X17323Y48624
X17323Y47124
X17323Y45907
X17323Y44407
X18307Y48624
X18307Y47124
X18307Y45907
X18307Y44407
X18307Y43191
X18307Y41691
X19291Y48624
X19291Y47124
X19291Y45907
X19291Y44407
X20276Y48624
X20276Y47124
X21260Y47089
X21260Y45589
X21260Y44372
X21260Y42872
X22244Y48624
X22244Y47124
X22244Y45888
X22244Y44388
X23228Y48624
X23228Y47124
X23228Y44215
X23228Y42715
X24213Y48624
X24213Y47124
X24213Y45907
X24213Y44407
X25197Y48624
X25197Y47124
X25197Y45907
X25197Y44407
X26181Y48624
X26181Y47124
X26181Y44175
X26181Y42675
X27165Y48624
X27165Y47124
X27165Y45907
X27165Y44407
X28150Y47089
X28150Y45589
X28150Y44372
X28150Y42872
X29331Y47089
X29331Y45589
X29331Y44372
X29331Y42872
X30315Y48624
X30315Y47124
X30315Y45907
X30315Y44407
X31299Y47089
X31299Y45589
X32480Y48622
X32480Y46693
X33465Y48602
X33465Y46673
X34449Y48622
X34449Y47122
X34449Y45907
X34449Y44407
X35709Y48622
X35709Y47122
X36417Y45866
X36417Y44366
X37598Y47207
X37598Y45707
X38780Y50553
X38780Y49053
X38780Y47797
X38780Y46297
X39961Y50553
X39961Y49053
T5
X16437Y8495
X16437Y7708
X17421Y8495
X17421Y7708
T6
X7840Y57283
X7840Y56299
X7840Y53937
X7840Y52953
X8824Y57283
X8824Y56299
X8824Y53937
X8824Y52953
X9808Y57283
X9808Y56299
X9808Y53937
X9808Y52953
X10792Y57283
X10792Y56299
X10792Y53937
X10792Y52953
X10827Y48622
X10827Y41339
X10827Y30118
X10827Y28346
X10827Y26575
X10827Y24803
X10925Y6654
X10925Y2559
X11777Y57283
X11777Y56299
X11777Y53937
X11777Y52953
X12008Y48622
X12761Y57283
X12761Y56299
X12761Y53937
X12761Y52953
X13745Y57283
X13745Y56299
X13745Y53937
X13745Y52953
X13976Y48622
X13976Y46850
X14729Y57283
X14729Y56299
X14729Y53937
X14729Y52953
X14961Y44134
X15157Y48622
X15714Y57283
X15714Y56299
X15714Y53937
X15714Y52953
X16339Y48622
X16339Y46929
X16698Y57283
X16698Y56299
X16698Y53937
X16698Y52953
X17126Y29331
X17682Y57283
X17682Y56299
X17682Y53937
X17682Y52953
X18307Y29331
X18666Y57283
X18666Y56299
X18666Y53937
X18666Y52953
X19291Y42992
X19291Y41260
X19488Y29331
X19651Y57283
X19651Y56299
X19651Y53937
X19651Y52953
X20276Y45709
X20276Y44016
X20635Y57283
X20635Y56299
X20635Y53937
X20635Y52953
X20669Y29331
X21260Y48622
X21619Y57283
X21619Y56299
X21619Y53937
X21619Y52953
X22603Y57283
X22603Y56299
X22603Y53937
X22603Y52953
X23228Y45709
X23588Y57283
X23588Y56299
X23588Y53937
X23588Y52953
X24572Y57283
X24572Y56299
X24572Y53937
X24572Y52953
X25197Y26378
X25197Y25197
X25197Y24016
X25556Y57283
X25556Y56299
X25556Y53937
X25556Y52953
X26063Y8661
X26181Y45709
X26378Y26969
X26378Y25787
X26540Y57283
X26540Y56299
X26540Y53937
X26540Y52953
X27525Y57283
X27525Y56299
X27525Y53937
X27525Y52953
X28150Y48622
X28299Y2559
X28706Y57283
X28706Y56299
X28706Y53937
X28706Y52953
X29134Y27165
X29134Y26063
X29291Y41496
X29299Y2559
X29331Y48622
X30236Y27165
X30236Y26063
X30299Y2559
X30315Y42992
X31299Y48624
X31299Y32323
X31299Y2559
X32299Y2559
X33071Y32283
X33299Y2559
X34252Y32283
X34449Y25197
X34931Y5992
X34931Y4992
X35433Y43504
X35630Y25197
X35931Y5992
X35931Y4992
X37598Y48819
X37598Y44291
X38548Y57283
X38548Y56299
X38548Y53937
X38548Y52953
X38780Y44882
X39729Y57283
X39729Y56299
X39729Y53937
X39729Y52953
X39961Y47638
X39961Y45866
X40714Y57283
X40714Y56299
X40714Y53937
X40714Y52953
X40748Y25197
X41142Y50591
X41698Y57283
X41698Y56299
X41698Y53937
X41698Y52953
X42323Y50591
X42323Y48819
X42682Y57283
X42682Y56299
X42682Y53937
X42682Y52953
X43504Y50591
X43504Y48819
X43504Y47047
X43666Y57283
X43666Y56299
X43666Y53937
X43666Y52953
X44651Y57283
X44651Y56299
X44651Y53937
X44651Y52953
X44685Y50591
X44685Y48819
X44685Y47047
X45635Y57283
X45635Y56299
X45635Y53937
X45635Y52953
X45866Y50591
X45866Y48819
X46619Y57283
X46619Y56299
X46619Y53937
X46619Y52953
X47047Y50591
X47047Y48819
X47047Y47047
X47603Y57283
X47603Y56299
X47603Y53937
X47603Y52953
X47992Y43177
X47992Y42177
X47992Y41177
X47992Y40177
X47992Y39177
X47992Y38177
X47992Y37177
X47992Y36177
X47992Y35177
X47992Y34177
X47992Y33177
X47992Y32177
X47992Y31177
X47992Y30177
X47992Y29177
X47992Y28177
X47992Y27177
X47992Y26177
X47992Y25177
X47992Y24177
X48228Y50591
X48228Y48819
X48228Y47047
X48543Y4173
X48543Y3031
X48784Y57283
X48784Y56299
X48784Y53937
X48784Y52953
X48992Y43177
X48992Y42177
X48992Y41177
X48992Y40177
X48992Y39177
X48992Y38177
X48992Y37177
X48992Y36177
X48992Y35177
X48992Y34177
X48992Y33177
X48992Y32177
X48992Y31177
X48992Y30177
X48992Y29177
X48992Y28177
X48992Y27177
X48992Y26177
X48992Y25177
X48992Y24177
X49409Y50591
X49409Y48819
X49409Y47047
X49992Y33177
X49992Y32177
X49992Y31177
X49992Y30177
X49992Y29177
X49992Y38177
X49992Y37177
X49992Y36177
X49992Y35177
X49992Y34177
X49992Y28177
X49992Y27177
X49992Y26177
X49992Y25177
X49992Y24177
X50162Y57283
X50162Y56299
X50162Y53937
X50162Y52953
X50591Y50591
X50591Y48819
X50591Y47047
X50591Y45276
X50992Y33177
X50992Y32177
X50992Y31177
X50992Y30177
X50992Y29177
X50992Y38177
X50992Y37177
X50992Y36177
X50992Y35177
X50992Y34177
X50992Y28177
X50992Y27177
X50992Y26177
X50992Y25177
X50992Y24177
X51181Y6890
X51540Y57283
X51540Y56299
X51540Y53937
X51540Y52953
X51772Y50591
X51772Y48819
X51772Y47047
X52362Y6102
X52918Y57283
X52918Y56299
X52918Y53937
X52918Y52953
X53543Y7874
X53543Y6102
X54296Y57283
X54296Y56299
X54296Y53937
X54296Y52953
T7
X53346Y47866
X53346Y45866
X53346Y38402
X53346Y36402
X53346Y26016
X53346Y24016
X53346Y12827
X53346Y10827
T8
X31304Y57283
X31304Y55118
X31304Y52953
X33351Y57283
X33351Y55118
X33351Y52953
T9
X40984Y7598
X40984Y5394
X41850Y9055
X41850Y6850
X41850Y4409
T10
X14559Y6641
X19299Y6641
T11
X7052Y51575
X55674Y58268
T12
X14532Y59882
X37052Y51575
X49966Y59882
T0
M30
