G04 #@! TF.GenerationSoftware,KiCad,Pcbnew,7.0.11-7.0.11~ubuntu22.04.1*
G04 #@! TF.CreationDate,2024-03-21T18:50:05+00:00*
G04 #@! TF.ProjectId,hellen154hyundai,68656c6c-656e-4313-9534-6879756e6461,D*
G04 #@! TF.SameCoordinates,PX5f5e100PYc845880*
G04 #@! TF.FileFunction,Soldermask,Bot*
G04 #@! TF.FilePolarity,Negative*
%FSLAX46Y46*%
G04 Gerber Fmt 4.6, Leading zero omitted, Abs format (unit mm)*
G04 Created by KiCad (PCBNEW 7.0.11-7.0.11~ubuntu22.04.1) date 2024-03-21 18:50:05*
%MOMM*%
%LPD*%
G01*
G04 APERTURE LIST*
%ADD10C,1.700000*%
%ADD11O,1.950000X1.700000*%
%ADD12C,1.524000*%
%ADD13C,4.600000*%
%ADD14C,3.700000*%
%ADD15C,3.000000*%
%ADD16C,2.000000*%
%ADD17R,1.700000X1.700000*%
%ADD18C,3.500000*%
%ADD19O,3.300000X2.700000*%
%ADD20O,1.700000X1.700000*%
%ADD21C,1.500000*%
%ADD22C,0.600000*%
%ADD23O,2.700000X3.300000*%
%ADD24C,0.599999*%
G04 APERTURE END LIST*
D10*
G04 #@! TO.C,P37*
X104500000Y128500000D03*
G04 #@! TD*
G04 #@! TO.C,J1*
G36*
G01*
X48575000Y22650000D02*
X50025000Y22650000D01*
G75*
G02*
X50275000Y22400000I0J-250000D01*
G01*
X50275000Y21200000D01*
G75*
G02*
X50025000Y20950000I-250000J0D01*
G01*
X48575000Y20950000D01*
G75*
G02*
X48325000Y21200000I0J250000D01*
G01*
X48325000Y22400000D01*
G75*
G02*
X48575000Y22650000I250000J0D01*
G01*
G37*
D11*
X49300000Y19300000D03*
X49300000Y16800000D03*
X49300000Y14300000D03*
X49300000Y11800000D03*
G04 #@! TD*
D10*
G04 #@! TO.C,P33*
X128500000Y119500000D03*
G04 #@! TD*
G04 #@! TO.C,P46*
X113500000Y124000000D03*
G04 #@! TD*
D12*
G04 #@! TO.C,F1*
X84300000Y123500000D03*
X84300000Y118600000D03*
G04 #@! TD*
D10*
G04 #@! TO.C,P85*
X68100000Y29600000D03*
G04 #@! TD*
G04 #@! TO.C,P53*
X122500000Y128500000D03*
G04 #@! TD*
G04 #@! TO.C,G9*
X151406545Y24944788D03*
X151406545Y27484788D03*
X151406545Y30024788D03*
X151406545Y32564788D03*
X151406545Y35104788D03*
X153946545Y24944788D03*
X153946545Y27484788D03*
X153946545Y30024788D03*
X153946545Y32564788D03*
X153946545Y35104788D03*
G04 #@! TD*
G04 #@! TO.C,P14*
X79400000Y123505000D03*
G04 #@! TD*
D13*
G04 #@! TO.C,P1*
X17162500Y130250000D03*
D14*
X36912500Y152100000D03*
D15*
X94112500Y131000000D03*
D14*
X126912500Y152100000D03*
D13*
X142162500Y147250000D03*
D10*
X137912500Y145500000D03*
X134412500Y145500000D03*
X130912500Y145500000D03*
X127412500Y145500000D03*
X123912500Y145500000D03*
X120912500Y145500000D03*
X118412500Y145500000D03*
X115912500Y145500000D03*
X113412500Y145500000D03*
X110912500Y145500000D03*
X108412500Y145500000D03*
X105912500Y145500000D03*
X103412500Y145500000D03*
X100912500Y145500000D03*
X97912500Y145500000D03*
X137912500Y143000000D03*
X134412500Y143000000D03*
X130912500Y143000000D03*
X127412500Y143000000D03*
X123912500Y143000000D03*
X120912500Y143000000D03*
X118412500Y143000000D03*
X115912500Y143000000D03*
X113412500Y143000000D03*
X110912500Y143000000D03*
X108412500Y143000000D03*
X105912500Y143000000D03*
X103412500Y143000000D03*
X100912500Y143000000D03*
X97912500Y143000000D03*
X137912500Y137000000D03*
X134412500Y137000000D03*
X130912500Y137000000D03*
X127412500Y137000000D03*
X123912500Y137000000D03*
X120912500Y137000000D03*
X118412500Y137000000D03*
X115912500Y137000000D03*
X113412500Y137000000D03*
X110912500Y137000000D03*
X108412500Y137000000D03*
X105912500Y137000000D03*
X103412500Y137000000D03*
X100912500Y137000000D03*
X97912500Y137000000D03*
X137912500Y134500000D03*
X134412500Y134500000D03*
X130912500Y134500000D03*
X127412500Y134500000D03*
X123912500Y134500000D03*
X120912500Y134500000D03*
X118412500Y134500000D03*
X115912500Y134500000D03*
X113412500Y134500000D03*
X110912500Y134500000D03*
X108412500Y134500000D03*
X105912500Y134500000D03*
X103412500Y134500000D03*
X100912500Y134500000D03*
X97912500Y134500000D03*
D16*
X84712500Y145500000D03*
X79512500Y145500000D03*
X84712500Y140000000D03*
X79512500Y140000000D03*
X84712500Y134500000D03*
X79512500Y134500000D03*
D10*
X72912500Y145500000D03*
X69912500Y145500000D03*
X67412500Y145500000D03*
X64912500Y145500000D03*
X62412500Y145500000D03*
X59912500Y145500000D03*
X57412500Y145500000D03*
X54912500Y145500000D03*
X52412500Y145500000D03*
X49912500Y145500000D03*
X47412500Y145500000D03*
X44912500Y145500000D03*
X42412500Y145500000D03*
X39912500Y145500000D03*
X37412500Y145500000D03*
X34912500Y145500000D03*
X32412500Y145500000D03*
X29912500Y145500000D03*
X27412500Y145500000D03*
X24912500Y145500000D03*
X22412500Y145500000D03*
X19912500Y145500000D03*
X72912500Y143000000D03*
X69912500Y143000000D03*
X67412500Y143000000D03*
X64912500Y143000000D03*
X62412500Y143000000D03*
X59912500Y143000000D03*
X57412500Y143000000D03*
X54912500Y143000000D03*
X52412500Y143000000D03*
X49912500Y143000000D03*
X47412500Y143000000D03*
X44912500Y143000000D03*
X42412500Y143000000D03*
X39912500Y143000000D03*
X37412500Y143000000D03*
X34912500Y143000000D03*
X32412500Y143000000D03*
X29912500Y143000000D03*
X27412500Y143000000D03*
X24912500Y143000000D03*
X22412500Y143000000D03*
X19912500Y143000000D03*
X72912500Y137000000D03*
X69912500Y137000000D03*
X67412500Y137000000D03*
X64912500Y137000000D03*
X62412500Y137000000D03*
X59912500Y137000000D03*
X57412500Y137000000D03*
X54912500Y137000000D03*
X52412500Y137000000D03*
X49912500Y137000000D03*
X47412500Y137000000D03*
X44912500Y137000000D03*
X42412500Y137000000D03*
X39912500Y137000000D03*
X37412500Y137000000D03*
X34912500Y137000000D03*
X32412500Y137000000D03*
X29912500Y137000000D03*
X27412500Y137000000D03*
X24912500Y137000000D03*
X22412500Y137000000D03*
X19912500Y137000000D03*
X72912500Y134500000D03*
X69912500Y134500000D03*
X67412500Y134500000D03*
X64912500Y134500000D03*
X62412500Y134500000D03*
X59912500Y134500000D03*
X57412500Y134500000D03*
X54912500Y134500000D03*
X52412500Y134500000D03*
X49912500Y134500000D03*
X47412500Y134500000D03*
X44912500Y134500000D03*
X42412500Y134500000D03*
X39912500Y134500000D03*
X37412500Y134500000D03*
X34912500Y134500000D03*
X32412500Y134500000D03*
X29912500Y134500000D03*
X27412500Y134500000D03*
X24912500Y134500000D03*
X22412500Y134500000D03*
X19912500Y134500000D03*
G04 #@! TD*
D12*
G04 #@! TO.C,R17*
X41500000Y111295000D03*
X41500000Y115105000D03*
G04 #@! TD*
D10*
G04 #@! TO.C,P45*
X116500000Y128500000D03*
G04 #@! TD*
D12*
G04 #@! TO.C,R30*
X35500000Y111295000D03*
X35500000Y115105000D03*
G04 #@! TD*
D10*
G04 #@! TO.C,P31*
X104600000Y119500000D03*
G04 #@! TD*
G04 #@! TO.C,P87*
X60350003Y13325003D03*
G04 #@! TD*
G04 #@! TO.C,P25*
X116500000Y124000000D03*
G04 #@! TD*
G04 #@! TO.C,P3*
X82000000Y116200000D03*
G04 #@! TD*
D12*
G04 #@! TO.C,R52*
X46500000Y119695000D03*
X46500000Y123505000D03*
G04 #@! TD*
D10*
G04 #@! TO.C,P42*
X125500000Y124000000D03*
G04 #@! TD*
D12*
G04 #@! TO.C,R28*
X54000000Y112795000D03*
X54000000Y116605000D03*
G04 #@! TD*
D10*
G04 #@! TO.C,P24*
X119500000Y119500000D03*
G04 #@! TD*
D17*
G04 #@! TO.C,J40*
X37337501Y20584160D03*
D10*
X34837501Y20584160D03*
X34837501Y18584160D03*
X37337501Y18584160D03*
D18*
X42107501Y15874160D03*
X30067501Y15874160D03*
G04 #@! TD*
D10*
G04 #@! TO.C,P86*
X57450003Y13325003D03*
G04 #@! TD*
G04 #@! TO.C,G7*
X141206545Y24944788D03*
X141206545Y27484788D03*
X141206545Y30024788D03*
X141206545Y32564788D03*
X141206545Y35104788D03*
X143746545Y24944788D03*
X143746545Y27484788D03*
X143746545Y30024788D03*
X143746545Y32564788D03*
X143746545Y35104788D03*
G04 #@! TD*
G04 #@! TO.C,P10*
X27600000Y119100000D03*
G04 #@! TD*
G04 #@! TO.C,P29*
X110500000Y124000000D03*
G04 #@! TD*
G04 #@! TO.C,P41*
X128500000Y124000000D03*
G04 #@! TD*
G04 #@! TO.C,P51*
X128500000Y128500000D03*
G04 #@! TD*
D12*
G04 #@! TO.C,R32*
X76900000Y119695000D03*
X76900000Y123505000D03*
G04 #@! TD*
D10*
G04 #@! TO.C,P44*
X119500000Y128500000D03*
G04 #@! TD*
D12*
G04 #@! TO.C,R58*
X101500000Y124595000D03*
X101500000Y128405000D03*
G04 #@! TD*
D10*
G04 #@! TO.C,P13*
X35500000Y119000000D03*
G04 #@! TD*
G04 #@! TO.C,G5*
X146306545Y37644788D03*
X146306545Y40184788D03*
X146306545Y42724788D03*
X146306545Y45264788D03*
X146306545Y47804788D03*
X148846545Y37644788D03*
X148846545Y40184788D03*
X148846545Y42724788D03*
X148846545Y45264788D03*
X148846545Y47804788D03*
G04 #@! TD*
G04 #@! TO.C,P7*
X56500000Y116100000D03*
G04 #@! TD*
G04 #@! TO.C,P23*
X125500000Y119500000D03*
G04 #@! TD*
G04 #@! TO.C,P21*
X30500000Y123500000D03*
G04 #@! TD*
D12*
G04 #@! TO.C,R39*
X49000000Y112795000D03*
X49000000Y116605000D03*
G04 #@! TD*
G04 #@! TO.C,R4*
X86500000Y119690000D03*
X86500000Y123500000D03*
G04 #@! TD*
G04 #@! TO.C,R12*
X38500000Y111295000D03*
X38500000Y115105000D03*
G04 #@! TD*
D10*
G04 #@! TO.C,P18*
X41500000Y123500000D03*
G04 #@! TD*
G04 #@! TO.C,J4*
G36*
G01*
X58699999Y26250000D02*
X55900001Y26250000D01*
G75*
G02*
X55650000Y26500001I0J250001D01*
G01*
X55650000Y28699999D01*
G75*
G02*
X55900001Y28950000I250001J0D01*
G01*
X58699999Y28950000D01*
G75*
G02*
X58950000Y28699999I0J-250001D01*
G01*
X58950000Y26500001D01*
G75*
G02*
X58699999Y26250000I-250001J0D01*
G01*
G37*
D19*
X57300000Y31800000D03*
X57300000Y36000000D03*
X62800000Y27600000D03*
X62800000Y31800000D03*
X62800000Y36000000D03*
G04 #@! TD*
D10*
G04 #@! TO.C,P27*
X113500000Y119500000D03*
G04 #@! TD*
G04 #@! TO.C,P50*
X131500000Y128500000D03*
G04 #@! TD*
G04 #@! TO.C,G10*
X141206545Y37644788D03*
X141206545Y40184788D03*
X141206545Y42724788D03*
X141206545Y45264788D03*
X141206545Y47804788D03*
X143746545Y37644788D03*
X143746545Y40184788D03*
X143746545Y42724788D03*
X143746545Y45264788D03*
X143746545Y47804788D03*
G04 #@! TD*
G04 #@! TO.C,G4*
X146306545Y24944788D03*
X146306545Y27484788D03*
X146306545Y30024788D03*
X146306545Y32564788D03*
X146306545Y35104788D03*
X148846545Y24944788D03*
X148846545Y27484788D03*
X148846545Y30024788D03*
X148846545Y32564788D03*
X148846545Y35104788D03*
G04 #@! TD*
G04 #@! TO.C,P12*
X41500000Y119000000D03*
G04 #@! TD*
D17*
G04 #@! TO.C,J3*
X99275000Y17082843D03*
D20*
X99275000Y14542843D03*
X96735000Y17082843D03*
X96735000Y14542843D03*
G04 #@! TD*
D12*
G04 #@! TO.C,R35*
X59000000Y119695000D03*
X59000000Y123505000D03*
G04 #@! TD*
G04 #@! TO.C,R29*
X44000000Y112795000D03*
X44000000Y116605000D03*
G04 #@! TD*
G04 #@! TO.C,R53*
X44000000Y119695000D03*
X44000000Y123505000D03*
G04 #@! TD*
G04 #@! TO.C,F2*
X82000000Y123500000D03*
X82000000Y118600000D03*
G04 #@! TD*
D10*
G04 #@! TO.C,P28*
X110500000Y119500000D03*
G04 #@! TD*
D12*
G04 #@! TO.C,R55*
X95700000Y116095000D03*
X95700000Y119905000D03*
G04 #@! TD*
D10*
G04 #@! TO.C,P36*
X107500000Y124000000D03*
G04 #@! TD*
G04 #@! TO.C,P9*
X38500000Y119000000D03*
G04 #@! TD*
D21*
G04 #@! TO.C,M2*
X80950000Y93925003D03*
X74550003Y93925003D03*
X72650000Y93925003D03*
X68350000Y93925003D03*
D22*
X65950003Y93475004D03*
X64950002Y93475004D03*
D21*
X62100000Y93925003D03*
X81400002Y109425000D03*
X79550003Y109425000D03*
X74600000Y109425000D03*
X62550002Y109425000D03*
G04 #@! TD*
D10*
G04 #@! TO.C,P38*
X101600000Y118400000D03*
G04 #@! TD*
G04 #@! TO.C,P32*
X131500000Y119500000D03*
G04 #@! TD*
G04 #@! TO.C,P20*
X35500000Y123500000D03*
G04 #@! TD*
D12*
G04 #@! TO.C,R51*
X49000000Y119695000D03*
X49000000Y123505000D03*
G04 #@! TD*
G04 #@! TO.C,R36*
X56500000Y119695000D03*
X56500000Y123505000D03*
G04 #@! TD*
G04 #@! TO.C,R57*
X90900000Y119690000D03*
X90900000Y123500000D03*
G04 #@! TD*
D10*
G04 #@! TO.C,P19*
X38500000Y123500000D03*
G04 #@! TD*
G04 #@! TO.C,P16*
X71500000Y123500000D03*
G04 #@! TD*
G04 #@! TO.C,P34*
X122500000Y119500000D03*
G04 #@! TD*
D21*
G04 #@! TO.C,BT1*
X41499858Y47100000D03*
X34000000Y47100000D03*
G04 #@! TD*
D12*
G04 #@! TO.C,R34*
X71400000Y115795000D03*
X71400000Y119605000D03*
G04 #@! TD*
D10*
G04 #@! TO.C,P26*
X119500000Y124000000D03*
G04 #@! TD*
G04 #@! TO.C,J2*
G36*
G01*
X62350000Y80850001D02*
X62350000Y83649999D01*
G75*
G02*
X62600001Y83900000I250001J0D01*
G01*
X64799999Y83900000D01*
G75*
G02*
X65050000Y83649999I0J-250001D01*
G01*
X65050000Y80850001D01*
G75*
G02*
X64799999Y80600000I-250001J0D01*
G01*
X62600001Y80600000D01*
G75*
G02*
X62350000Y80850001I0J250001D01*
G01*
G37*
D23*
X67900000Y82250000D03*
X72100000Y82250000D03*
X76300000Y82250000D03*
X80500000Y82250000D03*
X84700000Y82250000D03*
X63700000Y76750000D03*
X67900000Y76750000D03*
X72100000Y76750000D03*
X76300000Y76750000D03*
X80500000Y76750000D03*
X84700000Y76750000D03*
G04 #@! TD*
D10*
G04 #@! TO.C,P30*
X107500000Y119500000D03*
G04 #@! TD*
G04 #@! TO.C,P4*
X54000000Y119100000D03*
G04 #@! TD*
G04 #@! TO.C,P5*
X51500000Y116100000D03*
G04 #@! TD*
D12*
G04 #@! TO.C,R3*
X88700000Y119690000D03*
X88700000Y123500000D03*
G04 #@! TD*
D10*
G04 #@! TO.C,P11*
X64000000Y116100000D03*
G04 #@! TD*
D12*
G04 #@! TO.C,R8*
X79400000Y115795000D03*
X79400000Y119605000D03*
G04 #@! TD*
G04 #@! TO.C,R40*
X46500000Y112795000D03*
X46500000Y116605000D03*
G04 #@! TD*
G04 #@! TO.C,R59*
X98500000Y116095000D03*
X98500000Y119905000D03*
G04 #@! TD*
D10*
G04 #@! TO.C,P49*
X95700000Y124000000D03*
G04 #@! TD*
G04 #@! TO.C,P48*
X104500000Y124000000D03*
G04 #@! TD*
G04 #@! TO.C,P47*
X107500000Y128500000D03*
G04 #@! TD*
D12*
G04 #@! TO.C,R38*
X51500000Y119695000D03*
X51500000Y123505000D03*
G04 #@! TD*
G04 #@! TO.C,R9*
X66500000Y119695000D03*
X66500000Y123505000D03*
G04 #@! TD*
D10*
G04 #@! TO.C,P35*
X116500000Y119500000D03*
G04 #@! TD*
G04 #@! TO.C,P40*
X131500000Y124000000D03*
G04 #@! TD*
G04 #@! TO.C,G6*
X136212813Y24944788D03*
X136212813Y27484788D03*
X136212813Y30024788D03*
X136212813Y32564788D03*
X136212813Y35104788D03*
X138752813Y24944788D03*
X138752813Y27484788D03*
X138752813Y30024788D03*
X138752813Y32564788D03*
X138752813Y35104788D03*
G04 #@! TD*
G04 #@! TO.C,P8*
X54000000Y123500000D03*
G04 #@! TD*
G04 #@! TO.C,P39*
X104700000Y115100000D03*
G04 #@! TD*
D24*
G04 #@! TO.C,M6*
X65675002Y17225002D03*
X64800000Y17750002D03*
X65975004Y18500000D03*
X65900001Y22050001D03*
G04 #@! TD*
D10*
G04 #@! TO.C,G8*
X151406545Y37644788D03*
X151406545Y40184788D03*
X151406545Y42724788D03*
X151406545Y45264788D03*
X151406545Y47804788D03*
X153946545Y37644788D03*
X153946545Y40184788D03*
X153946545Y42724788D03*
X153946545Y45264788D03*
X153946545Y47804788D03*
G04 #@! TD*
G04 #@! TO.C,P52*
X125500000Y128500000D03*
G04 #@! TD*
D12*
G04 #@! TO.C,R46*
X69000000Y119695000D03*
X69000000Y123505000D03*
G04 #@! TD*
D10*
G04 #@! TO.C,P22*
X27500000Y123500000D03*
G04 #@! TD*
D22*
G04 #@! TO.C,M9*
X60074999Y101150000D03*
X59124999Y101150000D03*
X58175001Y101150000D03*
X59174999Y109850000D03*
X60074999Y109850000D03*
G04 #@! TD*
D10*
G04 #@! TO.C,P6*
X30500000Y119100000D03*
G04 #@! TD*
G04 #@! TO.C,P43*
X122500000Y124000000D03*
G04 #@! TD*
D12*
G04 #@! TO.C,R54*
X33000000Y119690000D03*
X33000000Y123500000D03*
G04 #@! TD*
D10*
G04 #@! TO.C,P2*
X74400000Y119100000D03*
G04 #@! TD*
D12*
G04 #@! TO.C,R22*
X76900000Y112795000D03*
X76900000Y116605000D03*
G04 #@! TD*
G04 #@! TO.C,R56*
X98500000Y124595000D03*
X98500000Y128405000D03*
G04 #@! TD*
G04 #@! TO.C,R60*
X93100000Y119690000D03*
X93100000Y123500000D03*
G04 #@! TD*
G04 #@! TO.C,R27*
X61500000Y119695000D03*
X61500000Y123505000D03*
G04 #@! TD*
D10*
G04 #@! TO.C,P15*
X74400000Y123500000D03*
G04 #@! TD*
G04 #@! TO.C,P73*
X87900000Y68200000D03*
G04 #@! TD*
G04 #@! TO.C,P55*
X110500000Y128500000D03*
G04 #@! TD*
G04 #@! TO.C,P54*
X113500000Y128500000D03*
G04 #@! TD*
D12*
G04 #@! TO.C,R47*
X64000000Y119695000D03*
X64000000Y123505000D03*
G04 #@! TD*
G04 #@! TO.C,R91*
G36*
G01*
X69705000Y58325000D02*
X70485000Y58325000D01*
G75*
G02*
X70555000Y58255000I0J-70000D01*
G01*
X70555000Y57695000D01*
G75*
G02*
X70485000Y57625000I-70000J0D01*
G01*
X69705000Y57625000D01*
G75*
G02*
X69635000Y57695000I0J70000D01*
G01*
X69635000Y58255000D01*
G75*
G02*
X69705000Y58325000I70000J0D01*
G01*
G37*
G36*
G01*
X69705000Y56725000D02*
X70485000Y56725000D01*
G75*
G02*
X70555000Y56655000I0J-70000D01*
G01*
X70555000Y56095000D01*
G75*
G02*
X70485000Y56025000I-70000J0D01*
G01*
X69705000Y56025000D01*
G75*
G02*
X69635000Y56095000I0J70000D01*
G01*
X69635000Y56655000D01*
G75*
G02*
X69705000Y56725000I70000J0D01*
G01*
G37*
G04 #@! TD*
G04 #@! TO.C,R81*
G36*
G01*
X48705000Y58325000D02*
X49485000Y58325000D01*
G75*
G02*
X49555000Y58255000I0J-70000D01*
G01*
X49555000Y57695000D01*
G75*
G02*
X49485000Y57625000I-70000J0D01*
G01*
X48705000Y57625000D01*
G75*
G02*
X48635000Y57695000I0J70000D01*
G01*
X48635000Y58255000D01*
G75*
G02*
X48705000Y58325000I70000J0D01*
G01*
G37*
G36*
G01*
X48705000Y56725000D02*
X49485000Y56725000D01*
G75*
G02*
X49555000Y56655000I0J-70000D01*
G01*
X49555000Y56095000D01*
G75*
G02*
X49485000Y56025000I-70000J0D01*
G01*
X48705000Y56025000D01*
G75*
G02*
X48635000Y56095000I0J70000D01*
G01*
X48635000Y56655000D01*
G75*
G02*
X48705000Y56725000I70000J0D01*
G01*
G37*
G04 #@! TD*
G04 #@! TO.C,R48*
G36*
G01*
X35200000Y58325000D02*
X35980000Y58325000D01*
G75*
G02*
X36050000Y58255000I0J-70000D01*
G01*
X36050000Y57695000D01*
G75*
G02*
X35980000Y57625000I-70000J0D01*
G01*
X35200000Y57625000D01*
G75*
G02*
X35130000Y57695000I0J70000D01*
G01*
X35130000Y58255000D01*
G75*
G02*
X35200000Y58325000I70000J0D01*
G01*
G37*
G36*
G01*
X35200000Y56725000D02*
X35980000Y56725000D01*
G75*
G02*
X36050000Y56655000I0J-70000D01*
G01*
X36050000Y56095000D01*
G75*
G02*
X35980000Y56025000I-70000J0D01*
G01*
X35200000Y56025000D01*
G75*
G02*
X35130000Y56095000I0J70000D01*
G01*
X35130000Y56655000D01*
G75*
G02*
X35200000Y56725000I70000J0D01*
G01*
G37*
G04 #@! TD*
G04 #@! TO.C,R74*
G36*
G01*
X39700000Y58325000D02*
X40480000Y58325000D01*
G75*
G02*
X40550000Y58255000I0J-70000D01*
G01*
X40550000Y57695000D01*
G75*
G02*
X40480000Y57625000I-70000J0D01*
G01*
X39700000Y57625000D01*
G75*
G02*
X39630000Y57695000I0J70000D01*
G01*
X39630000Y58255000D01*
G75*
G02*
X39700000Y58325000I70000J0D01*
G01*
G37*
G36*
G01*
X39700000Y56725000D02*
X40480000Y56725000D01*
G75*
G02*
X40550000Y56655000I0J-70000D01*
G01*
X40550000Y56095000D01*
G75*
G02*
X40480000Y56025000I-70000J0D01*
G01*
X39700000Y56025000D01*
G75*
G02*
X39630000Y56095000I0J70000D01*
G01*
X39630000Y56655000D01*
G75*
G02*
X39700000Y56725000I70000J0D01*
G01*
G37*
G04 #@! TD*
G04 #@! TO.C,R26*
G36*
G01*
X29200000Y58325000D02*
X29980000Y58325000D01*
G75*
G02*
X30050000Y58255000I0J-70000D01*
G01*
X30050000Y57695000D01*
G75*
G02*
X29980000Y57625000I-70000J0D01*
G01*
X29200000Y57625000D01*
G75*
G02*
X29130000Y57695000I0J70000D01*
G01*
X29130000Y58255000D01*
G75*
G02*
X29200000Y58325000I70000J0D01*
G01*
G37*
G36*
G01*
X29200000Y56725000D02*
X29980000Y56725000D01*
G75*
G02*
X30050000Y56655000I0J-70000D01*
G01*
X30050000Y56095000D01*
G75*
G02*
X29980000Y56025000I-70000J0D01*
G01*
X29200000Y56025000D01*
G75*
G02*
X29130000Y56095000I0J70000D01*
G01*
X29130000Y56655000D01*
G75*
G02*
X29200000Y56725000I70000J0D01*
G01*
G37*
G04 #@! TD*
G04 #@! TO.C,R80*
G36*
G01*
X51705000Y58325000D02*
X52485000Y58325000D01*
G75*
G02*
X52555000Y58255000I0J-70000D01*
G01*
X52555000Y57695000D01*
G75*
G02*
X52485000Y57625000I-70000J0D01*
G01*
X51705000Y57625000D01*
G75*
G02*
X51635000Y57695000I0J70000D01*
G01*
X51635000Y58255000D01*
G75*
G02*
X51705000Y58325000I70000J0D01*
G01*
G37*
G36*
G01*
X51705000Y56725000D02*
X52485000Y56725000D01*
G75*
G02*
X52555000Y56655000I0J-70000D01*
G01*
X52555000Y56095000D01*
G75*
G02*
X52485000Y56025000I-70000J0D01*
G01*
X51705000Y56025000D01*
G75*
G02*
X51635000Y56095000I0J70000D01*
G01*
X51635000Y56655000D01*
G75*
G02*
X51705000Y56725000I70000J0D01*
G01*
G37*
G04 #@! TD*
G04 #@! TO.C,D4*
G36*
G01*
X60105000Y59225000D02*
X59085000Y59225000D01*
G75*
G02*
X58995000Y59315000I0J90000D01*
G01*
X58995000Y60035000D01*
G75*
G02*
X59085000Y60125000I90000J0D01*
G01*
X60105000Y60125000D01*
G75*
G02*
X60195000Y60035000I0J-90000D01*
G01*
X60195000Y59315000D01*
G75*
G02*
X60105000Y59225000I-90000J0D01*
G01*
G37*
G36*
G01*
X60105000Y62525000D02*
X59085000Y62525000D01*
G75*
G02*
X58995000Y62615000I0J90000D01*
G01*
X58995000Y63335000D01*
G75*
G02*
X59085000Y63425000I90000J0D01*
G01*
X60105000Y63425000D01*
G75*
G02*
X60195000Y63335000I0J-90000D01*
G01*
X60195000Y62615000D01*
G75*
G02*
X60105000Y62525000I-90000J0D01*
G01*
G37*
G04 #@! TD*
G04 #@! TO.C,R93*
G36*
G01*
X66705000Y58325000D02*
X67485000Y58325000D01*
G75*
G02*
X67555000Y58255000I0J-70000D01*
G01*
X67555000Y57695000D01*
G75*
G02*
X67485000Y57625000I-70000J0D01*
G01*
X66705000Y57625000D01*
G75*
G02*
X66635000Y57695000I0J70000D01*
G01*
X66635000Y58255000D01*
G75*
G02*
X66705000Y58325000I70000J0D01*
G01*
G37*
G36*
G01*
X66705000Y56725000D02*
X67485000Y56725000D01*
G75*
G02*
X67555000Y56655000I0J-70000D01*
G01*
X67555000Y56095000D01*
G75*
G02*
X67485000Y56025000I-70000J0D01*
G01*
X66705000Y56025000D01*
G75*
G02*
X66635000Y56095000I0J70000D01*
G01*
X66635000Y56655000D01*
G75*
G02*
X66705000Y56725000I70000J0D01*
G01*
G37*
G04 #@! TD*
D16*
G04 #@! TO.C,J22*
X134800000Y73100000D03*
G04 #@! TD*
G04 #@! TO.C,R92*
G36*
G01*
X60705000Y58325000D02*
X61485000Y58325000D01*
G75*
G02*
X61555000Y58255000I0J-70000D01*
G01*
X61555000Y57695000D01*
G75*
G02*
X61485000Y57625000I-70000J0D01*
G01*
X60705000Y57625000D01*
G75*
G02*
X60635000Y57695000I0J70000D01*
G01*
X60635000Y58255000D01*
G75*
G02*
X60705000Y58325000I70000J0D01*
G01*
G37*
G36*
G01*
X60705000Y56725000D02*
X61485000Y56725000D01*
G75*
G02*
X61555000Y56655000I0J-70000D01*
G01*
X61555000Y56095000D01*
G75*
G02*
X61485000Y56025000I-70000J0D01*
G01*
X60705000Y56025000D01*
G75*
G02*
X60635000Y56095000I0J70000D01*
G01*
X60635000Y56655000D01*
G75*
G02*
X60705000Y56725000I70000J0D01*
G01*
G37*
G04 #@! TD*
G04 #@! TO.C,D25*
G36*
G01*
X62605000Y59225000D02*
X61585000Y59225000D01*
G75*
G02*
X61495000Y59315000I0J90000D01*
G01*
X61495000Y60035000D01*
G75*
G02*
X61585000Y60125000I90000J0D01*
G01*
X62605000Y60125000D01*
G75*
G02*
X62695000Y60035000I0J-90000D01*
G01*
X62695000Y59315000D01*
G75*
G02*
X62605000Y59225000I-90000J0D01*
G01*
G37*
G36*
G01*
X62605000Y62525000D02*
X61585000Y62525000D01*
G75*
G02*
X61495000Y62615000I0J90000D01*
G01*
X61495000Y63335000D01*
G75*
G02*
X61585000Y63425000I90000J0D01*
G01*
X62605000Y63425000D01*
G75*
G02*
X62695000Y63335000I0J-90000D01*
G01*
X62695000Y62615000D01*
G75*
G02*
X62605000Y62525000I-90000J0D01*
G01*
G37*
G04 #@! TD*
G04 #@! TO.C,R49*
G36*
G01*
X38200000Y58325000D02*
X38980000Y58325000D01*
G75*
G02*
X39050000Y58255000I0J-70000D01*
G01*
X39050000Y57695000D01*
G75*
G02*
X38980000Y57625000I-70000J0D01*
G01*
X38200000Y57625000D01*
G75*
G02*
X38130000Y57695000I0J70000D01*
G01*
X38130000Y58255000D01*
G75*
G02*
X38200000Y58325000I70000J0D01*
G01*
G37*
G36*
G01*
X38200000Y56725000D02*
X38980000Y56725000D01*
G75*
G02*
X39050000Y56655000I0J-70000D01*
G01*
X39050000Y56095000D01*
G75*
G02*
X38980000Y56025000I-70000J0D01*
G01*
X38200000Y56025000D01*
G75*
G02*
X38130000Y56095000I0J70000D01*
G01*
X38130000Y56655000D01*
G75*
G02*
X38200000Y56725000I70000J0D01*
G01*
G37*
G04 #@! TD*
G04 #@! TO.C,R70*
G36*
G01*
X57705000Y58325000D02*
X58485000Y58325000D01*
G75*
G02*
X58555000Y58255000I0J-70000D01*
G01*
X58555000Y57695000D01*
G75*
G02*
X58485000Y57625000I-70000J0D01*
G01*
X57705000Y57625000D01*
G75*
G02*
X57635000Y57695000I0J70000D01*
G01*
X57635000Y58255000D01*
G75*
G02*
X57705000Y58325000I70000J0D01*
G01*
G37*
G36*
G01*
X57705000Y56725000D02*
X58485000Y56725000D01*
G75*
G02*
X58555000Y56655000I0J-70000D01*
G01*
X58555000Y56095000D01*
G75*
G02*
X58485000Y56025000I-70000J0D01*
G01*
X57705000Y56025000D01*
G75*
G02*
X57635000Y56095000I0J70000D01*
G01*
X57635000Y56655000D01*
G75*
G02*
X57705000Y56725000I70000J0D01*
G01*
G37*
G04 #@! TD*
G04 #@! TO.C,D39*
G36*
G01*
X42100000Y59225000D02*
X41080000Y59225000D01*
G75*
G02*
X40990000Y59315000I0J90000D01*
G01*
X40990000Y60035000D01*
G75*
G02*
X41080000Y60125000I90000J0D01*
G01*
X42100000Y60125000D01*
G75*
G02*
X42190000Y60035000I0J-90000D01*
G01*
X42190000Y59315000D01*
G75*
G02*
X42100000Y59225000I-90000J0D01*
G01*
G37*
G36*
G01*
X42100000Y62525000D02*
X41080000Y62525000D01*
G75*
G02*
X40990000Y62615000I0J90000D01*
G01*
X40990000Y63335000D01*
G75*
G02*
X41080000Y63425000I90000J0D01*
G01*
X42100000Y63425000D01*
G75*
G02*
X42190000Y63335000I0J-90000D01*
G01*
X42190000Y62615000D01*
G75*
G02*
X42100000Y62525000I-90000J0D01*
G01*
G37*
G04 #@! TD*
G04 #@! TO.C,R87*
G36*
G01*
X62205000Y58325000D02*
X62985000Y58325000D01*
G75*
G02*
X63055000Y58255000I0J-70000D01*
G01*
X63055000Y57695000D01*
G75*
G02*
X62985000Y57625000I-70000J0D01*
G01*
X62205000Y57625000D01*
G75*
G02*
X62135000Y57695000I0J70000D01*
G01*
X62135000Y58255000D01*
G75*
G02*
X62205000Y58325000I70000J0D01*
G01*
G37*
G36*
G01*
X62205000Y56725000D02*
X62985000Y56725000D01*
G75*
G02*
X63055000Y56655000I0J-70000D01*
G01*
X63055000Y56095000D01*
G75*
G02*
X62985000Y56025000I-70000J0D01*
G01*
X62205000Y56025000D01*
G75*
G02*
X62135000Y56095000I0J70000D01*
G01*
X62135000Y56655000D01*
G75*
G02*
X62205000Y56725000I70000J0D01*
G01*
G37*
G04 #@! TD*
G04 #@! TO.C,R69*
G36*
G01*
X33700000Y58325000D02*
X34480000Y58325000D01*
G75*
G02*
X34550000Y58255000I0J-70000D01*
G01*
X34550000Y57695000D01*
G75*
G02*
X34480000Y57625000I-70000J0D01*
G01*
X33700000Y57625000D01*
G75*
G02*
X33630000Y57695000I0J70000D01*
G01*
X33630000Y58255000D01*
G75*
G02*
X33700000Y58325000I70000J0D01*
G01*
G37*
G36*
G01*
X33700000Y56725000D02*
X34480000Y56725000D01*
G75*
G02*
X34550000Y56655000I0J-70000D01*
G01*
X34550000Y56095000D01*
G75*
G02*
X34480000Y56025000I-70000J0D01*
G01*
X33700000Y56025000D01*
G75*
G02*
X33630000Y56095000I0J70000D01*
G01*
X33630000Y56655000D01*
G75*
G02*
X33700000Y56725000I70000J0D01*
G01*
G37*
G04 #@! TD*
G04 #@! TO.C,D44*
G36*
G01*
X38600000Y59225000D02*
X37580000Y59225000D01*
G75*
G02*
X37490000Y59315000I0J90000D01*
G01*
X37490000Y60035000D01*
G75*
G02*
X37580000Y60125000I90000J0D01*
G01*
X38600000Y60125000D01*
G75*
G02*
X38690000Y60035000I0J-90000D01*
G01*
X38690000Y59315000D01*
G75*
G02*
X38600000Y59225000I-90000J0D01*
G01*
G37*
G36*
G01*
X38600000Y62525000D02*
X37580000Y62525000D01*
G75*
G02*
X37490000Y62615000I0J90000D01*
G01*
X37490000Y63335000D01*
G75*
G02*
X37580000Y63425000I90000J0D01*
G01*
X38600000Y63425000D01*
G75*
G02*
X38690000Y63335000I0J-90000D01*
G01*
X38690000Y62615000D01*
G75*
G02*
X38600000Y62525000I-90000J0D01*
G01*
G37*
G04 #@! TD*
G04 #@! TO.C,R33*
G36*
G01*
X53205000Y58325000D02*
X53985000Y58325000D01*
G75*
G02*
X54055000Y58255000I0J-70000D01*
G01*
X54055000Y57695000D01*
G75*
G02*
X53985000Y57625000I-70000J0D01*
G01*
X53205000Y57625000D01*
G75*
G02*
X53135000Y57695000I0J70000D01*
G01*
X53135000Y58255000D01*
G75*
G02*
X53205000Y58325000I70000J0D01*
G01*
G37*
G36*
G01*
X53205000Y56725000D02*
X53985000Y56725000D01*
G75*
G02*
X54055000Y56655000I0J-70000D01*
G01*
X54055000Y56095000D01*
G75*
G02*
X53985000Y56025000I-70000J0D01*
G01*
X53205000Y56025000D01*
G75*
G02*
X53135000Y56095000I0J70000D01*
G01*
X53135000Y56655000D01*
G75*
G02*
X53205000Y56725000I70000J0D01*
G01*
G37*
G04 #@! TD*
G04 #@! TO.C,R89*
G36*
G01*
X68205000Y58325000D02*
X68985000Y58325000D01*
G75*
G02*
X69055000Y58255000I0J-70000D01*
G01*
X69055000Y57695000D01*
G75*
G02*
X68985000Y57625000I-70000J0D01*
G01*
X68205000Y57625000D01*
G75*
G02*
X68135000Y57695000I0J70000D01*
G01*
X68135000Y58255000D01*
G75*
G02*
X68205000Y58325000I70000J0D01*
G01*
G37*
G36*
G01*
X68205000Y56725000D02*
X68985000Y56725000D01*
G75*
G02*
X69055000Y56655000I0J-70000D01*
G01*
X69055000Y56095000D01*
G75*
G02*
X68985000Y56025000I-70000J0D01*
G01*
X68205000Y56025000D01*
G75*
G02*
X68135000Y56095000I0J70000D01*
G01*
X68135000Y56655000D01*
G75*
G02*
X68205000Y56725000I70000J0D01*
G01*
G37*
G04 #@! TD*
G04 #@! TO.C,R73*
G36*
G01*
X45700000Y58325000D02*
X46480000Y58325000D01*
G75*
G02*
X46550000Y58255000I0J-70000D01*
G01*
X46550000Y57695000D01*
G75*
G02*
X46480000Y57625000I-70000J0D01*
G01*
X45700000Y57625000D01*
G75*
G02*
X45630000Y57695000I0J70000D01*
G01*
X45630000Y58255000D01*
G75*
G02*
X45700000Y58325000I70000J0D01*
G01*
G37*
G36*
G01*
X45700000Y56725000D02*
X46480000Y56725000D01*
G75*
G02*
X46550000Y56655000I0J-70000D01*
G01*
X46550000Y56095000D01*
G75*
G02*
X46480000Y56025000I-70000J0D01*
G01*
X45700000Y56025000D01*
G75*
G02*
X45630000Y56095000I0J70000D01*
G01*
X45630000Y56655000D01*
G75*
G02*
X45700000Y56725000I70000J0D01*
G01*
G37*
G04 #@! TD*
G04 #@! TO.C,D31*
G36*
G01*
X66105000Y59225000D02*
X65085000Y59225000D01*
G75*
G02*
X64995000Y59315000I0J90000D01*
G01*
X64995000Y60035000D01*
G75*
G02*
X65085000Y60125000I90000J0D01*
G01*
X66105000Y60125000D01*
G75*
G02*
X66195000Y60035000I0J-90000D01*
G01*
X66195000Y59315000D01*
G75*
G02*
X66105000Y59225000I-90000J0D01*
G01*
G37*
G36*
G01*
X66105000Y62525000D02*
X65085000Y62525000D01*
G75*
G02*
X64995000Y62615000I0J90000D01*
G01*
X64995000Y63335000D01*
G75*
G02*
X65085000Y63425000I90000J0D01*
G01*
X66105000Y63425000D01*
G75*
G02*
X66195000Y63335000I0J-90000D01*
G01*
X66195000Y62615000D01*
G75*
G02*
X66105000Y62525000I-90000J0D01*
G01*
G37*
G04 #@! TD*
G04 #@! TO.C,D41*
G36*
G01*
X36100000Y59225000D02*
X35080000Y59225000D01*
G75*
G02*
X34990000Y59315000I0J90000D01*
G01*
X34990000Y60035000D01*
G75*
G02*
X35080000Y60125000I90000J0D01*
G01*
X36100000Y60125000D01*
G75*
G02*
X36190000Y60035000I0J-90000D01*
G01*
X36190000Y59315000D01*
G75*
G02*
X36100000Y59225000I-90000J0D01*
G01*
G37*
G36*
G01*
X36100000Y62525000D02*
X35080000Y62525000D01*
G75*
G02*
X34990000Y62615000I0J90000D01*
G01*
X34990000Y63335000D01*
G75*
G02*
X35080000Y63425000I90000J0D01*
G01*
X36100000Y63425000D01*
G75*
G02*
X36190000Y63335000I0J-90000D01*
G01*
X36190000Y62615000D01*
G75*
G02*
X36100000Y62525000I-90000J0D01*
G01*
G37*
G04 #@! TD*
G04 #@! TO.C,R77*
G36*
G01*
X36700000Y58325000D02*
X37480000Y58325000D01*
G75*
G02*
X37550000Y58255000I0J-70000D01*
G01*
X37550000Y57695000D01*
G75*
G02*
X37480000Y57625000I-70000J0D01*
G01*
X36700000Y57625000D01*
G75*
G02*
X36630000Y57695000I0J70000D01*
G01*
X36630000Y58255000D01*
G75*
G02*
X36700000Y58325000I70000J0D01*
G01*
G37*
G36*
G01*
X36700000Y56725000D02*
X37480000Y56725000D01*
G75*
G02*
X37550000Y56655000I0J-70000D01*
G01*
X37550000Y56095000D01*
G75*
G02*
X37480000Y56025000I-70000J0D01*
G01*
X36700000Y56025000D01*
G75*
G02*
X36630000Y56095000I0J70000D01*
G01*
X36630000Y56655000D01*
G75*
G02*
X36700000Y56725000I70000J0D01*
G01*
G37*
G04 #@! TD*
G04 #@! TO.C,R42*
G36*
G01*
X44200000Y58325000D02*
X44980000Y58325000D01*
G75*
G02*
X45050000Y58255000I0J-70000D01*
G01*
X45050000Y57695000D01*
G75*
G02*
X44980000Y57625000I-70000J0D01*
G01*
X44200000Y57625000D01*
G75*
G02*
X44130000Y57695000I0J70000D01*
G01*
X44130000Y58255000D01*
G75*
G02*
X44200000Y58325000I70000J0D01*
G01*
G37*
G36*
G01*
X44200000Y56725000D02*
X44980000Y56725000D01*
G75*
G02*
X45050000Y56655000I0J-70000D01*
G01*
X45050000Y56095000D01*
G75*
G02*
X44980000Y56025000I-70000J0D01*
G01*
X44200000Y56025000D01*
G75*
G02*
X44130000Y56095000I0J70000D01*
G01*
X44130000Y56655000D01*
G75*
G02*
X44200000Y56725000I70000J0D01*
G01*
G37*
G04 #@! TD*
G04 #@! TO.C,R75*
G36*
G01*
X42700000Y58325000D02*
X43480000Y58325000D01*
G75*
G02*
X43550000Y58255000I0J-70000D01*
G01*
X43550000Y57695000D01*
G75*
G02*
X43480000Y57625000I-70000J0D01*
G01*
X42700000Y57625000D01*
G75*
G02*
X42630000Y57695000I0J70000D01*
G01*
X42630000Y58255000D01*
G75*
G02*
X42700000Y58325000I70000J0D01*
G01*
G37*
G36*
G01*
X42700000Y56725000D02*
X43480000Y56725000D01*
G75*
G02*
X43550000Y56655000I0J-70000D01*
G01*
X43550000Y56095000D01*
G75*
G02*
X43480000Y56025000I-70000J0D01*
G01*
X42700000Y56025000D01*
G75*
G02*
X42630000Y56095000I0J70000D01*
G01*
X42630000Y56655000D01*
G75*
G02*
X42700000Y56725000I70000J0D01*
G01*
G37*
G04 #@! TD*
G04 #@! TO.C,R72*
G36*
G01*
X54705000Y58325000D02*
X55485000Y58325000D01*
G75*
G02*
X55555000Y58255000I0J-70000D01*
G01*
X55555000Y57695000D01*
G75*
G02*
X55485000Y57625000I-70000J0D01*
G01*
X54705000Y57625000D01*
G75*
G02*
X54635000Y57695000I0J70000D01*
G01*
X54635000Y58255000D01*
G75*
G02*
X54705000Y58325000I70000J0D01*
G01*
G37*
G36*
G01*
X54705000Y56725000D02*
X55485000Y56725000D01*
G75*
G02*
X55555000Y56655000I0J-70000D01*
G01*
X55555000Y56095000D01*
G75*
G02*
X55485000Y56025000I-70000J0D01*
G01*
X54705000Y56025000D01*
G75*
G02*
X54635000Y56095000I0J70000D01*
G01*
X54635000Y56655000D01*
G75*
G02*
X54705000Y56725000I70000J0D01*
G01*
G37*
G04 #@! TD*
G04 #@! TO.C,R79*
G36*
G01*
X50205000Y58325000D02*
X50985000Y58325000D01*
G75*
G02*
X51055000Y58255000I0J-70000D01*
G01*
X51055000Y57695000D01*
G75*
G02*
X50985000Y57625000I-70000J0D01*
G01*
X50205000Y57625000D01*
G75*
G02*
X50135000Y57695000I0J70000D01*
G01*
X50135000Y58255000D01*
G75*
G02*
X50205000Y58325000I70000J0D01*
G01*
G37*
G36*
G01*
X50205000Y56725000D02*
X50985000Y56725000D01*
G75*
G02*
X51055000Y56655000I0J-70000D01*
G01*
X51055000Y56095000D01*
G75*
G02*
X50985000Y56025000I-70000J0D01*
G01*
X50205000Y56025000D01*
G75*
G02*
X50135000Y56095000I0J70000D01*
G01*
X50135000Y56655000D01*
G75*
G02*
X50205000Y56725000I70000J0D01*
G01*
G37*
G04 #@! TD*
G04 #@! TO.C,R37*
G36*
G01*
X56205000Y58325000D02*
X56985000Y58325000D01*
G75*
G02*
X57055000Y58255000I0J-70000D01*
G01*
X57055000Y57695000D01*
G75*
G02*
X56985000Y57625000I-70000J0D01*
G01*
X56205000Y57625000D01*
G75*
G02*
X56135000Y57695000I0J70000D01*
G01*
X56135000Y58255000D01*
G75*
G02*
X56205000Y58325000I70000J0D01*
G01*
G37*
G36*
G01*
X56205000Y56725000D02*
X56985000Y56725000D01*
G75*
G02*
X57055000Y56655000I0J-70000D01*
G01*
X57055000Y56095000D01*
G75*
G02*
X56985000Y56025000I-70000J0D01*
G01*
X56205000Y56025000D01*
G75*
G02*
X56135000Y56095000I0J70000D01*
G01*
X56135000Y56655000D01*
G75*
G02*
X56205000Y56725000I70000J0D01*
G01*
G37*
G04 #@! TD*
G04 #@! TO.C,D40*
G36*
G01*
X44600000Y59225000D02*
X43580000Y59225000D01*
G75*
G02*
X43490000Y59315000I0J90000D01*
G01*
X43490000Y60035000D01*
G75*
G02*
X43580000Y60125000I90000J0D01*
G01*
X44600000Y60125000D01*
G75*
G02*
X44690000Y60035000I0J-90000D01*
G01*
X44690000Y59315000D01*
G75*
G02*
X44600000Y59225000I-90000J0D01*
G01*
G37*
G36*
G01*
X44600000Y62525000D02*
X43580000Y62525000D01*
G75*
G02*
X43490000Y62615000I0J90000D01*
G01*
X43490000Y63335000D01*
G75*
G02*
X43580000Y63425000I90000J0D01*
G01*
X44600000Y63425000D01*
G75*
G02*
X44690000Y63335000I0J-90000D01*
G01*
X44690000Y62615000D01*
G75*
G02*
X44600000Y62525000I-90000J0D01*
G01*
G37*
G04 #@! TD*
G04 #@! TO.C,R31*
G36*
G01*
X32200000Y58325000D02*
X32980000Y58325000D01*
G75*
G02*
X33050000Y58255000I0J-70000D01*
G01*
X33050000Y57695000D01*
G75*
G02*
X32980000Y57625000I-70000J0D01*
G01*
X32200000Y57625000D01*
G75*
G02*
X32130000Y57695000I0J70000D01*
G01*
X32130000Y58255000D01*
G75*
G02*
X32200000Y58325000I70000J0D01*
G01*
G37*
G36*
G01*
X32200000Y56725000D02*
X32980000Y56725000D01*
G75*
G02*
X33050000Y56655000I0J-70000D01*
G01*
X33050000Y56095000D01*
G75*
G02*
X32980000Y56025000I-70000J0D01*
G01*
X32200000Y56025000D01*
G75*
G02*
X32130000Y56095000I0J70000D01*
G01*
X32130000Y56655000D01*
G75*
G02*
X32200000Y56725000I70000J0D01*
G01*
G37*
G04 #@! TD*
G04 #@! TO.C,R41*
G36*
G01*
X41200000Y58325000D02*
X41980000Y58325000D01*
G75*
G02*
X42050000Y58255000I0J-70000D01*
G01*
X42050000Y57695000D01*
G75*
G02*
X41980000Y57625000I-70000J0D01*
G01*
X41200000Y57625000D01*
G75*
G02*
X41130000Y57695000I0J70000D01*
G01*
X41130000Y58255000D01*
G75*
G02*
X41200000Y58325000I70000J0D01*
G01*
G37*
G36*
G01*
X41200000Y56725000D02*
X41980000Y56725000D01*
G75*
G02*
X42050000Y56655000I0J-70000D01*
G01*
X42050000Y56095000D01*
G75*
G02*
X41980000Y56025000I-70000J0D01*
G01*
X41200000Y56025000D01*
G75*
G02*
X41130000Y56095000I0J70000D01*
G01*
X41130000Y56655000D01*
G75*
G02*
X41200000Y56725000I70000J0D01*
G01*
G37*
G04 #@! TD*
G04 #@! TO.C,R71*
G36*
G01*
X30700000Y58325000D02*
X31480000Y58325000D01*
G75*
G02*
X31550000Y58255000I0J-70000D01*
G01*
X31550000Y57695000D01*
G75*
G02*
X31480000Y57625000I-70000J0D01*
G01*
X30700000Y57625000D01*
G75*
G02*
X30630000Y57695000I0J70000D01*
G01*
X30630000Y58255000D01*
G75*
G02*
X30700000Y58325000I70000J0D01*
G01*
G37*
G36*
G01*
X30700000Y56725000D02*
X31480000Y56725000D01*
G75*
G02*
X31550000Y56655000I0J-70000D01*
G01*
X31550000Y56095000D01*
G75*
G02*
X31480000Y56025000I-70000J0D01*
G01*
X30700000Y56025000D01*
G75*
G02*
X30630000Y56095000I0J70000D01*
G01*
X30630000Y56655000D01*
G75*
G02*
X30700000Y56725000I70000J0D01*
G01*
G37*
G04 #@! TD*
G04 #@! TO.C,D32*
G36*
G01*
X68605000Y59225000D02*
X67585000Y59225000D01*
G75*
G02*
X67495000Y59315000I0J90000D01*
G01*
X67495000Y60035000D01*
G75*
G02*
X67585000Y60125000I90000J0D01*
G01*
X68605000Y60125000D01*
G75*
G02*
X68695000Y60035000I0J-90000D01*
G01*
X68695000Y59315000D01*
G75*
G02*
X68605000Y59225000I-90000J0D01*
G01*
G37*
G36*
G01*
X68605000Y62525000D02*
X67585000Y62525000D01*
G75*
G02*
X67495000Y62615000I0J90000D01*
G01*
X67495000Y63335000D01*
G75*
G02*
X67585000Y63425000I90000J0D01*
G01*
X68605000Y63425000D01*
G75*
G02*
X68695000Y63335000I0J-90000D01*
G01*
X68695000Y62615000D01*
G75*
G02*
X68605000Y62525000I-90000J0D01*
G01*
G37*
G04 #@! TD*
G04 #@! TO.C,R90*
G36*
G01*
X63705000Y58325000D02*
X64485000Y58325000D01*
G75*
G02*
X64555000Y58255000I0J-70000D01*
G01*
X64555000Y57695000D01*
G75*
G02*
X64485000Y57625000I-70000J0D01*
G01*
X63705000Y57625000D01*
G75*
G02*
X63635000Y57695000I0J70000D01*
G01*
X63635000Y58255000D01*
G75*
G02*
X63705000Y58325000I70000J0D01*
G01*
G37*
G36*
G01*
X63705000Y56725000D02*
X64485000Y56725000D01*
G75*
G02*
X64555000Y56655000I0J-70000D01*
G01*
X64555000Y56095000D01*
G75*
G02*
X64485000Y56025000I-70000J0D01*
G01*
X63705000Y56025000D01*
G75*
G02*
X63635000Y56095000I0J70000D01*
G01*
X63635000Y56655000D01*
G75*
G02*
X63705000Y56725000I70000J0D01*
G01*
G37*
G04 #@! TD*
G04 #@! TO.C,R78*
G36*
G01*
X47205000Y58325000D02*
X47985000Y58325000D01*
G75*
G02*
X48055000Y58255000I0J-70000D01*
G01*
X48055000Y57695000D01*
G75*
G02*
X47985000Y57625000I-70000J0D01*
G01*
X47205000Y57625000D01*
G75*
G02*
X47135000Y57695000I0J70000D01*
G01*
X47135000Y58255000D01*
G75*
G02*
X47205000Y58325000I70000J0D01*
G01*
G37*
G36*
G01*
X47205000Y56725000D02*
X47985000Y56725000D01*
G75*
G02*
X48055000Y56655000I0J-70000D01*
G01*
X48055000Y56095000D01*
G75*
G02*
X47985000Y56025000I-70000J0D01*
G01*
X47205000Y56025000D01*
G75*
G02*
X47135000Y56095000I0J70000D01*
G01*
X47135000Y56655000D01*
G75*
G02*
X47205000Y56725000I70000J0D01*
G01*
G37*
G04 #@! TD*
G04 #@! TO.C,R88*
G36*
G01*
X65205000Y58325000D02*
X65985000Y58325000D01*
G75*
G02*
X66055000Y58255000I0J-70000D01*
G01*
X66055000Y57695000D01*
G75*
G02*
X65985000Y57625000I-70000J0D01*
G01*
X65205000Y57625000D01*
G75*
G02*
X65135000Y57695000I0J70000D01*
G01*
X65135000Y58255000D01*
G75*
G02*
X65205000Y58325000I70000J0D01*
G01*
G37*
G36*
G01*
X65205000Y56725000D02*
X65985000Y56725000D01*
G75*
G02*
X66055000Y56655000I0J-70000D01*
G01*
X66055000Y56095000D01*
G75*
G02*
X65985000Y56025000I-70000J0D01*
G01*
X65205000Y56025000D01*
G75*
G02*
X65135000Y56095000I0J70000D01*
G01*
X65135000Y56655000D01*
G75*
G02*
X65205000Y56725000I70000J0D01*
G01*
G37*
G04 #@! TD*
G04 #@! TO.C,R86*
G36*
G01*
X59205000Y58325000D02*
X59985000Y58325000D01*
G75*
G02*
X60055000Y58255000I0J-70000D01*
G01*
X60055000Y57695000D01*
G75*
G02*
X59985000Y57625000I-70000J0D01*
G01*
X59205000Y57625000D01*
G75*
G02*
X59135000Y57695000I0J70000D01*
G01*
X59135000Y58255000D01*
G75*
G02*
X59205000Y58325000I70000J0D01*
G01*
G37*
G36*
G01*
X59205000Y56725000D02*
X59985000Y56725000D01*
G75*
G02*
X60055000Y56655000I0J-70000D01*
G01*
X60055000Y56095000D01*
G75*
G02*
X59985000Y56025000I-70000J0D01*
G01*
X59205000Y56025000D01*
G75*
G02*
X59135000Y56095000I0J70000D01*
G01*
X59135000Y56655000D01*
G75*
G02*
X59205000Y56725000I70000J0D01*
G01*
G37*
G04 #@! TD*
M02*
