G04 #@! TF.GenerationSoftware,KiCad,Pcbnew,(5.99.0-12439-g94954386e6)*
G04 #@! TF.CreationDate,2021-09-21T06:06:15+03:00*
G04 #@! TF.ProjectId,hellen154hyundai,68656c6c-656e-4313-9534-6879756e6461,b*
G04 #@! TF.SameCoordinates,PX5f5e100PYc845880*
G04 #@! TF.FileFunction,Paste,Top*
G04 #@! TF.FilePolarity,Positive*
%FSLAX46Y46*%
G04 Gerber Fmt 4.6, Leading zero omitted, Abs format (unit mm)*
G04 Created by KiCad (PCBNEW (5.99.0-12439-g94954386e6)) date 2021-09-21 06:06:15*
%MOMM*%
%LPD*%
G01*
G04 APERTURE LIST*
%ADD10R,4.550000X5.250000*%
%ADD11R,4.600000X1.100000*%
%ADD12R,1.200000X0.900000*%
%ADD13R,2.200000X0.800000*%
%ADD14R,5.080000X2.032000*%
%ADD15R,7.620000X11.430000*%
%ADD16R,2.000000X1.500000*%
%ADD17R,2.000000X3.800000*%
%ADD18O,0.000001X0.000001*%
%ADD19R,0.900000X1.200000*%
%ADD20R,0.350000X0.375000*%
%ADD21R,0.375000X0.350000*%
G04 APERTURE END LIST*
G04 #@! TO.C,R70*
G36*
G01*
X78350000Y112610000D02*
X78350000Y113390000D01*
G75*
G02*
X78420000Y113460000I70000J0D01*
G01*
X78980000Y113460000D01*
G75*
G02*
X79050000Y113390000I0J-70000D01*
G01*
X79050000Y112610000D01*
G75*
G02*
X78980000Y112540000I-70000J0D01*
G01*
X78420000Y112540000D01*
G75*
G02*
X78350000Y112610000I0J70000D01*
G01*
G37*
G36*
G01*
X79950000Y112610000D02*
X79950000Y113390000D01*
G75*
G02*
X80020000Y113460000I70000J0D01*
G01*
X80580000Y113460000D01*
G75*
G02*
X80650000Y113390000I0J-70000D01*
G01*
X80650000Y112610000D01*
G75*
G02*
X80580000Y112540000I-70000J0D01*
G01*
X80020000Y112540000D01*
G75*
G02*
X79950000Y112610000I0J70000D01*
G01*
G37*
G04 #@! TD*
G04 #@! TO.C,R31*
G36*
G01*
X33625000Y106349999D02*
X32375000Y106349999D01*
G75*
G02*
X32275000Y106449999I0J100000D01*
G01*
X32275000Y107249999D01*
G75*
G02*
X32375000Y107349999I100000J0D01*
G01*
X33625000Y107349999D01*
G75*
G02*
X33725000Y107249999I0J-100000D01*
G01*
X33725000Y106449999D01*
G75*
G02*
X33625000Y106349999I-100000J0D01*
G01*
G37*
G36*
G01*
X33625000Y108250021D02*
X32375000Y108250021D01*
G75*
G02*
X32275000Y108350021I0J100000D01*
G01*
X32275000Y109150021D01*
G75*
G02*
X32375000Y109250021I100000J0D01*
G01*
X33625000Y109250021D01*
G75*
G02*
X33725000Y109150021I0J-100000D01*
G01*
X33725000Y108350021D01*
G75*
G02*
X33625000Y108250021I-100000J0D01*
G01*
G37*
G04 #@! TD*
G04 #@! TO.C,R66*
G36*
G01*
X154537500Y48425001D02*
X154537500Y45575001D01*
G75*
G02*
X154287500Y45325001I-250000J0D01*
G01*
X153562500Y45325001D01*
G75*
G02*
X153312500Y45575001I0J250000D01*
G01*
X153312500Y48425001D01*
G75*
G02*
X153562500Y48675001I250000J0D01*
G01*
X154287500Y48675001D01*
G75*
G02*
X154537500Y48425001I0J-250000D01*
G01*
G37*
G36*
G01*
X148612500Y48425001D02*
X148612500Y45575001D01*
G75*
G02*
X148362500Y45325001I-250000J0D01*
G01*
X147637500Y45325001D01*
G75*
G02*
X147387500Y45575001I0J250000D01*
G01*
X147387500Y48425001D01*
G75*
G02*
X147637500Y48675001I250000J0D01*
G01*
X148362500Y48675001D01*
G75*
G02*
X148612500Y48425001I0J-250000D01*
G01*
G37*
G04 #@! TD*
G04 #@! TO.C,F1*
G36*
G01*
X84100000Y122105010D02*
X84100000Y122795010D01*
G75*
G02*
X84330000Y123025010I230000J0D01*
G01*
X85670000Y123025010D01*
G75*
G02*
X85900000Y122795010I0J-230000D01*
G01*
X85900000Y122105010D01*
G75*
G02*
X85670000Y121875010I-230000J0D01*
G01*
X84330000Y121875010D01*
G75*
G02*
X84100000Y122105010I0J230000D01*
G01*
G37*
G36*
G01*
X84100000Y119204990D02*
X84100000Y119894990D01*
G75*
G02*
X84330000Y120124990I230000J0D01*
G01*
X85670000Y120124990D01*
G75*
G02*
X85900000Y119894990I0J-230000D01*
G01*
X85900000Y119204990D01*
G75*
G02*
X85670000Y118974990I-230000J0D01*
G01*
X84330000Y118974990D01*
G75*
G02*
X84100000Y119204990I0J230000D01*
G01*
G37*
G04 #@! TD*
G04 #@! TO.C,C17*
G36*
G01*
X74160000Y103405002D02*
X74840000Y103405002D01*
G75*
G02*
X74925000Y103320002I0J-85000D01*
G01*
X74925000Y102640002D01*
G75*
G02*
X74840000Y102555002I-85000J0D01*
G01*
X74160000Y102555002D01*
G75*
G02*
X74075000Y102640002I0J85000D01*
G01*
X74075000Y103320002D01*
G75*
G02*
X74160000Y103405002I85000J0D01*
G01*
G37*
G36*
G01*
X74160000Y101825000D02*
X74840000Y101825000D01*
G75*
G02*
X74925000Y101740000I0J-85000D01*
G01*
X74925000Y101060000D01*
G75*
G02*
X74840000Y100975000I-85000J0D01*
G01*
X74160000Y100975000D01*
G75*
G02*
X74075000Y101060000I0J85000D01*
G01*
X74075000Y101740000D01*
G75*
G02*
X74160000Y101825000I85000J0D01*
G01*
G37*
G04 #@! TD*
D10*
G04 #@! TO.C,Q1*
X141650000Y25500000D03*
X146500000Y31050000D03*
X141650000Y31050000D03*
X146500000Y25500000D03*
D11*
X153225000Y25735000D03*
X153225000Y30815000D03*
G04 #@! TD*
G04 #@! TO.C,R14*
G36*
G01*
X86150000Y106610000D02*
X86150000Y107390000D01*
G75*
G02*
X86220000Y107460000I70000J0D01*
G01*
X86780000Y107460000D01*
G75*
G02*
X86850000Y107390000I0J-70000D01*
G01*
X86850000Y106610000D01*
G75*
G02*
X86780000Y106540000I-70000J0D01*
G01*
X86220000Y106540000D01*
G75*
G02*
X86150000Y106610000I0J70000D01*
G01*
G37*
G36*
G01*
X87750000Y106610000D02*
X87750000Y107390000D01*
G75*
G02*
X87820000Y107460000I70000J0D01*
G01*
X88380000Y107460000D01*
G75*
G02*
X88450000Y107390000I0J-70000D01*
G01*
X88450000Y106610000D01*
G75*
G02*
X88380000Y106540000I-70000J0D01*
G01*
X87820000Y106540000D01*
G75*
G02*
X87750000Y106610000I0J70000D01*
G01*
G37*
G04 #@! TD*
G04 #@! TO.C,R81*
G36*
G01*
X53350000Y95310000D02*
X53350000Y96090000D01*
G75*
G02*
X53420000Y96160000I70000J0D01*
G01*
X53980000Y96160000D01*
G75*
G02*
X54050000Y96090000I0J-70000D01*
G01*
X54050000Y95310000D01*
G75*
G02*
X53980000Y95240000I-70000J0D01*
G01*
X53420000Y95240000D01*
G75*
G02*
X53350000Y95310000I0J70000D01*
G01*
G37*
G36*
G01*
X54950000Y95310000D02*
X54950000Y96090000D01*
G75*
G02*
X55020000Y96160000I70000J0D01*
G01*
X55580000Y96160000D01*
G75*
G02*
X55650000Y96090000I0J-70000D01*
G01*
X55650000Y95310000D01*
G75*
G02*
X55580000Y95240000I-70000J0D01*
G01*
X55020000Y95240000D01*
G75*
G02*
X54950000Y95310000I0J70000D01*
G01*
G37*
G04 #@! TD*
G04 #@! TO.C,D13*
G36*
G01*
X29700000Y82660000D02*
X29700000Y83140000D01*
G75*
G02*
X29760000Y83200000I60000J0D01*
G01*
X30240000Y83200000D01*
G75*
G02*
X30300000Y83140000I0J-60000D01*
G01*
X30300000Y82660000D01*
G75*
G02*
X30240000Y82600000I-60000J0D01*
G01*
X29760000Y82600000D01*
G75*
G02*
X29700000Y82660000I0J60000D01*
G01*
G37*
G36*
G01*
X29700000Y84860000D02*
X29700000Y85340000D01*
G75*
G02*
X29760000Y85400000I60000J0D01*
G01*
X30240000Y85400000D01*
G75*
G02*
X30300000Y85340000I0J-60000D01*
G01*
X30300000Y84860000D01*
G75*
G02*
X30240000Y84800000I-60000J0D01*
G01*
X29760000Y84800000D01*
G75*
G02*
X29700000Y84860000I0J60000D01*
G01*
G37*
G04 #@! TD*
G04 #@! TO.C,R17*
G36*
G01*
X42125000Y111949999D02*
X40875000Y111949999D01*
G75*
G02*
X40775000Y112049999I0J100000D01*
G01*
X40775000Y112849999D01*
G75*
G02*
X40875000Y112949999I100000J0D01*
G01*
X42125000Y112949999D01*
G75*
G02*
X42225000Y112849999I0J-100000D01*
G01*
X42225000Y112049999D01*
G75*
G02*
X42125000Y111949999I-100000J0D01*
G01*
G37*
G36*
G01*
X42125000Y113850021D02*
X40875000Y113850021D01*
G75*
G02*
X40775000Y113950021I0J100000D01*
G01*
X40775000Y114750021D01*
G75*
G02*
X40875000Y114850021I100000J0D01*
G01*
X42125000Y114850021D01*
G75*
G02*
X42225000Y114750021I0J-100000D01*
G01*
X42225000Y113950021D01*
G75*
G02*
X42125000Y113850021I-100000J0D01*
G01*
G37*
G04 #@! TD*
G04 #@! TO.C,C5*
G36*
G01*
X122349999Y15394998D02*
X121669999Y15394998D01*
G75*
G02*
X121584999Y15479998I0J85000D01*
G01*
X121584999Y16159998D01*
G75*
G02*
X121669999Y16244998I85000J0D01*
G01*
X122349999Y16244998D01*
G75*
G02*
X122434999Y16159998I0J-85000D01*
G01*
X122434999Y15479998D01*
G75*
G02*
X122349999Y15394998I-85000J0D01*
G01*
G37*
G36*
G01*
X122349999Y16975000D02*
X121669999Y16975000D01*
G75*
G02*
X121584999Y17060000I0J85000D01*
G01*
X121584999Y17740000D01*
G75*
G02*
X121669999Y17825000I85000J0D01*
G01*
X122349999Y17825000D01*
G75*
G02*
X122434999Y17740000I0J-85000D01*
G01*
X122434999Y17060000D01*
G75*
G02*
X122349999Y16975000I-85000J0D01*
G01*
G37*
G04 #@! TD*
G04 #@! TO.C,R5*
G36*
G01*
X111800021Y110109999D02*
X111800021Y110889999D01*
G75*
G02*
X111870021Y110959999I70000J0D01*
G01*
X112430021Y110959999D01*
G75*
G02*
X112500021Y110889999I0J-70000D01*
G01*
X112500021Y110109999D01*
G75*
G02*
X112430021Y110039999I-70000J0D01*
G01*
X111870021Y110039999D01*
G75*
G02*
X111800021Y110109999I0J70000D01*
G01*
G37*
G36*
G01*
X113400021Y110109999D02*
X113400021Y110889999D01*
G75*
G02*
X113470021Y110959999I70000J0D01*
G01*
X114030021Y110959999D01*
G75*
G02*
X114100021Y110889999I0J-70000D01*
G01*
X114100021Y110109999D01*
G75*
G02*
X114030021Y110039999I-70000J0D01*
G01*
X113470021Y110039999D01*
G75*
G02*
X113400021Y110109999I0J70000D01*
G01*
G37*
G04 #@! TD*
G04 #@! TO.C,R30*
G36*
G01*
X36125000Y111749999D02*
X34875000Y111749999D01*
G75*
G02*
X34775000Y111849999I0J100000D01*
G01*
X34775000Y112649999D01*
G75*
G02*
X34875000Y112749999I100000J0D01*
G01*
X36125000Y112749999D01*
G75*
G02*
X36225000Y112649999I0J-100000D01*
G01*
X36225000Y111849999D01*
G75*
G02*
X36125000Y111749999I-100000J0D01*
G01*
G37*
G36*
G01*
X36125000Y113650021D02*
X34875000Y113650021D01*
G75*
G02*
X34775000Y113750021I0J100000D01*
G01*
X34775000Y114550021D01*
G75*
G02*
X34875000Y114650021I100000J0D01*
G01*
X36125000Y114650021D01*
G75*
G02*
X36225000Y114550021I0J-100000D01*
G01*
X36225000Y113750021D01*
G75*
G02*
X36125000Y113650021I-100000J0D01*
G01*
G37*
G04 #@! TD*
G04 #@! TO.C,R26*
G36*
G01*
X64625000Y113249999D02*
X63375000Y113249999D01*
G75*
G02*
X63275000Y113349999I0J100000D01*
G01*
X63275000Y114149999D01*
G75*
G02*
X63375000Y114249999I100000J0D01*
G01*
X64625000Y114249999D01*
G75*
G02*
X64725000Y114149999I0J-100000D01*
G01*
X64725000Y113349999D01*
G75*
G02*
X64625000Y113249999I-100000J0D01*
G01*
G37*
G36*
G01*
X64625000Y115150021D02*
X63375000Y115150021D01*
G75*
G02*
X63275000Y115250021I0J100000D01*
G01*
X63275000Y116050021D01*
G75*
G02*
X63375000Y116150021I100000J0D01*
G01*
X64625000Y116150021D01*
G75*
G02*
X64725000Y116050021I0J-100000D01*
G01*
X64725000Y115250021D01*
G75*
G02*
X64625000Y115150021I-100000J0D01*
G01*
G37*
G04 #@! TD*
G04 #@! TO.C,U3*
G36*
G01*
X113650000Y17255000D02*
X113650000Y17555000D01*
G75*
G02*
X113800000Y17705000I150000J0D01*
G01*
X115450000Y17705000D01*
G75*
G02*
X115600000Y17555000I0J-150000D01*
G01*
X115600000Y17255000D01*
G75*
G02*
X115450000Y17105000I-150000J0D01*
G01*
X113800000Y17105000D01*
G75*
G02*
X113650000Y17255000I0J150000D01*
G01*
G37*
G36*
G01*
X113650000Y15985000D02*
X113650000Y16285000D01*
G75*
G02*
X113800000Y16435000I150000J0D01*
G01*
X115450000Y16435000D01*
G75*
G02*
X115600000Y16285000I0J-150000D01*
G01*
X115600000Y15985000D01*
G75*
G02*
X115450000Y15835000I-150000J0D01*
G01*
X113800000Y15835000D01*
G75*
G02*
X113650000Y15985000I0J150000D01*
G01*
G37*
G36*
G01*
X113650000Y14715000D02*
X113650000Y15015000D01*
G75*
G02*
X113800000Y15165000I150000J0D01*
G01*
X115450000Y15165000D01*
G75*
G02*
X115600000Y15015000I0J-150000D01*
G01*
X115600000Y14715000D01*
G75*
G02*
X115450000Y14565000I-150000J0D01*
G01*
X113800000Y14565000D01*
G75*
G02*
X113650000Y14715000I0J150000D01*
G01*
G37*
G36*
G01*
X113650000Y13445000D02*
X113650000Y13745000D01*
G75*
G02*
X113800000Y13895000I150000J0D01*
G01*
X115450000Y13895000D01*
G75*
G02*
X115600000Y13745000I0J-150000D01*
G01*
X115600000Y13445000D01*
G75*
G02*
X115450000Y13295000I-150000J0D01*
G01*
X113800000Y13295000D01*
G75*
G02*
X113650000Y13445000I0J150000D01*
G01*
G37*
G36*
G01*
X118600000Y13445000D02*
X118600000Y13745000D01*
G75*
G02*
X118750000Y13895000I150000J0D01*
G01*
X120400000Y13895000D01*
G75*
G02*
X120550000Y13745000I0J-150000D01*
G01*
X120550000Y13445000D01*
G75*
G02*
X120400000Y13295000I-150000J0D01*
G01*
X118750000Y13295000D01*
G75*
G02*
X118600000Y13445000I0J150000D01*
G01*
G37*
G36*
G01*
X118600000Y14715000D02*
X118600000Y15015000D01*
G75*
G02*
X118750000Y15165000I150000J0D01*
G01*
X120400000Y15165000D01*
G75*
G02*
X120550000Y15015000I0J-150000D01*
G01*
X120550000Y14715000D01*
G75*
G02*
X120400000Y14565000I-150000J0D01*
G01*
X118750000Y14565000D01*
G75*
G02*
X118600000Y14715000I0J150000D01*
G01*
G37*
G36*
G01*
X118600000Y15985000D02*
X118600000Y16285000D01*
G75*
G02*
X118750000Y16435000I150000J0D01*
G01*
X120400000Y16435000D01*
G75*
G02*
X120550000Y16285000I0J-150000D01*
G01*
X120550000Y15985000D01*
G75*
G02*
X120400000Y15835000I-150000J0D01*
G01*
X118750000Y15835000D01*
G75*
G02*
X118600000Y15985000I0J150000D01*
G01*
G37*
G36*
G01*
X118600000Y17255000D02*
X118600000Y17555000D01*
G75*
G02*
X118750000Y17705000I150000J0D01*
G01*
X120400000Y17705000D01*
G75*
G02*
X120550000Y17555000I0J-150000D01*
G01*
X120550000Y17255000D01*
G75*
G02*
X120400000Y17105000I-150000J0D01*
G01*
X118750000Y17105000D01*
G75*
G02*
X118600000Y17255000I0J150000D01*
G01*
G37*
G04 #@! TD*
G04 #@! TO.C,R67*
G36*
G01*
X154537500Y86925001D02*
X154537500Y84075001D01*
G75*
G02*
X154287500Y83825001I-250000J0D01*
G01*
X153562500Y83825001D01*
G75*
G02*
X153312500Y84075001I0J250000D01*
G01*
X153312500Y86925001D01*
G75*
G02*
X153562500Y87175001I250000J0D01*
G01*
X154287500Y87175001D01*
G75*
G02*
X154537500Y86925001I0J-250000D01*
G01*
G37*
G36*
G01*
X148612500Y86925001D02*
X148612500Y84075001D01*
G75*
G02*
X148362500Y83825001I-250000J0D01*
G01*
X147637500Y83825001D01*
G75*
G02*
X147387500Y84075001I0J250000D01*
G01*
X147387500Y86925001D01*
G75*
G02*
X147637500Y87175001I250000J0D01*
G01*
X148362500Y87175001D01*
G75*
G02*
X148612500Y86925001I0J-250000D01*
G01*
G37*
G04 #@! TD*
G04 #@! TO.C,D16*
G36*
G01*
X47600002Y89299999D02*
X48500002Y89299999D01*
G75*
G02*
X48600002Y89199999I0J-100000D01*
G01*
X48600002Y88399999D01*
G75*
G02*
X48500002Y88299999I-100000J0D01*
G01*
X47600002Y88299999D01*
G75*
G02*
X47500002Y88399999I0J100000D01*
G01*
X47500002Y89199999D01*
G75*
G02*
X47600002Y89299999I100000J0D01*
G01*
G37*
G36*
G01*
X47600002Y87599999D02*
X48500002Y87599999D01*
G75*
G02*
X48600002Y87499999I0J-100000D01*
G01*
X48600002Y86699999D01*
G75*
G02*
X48500002Y86599999I-100000J0D01*
G01*
X47600002Y86599999D01*
G75*
G02*
X47500002Y86699999I0J100000D01*
G01*
X47500002Y87499999D01*
G75*
G02*
X47600002Y87599999I100000J0D01*
G01*
G37*
G04 #@! TD*
G04 #@! TO.C,R52*
G36*
G01*
X47125000Y120149999D02*
X45875000Y120149999D01*
G75*
G02*
X45775000Y120249999I0J100000D01*
G01*
X45775000Y121049999D01*
G75*
G02*
X45875000Y121149999I100000J0D01*
G01*
X47125000Y121149999D01*
G75*
G02*
X47225000Y121049999I0J-100000D01*
G01*
X47225000Y120249999D01*
G75*
G02*
X47125000Y120149999I-100000J0D01*
G01*
G37*
G36*
G01*
X47125000Y122050021D02*
X45875000Y122050021D01*
G75*
G02*
X45775000Y122150021I0J100000D01*
G01*
X45775000Y122950021D01*
G75*
G02*
X45875000Y123050021I100000J0D01*
G01*
X47125000Y123050021D01*
G75*
G02*
X47225000Y122950021I0J-100000D01*
G01*
X47225000Y122150021D01*
G75*
G02*
X47125000Y122050021I-100000J0D01*
G01*
G37*
G04 #@! TD*
G04 #@! TO.C,R49*
G36*
G01*
X57125000Y113200000D02*
X55875000Y113200000D01*
G75*
G02*
X55775000Y113300000I0J100000D01*
G01*
X55775000Y114100000D01*
G75*
G02*
X55875000Y114200000I100000J0D01*
G01*
X57125000Y114200000D01*
G75*
G02*
X57225000Y114100000I0J-100000D01*
G01*
X57225000Y113300000D01*
G75*
G02*
X57125000Y113200000I-100000J0D01*
G01*
G37*
G36*
G01*
X57125000Y115100022D02*
X55875000Y115100022D01*
G75*
G02*
X55775000Y115200022I0J100000D01*
G01*
X55775000Y116000022D01*
G75*
G02*
X55875000Y116100022I100000J0D01*
G01*
X57125000Y116100022D01*
G75*
G02*
X57225000Y116000022I0J-100000D01*
G01*
X57225000Y115200022D01*
G75*
G02*
X57125000Y115100022I-100000J0D01*
G01*
G37*
G04 #@! TD*
G04 #@! TO.C,D27*
G36*
G01*
X82200001Y108600002D02*
X82200001Y109500002D01*
G75*
G02*
X82300001Y109600002I100000J0D01*
G01*
X83100001Y109600002D01*
G75*
G02*
X83200001Y109500002I0J-100000D01*
G01*
X83200001Y108600002D01*
G75*
G02*
X83100001Y108500002I-100000J0D01*
G01*
X82300001Y108500002D01*
G75*
G02*
X82200001Y108600002I0J100000D01*
G01*
G37*
G36*
G01*
X83900001Y108600002D02*
X83900001Y109500002D01*
G75*
G02*
X84000001Y109600002I100000J0D01*
G01*
X84800001Y109600002D01*
G75*
G02*
X84900001Y109500002I0J-100000D01*
G01*
X84900001Y108600002D01*
G75*
G02*
X84800001Y108500002I-100000J0D01*
G01*
X84000001Y108500002D01*
G75*
G02*
X83900001Y108600002I0J100000D01*
G01*
G37*
G04 #@! TD*
G04 #@! TO.C,R25*
G36*
G01*
X69625000Y113249999D02*
X68375000Y113249999D01*
G75*
G02*
X68275000Y113349999I0J100000D01*
G01*
X68275000Y114149999D01*
G75*
G02*
X68375000Y114249999I100000J0D01*
G01*
X69625000Y114249999D01*
G75*
G02*
X69725000Y114149999I0J-100000D01*
G01*
X69725000Y113349999D01*
G75*
G02*
X69625000Y113249999I-100000J0D01*
G01*
G37*
G36*
G01*
X69625000Y115150021D02*
X68375000Y115150021D01*
G75*
G02*
X68275000Y115250021I0J100000D01*
G01*
X68275000Y116050021D01*
G75*
G02*
X68375000Y116150021I100000J0D01*
G01*
X69625000Y116150021D01*
G75*
G02*
X69725000Y116050021I0J-100000D01*
G01*
X69725000Y115250021D01*
G75*
G02*
X69625000Y115150021I-100000J0D01*
G01*
G37*
G04 #@! TD*
G04 #@! TO.C,R62*
G36*
G01*
X153610000Y51850000D02*
X154390000Y51850000D01*
G75*
G02*
X154460000Y51780000I0J-70000D01*
G01*
X154460000Y51220000D01*
G75*
G02*
X154390000Y51150000I-70000J0D01*
G01*
X153610000Y51150000D01*
G75*
G02*
X153540000Y51220000I0J70000D01*
G01*
X153540000Y51780000D01*
G75*
G02*
X153610000Y51850000I70000J0D01*
G01*
G37*
G36*
G01*
X153610000Y50250000D02*
X154390000Y50250000D01*
G75*
G02*
X154460000Y50180000I0J-70000D01*
G01*
X154460000Y49620000D01*
G75*
G02*
X154390000Y49550000I-70000J0D01*
G01*
X153610000Y49550000D01*
G75*
G02*
X153540000Y49620000I0J70000D01*
G01*
X153540000Y50180000D01*
G75*
G02*
X153610000Y50250000I70000J0D01*
G01*
G37*
G04 #@! TD*
G04 #@! TO.C,C2*
G36*
G01*
X76025000Y103799999D02*
X76975000Y103799999D01*
G75*
G02*
X77225000Y103549999I0J-250000D01*
G01*
X77225000Y103049999D01*
G75*
G02*
X76975000Y102799999I-250000J0D01*
G01*
X76025000Y102799999D01*
G75*
G02*
X75775000Y103049999I0J250000D01*
G01*
X75775000Y103549999D01*
G75*
G02*
X76025000Y103799999I250000J0D01*
G01*
G37*
G36*
G01*
X76025000Y101899999D02*
X76975000Y101899999D01*
G75*
G02*
X77225000Y101649999I0J-250000D01*
G01*
X77225000Y101149999D01*
G75*
G02*
X76975000Y100899999I-250000J0D01*
G01*
X76025000Y100899999D01*
G75*
G02*
X75775000Y101149999I0J250000D01*
G01*
X75775000Y101649999D01*
G75*
G02*
X76025000Y101899999I250000J0D01*
G01*
G37*
G04 #@! TD*
G04 #@! TO.C,D26*
G36*
G01*
X82200001Y106600003D02*
X82200001Y107500003D01*
G75*
G02*
X82300001Y107600003I100000J0D01*
G01*
X83100001Y107600003D01*
G75*
G02*
X83200001Y107500003I0J-100000D01*
G01*
X83200001Y106600003D01*
G75*
G02*
X83100001Y106500003I-100000J0D01*
G01*
X82300001Y106500003D01*
G75*
G02*
X82200001Y106600003I0J100000D01*
G01*
G37*
G36*
G01*
X83900001Y106600003D02*
X83900001Y107500003D01*
G75*
G02*
X84000001Y107600003I100000J0D01*
G01*
X84800001Y107600003D01*
G75*
G02*
X84900001Y107500003I0J-100000D01*
G01*
X84900001Y106600003D01*
G75*
G02*
X84800001Y106500003I-100000J0D01*
G01*
X84000001Y106500003D01*
G75*
G02*
X83900001Y106600003I0J100000D01*
G01*
G37*
G04 #@! TD*
G04 #@! TO.C,R76*
G36*
G01*
X39125000Y78765000D02*
X39125000Y79435000D01*
G75*
G02*
X39190000Y79500000I65000J0D01*
G01*
X39710000Y79500000D01*
G75*
G02*
X39775000Y79435000I0J-65000D01*
G01*
X39775000Y78765000D01*
G75*
G02*
X39710000Y78700000I-65000J0D01*
G01*
X39190000Y78700000D01*
G75*
G02*
X39125000Y78765000I0J65000D01*
G01*
G37*
G36*
G01*
X40100000Y78745000D02*
X40100000Y79455000D01*
G75*
G02*
X40145000Y79500000I45000J0D01*
G01*
X40505000Y79500000D01*
G75*
G02*
X40550000Y79455000I0J-45000D01*
G01*
X40550000Y78745000D01*
G75*
G02*
X40505000Y78700000I-45000J0D01*
G01*
X40145000Y78700000D01*
G75*
G02*
X40100000Y78745000I0J45000D01*
G01*
G37*
G36*
G01*
X40900000Y78745000D02*
X40900000Y79455000D01*
G75*
G02*
X40945000Y79500000I45000J0D01*
G01*
X41305000Y79500000D01*
G75*
G02*
X41350000Y79455000I0J-45000D01*
G01*
X41350000Y78745000D01*
G75*
G02*
X41305000Y78700000I-45000J0D01*
G01*
X40945000Y78700000D01*
G75*
G02*
X40900000Y78745000I0J45000D01*
G01*
G37*
G36*
G01*
X41675000Y78765000D02*
X41675000Y79435000D01*
G75*
G02*
X41740000Y79500000I65000J0D01*
G01*
X42260000Y79500000D01*
G75*
G02*
X42325000Y79435000I0J-65000D01*
G01*
X42325000Y78765000D01*
G75*
G02*
X42260000Y78700000I-65000J0D01*
G01*
X41740000Y78700000D01*
G75*
G02*
X41675000Y78765000I0J65000D01*
G01*
G37*
G36*
G01*
X41675000Y80565000D02*
X41675000Y81235000D01*
G75*
G02*
X41740000Y81300000I65000J0D01*
G01*
X42260000Y81300000D01*
G75*
G02*
X42325000Y81235000I0J-65000D01*
G01*
X42325000Y80565000D01*
G75*
G02*
X42260000Y80500000I-65000J0D01*
G01*
X41740000Y80500000D01*
G75*
G02*
X41675000Y80565000I0J65000D01*
G01*
G37*
G36*
G01*
X40900000Y80545000D02*
X40900000Y81255000D01*
G75*
G02*
X40945000Y81300000I45000J0D01*
G01*
X41305000Y81300000D01*
G75*
G02*
X41350000Y81255000I0J-45000D01*
G01*
X41350000Y80545000D01*
G75*
G02*
X41305000Y80500000I-45000J0D01*
G01*
X40945000Y80500000D01*
G75*
G02*
X40900000Y80545000I0J45000D01*
G01*
G37*
G36*
G01*
X40100000Y80545000D02*
X40100000Y81255000D01*
G75*
G02*
X40145000Y81300000I45000J0D01*
G01*
X40505000Y81300000D01*
G75*
G02*
X40550000Y81255000I0J-45000D01*
G01*
X40550000Y80545000D01*
G75*
G02*
X40505000Y80500000I-45000J0D01*
G01*
X40145000Y80500000D01*
G75*
G02*
X40100000Y80545000I0J45000D01*
G01*
G37*
G36*
G01*
X39125000Y80565000D02*
X39125000Y81235000D01*
G75*
G02*
X39190000Y81300000I65000J0D01*
G01*
X39710000Y81300000D01*
G75*
G02*
X39775000Y81235000I0J-65000D01*
G01*
X39775000Y80565000D01*
G75*
G02*
X39710000Y80500000I-65000J0D01*
G01*
X39190000Y80500000D01*
G75*
G02*
X39125000Y80565000I0J65000D01*
G01*
G37*
G04 #@! TD*
D12*
G04 #@! TO.C,D4*
X40939195Y103330049D03*
X40939195Y100030049D03*
G04 #@! TD*
G04 #@! TO.C,R28*
G36*
G01*
X54625000Y109349999D02*
X53375000Y109349999D01*
G75*
G02*
X53275000Y109449999I0J100000D01*
G01*
X53275000Y110249999D01*
G75*
G02*
X53375000Y110349999I100000J0D01*
G01*
X54625000Y110349999D01*
G75*
G02*
X54725000Y110249999I0J-100000D01*
G01*
X54725000Y109449999D01*
G75*
G02*
X54625000Y109349999I-100000J0D01*
G01*
G37*
G36*
G01*
X54625000Y111250021D02*
X53375000Y111250021D01*
G75*
G02*
X53275000Y111350021I0J100000D01*
G01*
X53275000Y112150021D01*
G75*
G02*
X53375000Y112250021I100000J0D01*
G01*
X54625000Y112250021D01*
G75*
G02*
X54725000Y112150021I0J-100000D01*
G01*
X54725000Y111350021D01*
G75*
G02*
X54625000Y111250021I-100000J0D01*
G01*
G37*
G04 #@! TD*
G04 #@! TO.C,R18*
G36*
G01*
X36125000Y104849999D02*
X34875000Y104849999D01*
G75*
G02*
X34775000Y104949999I0J100000D01*
G01*
X34775000Y105749999D01*
G75*
G02*
X34875000Y105849999I100000J0D01*
G01*
X36125000Y105849999D01*
G75*
G02*
X36225000Y105749999I0J-100000D01*
G01*
X36225000Y104949999D01*
G75*
G02*
X36125000Y104849999I-100000J0D01*
G01*
G37*
G36*
G01*
X36125000Y106750021D02*
X34875000Y106750021D01*
G75*
G02*
X34775000Y106850021I0J100000D01*
G01*
X34775000Y107650021D01*
G75*
G02*
X34875000Y107750021I100000J0D01*
G01*
X36125000Y107750021D01*
G75*
G02*
X36225000Y107650021I0J-100000D01*
G01*
X36225000Y106850021D01*
G75*
G02*
X36125000Y106750021I-100000J0D01*
G01*
G37*
G04 #@! TD*
G04 #@! TO.C,R68*
G36*
G01*
X154500000Y109425000D02*
X154500000Y106575000D01*
G75*
G02*
X154250000Y106325000I-250000J0D01*
G01*
X153525000Y106325000D01*
G75*
G02*
X153275000Y106575000I0J250000D01*
G01*
X153275000Y109425000D01*
G75*
G02*
X153525000Y109675000I250000J0D01*
G01*
X154250000Y109675000D01*
G75*
G02*
X154500000Y109425000I0J-250000D01*
G01*
G37*
G36*
G01*
X148575000Y109425000D02*
X148575000Y106575000D01*
G75*
G02*
X148325000Y106325000I-250000J0D01*
G01*
X147600000Y106325000D01*
G75*
G02*
X147350000Y106575000I0J250000D01*
G01*
X147350000Y109425000D01*
G75*
G02*
X147600000Y109675000I250000J0D01*
G01*
X148325000Y109675000D01*
G75*
G02*
X148575000Y109425000I0J-250000D01*
G01*
G37*
G04 #@! TD*
G04 #@! TO.C,D6*
G36*
G01*
X27600002Y89299999D02*
X28500002Y89299999D01*
G75*
G02*
X28600002Y89199999I0J-100000D01*
G01*
X28600002Y88399999D01*
G75*
G02*
X28500002Y88299999I-100000J0D01*
G01*
X27600002Y88299999D01*
G75*
G02*
X27500002Y88399999I0J100000D01*
G01*
X27500002Y89199999D01*
G75*
G02*
X27600002Y89299999I100000J0D01*
G01*
G37*
G36*
G01*
X27600002Y87599999D02*
X28500002Y87599999D01*
G75*
G02*
X28600002Y87499999I0J-100000D01*
G01*
X28600002Y86699999D01*
G75*
G02*
X28500002Y86599999I-100000J0D01*
G01*
X27600002Y86599999D01*
G75*
G02*
X27500002Y86699999I0J100000D01*
G01*
X27500002Y87499999D01*
G75*
G02*
X27600002Y87599999I100000J0D01*
G01*
G37*
G04 #@! TD*
D13*
G04 #@! TO.C,U2*
X58400000Y102715000D03*
X58400000Y101445000D03*
X58400000Y100175000D03*
X58400000Y98905000D03*
X58400000Y97635000D03*
X58400000Y96365000D03*
X58400000Y95095000D03*
X58400000Y93825000D03*
X58400000Y92555000D03*
X58400000Y91285000D03*
X71600000Y91285000D03*
X71600000Y92555000D03*
X71600000Y93825000D03*
X71600000Y95095000D03*
X71600000Y96365000D03*
X71600000Y97635000D03*
X71600000Y98905000D03*
X71600000Y100175000D03*
X71600000Y101445000D03*
X71600000Y102715000D03*
D14*
X65000000Y104112000D03*
D15*
X65000000Y97000000D03*
D14*
X65000000Y89888000D03*
G04 #@! TD*
G04 #@! TO.C,C19*
G36*
G01*
X96784999Y18660000D02*
X96784999Y19340000D01*
G75*
G02*
X96869999Y19425000I85000J0D01*
G01*
X97549999Y19425000D01*
G75*
G02*
X97634999Y19340000I0J-85000D01*
G01*
X97634999Y18660000D01*
G75*
G02*
X97549999Y18575000I-85000J0D01*
G01*
X96869999Y18575000D01*
G75*
G02*
X96784999Y18660000I0J85000D01*
G01*
G37*
G36*
G01*
X98365001Y18660000D02*
X98365001Y19340000D01*
G75*
G02*
X98450001Y19425000I85000J0D01*
G01*
X99130001Y19425000D01*
G75*
G02*
X99215001Y19340000I0J-85000D01*
G01*
X99215001Y18660000D01*
G75*
G02*
X99130001Y18575000I-85000J0D01*
G01*
X98450001Y18575000D01*
G75*
G02*
X98365001Y18660000I0J85000D01*
G01*
G37*
G04 #@! TD*
G04 #@! TO.C,R32*
G36*
G01*
X77625000Y120149999D02*
X76375000Y120149999D01*
G75*
G02*
X76275000Y120249999I0J100000D01*
G01*
X76275000Y121049999D01*
G75*
G02*
X76375000Y121149999I100000J0D01*
G01*
X77625000Y121149999D01*
G75*
G02*
X77725000Y121049999I0J-100000D01*
G01*
X77725000Y120249999D01*
G75*
G02*
X77625000Y120149999I-100000J0D01*
G01*
G37*
G36*
G01*
X77625000Y122050021D02*
X76375000Y122050021D01*
G75*
G02*
X76275000Y122150021I0J100000D01*
G01*
X76275000Y122950021D01*
G75*
G02*
X76375000Y123050021I100000J0D01*
G01*
X77625000Y123050021D01*
G75*
G02*
X77725000Y122950021I0J-100000D01*
G01*
X77725000Y122150021D01*
G75*
G02*
X77625000Y122050021I-100000J0D01*
G01*
G37*
G04 #@! TD*
G04 #@! TO.C,R77*
G36*
G01*
X78050000Y97390000D02*
X78050000Y96610000D01*
G75*
G02*
X77980000Y96540000I-70000J0D01*
G01*
X77420000Y96540000D01*
G75*
G02*
X77350000Y96610000I0J70000D01*
G01*
X77350000Y97390000D01*
G75*
G02*
X77420000Y97460000I70000J0D01*
G01*
X77980000Y97460000D01*
G75*
G02*
X78050000Y97390000I0J-70000D01*
G01*
G37*
G36*
G01*
X76450000Y97390000D02*
X76450000Y96610000D01*
G75*
G02*
X76380000Y96540000I-70000J0D01*
G01*
X75820000Y96540000D01*
G75*
G02*
X75750000Y96610000I0J70000D01*
G01*
X75750000Y97390000D01*
G75*
G02*
X75820000Y97460000I70000J0D01*
G01*
X76380000Y97460000D01*
G75*
G02*
X76450000Y97390000I0J-70000D01*
G01*
G37*
G04 #@! TD*
G04 #@! TO.C,R58*
G36*
G01*
X102125000Y125049999D02*
X100875000Y125049999D01*
G75*
G02*
X100775000Y125149999I0J100000D01*
G01*
X100775000Y125949999D01*
G75*
G02*
X100875000Y126049999I100000J0D01*
G01*
X102125000Y126049999D01*
G75*
G02*
X102225000Y125949999I0J-100000D01*
G01*
X102225000Y125149999D01*
G75*
G02*
X102125000Y125049999I-100000J0D01*
G01*
G37*
G36*
G01*
X102125000Y126950021D02*
X100875000Y126950021D01*
G75*
G02*
X100775000Y127050021I0J100000D01*
G01*
X100775000Y127850021D01*
G75*
G02*
X100875000Y127950021I100000J0D01*
G01*
X102125000Y127950021D01*
G75*
G02*
X102225000Y127850021I0J-100000D01*
G01*
X102225000Y127050021D01*
G75*
G02*
X102125000Y126950021I-100000J0D01*
G01*
G37*
G04 #@! TD*
G04 #@! TO.C,R11*
G36*
G01*
X57125000Y120149999D02*
X55875000Y120149999D01*
G75*
G02*
X55775000Y120249999I0J100000D01*
G01*
X55775000Y121049999D01*
G75*
G02*
X55875000Y121149999I100000J0D01*
G01*
X57125000Y121149999D01*
G75*
G02*
X57225000Y121049999I0J-100000D01*
G01*
X57225000Y120249999D01*
G75*
G02*
X57125000Y120149999I-100000J0D01*
G01*
G37*
G36*
G01*
X57125000Y122050021D02*
X55875000Y122050021D01*
G75*
G02*
X55775000Y122150021I0J100000D01*
G01*
X55775000Y122950021D01*
G75*
G02*
X55875000Y123050021I100000J0D01*
G01*
X57125000Y123050021D01*
G75*
G02*
X57225000Y122950021I0J-100000D01*
G01*
X57225000Y122150021D01*
G75*
G02*
X57125000Y122050021I-100000J0D01*
G01*
G37*
G04 #@! TD*
G04 #@! TO.C,D11*
G36*
G01*
X108650000Y111120000D02*
X108650000Y109880000D01*
G75*
G02*
X108520000Y109750000I-130000J0D01*
G01*
X107480000Y109750000D01*
G75*
G02*
X107350000Y109880000I0J130000D01*
G01*
X107350000Y111120000D01*
G75*
G02*
X107480000Y111250000I130000J0D01*
G01*
X108520000Y111250000D01*
G75*
G02*
X108650000Y111120000I0J-130000D01*
G01*
G37*
G36*
G01*
X110550021Y111120000D02*
X110550021Y109880000D01*
G75*
G02*
X110420021Y109750000I-130000J0D01*
G01*
X109380021Y109750000D01*
G75*
G02*
X109250021Y109880000I0J130000D01*
G01*
X109250021Y111120000D01*
G75*
G02*
X109380021Y111250000I130000J0D01*
G01*
X110420021Y111250000D01*
G75*
G02*
X110550021Y111120000I0J-130000D01*
G01*
G37*
G04 #@! TD*
G04 #@! TO.C,R75*
G36*
G01*
X64890000Y107850000D02*
X64110000Y107850000D01*
G75*
G02*
X64040000Y107920000I0J70000D01*
G01*
X64040000Y108480000D01*
G75*
G02*
X64110000Y108550000I70000J0D01*
G01*
X64890000Y108550000D01*
G75*
G02*
X64960000Y108480000I0J-70000D01*
G01*
X64960000Y107920000D01*
G75*
G02*
X64890000Y107850000I-70000J0D01*
G01*
G37*
G36*
G01*
X64890000Y109450000D02*
X64110000Y109450000D01*
G75*
G02*
X64040000Y109520000I0J70000D01*
G01*
X64040000Y110080000D01*
G75*
G02*
X64110000Y110150000I70000J0D01*
G01*
X64890000Y110150000D01*
G75*
G02*
X64960000Y110080000I0J-70000D01*
G01*
X64960000Y109520000D01*
G75*
G02*
X64890000Y109450000I-70000J0D01*
G01*
G37*
G04 #@! TD*
G04 #@! TO.C,R10*
G36*
G01*
X59625000Y108949999D02*
X58375000Y108949999D01*
G75*
G02*
X58275000Y109049999I0J100000D01*
G01*
X58275000Y109849999D01*
G75*
G02*
X58375000Y109949999I100000J0D01*
G01*
X59625000Y109949999D01*
G75*
G02*
X59725000Y109849999I0J-100000D01*
G01*
X59725000Y109049999D01*
G75*
G02*
X59625000Y108949999I-100000J0D01*
G01*
G37*
G36*
G01*
X59625000Y110850021D02*
X58375000Y110850021D01*
G75*
G02*
X58275000Y110950021I0J100000D01*
G01*
X58275000Y111750021D01*
G75*
G02*
X58375000Y111850021I100000J0D01*
G01*
X59625000Y111850021D01*
G75*
G02*
X59725000Y111750021I0J-100000D01*
G01*
X59725000Y110950021D01*
G75*
G02*
X59625000Y110850021I-100000J0D01*
G01*
G37*
G04 #@! TD*
G04 #@! TO.C,D5*
G36*
G01*
X84200000Y113260000D02*
X84200000Y113740000D01*
G75*
G02*
X84260000Y113800000I60000J0D01*
G01*
X84740000Y113800000D01*
G75*
G02*
X84800000Y113740000I0J-60000D01*
G01*
X84800000Y113260000D01*
G75*
G02*
X84740000Y113200000I-60000J0D01*
G01*
X84260000Y113200000D01*
G75*
G02*
X84200000Y113260000I0J60000D01*
G01*
G37*
G36*
G01*
X84200000Y115460000D02*
X84200000Y115940000D01*
G75*
G02*
X84260000Y116000000I60000J0D01*
G01*
X84740000Y116000000D01*
G75*
G02*
X84800000Y115940000I0J-60000D01*
G01*
X84800000Y115460000D01*
G75*
G02*
X84740000Y115400000I-60000J0D01*
G01*
X84260000Y115400000D01*
G75*
G02*
X84200000Y115460000I0J60000D01*
G01*
G37*
G04 #@! TD*
G04 #@! TO.C,R44*
G36*
G01*
X28125000Y109049999D02*
X26875000Y109049999D01*
G75*
G02*
X26775000Y109149999I0J100000D01*
G01*
X26775000Y109949999D01*
G75*
G02*
X26875000Y110049999I100000J0D01*
G01*
X28125000Y110049999D01*
G75*
G02*
X28225000Y109949999I0J-100000D01*
G01*
X28225000Y109149999D01*
G75*
G02*
X28125000Y109049999I-100000J0D01*
G01*
G37*
G36*
G01*
X28125000Y110950021D02*
X26875000Y110950021D01*
G75*
G02*
X26775000Y111050021I0J100000D01*
G01*
X26775000Y111850021D01*
G75*
G02*
X26875000Y111950021I100000J0D01*
G01*
X28125000Y111950021D01*
G75*
G02*
X28225000Y111850021I0J-100000D01*
G01*
X28225000Y111050021D01*
G75*
G02*
X28125000Y110950021I-100000J0D01*
G01*
G37*
G04 #@! TD*
G04 #@! TO.C,R39*
G36*
G01*
X49625000Y113249999D02*
X48375000Y113249999D01*
G75*
G02*
X48275000Y113349999I0J100000D01*
G01*
X48275000Y114149999D01*
G75*
G02*
X48375000Y114249999I100000J0D01*
G01*
X49625000Y114249999D01*
G75*
G02*
X49725000Y114149999I0J-100000D01*
G01*
X49725000Y113349999D01*
G75*
G02*
X49625000Y113249999I-100000J0D01*
G01*
G37*
G36*
G01*
X49625000Y115150021D02*
X48375000Y115150021D01*
G75*
G02*
X48275000Y115250021I0J100000D01*
G01*
X48275000Y116050021D01*
G75*
G02*
X48375000Y116150021I100000J0D01*
G01*
X49625000Y116150021D01*
G75*
G02*
X49725000Y116050021I0J-100000D01*
G01*
X49725000Y115250021D01*
G75*
G02*
X49625000Y115150021I-100000J0D01*
G01*
G37*
G04 #@! TD*
G04 #@! TO.C,R43*
G36*
G01*
X33625000Y113249999D02*
X32375000Y113249999D01*
G75*
G02*
X32275000Y113349999I0J100000D01*
G01*
X32275000Y114149999D01*
G75*
G02*
X32375000Y114249999I100000J0D01*
G01*
X33625000Y114249999D01*
G75*
G02*
X33725000Y114149999I0J-100000D01*
G01*
X33725000Y113349999D01*
G75*
G02*
X33625000Y113249999I-100000J0D01*
G01*
G37*
G36*
G01*
X33625000Y115150021D02*
X32375000Y115150021D01*
G75*
G02*
X32275000Y115250021I0J100000D01*
G01*
X32275000Y116050021D01*
G75*
G02*
X32375000Y116150021I100000J0D01*
G01*
X33625000Y116150021D01*
G75*
G02*
X33725000Y116050021I0J-100000D01*
G01*
X33725000Y115250021D01*
G75*
G02*
X33625000Y115150021I-100000J0D01*
G01*
G37*
G04 #@! TD*
G04 #@! TO.C,R4*
G36*
G01*
X88125000Y120144999D02*
X86875000Y120144999D01*
G75*
G02*
X86775000Y120244999I0J100000D01*
G01*
X86775000Y121044999D01*
G75*
G02*
X86875000Y121144999I100000J0D01*
G01*
X88125000Y121144999D01*
G75*
G02*
X88225000Y121044999I0J-100000D01*
G01*
X88225000Y120244999D01*
G75*
G02*
X88125000Y120144999I-100000J0D01*
G01*
G37*
G36*
G01*
X88125000Y122045021D02*
X86875000Y122045021D01*
G75*
G02*
X86775000Y122145021I0J100000D01*
G01*
X86775000Y122945021D01*
G75*
G02*
X86875000Y123045021I100000J0D01*
G01*
X88125000Y123045021D01*
G75*
G02*
X88225000Y122945021I0J-100000D01*
G01*
X88225000Y122145021D01*
G75*
G02*
X88125000Y122045021I-100000J0D01*
G01*
G37*
G04 #@! TD*
G04 #@! TO.C,R12*
G36*
G01*
X47125000Y106349999D02*
X45875000Y106349999D01*
G75*
G02*
X45775000Y106449999I0J100000D01*
G01*
X45775000Y107249999D01*
G75*
G02*
X45875000Y107349999I100000J0D01*
G01*
X47125000Y107349999D01*
G75*
G02*
X47225000Y107249999I0J-100000D01*
G01*
X47225000Y106449999D01*
G75*
G02*
X47125000Y106349999I-100000J0D01*
G01*
G37*
G36*
G01*
X47125000Y108250021D02*
X45875000Y108250021D01*
G75*
G02*
X45775000Y108350021I0J100000D01*
G01*
X45775000Y109150021D01*
G75*
G02*
X45875000Y109250021I100000J0D01*
G01*
X47125000Y109250021D01*
G75*
G02*
X47225000Y109150021I0J-100000D01*
G01*
X47225000Y108350021D01*
G75*
G02*
X47125000Y108250021I-100000J0D01*
G01*
G37*
G04 #@! TD*
D10*
G04 #@! TO.C,Q2*
X141574999Y53725000D03*
X146424999Y59275000D03*
X146424999Y53725000D03*
X141574999Y59275000D03*
D11*
X153149999Y53960000D03*
X153149999Y59040000D03*
G04 #@! TD*
G04 #@! TO.C,R19*
G36*
G01*
X33625000Y99449999D02*
X32375000Y99449999D01*
G75*
G02*
X32275000Y99549999I0J100000D01*
G01*
X32275000Y100349999D01*
G75*
G02*
X32375000Y100449999I100000J0D01*
G01*
X33625000Y100449999D01*
G75*
G02*
X33725000Y100349999I0J-100000D01*
G01*
X33725000Y99549999D01*
G75*
G02*
X33625000Y99449999I-100000J0D01*
G01*
G37*
G36*
G01*
X33625000Y101350021D02*
X32375000Y101350021D01*
G75*
G02*
X32275000Y101450021I0J100000D01*
G01*
X32275000Y102250021D01*
G75*
G02*
X32375000Y102350021I100000J0D01*
G01*
X33625000Y102350021D01*
G75*
G02*
X33725000Y102250021I0J-100000D01*
G01*
X33725000Y101450021D01*
G75*
G02*
X33625000Y101350021I-100000J0D01*
G01*
G37*
G04 #@! TD*
G04 #@! TO.C,D10*
G36*
G01*
X83800021Y110880000D02*
X83800021Y112120000D01*
G75*
G02*
X83930021Y112250000I130000J0D01*
G01*
X84970021Y112250000D01*
G75*
G02*
X85100021Y112120000I0J-130000D01*
G01*
X85100021Y110880000D01*
G75*
G02*
X84970021Y110750000I-130000J0D01*
G01*
X83930021Y110750000D01*
G75*
G02*
X83800021Y110880000I0J130000D01*
G01*
G37*
G36*
G01*
X81900000Y110880000D02*
X81900000Y112120000D01*
G75*
G02*
X82030000Y112250000I130000J0D01*
G01*
X83070000Y112250000D01*
G75*
G02*
X83200000Y112120000I0J-130000D01*
G01*
X83200000Y110880000D01*
G75*
G02*
X83070000Y110750000I-130000J0D01*
G01*
X82030000Y110750000D01*
G75*
G02*
X81900000Y110880000I0J130000D01*
G01*
G37*
G04 #@! TD*
G04 #@! TO.C,R79*
G36*
G01*
X78050001Y95790000D02*
X78050001Y95010000D01*
G75*
G02*
X77980001Y94940000I-70000J0D01*
G01*
X77420001Y94940000D01*
G75*
G02*
X77350001Y95010000I0J70000D01*
G01*
X77350001Y95790000D01*
G75*
G02*
X77420001Y95860000I70000J0D01*
G01*
X77980001Y95860000D01*
G75*
G02*
X78050001Y95790000I0J-70000D01*
G01*
G37*
G36*
G01*
X76450001Y95790000D02*
X76450001Y95010000D01*
G75*
G02*
X76380001Y94940000I-70000J0D01*
G01*
X75820001Y94940000D01*
G75*
G02*
X75750001Y95010000I0J70000D01*
G01*
X75750001Y95790000D01*
G75*
G02*
X75820001Y95860000I70000J0D01*
G01*
X76380001Y95860000D01*
G75*
G02*
X76450001Y95790000I0J-70000D01*
G01*
G37*
G04 #@! TD*
G04 #@! TO.C,R20*
G36*
G01*
X31125000Y109149999D02*
X29875000Y109149999D01*
G75*
G02*
X29775000Y109249999I0J100000D01*
G01*
X29775000Y110049999D01*
G75*
G02*
X29875000Y110149999I100000J0D01*
G01*
X31125000Y110149999D01*
G75*
G02*
X31225000Y110049999I0J-100000D01*
G01*
X31225000Y109249999D01*
G75*
G02*
X31125000Y109149999I-100000J0D01*
G01*
G37*
G36*
G01*
X31125000Y111050021D02*
X29875000Y111050021D01*
G75*
G02*
X29775000Y111150021I0J100000D01*
G01*
X29775000Y111950021D01*
G75*
G02*
X29875000Y112050021I100000J0D01*
G01*
X31125000Y112050021D01*
G75*
G02*
X31225000Y111950021I0J-100000D01*
G01*
X31225000Y111150021D01*
G75*
G02*
X31125000Y111050021I-100000J0D01*
G01*
G37*
G04 #@! TD*
G04 #@! TO.C,R15*
G36*
G01*
X86150000Y108610000D02*
X86150000Y109390000D01*
G75*
G02*
X86220000Y109460000I70000J0D01*
G01*
X86780000Y109460000D01*
G75*
G02*
X86850000Y109390000I0J-70000D01*
G01*
X86850000Y108610000D01*
G75*
G02*
X86780000Y108540000I-70000J0D01*
G01*
X86220000Y108540000D01*
G75*
G02*
X86150000Y108610000I0J70000D01*
G01*
G37*
G36*
G01*
X87750000Y108610000D02*
X87750000Y109390000D01*
G75*
G02*
X87820000Y109460000I70000J0D01*
G01*
X88380000Y109460000D01*
G75*
G02*
X88450000Y109390000I0J-70000D01*
G01*
X88450000Y108610000D01*
G75*
G02*
X88380000Y108540000I-70000J0D01*
G01*
X87820000Y108540000D01*
G75*
G02*
X87750000Y108610000I0J70000D01*
G01*
G37*
G04 #@! TD*
G04 #@! TO.C,C12*
G36*
G01*
X78025000Y103799999D02*
X78975000Y103799999D01*
G75*
G02*
X79225000Y103549999I0J-250000D01*
G01*
X79225000Y103049999D01*
G75*
G02*
X78975000Y102799999I-250000J0D01*
G01*
X78025000Y102799999D01*
G75*
G02*
X77775000Y103049999I0J250000D01*
G01*
X77775000Y103549999D01*
G75*
G02*
X78025000Y103799999I250000J0D01*
G01*
G37*
G36*
G01*
X78025000Y101899999D02*
X78975000Y101899999D01*
G75*
G02*
X79225000Y101649999I0J-250000D01*
G01*
X79225000Y101149999D01*
G75*
G02*
X78975000Y100899999I-250000J0D01*
G01*
X78025000Y100899999D01*
G75*
G02*
X77775000Y101149999I0J250000D01*
G01*
X77775000Y101649999D01*
G75*
G02*
X78025000Y101899999I250000J0D01*
G01*
G37*
G04 #@! TD*
G04 #@! TO.C,D19*
G36*
G01*
X53600002Y89299999D02*
X54500002Y89299999D01*
G75*
G02*
X54600002Y89199999I0J-100000D01*
G01*
X54600002Y88399999D01*
G75*
G02*
X54500002Y88299999I-100000J0D01*
G01*
X53600002Y88299999D01*
G75*
G02*
X53500002Y88399999I0J100000D01*
G01*
X53500002Y89199999D01*
G75*
G02*
X53600002Y89299999I100000J0D01*
G01*
G37*
G36*
G01*
X53600002Y87599999D02*
X54500002Y87599999D01*
G75*
G02*
X54600002Y87499999I0J-100000D01*
G01*
X54600002Y86699999D01*
G75*
G02*
X54500002Y86599999I-100000J0D01*
G01*
X53600002Y86599999D01*
G75*
G02*
X53500002Y86699999I0J100000D01*
G01*
X53500002Y87499999D01*
G75*
G02*
X53600002Y87599999I100000J0D01*
G01*
G37*
G04 #@! TD*
G04 #@! TO.C,D28*
G36*
G01*
X142700001Y10600002D02*
X142700001Y11500002D01*
G75*
G02*
X142800001Y11600002I100000J0D01*
G01*
X143600001Y11600002D01*
G75*
G02*
X143700001Y11500002I0J-100000D01*
G01*
X143700001Y10600002D01*
G75*
G02*
X143600001Y10500002I-100000J0D01*
G01*
X142800001Y10500002D01*
G75*
G02*
X142700001Y10600002I0J100000D01*
G01*
G37*
G36*
G01*
X144400001Y10600002D02*
X144400001Y11500002D01*
G75*
G02*
X144500001Y11600002I100000J0D01*
G01*
X145300001Y11600002D01*
G75*
G02*
X145400001Y11500002I0J-100000D01*
G01*
X145400001Y10600002D01*
G75*
G02*
X145300001Y10500002I-100000J0D01*
G01*
X144500001Y10500002D01*
G75*
G02*
X144400001Y10600002I0J100000D01*
G01*
G37*
G04 #@! TD*
G04 #@! TO.C,C9*
G36*
G01*
X74940000Y94994998D02*
X74260000Y94994998D01*
G75*
G02*
X74175000Y95079998I0J85000D01*
G01*
X74175000Y95759998D01*
G75*
G02*
X74260000Y95844998I85000J0D01*
G01*
X74940000Y95844998D01*
G75*
G02*
X75025000Y95759998I0J-85000D01*
G01*
X75025000Y95079998D01*
G75*
G02*
X74940000Y94994998I-85000J0D01*
G01*
G37*
G36*
G01*
X74940000Y96575000D02*
X74260000Y96575000D01*
G75*
G02*
X74175000Y96660000I0J85000D01*
G01*
X74175000Y97340000D01*
G75*
G02*
X74260000Y97425000I85000J0D01*
G01*
X74940000Y97425000D01*
G75*
G02*
X75025000Y97340000I0J-85000D01*
G01*
X75025000Y96660000D01*
G75*
G02*
X74940000Y96575000I-85000J0D01*
G01*
G37*
G04 #@! TD*
G04 #@! TO.C,D24*
G36*
G01*
X40338502Y24100000D02*
X39858502Y24100000D01*
G75*
G02*
X39798502Y24160000I0J60000D01*
G01*
X39798502Y24640000D01*
G75*
G02*
X39858502Y24700000I60000J0D01*
G01*
X40338502Y24700000D01*
G75*
G02*
X40398502Y24640000I0J-60000D01*
G01*
X40398502Y24160000D01*
G75*
G02*
X40338502Y24100000I-60000J0D01*
G01*
G37*
G36*
G01*
X38138502Y24100000D02*
X37658502Y24100000D01*
G75*
G02*
X37598502Y24160000I0J60000D01*
G01*
X37598502Y24640000D01*
G75*
G02*
X37658502Y24700000I60000J0D01*
G01*
X38138502Y24700000D01*
G75*
G02*
X38198502Y24640000I0J-60000D01*
G01*
X38198502Y24160000D01*
G75*
G02*
X38138502Y24100000I-60000J0D01*
G01*
G37*
G04 #@! TD*
G04 #@! TO.C,R2*
G36*
G01*
X83449999Y115890000D02*
X83449999Y115110000D01*
G75*
G02*
X83379999Y115040000I-70000J0D01*
G01*
X82819999Y115040000D01*
G75*
G02*
X82749999Y115110000I0J70000D01*
G01*
X82749999Y115890000D01*
G75*
G02*
X82819999Y115960000I70000J0D01*
G01*
X83379999Y115960000D01*
G75*
G02*
X83449999Y115890000I0J-70000D01*
G01*
G37*
G36*
G01*
X81849999Y115890000D02*
X81849999Y115110000D01*
G75*
G02*
X81779999Y115040000I-70000J0D01*
G01*
X81219999Y115040000D01*
G75*
G02*
X81149999Y115110000I0J70000D01*
G01*
X81149999Y115890000D01*
G75*
G02*
X81219999Y115960000I70000J0D01*
G01*
X81779999Y115960000D01*
G75*
G02*
X81849999Y115890000I0J-70000D01*
G01*
G37*
G04 #@! TD*
D12*
G04 #@! TO.C,D25*
X38439195Y103330049D03*
X38439195Y100030049D03*
G04 #@! TD*
G04 #@! TO.C,S1*
G36*
G01*
X65499999Y18080000D02*
X65499999Y19920000D01*
G75*
G02*
X65579999Y20000000I80000J0D01*
G01*
X66219999Y20000000D01*
G75*
G02*
X66299999Y19920000I0J-80000D01*
G01*
X66299999Y18080000D01*
G75*
G02*
X66219999Y18000000I-80000J0D01*
G01*
X65579999Y18000000D01*
G75*
G02*
X65499999Y18080000I0J80000D01*
G01*
G37*
G36*
G01*
X69700000Y18080000D02*
X69700000Y19920000D01*
G75*
G02*
X69780000Y20000000I80000J0D01*
G01*
X70420000Y20000000D01*
G75*
G02*
X70500000Y19920000I0J-80000D01*
G01*
X70500000Y18080000D01*
G75*
G02*
X70420000Y18000000I-80000J0D01*
G01*
X69780000Y18000000D01*
G75*
G02*
X69700000Y18080000I0J80000D01*
G01*
G37*
G04 #@! TD*
G04 #@! TO.C,R1*
G36*
G01*
X149735000Y9900000D02*
X149065000Y9900000D01*
G75*
G02*
X149000000Y9965000I0J65000D01*
G01*
X149000000Y10485000D01*
G75*
G02*
X149065000Y10550000I65000J0D01*
G01*
X149735000Y10550000D01*
G75*
G02*
X149800000Y10485000I0J-65000D01*
G01*
X149800000Y9965000D01*
G75*
G02*
X149735000Y9900000I-65000J0D01*
G01*
G37*
G36*
G01*
X149755000Y10875000D02*
X149045000Y10875000D01*
G75*
G02*
X149000000Y10920000I0J45000D01*
G01*
X149000000Y11280000D01*
G75*
G02*
X149045000Y11325000I45000J0D01*
G01*
X149755000Y11325000D01*
G75*
G02*
X149800000Y11280000I0J-45000D01*
G01*
X149800000Y10920000D01*
G75*
G02*
X149755000Y10875000I-45000J0D01*
G01*
G37*
G36*
G01*
X149755000Y11675000D02*
X149045000Y11675000D01*
G75*
G02*
X149000000Y11720000I0J45000D01*
G01*
X149000000Y12080000D01*
G75*
G02*
X149045000Y12125000I45000J0D01*
G01*
X149755000Y12125000D01*
G75*
G02*
X149800000Y12080000I0J-45000D01*
G01*
X149800000Y11720000D01*
G75*
G02*
X149755000Y11675000I-45000J0D01*
G01*
G37*
G36*
G01*
X149735000Y12450000D02*
X149065000Y12450000D01*
G75*
G02*
X149000000Y12515000I0J65000D01*
G01*
X149000000Y13035000D01*
G75*
G02*
X149065000Y13100000I65000J0D01*
G01*
X149735000Y13100000D01*
G75*
G02*
X149800000Y13035000I0J-65000D01*
G01*
X149800000Y12515000D01*
G75*
G02*
X149735000Y12450000I-65000J0D01*
G01*
G37*
G36*
G01*
X147935000Y12450000D02*
X147265000Y12450000D01*
G75*
G02*
X147200000Y12515000I0J65000D01*
G01*
X147200000Y13035000D01*
G75*
G02*
X147265000Y13100000I65000J0D01*
G01*
X147935000Y13100000D01*
G75*
G02*
X148000000Y13035000I0J-65000D01*
G01*
X148000000Y12515000D01*
G75*
G02*
X147935000Y12450000I-65000J0D01*
G01*
G37*
G36*
G01*
X147955000Y11675000D02*
X147245000Y11675000D01*
G75*
G02*
X147200000Y11720000I0J45000D01*
G01*
X147200000Y12080000D01*
G75*
G02*
X147245000Y12125000I45000J0D01*
G01*
X147955000Y12125000D01*
G75*
G02*
X148000000Y12080000I0J-45000D01*
G01*
X148000000Y11720000D01*
G75*
G02*
X147955000Y11675000I-45000J0D01*
G01*
G37*
G36*
G01*
X147955000Y10875000D02*
X147245000Y10875000D01*
G75*
G02*
X147200000Y10920000I0J45000D01*
G01*
X147200000Y11280000D01*
G75*
G02*
X147245000Y11325000I45000J0D01*
G01*
X147955000Y11325000D01*
G75*
G02*
X148000000Y11280000I0J-45000D01*
G01*
X148000000Y10920000D01*
G75*
G02*
X147955000Y10875000I-45000J0D01*
G01*
G37*
G36*
G01*
X147935000Y9900000D02*
X147265000Y9900000D01*
G75*
G02*
X147200000Y9965000I0J65000D01*
G01*
X147200000Y10485000D01*
G75*
G02*
X147265000Y10550000I65000J0D01*
G01*
X147935000Y10550000D01*
G75*
G02*
X148000000Y10485000I0J-65000D01*
G01*
X148000000Y9965000D01*
G75*
G02*
X147935000Y9900000I-65000J0D01*
G01*
G37*
G04 #@! TD*
G04 #@! TO.C,R35*
G36*
G01*
X62125000Y113249999D02*
X60875000Y113249999D01*
G75*
G02*
X60775000Y113349999I0J100000D01*
G01*
X60775000Y114149999D01*
G75*
G02*
X60875000Y114249999I100000J0D01*
G01*
X62125000Y114249999D01*
G75*
G02*
X62225000Y114149999I0J-100000D01*
G01*
X62225000Y113349999D01*
G75*
G02*
X62125000Y113249999I-100000J0D01*
G01*
G37*
G36*
G01*
X62125000Y115150021D02*
X60875000Y115150021D01*
G75*
G02*
X60775000Y115250021I0J100000D01*
G01*
X60775000Y116050021D01*
G75*
G02*
X60875000Y116150021I100000J0D01*
G01*
X62125000Y116150021D01*
G75*
G02*
X62225000Y116050021I0J-100000D01*
G01*
X62225000Y115250021D01*
G75*
G02*
X62125000Y115150021I-100000J0D01*
G01*
G37*
G04 #@! TD*
G04 #@! TO.C,R21*
G36*
G01*
X31125000Y116049999D02*
X29875000Y116049999D01*
G75*
G02*
X29775000Y116149999I0J100000D01*
G01*
X29775000Y116949999D01*
G75*
G02*
X29875000Y117049999I100000J0D01*
G01*
X31125000Y117049999D01*
G75*
G02*
X31225000Y116949999I0J-100000D01*
G01*
X31225000Y116149999D01*
G75*
G02*
X31125000Y116049999I-100000J0D01*
G01*
G37*
G36*
G01*
X31125000Y117950021D02*
X29875000Y117950021D01*
G75*
G02*
X29775000Y118050021I0J100000D01*
G01*
X29775000Y118850021D01*
G75*
G02*
X29875000Y118950021I100000J0D01*
G01*
X31125000Y118950021D01*
G75*
G02*
X31225000Y118850021I0J-100000D01*
G01*
X31225000Y118050021D01*
G75*
G02*
X31125000Y117950021I-100000J0D01*
G01*
G37*
G04 #@! TD*
D16*
G04 #@! TO.C,Q5*
X27750000Y13900000D03*
X27750000Y11600000D03*
X27750000Y9300000D03*
D17*
X34050000Y11600000D03*
G04 #@! TD*
G04 #@! TO.C,R29*
G36*
G01*
X44125000Y106349999D02*
X42875000Y106349999D01*
G75*
G02*
X42775000Y106449999I0J100000D01*
G01*
X42775000Y107249999D01*
G75*
G02*
X42875000Y107349999I100000J0D01*
G01*
X44125000Y107349999D01*
G75*
G02*
X44225000Y107249999I0J-100000D01*
G01*
X44225000Y106449999D01*
G75*
G02*
X44125000Y106349999I-100000J0D01*
G01*
G37*
G36*
G01*
X44125000Y108250021D02*
X42875000Y108250021D01*
G75*
G02*
X42775000Y108350021I0J100000D01*
G01*
X42775000Y109150021D01*
G75*
G02*
X42875000Y109250021I100000J0D01*
G01*
X44125000Y109250021D01*
G75*
G02*
X44225000Y109150021I0J-100000D01*
G01*
X44225000Y108350021D01*
G75*
G02*
X44125000Y108250021I-100000J0D01*
G01*
G37*
G04 #@! TD*
G04 #@! TO.C,R78*
G36*
G01*
X53410000Y99250000D02*
X54190000Y99250000D01*
G75*
G02*
X54260000Y99180000I0J-70000D01*
G01*
X54260000Y98620000D01*
G75*
G02*
X54190000Y98550000I-70000J0D01*
G01*
X53410000Y98550000D01*
G75*
G02*
X53340000Y98620000I0J70000D01*
G01*
X53340000Y99180000D01*
G75*
G02*
X53410000Y99250000I70000J0D01*
G01*
G37*
G36*
G01*
X53410000Y97650000D02*
X54190000Y97650000D01*
G75*
G02*
X54260000Y97580000I0J-70000D01*
G01*
X54260000Y97020000D01*
G75*
G02*
X54190000Y96950000I-70000J0D01*
G01*
X53410000Y96950000D01*
G75*
G02*
X53340000Y97020000I0J70000D01*
G01*
X53340000Y97580000D01*
G75*
G02*
X53410000Y97650000I70000J0D01*
G01*
G37*
G04 #@! TD*
G04 #@! TO.C,R53*
G36*
G01*
X44625000Y120149999D02*
X43375000Y120149999D01*
G75*
G02*
X43275000Y120249999I0J100000D01*
G01*
X43275000Y121049999D01*
G75*
G02*
X43375000Y121149999I100000J0D01*
G01*
X44625000Y121149999D01*
G75*
G02*
X44725000Y121049999I0J-100000D01*
G01*
X44725000Y120249999D01*
G75*
G02*
X44625000Y120149999I-100000J0D01*
G01*
G37*
G36*
G01*
X44625000Y122050021D02*
X43375000Y122050021D01*
G75*
G02*
X43275000Y122150021I0J100000D01*
G01*
X43275000Y122950021D01*
G75*
G02*
X43375000Y123050021I100000J0D01*
G01*
X44625000Y123050021D01*
G75*
G02*
X44725000Y122950021I0J-100000D01*
G01*
X44725000Y122150021D01*
G75*
G02*
X44625000Y122050021I-100000J0D01*
G01*
G37*
G04 #@! TD*
G04 #@! TO.C,F2*
G36*
G01*
X81600000Y122155010D02*
X81600000Y122845010D01*
G75*
G02*
X81830000Y123075010I230000J0D01*
G01*
X83170000Y123075010D01*
G75*
G02*
X83400000Y122845010I0J-230000D01*
G01*
X83400000Y122155010D01*
G75*
G02*
X83170000Y121925010I-230000J0D01*
G01*
X81830000Y121925010D01*
G75*
G02*
X81600000Y122155010I0J230000D01*
G01*
G37*
G36*
G01*
X81600000Y119254990D02*
X81600000Y119944990D01*
G75*
G02*
X81830000Y120174990I230000J0D01*
G01*
X83170000Y120174990D01*
G75*
G02*
X83400000Y119944990I0J-230000D01*
G01*
X83400000Y119254990D01*
G75*
G02*
X83170000Y119024990I-230000J0D01*
G01*
X81830000Y119024990D01*
G75*
G02*
X81600000Y119254990I0J230000D01*
G01*
G37*
G04 #@! TD*
G04 #@! TO.C,D38*
G36*
G01*
X42100002Y89299999D02*
X43000002Y89299999D01*
G75*
G02*
X43100002Y89199999I0J-100000D01*
G01*
X43100002Y88399999D01*
G75*
G02*
X43000002Y88299999I-100000J0D01*
G01*
X42100002Y88299999D01*
G75*
G02*
X42000002Y88399999I0J100000D01*
G01*
X42000002Y89199999D01*
G75*
G02*
X42100002Y89299999I100000J0D01*
G01*
G37*
G36*
G01*
X42100002Y87599999D02*
X43000002Y87599999D01*
G75*
G02*
X43100002Y87499999I0J-100000D01*
G01*
X43100002Y86699999D01*
G75*
G02*
X43000002Y86599999I-100000J0D01*
G01*
X42100002Y86599999D01*
G75*
G02*
X42000002Y86699999I0J100000D01*
G01*
X42000002Y87499999D01*
G75*
G02*
X42100002Y87599999I100000J0D01*
G01*
G37*
G04 #@! TD*
G04 #@! TO.C,D18*
G36*
G01*
X51600002Y89299999D02*
X52500002Y89299999D01*
G75*
G02*
X52600002Y89199999I0J-100000D01*
G01*
X52600002Y88399999D01*
G75*
G02*
X52500002Y88299999I-100000J0D01*
G01*
X51600002Y88299999D01*
G75*
G02*
X51500002Y88399999I0J100000D01*
G01*
X51500002Y89199999D01*
G75*
G02*
X51600002Y89299999I100000J0D01*
G01*
G37*
G36*
G01*
X51600002Y87599999D02*
X52500002Y87599999D01*
G75*
G02*
X52600002Y87499999I0J-100000D01*
G01*
X52600002Y86699999D01*
G75*
G02*
X52500002Y86599999I-100000J0D01*
G01*
X51600002Y86599999D01*
G75*
G02*
X51500002Y86699999I0J100000D01*
G01*
X51500002Y87499999D01*
G75*
G02*
X51600002Y87599999I100000J0D01*
G01*
G37*
G04 #@! TD*
G04 #@! TO.C,D36*
G36*
G01*
X38100002Y89299999D02*
X39000002Y89299999D01*
G75*
G02*
X39100002Y89199999I0J-100000D01*
G01*
X39100002Y88399999D01*
G75*
G02*
X39000002Y88299999I-100000J0D01*
G01*
X38100002Y88299999D01*
G75*
G02*
X38000002Y88399999I0J100000D01*
G01*
X38000002Y89199999D01*
G75*
G02*
X38100002Y89299999I100000J0D01*
G01*
G37*
G36*
G01*
X38100002Y87599999D02*
X39000002Y87599999D01*
G75*
G02*
X39100002Y87499999I0J-100000D01*
G01*
X39100002Y86699999D01*
G75*
G02*
X39000002Y86599999I-100000J0D01*
G01*
X38100002Y86599999D01*
G75*
G02*
X38000002Y86699999I0J100000D01*
G01*
X38000002Y87499999D01*
G75*
G02*
X38100002Y87599999I100000J0D01*
G01*
G37*
G04 #@! TD*
G04 #@! TO.C,R42*
G36*
G01*
X39025000Y116049999D02*
X37775000Y116049999D01*
G75*
G02*
X37675000Y116149999I0J100000D01*
G01*
X37675000Y116949999D01*
G75*
G02*
X37775000Y117049999I100000J0D01*
G01*
X39025000Y117049999D01*
G75*
G02*
X39125000Y116949999I0J-100000D01*
G01*
X39125000Y116149999D01*
G75*
G02*
X39025000Y116049999I-100000J0D01*
G01*
G37*
G36*
G01*
X39025000Y117950021D02*
X37775000Y117950021D01*
G75*
G02*
X37675000Y118050021I0J100000D01*
G01*
X37675000Y118850021D01*
G75*
G02*
X37775000Y118950021I100000J0D01*
G01*
X39025000Y118950021D01*
G75*
G02*
X39125000Y118850021I0J-100000D01*
G01*
X39125000Y118050021D01*
G75*
G02*
X39025000Y117950021I-100000J0D01*
G01*
G37*
G04 #@! TD*
G04 #@! TO.C,C7*
G36*
G01*
X54960000Y99305002D02*
X55640000Y99305002D01*
G75*
G02*
X55725000Y99220002I0J-85000D01*
G01*
X55725000Y98540002D01*
G75*
G02*
X55640000Y98455002I-85000J0D01*
G01*
X54960000Y98455002D01*
G75*
G02*
X54875000Y98540002I0J85000D01*
G01*
X54875000Y99220002D01*
G75*
G02*
X54960000Y99305002I85000J0D01*
G01*
G37*
G36*
G01*
X54960000Y97725000D02*
X55640000Y97725000D01*
G75*
G02*
X55725000Y97640000I0J-85000D01*
G01*
X55725000Y96960000D01*
G75*
G02*
X55640000Y96875000I-85000J0D01*
G01*
X54960000Y96875000D01*
G75*
G02*
X54875000Y96960000I0J85000D01*
G01*
X54875000Y97640000D01*
G75*
G02*
X54960000Y97725000I85000J0D01*
G01*
G37*
G04 #@! TD*
G04 #@! TO.C,R55*
G36*
G01*
X96125000Y116549999D02*
X94875000Y116549999D01*
G75*
G02*
X94775000Y116649999I0J100000D01*
G01*
X94775000Y117449999D01*
G75*
G02*
X94875000Y117549999I100000J0D01*
G01*
X96125000Y117549999D01*
G75*
G02*
X96225000Y117449999I0J-100000D01*
G01*
X96225000Y116649999D01*
G75*
G02*
X96125000Y116549999I-100000J0D01*
G01*
G37*
G36*
G01*
X96125000Y118450021D02*
X94875000Y118450021D01*
G75*
G02*
X94775000Y118550021I0J100000D01*
G01*
X94775000Y119350021D01*
G75*
G02*
X94875000Y119450021I100000J0D01*
G01*
X96125000Y119450021D01*
G75*
G02*
X96225000Y119350021I0J-100000D01*
G01*
X96225000Y118550021D01*
G75*
G02*
X96125000Y118450021I-100000J0D01*
G01*
G37*
G04 #@! TD*
G04 #@! TO.C,D9*
G36*
G01*
X33600002Y89299999D02*
X34500002Y89299999D01*
G75*
G02*
X34600002Y89199999I0J-100000D01*
G01*
X34600002Y88399999D01*
G75*
G02*
X34500002Y88299999I-100000J0D01*
G01*
X33600002Y88299999D01*
G75*
G02*
X33500002Y88399999I0J100000D01*
G01*
X33500002Y89199999D01*
G75*
G02*
X33600002Y89299999I100000J0D01*
G01*
G37*
G36*
G01*
X33600002Y87599999D02*
X34500002Y87599999D01*
G75*
G02*
X34600002Y87499999I0J-100000D01*
G01*
X34600002Y86699999D01*
G75*
G02*
X34500002Y86599999I-100000J0D01*
G01*
X33600002Y86599999D01*
G75*
G02*
X33500002Y86699999I0J100000D01*
G01*
X33500002Y87499999D01*
G75*
G02*
X33600002Y87599999I100000J0D01*
G01*
G37*
G04 #@! TD*
D10*
G04 #@! TO.C,Q4*
X141574999Y120275000D03*
X146424999Y114725000D03*
X146424999Y120275000D03*
X141574999Y114725000D03*
D11*
X153149999Y114960000D03*
X153149999Y120040000D03*
G04 #@! TD*
G04 #@! TO.C,R24*
G36*
G01*
X72125000Y109349999D02*
X70875000Y109349999D01*
G75*
G02*
X70775000Y109449999I0J100000D01*
G01*
X70775000Y110249999D01*
G75*
G02*
X70875000Y110349999I100000J0D01*
G01*
X72125000Y110349999D01*
G75*
G02*
X72225000Y110249999I0J-100000D01*
G01*
X72225000Y109449999D01*
G75*
G02*
X72125000Y109349999I-100000J0D01*
G01*
G37*
G36*
G01*
X72125000Y111250021D02*
X70875000Y111250021D01*
G75*
G02*
X70775000Y111350021I0J100000D01*
G01*
X70775000Y112150021D01*
G75*
G02*
X70875000Y112250021I100000J0D01*
G01*
X72125000Y112250021D01*
G75*
G02*
X72225000Y112150021I0J-100000D01*
G01*
X72225000Y111350021D01*
G75*
G02*
X72125000Y111250021I-100000J0D01*
G01*
G37*
G04 #@! TD*
G04 #@! TO.C,R72*
G36*
G01*
X52390000Y106350000D02*
X51610000Y106350000D01*
G75*
G02*
X51540000Y106420000I0J70000D01*
G01*
X51540000Y106980000D01*
G75*
G02*
X51610000Y107050000I70000J0D01*
G01*
X52390000Y107050000D01*
G75*
G02*
X52460000Y106980000I0J-70000D01*
G01*
X52460000Y106420000D01*
G75*
G02*
X52390000Y106350000I-70000J0D01*
G01*
G37*
G36*
G01*
X52390000Y107950000D02*
X51610000Y107950000D01*
G75*
G02*
X51540000Y108020000I0J70000D01*
G01*
X51540000Y108580000D01*
G75*
G02*
X51610000Y108650000I70000J0D01*
G01*
X52390000Y108650000D01*
G75*
G02*
X52460000Y108580000I0J-70000D01*
G01*
X52460000Y108020000D01*
G75*
G02*
X52390000Y107950000I-70000J0D01*
G01*
G37*
G04 #@! TD*
G04 #@! TO.C,C3*
G36*
G01*
X89884999Y17559999D02*
X89884999Y18239999D01*
G75*
G02*
X89969999Y18324999I85000J0D01*
G01*
X90649999Y18324999D01*
G75*
G02*
X90734999Y18239999I0J-85000D01*
G01*
X90734999Y17559999D01*
G75*
G02*
X90649999Y17474999I-85000J0D01*
G01*
X89969999Y17474999D01*
G75*
G02*
X89884999Y17559999I0J85000D01*
G01*
G37*
G36*
G01*
X91465001Y17559999D02*
X91465001Y18239999D01*
G75*
G02*
X91550001Y18324999I85000J0D01*
G01*
X92230001Y18324999D01*
G75*
G02*
X92315001Y18239999I0J-85000D01*
G01*
X92315001Y17559999D01*
G75*
G02*
X92230001Y17474999I-85000J0D01*
G01*
X91550001Y17474999D01*
G75*
G02*
X91465001Y17559999I0J85000D01*
G01*
G37*
G04 #@! TD*
G04 #@! TO.C,D40*
G36*
G01*
X51700000Y98660000D02*
X51700000Y99140000D01*
G75*
G02*
X51760000Y99200000I60000J0D01*
G01*
X52240000Y99200000D01*
G75*
G02*
X52300000Y99140000I0J-60000D01*
G01*
X52300000Y98660000D01*
G75*
G02*
X52240000Y98600000I-60000J0D01*
G01*
X51760000Y98600000D01*
G75*
G02*
X51700000Y98660000I0J60000D01*
G01*
G37*
G36*
G01*
X51700000Y100860000D02*
X51700000Y101340000D01*
G75*
G02*
X51760000Y101400000I60000J0D01*
G01*
X52240000Y101400000D01*
G75*
G02*
X52300000Y101340000I0J-60000D01*
G01*
X52300000Y100860000D01*
G75*
G02*
X52240000Y100800000I-60000J0D01*
G01*
X51760000Y100800000D01*
G75*
G02*
X51700000Y100860000I0J60000D01*
G01*
G37*
G04 #@! TD*
G04 #@! TO.C,D14*
G36*
G01*
X31700000Y82660000D02*
X31700000Y83140000D01*
G75*
G02*
X31760000Y83200000I60000J0D01*
G01*
X32240000Y83200000D01*
G75*
G02*
X32300000Y83140000I0J-60000D01*
G01*
X32300000Y82660000D01*
G75*
G02*
X32240000Y82600000I-60000J0D01*
G01*
X31760000Y82600000D01*
G75*
G02*
X31700000Y82660000I0J60000D01*
G01*
G37*
G36*
G01*
X31700000Y84860000D02*
X31700000Y85340000D01*
G75*
G02*
X31760000Y85400000I60000J0D01*
G01*
X32240000Y85400000D01*
G75*
G02*
X32300000Y85340000I0J-60000D01*
G01*
X32300000Y84860000D01*
G75*
G02*
X32240000Y84800000I-60000J0D01*
G01*
X31760000Y84800000D01*
G75*
G02*
X31700000Y84860000I0J60000D01*
G01*
G37*
G04 #@! TD*
G04 #@! TO.C,R51*
G36*
G01*
X49625000Y120149999D02*
X48375000Y120149999D01*
G75*
G02*
X48275000Y120249999I0J100000D01*
G01*
X48275000Y121049999D01*
G75*
G02*
X48375000Y121149999I100000J0D01*
G01*
X49625000Y121149999D01*
G75*
G02*
X49725000Y121049999I0J-100000D01*
G01*
X49725000Y120249999D01*
G75*
G02*
X49625000Y120149999I-100000J0D01*
G01*
G37*
G36*
G01*
X49625000Y122050021D02*
X48375000Y122050021D01*
G75*
G02*
X48275000Y122150021I0J100000D01*
G01*
X48275000Y122950021D01*
G75*
G02*
X48375000Y123050021I100000J0D01*
G01*
X49625000Y123050021D01*
G75*
G02*
X49725000Y122950021I0J-100000D01*
G01*
X49725000Y122150021D01*
G75*
G02*
X49625000Y122050021I-100000J0D01*
G01*
G37*
G04 #@! TD*
G04 #@! TO.C,R36*
G36*
G01*
X59625000Y120149999D02*
X58375000Y120149999D01*
G75*
G02*
X58275000Y120249999I0J100000D01*
G01*
X58275000Y121049999D01*
G75*
G02*
X58375000Y121149999I100000J0D01*
G01*
X59625000Y121149999D01*
G75*
G02*
X59725000Y121049999I0J-100000D01*
G01*
X59725000Y120249999D01*
G75*
G02*
X59625000Y120149999I-100000J0D01*
G01*
G37*
G36*
G01*
X59625000Y122050021D02*
X58375000Y122050021D01*
G75*
G02*
X58275000Y122150021I0J100000D01*
G01*
X58275000Y122950021D01*
G75*
G02*
X58375000Y123050021I100000J0D01*
G01*
X59625000Y123050021D01*
G75*
G02*
X59725000Y122950021I0J-100000D01*
G01*
X59725000Y122150021D01*
G75*
G02*
X59625000Y122050021I-100000J0D01*
G01*
G37*
G04 #@! TD*
G04 #@! TO.C,R73*
G36*
G01*
X62390000Y107850000D02*
X61610000Y107850000D01*
G75*
G02*
X61540000Y107920000I0J70000D01*
G01*
X61540000Y108480000D01*
G75*
G02*
X61610000Y108550000I70000J0D01*
G01*
X62390000Y108550000D01*
G75*
G02*
X62460000Y108480000I0J-70000D01*
G01*
X62460000Y107920000D01*
G75*
G02*
X62390000Y107850000I-70000J0D01*
G01*
G37*
G36*
G01*
X62390000Y109450000D02*
X61610000Y109450000D01*
G75*
G02*
X61540000Y109520000I0J70000D01*
G01*
X61540000Y110080000D01*
G75*
G02*
X61610000Y110150000I70000J0D01*
G01*
X62390000Y110150000D01*
G75*
G02*
X62460000Y110080000I0J-70000D01*
G01*
X62460000Y109520000D01*
G75*
G02*
X62390000Y109450000I-70000J0D01*
G01*
G37*
G04 #@! TD*
G04 #@! TO.C,R57*
G36*
G01*
X91325000Y120144999D02*
X90075000Y120144999D01*
G75*
G02*
X89975000Y120244999I0J100000D01*
G01*
X89975000Y121044999D01*
G75*
G02*
X90075000Y121144999I100000J0D01*
G01*
X91325000Y121144999D01*
G75*
G02*
X91425000Y121044999I0J-100000D01*
G01*
X91425000Y120244999D01*
G75*
G02*
X91325000Y120144999I-100000J0D01*
G01*
G37*
G36*
G01*
X91325000Y122045021D02*
X90075000Y122045021D01*
G75*
G02*
X89975000Y122145021I0J100000D01*
G01*
X89975000Y122945021D01*
G75*
G02*
X90075000Y123045021I100000J0D01*
G01*
X91325000Y123045021D01*
G75*
G02*
X91425000Y122945021I0J-100000D01*
G01*
X91425000Y122145021D01*
G75*
G02*
X91325000Y122045021I-100000J0D01*
G01*
G37*
G04 #@! TD*
D10*
G04 #@! TO.C,Q3*
X141574999Y92225000D03*
X146424999Y97775000D03*
X141574999Y97775000D03*
X146424999Y92225000D03*
D11*
X153149999Y92460000D03*
X153149999Y97540000D03*
G04 #@! TD*
G04 #@! TO.C,R64*
G36*
G01*
X153535000Y112850000D02*
X154315000Y112850000D01*
G75*
G02*
X154385000Y112780000I0J-70000D01*
G01*
X154385000Y112220000D01*
G75*
G02*
X154315000Y112150000I-70000J0D01*
G01*
X153535000Y112150000D01*
G75*
G02*
X153465000Y112220000I0J70000D01*
G01*
X153465000Y112780000D01*
G75*
G02*
X153535000Y112850000I70000J0D01*
G01*
G37*
G36*
G01*
X153535000Y111250000D02*
X154315000Y111250000D01*
G75*
G02*
X154385000Y111180000I0J-70000D01*
G01*
X154385000Y110620000D01*
G75*
G02*
X154315000Y110550000I-70000J0D01*
G01*
X153535000Y110550000D01*
G75*
G02*
X153465000Y110620000I0J70000D01*
G01*
X153465000Y111180000D01*
G75*
G02*
X153535000Y111250000I70000J0D01*
G01*
G37*
G04 #@! TD*
D18*
G04 #@! TO.C,M11*
X114387503Y87393187D03*
X75692505Y87937491D03*
X99512501Y83987476D03*
X75692500Y86037490D03*
X112687486Y89395164D03*
G04 #@! TD*
G04 #@! TO.C,R33*
G36*
G01*
X75125000Y116249999D02*
X73875000Y116249999D01*
G75*
G02*
X73775000Y116349999I0J100000D01*
G01*
X73775000Y117149999D01*
G75*
G02*
X73875000Y117249999I100000J0D01*
G01*
X75125000Y117249999D01*
G75*
G02*
X75225000Y117149999I0J-100000D01*
G01*
X75225000Y116349999D01*
G75*
G02*
X75125000Y116249999I-100000J0D01*
G01*
G37*
G36*
G01*
X75125000Y118150021D02*
X73875000Y118150021D01*
G75*
G02*
X73775000Y118250021I0J100000D01*
G01*
X73775000Y119050021D01*
G75*
G02*
X73875000Y119150021I100000J0D01*
G01*
X75125000Y119150021D01*
G75*
G02*
X75225000Y119050021I0J-100000D01*
G01*
X75225000Y118250021D01*
G75*
G02*
X75125000Y118150021I-100000J0D01*
G01*
G37*
G04 #@! TD*
G04 #@! TO.C,M10*
X62891015Y76137887D03*
X62976216Y81640452D03*
X72216020Y83062887D03*
G36*
G01*
X71716011Y86062884D02*
X71716011Y86062884D01*
X71716011Y86062884D01*
X71716011Y86062884D01*
X71716011Y86062884D01*
G37*
G04 #@! TD*
G04 #@! TO.C,R23*
G36*
G01*
X75125000Y109349999D02*
X73875000Y109349999D01*
G75*
G02*
X73775000Y109449999I0J100000D01*
G01*
X73775000Y110249999D01*
G75*
G02*
X73875000Y110349999I100000J0D01*
G01*
X75125000Y110349999D01*
G75*
G02*
X75225000Y110249999I0J-100000D01*
G01*
X75225000Y109449999D01*
G75*
G02*
X75125000Y109349999I-100000J0D01*
G01*
G37*
G36*
G01*
X75125000Y111250021D02*
X73875000Y111250021D01*
G75*
G02*
X73775000Y111350021I0J100000D01*
G01*
X73775000Y112150021D01*
G75*
G02*
X73875000Y112250021I100000J0D01*
G01*
X75125000Y112250021D01*
G75*
G02*
X75225000Y112150021I0J-100000D01*
G01*
X75225000Y111350021D01*
G75*
G02*
X75125000Y111250021I-100000J0D01*
G01*
G37*
G04 #@! TD*
G04 #@! TO.C,M4*
X85537499Y9934844D03*
X78557501Y8659810D03*
X77787507Y23484827D03*
G04 #@! TD*
G04 #@! TO.C,R7*
G36*
G01*
X49400000Y78765000D02*
X49400000Y79435000D01*
G75*
G02*
X49465000Y79500000I65000J0D01*
G01*
X49985000Y79500000D01*
G75*
G02*
X50050000Y79435000I0J-65000D01*
G01*
X50050000Y78765000D01*
G75*
G02*
X49985000Y78700000I-65000J0D01*
G01*
X49465000Y78700000D01*
G75*
G02*
X49400000Y78765000I0J65000D01*
G01*
G37*
G36*
G01*
X50375000Y78745000D02*
X50375000Y79455000D01*
G75*
G02*
X50420000Y79500000I45000J0D01*
G01*
X50780000Y79500000D01*
G75*
G02*
X50825000Y79455000I0J-45000D01*
G01*
X50825000Y78745000D01*
G75*
G02*
X50780000Y78700000I-45000J0D01*
G01*
X50420000Y78700000D01*
G75*
G02*
X50375000Y78745000I0J45000D01*
G01*
G37*
G36*
G01*
X51175000Y78745000D02*
X51175000Y79455000D01*
G75*
G02*
X51220000Y79500000I45000J0D01*
G01*
X51580000Y79500000D01*
G75*
G02*
X51625000Y79455000I0J-45000D01*
G01*
X51625000Y78745000D01*
G75*
G02*
X51580000Y78700000I-45000J0D01*
G01*
X51220000Y78700000D01*
G75*
G02*
X51175000Y78745000I0J45000D01*
G01*
G37*
G36*
G01*
X51950000Y78765000D02*
X51950000Y79435000D01*
G75*
G02*
X52015000Y79500000I65000J0D01*
G01*
X52535000Y79500000D01*
G75*
G02*
X52600000Y79435000I0J-65000D01*
G01*
X52600000Y78765000D01*
G75*
G02*
X52535000Y78700000I-65000J0D01*
G01*
X52015000Y78700000D01*
G75*
G02*
X51950000Y78765000I0J65000D01*
G01*
G37*
G36*
G01*
X51950000Y80565000D02*
X51950000Y81235000D01*
G75*
G02*
X52015000Y81300000I65000J0D01*
G01*
X52535000Y81300000D01*
G75*
G02*
X52600000Y81235000I0J-65000D01*
G01*
X52600000Y80565000D01*
G75*
G02*
X52535000Y80500000I-65000J0D01*
G01*
X52015000Y80500000D01*
G75*
G02*
X51950000Y80565000I0J65000D01*
G01*
G37*
G36*
G01*
X51175000Y80545000D02*
X51175000Y81255000D01*
G75*
G02*
X51220000Y81300000I45000J0D01*
G01*
X51580000Y81300000D01*
G75*
G02*
X51625000Y81255000I0J-45000D01*
G01*
X51625000Y80545000D01*
G75*
G02*
X51580000Y80500000I-45000J0D01*
G01*
X51220000Y80500000D01*
G75*
G02*
X51175000Y80545000I0J45000D01*
G01*
G37*
G36*
G01*
X50375000Y80545000D02*
X50375000Y81255000D01*
G75*
G02*
X50420000Y81300000I45000J0D01*
G01*
X50780000Y81300000D01*
G75*
G02*
X50825000Y81255000I0J-45000D01*
G01*
X50825000Y80545000D01*
G75*
G02*
X50780000Y80500000I-45000J0D01*
G01*
X50420000Y80500000D01*
G75*
G02*
X50375000Y80545000I0J45000D01*
G01*
G37*
G36*
G01*
X49400000Y80565000D02*
X49400000Y81235000D01*
G75*
G02*
X49465000Y81300000I65000J0D01*
G01*
X49985000Y81300000D01*
G75*
G02*
X50050000Y81235000I0J-65000D01*
G01*
X50050000Y80565000D01*
G75*
G02*
X49985000Y80500000I-65000J0D01*
G01*
X49465000Y80500000D01*
G75*
G02*
X49400000Y80565000I0J65000D01*
G01*
G37*
G04 #@! TD*
D12*
G04 #@! TO.C,D31*
X40939195Y105030049D03*
X40939195Y108330049D03*
G04 #@! TD*
G04 #@! TO.C,C11*
G36*
G01*
X74840000Y98075000D02*
X74160000Y98075000D01*
G75*
G02*
X74075000Y98160000I0J85000D01*
G01*
X74075000Y98840000D01*
G75*
G02*
X74160000Y98925000I85000J0D01*
G01*
X74840000Y98925000D01*
G75*
G02*
X74925000Y98840000I0J-85000D01*
G01*
X74925000Y98160000D01*
G75*
G02*
X74840000Y98075000I-85000J0D01*
G01*
G37*
G36*
G01*
X74840000Y99655002D02*
X74160000Y99655002D01*
G75*
G02*
X74075000Y99740002I0J85000D01*
G01*
X74075000Y100420002D01*
G75*
G02*
X74160000Y100505002I85000J0D01*
G01*
X74840000Y100505002D01*
G75*
G02*
X74925000Y100420002I0J-85000D01*
G01*
X74925000Y99740002D01*
G75*
G02*
X74840000Y99655002I-85000J0D01*
G01*
G37*
G04 #@! TD*
G04 #@! TO.C,R34*
G36*
G01*
X72125000Y116249999D02*
X70875000Y116249999D01*
G75*
G02*
X70775000Y116349999I0J100000D01*
G01*
X70775000Y117149999D01*
G75*
G02*
X70875000Y117249999I100000J0D01*
G01*
X72125000Y117249999D01*
G75*
G02*
X72225000Y117149999I0J-100000D01*
G01*
X72225000Y116349999D01*
G75*
G02*
X72125000Y116249999I-100000J0D01*
G01*
G37*
G36*
G01*
X72125000Y118150021D02*
X70875000Y118150021D01*
G75*
G02*
X70775000Y118250021I0J100000D01*
G01*
X70775000Y119050021D01*
G75*
G02*
X70875000Y119150021I100000J0D01*
G01*
X72125000Y119150021D01*
G75*
G02*
X72225000Y119050021I0J-100000D01*
G01*
X72225000Y118250021D01*
G75*
G02*
X72125000Y118150021I-100000J0D01*
G01*
G37*
G04 #@! TD*
G04 #@! TO.C,D12*
G36*
G01*
X27700000Y82660000D02*
X27700000Y83140000D01*
G75*
G02*
X27760000Y83200000I60000J0D01*
G01*
X28240000Y83200000D01*
G75*
G02*
X28300000Y83140000I0J-60000D01*
G01*
X28300000Y82660000D01*
G75*
G02*
X28240000Y82600000I-60000J0D01*
G01*
X27760000Y82600000D01*
G75*
G02*
X27700000Y82660000I0J60000D01*
G01*
G37*
G36*
G01*
X27700000Y84860000D02*
X27700000Y85340000D01*
G75*
G02*
X27760000Y85400000I60000J0D01*
G01*
X28240000Y85400000D01*
G75*
G02*
X28300000Y85340000I0J-60000D01*
G01*
X28300000Y84860000D01*
G75*
G02*
X28240000Y84800000I-60000J0D01*
G01*
X27760000Y84800000D01*
G75*
G02*
X27700000Y84860000I0J60000D01*
G01*
G37*
G04 #@! TD*
G04 #@! TO.C,C10*
G36*
G01*
X80025000Y103800000D02*
X80975000Y103800000D01*
G75*
G02*
X81225000Y103550000I0J-250000D01*
G01*
X81225000Y103050000D01*
G75*
G02*
X80975000Y102800000I-250000J0D01*
G01*
X80025000Y102800000D01*
G75*
G02*
X79775000Y103050000I0J250000D01*
G01*
X79775000Y103550000D01*
G75*
G02*
X80025000Y103800000I250000J0D01*
G01*
G37*
G36*
G01*
X80025000Y101900000D02*
X80975000Y101900000D01*
G75*
G02*
X81225000Y101650000I0J-250000D01*
G01*
X81225000Y101150000D01*
G75*
G02*
X80975000Y100900000I-250000J0D01*
G01*
X80025000Y100900000D01*
G75*
G02*
X79775000Y101150000I0J250000D01*
G01*
X79775000Y101650000D01*
G75*
G02*
X80025000Y101900000I250000J0D01*
G01*
G37*
G04 #@! TD*
G04 #@! TO.C,D20*
G36*
G01*
X47700000Y82660000D02*
X47700000Y83140000D01*
G75*
G02*
X47760000Y83200000I60000J0D01*
G01*
X48240000Y83200000D01*
G75*
G02*
X48300000Y83140000I0J-60000D01*
G01*
X48300000Y82660000D01*
G75*
G02*
X48240000Y82600000I-60000J0D01*
G01*
X47760000Y82600000D01*
G75*
G02*
X47700000Y82660000I0J60000D01*
G01*
G37*
G36*
G01*
X47700000Y84860000D02*
X47700000Y85340000D01*
G75*
G02*
X47760000Y85400000I60000J0D01*
G01*
X48240000Y85400000D01*
G75*
G02*
X48300000Y85340000I0J-60000D01*
G01*
X48300000Y84860000D01*
G75*
G02*
X48240000Y84800000I-60000J0D01*
G01*
X47760000Y84800000D01*
G75*
G02*
X47700000Y84860000I0J60000D01*
G01*
G37*
G04 #@! TD*
G04 #@! TO.C,R41*
G36*
G01*
X44625000Y113249999D02*
X43375000Y113249999D01*
G75*
G02*
X43275000Y113349999I0J100000D01*
G01*
X43275000Y114149999D01*
G75*
G02*
X43375000Y114249999I100000J0D01*
G01*
X44625000Y114249999D01*
G75*
G02*
X44725000Y114149999I0J-100000D01*
G01*
X44725000Y113349999D01*
G75*
G02*
X44625000Y113249999I-100000J0D01*
G01*
G37*
G36*
G01*
X44625000Y115150021D02*
X43375000Y115150021D01*
G75*
G02*
X43275000Y115250021I0J100000D01*
G01*
X43275000Y116050021D01*
G75*
G02*
X43375000Y116150021I100000J0D01*
G01*
X44625000Y116150021D01*
G75*
G02*
X44725000Y116050021I0J-100000D01*
G01*
X44725000Y115250021D01*
G75*
G02*
X44625000Y115150021I-100000J0D01*
G01*
G37*
G04 #@! TD*
G04 #@! TO.C,C14*
G36*
G01*
X54960000Y103505002D02*
X55640000Y103505002D01*
G75*
G02*
X55725000Y103420002I0J-85000D01*
G01*
X55725000Y102740002D01*
G75*
G02*
X55640000Y102655002I-85000J0D01*
G01*
X54960000Y102655002D01*
G75*
G02*
X54875000Y102740002I0J85000D01*
G01*
X54875000Y103420002D01*
G75*
G02*
X54960000Y103505002I85000J0D01*
G01*
G37*
G36*
G01*
X54960000Y101925000D02*
X55640000Y101925000D01*
G75*
G02*
X55725000Y101840000I0J-85000D01*
G01*
X55725000Y101160000D01*
G75*
G02*
X55640000Y101075000I-85000J0D01*
G01*
X54960000Y101075000D01*
G75*
G02*
X54875000Y101160000I0J85000D01*
G01*
X54875000Y101840000D01*
G75*
G02*
X54960000Y101925000I85000J0D01*
G01*
G37*
G04 #@! TD*
G04 #@! TO.C,R69*
G36*
G01*
X68405186Y110517996D02*
X69185186Y110517996D01*
G75*
G02*
X69255186Y110447996I0J-70000D01*
G01*
X69255186Y109887996D01*
G75*
G02*
X69185186Y109817996I-70000J0D01*
G01*
X68405186Y109817996D01*
G75*
G02*
X68335186Y109887996I0J70000D01*
G01*
X68335186Y110447996D01*
G75*
G02*
X68405186Y110517996I70000J0D01*
G01*
G37*
G36*
G01*
X68405186Y108917996D02*
X69185186Y108917996D01*
G75*
G02*
X69255186Y108847996I0J-70000D01*
G01*
X69255186Y108287996D01*
G75*
G02*
X69185186Y108217996I-70000J0D01*
G01*
X68405186Y108217996D01*
G75*
G02*
X68335186Y108287996I0J70000D01*
G01*
X68335186Y108847996D01*
G75*
G02*
X68405186Y108917996I70000J0D01*
G01*
G37*
G04 #@! TD*
G04 #@! TO.C,D15*
G36*
G01*
X33700000Y82660000D02*
X33700000Y83140000D01*
G75*
G02*
X33760000Y83200000I60000J0D01*
G01*
X34240000Y83200000D01*
G75*
G02*
X34300000Y83140000I0J-60000D01*
G01*
X34300000Y82660000D01*
G75*
G02*
X34240000Y82600000I-60000J0D01*
G01*
X33760000Y82600000D01*
G75*
G02*
X33700000Y82660000I0J60000D01*
G01*
G37*
G36*
G01*
X33700000Y84860000D02*
X33700000Y85340000D01*
G75*
G02*
X33760000Y85400000I60000J0D01*
G01*
X34240000Y85400000D01*
G75*
G02*
X34300000Y85340000I0J-60000D01*
G01*
X34300000Y84860000D01*
G75*
G02*
X34240000Y84800000I-60000J0D01*
G01*
X33760000Y84800000D01*
G75*
G02*
X33700000Y84860000I0J60000D01*
G01*
G37*
G04 #@! TD*
G04 #@! TO.C,D41*
G36*
G01*
X75761499Y98787497D02*
X76241499Y98787497D01*
G75*
G02*
X76301499Y98727497I0J-60000D01*
G01*
X76301499Y98247497D01*
G75*
G02*
X76241499Y98187497I-60000J0D01*
G01*
X75761499Y98187497D01*
G75*
G02*
X75701499Y98247497I0J60000D01*
G01*
X75701499Y98727497D01*
G75*
G02*
X75761499Y98787497I60000J0D01*
G01*
G37*
G36*
G01*
X77961499Y98787497D02*
X78441499Y98787497D01*
G75*
G02*
X78501499Y98727497I0J-60000D01*
G01*
X78501499Y98247497D01*
G75*
G02*
X78441499Y98187497I-60000J0D01*
G01*
X77961499Y98187497D01*
G75*
G02*
X77901499Y98247497I0J60000D01*
G01*
X77901499Y98727497D01*
G75*
G02*
X77961499Y98787497I60000J0D01*
G01*
G37*
G04 #@! TD*
G04 #@! TO.C,D43*
X27700000Y30050000D03*
X27700000Y26750000D03*
G04 #@! TD*
G04 #@! TO.C,C16*
G36*
G01*
X82975000Y97400000D02*
X82025000Y97400000D01*
G75*
G02*
X81775000Y97650000I0J250000D01*
G01*
X81775000Y98150000D01*
G75*
G02*
X82025000Y98400000I250000J0D01*
G01*
X82975000Y98400000D01*
G75*
G02*
X83225000Y98150000I0J-250000D01*
G01*
X83225000Y97650000D01*
G75*
G02*
X82975000Y97400000I-250000J0D01*
G01*
G37*
G36*
G01*
X82975000Y99300000D02*
X82025000Y99300000D01*
G75*
G02*
X81775000Y99550000I0J250000D01*
G01*
X81775000Y100050000D01*
G75*
G02*
X82025000Y100300000I250000J0D01*
G01*
X82975000Y100300000D01*
G75*
G02*
X83225000Y100050000I0J-250000D01*
G01*
X83225000Y99550000D01*
G75*
G02*
X82975000Y99300000I-250000J0D01*
G01*
G37*
G04 #@! TD*
G04 #@! TO.C,D33*
G36*
G01*
X38200000Y82660000D02*
X38200000Y83140000D01*
G75*
G02*
X38260000Y83200000I60000J0D01*
G01*
X38740000Y83200000D01*
G75*
G02*
X38800000Y83140000I0J-60000D01*
G01*
X38800000Y82660000D01*
G75*
G02*
X38740000Y82600000I-60000J0D01*
G01*
X38260000Y82600000D01*
G75*
G02*
X38200000Y82660000I0J60000D01*
G01*
G37*
G36*
G01*
X38200000Y84860000D02*
X38200000Y85340000D01*
G75*
G02*
X38260000Y85400000I60000J0D01*
G01*
X38740000Y85400000D01*
G75*
G02*
X38800000Y85340000I0J-60000D01*
G01*
X38800000Y84860000D01*
G75*
G02*
X38740000Y84800000I-60000J0D01*
G01*
X38260000Y84800000D01*
G75*
G02*
X38200000Y84860000I0J60000D01*
G01*
G37*
G04 #@! TD*
G04 #@! TO.C,R61*
G36*
G01*
X153685001Y23625001D02*
X154465001Y23625001D01*
G75*
G02*
X154535001Y23555001I0J-70000D01*
G01*
X154535001Y22995001D01*
G75*
G02*
X154465001Y22925001I-70000J0D01*
G01*
X153685001Y22925001D01*
G75*
G02*
X153615001Y22995001I0J70000D01*
G01*
X153615001Y23555001D01*
G75*
G02*
X153685001Y23625001I70000J0D01*
G01*
G37*
G36*
G01*
X153685001Y22025001D02*
X154465001Y22025001D01*
G75*
G02*
X154535001Y21955001I0J-70000D01*
G01*
X154535001Y21395001D01*
G75*
G02*
X154465001Y21325001I-70000J0D01*
G01*
X153685001Y21325001D01*
G75*
G02*
X153615001Y21395001I0J70000D01*
G01*
X153615001Y21955001D01*
G75*
G02*
X153685001Y22025001I70000J0D01*
G01*
G37*
G04 #@! TD*
G04 #@! TO.C,R71*
G36*
G01*
X100610000Y113650000D02*
X101390000Y113650000D01*
G75*
G02*
X101460000Y113580000I0J-70000D01*
G01*
X101460000Y113020000D01*
G75*
G02*
X101390000Y112950000I-70000J0D01*
G01*
X100610000Y112950000D01*
G75*
G02*
X100540000Y113020000I0J70000D01*
G01*
X100540000Y113580000D01*
G75*
G02*
X100610000Y113650000I70000J0D01*
G01*
G37*
G36*
G01*
X100610000Y112050000D02*
X101390000Y112050000D01*
G75*
G02*
X101460000Y111980000I0J-70000D01*
G01*
X101460000Y111420000D01*
G75*
G02*
X101390000Y111350000I-70000J0D01*
G01*
X100610000Y111350000D01*
G75*
G02*
X100540000Y111420000I0J70000D01*
G01*
X100540000Y111980000D01*
G75*
G02*
X100610000Y112050000I70000J0D01*
G01*
G37*
G04 #@! TD*
G04 #@! TO.C,D34*
G36*
G01*
X40200000Y82660000D02*
X40200000Y83140000D01*
G75*
G02*
X40260000Y83200000I60000J0D01*
G01*
X40740000Y83200000D01*
G75*
G02*
X40800000Y83140000I0J-60000D01*
G01*
X40800000Y82660000D01*
G75*
G02*
X40740000Y82600000I-60000J0D01*
G01*
X40260000Y82600000D01*
G75*
G02*
X40200000Y82660000I0J60000D01*
G01*
G37*
G36*
G01*
X40200000Y84860000D02*
X40200000Y85340000D01*
G75*
G02*
X40260000Y85400000I60000J0D01*
G01*
X40740000Y85400000D01*
G75*
G02*
X40800000Y85340000I0J-60000D01*
G01*
X40800000Y84860000D01*
G75*
G02*
X40740000Y84800000I-60000J0D01*
G01*
X40260000Y84800000D01*
G75*
G02*
X40200000Y84860000I0J60000D01*
G01*
G37*
G04 #@! TD*
G04 #@! TO.C,C18*
G36*
G01*
X80975000Y97400000D02*
X80025000Y97400000D01*
G75*
G02*
X79775000Y97650000I0J250000D01*
G01*
X79775000Y98150000D01*
G75*
G02*
X80025000Y98400000I250000J0D01*
G01*
X80975000Y98400000D01*
G75*
G02*
X81225000Y98150000I0J-250000D01*
G01*
X81225000Y97650000D01*
G75*
G02*
X80975000Y97400000I-250000J0D01*
G01*
G37*
G36*
G01*
X80975000Y99300000D02*
X80025000Y99300000D01*
G75*
G02*
X79775000Y99550000I0J250000D01*
G01*
X79775000Y100050000D01*
G75*
G02*
X80025000Y100300000I250000J0D01*
G01*
X80975000Y100300000D01*
G75*
G02*
X81225000Y100050000I0J-250000D01*
G01*
X81225000Y99550000D01*
G75*
G02*
X80975000Y99300000I-250000J0D01*
G01*
G37*
G04 #@! TD*
G04 #@! TO.C,U4*
G36*
G01*
X98700000Y21300000D02*
X98700000Y21100000D01*
G75*
G02*
X98600000Y21000000I-100000J0D01*
G01*
X98250000Y21000000D01*
G75*
G02*
X98150000Y21100000I0J100000D01*
G01*
X98150000Y21300000D01*
G75*
G02*
X98250000Y21400000I100000J0D01*
G01*
X98600000Y21400000D01*
G75*
G02*
X98700000Y21300000I0J-100000D01*
G01*
G37*
G36*
G01*
X98700000Y21900000D02*
X98700000Y21700000D01*
G75*
G02*
X98600000Y21600000I-100000J0D01*
G01*
X98250000Y21600000D01*
G75*
G02*
X98150000Y21700000I0J100000D01*
G01*
X98150000Y21900000D01*
G75*
G02*
X98250000Y22000000I100000J0D01*
G01*
X98600000Y22000000D01*
G75*
G02*
X98700000Y21900000I0J-100000D01*
G01*
G37*
G36*
G01*
X98300000Y22600000D02*
X98300000Y22250000D01*
G75*
G02*
X98200000Y22150000I-100000J0D01*
G01*
X98000000Y22150000D01*
G75*
G02*
X97900000Y22250000I0J100000D01*
G01*
X97900000Y22600000D01*
G75*
G02*
X98000000Y22700000I100000J0D01*
G01*
X98200000Y22700000D01*
G75*
G02*
X98300000Y22600000I0J-100000D01*
G01*
G37*
G36*
G01*
X97700000Y22600000D02*
X97700000Y22250000D01*
G75*
G02*
X97600000Y22150000I-100000J0D01*
G01*
X97400000Y22150000D01*
G75*
G02*
X97300000Y22250000I0J100000D01*
G01*
X97300000Y22600000D01*
G75*
G02*
X97400000Y22700000I100000J0D01*
G01*
X97600000Y22700000D01*
G75*
G02*
X97700000Y22600000I0J-100000D01*
G01*
G37*
G36*
G01*
X97100000Y22600000D02*
X97100000Y22250000D01*
G75*
G02*
X97000000Y22150000I-100000J0D01*
G01*
X96800000Y22150000D01*
G75*
G02*
X96700000Y22250000I0J100000D01*
G01*
X96700000Y22600000D01*
G75*
G02*
X96800000Y22700000I100000J0D01*
G01*
X97000000Y22700000D01*
G75*
G02*
X97100000Y22600000I0J-100000D01*
G01*
G37*
G36*
G01*
X96850000Y21900000D02*
X96850000Y21700000D01*
G75*
G02*
X96750000Y21600000I-100000J0D01*
G01*
X96400000Y21600000D01*
G75*
G02*
X96300000Y21700000I0J100000D01*
G01*
X96300000Y21900000D01*
G75*
G02*
X96400000Y22000000I100000J0D01*
G01*
X96750000Y22000000D01*
G75*
G02*
X96850000Y21900000I0J-100000D01*
G01*
G37*
G36*
G01*
X96850000Y21300000D02*
X96850000Y21100000D01*
G75*
G02*
X96750000Y21000000I-100000J0D01*
G01*
X96400000Y21000000D01*
G75*
G02*
X96300000Y21100000I0J100000D01*
G01*
X96300000Y21300000D01*
G75*
G02*
X96400000Y21400000I100000J0D01*
G01*
X96750000Y21400000D01*
G75*
G02*
X96850000Y21300000I0J-100000D01*
G01*
G37*
G36*
G01*
X97100000Y20750000D02*
X97100000Y20400000D01*
G75*
G02*
X97000000Y20300000I-100000J0D01*
G01*
X96800000Y20300000D01*
G75*
G02*
X96700000Y20400000I0J100000D01*
G01*
X96700000Y20750000D01*
G75*
G02*
X96800000Y20850000I100000J0D01*
G01*
X97000000Y20850000D01*
G75*
G02*
X97100000Y20750000I0J-100000D01*
G01*
G37*
G36*
G01*
X97700000Y20750000D02*
X97700000Y20400000D01*
G75*
G02*
X97600000Y20300000I-100000J0D01*
G01*
X97400000Y20300000D01*
G75*
G02*
X97300000Y20400000I0J100000D01*
G01*
X97300000Y20750000D01*
G75*
G02*
X97400000Y20850000I100000J0D01*
G01*
X97600000Y20850000D01*
G75*
G02*
X97700000Y20750000I0J-100000D01*
G01*
G37*
G36*
G01*
X98300000Y20750000D02*
X98300000Y20400000D01*
G75*
G02*
X98200000Y20300000I-100000J0D01*
G01*
X98000000Y20300000D01*
G75*
G02*
X97900000Y20400000I0J100000D01*
G01*
X97900000Y20750000D01*
G75*
G02*
X98000000Y20850000I100000J0D01*
G01*
X98200000Y20850000D01*
G75*
G02*
X98300000Y20750000I0J-100000D01*
G01*
G37*
G04 #@! TD*
G04 #@! TO.C,R3*
G36*
G01*
X88125000Y113249999D02*
X86875000Y113249999D01*
G75*
G02*
X86775000Y113349999I0J100000D01*
G01*
X86775000Y114149999D01*
G75*
G02*
X86875000Y114249999I100000J0D01*
G01*
X88125000Y114249999D01*
G75*
G02*
X88225000Y114149999I0J-100000D01*
G01*
X88225000Y113349999D01*
G75*
G02*
X88125000Y113249999I-100000J0D01*
G01*
G37*
G36*
G01*
X88125000Y115150021D02*
X86875000Y115150021D01*
G75*
G02*
X86775000Y115250021I0J100000D01*
G01*
X86775000Y116050021D01*
G75*
G02*
X86875000Y116150021I100000J0D01*
G01*
X88125000Y116150021D01*
G75*
G02*
X88225000Y116050021I0J-100000D01*
G01*
X88225000Y115250021D01*
G75*
G02*
X88125000Y115150021I-100000J0D01*
G01*
G37*
G04 #@! TD*
G04 #@! TO.C,D21*
G36*
G01*
X49700000Y82660000D02*
X49700000Y83140000D01*
G75*
G02*
X49760000Y83200000I60000J0D01*
G01*
X50240000Y83200000D01*
G75*
G02*
X50300000Y83140000I0J-60000D01*
G01*
X50300000Y82660000D01*
G75*
G02*
X50240000Y82600000I-60000J0D01*
G01*
X49760000Y82600000D01*
G75*
G02*
X49700000Y82660000I0J60000D01*
G01*
G37*
G36*
G01*
X49700000Y84860000D02*
X49700000Y85340000D01*
G75*
G02*
X49760000Y85400000I60000J0D01*
G01*
X50240000Y85400000D01*
G75*
G02*
X50300000Y85340000I0J-60000D01*
G01*
X50300000Y84860000D01*
G75*
G02*
X50240000Y84800000I-60000J0D01*
G01*
X49760000Y84800000D01*
G75*
G02*
X49700000Y84860000I0J60000D01*
G01*
G37*
G04 #@! TD*
G04 #@! TO.C,R6*
G36*
G01*
X29400000Y79265000D02*
X29400000Y79935000D01*
G75*
G02*
X29465000Y80000000I65000J0D01*
G01*
X29985000Y80000000D01*
G75*
G02*
X30050000Y79935000I0J-65000D01*
G01*
X30050000Y79265000D01*
G75*
G02*
X29985000Y79200000I-65000J0D01*
G01*
X29465000Y79200000D01*
G75*
G02*
X29400000Y79265000I0J65000D01*
G01*
G37*
G36*
G01*
X30375000Y79245000D02*
X30375000Y79955000D01*
G75*
G02*
X30420000Y80000000I45000J0D01*
G01*
X30780000Y80000000D01*
G75*
G02*
X30825000Y79955000I0J-45000D01*
G01*
X30825000Y79245000D01*
G75*
G02*
X30780000Y79200000I-45000J0D01*
G01*
X30420000Y79200000D01*
G75*
G02*
X30375000Y79245000I0J45000D01*
G01*
G37*
G36*
G01*
X31175000Y79245000D02*
X31175000Y79955000D01*
G75*
G02*
X31220000Y80000000I45000J0D01*
G01*
X31580000Y80000000D01*
G75*
G02*
X31625000Y79955000I0J-45000D01*
G01*
X31625000Y79245000D01*
G75*
G02*
X31580000Y79200000I-45000J0D01*
G01*
X31220000Y79200000D01*
G75*
G02*
X31175000Y79245000I0J45000D01*
G01*
G37*
G36*
G01*
X31950000Y79265000D02*
X31950000Y79935000D01*
G75*
G02*
X32015000Y80000000I65000J0D01*
G01*
X32535000Y80000000D01*
G75*
G02*
X32600000Y79935000I0J-65000D01*
G01*
X32600000Y79265000D01*
G75*
G02*
X32535000Y79200000I-65000J0D01*
G01*
X32015000Y79200000D01*
G75*
G02*
X31950000Y79265000I0J65000D01*
G01*
G37*
G36*
G01*
X31950000Y81065000D02*
X31950000Y81735000D01*
G75*
G02*
X32015000Y81800000I65000J0D01*
G01*
X32535000Y81800000D01*
G75*
G02*
X32600000Y81735000I0J-65000D01*
G01*
X32600000Y81065000D01*
G75*
G02*
X32535000Y81000000I-65000J0D01*
G01*
X32015000Y81000000D01*
G75*
G02*
X31950000Y81065000I0J65000D01*
G01*
G37*
G36*
G01*
X31175000Y81045000D02*
X31175000Y81755000D01*
G75*
G02*
X31220000Y81800000I45000J0D01*
G01*
X31580000Y81800000D01*
G75*
G02*
X31625000Y81755000I0J-45000D01*
G01*
X31625000Y81045000D01*
G75*
G02*
X31580000Y81000000I-45000J0D01*
G01*
X31220000Y81000000D01*
G75*
G02*
X31175000Y81045000I0J45000D01*
G01*
G37*
G36*
G01*
X30375000Y81045000D02*
X30375000Y81755000D01*
G75*
G02*
X30420000Y81800000I45000J0D01*
G01*
X30780000Y81800000D01*
G75*
G02*
X30825000Y81755000I0J-45000D01*
G01*
X30825000Y81045000D01*
G75*
G02*
X30780000Y81000000I-45000J0D01*
G01*
X30420000Y81000000D01*
G75*
G02*
X30375000Y81045000I0J45000D01*
G01*
G37*
G36*
G01*
X29400000Y81065000D02*
X29400000Y81735000D01*
G75*
G02*
X29465000Y81800000I65000J0D01*
G01*
X29985000Y81800000D01*
G75*
G02*
X30050000Y81735000I0J-65000D01*
G01*
X30050000Y81065000D01*
G75*
G02*
X29985000Y81000000I-65000J0D01*
G01*
X29465000Y81000000D01*
G75*
G02*
X29400000Y81065000I0J65000D01*
G01*
G37*
G04 #@! TD*
G04 #@! TO.C,C6*
G36*
G01*
X84025000Y103799999D02*
X84975000Y103799999D01*
G75*
G02*
X85225000Y103549999I0J-250000D01*
G01*
X85225000Y103049999D01*
G75*
G02*
X84975000Y102799999I-250000J0D01*
G01*
X84025000Y102799999D01*
G75*
G02*
X83775000Y103049999I0J250000D01*
G01*
X83775000Y103549999D01*
G75*
G02*
X84025000Y103799999I250000J0D01*
G01*
G37*
G36*
G01*
X84025000Y101899999D02*
X84975000Y101899999D01*
G75*
G02*
X85225000Y101649999I0J-250000D01*
G01*
X85225000Y101149999D01*
G75*
G02*
X84975000Y100899999I-250000J0D01*
G01*
X84025000Y100899999D01*
G75*
G02*
X83775000Y101149999I0J250000D01*
G01*
X83775000Y101649999D01*
G75*
G02*
X84025000Y101899999I250000J0D01*
G01*
G37*
G04 #@! TD*
G04 #@! TO.C,R13*
G36*
G01*
X111800020Y104610000D02*
X111800020Y105390000D01*
G75*
G02*
X111870020Y105460000I70000J0D01*
G01*
X112430020Y105460000D01*
G75*
G02*
X112500020Y105390000I0J-70000D01*
G01*
X112500020Y104610000D01*
G75*
G02*
X112430020Y104540000I-70000J0D01*
G01*
X111870020Y104540000D01*
G75*
G02*
X111800020Y104610000I0J70000D01*
G01*
G37*
G36*
G01*
X113400020Y104610000D02*
X113400020Y105390000D01*
G75*
G02*
X113470020Y105460000I70000J0D01*
G01*
X114030020Y105460000D01*
G75*
G02*
X114100020Y105390000I0J-70000D01*
G01*
X114100020Y104610000D01*
G75*
G02*
X114030020Y104540000I-70000J0D01*
G01*
X113470020Y104540000D01*
G75*
G02*
X113400020Y104610000I0J70000D01*
G01*
G37*
G04 #@! TD*
G04 #@! TO.C,C13*
G36*
G01*
X84975000Y97400000D02*
X84025000Y97400000D01*
G75*
G02*
X83775000Y97650000I0J250000D01*
G01*
X83775000Y98150000D01*
G75*
G02*
X84025000Y98400000I250000J0D01*
G01*
X84975000Y98400000D01*
G75*
G02*
X85225000Y98150000I0J-250000D01*
G01*
X85225000Y97650000D01*
G75*
G02*
X84975000Y97400000I-250000J0D01*
G01*
G37*
G36*
G01*
X84975000Y99300000D02*
X84025000Y99300000D01*
G75*
G02*
X83775000Y99550000I0J250000D01*
G01*
X83775000Y100050000D01*
G75*
G02*
X84025000Y100300000I250000J0D01*
G01*
X84975000Y100300000D01*
G75*
G02*
X85225000Y100050000I0J-250000D01*
G01*
X85225000Y99550000D01*
G75*
G02*
X84975000Y99300000I-250000J0D01*
G01*
G37*
G04 #@! TD*
D19*
G04 #@! TO.C,D42*
X33550000Y6500000D03*
X30250000Y6500000D03*
G04 #@! TD*
G04 #@! TO.C,R8*
G36*
G01*
X80125000Y116249999D02*
X78875000Y116249999D01*
G75*
G02*
X78775000Y116349999I0J100000D01*
G01*
X78775000Y117149999D01*
G75*
G02*
X78875000Y117249999I100000J0D01*
G01*
X80125000Y117249999D01*
G75*
G02*
X80225000Y117149999I0J-100000D01*
G01*
X80225000Y116349999D01*
G75*
G02*
X80125000Y116249999I-100000J0D01*
G01*
G37*
G36*
G01*
X80125000Y118150021D02*
X78875000Y118150021D01*
G75*
G02*
X78775000Y118250021I0J100000D01*
G01*
X78775000Y119050021D01*
G75*
G02*
X78875000Y119150021I100000J0D01*
G01*
X80125000Y119150021D01*
G75*
G02*
X80225000Y119050021I0J-100000D01*
G01*
X80225000Y118250021D01*
G75*
G02*
X80125000Y118150021I-100000J0D01*
G01*
G37*
G04 #@! TD*
D20*
G04 #@! TO.C,U1*
X91850000Y20662500D03*
X91350000Y20662500D03*
X90850000Y20662500D03*
X90350000Y20662500D03*
D21*
X90337500Y20150000D03*
X90337500Y19650000D03*
D20*
X90350000Y19137500D03*
X90850000Y19137500D03*
X91350000Y19137500D03*
X91850000Y19137500D03*
D21*
X91862500Y19650000D03*
X91862500Y20150000D03*
G04 #@! TD*
G04 #@! TO.C,R40*
G36*
G01*
X47125000Y113249999D02*
X45875000Y113249999D01*
G75*
G02*
X45775000Y113349999I0J100000D01*
G01*
X45775000Y114149999D01*
G75*
G02*
X45875000Y114249999I100000J0D01*
G01*
X47125000Y114249999D01*
G75*
G02*
X47225000Y114149999I0J-100000D01*
G01*
X47225000Y113349999D01*
G75*
G02*
X47125000Y113249999I-100000J0D01*
G01*
G37*
G36*
G01*
X47125000Y115150021D02*
X45875000Y115150021D01*
G75*
G02*
X45775000Y115250021I0J100000D01*
G01*
X45775000Y116050021D01*
G75*
G02*
X45875000Y116150021I100000J0D01*
G01*
X47125000Y116150021D01*
G75*
G02*
X47225000Y116050021I0J-100000D01*
G01*
X47225000Y115250021D01*
G75*
G02*
X47125000Y115150021I-100000J0D01*
G01*
G37*
G04 #@! TD*
G04 #@! TO.C,D8*
G36*
G01*
X31600002Y89299999D02*
X32500002Y89299999D01*
G75*
G02*
X32600002Y89199999I0J-100000D01*
G01*
X32600002Y88399999D01*
G75*
G02*
X32500002Y88299999I-100000J0D01*
G01*
X31600002Y88299999D01*
G75*
G02*
X31500002Y88399999I0J100000D01*
G01*
X31500002Y89199999D01*
G75*
G02*
X31600002Y89299999I100000J0D01*
G01*
G37*
G36*
G01*
X31600002Y87599999D02*
X32500002Y87599999D01*
G75*
G02*
X32600002Y87499999I0J-100000D01*
G01*
X32600002Y86699999D01*
G75*
G02*
X32500002Y86599999I-100000J0D01*
G01*
X31600002Y86599999D01*
G75*
G02*
X31500002Y86699999I0J100000D01*
G01*
X31500002Y87499999D01*
G75*
G02*
X31600002Y87599999I100000J0D01*
G01*
G37*
G04 #@! TD*
G04 #@! TO.C,R59*
G36*
G01*
X99125000Y118049999D02*
X97875000Y118049999D01*
G75*
G02*
X97775000Y118149999I0J100000D01*
G01*
X97775000Y118949999D01*
G75*
G02*
X97875000Y119049999I100000J0D01*
G01*
X99125000Y119049999D01*
G75*
G02*
X99225000Y118949999I0J-100000D01*
G01*
X99225000Y118149999D01*
G75*
G02*
X99125000Y118049999I-100000J0D01*
G01*
G37*
G36*
G01*
X99125000Y119950021D02*
X97875000Y119950021D01*
G75*
G02*
X97775000Y120050021I0J100000D01*
G01*
X97775000Y120850021D01*
G75*
G02*
X97875000Y120950021I100000J0D01*
G01*
X99125000Y120950021D01*
G75*
G02*
X99225000Y120850021I0J-100000D01*
G01*
X99225000Y120050021D01*
G75*
G02*
X99125000Y119950021I-100000J0D01*
G01*
G37*
G04 #@! TD*
G04 #@! TO.C,D23*
G36*
G01*
X53700000Y82660000D02*
X53700000Y83140000D01*
G75*
G02*
X53760000Y83200000I60000J0D01*
G01*
X54240000Y83200000D01*
G75*
G02*
X54300000Y83140000I0J-60000D01*
G01*
X54300000Y82660000D01*
G75*
G02*
X54240000Y82600000I-60000J0D01*
G01*
X53760000Y82600000D01*
G75*
G02*
X53700000Y82660000I0J60000D01*
G01*
G37*
G36*
G01*
X53700000Y84860000D02*
X53700000Y85340000D01*
G75*
G02*
X53760000Y85400000I60000J0D01*
G01*
X54240000Y85400000D01*
G75*
G02*
X54300000Y85340000I0J-60000D01*
G01*
X54300000Y84860000D01*
G75*
G02*
X54240000Y84800000I-60000J0D01*
G01*
X53760000Y84800000D01*
G75*
G02*
X53700000Y84860000I0J60000D01*
G01*
G37*
G04 #@! TD*
G04 #@! TO.C,D7*
G36*
G01*
X29600002Y89299999D02*
X30500002Y89299999D01*
G75*
G02*
X30600002Y89199999I0J-100000D01*
G01*
X30600002Y88399999D01*
G75*
G02*
X30500002Y88299999I-100000J0D01*
G01*
X29600002Y88299999D01*
G75*
G02*
X29500002Y88399999I0J100000D01*
G01*
X29500002Y89199999D01*
G75*
G02*
X29600002Y89299999I100000J0D01*
G01*
G37*
G36*
G01*
X29600002Y87599999D02*
X30500002Y87599999D01*
G75*
G02*
X30600002Y87499999I0J-100000D01*
G01*
X30600002Y86699999D01*
G75*
G02*
X30500002Y86599999I-100000J0D01*
G01*
X29600002Y86599999D01*
G75*
G02*
X29500002Y86699999I0J100000D01*
G01*
X29500002Y87499999D01*
G75*
G02*
X29600002Y87599999I100000J0D01*
G01*
G37*
G04 #@! TD*
G04 #@! TO.C,D39*
G36*
G01*
X82200001Y104600002D02*
X82200001Y105500002D01*
G75*
G02*
X82300001Y105600002I100000J0D01*
G01*
X83100001Y105600002D01*
G75*
G02*
X83200001Y105500002I0J-100000D01*
G01*
X83200001Y104600002D01*
G75*
G02*
X83100001Y104500002I-100000J0D01*
G01*
X82300001Y104500002D01*
G75*
G02*
X82200001Y104600002I0J100000D01*
G01*
G37*
G36*
G01*
X83900001Y104600002D02*
X83900001Y105500002D01*
G75*
G02*
X84000001Y105600002I100000J0D01*
G01*
X84800001Y105600002D01*
G75*
G02*
X84900001Y105500002I0J-100000D01*
G01*
X84900001Y104600002D01*
G75*
G02*
X84800001Y104500002I-100000J0D01*
G01*
X84000001Y104500002D01*
G75*
G02*
X83900001Y104600002I0J100000D01*
G01*
G37*
G04 #@! TD*
G04 #@! TO.C,R74*
G36*
G01*
X68350000Y106610000D02*
X68350000Y107390000D01*
G75*
G02*
X68420000Y107460000I70000J0D01*
G01*
X68980000Y107460000D01*
G75*
G02*
X69050000Y107390000I0J-70000D01*
G01*
X69050000Y106610000D01*
G75*
G02*
X68980000Y106540000I-70000J0D01*
G01*
X68420000Y106540000D01*
G75*
G02*
X68350000Y106610000I0J70000D01*
G01*
G37*
G36*
G01*
X69950000Y106610000D02*
X69950000Y107390000D01*
G75*
G02*
X70020000Y107460000I70000J0D01*
G01*
X70580000Y107460000D01*
G75*
G02*
X70650000Y107390000I0J-70000D01*
G01*
X70650000Y106610000D01*
G75*
G02*
X70580000Y106540000I-70000J0D01*
G01*
X70020000Y106540000D01*
G75*
G02*
X69950000Y106610000I0J70000D01*
G01*
G37*
G04 #@! TD*
D16*
G04 #@! TO.C,Q6*
X27750000Y24300000D03*
X27750000Y22000000D03*
X27750000Y19700000D03*
D17*
X34050000Y22000000D03*
G04 #@! TD*
G04 #@! TO.C,R65*
G36*
G01*
X154612501Y20200001D02*
X154612501Y17350001D01*
G75*
G02*
X154362501Y17100001I-250000J0D01*
G01*
X153637501Y17100001D01*
G75*
G02*
X153387501Y17350001I0J250000D01*
G01*
X153387501Y20200001D01*
G75*
G02*
X153637501Y20450001I250000J0D01*
G01*
X154362501Y20450001D01*
G75*
G02*
X154612501Y20200001I0J-250000D01*
G01*
G37*
G36*
G01*
X148687501Y20200001D02*
X148687501Y17350001D01*
G75*
G02*
X148437501Y17100001I-250000J0D01*
G01*
X147712501Y17100001D01*
G75*
G02*
X147462501Y17350001I0J250000D01*
G01*
X147462501Y20200001D01*
G75*
G02*
X147712501Y20450001I250000J0D01*
G01*
X148437501Y20450001D01*
G75*
G02*
X148687501Y20200001I0J-250000D01*
G01*
G37*
G04 #@! TD*
G04 #@! TO.C,R38*
G36*
G01*
X52125000Y120149999D02*
X50875000Y120149999D01*
G75*
G02*
X50775000Y120249999I0J100000D01*
G01*
X50775000Y121049999D01*
G75*
G02*
X50875000Y121149999I100000J0D01*
G01*
X52125000Y121149999D01*
G75*
G02*
X52225000Y121049999I0J-100000D01*
G01*
X52225000Y120249999D01*
G75*
G02*
X52125000Y120149999I-100000J0D01*
G01*
G37*
G36*
G01*
X52125000Y122050021D02*
X50875000Y122050021D01*
G75*
G02*
X50775000Y122150021I0J100000D01*
G01*
X50775000Y122950021D01*
G75*
G02*
X50875000Y123050021I100000J0D01*
G01*
X52125000Y123050021D01*
G75*
G02*
X52225000Y122950021I0J-100000D01*
G01*
X52225000Y122150021D01*
G75*
G02*
X52125000Y122050021I-100000J0D01*
G01*
G37*
G04 #@! TD*
G04 #@! TO.C,R48*
G36*
G01*
X62125000Y120149999D02*
X60875000Y120149999D01*
G75*
G02*
X60775000Y120249999I0J100000D01*
G01*
X60775000Y121049999D01*
G75*
G02*
X60875000Y121149999I100000J0D01*
G01*
X62125000Y121149999D01*
G75*
G02*
X62225000Y121049999I0J-100000D01*
G01*
X62225000Y120249999D01*
G75*
G02*
X62125000Y120149999I-100000J0D01*
G01*
G37*
G36*
G01*
X62125000Y122050021D02*
X60875000Y122050021D01*
G75*
G02*
X60775000Y122150021I0J100000D01*
G01*
X60775000Y122950021D01*
G75*
G02*
X60875000Y123050021I100000J0D01*
G01*
X62125000Y123050021D01*
G75*
G02*
X62225000Y122950021I0J-100000D01*
G01*
X62225000Y122150021D01*
G75*
G02*
X62125000Y122050021I-100000J0D01*
G01*
G37*
G04 #@! TD*
G04 #@! TO.C,R37*
G36*
G01*
X54625000Y116249999D02*
X53375000Y116249999D01*
G75*
G02*
X53275000Y116349999I0J100000D01*
G01*
X53275000Y117149999D01*
G75*
G02*
X53375000Y117249999I100000J0D01*
G01*
X54625000Y117249999D01*
G75*
G02*
X54725000Y117149999I0J-100000D01*
G01*
X54725000Y116349999D01*
G75*
G02*
X54625000Y116249999I-100000J0D01*
G01*
G37*
G36*
G01*
X54625000Y118150021D02*
X53375000Y118150021D01*
G75*
G02*
X53275000Y118250021I0J100000D01*
G01*
X53275000Y119050021D01*
G75*
G02*
X53375000Y119150021I100000J0D01*
G01*
X54625000Y119150021D01*
G75*
G02*
X54725000Y119050021I0J-100000D01*
G01*
X54725000Y118250021D01*
G75*
G02*
X54625000Y118150021I-100000J0D01*
G01*
G37*
G04 #@! TD*
G04 #@! TO.C,D35*
G36*
G01*
X42200000Y82660000D02*
X42200000Y83140000D01*
G75*
G02*
X42260000Y83200000I60000J0D01*
G01*
X42740000Y83200000D01*
G75*
G02*
X42800000Y83140000I0J-60000D01*
G01*
X42800000Y82660000D01*
G75*
G02*
X42740000Y82600000I-60000J0D01*
G01*
X42260000Y82600000D01*
G75*
G02*
X42200000Y82660000I0J60000D01*
G01*
G37*
G36*
G01*
X42200000Y84860000D02*
X42200000Y85340000D01*
G75*
G02*
X42260000Y85400000I60000J0D01*
G01*
X42740000Y85400000D01*
G75*
G02*
X42800000Y85340000I0J-60000D01*
G01*
X42800000Y84860000D01*
G75*
G02*
X42740000Y84800000I-60000J0D01*
G01*
X42260000Y84800000D01*
G75*
G02*
X42200000Y84860000I0J60000D01*
G01*
G37*
G04 #@! TD*
G04 #@! TO.C,R82*
G36*
G01*
X52590000Y95336934D02*
X51810000Y95336934D01*
G75*
G02*
X51740000Y95406934I0J70000D01*
G01*
X51740000Y95966934D01*
G75*
G02*
X51810000Y96036934I70000J0D01*
G01*
X52590000Y96036934D01*
G75*
G02*
X52660000Y95966934I0J-70000D01*
G01*
X52660000Y95406934D01*
G75*
G02*
X52590000Y95336934I-70000J0D01*
G01*
G37*
G36*
G01*
X52590000Y96936934D02*
X51810000Y96936934D01*
G75*
G02*
X51740000Y97006934I0J70000D01*
G01*
X51740000Y97566934D01*
G75*
G02*
X51810000Y97636934I70000J0D01*
G01*
X52590000Y97636934D01*
G75*
G02*
X52660000Y97566934I0J-70000D01*
G01*
X52660000Y97006934D01*
G75*
G02*
X52590000Y96936934I-70000J0D01*
G01*
G37*
G04 #@! TD*
G04 #@! TO.C,R9*
G36*
G01*
X67125000Y108849999D02*
X65875000Y108849999D01*
G75*
G02*
X65775000Y108949999I0J100000D01*
G01*
X65775000Y109749999D01*
G75*
G02*
X65875000Y109849999I100000J0D01*
G01*
X67125000Y109849999D01*
G75*
G02*
X67225000Y109749999I0J-100000D01*
G01*
X67225000Y108949999D01*
G75*
G02*
X67125000Y108849999I-100000J0D01*
G01*
G37*
G36*
G01*
X67125000Y110750021D02*
X65875000Y110750021D01*
G75*
G02*
X65775000Y110850021I0J100000D01*
G01*
X65775000Y111650021D01*
G75*
G02*
X65875000Y111750021I100000J0D01*
G01*
X67125000Y111750021D01*
G75*
G02*
X67225000Y111650021I0J-100000D01*
G01*
X67225000Y110850021D01*
G75*
G02*
X67125000Y110750021I-100000J0D01*
G01*
G37*
G04 #@! TD*
G04 #@! TO.C,R50*
G36*
G01*
X111800020Y99110000D02*
X111800020Y99890000D01*
G75*
G02*
X111870020Y99960000I70000J0D01*
G01*
X112430020Y99960000D01*
G75*
G02*
X112500020Y99890000I0J-70000D01*
G01*
X112500020Y99110000D01*
G75*
G02*
X112430020Y99040000I-70000J0D01*
G01*
X111870020Y99040000D01*
G75*
G02*
X111800020Y99110000I0J70000D01*
G01*
G37*
G36*
G01*
X113400020Y99110000D02*
X113400020Y99890000D01*
G75*
G02*
X113470020Y99960000I70000J0D01*
G01*
X114030020Y99960000D01*
G75*
G02*
X114100020Y99890000I0J-70000D01*
G01*
X114100020Y99110000D01*
G75*
G02*
X114030020Y99040000I-70000J0D01*
G01*
X113470020Y99040000D01*
G75*
G02*
X113400020Y99110000I0J70000D01*
G01*
G37*
G04 #@! TD*
G04 #@! TO.C,C15*
G36*
G01*
X53294998Y93950001D02*
X53294998Y94630001D01*
G75*
G02*
X53379998Y94715001I85000J0D01*
G01*
X54059998Y94715001D01*
G75*
G02*
X54144998Y94630001I0J-85000D01*
G01*
X54144998Y93950001D01*
G75*
G02*
X54059998Y93865001I-85000J0D01*
G01*
X53379998Y93865001D01*
G75*
G02*
X53294998Y93950001I0J85000D01*
G01*
G37*
G36*
G01*
X54875000Y93950001D02*
X54875000Y94630001D01*
G75*
G02*
X54960000Y94715001I85000J0D01*
G01*
X55640000Y94715001D01*
G75*
G02*
X55725000Y94630001I0J-85000D01*
G01*
X55725000Y93950001D01*
G75*
G02*
X55640000Y93865001I-85000J0D01*
G01*
X54960000Y93865001D01*
G75*
G02*
X54875000Y93950001I0J85000D01*
G01*
G37*
G04 #@! TD*
D12*
G04 #@! TO.C,D32*
X38439195Y105030049D03*
X38439195Y108330049D03*
G04 #@! TD*
D18*
G04 #@! TO.C,M6*
X115387500Y12043334D03*
G04 #@! TD*
G04 #@! TO.C,C1*
G36*
G01*
X69115001Y15240000D02*
X69115001Y14560000D01*
G75*
G02*
X69030001Y14475000I-85000J0D01*
G01*
X68350001Y14475000D01*
G75*
G02*
X68265001Y14560000I0J85000D01*
G01*
X68265001Y15240000D01*
G75*
G02*
X68350001Y15325000I85000J0D01*
G01*
X69030001Y15325000D01*
G75*
G02*
X69115001Y15240000I0J-85000D01*
G01*
G37*
G36*
G01*
X67534999Y15240000D02*
X67534999Y14560000D01*
G75*
G02*
X67449999Y14475000I-85000J0D01*
G01*
X66769999Y14475000D01*
G75*
G02*
X66684999Y14560000I0J85000D01*
G01*
X66684999Y15240000D01*
G75*
G02*
X66769999Y15325000I85000J0D01*
G01*
X67449999Y15325000D01*
G75*
G02*
X67534999Y15240000I0J-85000D01*
G01*
G37*
G04 #@! TD*
G04 #@! TO.C,D30*
G36*
G01*
X142700001Y14600002D02*
X142700001Y15500002D01*
G75*
G02*
X142800001Y15600002I100000J0D01*
G01*
X143600001Y15600002D01*
G75*
G02*
X143700001Y15500002I0J-100000D01*
G01*
X143700001Y14600002D01*
G75*
G02*
X143600001Y14500002I-100000J0D01*
G01*
X142800001Y14500002D01*
G75*
G02*
X142700001Y14600002I0J100000D01*
G01*
G37*
G36*
G01*
X144400001Y14600002D02*
X144400001Y15500002D01*
G75*
G02*
X144500001Y15600002I100000J0D01*
G01*
X145300001Y15600002D01*
G75*
G02*
X145400001Y15500002I0J-100000D01*
G01*
X145400001Y14600002D01*
G75*
G02*
X145300001Y14500002I-100000J0D01*
G01*
X144500001Y14500002D01*
G75*
G02*
X144400001Y14600002I0J100000D01*
G01*
G37*
G04 #@! TD*
G04 #@! TO.C,D37*
G36*
G01*
X40100002Y89299999D02*
X41000002Y89299999D01*
G75*
G02*
X41100002Y89199999I0J-100000D01*
G01*
X41100002Y88399999D01*
G75*
G02*
X41000002Y88299999I-100000J0D01*
G01*
X40100002Y88299999D01*
G75*
G02*
X40000002Y88399999I0J100000D01*
G01*
X40000002Y89199999D01*
G75*
G02*
X40100002Y89299999I100000J0D01*
G01*
G37*
G36*
G01*
X40100002Y87599999D02*
X41000002Y87599999D01*
G75*
G02*
X41100002Y87499999I0J-100000D01*
G01*
X41100002Y86699999D01*
G75*
G02*
X41000002Y86599999I-100000J0D01*
G01*
X40100002Y86599999D01*
G75*
G02*
X40000002Y86699999I0J100000D01*
G01*
X40000002Y87499999D01*
G75*
G02*
X40100002Y87599999I100000J0D01*
G01*
G37*
G04 #@! TD*
G04 #@! TO.C,R46*
G36*
G01*
X69625000Y120149999D02*
X68375000Y120149999D01*
G75*
G02*
X68275000Y120249999I0J100000D01*
G01*
X68275000Y121049999D01*
G75*
G02*
X68375000Y121149999I100000J0D01*
G01*
X69625000Y121149999D01*
G75*
G02*
X69725000Y121049999I0J-100000D01*
G01*
X69725000Y120249999D01*
G75*
G02*
X69625000Y120149999I-100000J0D01*
G01*
G37*
G36*
G01*
X69625000Y122050021D02*
X68375000Y122050021D01*
G75*
G02*
X68275000Y122150021I0J100000D01*
G01*
X68275000Y122950021D01*
G75*
G02*
X68375000Y123050021I100000J0D01*
G01*
X69625000Y123050021D01*
G75*
G02*
X69725000Y122950021I0J-100000D01*
G01*
X69725000Y122150021D01*
G75*
G02*
X69625000Y122050021I-100000J0D01*
G01*
G37*
G04 #@! TD*
G04 #@! TO.C,R45*
G36*
G01*
X28125000Y116049999D02*
X26875000Y116049999D01*
G75*
G02*
X26775000Y116149999I0J100000D01*
G01*
X26775000Y116949999D01*
G75*
G02*
X26875000Y117049999I100000J0D01*
G01*
X28125000Y117049999D01*
G75*
G02*
X28225000Y116949999I0J-100000D01*
G01*
X28225000Y116149999D01*
G75*
G02*
X28125000Y116049999I-100000J0D01*
G01*
G37*
G36*
G01*
X28125000Y117950021D02*
X26875000Y117950021D01*
G75*
G02*
X26775000Y118050021I0J100000D01*
G01*
X26775000Y118850021D01*
G75*
G02*
X26875000Y118950021I100000J0D01*
G01*
X28125000Y118950021D01*
G75*
G02*
X28225000Y118850021I0J-100000D01*
G01*
X28225000Y118050021D01*
G75*
G02*
X28125000Y117950021I-100000J0D01*
G01*
G37*
G04 #@! TD*
G04 #@! TO.C,D3*
G36*
G01*
X142700001Y8600002D02*
X142700001Y9500002D01*
G75*
G02*
X142800001Y9600002I100000J0D01*
G01*
X143600001Y9600002D01*
G75*
G02*
X143700001Y9500002I0J-100000D01*
G01*
X143700001Y8600002D01*
G75*
G02*
X143600001Y8500002I-100000J0D01*
G01*
X142800001Y8500002D01*
G75*
G02*
X142700001Y8600002I0J100000D01*
G01*
G37*
G36*
G01*
X144400001Y8600002D02*
X144400001Y9500002D01*
G75*
G02*
X144500001Y9600002I100000J0D01*
G01*
X145300001Y9600002D01*
G75*
G02*
X145400001Y9500002I0J-100000D01*
G01*
X145400001Y8600002D01*
G75*
G02*
X145300001Y8500002I-100000J0D01*
G01*
X144500001Y8500002D01*
G75*
G02*
X144400001Y8600002I0J100000D01*
G01*
G37*
G04 #@! TD*
G04 #@! TO.C,D1*
G36*
G01*
X108650000Y105620000D02*
X108650000Y104380000D01*
G75*
G02*
X108520000Y104250000I-130000J0D01*
G01*
X107480000Y104250000D01*
G75*
G02*
X107350000Y104380000I0J130000D01*
G01*
X107350000Y105620000D01*
G75*
G02*
X107480000Y105750000I130000J0D01*
G01*
X108520000Y105750000D01*
G75*
G02*
X108650000Y105620000I0J-130000D01*
G01*
G37*
G36*
G01*
X110550021Y105620000D02*
X110550021Y104380000D01*
G75*
G02*
X110420021Y104250000I-130000J0D01*
G01*
X109380021Y104250000D01*
G75*
G02*
X109250021Y104380000I0J130000D01*
G01*
X109250021Y105620000D01*
G75*
G02*
X109380021Y105750000I130000J0D01*
G01*
X110420021Y105750000D01*
G75*
G02*
X110550021Y105620000I0J-130000D01*
G01*
G37*
G04 #@! TD*
G04 #@! TO.C,S2*
G36*
G01*
X65499999Y11580000D02*
X65499999Y13420000D01*
G75*
G02*
X65579999Y13500000I80000J0D01*
G01*
X66219999Y13500000D01*
G75*
G02*
X66299999Y13420000I0J-80000D01*
G01*
X66299999Y11580000D01*
G75*
G02*
X66219999Y11500000I-80000J0D01*
G01*
X65579999Y11500000D01*
G75*
G02*
X65499999Y11580000I0J80000D01*
G01*
G37*
G36*
G01*
X69700000Y11580000D02*
X69700000Y13420000D01*
G75*
G02*
X69780000Y13500000I80000J0D01*
G01*
X70420000Y13500000D01*
G75*
G02*
X70500000Y13420000I0J-80000D01*
G01*
X70500000Y11580000D01*
G75*
G02*
X70420000Y11500000I-80000J0D01*
G01*
X69780000Y11500000D01*
G75*
G02*
X69700000Y11580000I0J80000D01*
G01*
G37*
G04 #@! TD*
G04 #@! TO.C,C4*
G36*
G01*
X112849999Y15394998D02*
X112169999Y15394998D01*
G75*
G02*
X112084999Y15479998I0J85000D01*
G01*
X112084999Y16159998D01*
G75*
G02*
X112169999Y16244998I85000J0D01*
G01*
X112849999Y16244998D01*
G75*
G02*
X112934999Y16159998I0J-85000D01*
G01*
X112934999Y15479998D01*
G75*
G02*
X112849999Y15394998I-85000J0D01*
G01*
G37*
G36*
G01*
X112849999Y16975000D02*
X112169999Y16975000D01*
G75*
G02*
X112084999Y17060000I0J85000D01*
G01*
X112084999Y17740000D01*
G75*
G02*
X112169999Y17825000I85000J0D01*
G01*
X112849999Y17825000D01*
G75*
G02*
X112934999Y17740000I0J-85000D01*
G01*
X112934999Y17060000D01*
G75*
G02*
X112849999Y16975000I-85000J0D01*
G01*
G37*
G04 #@! TD*
G04 #@! TO.C,D22*
G36*
G01*
X51700000Y82660000D02*
X51700000Y83140000D01*
G75*
G02*
X51760000Y83200000I60000J0D01*
G01*
X52240000Y83200000D01*
G75*
G02*
X52300000Y83140000I0J-60000D01*
G01*
X52300000Y82660000D01*
G75*
G02*
X52240000Y82600000I-60000J0D01*
G01*
X51760000Y82600000D01*
G75*
G02*
X51700000Y82660000I0J60000D01*
G01*
G37*
G36*
G01*
X51700000Y84860000D02*
X51700000Y85340000D01*
G75*
G02*
X51760000Y85400000I60000J0D01*
G01*
X52240000Y85400000D01*
G75*
G02*
X52300000Y85340000I0J-60000D01*
G01*
X52300000Y84860000D01*
G75*
G02*
X52240000Y84800000I-60000J0D01*
G01*
X51760000Y84800000D01*
G75*
G02*
X51700000Y84860000I0J60000D01*
G01*
G37*
G04 #@! TD*
G04 #@! TO.C,C8*
G36*
G01*
X82025000Y103799999D02*
X82975000Y103799999D01*
G75*
G02*
X83225000Y103549999I0J-250000D01*
G01*
X83225000Y103049999D01*
G75*
G02*
X82975000Y102799999I-250000J0D01*
G01*
X82025000Y102799999D01*
G75*
G02*
X81775000Y103049999I0J250000D01*
G01*
X81775000Y103549999D01*
G75*
G02*
X82025000Y103799999I250000J0D01*
G01*
G37*
G36*
G01*
X82025000Y101899999D02*
X82975000Y101899999D01*
G75*
G02*
X83225000Y101649999I0J-250000D01*
G01*
X83225000Y101149999D01*
G75*
G02*
X82975000Y100899999I-250000J0D01*
G01*
X82025000Y100899999D01*
G75*
G02*
X81775000Y101149999I0J250000D01*
G01*
X81775000Y101649999D01*
G75*
G02*
X82025000Y101899999I250000J0D01*
G01*
G37*
G04 #@! TD*
G04 #@! TO.C,R54*
G36*
G01*
X33625000Y120144999D02*
X32375000Y120144999D01*
G75*
G02*
X32275000Y120244999I0J100000D01*
G01*
X32275000Y121044999D01*
G75*
G02*
X32375000Y121144999I100000J0D01*
G01*
X33625000Y121144999D01*
G75*
G02*
X33725000Y121044999I0J-100000D01*
G01*
X33725000Y120244999D01*
G75*
G02*
X33625000Y120144999I-100000J0D01*
G01*
G37*
G36*
G01*
X33625000Y122045021D02*
X32375000Y122045021D01*
G75*
G02*
X32275000Y122145021I0J100000D01*
G01*
X32275000Y122945021D01*
G75*
G02*
X32375000Y123045021I100000J0D01*
G01*
X33625000Y123045021D01*
G75*
G02*
X33725000Y122945021I0J-100000D01*
G01*
X33725000Y122145021D01*
G75*
G02*
X33625000Y122045021I-100000J0D01*
G01*
G37*
G04 #@! TD*
G04 #@! TO.C,R16*
G36*
G01*
X92234999Y105400000D02*
X91564999Y105400000D01*
G75*
G02*
X91499999Y105465000I0J65000D01*
G01*
X91499999Y105985000D01*
G75*
G02*
X91564999Y106050000I65000J0D01*
G01*
X92234999Y106050000D01*
G75*
G02*
X92299999Y105985000I0J-65000D01*
G01*
X92299999Y105465000D01*
G75*
G02*
X92234999Y105400000I-65000J0D01*
G01*
G37*
G36*
G01*
X92254999Y106375000D02*
X91544999Y106375000D01*
G75*
G02*
X91499999Y106420000I0J45000D01*
G01*
X91499999Y106780000D01*
G75*
G02*
X91544999Y106825000I45000J0D01*
G01*
X92254999Y106825000D01*
G75*
G02*
X92299999Y106780000I0J-45000D01*
G01*
X92299999Y106420000D01*
G75*
G02*
X92254999Y106375000I-45000J0D01*
G01*
G37*
G36*
G01*
X92254999Y107175000D02*
X91544999Y107175000D01*
G75*
G02*
X91499999Y107220000I0J45000D01*
G01*
X91499999Y107580000D01*
G75*
G02*
X91544999Y107625000I45000J0D01*
G01*
X92254999Y107625000D01*
G75*
G02*
X92299999Y107580000I0J-45000D01*
G01*
X92299999Y107220000D01*
G75*
G02*
X92254999Y107175000I-45000J0D01*
G01*
G37*
G36*
G01*
X92234999Y107950000D02*
X91564999Y107950000D01*
G75*
G02*
X91499999Y108015000I0J65000D01*
G01*
X91499999Y108535000D01*
G75*
G02*
X91564999Y108600000I65000J0D01*
G01*
X92234999Y108600000D01*
G75*
G02*
X92299999Y108535000I0J-65000D01*
G01*
X92299999Y108015000D01*
G75*
G02*
X92234999Y107950000I-65000J0D01*
G01*
G37*
G36*
G01*
X90434999Y107950000D02*
X89764999Y107950000D01*
G75*
G02*
X89699999Y108015000I0J65000D01*
G01*
X89699999Y108535000D01*
G75*
G02*
X89764999Y108600000I65000J0D01*
G01*
X90434999Y108600000D01*
G75*
G02*
X90499999Y108535000I0J-65000D01*
G01*
X90499999Y108015000D01*
G75*
G02*
X90434999Y107950000I-65000J0D01*
G01*
G37*
G36*
G01*
X90454999Y107175000D02*
X89744999Y107175000D01*
G75*
G02*
X89699999Y107220000I0J45000D01*
G01*
X89699999Y107580000D01*
G75*
G02*
X89744999Y107625000I45000J0D01*
G01*
X90454999Y107625000D01*
G75*
G02*
X90499999Y107580000I0J-45000D01*
G01*
X90499999Y107220000D01*
G75*
G02*
X90454999Y107175000I-45000J0D01*
G01*
G37*
G36*
G01*
X90454999Y106375000D02*
X89744999Y106375000D01*
G75*
G02*
X89699999Y106420000I0J45000D01*
G01*
X89699999Y106780000D01*
G75*
G02*
X89744999Y106825000I45000J0D01*
G01*
X90454999Y106825000D01*
G75*
G02*
X90499999Y106780000I0J-45000D01*
G01*
X90499999Y106420000D01*
G75*
G02*
X90454999Y106375000I-45000J0D01*
G01*
G37*
G36*
G01*
X90434999Y105400000D02*
X89764999Y105400000D01*
G75*
G02*
X89699999Y105465000I0J65000D01*
G01*
X89699999Y105985000D01*
G75*
G02*
X89764999Y106050000I65000J0D01*
G01*
X90434999Y106050000D01*
G75*
G02*
X90499999Y105985000I0J-65000D01*
G01*
X90499999Y105465000D01*
G75*
G02*
X90434999Y105400000I-65000J0D01*
G01*
G37*
G04 #@! TD*
G04 #@! TO.C,D2*
G36*
G01*
X108650000Y100120000D02*
X108650000Y98880000D01*
G75*
G02*
X108520000Y98750000I-130000J0D01*
G01*
X107480000Y98750000D01*
G75*
G02*
X107350000Y98880000I0J130000D01*
G01*
X107350000Y100120000D01*
G75*
G02*
X107480000Y100250000I130000J0D01*
G01*
X108520000Y100250000D01*
G75*
G02*
X108650000Y100120000I0J-130000D01*
G01*
G37*
G36*
G01*
X110550021Y100120000D02*
X110550021Y98880000D01*
G75*
G02*
X110420021Y98750000I-130000J0D01*
G01*
X109380021Y98750000D01*
G75*
G02*
X109250021Y98880000I0J130000D01*
G01*
X109250021Y100120000D01*
G75*
G02*
X109380021Y100250000I130000J0D01*
G01*
X110420021Y100250000D01*
G75*
G02*
X110550021Y100120000I0J-130000D01*
G01*
G37*
G04 #@! TD*
G04 #@! TO.C,R22*
G36*
G01*
X77625000Y113249999D02*
X76375000Y113249999D01*
G75*
G02*
X76275000Y113349999I0J100000D01*
G01*
X76275000Y114149999D01*
G75*
G02*
X76375000Y114249999I100000J0D01*
G01*
X77625000Y114249999D01*
G75*
G02*
X77725000Y114149999I0J-100000D01*
G01*
X77725000Y113349999D01*
G75*
G02*
X77625000Y113249999I-100000J0D01*
G01*
G37*
G36*
G01*
X77625000Y115150021D02*
X76375000Y115150021D01*
G75*
G02*
X76275000Y115250021I0J100000D01*
G01*
X76275000Y116050021D01*
G75*
G02*
X76375000Y116150021I100000J0D01*
G01*
X77625000Y116150021D01*
G75*
G02*
X77725000Y116050021I0J-100000D01*
G01*
X77725000Y115250021D01*
G75*
G02*
X77625000Y115150021I-100000J0D01*
G01*
G37*
G04 #@! TD*
G04 #@! TO.C,R63*
G36*
G01*
X153610000Y90350001D02*
X154390000Y90350001D01*
G75*
G02*
X154460000Y90280001I0J-70000D01*
G01*
X154460000Y89720001D01*
G75*
G02*
X154390000Y89650001I-70000J0D01*
G01*
X153610000Y89650001D01*
G75*
G02*
X153540000Y89720001I0J70000D01*
G01*
X153540000Y90280001D01*
G75*
G02*
X153610000Y90350001I70000J0D01*
G01*
G37*
G36*
G01*
X153610000Y88750001D02*
X154390000Y88750001D01*
G75*
G02*
X154460000Y88680001I0J-70000D01*
G01*
X154460000Y88120001D01*
G75*
G02*
X154390000Y88050001I-70000J0D01*
G01*
X153610000Y88050001D01*
G75*
G02*
X153540000Y88120001I0J70000D01*
G01*
X153540000Y88680001D01*
G75*
G02*
X153610000Y88750001I70000J0D01*
G01*
G37*
G04 #@! TD*
G04 #@! TO.C,R56*
G36*
G01*
X99125000Y125049999D02*
X97875000Y125049999D01*
G75*
G02*
X97775000Y125149999I0J100000D01*
G01*
X97775000Y125949999D01*
G75*
G02*
X97875000Y126049999I100000J0D01*
G01*
X99125000Y126049999D01*
G75*
G02*
X99225000Y125949999I0J-100000D01*
G01*
X99225000Y125149999D01*
G75*
G02*
X99125000Y125049999I-100000J0D01*
G01*
G37*
G36*
G01*
X99125000Y126950021D02*
X97875000Y126950021D01*
G75*
G02*
X97775000Y127050021I0J100000D01*
G01*
X97775000Y127850021D01*
G75*
G02*
X97875000Y127950021I100000J0D01*
G01*
X99125000Y127950021D01*
G75*
G02*
X99225000Y127850021I0J-100000D01*
G01*
X99225000Y127050021D01*
G75*
G02*
X99125000Y126950021I-100000J0D01*
G01*
G37*
G04 #@! TD*
G04 #@! TO.C,R60*
G36*
G01*
X93125000Y113144999D02*
X91875000Y113144999D01*
G75*
G02*
X91775000Y113244999I0J100000D01*
G01*
X91775000Y114044999D01*
G75*
G02*
X91875000Y114144999I100000J0D01*
G01*
X93125000Y114144999D01*
G75*
G02*
X93225000Y114044999I0J-100000D01*
G01*
X93225000Y113244999D01*
G75*
G02*
X93125000Y113144999I-100000J0D01*
G01*
G37*
G36*
G01*
X93125000Y115045021D02*
X91875000Y115045021D01*
G75*
G02*
X91775000Y115145021I0J100000D01*
G01*
X91775000Y115945021D01*
G75*
G02*
X91875000Y116045021I100000J0D01*
G01*
X93125000Y116045021D01*
G75*
G02*
X93225000Y115945021I0J-100000D01*
G01*
X93225000Y115145021D01*
G75*
G02*
X93125000Y115045021I-100000J0D01*
G01*
G37*
G04 #@! TD*
G04 #@! TO.C,M5*
X58528459Y65302494D03*
G04 #@! TD*
G04 #@! TO.C,D29*
G36*
G01*
X142700000Y12600002D02*
X142700000Y13500002D01*
G75*
G02*
X142800000Y13600002I100000J0D01*
G01*
X143600000Y13600002D01*
G75*
G02*
X143700000Y13500002I0J-100000D01*
G01*
X143700000Y12600002D01*
G75*
G02*
X143600000Y12500002I-100000J0D01*
G01*
X142800000Y12500002D01*
G75*
G02*
X142700000Y12600002I0J100000D01*
G01*
G37*
G36*
G01*
X144400000Y12600002D02*
X144400000Y13500002D01*
G75*
G02*
X144500000Y13600002I100000J0D01*
G01*
X145300000Y13600002D01*
G75*
G02*
X145400000Y13500002I0J-100000D01*
G01*
X145400000Y12600002D01*
G75*
G02*
X145300000Y12500002I-100000J0D01*
G01*
X144500000Y12500002D01*
G75*
G02*
X144400000Y12600002I0J100000D01*
G01*
G37*
G04 #@! TD*
G04 #@! TO.C,D17*
G36*
G01*
X49600002Y89299999D02*
X50500002Y89299999D01*
G75*
G02*
X50600002Y89199999I0J-100000D01*
G01*
X50600002Y88399999D01*
G75*
G02*
X50500002Y88299999I-100000J0D01*
G01*
X49600002Y88299999D01*
G75*
G02*
X49500002Y88399999I0J100000D01*
G01*
X49500002Y89199999D01*
G75*
G02*
X49600002Y89299999I100000J0D01*
G01*
G37*
G36*
G01*
X49600002Y87599999D02*
X50500002Y87599999D01*
G75*
G02*
X50600002Y87499999I0J-100000D01*
G01*
X50600002Y86699999D01*
G75*
G02*
X50500002Y86599999I-100000J0D01*
G01*
X49600002Y86599999D01*
G75*
G02*
X49500002Y86699999I0J100000D01*
G01*
X49500002Y87499999D01*
G75*
G02*
X49600002Y87599999I100000J0D01*
G01*
G37*
G04 #@! TD*
G04 #@! TO.C,R27*
G36*
G01*
X64625000Y120149999D02*
X63375000Y120149999D01*
G75*
G02*
X63275000Y120249999I0J100000D01*
G01*
X63275000Y121049999D01*
G75*
G02*
X63375000Y121149999I100000J0D01*
G01*
X64625000Y121149999D01*
G75*
G02*
X64725000Y121049999I0J-100000D01*
G01*
X64725000Y120249999D01*
G75*
G02*
X64625000Y120149999I-100000J0D01*
G01*
G37*
G36*
G01*
X64625000Y122050021D02*
X63375000Y122050021D01*
G75*
G02*
X63275000Y122150021I0J100000D01*
G01*
X63275000Y122950021D01*
G75*
G02*
X63375000Y123050021I100000J0D01*
G01*
X64625000Y123050021D01*
G75*
G02*
X64725000Y122950021I0J-100000D01*
G01*
X64725000Y122150021D01*
G75*
G02*
X64625000Y122050021I-100000J0D01*
G01*
G37*
G04 #@! TD*
G04 #@! TO.C,R80*
G36*
G01*
X86149999Y104660002D02*
X86149999Y105440002D01*
G75*
G02*
X86219999Y105510002I70000J0D01*
G01*
X86779999Y105510002D01*
G75*
G02*
X86849999Y105440002I0J-70000D01*
G01*
X86849999Y104660002D01*
G75*
G02*
X86779999Y104590002I-70000J0D01*
G01*
X86219999Y104590002D01*
G75*
G02*
X86149999Y104660002I0J70000D01*
G01*
G37*
G36*
G01*
X87749999Y104660002D02*
X87749999Y105440002D01*
G75*
G02*
X87819999Y105510002I70000J0D01*
G01*
X88379999Y105510002D01*
G75*
G02*
X88449999Y105440002I0J-70000D01*
G01*
X88449999Y104660002D01*
G75*
G02*
X88379999Y104590002I-70000J0D01*
G01*
X87819999Y104590002D01*
G75*
G02*
X87749999Y104660002I0J70000D01*
G01*
G37*
G04 #@! TD*
G04 #@! TO.C,M13*
X99643334Y12312500D03*
G04 #@! TD*
G04 #@! TO.C,R47*
G36*
G01*
X67125000Y120149999D02*
X65875000Y120149999D01*
G75*
G02*
X65775000Y120249999I0J100000D01*
G01*
X65775000Y121049999D01*
G75*
G02*
X65875000Y121149999I100000J0D01*
G01*
X67125000Y121149999D01*
G75*
G02*
X67225000Y121049999I0J-100000D01*
G01*
X67225000Y120249999D01*
G75*
G02*
X67125000Y120149999I-100000J0D01*
G01*
G37*
G36*
G01*
X67125000Y122050021D02*
X65875000Y122050021D01*
G75*
G02*
X65775000Y122150021I0J100000D01*
G01*
X65775000Y122950021D01*
G75*
G02*
X65875000Y123050021I100000J0D01*
G01*
X67125000Y123050021D01*
G75*
G02*
X67225000Y122950021I0J-100000D01*
G01*
X67225000Y122150021D01*
G75*
G02*
X67125000Y122050021I-100000J0D01*
G01*
G37*
G04 #@! TD*
M02*
