G75*
G70*
%OFA0B0*%
%FSLAX25Y25*%
%IPPOS*%
%LPD*%
%AMOC8*
5,1,8,0,0,1.08239X$1,22.5*
%
%AMM170*
21,1,0.015350,0.009840,-0.000000,-0.000000,180.000000*
21,1,0.000000,0.025200,-0.000000,-0.000000,180.000000*
1,1,0.015350,-0.000000,0.004920*
1,1,0.015350,-0.000000,0.004920*
1,1,0.015350,-0.000000,-0.004920*
1,1,0.015350,-0.000000,-0.004920*
%
%AMM171*
21,1,0.015350,0.009840,-0.000000,-0.000000,270.000000*
21,1,0.000000,0.025200,-0.000000,-0.000000,270.000000*
1,1,0.015350,-0.004920,-0.000000*
1,1,0.015350,-0.004920,-0.000000*
1,1,0.015350,0.004920,-0.000000*
1,1,0.015350,0.004920,-0.000000*
%
%AMM332*
21,1,0.015350,0.009840,-0.000000,0.000000,270.000000*
21,1,0.000000,0.025200,-0.000000,0.000000,270.000000*
1,1,0.015350,-0.004920,0.000000*
1,1,0.015350,-0.004920,0.000000*
1,1,0.015350,0.004920,0.000000*
1,1,0.015350,0.004920,0.000000*
%
%ADD103C,0.04451*%
%ADD116C,0.07087*%
%ADD119C,0.09843*%
%ADD130O,0.03937X0.05906*%
%ADD131C,0.02362*%
%ADD133C,0.06496*%
%ADD142C,0.13780*%
%ADD147O,0.06693X0.06693*%
%ADD151O,0.03701X0.02913*%
%ADD171O,0.02362X0.03150*%
%ADD177O,0.02913X0.02126*%
%ADD188O,0.04488X0.06457*%
%ADD198O,0.45433X0.04882*%
%ADD212O,0.01575X0.02362*%
%ADD233C,0.06457*%
%ADD236O,0.03150X0.02362*%
%ADD237O,0.02362X0.01575*%
%ADD248C,0.06000*%
%ADD263R,0.06457X0.06457*%
%ADD294O,0.02126X0.01339*%
%ADD30O,0.02913X0.03701*%
%ADD304O,0.01575X0.00787*%
%ADD338M170*%
%ADD339M171*%
%ADD40C,0.06693*%
%ADD42C,0.07874*%
%ADD44C,0.05906*%
%ADD48R,0.06693X0.06693*%
%ADD49R,0.14173X0.10236*%
%ADD50O,0.44882X0.04331*%
%ADD524M332*%
%ADD72O,0.02126X0.02913*%
%ADD77C,0.11811*%
%ADD89C,0.02913*%
X0000000Y0000000D02*
%LPD*%
G01*
D40*
X0411417Y0505906D03*
D248*
X0129921Y0416909D03*
X0129921Y0431909D03*
D40*
X0505906Y0470472D03*
X0446850Y0488189D03*
D48*
X0282992Y0025591D03*
D147*
X0292992Y0025591D03*
X0302992Y0025591D03*
X0312992Y0025591D03*
X0322992Y0025591D03*
X0332992Y0025591D03*
D248*
X0334646Y0486024D03*
X0334646Y0466732D03*
D40*
X0260630Y0086614D03*
X0482283Y0505906D03*
X0499921Y0291772D03*
X0499921Y0301772D03*
X0499921Y0311772D03*
X0499921Y0321772D03*
X0499921Y0331772D03*
X0509921Y0291772D03*
X0509921Y0301772D03*
X0509921Y0311772D03*
X0509921Y0321772D03*
X0509921Y0331772D03*
X0312992Y0486240D03*
D77*
X0145325Y0598819D03*
D119*
X0556742Y0582677D03*
D77*
X0370522Y0515748D03*
D119*
X0070522Y0515748D03*
D77*
X0499656Y0598819D03*
D44*
X0542963Y0572835D03*
X0529183Y0572835D03*
X0515404Y0572835D03*
X0501624Y0572835D03*
X0487844Y0572835D03*
X0476033Y0572835D03*
X0466191Y0572835D03*
X0456348Y0572835D03*
X0446506Y0572835D03*
X0436663Y0572835D03*
X0426821Y0572835D03*
X0416978Y0572835D03*
X0407136Y0572835D03*
X0397293Y0572835D03*
X0385482Y0572835D03*
X0542963Y0562992D03*
X0529183Y0562992D03*
X0515404Y0562992D03*
X0501624Y0562992D03*
X0487844Y0562992D03*
X0476033Y0562992D03*
X0466191Y0562992D03*
X0456348Y0562992D03*
X0446506Y0562992D03*
X0436663Y0562992D03*
X0426821Y0562992D03*
X0416978Y0562992D03*
X0407136Y0562992D03*
X0397293Y0562992D03*
X0385482Y0562992D03*
X0542963Y0539370D03*
X0529183Y0539370D03*
X0515404Y0539370D03*
X0501624Y0539370D03*
X0487844Y0539370D03*
X0476033Y0539370D03*
X0466191Y0539370D03*
X0456348Y0539370D03*
X0446506Y0539370D03*
X0436663Y0539370D03*
X0426821Y0539370D03*
X0416978Y0539370D03*
X0407136Y0539370D03*
X0397293Y0539370D03*
X0385482Y0539370D03*
X0542963Y0529528D03*
X0529183Y0529528D03*
X0515404Y0529528D03*
X0501624Y0529528D03*
X0487844Y0529528D03*
X0476033Y0529528D03*
X0466191Y0529528D03*
X0456348Y0529528D03*
X0446506Y0529528D03*
X0436663Y0529528D03*
X0426821Y0529528D03*
X0416978Y0529528D03*
X0407136Y0529528D03*
X0397293Y0529528D03*
X0385482Y0529528D03*
D116*
X0333514Y0572835D03*
X0313041Y0572835D03*
X0333514Y0551181D03*
X0313041Y0551181D03*
X0333514Y0529528D03*
X0313041Y0529528D03*
D44*
X0287057Y0572835D03*
X0275246Y0572835D03*
X0265404Y0572835D03*
X0255561Y0572835D03*
X0245719Y0572835D03*
X0235876Y0572835D03*
X0226033Y0572835D03*
X0216191Y0572835D03*
X0206348Y0572835D03*
X0196506Y0572835D03*
X0186663Y0572835D03*
X0176821Y0572835D03*
X0166978Y0572835D03*
X0157136Y0572835D03*
X0147293Y0572835D03*
X0137451Y0572835D03*
X0127608Y0572835D03*
X0117766Y0572835D03*
X0107923Y0572835D03*
X0098081Y0572835D03*
X0088238Y0572835D03*
X0078396Y0572835D03*
X0287057Y0562992D03*
X0275246Y0562992D03*
X0265404Y0562992D03*
X0255561Y0562992D03*
X0245719Y0562992D03*
X0235876Y0562992D03*
X0226033Y0562992D03*
X0216191Y0562992D03*
X0206348Y0562992D03*
X0196506Y0562992D03*
X0186663Y0562992D03*
X0176821Y0562992D03*
X0166978Y0562992D03*
X0157136Y0562992D03*
X0147293Y0562992D03*
X0137451Y0562992D03*
X0127608Y0562992D03*
X0117766Y0562992D03*
X0107923Y0562992D03*
X0098081Y0562992D03*
X0088238Y0562992D03*
X0078396Y0562992D03*
X0287057Y0539370D03*
X0275246Y0539370D03*
X0265404Y0539370D03*
X0255561Y0539370D03*
X0245719Y0539370D03*
X0235876Y0539370D03*
X0226033Y0539370D03*
X0216191Y0539370D03*
X0206348Y0539370D03*
X0196506Y0539370D03*
X0186663Y0539370D03*
X0176821Y0539370D03*
X0166978Y0539370D03*
X0157136Y0539370D03*
X0147293Y0539370D03*
X0137451Y0539370D03*
X0127608Y0539370D03*
X0117766Y0539370D03*
X0107923Y0539370D03*
X0098081Y0539370D03*
X0088238Y0539370D03*
X0078396Y0539370D03*
X0287057Y0529528D03*
X0275246Y0529528D03*
X0265404Y0529528D03*
X0255561Y0529528D03*
X0245719Y0529528D03*
X0235876Y0529528D03*
X0226033Y0529528D03*
X0216191Y0529528D03*
X0206348Y0529528D03*
X0196506Y0529528D03*
X0186663Y0529528D03*
X0176821Y0529528D03*
X0166978Y0529528D03*
X0157136Y0529528D03*
X0147293Y0529528D03*
X0137451Y0529528D03*
X0127608Y0529528D03*
X0117766Y0529528D03*
X0107923Y0529528D03*
X0098081Y0529528D03*
X0088238Y0529528D03*
X0078396Y0529528D03*
D248*
X0163386Y0438957D03*
X0163386Y0453957D03*
D40*
X0458661Y0505906D03*
D248*
X0139764Y0438169D03*
X0139764Y0453169D03*
X0251969Y0444075D03*
X0251969Y0459075D03*
D48*
X0174213Y0084951D03*
D40*
X0164370Y0084951D03*
X0164370Y0077077D03*
X0174213Y0077077D03*
D142*
X0192992Y0066407D03*
X0145591Y0066407D03*
D40*
X0375984Y0442913D03*
X0485433Y0041732D03*
X0458661Y0488189D03*
X0171260Y0293307D03*
X0292913Y0414961D03*
X0263780Y0269685D03*
D248*
X0183071Y0471240D03*
X0183071Y0486240D03*
X0222441Y0443878D03*
X0222441Y0458878D03*
D40*
X0291339Y0260630D03*
X0494094Y0488189D03*
D248*
X0271654Y0444075D03*
X0271654Y0459075D03*
X0212598Y0428720D03*
X0212598Y0443720D03*
D40*
X0482283Y0470472D03*
D248*
X0139764Y0411004D03*
X0139764Y0426004D03*
D40*
X0485433Y0030315D03*
X0499921Y0341772D03*
X0499921Y0351772D03*
X0499921Y0361772D03*
X0499921Y0371772D03*
X0499921Y0381772D03*
X0509921Y0341772D03*
X0509921Y0351772D03*
X0509921Y0361772D03*
X0509921Y0371772D03*
X0509921Y0381772D03*
X0356299Y0251969D03*
X0108268Y0413386D03*
X0435039Y0488189D03*
X0505906Y0488189D03*
X0505906Y0505906D03*
G36*
G01*
X0248622Y0070177D02*
X0249606Y0070177D01*
G75*
G02*
X0250098Y0069685I0000000J-000492D01*
G01*
X0250098Y0069685D01*
G75*
G02*
X0249606Y0069193I-000492J0000000D01*
G01*
X0248622Y0069193D01*
G75*
G02*
X0248130Y0069685I0000000J0000492D01*
G01*
X0248130Y0069685D01*
G75*
G02*
X0248622Y0070177I0000492J0000000D01*
G01*
G37*
G36*
G01*
X0248622Y0065846D02*
X0249606Y0065846D01*
G75*
G02*
X0250098Y0065354I0000000J-000492D01*
G01*
X0250098Y0065354D01*
G75*
G02*
X0249606Y0064862I-000492J0000000D01*
G01*
X0248622Y0064862D01*
G75*
G02*
X0248130Y0065354I0000000J0000492D01*
G01*
X0248130Y0065354D01*
G75*
G02*
X0248622Y0065846I0000492J0000000D01*
G01*
G37*
G36*
G01*
X0248622Y0061516D02*
X0249606Y0061516D01*
G75*
G02*
X0250098Y0061024I0000000J-000492D01*
G01*
X0250098Y0061024D01*
G75*
G02*
X0249606Y0060531I-000492J0000000D01*
G01*
X0248622Y0060531D01*
G75*
G02*
X0248130Y0061024I0000000J0000492D01*
G01*
X0248130Y0061024D01*
G75*
G02*
X0248622Y0061516I0000492J0000000D01*
G01*
G37*
G36*
G01*
X0248622Y0057185D02*
X0249606Y0057185D01*
G75*
G02*
X0250098Y0056693I0000000J-000492D01*
G01*
X0250098Y0056693D01*
G75*
G02*
X0249606Y0056201I-000492J0000000D01*
G01*
X0248622Y0056201D01*
G75*
G02*
X0248130Y0056693I0000000J0000492D01*
G01*
X0248130Y0056693D01*
G75*
G02*
X0248622Y0057185I0000492J0000000D01*
G01*
G37*
G36*
G01*
X0248622Y0052854D02*
X0249606Y0052854D01*
G75*
G02*
X0250098Y0052362I0000000J-000492D01*
G01*
X0250098Y0052362D01*
G75*
G02*
X0249606Y0051870I-000492J0000000D01*
G01*
X0248622Y0051870D01*
G75*
G02*
X0248130Y0052362I0000000J0000492D01*
G01*
X0248130Y0052362D01*
G75*
G02*
X0248622Y0052854I0000492J0000000D01*
G01*
G37*
G36*
G01*
X0248622Y0048524D02*
X0249606Y0048524D01*
G75*
G02*
X0250098Y0048032I0000000J-000492D01*
G01*
X0250098Y0048032D01*
G75*
G02*
X0249606Y0047539I-000492J0000000D01*
G01*
X0248622Y0047539D01*
G75*
G02*
X0248130Y0048032I0000000J0000492D01*
G01*
X0248130Y0048032D01*
G75*
G02*
X0248622Y0048524I0000492J0000000D01*
G01*
G37*
D248*
X0303150Y0471240D03*
X0303150Y0486240D03*
D40*
X0470472Y0505906D03*
D248*
X0399606Y0490531D03*
X0399606Y0505531D03*
X0222441Y0471240D03*
X0222441Y0486240D03*
D40*
X0139764Y0468504D03*
X0479921Y0241772D03*
X0479921Y0251772D03*
X0479921Y0261772D03*
X0479921Y0271772D03*
X0479921Y0281772D03*
X0489921Y0241772D03*
X0489921Y0251772D03*
X0489921Y0261772D03*
X0489921Y0271772D03*
X0489921Y0281772D03*
X0535433Y0078740D03*
X0232283Y0457087D03*
X0505906Y0452756D03*
X0120079Y0486220D03*
D248*
X0232283Y0427146D03*
X0232283Y0442146D03*
D40*
X0183071Y0293307D03*
D248*
X0108268Y0427539D03*
X0108268Y0442539D03*
X0192913Y0444075D03*
X0192913Y0459075D03*
X0129921Y0444075D03*
X0129921Y0459075D03*
X0344488Y0471220D03*
X0344488Y0486220D03*
X0183071Y0416909D03*
X0183071Y0431909D03*
D40*
X0163386Y0486220D03*
D248*
X0129921Y0389744D03*
X0129921Y0404744D03*
D40*
X0446850Y0470472D03*
X0517717Y0505906D03*
D248*
X0120079Y0427933D03*
X0120079Y0442933D03*
D40*
X0535433Y0061024D03*
X0108268Y0248031D03*
X0479921Y0391772D03*
X0479921Y0401772D03*
X0479921Y0411772D03*
X0479921Y0421772D03*
X0479921Y0431772D03*
X0489921Y0391772D03*
X0489921Y0401772D03*
X0489921Y0411772D03*
X0489921Y0421772D03*
X0489921Y0431772D03*
X0479921Y0291772D03*
X0479921Y0301772D03*
X0479921Y0311772D03*
X0479921Y0321772D03*
X0479921Y0331772D03*
X0489921Y0291772D03*
X0489921Y0301772D03*
X0489921Y0311772D03*
X0489921Y0321772D03*
X0489921Y0331772D03*
X0163386Y0469291D03*
D133*
X0533465Y0478661D03*
X0533465Y0458661D03*
D248*
X0242126Y0444075D03*
X0242126Y0459075D03*
D133*
X0533465Y0260157D03*
X0533465Y0240157D03*
D248*
X0120079Y0455098D03*
X0120079Y0470098D03*
X0171260Y0416909D03*
X0171260Y0431909D03*
X0173228Y0471240D03*
X0173228Y0486240D03*
X0324803Y0486220D03*
X0324803Y0466929D03*
D40*
X0435039Y0470472D03*
D248*
X0151181Y0455098D03*
X0151181Y0470098D03*
X0375984Y0457067D03*
X0375984Y0472067D03*
D40*
X0423228Y0488189D03*
G36*
G01*
X0414018Y0080160D02*
X0414018Y0080160D01*
G75*
G02*
X0414018Y0073479I-003341J-003341D01*
G01*
X0412348Y0071808D01*
G75*
G02*
X0405667Y0071808I-003341J0003341D01*
G01*
X0405667Y0071808D01*
G75*
G02*
X0405667Y0078490I0003341J0003341D01*
G01*
X0407337Y0080160D01*
G75*
G02*
X0414018Y0080160I0003341J-003341D01*
G01*
G37*
G36*
G01*
X0422680Y0072680D02*
X0422680Y0072680D01*
G75*
G02*
X0422680Y0065998I-003341J-003341D01*
G01*
X0421009Y0064328D01*
G75*
G02*
X0414328Y0064328I-003341J0003341D01*
G01*
X0414328Y0064328D01*
G75*
G02*
X0414328Y0071009I0003341J0003341D01*
G01*
X0415998Y0072680D01*
G75*
G02*
X0422680Y0072680I0003341J-003341D01*
G01*
G37*
G36*
G01*
X0422680Y0048270D02*
X0422680Y0048270D01*
G75*
G02*
X0422680Y0041589I-003341J-003341D01*
G01*
X0421009Y0039919D01*
G75*
G02*
X0414328Y0039919I-003341J0003341D01*
G01*
X0414328Y0039919D01*
G75*
G02*
X0414328Y0046600I0003341J0003341D01*
G01*
X0415998Y0048270D01*
G75*
G02*
X0422680Y0048270I0003341J-003341D01*
G01*
G37*
G36*
G01*
X0414018Y0058113D02*
X0414018Y0058113D01*
G75*
G02*
X0414018Y0051432I-003341J-003341D01*
G01*
X0412348Y0049761D01*
G75*
G02*
X0405667Y0049761I-003341J0003341D01*
G01*
X0405667Y0049761D01*
G75*
G02*
X0405667Y0056443I0003341J0003341D01*
G01*
X0407337Y0058113D01*
G75*
G02*
X0414018Y0058113I0003341J-003341D01*
G01*
G37*
G36*
G01*
X0422680Y0094727D02*
X0422680Y0094727D01*
G75*
G02*
X0422680Y0088046I-003341J-003341D01*
G01*
X0421009Y0086375D01*
G75*
G02*
X0414328Y0086375I-003341J0003341D01*
G01*
X0414328Y0086375D01*
G75*
G02*
X0414328Y0093057I0003341J0003341D01*
G01*
X0415998Y0094727D01*
G75*
G02*
X0422680Y0094727I0003341J-003341D01*
G01*
G37*
D248*
X0281496Y0428720D03*
X0281496Y0443720D03*
D40*
X0149606Y0441339D03*
X0399606Y0458661D03*
D133*
X0533465Y0128268D03*
X0533465Y0108268D03*
D40*
X0251969Y0251969D03*
X0511811Y0068898D03*
D48*
X0349311Y0059921D03*
D147*
X0359311Y0059921D03*
X0349311Y0049921D03*
X0359311Y0049921D03*
D40*
X0517717Y0470472D03*
X0139764Y0486220D03*
D248*
X0192913Y0471240D03*
X0192913Y0486240D03*
X0232283Y0471240D03*
X0232283Y0486240D03*
X0357087Y0471220D03*
X0357087Y0486220D03*
D131*
X0505657Y0044468D03*
X0507330Y0051693D03*
X0509496Y0043622D03*
X0512940Y0044468D03*
X0516287Y0044763D03*
X0517566Y0051693D03*
X0522684Y0046535D03*
X0525244Y0051693D03*
X0496995Y0028366D03*
X0498177Y0044409D03*
D133*
X0533465Y0384016D03*
X0533465Y0364016D03*
D131*
X0449117Y0331545D03*
X0344931Y0331545D03*
X0302018Y0331545D03*
X0400837Y0331545D03*
X0443652Y0346506D03*
D248*
X0293307Y0455886D03*
X0293307Y0470886D03*
D131*
X0252228Y0282039D03*
X0284610Y0287255D03*
X0284541Y0307856D03*
X0277130Y0309795D03*
X0306067Y0314224D03*
G36*
G01*
X0259293Y0118321D02*
X0260278Y0118321D01*
G75*
G02*
X0260770Y0117829I0000000J-000492D01*
G01*
X0260770Y0117829D01*
G75*
G02*
X0260278Y0117337I-000492J0000000D01*
G01*
X0259293Y0117337D01*
G75*
G02*
X0258801Y0117829I0000000J0000492D01*
G01*
X0258801Y0117829D01*
G75*
G02*
X0259293Y0118321I0000492J0000000D01*
G01*
G37*
G36*
G01*
X0260278Y0119936D02*
X0259293Y0119936D01*
G75*
G02*
X0258801Y0120428I0000000J0000492D01*
G01*
X0258801Y0120428D01*
G75*
G02*
X0259293Y0120920I0000492J0000000D01*
G01*
X0260278Y0120920D01*
G75*
G02*
X0260770Y0120428I0000000J-000492D01*
G01*
X0260770Y0120428D01*
G75*
G02*
X0260278Y0119936I-000492J0000000D01*
G01*
G37*
G36*
G01*
X0260278Y0122534D02*
X0259293Y0122534D01*
G75*
G02*
X0258801Y0123026I0000000J0000492D01*
G01*
X0258801Y0123026D01*
G75*
G02*
X0259293Y0123518I0000492J0000000D01*
G01*
X0260278Y0123518D01*
G75*
G02*
X0260770Y0123026I0000000J-000492D01*
G01*
X0260770Y0123026D01*
G75*
G02*
X0260278Y0122534I-000492J0000000D01*
G01*
G37*
G36*
G01*
X0260278Y0125132D02*
X0259293Y0125132D01*
G75*
G02*
X0258801Y0125625I0000000J0000492D01*
G01*
X0258801Y0125625D01*
G75*
G02*
X0259293Y0126117I0000492J0000000D01*
G01*
X0260278Y0126117D01*
G75*
G02*
X0260770Y0125625I0000000J-000492D01*
G01*
X0260770Y0125625D01*
G75*
G02*
X0260278Y0125132I-000492J0000000D01*
G01*
G37*
G36*
G01*
X0260278Y0127731D02*
X0259293Y0127731D01*
G75*
G02*
X0258801Y0128223I0000000J0000492D01*
G01*
X0258801Y0128223D01*
G75*
G02*
X0259293Y0128715I0000492J0000000D01*
G01*
X0260278Y0128715D01*
G75*
G02*
X0260770Y0128223I0000000J-000492D01*
G01*
X0260770Y0128223D01*
G75*
G02*
X0260278Y0127731I-000492J0000000D01*
G01*
G37*
G36*
G01*
X0260278Y0140723D02*
X0259293Y0140723D01*
G75*
G02*
X0258801Y0141215I0000000J0000492D01*
G01*
X0258801Y0141215D01*
G75*
G02*
X0259293Y0141707I0000492J0000000D01*
G01*
X0260278Y0141707D01*
G75*
G02*
X0260770Y0141215I0000000J-000492D01*
G01*
X0260770Y0141215D01*
G75*
G02*
X0260278Y0140723I-000492J0000000D01*
G01*
G37*
G36*
G01*
X0260278Y0143321D02*
X0259293Y0143321D01*
G75*
G02*
X0258801Y0143813I0000000J0000492D01*
G01*
X0258801Y0143813D01*
G75*
G02*
X0259293Y0144306I0000492J0000000D01*
G01*
X0260278Y0144306D01*
G75*
G02*
X0260770Y0143813I0000000J-000492D01*
G01*
X0260770Y0143813D01*
G75*
G02*
X0260278Y0143321I-000492J0000000D01*
G01*
G37*
G36*
G01*
X0260278Y0145920D02*
X0259293Y0145920D01*
G75*
G02*
X0258801Y0146412I0000000J0000492D01*
G01*
X0258801Y0146412D01*
G75*
G02*
X0259293Y0146904I0000492J0000000D01*
G01*
X0260278Y0146904D01*
G75*
G02*
X0260770Y0146412I0000000J-000492D01*
G01*
X0260770Y0146412D01*
G75*
G02*
X0260278Y0145920I-000492J0000000D01*
G01*
G37*
G36*
G01*
X0260278Y0148518D02*
X0259293Y0148518D01*
G75*
G02*
X0258801Y0149010I0000000J0000492D01*
G01*
X0258801Y0149010D01*
G75*
G02*
X0259293Y0149502I0000492J0000000D01*
G01*
X0260278Y0149502D01*
G75*
G02*
X0260770Y0149010I0000000J-000492D01*
G01*
X0260770Y0149010D01*
G75*
G02*
X0260278Y0148518I-000492J0000000D01*
G01*
G37*
G36*
G01*
X0260278Y0151117D02*
X0259293Y0151117D01*
G75*
G02*
X0258801Y0151609I0000000J0000492D01*
G01*
X0258801Y0151609D01*
G75*
G02*
X0259293Y0152101I0000492J0000000D01*
G01*
X0260278Y0152101D01*
G75*
G02*
X0260770Y0151609I0000000J-000492D01*
G01*
X0260770Y0151609D01*
G75*
G02*
X0260278Y0151117I-000492J0000000D01*
G01*
G37*
G36*
G01*
X0260278Y0153715D02*
X0259293Y0153715D01*
G75*
G02*
X0258801Y0154207I0000000J0000492D01*
G01*
X0258801Y0154207D01*
G75*
G02*
X0259293Y0154699I0000492J0000000D01*
G01*
X0260278Y0154699D01*
G75*
G02*
X0260770Y0154207I0000000J-000492D01*
G01*
X0260770Y0154207D01*
G75*
G02*
X0260278Y0153715I-000492J0000000D01*
G01*
G37*
G36*
G01*
X0260278Y0156313D02*
X0259293Y0156313D01*
G75*
G02*
X0258801Y0156806I0000000J0000492D01*
G01*
X0258801Y0156806D01*
G75*
G02*
X0259293Y0157298I0000492J0000000D01*
G01*
X0260278Y0157298D01*
G75*
G02*
X0260770Y0156806I0000000J-000492D01*
G01*
X0260770Y0156806D01*
G75*
G02*
X0260278Y0156313I-000492J0000000D01*
G01*
G37*
G36*
G01*
X0260278Y0158912D02*
X0259293Y0158912D01*
G75*
G02*
X0258801Y0159404I0000000J0000492D01*
G01*
X0258801Y0159404D01*
G75*
G02*
X0259293Y0159896I0000492J0000000D01*
G01*
X0260278Y0159896D01*
G75*
G02*
X0260770Y0159404I0000000J-000492D01*
G01*
X0260770Y0159404D01*
G75*
G02*
X0260278Y0158912I-000492J0000000D01*
G01*
G37*
G36*
G01*
X0260278Y0161510D02*
X0259293Y0161510D01*
G75*
G02*
X0258801Y0162002I0000000J0000492D01*
G01*
X0258801Y0162002D01*
G75*
G02*
X0259293Y0162495I0000492J0000000D01*
G01*
X0260278Y0162495D01*
G75*
G02*
X0260770Y0162002I0000000J-000492D01*
G01*
X0260770Y0162002D01*
G75*
G02*
X0260278Y0161510I-000492J0000000D01*
G01*
G37*
G36*
G01*
X0260278Y0164109D02*
X0259293Y0164109D01*
G75*
G02*
X0258801Y0164601I0000000J0000492D01*
G01*
X0258801Y0164601D01*
G75*
G02*
X0259293Y0165093I0000492J0000000D01*
G01*
X0260278Y0165093D01*
G75*
G02*
X0260770Y0164601I0000000J-000492D01*
G01*
X0260770Y0164601D01*
G75*
G02*
X0260278Y0164109I-000492J0000000D01*
G01*
G37*
G36*
G01*
X0260278Y0166707D02*
X0259293Y0166707D01*
G75*
G02*
X0258801Y0167199I0000000J0000492D01*
G01*
X0258801Y0167199D01*
G75*
G02*
X0259293Y0167691I0000492J0000000D01*
G01*
X0260278Y0167691D01*
G75*
G02*
X0260770Y0167199I0000000J-000492D01*
G01*
X0260770Y0167199D01*
G75*
G02*
X0260278Y0166707I-000492J0000000D01*
G01*
G37*
G36*
G01*
X0260278Y0169306D02*
X0259293Y0169306D01*
G75*
G02*
X0258801Y0169798I0000000J0000492D01*
G01*
X0258801Y0169798D01*
G75*
G02*
X0259293Y0170290I0000492J0000000D01*
G01*
X0260278Y0170290D01*
G75*
G02*
X0260770Y0169798I0000000J-000492D01*
G01*
X0260770Y0169798D01*
G75*
G02*
X0260278Y0169306I-000492J0000000D01*
G01*
G37*
G36*
G01*
X0260278Y0171904D02*
X0259293Y0171904D01*
G75*
G02*
X0258801Y0172396I0000000J0000492D01*
G01*
X0258801Y0172396D01*
G75*
G02*
X0259293Y0172888I0000492J0000000D01*
G01*
X0260278Y0172888D01*
G75*
G02*
X0260770Y0172396I0000000J-000492D01*
G01*
X0260770Y0172396D01*
G75*
G02*
X0260278Y0171904I-000492J0000000D01*
G01*
G37*
G36*
G01*
X0260278Y0174502D02*
X0259293Y0174502D01*
G75*
G02*
X0258801Y0174995I0000000J0000492D01*
G01*
X0258801Y0174995D01*
G75*
G02*
X0259293Y0175487I0000492J0000000D01*
G01*
X0260278Y0175487D01*
G75*
G02*
X0260770Y0174995I0000000J-000492D01*
G01*
X0260770Y0174995D01*
G75*
G02*
X0260278Y0174502I-000492J0000000D01*
G01*
G37*
G36*
G01*
X0260278Y0177101D02*
X0259293Y0177101D01*
G75*
G02*
X0258801Y0177593I0000000J0000492D01*
G01*
X0258801Y0177593D01*
G75*
G02*
X0259293Y0178085I0000492J0000000D01*
G01*
X0260278Y0178085D01*
G75*
G02*
X0260770Y0177593I0000000J-000492D01*
G01*
X0260770Y0177593D01*
G75*
G02*
X0260278Y0177101I-000492J0000000D01*
G01*
G37*
G36*
G01*
X0260278Y0179699D02*
X0259293Y0179699D01*
G75*
G02*
X0258801Y0180191I0000000J0000492D01*
G01*
X0258801Y0180191D01*
G75*
G02*
X0259293Y0180684I0000492J0000000D01*
G01*
X0260278Y0180684D01*
G75*
G02*
X0260770Y0180191I0000000J-000492D01*
G01*
X0260770Y0180191D01*
G75*
G02*
X0260278Y0179699I-000492J0000000D01*
G01*
G37*
G36*
G01*
X0260278Y0182298D02*
X0259293Y0182298D01*
G75*
G02*
X0258801Y0182790I0000000J0000492D01*
G01*
X0258801Y0182790D01*
G75*
G02*
X0259293Y0183282I0000492J0000000D01*
G01*
X0260278Y0183282D01*
G75*
G02*
X0260770Y0182790I0000000J-000492D01*
G01*
X0260770Y0182790D01*
G75*
G02*
X0260278Y0182298I-000492J0000000D01*
G01*
G37*
G36*
G01*
X0260278Y0184896D02*
X0259293Y0184896D01*
G75*
G02*
X0258801Y0185388I0000000J0000492D01*
G01*
X0258801Y0185388D01*
G75*
G02*
X0259293Y0185880I0000492J0000000D01*
G01*
X0260278Y0185880D01*
G75*
G02*
X0260770Y0185388I0000000J-000492D01*
G01*
X0260770Y0185388D01*
G75*
G02*
X0260278Y0184896I-000492J0000000D01*
G01*
G37*
G36*
G01*
X0260278Y0187495D02*
X0259293Y0187495D01*
G75*
G02*
X0258801Y0187987I0000000J0000492D01*
G01*
X0258801Y0187987D01*
G75*
G02*
X0259293Y0188479I0000492J0000000D01*
G01*
X0260278Y0188479D01*
G75*
G02*
X0260770Y0187987I0000000J-000492D01*
G01*
X0260770Y0187987D01*
G75*
G02*
X0260278Y0187495I-000492J0000000D01*
G01*
G37*
G36*
G01*
X0260278Y0190093D02*
X0259293Y0190093D01*
G75*
G02*
X0258801Y0190585I0000000J0000492D01*
G01*
X0258801Y0190585D01*
G75*
G02*
X0259293Y0191077I0000492J0000000D01*
G01*
X0260278Y0191077D01*
G75*
G02*
X0260770Y0190585I0000000J-000492D01*
G01*
X0260770Y0190585D01*
G75*
G02*
X0260278Y0190093I-000492J0000000D01*
G01*
G37*
G36*
G01*
X0260278Y0192691D02*
X0259293Y0192691D01*
G75*
G02*
X0258801Y0193184I0000000J0000492D01*
G01*
X0258801Y0193184D01*
G75*
G02*
X0259293Y0193676I0000492J0000000D01*
G01*
X0260278Y0193676D01*
G75*
G02*
X0260770Y0193184I0000000J-000492D01*
G01*
X0260770Y0193184D01*
G75*
G02*
X0260278Y0192691I-000492J0000000D01*
G01*
G37*
G36*
G01*
X0260278Y0195290D02*
X0259293Y0195290D01*
G75*
G02*
X0258801Y0195782I0000000J0000492D01*
G01*
X0258801Y0195782D01*
G75*
G02*
X0259293Y0196274I0000492J0000000D01*
G01*
X0260278Y0196274D01*
G75*
G02*
X0260770Y0195782I0000000J-000492D01*
G01*
X0260770Y0195782D01*
G75*
G02*
X0260278Y0195290I-000492J0000000D01*
G01*
G37*
G36*
G01*
X0260278Y0197888D02*
X0259293Y0197888D01*
G75*
G02*
X0258801Y0198380I0000000J0000492D01*
G01*
X0258801Y0198380D01*
G75*
G02*
X0259293Y0198873I0000492J0000000D01*
G01*
X0260278Y0198873D01*
G75*
G02*
X0260770Y0198380I0000000J-000492D01*
G01*
X0260770Y0198380D01*
G75*
G02*
X0260278Y0197888I-000492J0000000D01*
G01*
G37*
G36*
G01*
X0260278Y0200487D02*
X0259293Y0200487D01*
G75*
G02*
X0258801Y0200979I0000000J0000492D01*
G01*
X0258801Y0200979D01*
G75*
G02*
X0259293Y0201471I0000492J0000000D01*
G01*
X0260278Y0201471D01*
G75*
G02*
X0260770Y0200979I0000000J-000492D01*
G01*
X0260770Y0200979D01*
G75*
G02*
X0260278Y0200487I-000492J0000000D01*
G01*
G37*
G36*
G01*
X0260278Y0203085D02*
X0259293Y0203085D01*
G75*
G02*
X0258801Y0203577I0000000J0000492D01*
G01*
X0258801Y0203577D01*
G75*
G02*
X0259293Y0204069I0000492J0000000D01*
G01*
X0260278Y0204069D01*
G75*
G02*
X0260770Y0203577I0000000J-000492D01*
G01*
X0260770Y0203577D01*
G75*
G02*
X0260278Y0203085I-000492J0000000D01*
G01*
G37*
G36*
G01*
X0260278Y0205684D02*
X0259293Y0205684D01*
G75*
G02*
X0258801Y0206176I0000000J0000492D01*
G01*
X0258801Y0206176D01*
G75*
G02*
X0259293Y0206668I0000492J0000000D01*
G01*
X0260278Y0206668D01*
G75*
G02*
X0260770Y0206176I0000000J-000492D01*
G01*
X0260770Y0206176D01*
G75*
G02*
X0260278Y0205684I-000492J0000000D01*
G01*
G37*
G36*
G01*
X0260278Y0208282D02*
X0259293Y0208282D01*
G75*
G02*
X0258801Y0208774I0000000J0000492D01*
G01*
X0258801Y0208774D01*
G75*
G02*
X0259293Y0209266I0000492J0000000D01*
G01*
X0260278Y0209266D01*
G75*
G02*
X0260770Y0208774I0000000J-000492D01*
G01*
X0260770Y0208774D01*
G75*
G02*
X0260278Y0208282I-000492J0000000D01*
G01*
G37*
G36*
G01*
X0260278Y0210880D02*
X0259293Y0210880D01*
G75*
G02*
X0258801Y0211373I0000000J0000492D01*
G01*
X0258801Y0211373D01*
G75*
G02*
X0259293Y0211865I0000492J0000000D01*
G01*
X0260278Y0211865D01*
G75*
G02*
X0260770Y0211373I0000000J-000492D01*
G01*
X0260770Y0211373D01*
G75*
G02*
X0260278Y0210880I-000492J0000000D01*
G01*
G37*
G36*
G01*
X0260278Y0213479D02*
X0259293Y0213479D01*
G75*
G02*
X0258801Y0213971I0000000J0000492D01*
G01*
X0258801Y0213971D01*
G75*
G02*
X0259293Y0214463I0000492J0000000D01*
G01*
X0260278Y0214463D01*
G75*
G02*
X0260770Y0213971I0000000J-000492D01*
G01*
X0260770Y0213971D01*
G75*
G02*
X0260278Y0213479I-000492J0000000D01*
G01*
G37*
G36*
G01*
X0392943Y0101089D02*
X0392943Y0102073D01*
G75*
G02*
X0393435Y0102565I0000492J0000000D01*
G01*
X0393435Y0102565D01*
G75*
G02*
X0393927Y0102073I0000000J-000492D01*
G01*
X0393927Y0101089D01*
G75*
G02*
X0393435Y0100597I-000492J0000000D01*
G01*
X0393435Y0100597D01*
G75*
G02*
X0392943Y0101089I0000000J0000492D01*
G01*
G37*
G36*
G01*
X0388730Y0102073D02*
X0388730Y0101089D01*
G75*
G02*
X0388238Y0100597I-000492J0000000D01*
G01*
X0388238Y0100597D01*
G75*
G02*
X0387746Y0101089I0000000J0000492D01*
G01*
X0387746Y0102073D01*
G75*
G02*
X0388238Y0102565I0000492J0000000D01*
G01*
X0388238Y0102565D01*
G75*
G02*
X0388730Y0102073I0000000J-000492D01*
G01*
G37*
G36*
G01*
X0383533Y0102073D02*
X0383533Y0101089D01*
G75*
G02*
X0383041Y0100597I-000492J0000000D01*
G01*
X0383041Y0100597D01*
G75*
G02*
X0382549Y0101089I0000000J0000492D01*
G01*
X0382549Y0102073D01*
G75*
G02*
X0383041Y0102565I0000492J0000000D01*
G01*
X0383041Y0102565D01*
G75*
G02*
X0383533Y0102073I0000000J-000492D01*
G01*
G37*
G36*
G01*
X0380541Y0102073D02*
X0380541Y0101089D01*
G75*
G02*
X0380049Y0100597I-000492J0000000D01*
G01*
X0380049Y0100597D01*
G75*
G02*
X0379557Y0101089I0000000J0000492D01*
G01*
X0379557Y0102073D01*
G75*
G02*
X0380049Y0102565I0000492J0000000D01*
G01*
X0380049Y0102565D01*
G75*
G02*
X0380541Y0102073I0000000J-000492D01*
G01*
G37*
G36*
G01*
X0377923Y0102073D02*
X0377923Y0101089D01*
G75*
G02*
X0377431Y0100597I-000492J0000000D01*
G01*
X0377431Y0100597D01*
G75*
G02*
X0376939Y0101089I0000000J0000492D01*
G01*
X0376939Y0102073D01*
G75*
G02*
X0377431Y0102565I0000492J0000000D01*
G01*
X0377431Y0102565D01*
G75*
G02*
X0377923Y0102073I0000000J-000492D01*
G01*
G37*
G36*
G01*
X0375305Y0102073D02*
X0375305Y0101089D01*
G75*
G02*
X0374813Y0100597I-000492J0000000D01*
G01*
X0374813Y0100597D01*
G75*
G02*
X0374321Y0101089I0000000J0000492D01*
G01*
X0374321Y0102073D01*
G75*
G02*
X0374813Y0102565I0000492J0000000D01*
G01*
X0374813Y0102565D01*
G75*
G02*
X0375305Y0102073I0000000J-000492D01*
G01*
G37*
G36*
G01*
X0372687Y0102073D02*
X0372687Y0101089D01*
G75*
G02*
X0372195Y0100597I-000492J0000000D01*
G01*
X0372195Y0100597D01*
G75*
G02*
X0371703Y0101089I0000000J0000492D01*
G01*
X0371703Y0102073D01*
G75*
G02*
X0372195Y0102565I0000492J0000000D01*
G01*
X0372195Y0102565D01*
G75*
G02*
X0372687Y0102073I0000000J-000492D01*
G01*
G37*
G36*
G01*
X0369636Y0102073D02*
X0369636Y0101089D01*
G75*
G02*
X0369144Y0100597I-000492J0000000D01*
G01*
X0369144Y0100597D01*
G75*
G02*
X0368652Y0101089I0000000J0000492D01*
G01*
X0368652Y0102073D01*
G75*
G02*
X0369144Y0102565I0000492J0000000D01*
G01*
X0369144Y0102565D01*
G75*
G02*
X0369636Y0102073I0000000J-000492D01*
G01*
G37*
G36*
G01*
X0365305Y0102073D02*
X0365305Y0101089D01*
G75*
G02*
X0364813Y0100597I-000492J0000000D01*
G01*
X0364813Y0100597D01*
G75*
G02*
X0364321Y0101089I0000000J0000492D01*
G01*
X0364321Y0102073D01*
G75*
G02*
X0364813Y0102565I0000492J0000000D01*
G01*
X0364813Y0102565D01*
G75*
G02*
X0365305Y0102073I0000000J-000492D01*
G01*
G37*
G36*
G01*
X0360974Y0102073D02*
X0360974Y0101089D01*
G75*
G02*
X0360482Y0100597I-000492J0000000D01*
G01*
X0360482Y0100597D01*
G75*
G02*
X0359990Y0101089I0000000J0000492D01*
G01*
X0359990Y0102073D01*
G75*
G02*
X0360482Y0102565I0000492J0000000D01*
G01*
X0360482Y0102565D01*
G75*
G02*
X0360974Y0102073I0000000J-000492D01*
G01*
G37*
G36*
G01*
X0356644Y0102073D02*
X0356644Y0101089D01*
G75*
G02*
X0356152Y0100597I-000492J0000000D01*
G01*
X0356152Y0100597D01*
G75*
G02*
X0355659Y0101089I0000000J0000492D01*
G01*
X0355659Y0102073D01*
G75*
G02*
X0356152Y0102565I0000492J0000000D01*
G01*
X0356152Y0102565D01*
G75*
G02*
X0356644Y0102073I0000000J-000492D01*
G01*
G37*
G36*
G01*
X0352313Y0102073D02*
X0352313Y0101089D01*
G75*
G02*
X0351821Y0100597I-000492J0000000D01*
G01*
X0351821Y0100597D01*
G75*
G02*
X0351329Y0101089I0000000J0000492D01*
G01*
X0351329Y0102073D01*
G75*
G02*
X0351821Y0102565I0000492J0000000D01*
G01*
X0351821Y0102565D01*
G75*
G02*
X0352313Y0102073I0000000J-000492D01*
G01*
G37*
G36*
G01*
X0347982Y0102073D02*
X0347982Y0101089D01*
G75*
G02*
X0347490Y0100597I-000492J0000000D01*
G01*
X0347490Y0100597D01*
G75*
G02*
X0346998Y0101089I0000000J0000492D01*
G01*
X0346998Y0102073D01*
G75*
G02*
X0347490Y0102565I0000492J0000000D01*
G01*
X0347490Y0102565D01*
G75*
G02*
X0347982Y0102073I0000000J-000492D01*
G01*
G37*
G36*
G01*
X0343652Y0102073D02*
X0343652Y0101089D01*
G75*
G02*
X0343160Y0100597I-000492J0000000D01*
G01*
X0343160Y0100597D01*
G75*
G02*
X0342667Y0101089I0000000J0000492D01*
G01*
X0342667Y0102073D01*
G75*
G02*
X0343160Y0102565I0000492J0000000D01*
G01*
X0343160Y0102565D01*
G75*
G02*
X0343652Y0102073I0000000J-000492D01*
G01*
G37*
G36*
G01*
X0339321Y0102073D02*
X0339321Y0101089D01*
G75*
G02*
X0338829Y0100597I-000492J0000000D01*
G01*
X0338829Y0100597D01*
G75*
G02*
X0338337Y0101089I0000000J0000492D01*
G01*
X0338337Y0102073D01*
G75*
G02*
X0338829Y0102565I0000492J0000000D01*
G01*
X0338829Y0102565D01*
G75*
G02*
X0339321Y0102073I0000000J-000492D01*
G01*
G37*
G36*
G01*
X0334990Y0102073D02*
X0334990Y0101089D01*
G75*
G02*
X0334498Y0100597I-000492J0000000D01*
G01*
X0334498Y0100597D01*
G75*
G02*
X0334006Y0101089I0000000J0000492D01*
G01*
X0334006Y0102073D01*
G75*
G02*
X0334498Y0102565I0000492J0000000D01*
G01*
X0334498Y0102565D01*
G75*
G02*
X0334990Y0102073I0000000J-000492D01*
G01*
G37*
G36*
G01*
X0330660Y0102073D02*
X0330660Y0101089D01*
G75*
G02*
X0330167Y0100597I-000492J0000000D01*
G01*
X0330167Y0100597D01*
G75*
G02*
X0329675Y0101089I0000000J0000492D01*
G01*
X0329675Y0102073D01*
G75*
G02*
X0330167Y0102565I0000492J0000000D01*
G01*
X0330167Y0102565D01*
G75*
G02*
X0330660Y0102073I0000000J-000492D01*
G01*
G37*
G36*
G01*
X0326329Y0102073D02*
X0326329Y0101089D01*
G75*
G02*
X0325837Y0100597I-000492J0000000D01*
G01*
X0325837Y0100597D01*
G75*
G02*
X0325345Y0101089I0000000J0000492D01*
G01*
X0325345Y0102073D01*
G75*
G02*
X0325837Y0102565I0000492J0000000D01*
G01*
X0325837Y0102565D01*
G75*
G02*
X0326329Y0102073I0000000J-000492D01*
G01*
G37*
G36*
G01*
X0321998Y0102073D02*
X0321998Y0101089D01*
G75*
G02*
X0321506Y0100597I-000492J0000000D01*
G01*
X0321506Y0100597D01*
G75*
G02*
X0321014Y0101089I0000000J0000492D01*
G01*
X0321014Y0102073D01*
G75*
G02*
X0321506Y0102565I0000492J0000000D01*
G01*
X0321506Y0102565D01*
G75*
G02*
X0321998Y0102073I0000000J-000492D01*
G01*
G37*
G36*
G01*
X0317667Y0102073D02*
X0317667Y0101089D01*
G75*
G02*
X0317175Y0100597I-000492J0000000D01*
G01*
X0317175Y0100597D01*
G75*
G02*
X0316683Y0101089I0000000J0000492D01*
G01*
X0316683Y0102073D01*
G75*
G02*
X0317175Y0102565I0000492J0000000D01*
G01*
X0317175Y0102565D01*
G75*
G02*
X0317667Y0102073I0000000J-000492D01*
G01*
G37*
G36*
G01*
X0313337Y0102073D02*
X0313337Y0101089D01*
G75*
G02*
X0312845Y0100597I-000492J0000000D01*
G01*
X0312845Y0100597D01*
G75*
G02*
X0312352Y0101089I0000000J0000492D01*
G01*
X0312352Y0102073D01*
G75*
G02*
X0312845Y0102565I0000492J0000000D01*
G01*
X0312845Y0102565D01*
G75*
G02*
X0313337Y0102073I0000000J-000492D01*
G01*
G37*
G36*
G01*
X0309006Y0102073D02*
X0309006Y0101089D01*
G75*
G02*
X0308514Y0100597I-000492J0000000D01*
G01*
X0308514Y0100597D01*
G75*
G02*
X0308022Y0101089I0000000J0000492D01*
G01*
X0308022Y0102073D01*
G75*
G02*
X0308514Y0102565I0000492J0000000D01*
G01*
X0308514Y0102565D01*
G75*
G02*
X0309006Y0102073I0000000J-000492D01*
G01*
G37*
G36*
G01*
X0304675Y0102073D02*
X0304675Y0101089D01*
G75*
G02*
X0304183Y0100597I-000492J0000000D01*
G01*
X0304183Y0100597D01*
G75*
G02*
X0303691Y0101089I0000000J0000492D01*
G01*
X0303691Y0102073D01*
G75*
G02*
X0304183Y0102565I0000492J0000000D01*
G01*
X0304183Y0102565D01*
G75*
G02*
X0304675Y0102073I0000000J-000492D01*
G01*
G37*
G36*
G01*
X0300345Y0102073D02*
X0300345Y0101089D01*
G75*
G02*
X0299853Y0100597I-000492J0000000D01*
G01*
X0299853Y0100597D01*
G75*
G02*
X0299360Y0101089I0000000J0000492D01*
G01*
X0299360Y0102073D01*
G75*
G02*
X0299853Y0102565I0000492J0000000D01*
G01*
X0299853Y0102565D01*
G75*
G02*
X0300345Y0102073I0000000J-000492D01*
G01*
G37*
G36*
G01*
X0296014Y0102073D02*
X0296014Y0101089D01*
G75*
G02*
X0295522Y0100597I-000492J0000000D01*
G01*
X0295522Y0100597D01*
G75*
G02*
X0295030Y0101089I0000000J0000492D01*
G01*
X0295030Y0102073D01*
G75*
G02*
X0295522Y0102565I0000492J0000000D01*
G01*
X0295522Y0102565D01*
G75*
G02*
X0296014Y0102073I0000000J-000492D01*
G01*
G37*
G36*
G01*
X0291683Y0102073D02*
X0291683Y0101089D01*
G75*
G02*
X0291191Y0100597I-000492J0000000D01*
G01*
X0291191Y0100597D01*
G75*
G02*
X0290699Y0101089I0000000J0000492D01*
G01*
X0290699Y0102073D01*
G75*
G02*
X0291191Y0102565I0000492J0000000D01*
G01*
X0291191Y0102565D01*
G75*
G02*
X0291683Y0102073I0000000J-000492D01*
G01*
G37*
G36*
G01*
X0287353Y0102073D02*
X0287353Y0101089D01*
G75*
G02*
X0286860Y0100597I-000492J0000000D01*
G01*
X0286860Y0100597D01*
G75*
G02*
X0286368Y0101089I0000000J0000492D01*
G01*
X0286368Y0102073D01*
G75*
G02*
X0286860Y0102565I0000492J0000000D01*
G01*
X0286860Y0102565D01*
G75*
G02*
X0287353Y0102073I0000000J-000492D01*
G01*
G37*
G36*
G01*
X0283022Y0102073D02*
X0283022Y0101089D01*
G75*
G02*
X0282530Y0100597I-000492J0000000D01*
G01*
X0282530Y0100597D01*
G75*
G02*
X0282038Y0101089I0000000J0000492D01*
G01*
X0282038Y0102073D01*
G75*
G02*
X0282530Y0102565I0000492J0000000D01*
G01*
X0282530Y0102565D01*
G75*
G02*
X0283022Y0102073I0000000J-000492D01*
G01*
G37*
G36*
G01*
X0278691Y0102073D02*
X0278691Y0101089D01*
G75*
G02*
X0278199Y0100597I-000492J0000000D01*
G01*
X0278199Y0100597D01*
G75*
G02*
X0277707Y0101089I0000000J0000492D01*
G01*
X0277707Y0102073D01*
G75*
G02*
X0278199Y0102565I0000492J0000000D01*
G01*
X0278199Y0102565D01*
G75*
G02*
X0278691Y0102073I0000000J-000492D01*
G01*
G37*
G36*
G01*
X0274360Y0102073D02*
X0274360Y0101089D01*
G75*
G02*
X0273868Y0100597I-000492J0000000D01*
G01*
X0273868Y0100597D01*
G75*
G02*
X0273376Y0101089I0000000J0000492D01*
G01*
X0273376Y0102073D01*
G75*
G02*
X0273868Y0102565I0000492J0000000D01*
G01*
X0273868Y0102565D01*
G75*
G02*
X0274360Y0102073I0000000J-000492D01*
G01*
G37*
G36*
G01*
X0270030Y0102073D02*
X0270030Y0101089D01*
G75*
G02*
X0269538Y0100597I-000492J0000000D01*
G01*
X0269538Y0100597D01*
G75*
G02*
X0269045Y0101089I0000000J0000492D01*
G01*
X0269045Y0102073D01*
G75*
G02*
X0269538Y0102565I0000492J0000000D01*
G01*
X0269538Y0102565D01*
G75*
G02*
X0270030Y0102073I0000000J-000492D01*
G01*
G37*
G36*
G01*
X0265699Y0102073D02*
X0265699Y0101089D01*
G75*
G02*
X0265207Y0100597I-000492J0000000D01*
G01*
X0265207Y0100597D01*
G75*
G02*
X0264715Y0101089I0000000J0000492D01*
G01*
X0264715Y0102073D01*
G75*
G02*
X0265207Y0102565I0000492J0000000D01*
G01*
X0265207Y0102565D01*
G75*
G02*
X0265699Y0102073I0000000J-000492D01*
G01*
G37*
G36*
G01*
X0293258Y0243526D02*
X0293258Y0242542D01*
G75*
G02*
X0292766Y0242050I-000492J0000000D01*
G01*
X0292766Y0242050D01*
G75*
G02*
X0292274Y0242542I0000000J0000492D01*
G01*
X0292274Y0243526D01*
G75*
G02*
X0292766Y0244018I0000492J0000000D01*
G01*
X0292766Y0244018D01*
G75*
G02*
X0293258Y0243526I0000000J-000492D01*
G01*
G37*
G36*
G01*
X0297470Y0242542D02*
X0297470Y0243526D01*
G75*
G02*
X0297963Y0244018I0000492J0000000D01*
G01*
X0297963Y0244018D01*
G75*
G02*
X0298455Y0243526I0000000J-000492D01*
G01*
X0298455Y0242542D01*
G75*
G02*
X0297963Y0242050I-000492J0000000D01*
G01*
X0297963Y0242050D01*
G75*
G02*
X0297470Y0242542I0000000J0000492D01*
G01*
G37*
G36*
G01*
X0302667Y0242542D02*
X0302667Y0243526D01*
G75*
G02*
X0303159Y0244018I0000492J0000000D01*
G01*
X0303159Y0244018D01*
G75*
G02*
X0303652Y0243526I0000000J-000492D01*
G01*
X0303652Y0242542D01*
G75*
G02*
X0303159Y0242050I-000492J0000000D01*
G01*
X0303159Y0242050D01*
G75*
G02*
X0302667Y0242542I0000000J0000492D01*
G01*
G37*
G36*
G01*
X0306998Y0242542D02*
X0306998Y0243526D01*
G75*
G02*
X0307490Y0244018I0000492J0000000D01*
G01*
X0307490Y0244018D01*
G75*
G02*
X0307982Y0243526I0000000J-000492D01*
G01*
X0307982Y0242542D01*
G75*
G02*
X0307490Y0242050I-000492J0000000D01*
G01*
X0307490Y0242050D01*
G75*
G02*
X0306998Y0242542I0000000J0000492D01*
G01*
G37*
G36*
G01*
X0311329Y0242542D02*
X0311329Y0243526D01*
G75*
G02*
X0311821Y0244018I0000492J0000000D01*
G01*
X0311821Y0244018D01*
G75*
G02*
X0312313Y0243526I0000000J-000492D01*
G01*
X0312313Y0242542D01*
G75*
G02*
X0311821Y0242050I-000492J0000000D01*
G01*
X0311821Y0242050D01*
G75*
G02*
X0311329Y0242542I0000000J0000492D01*
G01*
G37*
G36*
G01*
X0315659Y0242542D02*
X0315659Y0243526D01*
G75*
G02*
X0316152Y0244018I0000492J0000000D01*
G01*
X0316152Y0244018D01*
G75*
G02*
X0316644Y0243526I0000000J-000492D01*
G01*
X0316644Y0242542D01*
G75*
G02*
X0316152Y0242050I-000492J0000000D01*
G01*
X0316152Y0242050D01*
G75*
G02*
X0315659Y0242542I0000000J0000492D01*
G01*
G37*
G36*
G01*
X0319990Y0242542D02*
X0319990Y0243526D01*
G75*
G02*
X0320482Y0244018I0000492J0000000D01*
G01*
X0320482Y0244018D01*
G75*
G02*
X0320974Y0243526I0000000J-000492D01*
G01*
X0320974Y0242542D01*
G75*
G02*
X0320482Y0242050I-000492J0000000D01*
G01*
X0320482Y0242050D01*
G75*
G02*
X0319990Y0242542I0000000J0000492D01*
G01*
G37*
G36*
G01*
X0324321Y0242542D02*
X0324321Y0243526D01*
G75*
G02*
X0324813Y0244018I0000492J0000000D01*
G01*
X0324813Y0244018D01*
G75*
G02*
X0325305Y0243526I0000000J-000492D01*
G01*
X0325305Y0242542D01*
G75*
G02*
X0324813Y0242050I-000492J0000000D01*
G01*
X0324813Y0242050D01*
G75*
G02*
X0324321Y0242542I0000000J0000492D01*
G01*
G37*
G36*
G01*
X0328652Y0242542D02*
X0328652Y0243526D01*
G75*
G02*
X0329144Y0244018I0000492J0000000D01*
G01*
X0329144Y0244018D01*
G75*
G02*
X0329636Y0243526I0000000J-000492D01*
G01*
X0329636Y0242542D01*
G75*
G02*
X0329144Y0242050I-000492J0000000D01*
G01*
X0329144Y0242050D01*
G75*
G02*
X0328652Y0242542I0000000J0000492D01*
G01*
G37*
G36*
G01*
X0332982Y0242542D02*
X0332982Y0243526D01*
G75*
G02*
X0333474Y0244018I0000492J0000000D01*
G01*
X0333474Y0244018D01*
G75*
G02*
X0333966Y0243526I0000000J-000492D01*
G01*
X0333966Y0242542D01*
G75*
G02*
X0333474Y0242050I-000492J0000000D01*
G01*
X0333474Y0242050D01*
G75*
G02*
X0332982Y0242542I0000000J0000492D01*
G01*
G37*
G36*
G01*
X0337313Y0242542D02*
X0337313Y0243526D01*
G75*
G02*
X0337805Y0244018I0000492J0000000D01*
G01*
X0337805Y0244018D01*
G75*
G02*
X0338297Y0243526I0000000J-000492D01*
G01*
X0338297Y0242542D01*
G75*
G02*
X0337805Y0242050I-000492J0000000D01*
G01*
X0337805Y0242050D01*
G75*
G02*
X0337313Y0242542I0000000J0000492D01*
G01*
G37*
G36*
G01*
X0341644Y0242542D02*
X0341644Y0243526D01*
G75*
G02*
X0342136Y0244018I0000492J0000000D01*
G01*
X0342136Y0244018D01*
G75*
G02*
X0342628Y0243526I0000000J-000492D01*
G01*
X0342628Y0242542D01*
G75*
G02*
X0342136Y0242050I-000492J0000000D01*
G01*
X0342136Y0242050D01*
G75*
G02*
X0341644Y0242542I0000000J0000492D01*
G01*
G37*
G36*
G01*
X0345974Y0242542D02*
X0345974Y0243526D01*
G75*
G02*
X0346466Y0244018I0000492J0000000D01*
G01*
X0346466Y0244018D01*
G75*
G02*
X0346959Y0243526I0000000J-000492D01*
G01*
X0346959Y0242542D01*
G75*
G02*
X0346466Y0242050I-000492J0000000D01*
G01*
X0346466Y0242050D01*
G75*
G02*
X0345974Y0242542I0000000J0000492D01*
G01*
G37*
G36*
G01*
X0350305Y0242542D02*
X0350305Y0243526D01*
G75*
G02*
X0350797Y0244018I0000492J0000000D01*
G01*
X0350797Y0244018D01*
G75*
G02*
X0351289Y0243526I0000000J-000492D01*
G01*
X0351289Y0242542D01*
G75*
G02*
X0350797Y0242050I-000492J0000000D01*
G01*
X0350797Y0242050D01*
G75*
G02*
X0350305Y0242542I0000000J0000492D01*
G01*
G37*
G36*
G01*
X0354636Y0242542D02*
X0354636Y0243526D01*
G75*
G02*
X0355128Y0244018I0000492J0000000D01*
G01*
X0355128Y0244018D01*
G75*
G02*
X0355620Y0243526I0000000J-000492D01*
G01*
X0355620Y0242542D01*
G75*
G02*
X0355128Y0242050I-000492J0000000D01*
G01*
X0355128Y0242050D01*
G75*
G02*
X0354636Y0242542I0000000J0000492D01*
G01*
G37*
G36*
G01*
X0358966Y0242542D02*
X0358966Y0243526D01*
G75*
G02*
X0359459Y0244018I0000492J0000000D01*
G01*
X0359459Y0244018D01*
G75*
G02*
X0359951Y0243526I0000000J-000492D01*
G01*
X0359951Y0242542D01*
G75*
G02*
X0359459Y0242050I-000492J0000000D01*
G01*
X0359459Y0242050D01*
G75*
G02*
X0358966Y0242542I0000000J0000492D01*
G01*
G37*
G36*
G01*
X0363297Y0242542D02*
X0363297Y0243526D01*
G75*
G02*
X0363789Y0244018I0000492J0000000D01*
G01*
X0363789Y0244018D01*
G75*
G02*
X0364281Y0243526I0000000J-000492D01*
G01*
X0364281Y0242542D01*
G75*
G02*
X0363789Y0242050I-000492J0000000D01*
G01*
X0363789Y0242050D01*
G75*
G02*
X0363297Y0242542I0000000J0000492D01*
G01*
G37*
G36*
G01*
X0367628Y0242542D02*
X0367628Y0243526D01*
G75*
G02*
X0368120Y0244018I0000492J0000000D01*
G01*
X0368120Y0244018D01*
G75*
G02*
X0368612Y0243526I0000000J-000492D01*
G01*
X0368612Y0242542D01*
G75*
G02*
X0368120Y0242050I-000492J0000000D01*
G01*
X0368120Y0242050D01*
G75*
G02*
X0367628Y0242542I0000000J0000492D01*
G01*
G37*
G36*
G01*
X0371959Y0242542D02*
X0371959Y0243526D01*
G75*
G02*
X0372451Y0244018I0000492J0000000D01*
G01*
X0372451Y0244018D01*
G75*
G02*
X0372943Y0243526I0000000J-000492D01*
G01*
X0372943Y0242542D01*
G75*
G02*
X0372451Y0242050I-000492J0000000D01*
G01*
X0372451Y0242050D01*
G75*
G02*
X0371959Y0242542I0000000J0000492D01*
G01*
G37*
G36*
G01*
X0376289Y0242542D02*
X0376289Y0243526D01*
G75*
G02*
X0376781Y0244018I0000492J0000000D01*
G01*
X0376781Y0244018D01*
G75*
G02*
X0377273Y0243526I0000000J-000492D01*
G01*
X0377273Y0242542D01*
G75*
G02*
X0376781Y0242050I-000492J0000000D01*
G01*
X0376781Y0242050D01*
G75*
G02*
X0376289Y0242542I0000000J0000492D01*
G01*
G37*
G36*
G01*
X0380620Y0242542D02*
X0380620Y0243526D01*
G75*
G02*
X0381112Y0244018I0000492J0000000D01*
G01*
X0381112Y0244018D01*
G75*
G02*
X0381604Y0243526I0000000J-000492D01*
G01*
X0381604Y0242542D01*
G75*
G02*
X0381112Y0242050I-000492J0000000D01*
G01*
X0381112Y0242050D01*
G75*
G02*
X0380620Y0242542I0000000J0000492D01*
G01*
G37*
G36*
G01*
X0384951Y0242542D02*
X0384951Y0243526D01*
G75*
G02*
X0385443Y0244018I0000492J0000000D01*
G01*
X0385443Y0244018D01*
G75*
G02*
X0385935Y0243526I0000000J-000492D01*
G01*
X0385935Y0242542D01*
G75*
G02*
X0385443Y0242050I-000492J0000000D01*
G01*
X0385443Y0242050D01*
G75*
G02*
X0384951Y0242542I0000000J0000492D01*
G01*
G37*
G36*
G01*
X0389281Y0242542D02*
X0389281Y0243526D01*
G75*
G02*
X0389773Y0244018I0000492J0000000D01*
G01*
X0389773Y0244018D01*
G75*
G02*
X0390266Y0243526I0000000J-000492D01*
G01*
X0390266Y0242542D01*
G75*
G02*
X0389773Y0242050I-000492J0000000D01*
G01*
X0389773Y0242050D01*
G75*
G02*
X0389281Y0242542I0000000J0000492D01*
G01*
G37*
G36*
G01*
X0393612Y0242542D02*
X0393612Y0243526D01*
G75*
G02*
X0394104Y0244018I0000492J0000000D01*
G01*
X0394104Y0244018D01*
G75*
G02*
X0394596Y0243526I0000000J-000492D01*
G01*
X0394596Y0242542D01*
G75*
G02*
X0394104Y0242050I-000492J0000000D01*
G01*
X0394104Y0242050D01*
G75*
G02*
X0393612Y0242542I0000000J0000492D01*
G01*
G37*
G36*
G01*
X0397943Y0242542D02*
X0397943Y0243526D01*
G75*
G02*
X0398435Y0244018I0000492J0000000D01*
G01*
X0398435Y0244018D01*
G75*
G02*
X0398927Y0243526I0000000J-000492D01*
G01*
X0398927Y0242542D01*
G75*
G02*
X0398435Y0242050I-000492J0000000D01*
G01*
X0398435Y0242050D01*
G75*
G02*
X0397943Y0242542I0000000J0000492D01*
G01*
G37*
G36*
G01*
X0402273Y0242542D02*
X0402273Y0243526D01*
G75*
G02*
X0402766Y0244018I0000492J0000000D01*
G01*
X0402766Y0244018D01*
G75*
G02*
X0403258Y0243526I0000000J-000492D01*
G01*
X0403258Y0242542D01*
G75*
G02*
X0402766Y0242050I-000492J0000000D01*
G01*
X0402766Y0242050D01*
G75*
G02*
X0402273Y0242542I0000000J0000492D01*
G01*
G37*
G36*
G01*
X0406604Y0242542D02*
X0406604Y0243526D01*
G75*
G02*
X0407096Y0244018I0000492J0000000D01*
G01*
X0407096Y0244018D01*
G75*
G02*
X0407588Y0243526I0000000J-000492D01*
G01*
X0407588Y0242542D01*
G75*
G02*
X0407096Y0242050I-000492J0000000D01*
G01*
X0407096Y0242050D01*
G75*
G02*
X0406604Y0242542I0000000J0000492D01*
G01*
G37*
G36*
G01*
X0410935Y0242542D02*
X0410935Y0243526D01*
G75*
G02*
X0411427Y0244018I0000492J0000000D01*
G01*
X0411427Y0244018D01*
G75*
G02*
X0411919Y0243526I0000000J-000492D01*
G01*
X0411919Y0242542D01*
G75*
G02*
X0411427Y0242050I-000492J0000000D01*
G01*
X0411427Y0242050D01*
G75*
G02*
X0410935Y0242542I0000000J0000492D01*
G01*
G37*
G36*
G01*
X0415266Y0242542D02*
X0415266Y0243526D01*
G75*
G02*
X0415758Y0244018I0000492J0000000D01*
G01*
X0415758Y0244018D01*
G75*
G02*
X0416250Y0243526I0000000J-000492D01*
G01*
X0416250Y0242542D01*
G75*
G02*
X0415758Y0242050I-000492J0000000D01*
G01*
X0415758Y0242050D01*
G75*
G02*
X0415266Y0242542I0000000J0000492D01*
G01*
G37*
G36*
G01*
X0419596Y0242542D02*
X0419596Y0243526D01*
G75*
G02*
X0420088Y0244018I0000492J0000000D01*
G01*
X0420088Y0244018D01*
G75*
G02*
X0420580Y0243526I0000000J-000492D01*
G01*
X0420580Y0242542D01*
G75*
G02*
X0420088Y0242050I-000492J0000000D01*
G01*
X0420088Y0242050D01*
G75*
G02*
X0419596Y0242542I0000000J0000492D01*
G01*
G37*
G36*
G01*
X0423927Y0242542D02*
X0423927Y0243526D01*
G75*
G02*
X0424419Y0244018I0000492J0000000D01*
G01*
X0424419Y0244018D01*
G75*
G02*
X0424911Y0243526I0000000J-000492D01*
G01*
X0424911Y0242542D01*
G75*
G02*
X0424419Y0242050I-000492J0000000D01*
G01*
X0424419Y0242050D01*
G75*
G02*
X0423927Y0242542I0000000J0000492D01*
G01*
G37*
G36*
G01*
X0428258Y0242542D02*
X0428258Y0243526D01*
G75*
G02*
X0428750Y0244018I0000492J0000000D01*
G01*
X0428750Y0244018D01*
G75*
G02*
X0429242Y0243526I0000000J-000492D01*
G01*
X0429242Y0242542D01*
G75*
G02*
X0428750Y0242050I-000492J0000000D01*
G01*
X0428750Y0242050D01*
G75*
G02*
X0428258Y0242542I0000000J0000492D01*
G01*
G37*
G36*
G01*
X0432588Y0242542D02*
X0432588Y0243526D01*
G75*
G02*
X0433080Y0244018I0000492J0000000D01*
G01*
X0433080Y0244018D01*
G75*
G02*
X0433573Y0243526I0000000J-000492D01*
G01*
X0433573Y0242542D01*
G75*
G02*
X0433080Y0242050I-000492J0000000D01*
G01*
X0433080Y0242050D01*
G75*
G02*
X0432588Y0242542I0000000J0000492D01*
G01*
G37*
G36*
G01*
X0438533Y0125191D02*
X0439518Y0125191D01*
G75*
G02*
X0440010Y0124699I0000000J-000492D01*
G01*
X0440010Y0124699D01*
G75*
G02*
X0439518Y0124207I-000492J0000000D01*
G01*
X0438533Y0124207D01*
G75*
G02*
X0438041Y0124699I0000000J0000492D01*
G01*
X0438041Y0124699D01*
G75*
G02*
X0438533Y0125191I0000492J0000000D01*
G01*
G37*
G36*
G01*
X0438533Y0122593D02*
X0439518Y0122593D01*
G75*
G02*
X0440010Y0122101I0000000J-000492D01*
G01*
X0440010Y0122101D01*
G75*
G02*
X0439518Y0121609I-000492J0000000D01*
G01*
X0438533Y0121609D01*
G75*
G02*
X0438041Y0122101I0000000J0000492D01*
G01*
X0438041Y0122101D01*
G75*
G02*
X0438533Y0122593I0000492J0000000D01*
G01*
G37*
G36*
G01*
X0438533Y0119995D02*
X0439518Y0119995D01*
G75*
G02*
X0440010Y0119502I0000000J-000492D01*
G01*
X0440010Y0119502D01*
G75*
G02*
X0439518Y0119010I-000492J0000000D01*
G01*
X0438533Y0119010D01*
G75*
G02*
X0438041Y0119502I0000000J0000492D01*
G01*
X0438041Y0119502D01*
G75*
G02*
X0438533Y0119995I0000492J0000000D01*
G01*
G37*
G36*
G01*
X0438533Y0117396D02*
X0439518Y0117396D01*
G75*
G02*
X0440010Y0116904I0000000J-000492D01*
G01*
X0440010Y0116904D01*
G75*
G02*
X0439518Y0116412I-000492J0000000D01*
G01*
X0438533Y0116412D01*
G75*
G02*
X0438041Y0116904I0000000J0000492D01*
G01*
X0438041Y0116904D01*
G75*
G02*
X0438533Y0117396I0000492J0000000D01*
G01*
G37*
G36*
G01*
X0438533Y0114798D02*
X0439518Y0114798D01*
G75*
G02*
X0440010Y0114306I0000000J-000492D01*
G01*
X0440010Y0114306D01*
G75*
G02*
X0439518Y0113813I-000492J0000000D01*
G01*
X0438533Y0113813D01*
G75*
G02*
X0438041Y0114306I0000000J0000492D01*
G01*
X0438041Y0114306D01*
G75*
G02*
X0438533Y0114798I0000492J0000000D01*
G01*
G37*
G36*
G01*
X0438533Y0112199D02*
X0439518Y0112199D01*
G75*
G02*
X0440010Y0111707I0000000J-000492D01*
G01*
X0440010Y0111707D01*
G75*
G02*
X0439518Y0111215I-000492J0000000D01*
G01*
X0438533Y0111215D01*
G75*
G02*
X0438041Y0111707I0000000J0000492D01*
G01*
X0438041Y0111707D01*
G75*
G02*
X0438533Y0112199I0000492J0000000D01*
G01*
G37*
G36*
G01*
X0438533Y0109601D02*
X0439518Y0109601D01*
G75*
G02*
X0440010Y0109109I0000000J-000492D01*
G01*
X0440010Y0109109D01*
G75*
G02*
X0439518Y0108617I-000492J0000000D01*
G01*
X0438533Y0108617D01*
G75*
G02*
X0438041Y0109109I0000000J0000492D01*
G01*
X0438041Y0109109D01*
G75*
G02*
X0438533Y0109601I0000492J0000000D01*
G01*
G37*
G36*
G01*
X0438533Y0107002D02*
X0439518Y0107002D01*
G75*
G02*
X0440010Y0106510I0000000J-000492D01*
G01*
X0440010Y0106510D01*
G75*
G02*
X0439518Y0106018I-000492J0000000D01*
G01*
X0438533Y0106018D01*
G75*
G02*
X0438041Y0106510I0000000J0000492D01*
G01*
X0438041Y0106510D01*
G75*
G02*
X0438533Y0107002I0000492J0000000D01*
G01*
G37*
G36*
G01*
X0438533Y0104404D02*
X0439518Y0104404D01*
G75*
G02*
X0440010Y0103912I0000000J-000492D01*
G01*
X0440010Y0103912D01*
G75*
G02*
X0439518Y0103420I-000492J0000000D01*
G01*
X0438533Y0103420D01*
G75*
G02*
X0438041Y0103912I0000000J0000492D01*
G01*
X0438041Y0103912D01*
G75*
G02*
X0438533Y0104404I0000492J0000000D01*
G01*
G37*
G36*
G01*
X0438533Y0101806D02*
X0439518Y0101806D01*
G75*
G02*
X0440010Y0101313I0000000J-000492D01*
G01*
X0440010Y0101313D01*
G75*
G02*
X0439518Y0100821I-000492J0000000D01*
G01*
X0438533Y0100821D01*
G75*
G02*
X0438041Y0101313I0000000J0000492D01*
G01*
X0438041Y0101313D01*
G75*
G02*
X0438533Y0101806I0000492J0000000D01*
G01*
G37*
D40*
X0523622Y0061024D03*
X0151575Y0486220D03*
D248*
X0293307Y0428720D03*
X0293307Y0443720D03*
D131*
X0279675Y0086161D03*
X0285876Y0066850D03*
X0335892Y0066885D03*
X0302510Y0064212D03*
X0307136Y0064212D03*
X0315699Y0064212D03*
X0324459Y0064212D03*
D40*
X0281496Y0486220D03*
X0494094Y0470472D03*
D248*
X0281496Y0455886D03*
X0281496Y0470886D03*
D40*
X0263780Y0257874D03*
X0344488Y0251969D03*
X0108268Y0283465D03*
X0109252Y0066535D03*
X0470472Y0488189D03*
D248*
X0173228Y0444075D03*
X0173228Y0459075D03*
D40*
X0387795Y0448819D03*
X0202756Y0440157D03*
X0251969Y0240157D03*
X0202756Y0457087D03*
D248*
X0344488Y0444075D03*
X0344488Y0459075D03*
D40*
X0330709Y0322835D03*
X0261811Y0457087D03*
D248*
X0312992Y0455886D03*
X0312992Y0470886D03*
X0183071Y0444075D03*
X0183071Y0459075D03*
X0387795Y0462972D03*
X0387795Y0477972D03*
D40*
X0375984Y0488189D03*
G36*
G01*
X0319321Y0292703D02*
X0320305Y0292703D01*
G75*
G02*
X0320797Y0292211I0000000J-000492D01*
G01*
X0320797Y0292211D01*
G75*
G02*
X0320305Y0291718I-000492J0000000D01*
G01*
X0319321Y0291718D01*
G75*
G02*
X0318829Y0292211I0000000J0000492D01*
G01*
X0318829Y0292211D01*
G75*
G02*
X0319321Y0292703I0000492J0000000D01*
G01*
G37*
G36*
G01*
X0319321Y0295301D02*
X0320305Y0295301D01*
G75*
G02*
X0320797Y0294809I0000000J-000492D01*
G01*
X0320797Y0294809D01*
G75*
G02*
X0320305Y0294317I-000492J0000000D01*
G01*
X0319321Y0294317D01*
G75*
G02*
X0318829Y0294809I0000000J0000492D01*
G01*
X0318829Y0294809D01*
G75*
G02*
X0319321Y0295301I0000492J0000000D01*
G01*
G37*
G36*
G01*
X0319321Y0297900D02*
X0320305Y0297900D01*
G75*
G02*
X0320797Y0297407I0000000J-000492D01*
G01*
X0320797Y0297407D01*
G75*
G02*
X0320305Y0296915I-000492J0000000D01*
G01*
X0319321Y0296915D01*
G75*
G02*
X0318829Y0297407I0000000J0000492D01*
G01*
X0318829Y0297407D01*
G75*
G02*
X0319321Y0297900I0000492J0000000D01*
G01*
G37*
G36*
G01*
X0319321Y0300498D02*
X0320305Y0300498D01*
G75*
G02*
X0320797Y0300006I0000000J-000492D01*
G01*
X0320797Y0300006D01*
G75*
G02*
X0320305Y0299514I-000492J0000000D01*
G01*
X0319321Y0299514D01*
G75*
G02*
X0318829Y0300006I0000000J0000492D01*
G01*
X0318829Y0300006D01*
G75*
G02*
X0319321Y0300498I0000492J0000000D01*
G01*
G37*
G36*
G01*
X0319321Y0313490D02*
X0320305Y0313490D01*
G75*
G02*
X0320797Y0312998I0000000J-000492D01*
G01*
X0320797Y0312998D01*
G75*
G02*
X0320305Y0312506I-000492J0000000D01*
G01*
X0319321Y0312506D01*
G75*
G02*
X0318829Y0312998I0000000J0000492D01*
G01*
X0318829Y0312998D01*
G75*
G02*
X0319321Y0313490I0000492J0000000D01*
G01*
G37*
G36*
G01*
X0432588Y0260345D02*
X0432588Y0261329D01*
G75*
G02*
X0433081Y0261822I0000492J0000000D01*
G01*
X0433081Y0261822D01*
G75*
G02*
X0433573Y0261329I0000000J-000492D01*
G01*
X0433573Y0260345D01*
G75*
G02*
X0433081Y0259853I-000492J0000000D01*
G01*
X0433081Y0259853D01*
G75*
G02*
X0432588Y0260345I0000000J0000492D01*
G01*
G37*
G36*
G01*
X0429242Y0261329D02*
X0429242Y0260345D01*
G75*
G02*
X0428750Y0259853I-000492J0000000D01*
G01*
X0428750Y0259853D01*
G75*
G02*
X0428258Y0260345I0000000J0000492D01*
G01*
X0428258Y0261329D01*
G75*
G02*
X0428750Y0261822I0000492J0000000D01*
G01*
X0428750Y0261822D01*
G75*
G02*
X0429242Y0261329I0000000J-000492D01*
G01*
G37*
G36*
G01*
X0424911Y0261329D02*
X0424911Y0260345D01*
G75*
G02*
X0424419Y0259853I-000492J0000000D01*
G01*
X0424419Y0259853D01*
G75*
G02*
X0423927Y0260345I0000000J0000492D01*
G01*
X0423927Y0261329D01*
G75*
G02*
X0424419Y0261822I0000492J0000000D01*
G01*
X0424419Y0261822D01*
G75*
G02*
X0424911Y0261329I0000000J-000492D01*
G01*
G37*
G36*
G01*
X0420580Y0261329D02*
X0420580Y0260345D01*
G75*
G02*
X0420088Y0259853I-000492J0000000D01*
G01*
X0420088Y0259853D01*
G75*
G02*
X0419596Y0260345I0000000J0000492D01*
G01*
X0419596Y0261329D01*
G75*
G02*
X0420088Y0261822I0000492J0000000D01*
G01*
X0420088Y0261822D01*
G75*
G02*
X0420580Y0261329I0000000J-000492D01*
G01*
G37*
G36*
G01*
X0416250Y0261329D02*
X0416250Y0260345D01*
G75*
G02*
X0415758Y0259853I-000492J0000000D01*
G01*
X0415758Y0259853D01*
G75*
G02*
X0415266Y0260345I0000000J0000492D01*
G01*
X0415266Y0261329D01*
G75*
G02*
X0415758Y0261822I0000492J0000000D01*
G01*
X0415758Y0261822D01*
G75*
G02*
X0416250Y0261329I0000000J-000492D01*
G01*
G37*
G36*
G01*
X0411919Y0261329D02*
X0411919Y0260345D01*
G75*
G02*
X0411427Y0259853I-000492J0000000D01*
G01*
X0411427Y0259853D01*
G75*
G02*
X0410935Y0260345I0000000J0000492D01*
G01*
X0410935Y0261329D01*
G75*
G02*
X0411427Y0261822I0000492J0000000D01*
G01*
X0411427Y0261822D01*
G75*
G02*
X0411919Y0261329I0000000J-000492D01*
G01*
G37*
G36*
G01*
X0407588Y0261329D02*
X0407588Y0260345D01*
G75*
G02*
X0407096Y0259853I-000492J0000000D01*
G01*
X0407096Y0259853D01*
G75*
G02*
X0406604Y0260345I0000000J0000492D01*
G01*
X0406604Y0261329D01*
G75*
G02*
X0407096Y0261822I0000492J0000000D01*
G01*
X0407096Y0261822D01*
G75*
G02*
X0407588Y0261329I0000000J-000492D01*
G01*
G37*
G36*
G01*
X0403258Y0261329D02*
X0403258Y0260345D01*
G75*
G02*
X0402766Y0259853I-000492J0000000D01*
G01*
X0402766Y0259853D01*
G75*
G02*
X0402273Y0260345I0000000J0000492D01*
G01*
X0402273Y0261329D01*
G75*
G02*
X0402766Y0261822I0000492J0000000D01*
G01*
X0402766Y0261822D01*
G75*
G02*
X0403258Y0261329I0000000J-000492D01*
G01*
G37*
G36*
G01*
X0398927Y0261329D02*
X0398927Y0260345D01*
G75*
G02*
X0398435Y0259853I-000492J0000000D01*
G01*
X0398435Y0259853D01*
G75*
G02*
X0397943Y0260345I0000000J0000492D01*
G01*
X0397943Y0261329D01*
G75*
G02*
X0398435Y0261822I0000492J0000000D01*
G01*
X0398435Y0261822D01*
G75*
G02*
X0398927Y0261329I0000000J-000492D01*
G01*
G37*
G36*
G01*
X0394596Y0261329D02*
X0394596Y0260345D01*
G75*
G02*
X0394104Y0259853I-000492J0000000D01*
G01*
X0394104Y0259853D01*
G75*
G02*
X0393612Y0260345I0000000J0000492D01*
G01*
X0393612Y0261329D01*
G75*
G02*
X0394104Y0261822I0000492J0000000D01*
G01*
X0394104Y0261822D01*
G75*
G02*
X0394596Y0261329I0000000J-000492D01*
G01*
G37*
G36*
G01*
X0390266Y0261329D02*
X0390266Y0260345D01*
G75*
G02*
X0389773Y0259853I-000492J0000000D01*
G01*
X0389773Y0259853D01*
G75*
G02*
X0389281Y0260345I0000000J0000492D01*
G01*
X0389281Y0261329D01*
G75*
G02*
X0389773Y0261822I0000492J0000000D01*
G01*
X0389773Y0261822D01*
G75*
G02*
X0390266Y0261329I0000000J-000492D01*
G01*
G37*
G36*
G01*
X0385935Y0261329D02*
X0385935Y0260345D01*
G75*
G02*
X0385443Y0259853I-000492J0000000D01*
G01*
X0385443Y0259853D01*
G75*
G02*
X0384951Y0260345I0000000J0000492D01*
G01*
X0384951Y0261329D01*
G75*
G02*
X0385443Y0261822I0000492J0000000D01*
G01*
X0385443Y0261822D01*
G75*
G02*
X0385935Y0261329I0000000J-000492D01*
G01*
G37*
G36*
G01*
X0381604Y0261329D02*
X0381604Y0260345D01*
G75*
G02*
X0381112Y0259853I-000492J0000000D01*
G01*
X0381112Y0259853D01*
G75*
G02*
X0380620Y0260345I0000000J0000492D01*
G01*
X0380620Y0261329D01*
G75*
G02*
X0381112Y0261822I0000492J0000000D01*
G01*
X0381112Y0261822D01*
G75*
G02*
X0381604Y0261329I0000000J-000492D01*
G01*
G37*
G36*
G01*
X0377273Y0261329D02*
X0377273Y0260345D01*
G75*
G02*
X0376781Y0259853I-000492J0000000D01*
G01*
X0376781Y0259853D01*
G75*
G02*
X0376289Y0260345I0000000J0000492D01*
G01*
X0376289Y0261329D01*
G75*
G02*
X0376781Y0261822I0000492J0000000D01*
G01*
X0376781Y0261822D01*
G75*
G02*
X0377273Y0261329I0000000J-000492D01*
G01*
G37*
G36*
G01*
X0372943Y0261329D02*
X0372943Y0260345D01*
G75*
G02*
X0372451Y0259853I-000492J0000000D01*
G01*
X0372451Y0259853D01*
G75*
G02*
X0371959Y0260345I0000000J0000492D01*
G01*
X0371959Y0261329D01*
G75*
G02*
X0372451Y0261822I0000492J0000000D01*
G01*
X0372451Y0261822D01*
G75*
G02*
X0372943Y0261329I0000000J-000492D01*
G01*
G37*
G36*
G01*
X0368612Y0261329D02*
X0368612Y0260345D01*
G75*
G02*
X0368120Y0259853I-000492J0000000D01*
G01*
X0368120Y0259853D01*
G75*
G02*
X0367628Y0260345I0000000J0000492D01*
G01*
X0367628Y0261329D01*
G75*
G02*
X0368120Y0261822I0000492J0000000D01*
G01*
X0368120Y0261822D01*
G75*
G02*
X0368612Y0261329I0000000J-000492D01*
G01*
G37*
G36*
G01*
X0364281Y0261329D02*
X0364281Y0260345D01*
G75*
G02*
X0363789Y0259853I-000492J0000000D01*
G01*
X0363789Y0259853D01*
G75*
G02*
X0363297Y0260345I0000000J0000492D01*
G01*
X0363297Y0261329D01*
G75*
G02*
X0363789Y0261822I0000492J0000000D01*
G01*
X0363789Y0261822D01*
G75*
G02*
X0364281Y0261329I0000000J-000492D01*
G01*
G37*
G36*
G01*
X0359951Y0261329D02*
X0359951Y0260345D01*
G75*
G02*
X0359459Y0259853I-000492J0000000D01*
G01*
X0359459Y0259853D01*
G75*
G02*
X0358966Y0260345I0000000J0000492D01*
G01*
X0358966Y0261329D01*
G75*
G02*
X0359459Y0261822I0000492J0000000D01*
G01*
X0359459Y0261822D01*
G75*
G02*
X0359951Y0261329I0000000J-000492D01*
G01*
G37*
G36*
G01*
X0355620Y0261329D02*
X0355620Y0260345D01*
G75*
G02*
X0355128Y0259853I-000492J0000000D01*
G01*
X0355128Y0259853D01*
G75*
G02*
X0354636Y0260345I0000000J0000492D01*
G01*
X0354636Y0261329D01*
G75*
G02*
X0355128Y0261822I0000492J0000000D01*
G01*
X0355128Y0261822D01*
G75*
G02*
X0355620Y0261329I0000000J-000492D01*
G01*
G37*
G36*
G01*
X0351289Y0261329D02*
X0351289Y0260345D01*
G75*
G02*
X0350797Y0259853I-000492J0000000D01*
G01*
X0350797Y0259853D01*
G75*
G02*
X0350305Y0260345I0000000J0000492D01*
G01*
X0350305Y0261329D01*
G75*
G02*
X0350797Y0261822I0000492J0000000D01*
G01*
X0350797Y0261822D01*
G75*
G02*
X0351289Y0261329I0000000J-000492D01*
G01*
G37*
G36*
G01*
X0346959Y0261329D02*
X0346959Y0260345D01*
G75*
G02*
X0346466Y0259853I-000492J0000000D01*
G01*
X0346466Y0259853D01*
G75*
G02*
X0345974Y0260345I0000000J0000492D01*
G01*
X0345974Y0261329D01*
G75*
G02*
X0346466Y0261822I0000492J0000000D01*
G01*
X0346466Y0261822D01*
G75*
G02*
X0346959Y0261329I0000000J-000492D01*
G01*
G37*
G36*
G01*
X0342628Y0261329D02*
X0342628Y0260345D01*
G75*
G02*
X0342136Y0259853I-000492J0000000D01*
G01*
X0342136Y0259853D01*
G75*
G02*
X0341644Y0260345I0000000J0000492D01*
G01*
X0341644Y0261329D01*
G75*
G02*
X0342136Y0261822I0000492J0000000D01*
G01*
X0342136Y0261822D01*
G75*
G02*
X0342628Y0261329I0000000J-000492D01*
G01*
G37*
G36*
G01*
X0338297Y0261329D02*
X0338297Y0260345D01*
G75*
G02*
X0337805Y0259853I-000492J0000000D01*
G01*
X0337805Y0259853D01*
G75*
G02*
X0337313Y0260345I0000000J0000492D01*
G01*
X0337313Y0261329D01*
G75*
G02*
X0337805Y0261822I0000492J0000000D01*
G01*
X0337805Y0261822D01*
G75*
G02*
X0338297Y0261329I0000000J-000492D01*
G01*
G37*
G36*
G01*
X0333966Y0261329D02*
X0333966Y0260345D01*
G75*
G02*
X0333474Y0259853I-000492J0000000D01*
G01*
X0333474Y0259853D01*
G75*
G02*
X0332982Y0260345I0000000J0000492D01*
G01*
X0332982Y0261329D01*
G75*
G02*
X0333474Y0261822I0000492J0000000D01*
G01*
X0333474Y0261822D01*
G75*
G02*
X0333966Y0261329I0000000J-000492D01*
G01*
G37*
G36*
G01*
X0329636Y0261329D02*
X0329636Y0260345D01*
G75*
G02*
X0329144Y0259853I-000492J0000000D01*
G01*
X0329144Y0259853D01*
G75*
G02*
X0328652Y0260345I0000000J0000492D01*
G01*
X0328652Y0261329D01*
G75*
G02*
X0329144Y0261822I0000492J0000000D01*
G01*
X0329144Y0261822D01*
G75*
G02*
X0329636Y0261329I0000000J-000492D01*
G01*
G37*
G36*
G01*
X0325305Y0261329D02*
X0325305Y0260345D01*
G75*
G02*
X0324813Y0259853I-000492J0000000D01*
G01*
X0324813Y0259853D01*
G75*
G02*
X0324321Y0260345I0000000J0000492D01*
G01*
X0324321Y0261329D01*
G75*
G02*
X0324813Y0261822I0000492J0000000D01*
G01*
X0324813Y0261822D01*
G75*
G02*
X0325305Y0261329I0000000J-000492D01*
G01*
G37*
G36*
G01*
X0326293Y0316298D02*
X0326293Y0315314D01*
G75*
G02*
X0325801Y0314822I-000492J0000000D01*
G01*
X0325801Y0314822D01*
G75*
G02*
X0325309Y0315314I0000000J0000492D01*
G01*
X0325309Y0316298D01*
G75*
G02*
X0325801Y0316790I0000492J0000000D01*
G01*
X0325801Y0316790D01*
G75*
G02*
X0326293Y0316298I0000000J-000492D01*
G01*
G37*
G36*
G01*
X0328891Y0316298D02*
X0328891Y0315314D01*
G75*
G02*
X0328399Y0314822I-000492J0000000D01*
G01*
X0328399Y0314822D01*
G75*
G02*
X0327907Y0315314I0000000J0000492D01*
G01*
X0327907Y0316298D01*
G75*
G02*
X0328399Y0316790I0000492J0000000D01*
G01*
X0328399Y0316790D01*
G75*
G02*
X0328891Y0316298I0000000J-000492D01*
G01*
G37*
G36*
G01*
X0331490Y0316298D02*
X0331490Y0315314D01*
G75*
G02*
X0330998Y0314822I-000492J0000000D01*
G01*
X0330998Y0314822D01*
G75*
G02*
X0330506Y0315314I0000000J0000492D01*
G01*
X0330506Y0316298D01*
G75*
G02*
X0330998Y0316790I0000492J0000000D01*
G01*
X0330998Y0316790D01*
G75*
G02*
X0331490Y0316298I0000000J-000492D01*
G01*
G37*
G36*
G01*
X0334088Y0316298D02*
X0334088Y0315314D01*
G75*
G02*
X0333596Y0314822I-000492J0000000D01*
G01*
X0333596Y0314822D01*
G75*
G02*
X0333104Y0315314I0000000J0000492D01*
G01*
X0333104Y0316298D01*
G75*
G02*
X0333596Y0316790I0000492J0000000D01*
G01*
X0333596Y0316790D01*
G75*
G02*
X0334088Y0316298I0000000J-000492D01*
G01*
G37*
G36*
G01*
X0336687Y0316298D02*
X0336687Y0315314D01*
G75*
G02*
X0336195Y0314822I-000492J0000000D01*
G01*
X0336195Y0314822D01*
G75*
G02*
X0335703Y0315314I0000000J0000492D01*
G01*
X0335703Y0316298D01*
G75*
G02*
X0336195Y0316790I0000492J0000000D01*
G01*
X0336195Y0316790D01*
G75*
G02*
X0336687Y0316298I0000000J-000492D01*
G01*
G37*
G36*
G01*
X0339285Y0316298D02*
X0339285Y0315314D01*
G75*
G02*
X0338793Y0314822I-000492J0000000D01*
G01*
X0338793Y0314822D01*
G75*
G02*
X0338301Y0315314I0000000J0000492D01*
G01*
X0338301Y0316298D01*
G75*
G02*
X0338793Y0316790I0000492J0000000D01*
G01*
X0338793Y0316790D01*
G75*
G02*
X0339285Y0316298I0000000J-000492D01*
G01*
G37*
G36*
G01*
X0345588Y0316298D02*
X0345588Y0315314D01*
G75*
G02*
X0345096Y0314822I-000492J0000000D01*
G01*
X0345096Y0314822D01*
G75*
G02*
X0344604Y0315314I0000000J0000492D01*
G01*
X0344604Y0316298D01*
G75*
G02*
X0345096Y0316790I0000492J0000000D01*
G01*
X0345096Y0316790D01*
G75*
G02*
X0345588Y0316298I0000000J-000492D01*
G01*
G37*
G36*
G01*
X0348187Y0316298D02*
X0348187Y0315314D01*
G75*
G02*
X0347695Y0314822I-000492J0000000D01*
G01*
X0347695Y0314822D01*
G75*
G02*
X0347203Y0315314I0000000J0000492D01*
G01*
X0347203Y0316298D01*
G75*
G02*
X0347695Y0316790I0000492J0000000D01*
G01*
X0347695Y0316790D01*
G75*
G02*
X0348187Y0316298I0000000J-000492D01*
G01*
G37*
G36*
G01*
X0350785Y0316298D02*
X0350785Y0315314D01*
G75*
G02*
X0350293Y0314822I-000492J0000000D01*
G01*
X0350293Y0314822D01*
G75*
G02*
X0349801Y0315314I0000000J0000492D01*
G01*
X0349801Y0316298D01*
G75*
G02*
X0350293Y0316790I0000492J0000000D01*
G01*
X0350293Y0316790D01*
G75*
G02*
X0350785Y0316298I0000000J-000492D01*
G01*
G37*
G36*
G01*
X0355198Y0316298D02*
X0355198Y0315314D01*
G75*
G02*
X0354706Y0314822I-000492J0000000D01*
G01*
X0354706Y0314822D01*
G75*
G02*
X0354214Y0315314I0000000J0000492D01*
G01*
X0354214Y0316298D01*
G75*
G02*
X0354706Y0316790I0000492J0000000D01*
G01*
X0354706Y0316790D01*
G75*
G02*
X0355198Y0316298I0000000J-000492D01*
G01*
G37*
G36*
G01*
X0357797Y0316298D02*
X0357797Y0315314D01*
G75*
G02*
X0357305Y0314822I-000492J0000000D01*
G01*
X0357305Y0314822D01*
G75*
G02*
X0356812Y0315314I0000000J0000492D01*
G01*
X0356812Y0316298D01*
G75*
G02*
X0357305Y0316790I0000492J0000000D01*
G01*
X0357305Y0316790D01*
G75*
G02*
X0357797Y0316298I0000000J-000492D01*
G01*
G37*
G36*
G01*
X0360395Y0316298D02*
X0360395Y0315314D01*
G75*
G02*
X0359903Y0314822I-000492J0000000D01*
G01*
X0359903Y0314822D01*
G75*
G02*
X0359411Y0315314I0000000J0000492D01*
G01*
X0359411Y0316298D01*
G75*
G02*
X0359903Y0316790I0000492J0000000D01*
G01*
X0359903Y0316790D01*
G75*
G02*
X0360395Y0316298I0000000J-000492D01*
G01*
G37*
G36*
G01*
X0362993Y0316298D02*
X0362993Y0315314D01*
G75*
G02*
X0362501Y0314822I-000492J0000000D01*
G01*
X0362501Y0314822D01*
G75*
G02*
X0362009Y0315314I0000000J0000492D01*
G01*
X0362009Y0316298D01*
G75*
G02*
X0362501Y0316790I0000492J0000000D01*
G01*
X0362501Y0316790D01*
G75*
G02*
X0362993Y0316298I0000000J-000492D01*
G01*
G37*
G36*
G01*
X0376088Y0316298D02*
X0376088Y0315314D01*
G75*
G02*
X0375596Y0314822I-000492J0000000D01*
G01*
X0375596Y0314822D01*
G75*
G02*
X0375104Y0315314I0000000J0000492D01*
G01*
X0375104Y0316298D01*
G75*
G02*
X0375596Y0316790I0000492J0000000D01*
G01*
X0375596Y0316790D01*
G75*
G02*
X0376088Y0316298I0000000J-000492D01*
G01*
G37*
G36*
G01*
X0378687Y0316298D02*
X0378687Y0315314D01*
G75*
G02*
X0378195Y0314822I-000492J0000000D01*
G01*
X0378195Y0314822D01*
G75*
G02*
X0377703Y0315314I0000000J0000492D01*
G01*
X0377703Y0316298D01*
G75*
G02*
X0378195Y0316790I0000492J0000000D01*
G01*
X0378195Y0316790D01*
G75*
G02*
X0378687Y0316298I0000000J-000492D01*
G01*
G37*
G36*
G01*
X0381285Y0316298D02*
X0381285Y0315314D01*
G75*
G02*
X0380793Y0314822I-000492J0000000D01*
G01*
X0380793Y0314822D01*
G75*
G02*
X0380301Y0315314I0000000J0000492D01*
G01*
X0380301Y0316298D01*
G75*
G02*
X0380793Y0316790I0000492J0000000D01*
G01*
X0380793Y0316790D01*
G75*
G02*
X0381285Y0316298I0000000J-000492D01*
G01*
G37*
G36*
G01*
X0391703Y0316298D02*
X0391703Y0315314D01*
G75*
G02*
X0391210Y0314822I-000492J0000000D01*
G01*
X0391210Y0314822D01*
G75*
G02*
X0390718Y0315314I0000000J0000492D01*
G01*
X0390718Y0316298D01*
G75*
G02*
X0391210Y0316790I0000492J0000000D01*
G01*
X0391210Y0316790D01*
G75*
G02*
X0391703Y0316298I0000000J-000492D01*
G01*
G37*
G36*
G01*
X0394301Y0316298D02*
X0394301Y0315314D01*
G75*
G02*
X0393809Y0314822I-000492J0000000D01*
G01*
X0393809Y0314822D01*
G75*
G02*
X0393317Y0315314I0000000J0000492D01*
G01*
X0393317Y0316298D01*
G75*
G02*
X0393809Y0316790I0000492J0000000D01*
G01*
X0393809Y0316790D01*
G75*
G02*
X0394301Y0316298I0000000J-000492D01*
G01*
G37*
G36*
G01*
X0396899Y0316298D02*
X0396899Y0315314D01*
G75*
G02*
X0396407Y0314822I-000492J0000000D01*
G01*
X0396407Y0314822D01*
G75*
G02*
X0395915Y0315314I0000000J0000492D01*
G01*
X0395915Y0316298D01*
G75*
G02*
X0396407Y0316790I0000492J0000000D01*
G01*
X0396407Y0316790D01*
G75*
G02*
X0396899Y0316298I0000000J-000492D01*
G01*
G37*
G36*
G01*
X0399498Y0316298D02*
X0399498Y0315314D01*
G75*
G02*
X0399006Y0314822I-000492J0000000D01*
G01*
X0399006Y0314822D01*
G75*
G02*
X0398514Y0315314I0000000J0000492D01*
G01*
X0398514Y0316298D01*
G75*
G02*
X0399006Y0316790I0000492J0000000D01*
G01*
X0399006Y0316790D01*
G75*
G02*
X0399498Y0316298I0000000J-000492D01*
G01*
G37*
G36*
G01*
X0402096Y0316298D02*
X0402096Y0315314D01*
G75*
G02*
X0401604Y0314822I-000492J0000000D01*
G01*
X0401604Y0314822D01*
G75*
G02*
X0401112Y0315314I0000000J0000492D01*
G01*
X0401112Y0316298D01*
G75*
G02*
X0401604Y0316790I0000492J0000000D01*
G01*
X0401604Y0316790D01*
G75*
G02*
X0402096Y0316298I0000000J-000492D01*
G01*
G37*
G36*
G01*
X0404695Y0316298D02*
X0404695Y0315314D01*
G75*
G02*
X0404203Y0314822I-000492J0000000D01*
G01*
X0404203Y0314822D01*
G75*
G02*
X0403710Y0315314I0000000J0000492D01*
G01*
X0403710Y0316298D01*
G75*
G02*
X0404203Y0316790I0000492J0000000D01*
G01*
X0404203Y0316790D01*
G75*
G02*
X0404695Y0316298I0000000J-000492D01*
G01*
G37*
G36*
G01*
X0407293Y0316298D02*
X0407293Y0315314D01*
G75*
G02*
X0406801Y0314822I-000492J0000000D01*
G01*
X0406801Y0314822D01*
G75*
G02*
X0406309Y0315314I0000000J0000492D01*
G01*
X0406309Y0316298D01*
G75*
G02*
X0406801Y0316790I0000492J0000000D01*
G01*
X0406801Y0316790D01*
G75*
G02*
X0407293Y0316298I0000000J-000492D01*
G01*
G37*
G36*
G01*
X0409892Y0316298D02*
X0409892Y0315314D01*
G75*
G02*
X0409399Y0314822I-000492J0000000D01*
G01*
X0409399Y0314822D01*
G75*
G02*
X0408907Y0315314I0000000J0000492D01*
G01*
X0408907Y0316298D01*
G75*
G02*
X0409399Y0316790I0000492J0000000D01*
G01*
X0409399Y0316790D01*
G75*
G02*
X0409892Y0316298I0000000J-000492D01*
G01*
G37*
G36*
G01*
X0412490Y0316298D02*
X0412490Y0315314D01*
G75*
G02*
X0411998Y0314822I-000492J0000000D01*
G01*
X0411998Y0314822D01*
G75*
G02*
X0411506Y0315314I0000000J0000492D01*
G01*
X0411506Y0316298D01*
G75*
G02*
X0411998Y0316790I0000492J0000000D01*
G01*
X0411998Y0316790D01*
G75*
G02*
X0412490Y0316298I0000000J-000492D01*
G01*
G37*
G36*
G01*
X0415088Y0316298D02*
X0415088Y0315314D01*
G75*
G02*
X0414596Y0314822I-000492J0000000D01*
G01*
X0414596Y0314822D01*
G75*
G02*
X0414104Y0315314I0000000J0000492D01*
G01*
X0414104Y0316298D01*
G75*
G02*
X0414596Y0316790I0000492J0000000D01*
G01*
X0414596Y0316790D01*
G75*
G02*
X0415088Y0316298I0000000J-000492D01*
G01*
G37*
X0399606Y0476378D03*
X0423228Y0505906D03*
X0251969Y0263780D03*
D248*
X0202756Y0471240D03*
X0202756Y0486240D03*
X0242126Y0471240D03*
X0242126Y0486240D03*
D40*
X0407480Y0251969D03*
D248*
X0212598Y0455886D03*
X0212598Y0470886D03*
X0261811Y0426752D03*
X0261811Y0441752D03*
D40*
X0470472Y0470472D03*
X0517717Y0488189D03*
X0479921Y0341772D03*
X0479921Y0351772D03*
X0479921Y0361772D03*
X0479921Y0371772D03*
X0479921Y0381772D03*
X0489921Y0341772D03*
X0489921Y0351772D03*
X0489921Y0361772D03*
X0489921Y0371772D03*
X0489921Y0381772D03*
X0192913Y0429921D03*
X0354331Y0435039D03*
X0342520Y0322835D03*
D131*
X0449065Y0043084D03*
X0452510Y0041017D03*
X0447884Y0038064D03*
X0448179Y0024088D03*
D40*
X0499921Y0241772D03*
X0499921Y0251772D03*
X0499921Y0261772D03*
X0499921Y0271772D03*
X0499921Y0281772D03*
X0509921Y0241772D03*
X0509921Y0251772D03*
X0509921Y0261772D03*
X0509921Y0271772D03*
X0509921Y0281772D03*
X0494094Y0505906D03*
X0312992Y0323228D03*
X0302362Y0260630D03*
D248*
X0271654Y0471240D03*
X0271654Y0486240D03*
X0108268Y0455098D03*
X0108268Y0470098D03*
D40*
X0206693Y0293307D03*
X0108268Y0486220D03*
X0192913Y0412598D03*
X0108268Y0301181D03*
X0108268Y0265748D03*
X0482283Y0488189D03*
D248*
X0129921Y0471220D03*
X0129921Y0486220D03*
D40*
X0303150Y0429921D03*
X0194882Y0293307D03*
D248*
X0303150Y0444075D03*
X0303150Y0459075D03*
X0387795Y0490531D03*
X0387795Y0505531D03*
X0364173Y0443661D03*
X0364173Y0458661D03*
D130*
X0124797Y0270960D03*
X0129741Y0270960D03*
D50*
X0155112Y0271452D03*
D212*
X0180506Y0272633D03*
D171*
X0184344Y0272239D03*
D212*
X0187769Y0272633D03*
X0190644Y0272633D03*
X0194166Y0272633D03*
X0202336Y0272633D03*
X0205879Y0272633D03*
X0208675Y0272633D03*
D171*
X0212691Y0272239D03*
X0217317Y0272239D03*
X0222632Y0272239D03*
X0227258Y0272239D03*
D237*
X0230801Y0268577D03*
X0230801Y0265842D03*
X0230801Y0263164D03*
D236*
X0230427Y0259936D03*
D237*
X0230801Y0254797D03*
D236*
X0230427Y0250979D03*
D237*
X0230801Y0245960D03*
X0230801Y0243401D03*
D236*
X0230427Y0238676D03*
X0230427Y0234444D03*
X0230427Y0230999D03*
D237*
X0230801Y0227751D03*
X0230801Y0204720D03*
D304*
X0231214Y0188755D03*
X0231214Y0186157D03*
X0231214Y0181983D03*
X0231214Y0179211D03*
X0231214Y0176062D03*
X0231214Y0172912D03*
X0231214Y0169779D03*
X0231214Y0161137D03*
X0231214Y0159405D03*
X0231214Y0157672D03*
X0231214Y0155940D03*
X0231214Y0154208D03*
X0231214Y0152476D03*
X0231214Y0150743D03*
X0231214Y0149011D03*
X0231214Y0144582D03*
X0231214Y0141984D03*
X0231214Y0139385D03*
X0231214Y0136787D03*
X0231214Y0123381D03*
X0231214Y0121649D03*
X0231214Y0119916D03*
X0231214Y0118184D03*
X0231214Y0116452D03*
X0231214Y0114720D03*
X0231214Y0112987D03*
D40*
X0212598Y0486220D03*
D248*
X0251969Y0471240D03*
X0251969Y0486240D03*
D40*
X0293307Y0486220D03*
X0435039Y0505906D03*
D131*
X0387966Y0053691D03*
X0385899Y0050246D03*
X0382946Y0054872D03*
X0368970Y0054577D03*
D40*
X0302362Y0271654D03*
X0446850Y0505906D03*
X0291339Y0271654D03*
D248*
X0261811Y0471240D03*
X0261811Y0486240D03*
D40*
X0109252Y0025591D03*
D42*
X0413386Y0370079D03*
D49*
X0077165Y0086024D03*
X0077165Y0201378D03*
X0440482Y0317243D02*
G01*
G75*
D339*
X0319813Y0312998D02*
D03*
X0319813Y0292211D02*
D03*
X0319813Y0294809D02*
D03*
X0319813Y0297408D02*
D03*
X0319813Y0300006D02*
D03*
D338*
X0420088Y0260837D02*
D03*
X0424419Y0260837D02*
D03*
X0428750Y0260837D02*
D03*
X0433080Y0260837D02*
D03*
X0325801Y0315806D02*
D03*
X0328399Y0315806D02*
D03*
X0330998Y0315806D02*
D03*
X0333596Y0315806D02*
D03*
X0336195Y0315806D02*
D03*
X0338793Y0315806D02*
D03*
X0345096Y0315806D02*
D03*
X0347695Y0315806D02*
D03*
X0350293Y0315806D02*
D03*
X0354706Y0315806D02*
D03*
X0357304Y0315806D02*
D03*
X0359903Y0315806D02*
D03*
X0362501Y0315806D02*
D03*
X0375596Y0315806D02*
D03*
X0378195Y0315806D02*
D03*
X0380793Y0315806D02*
D03*
X0391210Y0315806D02*
D03*
X0393809Y0315806D02*
D03*
X0396407Y0315806D02*
D03*
X0399006Y0315806D02*
D03*
X0401604Y0315806D02*
D03*
X0404202Y0315806D02*
D03*
X0406801Y0315806D02*
D03*
X0409399Y0315806D02*
D03*
X0411998Y0315806D02*
D03*
X0414596Y0315806D02*
D03*
X0415758Y0260837D02*
D03*
X0411427Y0260837D02*
D03*
X0407096Y0260837D02*
D03*
X0402766Y0260837D02*
D03*
X0398435Y0260837D02*
D03*
X0394104Y0260837D02*
D03*
X0389773Y0260837D02*
D03*
X0385443Y0260837D02*
D03*
X0381112Y0260837D02*
D03*
X0376781Y0260837D02*
D03*
X0372451Y0260837D02*
D03*
X0368120Y0260837D02*
D03*
X0363789Y0260837D02*
D03*
X0359458Y0260837D02*
D03*
X0355128Y0260837D02*
D03*
X0350797Y0260837D02*
D03*
X0346466Y0260837D02*
D03*
X0342136Y0260837D02*
D03*
X0337805Y0260837D02*
D03*
X0333474Y0260837D02*
D03*
X0329144Y0260837D02*
D03*
X0324813Y0260837D02*
D03*
X0546503Y0021771D02*
G01*
G75*
D89*
X0496995Y0028070D02*
D03*
X0498176Y0044114D02*
D03*
X0525243Y0051397D02*
D03*
X0522684Y0046240D02*
D03*
X0516286Y0044468D02*
D03*
X0517566Y0051397D02*
D03*
X0512940Y0044173D02*
D03*
X0509495Y0043326D02*
D03*
X0507330Y0051397D02*
D03*
X0505657Y0044173D02*
D03*
X0440896Y0245093D02*
G01*
G75*
D103*
X0271471Y0150172D02*
D03*
X0263471Y0150172D02*
D03*
X0267471Y0130172D02*
D03*
D339*
X0439026Y0103912D02*
D03*
X0439026Y0101313D02*
D03*
X0439026Y0124699D02*
D03*
X0439026Y0122101D02*
D03*
X0439026Y0119502D02*
D03*
X0439026Y0116904D02*
D03*
X0439026Y0114306D02*
D03*
X0439026Y0111707D02*
D03*
X0439026Y0109109D02*
D03*
X0439026Y0106510D02*
D03*
X0259786Y0193184D02*
D03*
X0259786Y0190585D02*
D03*
X0259786Y0187987D02*
D03*
X0259786Y0185388D02*
D03*
X0259786Y0182790D02*
D03*
X0259786Y0180191D02*
D03*
X0259786Y0177593D02*
D03*
X0259786Y0174995D02*
D03*
X0259786Y0172396D02*
D03*
X0259786Y0169798D02*
D03*
X0259786Y0167199D02*
D03*
X0259786Y0164601D02*
D03*
X0259786Y0162002D02*
D03*
X0259786Y0159404D02*
D03*
X0259786Y0156806D02*
D03*
X0259786Y0154207D02*
D03*
X0259786Y0151609D02*
D03*
X0259786Y0149010D02*
D03*
X0259786Y0146412D02*
D03*
X0259786Y0143814D02*
D03*
X0259786Y0141215D02*
D03*
X0259786Y0128223D02*
D03*
X0259786Y0117829D02*
D03*
X0259786Y0120428D02*
D03*
X0259786Y0123026D02*
D03*
X0259786Y0125625D02*
D03*
X0259786Y0213971D02*
D03*
X0259786Y0211373D02*
D03*
X0259786Y0208774D02*
D03*
X0259786Y0206176D02*
D03*
X0259786Y0203577D02*
D03*
X0259786Y0200979D02*
D03*
X0259786Y0198380D02*
D03*
X0259786Y0195782D02*
D03*
D338*
X0265207Y0101581D02*
D03*
X0433081Y0243034D02*
D03*
X0411427Y0243034D02*
D03*
X0407097Y0243034D02*
D03*
X0282530Y0101581D02*
D03*
X0286861Y0101581D02*
D03*
X0291191Y0101581D02*
D03*
X0295522Y0101581D02*
D03*
X0299853Y0101581D02*
D03*
X0304183Y0101581D02*
D03*
X0308514Y0101581D02*
D03*
X0312845Y0101581D02*
D03*
X0317176Y0101581D02*
D03*
X0321506Y0101581D02*
D03*
X0325837Y0101581D02*
D03*
X0330168Y0101581D02*
D03*
X0334498Y0101581D02*
D03*
X0338829Y0101581D02*
D03*
X0343160Y0101581D02*
D03*
X0347491Y0101581D02*
D03*
X0351821Y0101581D02*
D03*
X0356152Y0101581D02*
D03*
X0360483Y0101581D02*
D03*
X0364813Y0101581D02*
D03*
X0369144Y0101581D02*
D03*
X0372195Y0101581D02*
D03*
X0393435Y0101581D02*
D03*
X0388238Y0101581D02*
D03*
X0383042Y0101581D02*
D03*
X0377431Y0101581D02*
D03*
X0402766Y0243034D02*
D03*
X0398435Y0243034D02*
D03*
X0394105Y0243034D02*
D03*
X0389774Y0243034D02*
D03*
X0385443Y0243034D02*
D03*
X0381112Y0243034D02*
D03*
X0376782Y0243034D02*
D03*
X0372451Y0243034D02*
D03*
X0368120Y0243034D02*
D03*
X0363790Y0243034D02*
D03*
X0359459Y0243034D02*
D03*
X0355128Y0243034D02*
D03*
X0350797Y0243034D02*
D03*
X0346467Y0243034D02*
D03*
X0342136Y0243034D02*
D03*
X0337805Y0243034D02*
D03*
X0333475Y0243034D02*
D03*
X0329144Y0243034D02*
D03*
X0324813Y0243034D02*
D03*
X0320483Y0243034D02*
D03*
X0316152Y0243034D02*
D03*
X0311821Y0243034D02*
D03*
X0292766Y0243034D02*
D03*
X0297963Y0243034D02*
D03*
X0303160Y0243034D02*
D03*
X0307491Y0243034D02*
D03*
X0428750Y0243034D02*
D03*
X0424419Y0243034D02*
D03*
X0420089Y0243034D02*
D03*
X0415758Y0243034D02*
D03*
X0269538Y0101581D02*
D03*
X0273869Y0101581D02*
D03*
X0278199Y0101581D02*
D03*
X0380049Y0101581D02*
D03*
X0374813Y0101581D02*
D03*
X0266191Y0032716D02*
G01*
G75*
D89*
X0279675Y0086161D02*
D03*
X0307136Y0064212D02*
D03*
X0324459Y0064212D02*
D03*
X0315699Y0064212D02*
D03*
X0285876Y0066850D02*
D03*
X0302510Y0064212D02*
D03*
X0335892Y0066886D02*
D03*
X0232283Y0274163D02*
G01*
G75*
D188*
X0124797Y0270959D02*
D03*
X0129741Y0270959D02*
D03*
D151*
X0230427Y0230999D02*
D03*
X0230427Y0234444D02*
D03*
X0230427Y0238676D02*
D03*
X0230427Y0250979D02*
D03*
X0230427Y0259936D02*
D03*
D294*
X0231214Y0112987D02*
D03*
X0231214Y0114719D02*
D03*
X0231214Y0116451D02*
D03*
X0231214Y0118184D02*
D03*
X0231214Y0119916D02*
D03*
X0231214Y0121648D02*
D03*
X0231214Y0123381D02*
D03*
X0231214Y0136786D02*
D03*
X0231214Y0139385D02*
D03*
X0231214Y0141983D02*
D03*
X0231214Y0144582D02*
D03*
X0231214Y0149011D02*
D03*
X0231214Y0150743D02*
D03*
X0231214Y0152475D02*
D03*
X0231214Y0154207D02*
D03*
X0231214Y0155940D02*
D03*
X0231214Y0157672D02*
D03*
X0231214Y0159404D02*
D03*
X0231214Y0161137D02*
D03*
X0231214Y0169778D02*
D03*
X0231214Y0172912D02*
D03*
X0231214Y0176061D02*
D03*
X0231214Y0179211D02*
D03*
X0231214Y0188755D02*
D03*
X0231214Y0186156D02*
D03*
X0231214Y0181983D02*
D03*
D177*
X0230800Y0204719D02*
D03*
X0230800Y0227751D02*
D03*
X0230800Y0268577D02*
D03*
X0230800Y0265841D02*
D03*
X0230800Y0263163D02*
D03*
X0230800Y0254797D02*
D03*
X0230800Y0245959D02*
D03*
X0230800Y0243400D02*
D03*
D30*
X0227257Y0272239D02*
D03*
X0222631Y0272239D02*
D03*
X0217316Y0272239D02*
D03*
X0212690Y0272239D02*
D03*
X0184344Y0272239D02*
D03*
D198*
X0155112Y0271451D02*
D03*
D72*
X0180505Y0272633D02*
D03*
X0187768Y0272633D02*
D03*
X0194166Y0272633D02*
D03*
X0208675Y0272633D02*
D03*
X0205878Y0272633D02*
D03*
X0202335Y0272633D02*
D03*
X0190643Y0272633D02*
D03*
X0479380Y0048497D02*
G01*
G75*
D89*
X0448179Y0024088D02*
D03*
X0447884Y0038064D02*
D03*
X0449065Y0043084D02*
D03*
X0452510Y0041017D02*
D03*
X0250689Y0023524D02*
G01*
G75*
D233*
X0223346Y0071181D02*
D03*
X0233346Y0071181D02*
D03*
X0223346Y0061181D02*
D03*
X0233346Y0061181D02*
D03*
X0223346Y0051181D02*
D03*
X0233346Y0051181D02*
D03*
X0223346Y0041181D02*
D03*
X0233346Y0041181D02*
D03*
X0223346Y0031181D02*
D03*
D263*
X0233346Y0031181D02*
D03*
D524*
X0249114Y0069685D02*
D03*
X0249114Y0065355D02*
D03*
X0249114Y0061024D02*
D03*
X0249114Y0056693D02*
D03*
X0249114Y0052363D02*
D03*
X0249114Y0048032D02*
D03*
X0383022Y0433852D02*
G01*
G75*
X0309512Y0341881D02*
G01*
G75*
D89*
X0284541Y0307855D02*
D03*
X0252228Y0282039D02*
D03*
X0277130Y0309794D02*
D03*
X0306067Y0314224D02*
D03*
X0284610Y0287255D02*
D03*
X0451624Y0358711D02*
G01*
G75*
D89*
X0344931Y0331546D02*
D03*
X0302018Y0331546D02*
D03*
X0443652Y0346506D02*
D03*
X0400837Y0331546D02*
D03*
X0449117Y0331546D02*
D03*
X0393379Y0023376D02*
G01*
G75*
D89*
X0368970Y0054577D02*
D03*
X0382946Y0054872D02*
D03*
X0387966Y0053691D02*
D03*
X0385899Y0050246D02*
D03*
M02*
