G75*
G70*
%OFA0B0*%
%FSLAX25Y25*%
%IPPOS*%
%LPD*%
%AMOC8*
5,1,8,0,0,1.08239X$1,22.5*
%
%AMM152*
21,1,0.033470,0.026770,-0.000000,0.000000,0.000000*
21,1,0.026770,0.033470,-0.000000,0.000000,0.000000*
1,1,0.006690,0.013390,-0.013390*
1,1,0.006690,-0.013390,-0.013390*
1,1,0.006690,-0.013390,0.013390*
1,1,0.006690,0.013390,0.013390*
%
%AMM155*
21,1,0.027560,0.030710,-0.000000,0.000000,90.000000*
21,1,0.022050,0.036220,-0.000000,0.000000,90.000000*
1,1,0.005510,0.015350,0.011020*
1,1,0.005510,0.015350,-0.011020*
1,1,0.005510,-0.015350,-0.011020*
1,1,0.005510,-0.015350,0.011020*
%
%AMM157*
21,1,0.033470,0.026770,-0.000000,0.000000,270.000000*
21,1,0.026770,0.033470,-0.000000,0.000000,270.000000*
1,1,0.006690,-0.013390,-0.013390*
1,1,0.006690,-0.013390,0.013390*
1,1,0.006690,0.013390,0.013390*
1,1,0.006690,0.013390,-0.013390*
%
%AMM174*
21,1,0.035430,0.050000,-0.000000,-0.000000,90.000000*
21,1,0.028350,0.057090,-0.000000,-0.000000,90.000000*
1,1,0.007090,0.025000,0.014170*
1,1,0.007090,0.025000,-0.014170*
1,1,0.007090,-0.025000,-0.014170*
1,1,0.007090,-0.025000,0.014170*
%
%AMM175*
21,1,0.086610,0.073230,-0.000000,-0.000000,90.000000*
21,1,0.069290,0.090550,-0.000000,-0.000000,90.000000*
1,1,0.017320,0.036610,0.034650*
1,1,0.017320,0.036610,-0.034650*
1,1,0.017320,-0.036610,-0.034650*
1,1,0.017320,-0.036610,0.034650*
%
%AMM176*
21,1,0.027560,0.030710,-0.000000,-0.000000,270.000000*
21,1,0.022050,0.036220,-0.000000,-0.000000,270.000000*
1,1,0.005510,-0.015350,-0.011020*
1,1,0.005510,-0.015350,0.011020*
1,1,0.005510,0.015350,0.011020*
1,1,0.005510,0.015350,-0.011020*
%
%AMM178*
21,1,0.025590,0.026380,-0.000000,-0.000000,180.000000*
21,1,0.020470,0.031500,-0.000000,-0.000000,180.000000*
1,1,0.005120,-0.010240,0.013190*
1,1,0.005120,0.010240,0.013190*
1,1,0.005120,0.010240,-0.013190*
1,1,0.005120,-0.010240,-0.013190*
%
%AMM179*
21,1,0.023620,0.030710,-0.000000,-0.000000,270.000000*
21,1,0.018900,0.035430,-0.000000,-0.000000,270.000000*
1,1,0.004720,-0.015350,-0.009450*
1,1,0.004720,-0.015350,0.009450*
1,1,0.004720,0.015350,0.009450*
1,1,0.004720,0.015350,-0.009450*
%
%AMM180*
21,1,0.033470,0.026770,-0.000000,-0.000000,90.000000*
21,1,0.026770,0.033470,-0.000000,-0.000000,90.000000*
1,1,0.006690,0.013390,0.013390*
1,1,0.006690,0.013390,-0.013390*
1,1,0.006690,-0.013390,-0.013390*
1,1,0.006690,-0.013390,0.013390*
%
%AMM181*
21,1,0.017720,0.027950,-0.000000,-0.000000,180.000000*
21,1,0.014170,0.031500,-0.000000,-0.000000,180.000000*
1,1,0.003540,-0.007090,0.013980*
1,1,0.003540,0.007090,0.013980*
1,1,0.003540,0.007090,-0.013980*
1,1,0.003540,-0.007090,-0.013980*
%
%AMM182*
21,1,0.039370,0.049210,-0.000000,-0.000000,270.000000*
21,1,0.031500,0.057090,-0.000000,-0.000000,270.000000*
1,1,0.007870,-0.024610,-0.015750*
1,1,0.007870,-0.024610,0.015750*
1,1,0.007870,0.024610,0.015750*
1,1,0.007870,0.024610,-0.015750*
%
%AMM183*
21,1,0.027560,0.030710,-0.000000,-0.000000,180.000000*
21,1,0.022050,0.036220,-0.000000,-0.000000,180.000000*
1,1,0.005510,-0.011020,0.015350*
1,1,0.005510,0.011020,0.015350*
1,1,0.005510,0.011020,-0.015350*
1,1,0.005510,-0.011020,-0.015350*
%
%AMM184*
21,1,0.039370,0.049210,-0.000000,-0.000000,0.000000*
21,1,0.031500,0.057090,-0.000000,-0.000000,0.000000*
1,1,0.007870,0.015750,-0.024610*
1,1,0.007870,-0.015750,-0.024610*
1,1,0.007870,-0.015750,0.024610*
1,1,0.007870,0.015750,0.024610*
%
%AMM186*
21,1,0.033470,0.026770,-0.000000,-0.000000,0.000000*
21,1,0.026770,0.033470,-0.000000,-0.000000,0.000000*
1,1,0.006690,0.013390,-0.013390*
1,1,0.006690,-0.013390,-0.013390*
1,1,0.006690,-0.013390,0.013390*
1,1,0.006690,0.013390,0.013390*
%
%AMM199*
21,1,0.033470,0.026770,-0.000000,0.000000,90.000000*
21,1,0.026770,0.033470,-0.000000,0.000000,90.000000*
1,1,0.006690,0.013390,0.013390*
1,1,0.006690,0.013390,-0.013390*
1,1,0.006690,-0.013390,-0.013390*
1,1,0.006690,-0.013390,0.013390*
%
%AMM200*
21,1,0.027560,0.030710,-0.000000,0.000000,0.000000*
21,1,0.022050,0.036220,-0.000000,0.000000,0.000000*
1,1,0.005510,0.011020,-0.015350*
1,1,0.005510,-0.011020,-0.015350*
1,1,0.005510,-0.011020,0.015350*
1,1,0.005510,0.011020,0.015350*
%
%AMM209*
21,1,0.027560,0.030710,-0.000000,0.000000,270.000000*
21,1,0.022050,0.036220,-0.000000,0.000000,270.000000*
1,1,0.005510,-0.015350,-0.011020*
1,1,0.005510,-0.015350,0.011020*
1,1,0.005510,0.015350,0.011020*
1,1,0.005510,0.015350,-0.011020*
%
%AMM213*
21,1,0.035430,0.030320,-0.000000,0.000000,270.000000*
21,1,0.028350,0.037400,-0.000000,0.000000,270.000000*
1,1,0.007090,-0.015160,-0.014170*
1,1,0.007090,-0.015160,0.014170*
1,1,0.007090,0.015160,0.014170*
1,1,0.007090,0.015160,-0.014170*
%
%AMM252*
21,1,0.027560,0.030710,-0.000000,-0.000000,0.000000*
21,1,0.022050,0.036220,-0.000000,-0.000000,0.000000*
1,1,0.005510,0.011020,-0.015350*
1,1,0.005510,-0.011020,-0.015350*
1,1,0.005510,-0.011020,0.015350*
1,1,0.005510,0.011020,0.015350*
%
%AMM255*
21,1,0.035830,0.026770,-0.000000,-0.000000,90.000000*
21,1,0.029130,0.033470,-0.000000,-0.000000,90.000000*
1,1,0.006690,0.013390,0.014570*
1,1,0.006690,0.013390,-0.014570*
1,1,0.006690,-0.013390,-0.014570*
1,1,0.006690,-0.013390,0.014570*
%
%AMM256*
21,1,0.035430,0.030320,-0.000000,-0.000000,0.000000*
21,1,0.028350,0.037400,-0.000000,-0.000000,0.000000*
1,1,0.007090,0.014170,-0.015160*
1,1,0.007090,-0.014170,-0.015160*
1,1,0.007090,-0.014170,0.015160*
1,1,0.007090,0.014170,0.015160*
%
%AMM257*
21,1,0.023620,0.030710,-0.000000,-0.000000,0.000000*
21,1,0.018900,0.035430,-0.000000,-0.000000,0.000000*
1,1,0.004720,0.009450,-0.015350*
1,1,0.004720,-0.009450,-0.015350*
1,1,0.004720,-0.009450,0.015350*
1,1,0.004720,0.009450,0.015350*
%
%AMM258*
21,1,0.035430,0.030320,-0.000000,-0.000000,90.000000*
21,1,0.028350,0.037400,-0.000000,-0.000000,90.000000*
1,1,0.007090,0.015160,0.014170*
1,1,0.007090,0.015160,-0.014170*
1,1,0.007090,-0.015160,-0.014170*
1,1,0.007090,-0.015160,0.014170*
%
%AMM261*
21,1,0.039370,0.035430,-0.000000,-0.000000,90.000000*
21,1,0.031500,0.043310,-0.000000,-0.000000,90.000000*
1,1,0.007870,0.017720,0.015750*
1,1,0.007870,0.017720,-0.015750*
1,1,0.007870,-0.017720,-0.015750*
1,1,0.007870,-0.017720,0.015750*
%
%AMM262*
21,1,0.043310,0.075990,-0.000000,-0.000000,180.000000*
21,1,0.034650,0.084650,-0.000000,-0.000000,180.000000*
1,1,0.008660,-0.017320,0.037990*
1,1,0.008660,0.017320,0.037990*
1,1,0.008660,0.017320,-0.037990*
1,1,0.008660,-0.017320,-0.037990*
%
%AMM264*
21,1,0.027560,0.030710,-0.000000,-0.000000,90.000000*
21,1,0.022050,0.036220,-0.000000,-0.000000,90.000000*
1,1,0.005510,0.015350,0.011020*
1,1,0.005510,0.015350,-0.011020*
1,1,0.005510,-0.015350,-0.011020*
1,1,0.005510,-0.015350,0.011020*
%
%AMM265*
21,1,0.027560,0.018900,-0.000000,-0.000000,0.000000*
21,1,0.022840,0.023620,-0.000000,-0.000000,0.000000*
1,1,0.004720,0.011420,-0.009450*
1,1,0.004720,-0.011420,-0.009450*
1,1,0.004720,-0.011420,0.009450*
1,1,0.004720,0.011420,0.009450*
%
%AMM266*
21,1,0.043310,0.075980,-0.000000,-0.000000,180.000000*
21,1,0.034650,0.084650,-0.000000,-0.000000,180.000000*
1,1,0.008660,-0.017320,0.037990*
1,1,0.008660,0.017320,0.037990*
1,1,0.008660,0.017320,-0.037990*
1,1,0.008660,-0.017320,-0.037990*
%
%AMM267*
21,1,0.137800,0.067720,-0.000000,-0.000000,180.000000*
21,1,0.120870,0.084650,-0.000000,-0.000000,180.000000*
1,1,0.016930,-0.060430,0.033860*
1,1,0.016930,0.060430,0.033860*
1,1,0.016930,0.060430,-0.033860*
1,1,0.016930,-0.060430,-0.033860*
%
%AMM268*
21,1,0.035830,0.026770,-0.000000,-0.000000,0.000000*
21,1,0.029130,0.033470,-0.000000,-0.000000,0.000000*
1,1,0.006690,0.014570,-0.013390*
1,1,0.006690,-0.014570,-0.013390*
1,1,0.006690,-0.014570,0.013390*
1,1,0.006690,0.014570,0.013390*
%
%AMM269*
21,1,0.027560,0.049610,-0.000000,-0.000000,90.000000*
21,1,0.022050,0.055120,-0.000000,-0.000000,90.000000*
1,1,0.005510,0.024800,0.011020*
1,1,0.005510,0.024800,-0.011020*
1,1,0.005510,-0.024800,-0.011020*
1,1,0.005510,-0.024800,0.011020*
%
%AMM270*
21,1,0.017720,0.027950,-0.000000,-0.000000,90.000000*
21,1,0.014170,0.031500,-0.000000,-0.000000,90.000000*
1,1,0.003540,0.013980,0.007090*
1,1,0.003540,0.013980,-0.007090*
1,1,0.003540,-0.013980,-0.007090*
1,1,0.003540,-0.013980,0.007090*
%
%AMM271*
21,1,0.025590,0.026380,-0.000000,-0.000000,90.000000*
21,1,0.020470,0.031500,-0.000000,-0.000000,90.000000*
1,1,0.005120,0.013190,0.010240*
1,1,0.005120,0.013190,-0.010240*
1,1,0.005120,-0.013190,-0.010240*
1,1,0.005120,-0.013190,0.010240*
%
%AMM293*
21,1,0.035430,0.030320,-0.000000,0.000000,90.000000*
21,1,0.028350,0.037400,-0.000000,0.000000,90.000000*
1,1,0.007090,0.015160,0.014170*
1,1,0.007090,0.015160,-0.014170*
1,1,0.007090,-0.015160,-0.014170*
1,1,0.007090,-0.015160,0.014170*
%
%AMM31*
21,1,0.027560,0.030710,0.000000,0.000000,270.000000*
21,1,0.022050,0.036220,0.000000,0.000000,270.000000*
1,1,0.005510,-0.015350,-0.011020*
1,1,0.005510,-0.015350,0.011020*
1,1,0.005510,0.015350,0.011020*
1,1,0.005510,0.015350,-0.011020*
%
%AMM313*
21,1,0.035430,0.030320,-0.000000,-0.000000,180.000000*
21,1,0.028350,0.037400,-0.000000,-0.000000,180.000000*
1,1,0.007090,-0.014170,0.015160*
1,1,0.007090,0.014170,0.015160*
1,1,0.007090,0.014170,-0.015160*
1,1,0.007090,-0.014170,-0.015160*
%
%AMM316*
21,1,0.035830,0.026770,-0.000000,-0.000000,270.000000*
21,1,0.029130,0.033470,-0.000000,-0.000000,270.000000*
1,1,0.006690,-0.013390,-0.014570*
1,1,0.006690,-0.013390,0.014570*
1,1,0.006690,0.013390,0.014570*
1,1,0.006690,0.013390,-0.014570*
%
%AMM317*
21,1,0.043310,0.075990,-0.000000,-0.000000,0.000000*
21,1,0.034650,0.084650,-0.000000,-0.000000,0.000000*
1,1,0.008660,0.017320,-0.037990*
1,1,0.008660,-0.017320,-0.037990*
1,1,0.008660,-0.017320,0.037990*
1,1,0.008660,0.017320,0.037990*
%
%AMM318*
21,1,0.043310,0.075980,-0.000000,-0.000000,0.000000*
21,1,0.034650,0.084650,-0.000000,-0.000000,0.000000*
1,1,0.008660,0.017320,-0.037990*
1,1,0.008660,-0.017320,-0.037990*
1,1,0.008660,-0.017320,0.037990*
1,1,0.008660,0.017320,0.037990*
%
%AMM319*
21,1,0.025590,0.026380,-0.000000,-0.000000,270.000000*
21,1,0.020470,0.031500,-0.000000,-0.000000,270.000000*
1,1,0.005120,-0.013190,-0.010240*
1,1,0.005120,-0.013190,0.010240*
1,1,0.005120,0.013190,0.010240*
1,1,0.005120,0.013190,-0.010240*
%
%AMM320*
21,1,0.137800,0.067720,-0.000000,-0.000000,0.000000*
21,1,0.120870,0.084650,-0.000000,-0.000000,0.000000*
1,1,0.016930,0.060430,-0.033860*
1,1,0.016930,-0.060430,-0.033860*
1,1,0.016930,-0.060430,0.033860*
1,1,0.016930,0.060430,0.033860*
%
%AMM321*
21,1,0.017720,0.027950,-0.000000,-0.000000,270.000000*
21,1,0.014170,0.031500,-0.000000,-0.000000,270.000000*
1,1,0.003540,-0.013980,-0.007090*
1,1,0.003540,-0.013980,0.007090*
1,1,0.003540,0.013980,0.007090*
1,1,0.003540,0.013980,-0.007090*
%
%AMM322*
21,1,0.070870,0.036220,-0.000000,-0.000000,180.000000*
21,1,0.061810,0.045280,-0.000000,-0.000000,180.000000*
1,1,0.009060,-0.030910,0.018110*
1,1,0.009060,0.030910,0.018110*
1,1,0.009060,0.030910,-0.018110*
1,1,0.009060,-0.030910,-0.018110*
%
%AMM332*
21,1,0.033470,0.026770,-0.000000,-0.000000,180.000000*
21,1,0.026770,0.033470,-0.000000,-0.000000,180.000000*
1,1,0.006690,-0.013390,0.013390*
1,1,0.006690,0.013390,0.013390*
1,1,0.006690,0.013390,-0.013390*
1,1,0.006690,-0.013390,-0.013390*
%
%AMM342*
21,1,0.035830,0.026770,-0.000000,0.000000,90.000000*
21,1,0.029130,0.033470,-0.000000,0.000000,90.000000*
1,1,0.006690,0.013390,0.014570*
1,1,0.006690,0.013390,-0.014570*
1,1,0.006690,-0.013390,-0.014570*
1,1,0.006690,-0.013390,0.014570*
%
%AMM350*
21,1,0.021650,0.052760,0.000000,-0.000000,180.000000*
21,1,0.017320,0.057090,0.000000,-0.000000,180.000000*
1,1,0.004330,-0.008660,0.026380*
1,1,0.004330,0.008660,0.026380*
1,1,0.004330,0.008660,-0.026380*
1,1,0.004330,-0.008660,-0.026380*
%
%AMM351*
21,1,0.027560,0.030710,0.000000,-0.000000,90.000000*
21,1,0.022050,0.036220,0.000000,-0.000000,90.000000*
1,1,0.005510,0.015350,0.011020*
1,1,0.005510,0.015350,-0.011020*
1,1,0.005510,-0.015350,-0.011020*
1,1,0.005510,-0.015350,0.011020*
%
%AMM352*
21,1,0.027560,0.030710,0.000000,-0.000000,180.000000*
21,1,0.022050,0.036220,0.000000,-0.000000,180.000000*
1,1,0.005510,-0.011020,0.015350*
1,1,0.005510,0.011020,0.015350*
1,1,0.005510,0.011020,-0.015350*
1,1,0.005510,-0.011020,-0.015350*
%
%AMM353*
21,1,0.033470,0.026770,0.000000,-0.000000,180.000000*
21,1,0.026770,0.033470,0.000000,-0.000000,180.000000*
1,1,0.006690,-0.013390,0.013390*
1,1,0.006690,0.013390,0.013390*
1,1,0.006690,0.013390,-0.013390*
1,1,0.006690,-0.013390,-0.013390*
%
%AMM371*
21,1,0.035430,0.030320,-0.000000,-0.000000,270.000000*
21,1,0.028350,0.037400,-0.000000,-0.000000,270.000000*
1,1,0.007090,-0.015160,-0.014170*
1,1,0.007090,-0.015160,0.014170*
1,1,0.007090,0.015160,0.014170*
1,1,0.007090,0.015160,-0.014170*
%
%AMM373*
21,1,0.021650,0.052760,-0.000000,-0.000000,180.000000*
21,1,0.017320,0.057090,-0.000000,-0.000000,180.000000*
1,1,0.004330,-0.008660,0.026380*
1,1,0.004330,0.008660,0.026380*
1,1,0.004330,0.008660,-0.026380*
1,1,0.004330,-0.008660,-0.026380*
%
%AMM374*
21,1,0.023620,0.018900,-0.000000,-0.000000,90.000000*
21,1,0.018900,0.023620,-0.000000,-0.000000,90.000000*
1,1,0.004720,0.009450,0.009450*
1,1,0.004720,0.009450,-0.009450*
1,1,0.004720,-0.009450,-0.009450*
1,1,0.004720,-0.009450,0.009450*
%
%AMM375*
21,1,0.094490,0.111020,-0.000000,-0.000000,0.000000*
21,1,0.075590,0.129920,-0.000000,-0.000000,0.000000*
1,1,0.018900,0.037800,-0.055510*
1,1,0.018900,-0.037800,-0.055510*
1,1,0.018900,-0.037800,0.055510*
1,1,0.018900,0.037800,0.055510*
%
%AMM376*
21,1,0.023620,0.018900,-0.000000,-0.000000,0.000000*
21,1,0.018900,0.023620,-0.000000,-0.000000,0.000000*
1,1,0.004720,0.009450,-0.009450*
1,1,0.004720,-0.009450,-0.009450*
1,1,0.004720,-0.009450,0.009450*
1,1,0.004720,0.009450,0.009450*
%
%AMM377*
21,1,0.035830,0.026770,-0.000000,-0.000000,180.000000*
21,1,0.029130,0.033470,-0.000000,-0.000000,180.000000*
1,1,0.006690,-0.014570,0.013390*
1,1,0.006690,0.014570,0.013390*
1,1,0.006690,0.014570,-0.013390*
1,1,0.006690,-0.014570,-0.013390*
%
%AMM378*
21,1,0.033470,0.026770,-0.000000,-0.000000,270.000000*
21,1,0.026770,0.033470,-0.000000,-0.000000,270.000000*
1,1,0.006690,-0.013390,-0.013390*
1,1,0.006690,-0.013390,0.013390*
1,1,0.006690,0.013390,0.013390*
1,1,0.006690,0.013390,-0.013390*
%
%AMM398*
21,1,0.106300,0.050390,-0.000000,-0.000000,180.000000*
21,1,0.093700,0.062990,-0.000000,-0.000000,180.000000*
1,1,0.012600,-0.046850,0.025200*
1,1,0.012600,0.046850,0.025200*
1,1,0.012600,0.046850,-0.025200*
1,1,0.012600,-0.046850,-0.025200*
%
%AMM399*
21,1,0.074800,0.083460,-0.000000,-0.000000,0.000000*
21,1,0.059840,0.098430,-0.000000,-0.000000,0.000000*
1,1,0.014960,0.029920,-0.041730*
1,1,0.014960,-0.029920,-0.041730*
1,1,0.014960,-0.029920,0.041730*
1,1,0.014960,0.029920,0.041730*
%
%AMM400*
21,1,0.078740,0.053540,-0.000000,-0.000000,0.000000*
21,1,0.065350,0.066930,-0.000000,-0.000000,0.000000*
1,1,0.013390,0.032680,-0.026770*
1,1,0.013390,-0.032680,-0.026770*
1,1,0.013390,-0.032680,0.026770*
1,1,0.013390,0.032680,0.026770*
%
%AMM401*
21,1,0.122050,0.075590,-0.000000,-0.000000,90.000000*
21,1,0.103150,0.094490,-0.000000,-0.000000,90.000000*
1,1,0.018900,0.037800,0.051580*
1,1,0.018900,0.037800,-0.051580*
1,1,0.018900,-0.037800,-0.051580*
1,1,0.018900,-0.037800,0.051580*
%
%AMM402*
21,1,0.086610,0.073230,-0.000000,-0.000000,270.000000*
21,1,0.069290,0.090550,-0.000000,-0.000000,270.000000*
1,1,0.017320,-0.036610,-0.034650*
1,1,0.017320,-0.036610,0.034650*
1,1,0.017320,0.036610,0.034650*
1,1,0.017320,0.036610,-0.034650*
%
%AMM403*
21,1,0.070870,0.036220,-0.000000,-0.000000,0.000000*
21,1,0.061810,0.045280,-0.000000,-0.000000,0.000000*
1,1,0.009060,0.030910,-0.018110*
1,1,0.009060,-0.030910,-0.018110*
1,1,0.009060,-0.030910,0.018110*
1,1,0.009060,0.030910,0.018110*
%
%AMM78*
21,1,0.078740,0.045670,0.000000,0.000000,270.000000*
21,1,0.067320,0.057090,0.000000,0.000000,270.000000*
1,1,0.011420,-0.022840,-0.033660*
1,1,0.011420,-0.022840,0.033660*
1,1,0.011420,0.022840,0.033660*
1,1,0.011420,0.022840,-0.033660*
%
%AMM79*
21,1,0.059060,0.020470,0.000000,0.000000,270.000000*
21,1,0.053940,0.025590,0.000000,0.000000,270.000000*
1,1,0.005120,-0.010240,-0.026970*
1,1,0.005120,-0.010240,0.026970*
1,1,0.005120,0.010240,0.026970*
1,1,0.005120,0.010240,-0.026970*
%
%AMM80*
21,1,0.033470,0.026770,0.000000,0.000000,90.000000*
21,1,0.026770,0.033470,0.000000,0.000000,90.000000*
1,1,0.006690,0.013390,0.013390*
1,1,0.006690,0.013390,-0.013390*
1,1,0.006690,-0.013390,-0.013390*
1,1,0.006690,-0.013390,0.013390*
%
%ADD115R,0.17913X0.20669*%
%ADD118R,0.05906X0.05118*%
%ADD12O,0.05118X0.00866*%
%ADD132C,0.02362*%
%ADD136O,0.02362X0.08661*%
%ADD146R,0.01476X0.01378*%
%ADD151M78*%
%ADD155R,0.30000X0.45000*%
%ADD160R,0.18110X0.04331*%
%ADD161O,0.00000X0.00000*%
%ADD162C,0.03150*%
%ADD183M31*%
%ADD19M79*%
%ADD191R,0.07874X0.05906*%
%ADD217R,0.20000X0.08000*%
%ADD223R,0.01378X0.01476*%
%ADD240R,0.06693X0.09449*%
%ADD242M80*%
%ADD246R,0.03543X0.04724*%
%ADD266O,0.00866X0.05118*%
%ADD272O,0.01968X0.03937*%
%ADD287O,0.08661X0.02362*%
%ADD297R,0.04724X0.03543*%
%ADD320M152*%
%ADD323M155*%
%ADD325M157*%
%ADD342M174*%
%ADD343M175*%
%ADD344M176*%
%ADD346M178*%
%ADD347M179*%
%ADD348M180*%
%ADD349M181*%
%ADD350M182*%
%ADD351M183*%
%ADD352M184*%
%ADD354M186*%
%ADD367O,0.00984X0.04961*%
%ADD368M199*%
%ADD369M200*%
%ADD380M209*%
%ADD384M213*%
%ADD41O,0.04331X0.01181*%
%ADD429M252*%
%ADD432M255*%
%ADD433M256*%
%ADD434M257*%
%ADD435M258*%
%ADD438M261*%
%ADD439M262*%
%ADD441M264*%
%ADD442M265*%
%ADD443M266*%
%ADD444M267*%
%ADD445M268*%
%ADD446M269*%
%ADD447M270*%
%ADD448M271*%
%ADD476M293*%
%ADD505M313*%
%ADD508M316*%
%ADD509M317*%
%ADD510M318*%
%ADD511M319*%
%ADD512M320*%
%ADD513M321*%
%ADD514M322*%
%ADD524M332*%
%ADD533O,0.11221X0.04016*%
%ADD535M342*%
%ADD544M350*%
%ADD545M351*%
%ADD546M352*%
%ADD547M353*%
%ADD573M371*%
%ADD575M373*%
%ADD576M374*%
%ADD577M375*%
%ADD578M376*%
%ADD579M377*%
%ADD580M378*%
%ADD608M398*%
%ADD609M399*%
%ADD610M400*%
%ADD611M401*%
%ADD612M402*%
%ADD613M403*%
%ADD85R,0.07874X0.14961*%
%ADD88O,0.08661X0.01968*%
%ADD92R,0.08661X0.03150*%
X0000000Y0000000D02*
%LPD*%
G01*
G36*
G01*
X0308465Y0443346D02*
X0308465Y0446417D01*
G75*
G02*
X0308740Y0446693I0000276J0000000D01*
G01*
X0310945Y0446693D01*
G75*
G02*
X0311220Y0446417I0000000J-000276D01*
G01*
X0311220Y0443346D01*
G75*
G02*
X0310945Y0443071I-000276J0000000D01*
G01*
X0308740Y0443071D01*
G75*
G02*
X0308465Y0443346I0000000J0000276D01*
G01*
G37*
G36*
G01*
X0314764Y0443346D02*
X0314764Y0446417D01*
G75*
G02*
X0315039Y0446693I0000276J0000000D01*
G01*
X0317244Y0446693D01*
G75*
G02*
X0317520Y0446417I0000000J-000276D01*
G01*
X0317520Y0443346D01*
G75*
G02*
X0317244Y0443071I-000276J0000000D01*
G01*
X0315039Y0443071D01*
G75*
G02*
X0314764Y0443346I0000000J0000276D01*
G01*
G37*
G36*
G01*
X0132382Y0418701D02*
X0127461Y0418701D01*
G75*
G02*
X0127067Y0419094I0000000J0000394D01*
G01*
X0127067Y0422244D01*
G75*
G02*
X0127461Y0422638I0000394J0000000D01*
G01*
X0132382Y0422638D01*
G75*
G02*
X0132776Y0422244I0000000J-000394D01*
G01*
X0132776Y0419094D01*
G75*
G02*
X0132382Y0418701I-000394J0000000D01*
G01*
G37*
G36*
G01*
X0132382Y0426181D02*
X0127461Y0426181D01*
G75*
G02*
X0127067Y0426575I0000000J0000394D01*
G01*
X0127067Y0429724D01*
G75*
G02*
X0127461Y0430118I0000394J0000000D01*
G01*
X0132382Y0430118D01*
G75*
G02*
X0132776Y0429724I0000000J-000394D01*
G01*
X0132776Y0426575D01*
G75*
G02*
X0132382Y0426181I-000394J0000000D01*
G01*
G37*
G36*
G01*
X0608415Y0190650D02*
X0608415Y0179429D01*
G75*
G02*
X0607431Y0178445I-000984J0000000D01*
G01*
X0604577Y0178445D01*
G75*
G02*
X0603593Y0179429I0000000J0000984D01*
G01*
X0603593Y0190650D01*
G75*
G02*
X0604577Y0191634I0000984J0000000D01*
G01*
X0607431Y0191634D01*
G75*
G02*
X0608415Y0190650I0000000J-000984D01*
G01*
G37*
G36*
G01*
X0585089Y0190650D02*
X0585089Y0179429D01*
G75*
G02*
X0584104Y0178445I-000984J0000000D01*
G01*
X0581250Y0178445D01*
G75*
G02*
X0580266Y0179429I0000000J0000984D01*
G01*
X0580266Y0190650D01*
G75*
G02*
X0581250Y0191634I0000984J0000000D01*
G01*
X0584104Y0191634D01*
G75*
G02*
X0585089Y0190650I0000000J-000984D01*
G01*
G37*
G36*
G01*
X0331102Y0480728D02*
X0331102Y0483445D01*
G75*
G02*
X0332008Y0484350I0000906J0000000D01*
G01*
X0337283Y0484350D01*
G75*
G02*
X0338189Y0483445I0000000J-000906D01*
G01*
X0338189Y0480728D01*
G75*
G02*
X0337283Y0479823I-000906J0000000D01*
G01*
X0332008Y0479823D01*
G75*
G02*
X0331102Y0480728I0000000J0000906D01*
G01*
G37*
G36*
G01*
X0331102Y0469311D02*
X0331102Y0472028D01*
G75*
G02*
X0332008Y0472933I0000906J0000000D01*
G01*
X0337283Y0472933D01*
G75*
G02*
X0338189Y0472028I0000000J-000906D01*
G01*
X0338189Y0469311D01*
G75*
G02*
X0337283Y0468405I-000906J0000000D01*
G01*
X0332008Y0468405D01*
G75*
G02*
X0331102Y0469311I0000000J0000906D01*
G01*
G37*
G36*
G01*
X0291969Y0407106D02*
X0294646Y0407106D01*
G75*
G02*
X0294980Y0406772I0000000J-000335D01*
G01*
X0294980Y0404094D01*
G75*
G02*
X0294646Y0403760I-000335J0000000D01*
G01*
X0291969Y0403760D01*
G75*
G02*
X0291634Y0404094I0000000J0000335D01*
G01*
X0291634Y0406772D01*
G75*
G02*
X0291969Y0407106I0000335J0000000D01*
G01*
G37*
G36*
G01*
X0291969Y0400886D02*
X0294646Y0400886D01*
G75*
G02*
X0294980Y0400551I0000000J-000335D01*
G01*
X0294980Y0397874D01*
G75*
G02*
X0294646Y0397539I-000335J0000000D01*
G01*
X0291969Y0397539D01*
G75*
G02*
X0291634Y0397874I0000000J0000335D01*
G01*
X0291634Y0400551D01*
G75*
G02*
X0291969Y0400886I0000335J0000000D01*
G01*
G37*
D115*
X0557677Y0100394D03*
X0576772Y0122244D03*
X0557677Y0122244D03*
X0576772Y0100394D03*
D160*
X0603248Y0101319D03*
X0603248Y0121319D03*
G36*
G01*
X0339173Y0419724D02*
X0339173Y0422795D01*
G75*
G02*
X0339449Y0423071I0000276J0000000D01*
G01*
X0341654Y0423071D01*
G75*
G02*
X0341929Y0422795I0000000J-000276D01*
G01*
X0341929Y0419724D01*
G75*
G02*
X0341654Y0419449I-000276J0000000D01*
G01*
X0339449Y0419449D01*
G75*
G02*
X0339173Y0419724I0000000J0000276D01*
G01*
G37*
G36*
G01*
X0345472Y0419724D02*
X0345472Y0422795D01*
G75*
G02*
X0345748Y0423071I0000276J0000000D01*
G01*
X0347953Y0423071D01*
G75*
G02*
X0348228Y0422795I0000000J-000276D01*
G01*
X0348228Y0419724D01*
G75*
G02*
X0347953Y0419449I-000276J0000000D01*
G01*
X0345748Y0419449D01*
G75*
G02*
X0345472Y0419724I0000000J0000276D01*
G01*
G37*
G36*
G01*
X0210039Y0375236D02*
X0210039Y0378307D01*
G75*
G02*
X0210315Y0378583I0000276J0000000D01*
G01*
X0212520Y0378583D01*
G75*
G02*
X0212795Y0378307I0000000J-000276D01*
G01*
X0212795Y0375236D01*
G75*
G02*
X0212520Y0374961I-000276J0000000D01*
G01*
X0210315Y0374961D01*
G75*
G02*
X0210039Y0375236I0000000J0000276D01*
G01*
G37*
G36*
G01*
X0216339Y0375236D02*
X0216339Y0378307D01*
G75*
G02*
X0216614Y0378583I0000276J0000000D01*
G01*
X0218819Y0378583D01*
G75*
G02*
X0219094Y0378307I0000000J-000276D01*
G01*
X0219094Y0375236D01*
G75*
G02*
X0218819Y0374961I-000276J0000000D01*
G01*
X0216614Y0374961D01*
G75*
G02*
X0216339Y0375236I0000000J0000276D01*
G01*
G37*
G36*
G01*
X0116929Y0325433D02*
X0116929Y0327323D01*
G75*
G02*
X0117165Y0327559I0000236J0000000D01*
G01*
X0119055Y0327559D01*
G75*
G02*
X0119291Y0327323I0000000J-000236D01*
G01*
X0119291Y0325433D01*
G75*
G02*
X0119055Y0325197I-000236J0000000D01*
G01*
X0117165Y0325197D01*
G75*
G02*
X0116929Y0325433I0000000J0000236D01*
G01*
G37*
G36*
G01*
X0116929Y0334094D02*
X0116929Y0335984D01*
G75*
G02*
X0117165Y0336220I0000236J0000000D01*
G01*
X0119055Y0336220D01*
G75*
G02*
X0119291Y0335984I0000000J-000236D01*
G01*
X0119291Y0334094D01*
G75*
G02*
X0119055Y0333858I-000236J0000000D01*
G01*
X0117165Y0333858D01*
G75*
G02*
X0116929Y0334094I0000000J0000236D01*
G01*
G37*
G36*
G01*
X0165846Y0440748D02*
X0160925Y0440748D01*
G75*
G02*
X0160531Y0441142I0000000J0000394D01*
G01*
X0160531Y0444291D01*
G75*
G02*
X0160925Y0444685I0000394J0000000D01*
G01*
X0165846Y0444685D01*
G75*
G02*
X0166240Y0444291I0000000J-000394D01*
G01*
X0166240Y0441142D01*
G75*
G02*
X0165846Y0440748I-000394J0000000D01*
G01*
G37*
G36*
G01*
X0165846Y0448228D02*
X0160925Y0448228D01*
G75*
G02*
X0160531Y0448622I0000000J0000394D01*
G01*
X0160531Y0451772D01*
G75*
G02*
X0160925Y0452165I0000394J0000000D01*
G01*
X0165846Y0452165D01*
G75*
G02*
X0166240Y0451772I0000000J-000394D01*
G01*
X0166240Y0448622D01*
G75*
G02*
X0165846Y0448228I-000394J0000000D01*
G01*
G37*
G36*
G01*
X0481693Y0060610D02*
X0479016Y0060610D01*
G75*
G02*
X0478681Y0060945I0000000J0000335D01*
G01*
X0478681Y0063622D01*
G75*
G02*
X0479016Y0063957I0000335J0000000D01*
G01*
X0481693Y0063957D01*
G75*
G02*
X0482028Y0063622I0000000J-000335D01*
G01*
X0482028Y0060945D01*
G75*
G02*
X0481693Y0060610I-000335J0000000D01*
G01*
G37*
G36*
G01*
X0481693Y0066831D02*
X0479016Y0066831D01*
G75*
G02*
X0478681Y0067165I0000000J0000335D01*
G01*
X0478681Y0069843D01*
G75*
G02*
X0479016Y0070177I0000335J0000000D01*
G01*
X0481693Y0070177D01*
G75*
G02*
X0482028Y0069843I0000000J-000335D01*
G01*
X0482028Y0067165D01*
G75*
G02*
X0481693Y0066831I-000335J0000000D01*
G01*
G37*
G36*
G01*
X0440158Y0433504D02*
X0440158Y0436575D01*
G75*
G02*
X0440433Y0436850I0000276J0000000D01*
G01*
X0442638Y0436850D01*
G75*
G02*
X0442913Y0436575I0000000J-000276D01*
G01*
X0442913Y0433504D01*
G75*
G02*
X0442638Y0433228I-000276J0000000D01*
G01*
X0440433Y0433228D01*
G75*
G02*
X0440158Y0433504I0000000J0000276D01*
G01*
G37*
G36*
G01*
X0446457Y0433504D02*
X0446457Y0436575D01*
G75*
G02*
X0446732Y0436850I0000276J0000000D01*
G01*
X0448937Y0436850D01*
G75*
G02*
X0449213Y0436575I0000000J-000276D01*
G01*
X0449213Y0433504D01*
G75*
G02*
X0448937Y0433228I-000276J0000000D01*
G01*
X0446732Y0433228D01*
G75*
G02*
X0446457Y0433504I0000000J0000276D01*
G01*
G37*
G36*
G01*
X0142224Y0439961D02*
X0137303Y0439961D01*
G75*
G02*
X0136909Y0440354I0000000J0000394D01*
G01*
X0136909Y0443504D01*
G75*
G02*
X0137303Y0443898I0000394J0000000D01*
G01*
X0142224Y0443898D01*
G75*
G02*
X0142618Y0443504I0000000J-000394D01*
G01*
X0142618Y0440354D01*
G75*
G02*
X0142224Y0439961I-000394J0000000D01*
G01*
G37*
G36*
G01*
X0142224Y0447441D02*
X0137303Y0447441D01*
G75*
G02*
X0136909Y0447835I0000000J0000394D01*
G01*
X0136909Y0450984D01*
G75*
G02*
X0137303Y0451378I0000394J0000000D01*
G01*
X0142224Y0451378D01*
G75*
G02*
X0142618Y0450984I0000000J-000394D01*
G01*
X0142618Y0447835D01*
G75*
G02*
X0142224Y0447441I-000394J0000000D01*
G01*
G37*
G36*
G01*
X0254429Y0445866D02*
X0249508Y0445866D01*
G75*
G02*
X0249114Y0446260I0000000J0000394D01*
G01*
X0249114Y0449409D01*
G75*
G02*
X0249508Y0449803I0000394J0000000D01*
G01*
X0254429Y0449803D01*
G75*
G02*
X0254823Y0449409I0000000J-000394D01*
G01*
X0254823Y0446260D01*
G75*
G02*
X0254429Y0445866I-000394J0000000D01*
G01*
G37*
G36*
G01*
X0254429Y0453347D02*
X0249508Y0453347D01*
G75*
G02*
X0249114Y0453740I0000000J0000394D01*
G01*
X0249114Y0456890D01*
G75*
G02*
X0249508Y0457284I0000394J0000000D01*
G01*
X0254429Y0457284D01*
G75*
G02*
X0254823Y0456890I0000000J-000394D01*
G01*
X0254823Y0453740D01*
G75*
G02*
X0254429Y0453347I-000394J0000000D01*
G01*
G37*
G36*
G01*
X0447441Y0067933D02*
X0447441Y0069114D01*
G75*
G02*
X0448031Y0069705I0000591J0000000D01*
G01*
X0454528Y0069705D01*
G75*
G02*
X0455118Y0069114I0000000J-000591D01*
G01*
X0455118Y0067933D01*
G75*
G02*
X0454528Y0067343I-000591J0000000D01*
G01*
X0448031Y0067343D01*
G75*
G02*
X0447441Y0067933I0000000J0000591D01*
G01*
G37*
G36*
G01*
X0447441Y0062933D02*
X0447441Y0064114D01*
G75*
G02*
X0448031Y0064705I0000591J0000000D01*
G01*
X0454528Y0064705D01*
G75*
G02*
X0455118Y0064114I0000000J-000591D01*
G01*
X0455118Y0062933D01*
G75*
G02*
X0454528Y0062343I-000591J0000000D01*
G01*
X0448031Y0062343D01*
G75*
G02*
X0447441Y0062933I0000000J0000591D01*
G01*
G37*
G36*
G01*
X0447441Y0057933D02*
X0447441Y0059114D01*
G75*
G02*
X0448031Y0059705I0000591J0000000D01*
G01*
X0454528Y0059705D01*
G75*
G02*
X0455118Y0059114I0000000J-000591D01*
G01*
X0455118Y0057933D01*
G75*
G02*
X0454528Y0057343I-000591J0000000D01*
G01*
X0448031Y0057343D01*
G75*
G02*
X0447441Y0057933I0000000J0000591D01*
G01*
G37*
G36*
G01*
X0447441Y0052933D02*
X0447441Y0054114D01*
G75*
G02*
X0448031Y0054705I0000591J0000000D01*
G01*
X0454528Y0054705D01*
G75*
G02*
X0455118Y0054114I0000000J-000591D01*
G01*
X0455118Y0052933D01*
G75*
G02*
X0454528Y0052343I-000591J0000000D01*
G01*
X0448031Y0052343D01*
G75*
G02*
X0447441Y0052933I0000000J0000591D01*
G01*
G37*
G36*
G01*
X0466929Y0052933D02*
X0466929Y0054114D01*
G75*
G02*
X0467520Y0054705I0000591J0000000D01*
G01*
X0474016Y0054705D01*
G75*
G02*
X0474606Y0054114I0000000J-000591D01*
G01*
X0474606Y0052933D01*
G75*
G02*
X0474016Y0052343I-000591J0000000D01*
G01*
X0467520Y0052343D01*
G75*
G02*
X0466929Y0052933I0000000J0000591D01*
G01*
G37*
G36*
G01*
X0466929Y0057933D02*
X0466929Y0059114D01*
G75*
G02*
X0467520Y0059705I0000591J0000000D01*
G01*
X0474016Y0059705D01*
G75*
G02*
X0474606Y0059114I0000000J-000591D01*
G01*
X0474606Y0057933D01*
G75*
G02*
X0474016Y0057343I-000591J0000000D01*
G01*
X0467520Y0057343D01*
G75*
G02*
X0466929Y0057933I0000000J0000591D01*
G01*
G37*
G36*
G01*
X0466929Y0062933D02*
X0466929Y0064114D01*
G75*
G02*
X0467520Y0064705I0000591J0000000D01*
G01*
X0474016Y0064705D01*
G75*
G02*
X0474606Y0064114I0000000J-000591D01*
G01*
X0474606Y0062933D01*
G75*
G02*
X0474016Y0062343I-000591J0000000D01*
G01*
X0467520Y0062343D01*
G75*
G02*
X0466929Y0062933I0000000J0000591D01*
G01*
G37*
G36*
G01*
X0466929Y0067933D02*
X0466929Y0069114D01*
G75*
G02*
X0467520Y0069705I0000591J0000000D01*
G01*
X0474016Y0069705D01*
G75*
G02*
X0474606Y0069114I0000000J-000591D01*
G01*
X0474606Y0067933D01*
G75*
G02*
X0474016Y0067343I-000591J0000000D01*
G01*
X0467520Y0067343D01*
G75*
G02*
X0466929Y0067933I0000000J0000591D01*
G01*
G37*
G36*
G01*
X0608415Y0342224D02*
X0608415Y0331004D01*
G75*
G02*
X0607431Y0330020I-000984J0000000D01*
G01*
X0604577Y0330020D01*
G75*
G02*
X0603593Y0331004I0000000J0000984D01*
G01*
X0603593Y0342224D01*
G75*
G02*
X0604577Y0343209I0000984J0000000D01*
G01*
X0607431Y0343209D01*
G75*
G02*
X0608415Y0342224I0000000J-000984D01*
G01*
G37*
G36*
G01*
X0585089Y0342224D02*
X0585089Y0331004D01*
G75*
G02*
X0584104Y0330020I-000984J0000000D01*
G01*
X0581250Y0330020D01*
G75*
G02*
X0580266Y0331004I0000000J0000984D01*
G01*
X0580266Y0342224D01*
G75*
G02*
X0581250Y0343209I0000984J0000000D01*
G01*
X0584104Y0343209D01*
G75*
G02*
X0585089Y0342224I0000000J-000984D01*
G01*
G37*
G36*
G01*
X0187402Y0351575D02*
X0190945Y0351575D01*
G75*
G02*
X0191339Y0351181I0000000J-000394D01*
G01*
X0191339Y0348031D01*
G75*
G02*
X0190945Y0347638I-000394J0000000D01*
G01*
X0187402Y0347638D01*
G75*
G02*
X0187008Y0348031I0000000J0000394D01*
G01*
X0187008Y0351181D01*
G75*
G02*
X0187402Y0351575I0000394J0000000D01*
G01*
G37*
G36*
G01*
X0187402Y0344882D02*
X0190945Y0344882D01*
G75*
G02*
X0191339Y0344488I0000000J-000394D01*
G01*
X0191339Y0341339D01*
G75*
G02*
X0190945Y0340945I-000394J0000000D01*
G01*
X0187402Y0340945D01*
G75*
G02*
X0187008Y0341339I0000000J0000394D01*
G01*
X0187008Y0344488D01*
G75*
G02*
X0187402Y0344882I0000394J0000000D01*
G01*
G37*
G36*
G01*
X0185531Y0473031D02*
X0180610Y0473031D01*
G75*
G02*
X0180217Y0473425I0000000J0000394D01*
G01*
X0180217Y0476575D01*
G75*
G02*
X0180610Y0476969I0000394J0000000D01*
G01*
X0185531Y0476969D01*
G75*
G02*
X0185925Y0476575I0000000J-000394D01*
G01*
X0185925Y0473425D01*
G75*
G02*
X0185531Y0473031I-000394J0000000D01*
G01*
G37*
G36*
G01*
X0185531Y0480512D02*
X0180610Y0480512D01*
G75*
G02*
X0180217Y0480906I0000000J0000394D01*
G01*
X0180217Y0484055D01*
G75*
G02*
X0180610Y0484449I0000394J0000000D01*
G01*
X0185531Y0484449D01*
G75*
G02*
X0185925Y0484055I0000000J-000394D01*
G01*
X0185925Y0480906D01*
G75*
G02*
X0185531Y0480512I-000394J0000000D01*
G01*
G37*
G36*
G01*
X0224902Y0445669D02*
X0219980Y0445669D01*
G75*
G02*
X0219587Y0446063I0000000J0000394D01*
G01*
X0219587Y0449213D01*
G75*
G02*
X0219980Y0449606I0000394J0000000D01*
G01*
X0224902Y0449606D01*
G75*
G02*
X0225295Y0449213I0000000J-000394D01*
G01*
X0225295Y0446063D01*
G75*
G02*
X0224902Y0445669I-000394J0000000D01*
G01*
G37*
G36*
G01*
X0224902Y0453150D02*
X0219980Y0453150D01*
G75*
G02*
X0219587Y0453543I0000000J0000394D01*
G01*
X0219587Y0456693D01*
G75*
G02*
X0219980Y0457087I0000394J0000000D01*
G01*
X0224902Y0457087D01*
G75*
G02*
X0225295Y0456693I0000000J-000394D01*
G01*
X0225295Y0453543D01*
G75*
G02*
X0224902Y0453150I-000394J0000000D01*
G01*
G37*
G36*
G01*
X0323622Y0427559D02*
X0323622Y0431102D01*
G75*
G02*
X0324016Y0431496I0000394J0000000D01*
G01*
X0327165Y0431496D01*
G75*
G02*
X0327559Y0431102I0000000J-000394D01*
G01*
X0327559Y0427559D01*
G75*
G02*
X0327165Y0427165I-000394J0000000D01*
G01*
X0324016Y0427165D01*
G75*
G02*
X0323622Y0427559I0000000J0000394D01*
G01*
G37*
G36*
G01*
X0330315Y0427559D02*
X0330315Y0431102D01*
G75*
G02*
X0330709Y0431496I0000394J0000000D01*
G01*
X0333858Y0431496D01*
G75*
G02*
X0334252Y0431102I0000000J-000394D01*
G01*
X0334252Y0427559D01*
G75*
G02*
X0333858Y0427165I-000394J0000000D01*
G01*
X0330709Y0427165D01*
G75*
G02*
X0330315Y0427559I0000000J0000394D01*
G01*
G37*
G36*
G01*
X0274114Y0445866D02*
X0269193Y0445866D01*
G75*
G02*
X0268799Y0446260I0000000J0000394D01*
G01*
X0268799Y0449409D01*
G75*
G02*
X0269193Y0449803I0000394J0000000D01*
G01*
X0274114Y0449803D01*
G75*
G02*
X0274508Y0449409I0000000J-000394D01*
G01*
X0274508Y0446260D01*
G75*
G02*
X0274114Y0445866I-000394J0000000D01*
G01*
G37*
G36*
G01*
X0274114Y0453347D02*
X0269193Y0453347D01*
G75*
G02*
X0268799Y0453740I0000000J0000394D01*
G01*
X0268799Y0456890D01*
G75*
G02*
X0269193Y0457284I0000394J0000000D01*
G01*
X0274114Y0457284D01*
G75*
G02*
X0274508Y0456890I0000000J-000394D01*
G01*
X0274508Y0453740D01*
G75*
G02*
X0274114Y0453347I-000394J0000000D01*
G01*
G37*
G36*
G01*
X0604764Y0204134D02*
X0607835Y0204134D01*
G75*
G02*
X0608110Y0203858I0000000J-000276D01*
G01*
X0608110Y0201654D01*
G75*
G02*
X0607835Y0201378I-000276J0000000D01*
G01*
X0604764Y0201378D01*
G75*
G02*
X0604488Y0201654I0000000J0000276D01*
G01*
X0604488Y0203858D01*
G75*
G02*
X0604764Y0204134I0000276J0000000D01*
G01*
G37*
G36*
G01*
X0604764Y0197835D02*
X0607835Y0197835D01*
G75*
G02*
X0608110Y0197559I0000000J-000276D01*
G01*
X0608110Y0195354D01*
G75*
G02*
X0607835Y0195079I-000276J0000000D01*
G01*
X0604764Y0195079D01*
G75*
G02*
X0604488Y0195354I0000000J0000276D01*
G01*
X0604488Y0197559D01*
G75*
G02*
X0604764Y0197835I0000276J0000000D01*
G01*
G37*
G36*
G01*
X0299311Y0408661D02*
X0303051Y0408661D01*
G75*
G02*
X0304035Y0407677I0000000J-000984D01*
G01*
X0304035Y0405709D01*
G75*
G02*
X0303051Y0404724I-000984J0000000D01*
G01*
X0299311Y0404724D01*
G75*
G02*
X0298327Y0405709I0000000J0000984D01*
G01*
X0298327Y0407677D01*
G75*
G02*
X0299311Y0408661I0000984J0000000D01*
G01*
G37*
G36*
G01*
X0299311Y0401181D02*
X0303051Y0401181D01*
G75*
G02*
X0304035Y0400197I0000000J-000984D01*
G01*
X0304035Y0398228D01*
G75*
G02*
X0303051Y0397244I-000984J0000000D01*
G01*
X0299311Y0397244D01*
G75*
G02*
X0298327Y0398228I0000000J0000984D01*
G01*
X0298327Y0400197D01*
G75*
G02*
X0299311Y0401181I0000984J0000000D01*
G01*
G37*
G36*
G01*
X0323622Y0419685D02*
X0323622Y0423228D01*
G75*
G02*
X0324016Y0423622I0000394J0000000D01*
G01*
X0327165Y0423622D01*
G75*
G02*
X0327559Y0423228I0000000J-000394D01*
G01*
X0327559Y0419685D01*
G75*
G02*
X0327165Y0419291I-000394J0000000D01*
G01*
X0324016Y0419291D01*
G75*
G02*
X0323622Y0419685I0000000J0000394D01*
G01*
G37*
G36*
G01*
X0330315Y0419685D02*
X0330315Y0423228D01*
G75*
G02*
X0330709Y0423622I0000394J0000000D01*
G01*
X0333858Y0423622D01*
G75*
G02*
X0334252Y0423228I0000000J-000394D01*
G01*
X0334252Y0419685D01*
G75*
G02*
X0333858Y0419291I-000394J0000000D01*
G01*
X0330709Y0419291D01*
G75*
G02*
X0330315Y0419685I0000000J0000394D01*
G01*
G37*
G36*
G01*
X0154035Y0310098D02*
X0154035Y0312736D01*
G75*
G02*
X0154291Y0312992I0000256J0000000D01*
G01*
X0156339Y0312992D01*
G75*
G02*
X0156594Y0312736I0000000J-000256D01*
G01*
X0156594Y0310098D01*
G75*
G02*
X0156339Y0309843I-000256J0000000D01*
G01*
X0154291Y0309843D01*
G75*
G02*
X0154035Y0310098I0000000J0000256D01*
G01*
G37*
G36*
G01*
X0157874Y0310020D02*
X0157874Y0312815D01*
G75*
G02*
X0158051Y0312992I0000177J0000000D01*
G01*
X0159469Y0312992D01*
G75*
G02*
X0159646Y0312815I0000000J-000177D01*
G01*
X0159646Y0310020D01*
G75*
G02*
X0159469Y0309843I-000177J0000000D01*
G01*
X0158051Y0309843D01*
G75*
G02*
X0157874Y0310020I0000000J0000177D01*
G01*
G37*
G36*
G01*
X0161024Y0310020D02*
X0161024Y0312815D01*
G75*
G02*
X0161201Y0312992I0000177J0000000D01*
G01*
X0162618Y0312992D01*
G75*
G02*
X0162795Y0312815I0000000J-000177D01*
G01*
X0162795Y0310020D01*
G75*
G02*
X0162618Y0309843I-000177J0000000D01*
G01*
X0161201Y0309843D01*
G75*
G02*
X0161024Y0310020I0000000J0000177D01*
G01*
G37*
G36*
G01*
X0164075Y0310098D02*
X0164075Y0312736D01*
G75*
G02*
X0164331Y0312992I0000256J0000000D01*
G01*
X0166378Y0312992D01*
G75*
G02*
X0166634Y0312736I0000000J-000256D01*
G01*
X0166634Y0310098D01*
G75*
G02*
X0166378Y0309843I-000256J0000000D01*
G01*
X0164331Y0309843D01*
G75*
G02*
X0164075Y0310098I0000000J0000256D01*
G01*
G37*
G36*
G01*
X0164075Y0317185D02*
X0164075Y0319823D01*
G75*
G02*
X0164331Y0320079I0000256J0000000D01*
G01*
X0166378Y0320079D01*
G75*
G02*
X0166634Y0319823I0000000J-000256D01*
G01*
X0166634Y0317185D01*
G75*
G02*
X0166378Y0316929I-000256J0000000D01*
G01*
X0164331Y0316929D01*
G75*
G02*
X0164075Y0317185I0000000J0000256D01*
G01*
G37*
G36*
G01*
X0161024Y0317106D02*
X0161024Y0319902D01*
G75*
G02*
X0161201Y0320079I0000177J0000000D01*
G01*
X0162618Y0320079D01*
G75*
G02*
X0162795Y0319902I0000000J-000177D01*
G01*
X0162795Y0317106D01*
G75*
G02*
X0162618Y0316929I-000177J0000000D01*
G01*
X0161201Y0316929D01*
G75*
G02*
X0161024Y0317106I0000000J0000177D01*
G01*
G37*
G36*
G01*
X0157874Y0317106D02*
X0157874Y0319902D01*
G75*
G02*
X0158051Y0320079I0000177J0000000D01*
G01*
X0159469Y0320079D01*
G75*
G02*
X0159646Y0319902I0000000J-000177D01*
G01*
X0159646Y0317106D01*
G75*
G02*
X0159469Y0316929I-000177J0000000D01*
G01*
X0158051Y0316929D01*
G75*
G02*
X0157874Y0317106I0000000J0000177D01*
G01*
G37*
G36*
G01*
X0154035Y0317185D02*
X0154035Y0319823D01*
G75*
G02*
X0154291Y0320079I0000256J0000000D01*
G01*
X0156339Y0320079D01*
G75*
G02*
X0156594Y0319823I0000000J-000256D01*
G01*
X0156594Y0317185D01*
G75*
G02*
X0156339Y0316929I-000256J0000000D01*
G01*
X0154291Y0316929D01*
G75*
G02*
X0154035Y0317185I0000000J0000256D01*
G01*
G37*
D297*
X0161178Y0406811D03*
X0161178Y0393819D03*
G36*
G01*
X0215059Y0430512D02*
X0210138Y0430512D01*
G75*
G02*
X0209744Y0430906I0000000J0000394D01*
G01*
X0209744Y0434055D01*
G75*
G02*
X0210138Y0434449I0000394J0000000D01*
G01*
X0215059Y0434449D01*
G75*
G02*
X0215453Y0434055I0000000J-000394D01*
G01*
X0215453Y0430906D01*
G75*
G02*
X0215059Y0430512I-000394J0000000D01*
G01*
G37*
G36*
G01*
X0215059Y0437992D02*
X0210138Y0437992D01*
G75*
G02*
X0209744Y0438386I0000000J0000394D01*
G01*
X0209744Y0441536D01*
G75*
G02*
X0210138Y0441929I0000394J0000000D01*
G01*
X0215059Y0441929D01*
G75*
G02*
X0215453Y0441536I0000000J-000394D01*
G01*
X0215453Y0438386D01*
G75*
G02*
X0215059Y0437992I-000394J0000000D01*
G01*
G37*
G36*
G01*
X0142224Y0412795D02*
X0137303Y0412795D01*
G75*
G02*
X0136909Y0413189I0000000J0000394D01*
G01*
X0136909Y0416339D01*
G75*
G02*
X0137303Y0416732I0000394J0000000D01*
G01*
X0142224Y0416732D01*
G75*
G02*
X0142618Y0416339I0000000J-000394D01*
G01*
X0142618Y0413189D01*
G75*
G02*
X0142224Y0412795I-000394J0000000D01*
G01*
G37*
G36*
G01*
X0142224Y0420276D02*
X0137303Y0420276D01*
G75*
G02*
X0136909Y0420669I0000000J0000394D01*
G01*
X0136909Y0423819D01*
G75*
G02*
X0137303Y0424213I0000394J0000000D01*
G01*
X0142224Y0424213D01*
G75*
G02*
X0142618Y0423819I0000000J-000394D01*
G01*
X0142618Y0420669D01*
G75*
G02*
X0142224Y0420276I-000394J0000000D01*
G01*
G37*
G36*
G01*
X0608268Y0430807D02*
X0608268Y0419587D01*
G75*
G02*
X0607283Y0418602I-000984J0000000D01*
G01*
X0604429Y0418602D01*
G75*
G02*
X0603445Y0419587I0000000J0000984D01*
G01*
X0603445Y0430807D01*
G75*
G02*
X0604429Y0431791I0000984J0000000D01*
G01*
X0607283Y0431791D01*
G75*
G02*
X0608268Y0430807I0000000J-000984D01*
G01*
G37*
G36*
G01*
X0584941Y0430807D02*
X0584941Y0419587D01*
G75*
G02*
X0583957Y0418602I-000984J0000000D01*
G01*
X0581102Y0418602D01*
G75*
G02*
X0580118Y0419587I0000000J0000984D01*
G01*
X0580118Y0430807D01*
G75*
G02*
X0581102Y0431791I0000984J0000000D01*
G01*
X0583957Y0431791D01*
G75*
G02*
X0584941Y0430807I0000000J-000984D01*
G01*
G37*
G36*
G01*
X0108661Y0351575D02*
X0112205Y0351575D01*
G75*
G02*
X0112598Y0351181I0000000J-000394D01*
G01*
X0112598Y0348031D01*
G75*
G02*
X0112205Y0347638I-000394J0000000D01*
G01*
X0108661Y0347638D01*
G75*
G02*
X0108268Y0348031I0000000J0000394D01*
G01*
X0108268Y0351181D01*
G75*
G02*
X0108661Y0351575I0000394J0000000D01*
G01*
G37*
G36*
G01*
X0108661Y0344882D02*
X0112205Y0344882D01*
G75*
G02*
X0112598Y0344488I0000000J-000394D01*
G01*
X0112598Y0341339D01*
G75*
G02*
X0112205Y0340945I-000394J0000000D01*
G01*
X0108661Y0340945D01*
G75*
G02*
X0108268Y0341339I0000000J0000394D01*
G01*
X0108268Y0344488D01*
G75*
G02*
X0108661Y0344882I0000394J0000000D01*
G01*
G37*
D92*
X0229921Y0404390D03*
X0229921Y0399390D03*
X0229921Y0394390D03*
X0229921Y0389390D03*
X0229921Y0384390D03*
X0229921Y0379390D03*
X0229921Y0374390D03*
X0229921Y0369390D03*
X0229921Y0364390D03*
X0229921Y0359390D03*
X0281890Y0359390D03*
X0281890Y0364390D03*
X0281890Y0369390D03*
X0281890Y0374390D03*
X0281890Y0379390D03*
X0281890Y0384390D03*
X0281890Y0389390D03*
X0281890Y0394390D03*
X0281890Y0399390D03*
X0281890Y0404390D03*
D217*
X0255906Y0409890D03*
D155*
X0255906Y0381890D03*
D217*
X0255906Y0353890D03*
G36*
G01*
X0381043Y0073465D02*
X0381043Y0076142D01*
G75*
G02*
X0381378Y0076476I0000335J0000000D01*
G01*
X0384055Y0076476D01*
G75*
G02*
X0384390Y0076142I0000000J-000335D01*
G01*
X0384390Y0073465D01*
G75*
G02*
X0384055Y0073130I-000335J0000000D01*
G01*
X0381378Y0073130D01*
G75*
G02*
X0381043Y0073465I0000000J0000335D01*
G01*
G37*
G36*
G01*
X0387264Y0073465D02*
X0387264Y0076142D01*
G75*
G02*
X0387598Y0076476I0000335J0000000D01*
G01*
X0390276Y0076476D01*
G75*
G02*
X0390610Y0076142I0000000J-000335D01*
G01*
X0390610Y0073465D01*
G75*
G02*
X0390276Y0073130I-000335J0000000D01*
G01*
X0387598Y0073130D01*
G75*
G02*
X0387264Y0073465I0000000J0000335D01*
G01*
G37*
G36*
G01*
X0305610Y0473031D02*
X0300689Y0473031D01*
G75*
G02*
X0300295Y0473425I0000000J0000394D01*
G01*
X0300295Y0476575D01*
G75*
G02*
X0300689Y0476969I0000394J0000000D01*
G01*
X0305610Y0476969D01*
G75*
G02*
X0306004Y0476575I0000000J-000394D01*
G01*
X0306004Y0473425D01*
G75*
G02*
X0305610Y0473031I-000394J0000000D01*
G01*
G37*
G36*
G01*
X0305610Y0480512D02*
X0300689Y0480512D01*
G75*
G02*
X0300295Y0480906I0000000J0000394D01*
G01*
X0300295Y0484055D01*
G75*
G02*
X0300689Y0484449I0000394J0000000D01*
G01*
X0305610Y0484449D01*
G75*
G02*
X0306004Y0484055I0000000J-000394D01*
G01*
X0306004Y0480906D01*
G75*
G02*
X0305610Y0480512I-000394J0000000D01*
G01*
G37*
G36*
G01*
X0307283Y0383425D02*
X0307283Y0380354D01*
G75*
G02*
X0307008Y0380079I-000276J0000000D01*
G01*
X0304803Y0380079D01*
G75*
G02*
X0304528Y0380354I0000000J0000276D01*
G01*
X0304528Y0383425D01*
G75*
G02*
X0304803Y0383701I0000276J0000000D01*
G01*
X0307008Y0383701D01*
G75*
G02*
X0307283Y0383425I0000000J-000276D01*
G01*
G37*
G36*
G01*
X0300984Y0383425D02*
X0300984Y0380354D01*
G75*
G02*
X0300709Y0380079I-000276J0000000D01*
G01*
X0298504Y0380079D01*
G75*
G02*
X0298228Y0380354I0000000J0000276D01*
G01*
X0298228Y0383425D01*
G75*
G02*
X0298504Y0383701I0000276J0000000D01*
G01*
X0300709Y0383701D01*
G75*
G02*
X0300984Y0383425I0000000J-000276D01*
G01*
G37*
G36*
G01*
X0402067Y0492323D02*
X0397146Y0492323D01*
G75*
G02*
X0396752Y0492717I0000000J0000394D01*
G01*
X0396752Y0495866D01*
G75*
G02*
X0397146Y0496260I0000394J0000000D01*
G01*
X0402067Y0496260D01*
G75*
G02*
X0402461Y0495866I0000000J-000394D01*
G01*
X0402461Y0492717D01*
G75*
G02*
X0402067Y0492323I-000394J0000000D01*
G01*
G37*
G36*
G01*
X0402067Y0499803D02*
X0397146Y0499803D01*
G75*
G02*
X0396752Y0500197I0000000J0000394D01*
G01*
X0396752Y0503347D01*
G75*
G02*
X0397146Y0503740I0000394J0000000D01*
G01*
X0402067Y0503740D01*
G75*
G02*
X0402461Y0503347I0000000J-000394D01*
G01*
X0402461Y0500197D01*
G75*
G02*
X0402067Y0499803I-000394J0000000D01*
G01*
G37*
G36*
G01*
X0224902Y0473031D02*
X0219980Y0473031D01*
G75*
G02*
X0219587Y0473425I0000000J0000394D01*
G01*
X0219587Y0476575D01*
G75*
G02*
X0219980Y0476969I0000394J0000000D01*
G01*
X0224902Y0476969D01*
G75*
G02*
X0225295Y0476575I0000000J-000394D01*
G01*
X0225295Y0473425D01*
G75*
G02*
X0224902Y0473031I-000394J0000000D01*
G01*
G37*
G36*
G01*
X0224902Y0480512D02*
X0219980Y0480512D01*
G75*
G02*
X0219587Y0480906I0000000J0000394D01*
G01*
X0219587Y0484055D01*
G75*
G02*
X0219980Y0484449I0000394J0000000D01*
G01*
X0224902Y0484449D01*
G75*
G02*
X0225295Y0484055I0000000J-000394D01*
G01*
X0225295Y0480906D01*
G75*
G02*
X0224902Y0480512I-000394J0000000D01*
G01*
G37*
G36*
G01*
X0427756Y0437480D02*
X0427756Y0432598D01*
G75*
G02*
X0427244Y0432087I-000512J0000000D01*
G01*
X0423150Y0432087D01*
G75*
G02*
X0422638Y0432598I0000000J0000512D01*
G01*
X0422638Y0437480D01*
G75*
G02*
X0423150Y0437992I0000512J0000000D01*
G01*
X0427244Y0437992D01*
G75*
G02*
X0427756Y0437480I0000000J-000512D01*
G01*
G37*
G36*
G01*
X0435236Y0437480D02*
X0435236Y0432598D01*
G75*
G02*
X0434724Y0432087I-000512J0000000D01*
G01*
X0430630Y0432087D01*
G75*
G02*
X0430118Y0432598I0000000J0000512D01*
G01*
X0430118Y0437480D01*
G75*
G02*
X0430630Y0437992I0000512J0000000D01*
G01*
X0434724Y0437992D01*
G75*
G02*
X0435236Y0437480I0000000J-000512D01*
G01*
G37*
G36*
G01*
X0255472Y0424606D02*
X0252402Y0424606D01*
G75*
G02*
X0252126Y0424882I0000000J0000276D01*
G01*
X0252126Y0427087D01*
G75*
G02*
X0252402Y0427362I0000276J0000000D01*
G01*
X0255472Y0427362D01*
G75*
G02*
X0255748Y0427087I0000000J-000276D01*
G01*
X0255748Y0424882D01*
G75*
G02*
X0255472Y0424606I-000276J0000000D01*
G01*
G37*
G36*
G01*
X0255472Y0430906D02*
X0252402Y0430906D01*
G75*
G02*
X0252126Y0431181I0000000J0000276D01*
G01*
X0252126Y0433386D01*
G75*
G02*
X0252402Y0433661I0000276J0000000D01*
G01*
X0255472Y0433661D01*
G75*
G02*
X0255748Y0433386I0000000J-000276D01*
G01*
X0255748Y0431181D01*
G75*
G02*
X0255472Y0430906I-000276J0000000D01*
G01*
G37*
G36*
G01*
X0234744Y0428937D02*
X0229823Y0428937D01*
G75*
G02*
X0229429Y0429331I0000000J0000394D01*
G01*
X0229429Y0432480D01*
G75*
G02*
X0229823Y0432874I0000394J0000000D01*
G01*
X0234744Y0432874D01*
G75*
G02*
X0235138Y0432480I0000000J-000394D01*
G01*
X0235138Y0429331D01*
G75*
G02*
X0234744Y0428937I-000394J0000000D01*
G01*
G37*
G36*
G01*
X0234744Y0436417D02*
X0229823Y0436417D01*
G75*
G02*
X0229429Y0436811I0000000J0000394D01*
G01*
X0229429Y0439961D01*
G75*
G02*
X0229823Y0440354I0000394J0000000D01*
G01*
X0234744Y0440354D01*
G75*
G02*
X0235138Y0439961I0000000J-000394D01*
G01*
X0235138Y0436811D01*
G75*
G02*
X0234744Y0436417I-000394J0000000D01*
G01*
G37*
G36*
G01*
X0331496Y0445906D02*
X0331496Y0447795D01*
G75*
G02*
X0331732Y0448031I0000236J0000000D01*
G01*
X0333622Y0448031D01*
G75*
G02*
X0333858Y0447795I0000000J-000236D01*
G01*
X0333858Y0445906D01*
G75*
G02*
X0333622Y0445669I-000236J0000000D01*
G01*
X0331732Y0445669D01*
G75*
G02*
X0331496Y0445906I0000000J0000236D01*
G01*
G37*
G36*
G01*
X0331496Y0454567D02*
X0331496Y0456457D01*
G75*
G02*
X0331732Y0456693I0000236J0000000D01*
G01*
X0333622Y0456693D01*
G75*
G02*
X0333858Y0456457I0000000J-000236D01*
G01*
X0333858Y0454567D01*
G75*
G02*
X0333622Y0454331I-000236J0000000D01*
G01*
X0331732Y0454331D01*
G75*
G02*
X0331496Y0454567I0000000J0000236D01*
G01*
G37*
G36*
G01*
X0110728Y0429331D02*
X0105807Y0429331D01*
G75*
G02*
X0105413Y0429724I0000000J0000394D01*
G01*
X0105413Y0432874D01*
G75*
G02*
X0105807Y0433268I0000394J0000000D01*
G01*
X0110728Y0433268D01*
G75*
G02*
X0111122Y0432874I0000000J-000394D01*
G01*
X0111122Y0429724D01*
G75*
G02*
X0110728Y0429331I-000394J0000000D01*
G01*
G37*
G36*
G01*
X0110728Y0436811D02*
X0105807Y0436811D01*
G75*
G02*
X0105413Y0437205I0000000J0000394D01*
G01*
X0105413Y0440354D01*
G75*
G02*
X0105807Y0440748I0000394J0000000D01*
G01*
X0110728Y0440748D01*
G75*
G02*
X0111122Y0440354I0000000J-000394D01*
G01*
X0111122Y0437205D01*
G75*
G02*
X0110728Y0436811I-000394J0000000D01*
G01*
G37*
G36*
G01*
X0195374Y0445866D02*
X0190453Y0445866D01*
G75*
G02*
X0190059Y0446260I0000000J0000394D01*
G01*
X0190059Y0449409D01*
G75*
G02*
X0190453Y0449803I0000394J0000000D01*
G01*
X0195374Y0449803D01*
G75*
G02*
X0195768Y0449409I0000000J-000394D01*
G01*
X0195768Y0446260D01*
G75*
G02*
X0195374Y0445866I-000394J0000000D01*
G01*
G37*
G36*
G01*
X0195374Y0453347D02*
X0190453Y0453347D01*
G75*
G02*
X0190059Y0453740I0000000J0000394D01*
G01*
X0190059Y0456890D01*
G75*
G02*
X0190453Y0457284I0000394J0000000D01*
G01*
X0195374Y0457284D01*
G75*
G02*
X0195768Y0456890I0000000J-000394D01*
G01*
X0195768Y0453740D01*
G75*
G02*
X0195374Y0453347I-000394J0000000D01*
G01*
G37*
G36*
G01*
X0132382Y0445866D02*
X0127461Y0445866D01*
G75*
G02*
X0127067Y0446260I0000000J0000394D01*
G01*
X0127067Y0449409D01*
G75*
G02*
X0127461Y0449803I0000394J0000000D01*
G01*
X0132382Y0449803D01*
G75*
G02*
X0132776Y0449409I0000000J-000394D01*
G01*
X0132776Y0446260D01*
G75*
G02*
X0132382Y0445866I-000394J0000000D01*
G01*
G37*
G36*
G01*
X0132382Y0453347D02*
X0127461Y0453347D01*
G75*
G02*
X0127067Y0453740I0000000J0000394D01*
G01*
X0127067Y0456890D01*
G75*
G02*
X0127461Y0457284I0000394J0000000D01*
G01*
X0132382Y0457284D01*
G75*
G02*
X0132776Y0456890I0000000J-000394D01*
G01*
X0132776Y0453740D01*
G75*
G02*
X0132382Y0453347I-000394J0000000D01*
G01*
G37*
G36*
G01*
X0346949Y0473012D02*
X0342028Y0473012D01*
G75*
G02*
X0341634Y0473406I0000000J0000394D01*
G01*
X0341634Y0476555D01*
G75*
G02*
X0342028Y0476949I0000394J0000000D01*
G01*
X0346949Y0476949D01*
G75*
G02*
X0347343Y0476555I0000000J-000394D01*
G01*
X0347343Y0473406D01*
G75*
G02*
X0346949Y0473012I-000394J0000000D01*
G01*
G37*
G36*
G01*
X0346949Y0480492D02*
X0342028Y0480492D01*
G75*
G02*
X0341634Y0480886I0000000J0000394D01*
G01*
X0341634Y0484036D01*
G75*
G02*
X0342028Y0484429I0000394J0000000D01*
G01*
X0346949Y0484429D01*
G75*
G02*
X0347343Y0484036I0000000J-000394D01*
G01*
X0347343Y0480886D01*
G75*
G02*
X0346949Y0480492I-000394J0000000D01*
G01*
G37*
G36*
G01*
X0185531Y0418701D02*
X0180610Y0418701D01*
G75*
G02*
X0180217Y0419094I0000000J0000394D01*
G01*
X0180217Y0422244D01*
G75*
G02*
X0180610Y0422638I0000394J0000000D01*
G01*
X0185531Y0422638D01*
G75*
G02*
X0185925Y0422244I0000000J-000394D01*
G01*
X0185925Y0419094D01*
G75*
G02*
X0185531Y0418701I-000394J0000000D01*
G01*
G37*
G36*
G01*
X0185531Y0426181D02*
X0180610Y0426181D01*
G75*
G02*
X0180217Y0426575I0000000J0000394D01*
G01*
X0180217Y0429724D01*
G75*
G02*
X0180610Y0430118I0000394J0000000D01*
G01*
X0185531Y0430118D01*
G75*
G02*
X0185925Y0429724I0000000J-000394D01*
G01*
X0185925Y0426575D01*
G75*
G02*
X0185531Y0426181I-000394J0000000D01*
G01*
G37*
D115*
X0557382Y0211516D03*
X0576476Y0233366D03*
X0576476Y0211516D03*
X0557382Y0233366D03*
D160*
X0602953Y0212441D03*
X0602953Y0232441D03*
G36*
G01*
X0132382Y0391535D02*
X0127461Y0391535D01*
G75*
G02*
X0127067Y0391929I0000000J0000394D01*
G01*
X0127067Y0395079D01*
G75*
G02*
X0127461Y0395472I0000394J0000000D01*
G01*
X0132382Y0395472D01*
G75*
G02*
X0132776Y0395079I0000000J-000394D01*
G01*
X0132776Y0391929D01*
G75*
G02*
X0132382Y0391535I-000394J0000000D01*
G01*
G37*
G36*
G01*
X0132382Y0399016D02*
X0127461Y0399016D01*
G75*
G02*
X0127067Y0399410I0000000J0000394D01*
G01*
X0127067Y0402559D01*
G75*
G02*
X0127461Y0402953I0000394J0000000D01*
G01*
X0132382Y0402953D01*
G75*
G02*
X0132776Y0402559I0000000J-000394D01*
G01*
X0132776Y0399410D01*
G75*
G02*
X0132382Y0399016I-000394J0000000D01*
G01*
G37*
G36*
G01*
X0329921Y0436535D02*
X0329921Y0441417D01*
G75*
G02*
X0330433Y0441929I0000512J0000000D01*
G01*
X0334528Y0441929D01*
G75*
G02*
X0335039Y0441417I0000000J-000512D01*
G01*
X0335039Y0436535D01*
G75*
G02*
X0334528Y0436024I-000512J0000000D01*
G01*
X0330433Y0436024D01*
G75*
G02*
X0329921Y0436535I0000000J0000512D01*
G01*
G37*
G36*
G01*
X0322441Y0436535D02*
X0322441Y0441417D01*
G75*
G02*
X0322953Y0441929I0000512J0000000D01*
G01*
X0327047Y0441929D01*
G75*
G02*
X0327559Y0441417I0000000J-000512D01*
G01*
X0327559Y0436535D01*
G75*
G02*
X0327047Y0436024I-000512J0000000D01*
G01*
X0322953Y0436024D01*
G75*
G02*
X0322441Y0436535I0000000J0000512D01*
G01*
G37*
G36*
G01*
X0307283Y0377126D02*
X0307283Y0374055D01*
G75*
G02*
X0307008Y0373780I-000276J0000000D01*
G01*
X0304803Y0373780D01*
G75*
G02*
X0304528Y0374055I0000000J0000276D01*
G01*
X0304528Y0377126D01*
G75*
G02*
X0304803Y0377402I0000276J0000000D01*
G01*
X0307008Y0377402D01*
G75*
G02*
X0307283Y0377126I0000000J-000276D01*
G01*
G37*
G36*
G01*
X0300984Y0377126D02*
X0300984Y0374055D01*
G75*
G02*
X0300709Y0373780I-000276J0000000D01*
G01*
X0298504Y0373780D01*
G75*
G02*
X0298228Y0374055I0000000J0000276D01*
G01*
X0298228Y0377126D01*
G75*
G02*
X0298504Y0377402I0000276J0000000D01*
G01*
X0300709Y0377402D01*
G75*
G02*
X0300984Y0377126I0000000J-000276D01*
G01*
G37*
G36*
G01*
X0122539Y0429724D02*
X0117618Y0429724D01*
G75*
G02*
X0117224Y0430118I0000000J0000394D01*
G01*
X0117224Y0433268D01*
G75*
G02*
X0117618Y0433661I0000394J0000000D01*
G01*
X0122539Y0433661D01*
G75*
G02*
X0122933Y0433268I0000000J-000394D01*
G01*
X0122933Y0430118D01*
G75*
G02*
X0122539Y0429724I-000394J0000000D01*
G01*
G37*
G36*
G01*
X0122539Y0437205D02*
X0117618Y0437205D01*
G75*
G02*
X0117224Y0437599I0000000J0000394D01*
G01*
X0117224Y0440748D01*
G75*
G02*
X0117618Y0441142I0000394J0000000D01*
G01*
X0122539Y0441142D01*
G75*
G02*
X0122933Y0440748I0000000J-000394D01*
G01*
X0122933Y0437599D01*
G75*
G02*
X0122539Y0437205I-000394J0000000D01*
G01*
G37*
G36*
G01*
X0339173Y0427598D02*
X0339173Y0430669D01*
G75*
G02*
X0339449Y0430945I0000276J0000000D01*
G01*
X0341654Y0430945D01*
G75*
G02*
X0341929Y0430669I0000000J-000276D01*
G01*
X0341929Y0427598D01*
G75*
G02*
X0341654Y0427323I-000276J0000000D01*
G01*
X0339449Y0427323D01*
G75*
G02*
X0339173Y0427598I0000000J0000276D01*
G01*
G37*
G36*
G01*
X0345472Y0427598D02*
X0345472Y0430669D01*
G75*
G02*
X0345748Y0430945I0000276J0000000D01*
G01*
X0347953Y0430945D01*
G75*
G02*
X0348228Y0430669I0000000J-000276D01*
G01*
X0348228Y0427598D01*
G75*
G02*
X0347953Y0427323I-000276J0000000D01*
G01*
X0345748Y0427323D01*
G75*
G02*
X0345472Y0427598I0000000J0000276D01*
G01*
G37*
G36*
G01*
X0307185Y0408661D02*
X0310925Y0408661D01*
G75*
G02*
X0311909Y0407677I0000000J-000984D01*
G01*
X0311909Y0405709D01*
G75*
G02*
X0310925Y0404724I-000984J0000000D01*
G01*
X0307185Y0404724D01*
G75*
G02*
X0306201Y0405709I0000000J0000984D01*
G01*
X0306201Y0407677D01*
G75*
G02*
X0307185Y0408661I0000984J0000000D01*
G01*
G37*
G36*
G01*
X0307185Y0401181D02*
X0310925Y0401181D01*
G75*
G02*
X0311909Y0400197I0000000J-000984D01*
G01*
X0311909Y0398228D01*
G75*
G02*
X0310925Y0397244I-000984J0000000D01*
G01*
X0307185Y0397244D01*
G75*
G02*
X0306201Y0398228I0000000J0000984D01*
G01*
X0306201Y0400197D01*
G75*
G02*
X0307185Y0401181I0000984J0000000D01*
G01*
G37*
G36*
G01*
X0211024Y0351575D02*
X0214567Y0351575D01*
G75*
G02*
X0214961Y0351181I0000000J-000394D01*
G01*
X0214961Y0348031D01*
G75*
G02*
X0214567Y0347638I-000394J0000000D01*
G01*
X0211024Y0347638D01*
G75*
G02*
X0210630Y0348031I0000000J0000394D01*
G01*
X0210630Y0351181D01*
G75*
G02*
X0211024Y0351575I0000394J0000000D01*
G01*
G37*
G36*
G01*
X0211024Y0344882D02*
X0214567Y0344882D01*
G75*
G02*
X0214961Y0344488I0000000J-000394D01*
G01*
X0214961Y0341339D01*
G75*
G02*
X0214567Y0340945I-000394J0000000D01*
G01*
X0211024Y0340945D01*
G75*
G02*
X0210630Y0341339I0000000J0000394D01*
G01*
X0210630Y0344488D01*
G75*
G02*
X0211024Y0344882I0000394J0000000D01*
G01*
G37*
G36*
G01*
X0561811Y0041732D02*
X0561811Y0045276D01*
G75*
G02*
X0562205Y0045669I0000394J0000000D01*
G01*
X0565354Y0045669D01*
G75*
G02*
X0565748Y0045276I0000000J-000394D01*
G01*
X0565748Y0041732D01*
G75*
G02*
X0565354Y0041339I-000394J0000000D01*
G01*
X0562205Y0041339D01*
G75*
G02*
X0561811Y0041732I0000000J0000394D01*
G01*
G37*
G36*
G01*
X0568504Y0041732D02*
X0568504Y0045276D01*
G75*
G02*
X0568898Y0045669I0000394J0000000D01*
G01*
X0572047Y0045669D01*
G75*
G02*
X0572441Y0045276I0000000J-000394D01*
G01*
X0572441Y0041732D01*
G75*
G02*
X0572047Y0041339I-000394J0000000D01*
G01*
X0568898Y0041339D01*
G75*
G02*
X0568504Y0041732I0000000J0000394D01*
G01*
G37*
G36*
G01*
X0295039Y0373996D02*
X0292362Y0373996D01*
G75*
G02*
X0292028Y0374331I0000000J0000335D01*
G01*
X0292028Y0377008D01*
G75*
G02*
X0292362Y0377343I0000335J0000000D01*
G01*
X0295039Y0377343D01*
G75*
G02*
X0295374Y0377008I0000000J-000335D01*
G01*
X0295374Y0374331D01*
G75*
G02*
X0295039Y0373996I-000335J0000000D01*
G01*
G37*
G36*
G01*
X0295039Y0380217D02*
X0292362Y0380217D01*
G75*
G02*
X0292028Y0380551I0000000J0000335D01*
G01*
X0292028Y0383228D01*
G75*
G02*
X0292362Y0383563I0000335J0000000D01*
G01*
X0295039Y0383563D01*
G75*
G02*
X0295374Y0383228I0000000J-000335D01*
G01*
X0295374Y0380551D01*
G75*
G02*
X0295039Y0380217I-000335J0000000D01*
G01*
G37*
G36*
G01*
X0158813Y0094882D02*
X0156923Y0094882D01*
G75*
G02*
X0156687Y0095118I0000000J0000236D01*
G01*
X0156687Y0097008D01*
G75*
G02*
X0156923Y0097244I0000236J0000000D01*
G01*
X0158813Y0097244D01*
G75*
G02*
X0159049Y0097008I0000000J-000236D01*
G01*
X0159049Y0095118D01*
G75*
G02*
X0158813Y0094882I-000236J0000000D01*
G01*
G37*
G36*
G01*
X0150152Y0094882D02*
X0148262Y0094882D01*
G75*
G02*
X0148026Y0095118I0000000J0000236D01*
G01*
X0148026Y0097008D01*
G75*
G02*
X0148262Y0097244I0000236J0000000D01*
G01*
X0150152Y0097244D01*
G75*
G02*
X0150388Y0097008I0000000J-000236D01*
G01*
X0150388Y0095118D01*
G75*
G02*
X0150152Y0094882I-000236J0000000D01*
G01*
G37*
G36*
G01*
X0328543Y0456260D02*
X0328543Y0453189D01*
G75*
G02*
X0328268Y0452913I-000276J0000000D01*
G01*
X0326063Y0452913D01*
G75*
G02*
X0325787Y0453189I0000000J0000276D01*
G01*
X0325787Y0456260D01*
G75*
G02*
X0326063Y0456535I0000276J0000000D01*
G01*
X0328268Y0456535D01*
G75*
G02*
X0328543Y0456260I0000000J-000276D01*
G01*
G37*
G36*
G01*
X0322244Y0456260D02*
X0322244Y0453189D01*
G75*
G02*
X0321969Y0452913I-000276J0000000D01*
G01*
X0319764Y0452913D01*
G75*
G02*
X0319488Y0453189I0000000J0000276D01*
G01*
X0319488Y0456260D01*
G75*
G02*
X0319764Y0456535I0000276J0000000D01*
G01*
X0321969Y0456535D01*
G75*
G02*
X0322244Y0456260I0000000J-000276D01*
G01*
G37*
D297*
X0151335Y0406811D03*
X0151335Y0393819D03*
G36*
G01*
X0257874Y0071181D02*
X0257874Y0078425D01*
G75*
G02*
X0258189Y0078740I0000315J0000000D01*
G01*
X0260709Y0078740D01*
G75*
G02*
X0261024Y0078425I0000000J-000315D01*
G01*
X0261024Y0071181D01*
G75*
G02*
X0260709Y0070866I-000315J0000000D01*
G01*
X0258189Y0070866D01*
G75*
G02*
X0257874Y0071181I0000000J0000315D01*
G01*
G37*
G36*
G01*
X0274409Y0071181D02*
X0274409Y0078425D01*
G75*
G02*
X0274724Y0078740I0000315J0000000D01*
G01*
X0277244Y0078740D01*
G75*
G02*
X0277559Y0078425I0000000J-000315D01*
G01*
X0277559Y0071181D01*
G75*
G02*
X0277244Y0070866I-000315J0000000D01*
G01*
X0274724Y0070866D01*
G75*
G02*
X0274409Y0071181I0000000J0000315D01*
G01*
G37*
G36*
G01*
X0589508Y0038976D02*
X0586870Y0038976D01*
G75*
G02*
X0586614Y0039232I0000000J0000256D01*
G01*
X0586614Y0041280D01*
G75*
G02*
X0586870Y0041535I0000256J0000000D01*
G01*
X0589508Y0041535D01*
G75*
G02*
X0589764Y0041280I0000000J-000256D01*
G01*
X0589764Y0039232D01*
G75*
G02*
X0589508Y0038976I-000256J0000000D01*
G01*
G37*
G36*
G01*
X0589587Y0042815D02*
X0586791Y0042815D01*
G75*
G02*
X0586614Y0042992I0000000J0000177D01*
G01*
X0586614Y0044409D01*
G75*
G02*
X0586791Y0044587I0000177J0000000D01*
G01*
X0589587Y0044587D01*
G75*
G02*
X0589764Y0044409I0000000J-000177D01*
G01*
X0589764Y0042992D01*
G75*
G02*
X0589587Y0042815I-000177J0000000D01*
G01*
G37*
G36*
G01*
X0589587Y0045965D02*
X0586791Y0045965D01*
G75*
G02*
X0586614Y0046142I0000000J0000177D01*
G01*
X0586614Y0047559D01*
G75*
G02*
X0586791Y0047736I0000177J0000000D01*
G01*
X0589587Y0047736D01*
G75*
G02*
X0589764Y0047559I0000000J-000177D01*
G01*
X0589764Y0046142D01*
G75*
G02*
X0589587Y0045965I-000177J0000000D01*
G01*
G37*
G36*
G01*
X0589508Y0049016D02*
X0586870Y0049016D01*
G75*
G02*
X0586614Y0049272I0000000J0000256D01*
G01*
X0586614Y0051319D01*
G75*
G02*
X0586870Y0051575I0000256J0000000D01*
G01*
X0589508Y0051575D01*
G75*
G02*
X0589764Y0051319I0000000J-000256D01*
G01*
X0589764Y0049272D01*
G75*
G02*
X0589508Y0049016I-000256J0000000D01*
G01*
G37*
G36*
G01*
X0582421Y0049016D02*
X0579783Y0049016D01*
G75*
G02*
X0579528Y0049272I0000000J0000256D01*
G01*
X0579528Y0051319D01*
G75*
G02*
X0579783Y0051575I0000256J0000000D01*
G01*
X0582421Y0051575D01*
G75*
G02*
X0582677Y0051319I0000000J-000256D01*
G01*
X0582677Y0049272D01*
G75*
G02*
X0582421Y0049016I-000256J0000000D01*
G01*
G37*
G36*
G01*
X0582500Y0045965D02*
X0579705Y0045965D01*
G75*
G02*
X0579528Y0046142I0000000J0000177D01*
G01*
X0579528Y0047559D01*
G75*
G02*
X0579705Y0047736I0000177J0000000D01*
G01*
X0582500Y0047736D01*
G75*
G02*
X0582677Y0047559I0000000J-000177D01*
G01*
X0582677Y0046142D01*
G75*
G02*
X0582500Y0045965I-000177J0000000D01*
G01*
G37*
G36*
G01*
X0582500Y0042815D02*
X0579705Y0042815D01*
G75*
G02*
X0579528Y0042992I0000000J0000177D01*
G01*
X0579528Y0044409D01*
G75*
G02*
X0579705Y0044587I0000177J0000000D01*
G01*
X0582500Y0044587D01*
G75*
G02*
X0582677Y0044409I0000000J-000177D01*
G01*
X0582677Y0042992D01*
G75*
G02*
X0582500Y0042815I-000177J0000000D01*
G01*
G37*
G36*
G01*
X0582421Y0038976D02*
X0579783Y0038976D01*
G75*
G02*
X0579528Y0039232I0000000J0000256D01*
G01*
X0579528Y0041280D01*
G75*
G02*
X0579783Y0041535I0000256J0000000D01*
G01*
X0582421Y0041535D01*
G75*
G02*
X0582677Y0041280I0000000J-000256D01*
G01*
X0582677Y0039232D01*
G75*
G02*
X0582421Y0038976I-000256J0000000D01*
G01*
G37*
G36*
G01*
X0244587Y0445866D02*
X0239665Y0445866D01*
G75*
G02*
X0239272Y0446260I0000000J0000394D01*
G01*
X0239272Y0449409D01*
G75*
G02*
X0239665Y0449803I0000394J0000000D01*
G01*
X0244587Y0449803D01*
G75*
G02*
X0244980Y0449409I0000000J-000394D01*
G01*
X0244980Y0446260D01*
G75*
G02*
X0244587Y0445866I-000394J0000000D01*
G01*
G37*
G36*
G01*
X0244587Y0453347D02*
X0239665Y0453347D01*
G75*
G02*
X0239272Y0453740I0000000J0000394D01*
G01*
X0239272Y0456890D01*
G75*
G02*
X0239665Y0457284I0000394J0000000D01*
G01*
X0244587Y0457284D01*
G75*
G02*
X0244980Y0456890I0000000J-000394D01*
G01*
X0244980Y0453740D01*
G75*
G02*
X0244587Y0453347I-000394J0000000D01*
G01*
G37*
G36*
G01*
X0122539Y0456890D02*
X0117618Y0456890D01*
G75*
G02*
X0117224Y0457283I0000000J0000394D01*
G01*
X0117224Y0460433D01*
G75*
G02*
X0117618Y0460827I0000394J0000000D01*
G01*
X0122539Y0460827D01*
G75*
G02*
X0122933Y0460433I0000000J-000394D01*
G01*
X0122933Y0457283D01*
G75*
G02*
X0122539Y0456890I-000394J0000000D01*
G01*
G37*
G36*
G01*
X0122539Y0464370D02*
X0117618Y0464370D01*
G75*
G02*
X0117224Y0464764I0000000J0000394D01*
G01*
X0117224Y0467913D01*
G75*
G02*
X0117618Y0468307I0000394J0000000D01*
G01*
X0122539Y0468307D01*
G75*
G02*
X0122933Y0467913I0000000J-000394D01*
G01*
X0122933Y0464764D01*
G75*
G02*
X0122539Y0464370I-000394J0000000D01*
G01*
G37*
D191*
X0109252Y0054724D03*
X0109252Y0045669D03*
X0109252Y0036614D03*
D85*
X0134055Y0045669D03*
G36*
G01*
X0173720Y0418701D02*
X0168799Y0418701D01*
G75*
G02*
X0168406Y0419094I0000000J0000394D01*
G01*
X0168406Y0422244D01*
G75*
G02*
X0168799Y0422638I0000394J0000000D01*
G01*
X0173720Y0422638D01*
G75*
G02*
X0174114Y0422244I0000000J-000394D01*
G01*
X0174114Y0419094D01*
G75*
G02*
X0173720Y0418701I-000394J0000000D01*
G01*
G37*
G36*
G01*
X0173720Y0426181D02*
X0168799Y0426181D01*
G75*
G02*
X0168406Y0426575I0000000J0000394D01*
G01*
X0168406Y0429724D01*
G75*
G02*
X0168799Y0430118I0000394J0000000D01*
G01*
X0173720Y0430118D01*
G75*
G02*
X0174114Y0429724I0000000J-000394D01*
G01*
X0174114Y0426575D01*
G75*
G02*
X0173720Y0426181I-000394J0000000D01*
G01*
G37*
G36*
G01*
X0210276Y0390748D02*
X0213346Y0390748D01*
G75*
G02*
X0213622Y0390472I0000000J-000276D01*
G01*
X0213622Y0388268D01*
G75*
G02*
X0213346Y0387992I-000276J0000000D01*
G01*
X0210276Y0387992D01*
G75*
G02*
X0210000Y0388268I0000000J0000276D01*
G01*
X0210000Y0390472D01*
G75*
G02*
X0210276Y0390748I0000276J0000000D01*
G01*
G37*
G36*
G01*
X0210276Y0384449D02*
X0213346Y0384449D01*
G75*
G02*
X0213622Y0384173I0000000J-000276D01*
G01*
X0213622Y0381969D01*
G75*
G02*
X0213346Y0381693I-000276J0000000D01*
G01*
X0210276Y0381693D01*
G75*
G02*
X0210000Y0381969I0000000J0000276D01*
G01*
X0210000Y0384173D01*
G75*
G02*
X0210276Y0384449I0000276J0000000D01*
G01*
G37*
G36*
G01*
X0175689Y0473031D02*
X0170768Y0473031D01*
G75*
G02*
X0170374Y0473425I0000000J0000394D01*
G01*
X0170374Y0476575D01*
G75*
G02*
X0170768Y0476969I0000394J0000000D01*
G01*
X0175689Y0476969D01*
G75*
G02*
X0176083Y0476575I0000000J-000394D01*
G01*
X0176083Y0473425D01*
G75*
G02*
X0175689Y0473031I-000394J0000000D01*
G01*
G37*
G36*
G01*
X0175689Y0480512D02*
X0170768Y0480512D01*
G75*
G02*
X0170374Y0480906I0000000J0000394D01*
G01*
X0170374Y0484055D01*
G75*
G02*
X0170768Y0484449I0000394J0000000D01*
G01*
X0175689Y0484449D01*
G75*
G02*
X0176083Y0484055I0000000J-000394D01*
G01*
X0176083Y0480906D01*
G75*
G02*
X0175689Y0480512I-000394J0000000D01*
G01*
G37*
G36*
G01*
X0321260Y0480925D02*
X0321260Y0483642D01*
G75*
G02*
X0322165Y0484547I0000906J0000000D01*
G01*
X0327441Y0484547D01*
G75*
G02*
X0328346Y0483642I0000000J-000906D01*
G01*
X0328346Y0480925D01*
G75*
G02*
X0327441Y0480020I-000906J0000000D01*
G01*
X0322165Y0480020D01*
G75*
G02*
X0321260Y0480925I0000000J0000906D01*
G01*
G37*
G36*
G01*
X0321260Y0469508D02*
X0321260Y0472224D01*
G75*
G02*
X0322165Y0473130I0000906J0000000D01*
G01*
X0327441Y0473130D01*
G75*
G02*
X0328346Y0472224I0000000J-000906D01*
G01*
X0328346Y0469508D01*
G75*
G02*
X0327441Y0468602I-000906J0000000D01*
G01*
X0322165Y0468602D01*
G75*
G02*
X0321260Y0469508I0000000J0000906D01*
G01*
G37*
G36*
G01*
X0165748Y0351575D02*
X0169291Y0351575D01*
G75*
G02*
X0169685Y0351181I0000000J-000394D01*
G01*
X0169685Y0348031D01*
G75*
G02*
X0169291Y0347638I-000394J0000000D01*
G01*
X0165748Y0347638D01*
G75*
G02*
X0165354Y0348031I0000000J0000394D01*
G01*
X0165354Y0351181D01*
G75*
G02*
X0165748Y0351575I0000394J0000000D01*
G01*
G37*
G36*
G01*
X0165748Y0344882D02*
X0169291Y0344882D01*
G75*
G02*
X0169685Y0344488I0000000J-000394D01*
G01*
X0169685Y0341339D01*
G75*
G02*
X0169291Y0340945I-000394J0000000D01*
G01*
X0165748Y0340945D01*
G75*
G02*
X0165354Y0341339I0000000J0000394D01*
G01*
X0165354Y0344488D01*
G75*
G02*
X0165748Y0344882I0000394J0000000D01*
G01*
G37*
G36*
G01*
X0203150Y0351575D02*
X0206693Y0351575D01*
G75*
G02*
X0207087Y0351181I0000000J-000394D01*
G01*
X0207087Y0348031D01*
G75*
G02*
X0206693Y0347638I-000394J0000000D01*
G01*
X0203150Y0347638D01*
G75*
G02*
X0202756Y0348031I0000000J0000394D01*
G01*
X0202756Y0351181D01*
G75*
G02*
X0203150Y0351575I0000394J0000000D01*
G01*
G37*
G36*
G01*
X0203150Y0344882D02*
X0206693Y0344882D01*
G75*
G02*
X0207087Y0344488I0000000J-000394D01*
G01*
X0207087Y0341339D01*
G75*
G02*
X0206693Y0340945I-000394J0000000D01*
G01*
X0203150Y0340945D01*
G75*
G02*
X0202756Y0341339I0000000J0000394D01*
G01*
X0202756Y0344488D01*
G75*
G02*
X0203150Y0344882I0000394J0000000D01*
G01*
G37*
G36*
G01*
X0150000Y0351575D02*
X0153543Y0351575D01*
G75*
G02*
X0153937Y0351181I0000000J-000394D01*
G01*
X0153937Y0348031D01*
G75*
G02*
X0153543Y0347638I-000394J0000000D01*
G01*
X0150000Y0347638D01*
G75*
G02*
X0149606Y0348031I0000000J0000394D01*
G01*
X0149606Y0351181D01*
G75*
G02*
X0150000Y0351575I0000394J0000000D01*
G01*
G37*
G36*
G01*
X0150000Y0344882D02*
X0153543Y0344882D01*
G75*
G02*
X0153937Y0344488I0000000J-000394D01*
G01*
X0153937Y0341339D01*
G75*
G02*
X0153543Y0340945I-000394J0000000D01*
G01*
X0150000Y0340945D01*
G75*
G02*
X0149606Y0341339I0000000J0000394D01*
G01*
X0149606Y0344488D01*
G75*
G02*
X0150000Y0344882I0000394J0000000D01*
G01*
G37*
G36*
G01*
X0153642Y0456890D02*
X0148720Y0456890D01*
G75*
G02*
X0148327Y0457283I0000000J0000394D01*
G01*
X0148327Y0460433D01*
G75*
G02*
X0148720Y0460827I0000394J0000000D01*
G01*
X0153642Y0460827D01*
G75*
G02*
X0154035Y0460433I0000000J-000394D01*
G01*
X0154035Y0457283D01*
G75*
G02*
X0153642Y0456890I-000394J0000000D01*
G01*
G37*
G36*
G01*
X0153642Y0464370D02*
X0148720Y0464370D01*
G75*
G02*
X0148327Y0464764I0000000J0000394D01*
G01*
X0148327Y0467913D01*
G75*
G02*
X0148720Y0468307I0000394J0000000D01*
G01*
X0153642Y0468307D01*
G75*
G02*
X0154035Y0467913I0000000J-000394D01*
G01*
X0154035Y0464764D01*
G75*
G02*
X0153642Y0464370I-000394J0000000D01*
G01*
G37*
G36*
G01*
X0216378Y0390965D02*
X0219055Y0390965D01*
G75*
G02*
X0219390Y0390630I0000000J-000335D01*
G01*
X0219390Y0387953D01*
G75*
G02*
X0219055Y0387618I-000335J0000000D01*
G01*
X0216378Y0387618D01*
G75*
G02*
X0216043Y0387953I0000000J0000335D01*
G01*
X0216043Y0390630D01*
G75*
G02*
X0216378Y0390965I0000335J0000000D01*
G01*
G37*
G36*
G01*
X0216378Y0384744D02*
X0219055Y0384744D01*
G75*
G02*
X0219390Y0384409I0000000J-000335D01*
G01*
X0219390Y0381732D01*
G75*
G02*
X0219055Y0381398I-000335J0000000D01*
G01*
X0216378Y0381398D01*
G75*
G02*
X0216043Y0381732I0000000J0000335D01*
G01*
X0216043Y0384409D01*
G75*
G02*
X0216378Y0384744I0000335J0000000D01*
G01*
G37*
G36*
G01*
X0378445Y0458858D02*
X0373524Y0458858D01*
G75*
G02*
X0373130Y0459252I0000000J0000394D01*
G01*
X0373130Y0462402D01*
G75*
G02*
X0373524Y0462795I0000394J0000000D01*
G01*
X0378445Y0462795D01*
G75*
G02*
X0378839Y0462402I0000000J-000394D01*
G01*
X0378839Y0459252D01*
G75*
G02*
X0378445Y0458858I-000394J0000000D01*
G01*
G37*
G36*
G01*
X0378445Y0466339D02*
X0373524Y0466339D01*
G75*
G02*
X0373130Y0466732I0000000J0000394D01*
G01*
X0373130Y0469882D01*
G75*
G02*
X0373524Y0470276I0000394J0000000D01*
G01*
X0378445Y0470276D01*
G75*
G02*
X0378839Y0469882I0000000J-000394D01*
G01*
X0378839Y0466732D01*
G75*
G02*
X0378445Y0466339I-000394J0000000D01*
G01*
G37*
G36*
G01*
X0132283Y0351575D02*
X0135827Y0351575D01*
G75*
G02*
X0136220Y0351181I0000000J-000394D01*
G01*
X0136220Y0348031D01*
G75*
G02*
X0135827Y0347638I-000394J0000000D01*
G01*
X0132283Y0347638D01*
G75*
G02*
X0131890Y0348031I0000000J0000394D01*
G01*
X0131890Y0351181D01*
G75*
G02*
X0132283Y0351575I0000394J0000000D01*
G01*
G37*
G36*
G01*
X0132283Y0344882D02*
X0135827Y0344882D01*
G75*
G02*
X0136220Y0344488I0000000J-000394D01*
G01*
X0136220Y0341339D01*
G75*
G02*
X0135827Y0340945I-000394J0000000D01*
G01*
X0132283Y0340945D01*
G75*
G02*
X0131890Y0341339I0000000J0000394D01*
G01*
X0131890Y0344488D01*
G75*
G02*
X0132283Y0344882I0000394J0000000D01*
G01*
G37*
D115*
X0557382Y0473524D03*
X0576476Y0451673D03*
X0576476Y0473524D03*
X0557382Y0451673D03*
D160*
X0602953Y0452598D03*
X0602953Y0472598D03*
G36*
G01*
X0283957Y0430512D02*
X0279035Y0430512D01*
G75*
G02*
X0278642Y0430906I0000000J0000394D01*
G01*
X0278642Y0434055D01*
G75*
G02*
X0279035Y0434449I0000394J0000000D01*
G01*
X0283957Y0434449D01*
G75*
G02*
X0284350Y0434055I0000000J-000394D01*
G01*
X0284350Y0430906D01*
G75*
G02*
X0283957Y0430512I-000394J0000000D01*
G01*
G37*
G36*
G01*
X0283957Y0437992D02*
X0279035Y0437992D01*
G75*
G02*
X0278642Y0438386I0000000J0000394D01*
G01*
X0278642Y0441536D01*
G75*
G02*
X0279035Y0441929I0000394J0000000D01*
G01*
X0283957Y0441929D01*
G75*
G02*
X0284350Y0441536I0000000J-000394D01*
G01*
X0284350Y0438386D01*
G75*
G02*
X0283957Y0437992I-000394J0000000D01*
G01*
G37*
G36*
G01*
X0206260Y0418701D02*
X0203189Y0418701D01*
G75*
G02*
X0202913Y0418976I0000000J0000276D01*
G01*
X0202913Y0421181D01*
G75*
G02*
X0203189Y0421457I0000276J0000000D01*
G01*
X0206260Y0421457D01*
G75*
G02*
X0206535Y0421181I0000000J-000276D01*
G01*
X0206535Y0418976D01*
G75*
G02*
X0206260Y0418701I-000276J0000000D01*
G01*
G37*
G36*
G01*
X0206260Y0425000D02*
X0203189Y0425000D01*
G75*
G02*
X0202913Y0425276I0000000J0000276D01*
G01*
X0202913Y0427480D01*
G75*
G02*
X0203189Y0427756I0000276J0000000D01*
G01*
X0206260Y0427756D01*
G75*
G02*
X0206535Y0427480I0000000J-000276D01*
G01*
X0206535Y0425276D01*
G75*
G02*
X0206260Y0425000I-000276J0000000D01*
G01*
G37*
G36*
G01*
X0353878Y0069134D02*
X0353878Y0071811D01*
G75*
G02*
X0354213Y0072146I0000335J0000000D01*
G01*
X0356890Y0072146D01*
G75*
G02*
X0357224Y0071811I0000000J-000335D01*
G01*
X0357224Y0069134D01*
G75*
G02*
X0356890Y0068799I-000335J0000000D01*
G01*
X0354213Y0068799D01*
G75*
G02*
X0353878Y0069134I0000000J0000335D01*
G01*
G37*
G36*
G01*
X0360098Y0069134D02*
X0360098Y0071811D01*
G75*
G02*
X0360433Y0072146I0000335J0000000D01*
G01*
X0363110Y0072146D01*
G75*
G02*
X0363445Y0071811I0000000J-000335D01*
G01*
X0363445Y0069134D01*
G75*
G02*
X0363110Y0068799I-000335J0000000D01*
G01*
X0360433Y0068799D01*
G75*
G02*
X0360098Y0069134I0000000J0000335D01*
G01*
G37*
G36*
G01*
X0203543Y0388425D02*
X0203543Y0390315D01*
G75*
G02*
X0203780Y0390551I0000236J0000000D01*
G01*
X0205669Y0390551D01*
G75*
G02*
X0205906Y0390315I0000000J-000236D01*
G01*
X0205906Y0388425D01*
G75*
G02*
X0205669Y0388189I-000236J0000000D01*
G01*
X0203780Y0388189D01*
G75*
G02*
X0203543Y0388425I0000000J0000236D01*
G01*
G37*
G36*
G01*
X0203543Y0397087D02*
X0203543Y0398976D01*
G75*
G02*
X0203780Y0399213I0000236J0000000D01*
G01*
X0205669Y0399213D01*
G75*
G02*
X0205906Y0398976I0000000J-000236D01*
G01*
X0205906Y0397087D01*
G75*
G02*
X0205669Y0396850I-000236J0000000D01*
G01*
X0203780Y0396850D01*
G75*
G02*
X0203543Y0397087I0000000J0000236D01*
G01*
G37*
G36*
G01*
X0124803Y0325433D02*
X0124803Y0327323D01*
G75*
G02*
X0125039Y0327559I0000236J0000000D01*
G01*
X0126929Y0327559D01*
G75*
G02*
X0127165Y0327323I0000000J-000236D01*
G01*
X0127165Y0325433D01*
G75*
G02*
X0126929Y0325197I-000236J0000000D01*
G01*
X0125039Y0325197D01*
G75*
G02*
X0124803Y0325433I0000000J0000236D01*
G01*
G37*
G36*
G01*
X0124803Y0334094D02*
X0124803Y0335984D01*
G75*
G02*
X0125039Y0336220I0000236J0000000D01*
G01*
X0126929Y0336220D01*
G75*
G02*
X0127165Y0335984I0000000J-000236D01*
G01*
X0127165Y0334094D01*
G75*
G02*
X0126929Y0333858I-000236J0000000D01*
G01*
X0125039Y0333858D01*
G75*
G02*
X0124803Y0334094I0000000J0000236D01*
G01*
G37*
G36*
G01*
X0195374Y0473031D02*
X0190453Y0473031D01*
G75*
G02*
X0190059Y0473425I0000000J0000394D01*
G01*
X0190059Y0476575D01*
G75*
G02*
X0190453Y0476969I0000394J0000000D01*
G01*
X0195374Y0476969D01*
G75*
G02*
X0195768Y0476575I0000000J-000394D01*
G01*
X0195768Y0473425D01*
G75*
G02*
X0195374Y0473031I-000394J0000000D01*
G01*
G37*
G36*
G01*
X0195374Y0480512D02*
X0190453Y0480512D01*
G75*
G02*
X0190059Y0480906I0000000J0000394D01*
G01*
X0190059Y0484055D01*
G75*
G02*
X0190453Y0484449I0000394J0000000D01*
G01*
X0195374Y0484449D01*
G75*
G02*
X0195768Y0484055I0000000J-000394D01*
G01*
X0195768Y0480906D01*
G75*
G02*
X0195374Y0480512I-000394J0000000D01*
G01*
G37*
G36*
G01*
X0234744Y0473031D02*
X0229823Y0473031D01*
G75*
G02*
X0229429Y0473425I0000000J0000394D01*
G01*
X0229429Y0476575D01*
G75*
G02*
X0229823Y0476969I0000394J0000000D01*
G01*
X0234744Y0476969D01*
G75*
G02*
X0235138Y0476575I0000000J-000394D01*
G01*
X0235138Y0473425D01*
G75*
G02*
X0234744Y0473031I-000394J0000000D01*
G01*
G37*
G36*
G01*
X0234744Y0480512D02*
X0229823Y0480512D01*
G75*
G02*
X0229429Y0480906I0000000J0000394D01*
G01*
X0229429Y0484055D01*
G75*
G02*
X0229823Y0484449I0000394J0000000D01*
G01*
X0234744Y0484449D01*
G75*
G02*
X0235138Y0484055I0000000J-000394D01*
G01*
X0235138Y0480906D01*
G75*
G02*
X0234744Y0480512I-000394J0000000D01*
G01*
G37*
G36*
G01*
X0245630Y0424606D02*
X0242559Y0424606D01*
G75*
G02*
X0242283Y0424882I0000000J0000276D01*
G01*
X0242283Y0427087D01*
G75*
G02*
X0242559Y0427362I0000276J0000000D01*
G01*
X0245630Y0427362D01*
G75*
G02*
X0245906Y0427087I0000000J-000276D01*
G01*
X0245906Y0424882D01*
G75*
G02*
X0245630Y0424606I-000276J0000000D01*
G01*
G37*
G36*
G01*
X0245630Y0430906D02*
X0242559Y0430906D01*
G75*
G02*
X0242283Y0431181I0000000J0000276D01*
G01*
X0242283Y0433386D01*
G75*
G02*
X0242559Y0433661I0000276J0000000D01*
G01*
X0245630Y0433661D01*
G75*
G02*
X0245906Y0433386I0000000J-000276D01*
G01*
X0245906Y0431181D01*
G75*
G02*
X0245630Y0430906I-000276J0000000D01*
G01*
G37*
G36*
G01*
X0359547Y0473012D02*
X0354626Y0473012D01*
G75*
G02*
X0354232Y0473406I0000000J0000394D01*
G01*
X0354232Y0476555D01*
G75*
G02*
X0354626Y0476949I0000394J0000000D01*
G01*
X0359547Y0476949D01*
G75*
G02*
X0359941Y0476555I0000000J-000394D01*
G01*
X0359941Y0473406D01*
G75*
G02*
X0359547Y0473012I-000394J0000000D01*
G01*
G37*
G36*
G01*
X0359547Y0480492D02*
X0354626Y0480492D01*
G75*
G02*
X0354232Y0480886I0000000J0000394D01*
G01*
X0354232Y0484036D01*
G75*
G02*
X0354626Y0484429I0000394J0000000D01*
G01*
X0359547Y0484429D01*
G75*
G02*
X0359941Y0484036I0000000J-000394D01*
G01*
X0359941Y0480886D01*
G75*
G02*
X0359547Y0480492I-000394J0000000D01*
G01*
G37*
D115*
X0557382Y0363091D03*
X0576476Y0384941D03*
X0557382Y0384941D03*
X0576476Y0363091D03*
D160*
X0602953Y0364016D03*
X0602953Y0384016D03*
G36*
G01*
X0604469Y0444291D02*
X0607539Y0444291D01*
G75*
G02*
X0607815Y0444016I0000000J-000276D01*
G01*
X0607815Y0441811D01*
G75*
G02*
X0607539Y0441535I-000276J0000000D01*
G01*
X0604469Y0441535D01*
G75*
G02*
X0604193Y0441811I0000000J0000276D01*
G01*
X0604193Y0444016D01*
G75*
G02*
X0604469Y0444291I0000276J0000000D01*
G01*
G37*
G36*
G01*
X0604469Y0437992D02*
X0607539Y0437992D01*
G75*
G02*
X0607815Y0437717I0000000J-000276D01*
G01*
X0607815Y0435512D01*
G75*
G02*
X0607539Y0435236I-000276J0000000D01*
G01*
X0604469Y0435236D01*
G75*
G02*
X0604193Y0435512I0000000J0000276D01*
G01*
X0604193Y0437717D01*
G75*
G02*
X0604469Y0437992I0000276J0000000D01*
G01*
G37*
D161*
X0450345Y0344068D03*
X0298002Y0346211D03*
X0391782Y0330659D03*
X0298002Y0338730D03*
X0443652Y0351949D03*
G36*
G01*
X0295768Y0457677D02*
X0290846Y0457677D01*
G75*
G02*
X0290453Y0458071I0000000J0000394D01*
G01*
X0290453Y0461220D01*
G75*
G02*
X0290846Y0461614I0000394J0000000D01*
G01*
X0295768Y0461614D01*
G75*
G02*
X0296161Y0461220I0000000J-000394D01*
G01*
X0296161Y0458071D01*
G75*
G02*
X0295768Y0457677I-000394J0000000D01*
G01*
G37*
G36*
G01*
X0295768Y0465158D02*
X0290846Y0465158D01*
G75*
G02*
X0290453Y0465551I0000000J0000394D01*
G01*
X0290453Y0468701D01*
G75*
G02*
X0290846Y0469095I0000394J0000000D01*
G01*
X0295768Y0469095D01*
G75*
G02*
X0296161Y0468701I0000000J-000394D01*
G01*
X0296161Y0465551D01*
G75*
G02*
X0295768Y0465158I-000394J0000000D01*
G01*
G37*
X0247602Y0299755D03*
X0247938Y0321419D03*
X0284315Y0327019D03*
G36*
G01*
X0282347Y0338830D02*
X0282347Y0338830D01*
X0282347Y0338830D01*
X0282347Y0338830D01*
X0282347Y0338830D01*
G37*
G36*
G01*
X0295768Y0430512D02*
X0290846Y0430512D01*
G75*
G02*
X0290453Y0430906I0000000J0000394D01*
G01*
X0290453Y0434055D01*
G75*
G02*
X0290846Y0434449I0000394J0000000D01*
G01*
X0295768Y0434449D01*
G75*
G02*
X0296161Y0434055I0000000J-000394D01*
G01*
X0296161Y0430906D01*
G75*
G02*
X0295768Y0430512I-000394J0000000D01*
G01*
G37*
G36*
G01*
X0295768Y0437992D02*
X0290846Y0437992D01*
G75*
G02*
X0290453Y0438386I0000000J0000394D01*
G01*
X0290453Y0441536D01*
G75*
G02*
X0290846Y0441929I0000394J0000000D01*
G01*
X0295768Y0441929D01*
G75*
G02*
X0296161Y0441536I0000000J-000394D01*
G01*
X0296161Y0438386D01*
G75*
G02*
X0295768Y0437992I-000394J0000000D01*
G01*
G37*
X0336762Y0039114D03*
X0309282Y0034094D03*
X0306250Y0092460D03*
G36*
G01*
X0194488Y0310098D02*
X0194488Y0312736D01*
G75*
G02*
X0194744Y0312992I0000256J0000000D01*
G01*
X0196791Y0312992D01*
G75*
G02*
X0197047Y0312736I0000000J-000256D01*
G01*
X0197047Y0310098D01*
G75*
G02*
X0196791Y0309843I-000256J0000000D01*
G01*
X0194744Y0309843D01*
G75*
G02*
X0194488Y0310098I0000000J0000256D01*
G01*
G37*
G36*
G01*
X0198327Y0310020D02*
X0198327Y0312815D01*
G75*
G02*
X0198504Y0312992I0000177J0000000D01*
G01*
X0199921Y0312992D01*
G75*
G02*
X0200098Y0312815I0000000J-000177D01*
G01*
X0200098Y0310020D01*
G75*
G02*
X0199921Y0309843I-000177J0000000D01*
G01*
X0198504Y0309843D01*
G75*
G02*
X0198327Y0310020I0000000J0000177D01*
G01*
G37*
G36*
G01*
X0201476Y0310020D02*
X0201476Y0312815D01*
G75*
G02*
X0201654Y0312992I0000177J0000000D01*
G01*
X0203071Y0312992D01*
G75*
G02*
X0203248Y0312815I0000000J-000177D01*
G01*
X0203248Y0310020D01*
G75*
G02*
X0203071Y0309843I-000177J0000000D01*
G01*
X0201654Y0309843D01*
G75*
G02*
X0201476Y0310020I0000000J0000177D01*
G01*
G37*
G36*
G01*
X0204528Y0310098D02*
X0204528Y0312736D01*
G75*
G02*
X0204783Y0312992I0000256J0000000D01*
G01*
X0206831Y0312992D01*
G75*
G02*
X0207087Y0312736I0000000J-000256D01*
G01*
X0207087Y0310098D01*
G75*
G02*
X0206831Y0309843I-000256J0000000D01*
G01*
X0204783Y0309843D01*
G75*
G02*
X0204528Y0310098I0000000J0000256D01*
G01*
G37*
G36*
G01*
X0204528Y0317185D02*
X0204528Y0319823D01*
G75*
G02*
X0204783Y0320079I0000256J0000000D01*
G01*
X0206831Y0320079D01*
G75*
G02*
X0207087Y0319823I0000000J-000256D01*
G01*
X0207087Y0317185D01*
G75*
G02*
X0206831Y0316929I-000256J0000000D01*
G01*
X0204783Y0316929D01*
G75*
G02*
X0204528Y0317185I0000000J0000256D01*
G01*
G37*
G36*
G01*
X0201476Y0317106D02*
X0201476Y0319902D01*
G75*
G02*
X0201654Y0320079I0000177J0000000D01*
G01*
X0203071Y0320079D01*
G75*
G02*
X0203248Y0319902I0000000J-000177D01*
G01*
X0203248Y0317106D01*
G75*
G02*
X0203071Y0316929I-000177J0000000D01*
G01*
X0201654Y0316929D01*
G75*
G02*
X0201476Y0317106I0000000J0000177D01*
G01*
G37*
G36*
G01*
X0198327Y0317106D02*
X0198327Y0319902D01*
G75*
G02*
X0198504Y0320079I0000177J0000000D01*
G01*
X0199921Y0320079D01*
G75*
G02*
X0200098Y0319902I0000000J-000177D01*
G01*
X0200098Y0317106D01*
G75*
G02*
X0199921Y0316929I-000177J0000000D01*
G01*
X0198504Y0316929D01*
G75*
G02*
X0198327Y0317106I0000000J0000177D01*
G01*
G37*
G36*
G01*
X0194488Y0317185D02*
X0194488Y0319823D01*
G75*
G02*
X0194744Y0320079I0000256J0000000D01*
G01*
X0196791Y0320079D01*
G75*
G02*
X0197047Y0319823I0000000J-000256D01*
G01*
X0197047Y0317185D01*
G75*
G02*
X0196791Y0316929I-000256J0000000D01*
G01*
X0194744Y0316929D01*
G75*
G02*
X0194488Y0317185I0000000J0000256D01*
G01*
G37*
D297*
X0161178Y0413504D03*
X0161178Y0426496D03*
G36*
G01*
X0294646Y0386122D02*
X0291969Y0386122D01*
G75*
G02*
X0291634Y0386457I0000000J0000335D01*
G01*
X0291634Y0389134D01*
G75*
G02*
X0291969Y0389469I0000335J0000000D01*
G01*
X0294646Y0389469D01*
G75*
G02*
X0294980Y0389134I0000000J-000335D01*
G01*
X0294980Y0386457D01*
G75*
G02*
X0294646Y0386122I-000335J0000000D01*
G01*
G37*
G36*
G01*
X0294646Y0392343D02*
X0291969Y0392343D01*
G75*
G02*
X0291634Y0392677I0000000J0000335D01*
G01*
X0291634Y0395354D01*
G75*
G02*
X0291969Y0395689I0000335J0000000D01*
G01*
X0294646Y0395689D01*
G75*
G02*
X0294980Y0395354I0000000J-000335D01*
G01*
X0294980Y0392677D01*
G75*
G02*
X0294646Y0392343I-000335J0000000D01*
G01*
G37*
G36*
G01*
X0283957Y0457677D02*
X0279035Y0457677D01*
G75*
G02*
X0278642Y0458071I0000000J0000394D01*
G01*
X0278642Y0461220D01*
G75*
G02*
X0279035Y0461614I0000394J0000000D01*
G01*
X0283957Y0461614D01*
G75*
G02*
X0284350Y0461220I0000000J-000394D01*
G01*
X0284350Y0458071D01*
G75*
G02*
X0283957Y0457677I-000394J0000000D01*
G01*
G37*
G36*
G01*
X0283957Y0465158D02*
X0279035Y0465158D01*
G75*
G02*
X0278642Y0465551I0000000J0000394D01*
G01*
X0278642Y0468701D01*
G75*
G02*
X0279035Y0469095I0000394J0000000D01*
G01*
X0283957Y0469095D01*
G75*
G02*
X0284350Y0468701I0000000J-000394D01*
G01*
X0284350Y0465551D01*
G75*
G02*
X0283957Y0465158I-000394J0000000D01*
G01*
G37*
G36*
G01*
X0109055Y0325433D02*
X0109055Y0327323D01*
G75*
G02*
X0109291Y0327559I0000236J0000000D01*
G01*
X0111181Y0327559D01*
G75*
G02*
X0111417Y0327323I0000000J-000236D01*
G01*
X0111417Y0325433D01*
G75*
G02*
X0111181Y0325197I-000236J0000000D01*
G01*
X0109291Y0325197D01*
G75*
G02*
X0109055Y0325433I0000000J0000236D01*
G01*
G37*
G36*
G01*
X0109055Y0334094D02*
X0109055Y0335984D01*
G75*
G02*
X0109291Y0336220I0000236J0000000D01*
G01*
X0111181Y0336220D01*
G75*
G02*
X0111417Y0335984I0000000J-000236D01*
G01*
X0111417Y0334094D01*
G75*
G02*
X0111181Y0333858I-000236J0000000D01*
G01*
X0109291Y0333858D01*
G75*
G02*
X0109055Y0334094I0000000J0000236D01*
G01*
G37*
G36*
G01*
X0315059Y0408661D02*
X0318799Y0408661D01*
G75*
G02*
X0319783Y0407677I0000000J-000984D01*
G01*
X0319783Y0405709D01*
G75*
G02*
X0318799Y0404724I-000984J0000000D01*
G01*
X0315059Y0404724D01*
G75*
G02*
X0314075Y0405709I0000000J0000984D01*
G01*
X0314075Y0407677D01*
G75*
G02*
X0315059Y0408661I0000984J0000000D01*
G01*
G37*
G36*
G01*
X0315059Y0401181D02*
X0318799Y0401181D01*
G75*
G02*
X0319783Y0400197I0000000J-000984D01*
G01*
X0319783Y0398228D01*
G75*
G02*
X0318799Y0397244I-000984J0000000D01*
G01*
X0315059Y0397244D01*
G75*
G02*
X0314075Y0398228I0000000J0000984D01*
G01*
X0314075Y0400197D01*
G75*
G02*
X0315059Y0401181I0000984J0000000D01*
G01*
G37*
G36*
G01*
X0187795Y0325433D02*
X0187795Y0327323D01*
G75*
G02*
X0188031Y0327559I0000236J0000000D01*
G01*
X0189921Y0327559D01*
G75*
G02*
X0190157Y0327323I0000000J-000236D01*
G01*
X0190157Y0325433D01*
G75*
G02*
X0189921Y0325197I-000236J0000000D01*
G01*
X0188031Y0325197D01*
G75*
G02*
X0187795Y0325433I0000000J0000236D01*
G01*
G37*
G36*
G01*
X0187795Y0334094D02*
X0187795Y0335984D01*
G75*
G02*
X0188031Y0336220I0000236J0000000D01*
G01*
X0189921Y0336220D01*
G75*
G02*
X0190157Y0335984I0000000J-000236D01*
G01*
X0190157Y0334094D01*
G75*
G02*
X0189921Y0333858I-000236J0000000D01*
G01*
X0188031Y0333858D01*
G75*
G02*
X0187795Y0334094I0000000J0000236D01*
G01*
G37*
G36*
G01*
X0175689Y0445866D02*
X0170768Y0445866D01*
G75*
G02*
X0170374Y0446260I0000000J0000394D01*
G01*
X0170374Y0449409D01*
G75*
G02*
X0170768Y0449803I0000394J0000000D01*
G01*
X0175689Y0449803D01*
G75*
G02*
X0176083Y0449409I0000000J-000394D01*
G01*
X0176083Y0446260D01*
G75*
G02*
X0175689Y0445866I-000394J0000000D01*
G01*
G37*
G36*
G01*
X0175689Y0453347D02*
X0170768Y0453347D01*
G75*
G02*
X0170374Y0453740I0000000J0000394D01*
G01*
X0170374Y0456890D01*
G75*
G02*
X0170768Y0457284I0000394J0000000D01*
G01*
X0175689Y0457284D01*
G75*
G02*
X0176083Y0456890I0000000J-000394D01*
G01*
X0176083Y0453740D01*
G75*
G02*
X0175689Y0453347I-000394J0000000D01*
G01*
G37*
G36*
G01*
X0216378Y0407500D02*
X0219055Y0407500D01*
G75*
G02*
X0219390Y0407165I0000000J-000335D01*
G01*
X0219390Y0404488D01*
G75*
G02*
X0219055Y0404154I-000335J0000000D01*
G01*
X0216378Y0404154D01*
G75*
G02*
X0216043Y0404488I0000000J0000335D01*
G01*
X0216043Y0407165D01*
G75*
G02*
X0216378Y0407500I0000335J0000000D01*
G01*
G37*
G36*
G01*
X0216378Y0401280D02*
X0219055Y0401280D01*
G75*
G02*
X0219390Y0400945I0000000J-000335D01*
G01*
X0219390Y0398268D01*
G75*
G02*
X0219055Y0397933I-000335J0000000D01*
G01*
X0216378Y0397933D01*
G75*
G02*
X0216043Y0398268I0000000J0000335D01*
G01*
X0216043Y0400945D01*
G75*
G02*
X0216378Y0401280I0000335J0000000D01*
G01*
G37*
G36*
G01*
X0269312Y0435110D02*
X0272383Y0435110D01*
G75*
G02*
X0272658Y0434835I0000000J-000276D01*
G01*
X0272658Y0432630D01*
G75*
G02*
X0272383Y0432354I-000276J0000000D01*
G01*
X0269312Y0432354D01*
G75*
G02*
X0269036Y0432630I0000000J0000276D01*
G01*
X0269036Y0434835D01*
G75*
G02*
X0269312Y0435110I0000276J0000000D01*
G01*
G37*
G36*
G01*
X0269312Y0428811D02*
X0272383Y0428811D01*
G75*
G02*
X0272658Y0428535I0000000J-000276D01*
G01*
X0272658Y0426331D01*
G75*
G02*
X0272383Y0426055I-000276J0000000D01*
G01*
X0269312Y0426055D01*
G75*
G02*
X0269036Y0426331I0000000J0000276D01*
G01*
X0269036Y0428535D01*
G75*
G02*
X0269312Y0428811I0000276J0000000D01*
G01*
G37*
G36*
G01*
X0132677Y0325433D02*
X0132677Y0327323D01*
G75*
G02*
X0132913Y0327559I0000236J0000000D01*
G01*
X0134803Y0327559D01*
G75*
G02*
X0135039Y0327323I0000000J-000236D01*
G01*
X0135039Y0325433D01*
G75*
G02*
X0134803Y0325197I-000236J0000000D01*
G01*
X0132913Y0325197D01*
G75*
G02*
X0132677Y0325433I0000000J0000236D01*
G01*
G37*
G36*
G01*
X0132677Y0334094D02*
X0132677Y0335984D01*
G75*
G02*
X0132913Y0336220I0000236J0000000D01*
G01*
X0134803Y0336220D01*
G75*
G02*
X0135039Y0335984I0000000J-000236D01*
G01*
X0135039Y0334094D01*
G75*
G02*
X0134803Y0333858I-000236J0000000D01*
G01*
X0132913Y0333858D01*
G75*
G02*
X0132677Y0334094I0000000J0000236D01*
G01*
G37*
G36*
G01*
X0298274Y0388927D02*
X0300163Y0388927D01*
G75*
G02*
X0300400Y0388691I0000000J-000236D01*
G01*
X0300400Y0386801D01*
G75*
G02*
X0300163Y0386565I-000236J0000000D01*
G01*
X0298274Y0386565D01*
G75*
G02*
X0298037Y0386801I0000000J0000236D01*
G01*
X0298037Y0388691D01*
G75*
G02*
X0298274Y0388927I0000236J0000000D01*
G01*
G37*
G36*
G01*
X0306935Y0388927D02*
X0308825Y0388927D01*
G75*
G02*
X0309061Y0388691I0000000J-000236D01*
G01*
X0309061Y0386801D01*
G75*
G02*
X0308825Y0386565I-000236J0000000D01*
G01*
X0306935Y0386565D01*
G75*
G02*
X0306699Y0386801I0000000J0000236D01*
G01*
X0306699Y0388691D01*
G75*
G02*
X0306935Y0388927I0000236J0000000D01*
G01*
G37*
X0109055Y0118307D03*
X0109055Y0105315D03*
G36*
G01*
X0326673Y0383465D02*
X0322933Y0383465D01*
G75*
G02*
X0321949Y0384449I0000000J0000984D01*
G01*
X0321949Y0386417D01*
G75*
G02*
X0322933Y0387402I0000984J0000000D01*
G01*
X0326673Y0387402D01*
G75*
G02*
X0327657Y0386417I0000000J-000984D01*
G01*
X0327657Y0384449D01*
G75*
G02*
X0326673Y0383465I-000984J0000000D01*
G01*
G37*
G36*
G01*
X0326673Y0390945D02*
X0322933Y0390945D01*
G75*
G02*
X0321949Y0391929I0000000J0000984D01*
G01*
X0321949Y0393898D01*
G75*
G02*
X0322933Y0394882I0000984J0000000D01*
G01*
X0326673Y0394882D01*
G75*
G02*
X0327657Y0393898I0000000J-000984D01*
G01*
X0327657Y0391929D01*
G75*
G02*
X0326673Y0390945I-000984J0000000D01*
G01*
G37*
G36*
G01*
X0150394Y0325433D02*
X0150394Y0327323D01*
G75*
G02*
X0150630Y0327559I0000236J0000000D01*
G01*
X0152520Y0327559D01*
G75*
G02*
X0152756Y0327323I0000000J-000236D01*
G01*
X0152756Y0325433D01*
G75*
G02*
X0152520Y0325197I-000236J0000000D01*
G01*
X0150630Y0325197D01*
G75*
G02*
X0150394Y0325433I0000000J0000236D01*
G01*
G37*
G36*
G01*
X0150394Y0334094D02*
X0150394Y0335984D01*
G75*
G02*
X0150630Y0336220I0000236J0000000D01*
G01*
X0152520Y0336220D01*
G75*
G02*
X0152756Y0335984I0000000J-000236D01*
G01*
X0152756Y0334094D01*
G75*
G02*
X0152520Y0333858I-000236J0000000D01*
G01*
X0150630Y0333858D01*
G75*
G02*
X0150394Y0334094I0000000J0000236D01*
G01*
G37*
G36*
G01*
X0605059Y0093012D02*
X0608130Y0093012D01*
G75*
G02*
X0608406Y0092736I0000000J-000276D01*
G01*
X0608406Y0090532D01*
G75*
G02*
X0608130Y0090256I-000276J0000000D01*
G01*
X0605059Y0090256D01*
G75*
G02*
X0604783Y0090532I0000000J0000276D01*
G01*
X0604783Y0092736D01*
G75*
G02*
X0605059Y0093012I0000276J0000000D01*
G01*
G37*
G36*
G01*
X0605059Y0086713D02*
X0608130Y0086713D01*
G75*
G02*
X0608406Y0086437I0000000J-000276D01*
G01*
X0608406Y0084232D01*
G75*
G02*
X0608130Y0083957I-000276J0000000D01*
G01*
X0605059Y0083957D01*
G75*
G02*
X0604783Y0084232I0000000J0000276D01*
G01*
X0604783Y0086437D01*
G75*
G02*
X0605059Y0086713I0000276J0000000D01*
G01*
G37*
G36*
G01*
X0396102Y0447441D02*
X0399173Y0447441D01*
G75*
G02*
X0399449Y0447165I0000000J-000276D01*
G01*
X0399449Y0444961D01*
G75*
G02*
X0399173Y0444685I-000276J0000000D01*
G01*
X0396102Y0444685D01*
G75*
G02*
X0395827Y0444961I0000000J0000276D01*
G01*
X0395827Y0447165D01*
G75*
G02*
X0396102Y0447441I0000276J0000000D01*
G01*
G37*
G36*
G01*
X0396102Y0441142D02*
X0399173Y0441142D01*
G75*
G02*
X0399449Y0440866I0000000J-000276D01*
G01*
X0399449Y0438661D01*
G75*
G02*
X0399173Y0438386I-000276J0000000D01*
G01*
X0396102Y0438386D01*
G75*
G02*
X0395827Y0438661I0000000J0000276D01*
G01*
X0395827Y0440866D01*
G75*
G02*
X0396102Y0441142I0000276J0000000D01*
G01*
G37*
G36*
G01*
X0158268Y0325433D02*
X0158268Y0327323D01*
G75*
G02*
X0158504Y0327559I0000236J0000000D01*
G01*
X0160394Y0327559D01*
G75*
G02*
X0160630Y0327323I0000000J-000236D01*
G01*
X0160630Y0325433D01*
G75*
G02*
X0160394Y0325197I-000236J0000000D01*
G01*
X0158504Y0325197D01*
G75*
G02*
X0158268Y0325433I0000000J0000236D01*
G01*
G37*
G36*
G01*
X0158268Y0334094D02*
X0158268Y0335984D01*
G75*
G02*
X0158504Y0336220I0000236J0000000D01*
G01*
X0160394Y0336220D01*
G75*
G02*
X0160630Y0335984I0000000J-000236D01*
G01*
X0160630Y0334094D01*
G75*
G02*
X0160394Y0333858I-000236J0000000D01*
G01*
X0158504Y0333858D01*
G75*
G02*
X0158268Y0334094I0000000J0000236D01*
G01*
G37*
G36*
G01*
X0318799Y0383465D02*
X0315059Y0383465D01*
G75*
G02*
X0314075Y0384449I0000000J0000984D01*
G01*
X0314075Y0386417D01*
G75*
G02*
X0315059Y0387402I0000984J0000000D01*
G01*
X0318799Y0387402D01*
G75*
G02*
X0319783Y0386417I0000000J-000984D01*
G01*
X0319783Y0384449D01*
G75*
G02*
X0318799Y0383465I-000984J0000000D01*
G01*
G37*
G36*
G01*
X0318799Y0390945D02*
X0315059Y0390945D01*
G75*
G02*
X0314075Y0391929I0000000J0000984D01*
G01*
X0314075Y0393898D01*
G75*
G02*
X0315059Y0394882I0000984J0000000D01*
G01*
X0318799Y0394882D01*
G75*
G02*
X0319783Y0393898I0000000J-000984D01*
G01*
X0319783Y0391929D01*
G75*
G02*
X0318799Y0390945I-000984J0000000D01*
G01*
G37*
G36*
G01*
X0388583Y0083858D02*
X0388583Y0083071D01*
G75*
G02*
X0388189Y0082677I-000394J0000000D01*
G01*
X0386811Y0082677D01*
G75*
G02*
X0386417Y0083071I0000000J0000394D01*
G01*
X0386417Y0083858D01*
G75*
G02*
X0386811Y0084252I0000394J0000000D01*
G01*
X0388189Y0084252D01*
G75*
G02*
X0388583Y0083858I0000000J-000394D01*
G01*
G37*
G36*
G01*
X0388583Y0086220D02*
X0388583Y0085433D01*
G75*
G02*
X0388189Y0085039I-000394J0000000D01*
G01*
X0386811Y0085039D01*
G75*
G02*
X0386417Y0085433I0000000J0000394D01*
G01*
X0386417Y0086220D01*
G75*
G02*
X0386811Y0086614I0000394J0000000D01*
G01*
X0388189Y0086614D01*
G75*
G02*
X0388583Y0086220I0000000J-000394D01*
G01*
G37*
G36*
G01*
X0387008Y0088976D02*
X0387008Y0087598D01*
G75*
G02*
X0386614Y0087205I-000394J0000000D01*
G01*
X0385827Y0087205D01*
G75*
G02*
X0385433Y0087598I0000000J0000394D01*
G01*
X0385433Y0088976D01*
G75*
G02*
X0385827Y0089370I0000394J0000000D01*
G01*
X0386614Y0089370D01*
G75*
G02*
X0387008Y0088976I0000000J-000394D01*
G01*
G37*
G36*
G01*
X0384646Y0088976D02*
X0384646Y0087598D01*
G75*
G02*
X0384252Y0087205I-000394J0000000D01*
G01*
X0383465Y0087205D01*
G75*
G02*
X0383071Y0087598I0000000J0000394D01*
G01*
X0383071Y0088976D01*
G75*
G02*
X0383465Y0089370I0000394J0000000D01*
G01*
X0384252Y0089370D01*
G75*
G02*
X0384646Y0088976I0000000J-000394D01*
G01*
G37*
G36*
G01*
X0382283Y0088976D02*
X0382283Y0087598D01*
G75*
G02*
X0381890Y0087205I-000394J0000000D01*
G01*
X0381102Y0087205D01*
G75*
G02*
X0380709Y0087598I0000000J0000394D01*
G01*
X0380709Y0088976D01*
G75*
G02*
X0381102Y0089370I0000394J0000000D01*
G01*
X0381890Y0089370D01*
G75*
G02*
X0382283Y0088976I0000000J-000394D01*
G01*
G37*
G36*
G01*
X0381299Y0086220D02*
X0381299Y0085433D01*
G75*
G02*
X0380906Y0085039I-000394J0000000D01*
G01*
X0379528Y0085039D01*
G75*
G02*
X0379134Y0085433I0000000J0000394D01*
G01*
X0379134Y0086220D01*
G75*
G02*
X0379528Y0086614I0000394J0000000D01*
G01*
X0380906Y0086614D01*
G75*
G02*
X0381299Y0086220I0000000J-000394D01*
G01*
G37*
G36*
G01*
X0381299Y0083858D02*
X0381299Y0083071D01*
G75*
G02*
X0380906Y0082677I-000394J0000000D01*
G01*
X0379528Y0082677D01*
G75*
G02*
X0379134Y0083071I0000000J0000394D01*
G01*
X0379134Y0083858D01*
G75*
G02*
X0379528Y0084252I0000394J0000000D01*
G01*
X0380906Y0084252D01*
G75*
G02*
X0381299Y0083858I0000000J-000394D01*
G01*
G37*
G36*
G01*
X0382283Y0081693D02*
X0382283Y0080315D01*
G75*
G02*
X0381890Y0079921I-000394J0000000D01*
G01*
X0381102Y0079921D01*
G75*
G02*
X0380709Y0080315I0000000J0000394D01*
G01*
X0380709Y0081693D01*
G75*
G02*
X0381102Y0082087I0000394J0000000D01*
G01*
X0381890Y0082087D01*
G75*
G02*
X0382283Y0081693I0000000J-000394D01*
G01*
G37*
G36*
G01*
X0384646Y0081693D02*
X0384646Y0080315D01*
G75*
G02*
X0384252Y0079921I-000394J0000000D01*
G01*
X0383465Y0079921D01*
G75*
G02*
X0383071Y0080315I0000000J0000394D01*
G01*
X0383071Y0081693D01*
G75*
G02*
X0383465Y0082087I0000394J0000000D01*
G01*
X0384252Y0082087D01*
G75*
G02*
X0384646Y0081693I0000000J-000394D01*
G01*
G37*
G36*
G01*
X0387008Y0081693D02*
X0387008Y0080315D01*
G75*
G02*
X0386614Y0079921I-000394J0000000D01*
G01*
X0385827Y0079921D01*
G75*
G02*
X0385433Y0080315I0000000J0000394D01*
G01*
X0385433Y0081693D01*
G75*
G02*
X0385827Y0082087I0000394J0000000D01*
G01*
X0386614Y0082087D01*
G75*
G02*
X0387008Y0081693I0000000J-000394D01*
G01*
G37*
G36*
G01*
X0346949Y0445866D02*
X0342028Y0445866D01*
G75*
G02*
X0341634Y0446260I0000000J0000394D01*
G01*
X0341634Y0449409D01*
G75*
G02*
X0342028Y0449803I0000394J0000000D01*
G01*
X0346949Y0449803D01*
G75*
G02*
X0347343Y0449409I0000000J-000394D01*
G01*
X0347343Y0446260D01*
G75*
G02*
X0346949Y0445866I-000394J0000000D01*
G01*
G37*
G36*
G01*
X0346949Y0453347D02*
X0342028Y0453347D01*
G75*
G02*
X0341634Y0453740I0000000J0000394D01*
G01*
X0341634Y0456890D01*
G75*
G02*
X0342028Y0457284I0000394J0000000D01*
G01*
X0346949Y0457284D01*
G75*
G02*
X0347343Y0456890I0000000J-000394D01*
G01*
X0347343Y0453740D01*
G75*
G02*
X0346949Y0453347I-000394J0000000D01*
G01*
G37*
G36*
G01*
X0195669Y0325433D02*
X0195669Y0327323D01*
G75*
G02*
X0195906Y0327559I0000236J0000000D01*
G01*
X0197795Y0327559D01*
G75*
G02*
X0198031Y0327323I0000000J-000236D01*
G01*
X0198031Y0325433D01*
G75*
G02*
X0197795Y0325197I-000236J0000000D01*
G01*
X0195906Y0325197D01*
G75*
G02*
X0195669Y0325433I0000000J0000236D01*
G01*
G37*
G36*
G01*
X0195669Y0334094D02*
X0195669Y0335984D01*
G75*
G02*
X0195906Y0336220I0000236J0000000D01*
G01*
X0197795Y0336220D01*
G75*
G02*
X0198031Y0335984I0000000J-000236D01*
G01*
X0198031Y0334094D01*
G75*
G02*
X0197795Y0333858I-000236J0000000D01*
G01*
X0195906Y0333858D01*
G75*
G02*
X0195669Y0334094I0000000J0000236D01*
G01*
G37*
G36*
G01*
X0115748Y0312067D02*
X0115748Y0314705D01*
G75*
G02*
X0116004Y0314961I0000256J0000000D01*
G01*
X0118051Y0314961D01*
G75*
G02*
X0118307Y0314705I0000000J-000256D01*
G01*
X0118307Y0312067D01*
G75*
G02*
X0118051Y0311811I-000256J0000000D01*
G01*
X0116004Y0311811D01*
G75*
G02*
X0115748Y0312067I0000000J0000256D01*
G01*
G37*
G36*
G01*
X0119587Y0311988D02*
X0119587Y0314783D01*
G75*
G02*
X0119764Y0314961I0000177J0000000D01*
G01*
X0121181Y0314961D01*
G75*
G02*
X0121358Y0314783I0000000J-000177D01*
G01*
X0121358Y0311988D01*
G75*
G02*
X0121181Y0311811I-000177J0000000D01*
G01*
X0119764Y0311811D01*
G75*
G02*
X0119587Y0311988I0000000J0000177D01*
G01*
G37*
G36*
G01*
X0122736Y0311988D02*
X0122736Y0314783D01*
G75*
G02*
X0122913Y0314961I0000177J0000000D01*
G01*
X0124331Y0314961D01*
G75*
G02*
X0124508Y0314783I0000000J-000177D01*
G01*
X0124508Y0311988D01*
G75*
G02*
X0124331Y0311811I-000177J0000000D01*
G01*
X0122913Y0311811D01*
G75*
G02*
X0122736Y0311988I0000000J0000177D01*
G01*
G37*
G36*
G01*
X0125787Y0312067D02*
X0125787Y0314705D01*
G75*
G02*
X0126043Y0314961I0000256J0000000D01*
G01*
X0128091Y0314961D01*
G75*
G02*
X0128346Y0314705I0000000J-000256D01*
G01*
X0128346Y0312067D01*
G75*
G02*
X0128091Y0311811I-000256J0000000D01*
G01*
X0126043Y0311811D01*
G75*
G02*
X0125787Y0312067I0000000J0000256D01*
G01*
G37*
G36*
G01*
X0125787Y0319154D02*
X0125787Y0321791D01*
G75*
G02*
X0126043Y0322047I0000256J0000000D01*
G01*
X0128091Y0322047D01*
G75*
G02*
X0128346Y0321791I0000000J-000256D01*
G01*
X0128346Y0319154D01*
G75*
G02*
X0128091Y0318898I-000256J0000000D01*
G01*
X0126043Y0318898D01*
G75*
G02*
X0125787Y0319154I0000000J0000256D01*
G01*
G37*
G36*
G01*
X0122736Y0319075D02*
X0122736Y0321870D01*
G75*
G02*
X0122913Y0322047I0000177J0000000D01*
G01*
X0124331Y0322047D01*
G75*
G02*
X0124508Y0321870I0000000J-000177D01*
G01*
X0124508Y0319075D01*
G75*
G02*
X0124331Y0318898I-000177J0000000D01*
G01*
X0122913Y0318898D01*
G75*
G02*
X0122736Y0319075I0000000J0000177D01*
G01*
G37*
G36*
G01*
X0119587Y0319075D02*
X0119587Y0321870D01*
G75*
G02*
X0119764Y0322047I0000177J0000000D01*
G01*
X0121181Y0322047D01*
G75*
G02*
X0121358Y0321870I0000000J-000177D01*
G01*
X0121358Y0319075D01*
G75*
G02*
X0121181Y0318898I-000177J0000000D01*
G01*
X0119764Y0318898D01*
G75*
G02*
X0119587Y0319075I0000000J0000177D01*
G01*
G37*
G36*
G01*
X0115748Y0319154D02*
X0115748Y0321791D01*
G75*
G02*
X0116004Y0322047I0000256J0000000D01*
G01*
X0118051Y0322047D01*
G75*
G02*
X0118307Y0321791I0000000J-000256D01*
G01*
X0118307Y0319154D01*
G75*
G02*
X0118051Y0318898I-000256J0000000D01*
G01*
X0116004Y0318898D01*
G75*
G02*
X0115748Y0319154I0000000J0000256D01*
G01*
G37*
G36*
G01*
X0330807Y0408661D02*
X0334547Y0408661D01*
G75*
G02*
X0335531Y0407677I0000000J-000984D01*
G01*
X0335531Y0405709D01*
G75*
G02*
X0334547Y0404724I-000984J0000000D01*
G01*
X0330807Y0404724D01*
G75*
G02*
X0329823Y0405709I0000000J0000984D01*
G01*
X0329823Y0407677D01*
G75*
G02*
X0330807Y0408661I0000984J0000000D01*
G01*
G37*
G36*
G01*
X0330807Y0401181D02*
X0334547Y0401181D01*
G75*
G02*
X0335531Y0400197I0000000J-000984D01*
G01*
X0335531Y0398228D01*
G75*
G02*
X0334547Y0397244I-000984J0000000D01*
G01*
X0330807Y0397244D01*
G75*
G02*
X0329823Y0398228I0000000J0000984D01*
G01*
X0329823Y0400197D01*
G75*
G02*
X0330807Y0401181I0000984J0000000D01*
G01*
G37*
G36*
G01*
X0440158Y0411850D02*
X0440158Y0414921D01*
G75*
G02*
X0440433Y0415197I0000276J0000000D01*
G01*
X0442638Y0415197D01*
G75*
G02*
X0442913Y0414921I0000000J-000276D01*
G01*
X0442913Y0411850D01*
G75*
G02*
X0442638Y0411575I-000276J0000000D01*
G01*
X0440433Y0411575D01*
G75*
G02*
X0440158Y0411850I0000000J0000276D01*
G01*
G37*
G36*
G01*
X0446457Y0411850D02*
X0446457Y0414921D01*
G75*
G02*
X0446732Y0415197I0000276J0000000D01*
G01*
X0448937Y0415197D01*
G75*
G02*
X0449213Y0414921I0000000J-000276D01*
G01*
X0449213Y0411850D01*
G75*
G02*
X0448937Y0411575I-000276J0000000D01*
G01*
X0446732Y0411575D01*
G75*
G02*
X0446457Y0411850I0000000J0000276D01*
G01*
G37*
G36*
G01*
X0334547Y0383465D02*
X0330807Y0383465D01*
G75*
G02*
X0329823Y0384449I0000000J0000984D01*
G01*
X0329823Y0386417D01*
G75*
G02*
X0330807Y0387402I0000984J0000000D01*
G01*
X0334547Y0387402D01*
G75*
G02*
X0335531Y0386417I0000000J-000984D01*
G01*
X0335531Y0384449D01*
G75*
G02*
X0334547Y0383465I-000984J0000000D01*
G01*
G37*
G36*
G01*
X0334547Y0390945D02*
X0330807Y0390945D01*
G75*
G02*
X0329823Y0391929I0000000J0000984D01*
G01*
X0329823Y0393898D01*
G75*
G02*
X0330807Y0394882I0000984J0000000D01*
G01*
X0334547Y0394882D01*
G75*
G02*
X0335531Y0393898I0000000J-000984D01*
G01*
X0335531Y0391929D01*
G75*
G02*
X0334547Y0390945I-000984J0000000D01*
G01*
G37*
D246*
X0132087Y0025591D03*
X0119094Y0025591D03*
G36*
G01*
X0315453Y0457677D02*
X0310531Y0457677D01*
G75*
G02*
X0310138Y0458071I0000000J0000394D01*
G01*
X0310138Y0461220D01*
G75*
G02*
X0310531Y0461614I0000394J0000000D01*
G01*
X0315453Y0461614D01*
G75*
G02*
X0315846Y0461220I0000000J-000394D01*
G01*
X0315846Y0458071D01*
G75*
G02*
X0315453Y0457677I-000394J0000000D01*
G01*
G37*
G36*
G01*
X0315453Y0465158D02*
X0310531Y0465158D01*
G75*
G02*
X0310138Y0465551I0000000J0000394D01*
G01*
X0310138Y0468701D01*
G75*
G02*
X0310531Y0469095I0000394J0000000D01*
G01*
X0315453Y0469095D01*
G75*
G02*
X0315846Y0468701I0000000J-000394D01*
G01*
X0315846Y0465551D01*
G75*
G02*
X0315453Y0465158I-000394J0000000D01*
G01*
G37*
D223*
X0361614Y0081348D03*
X0359646Y0081348D03*
X0357677Y0081348D03*
X0355709Y0081348D03*
D146*
X0355659Y0079331D03*
X0355659Y0077362D03*
D223*
X0355709Y0075344D03*
X0357677Y0075344D03*
X0359646Y0075344D03*
X0361614Y0075344D03*
D146*
X0361663Y0077362D03*
X0361663Y0079331D03*
G36*
G01*
X0185531Y0445866D02*
X0180610Y0445866D01*
G75*
G02*
X0180217Y0446260I0000000J0000394D01*
G01*
X0180217Y0449409D01*
G75*
G02*
X0180610Y0449803I0000394J0000000D01*
G01*
X0185531Y0449803D01*
G75*
G02*
X0185925Y0449409I0000000J-000394D01*
G01*
X0185925Y0446260D01*
G75*
G02*
X0185531Y0445866I-000394J0000000D01*
G01*
G37*
G36*
G01*
X0185531Y0453347D02*
X0180610Y0453347D01*
G75*
G02*
X0180217Y0453740I0000000J0000394D01*
G01*
X0180217Y0456890D01*
G75*
G02*
X0180610Y0457284I0000394J0000000D01*
G01*
X0185531Y0457284D01*
G75*
G02*
X0185925Y0456890I0000000J-000394D01*
G01*
X0185925Y0453740D01*
G75*
G02*
X0185531Y0453347I-000394J0000000D01*
G01*
G37*
G36*
G01*
X0124409Y0351575D02*
X0127953Y0351575D01*
G75*
G02*
X0128346Y0351181I0000000J-000394D01*
G01*
X0128346Y0348031D01*
G75*
G02*
X0127953Y0347638I-000394J0000000D01*
G01*
X0124409Y0347638D01*
G75*
G02*
X0124016Y0348031I0000000J0000394D01*
G01*
X0124016Y0351181D01*
G75*
G02*
X0124409Y0351575I0000394J0000000D01*
G01*
G37*
G36*
G01*
X0124409Y0344882D02*
X0127953Y0344882D01*
G75*
G02*
X0128346Y0344488I0000000J-000394D01*
G01*
X0128346Y0341339D01*
G75*
G02*
X0127953Y0340945I-000394J0000000D01*
G01*
X0124409Y0340945D01*
G75*
G02*
X0124016Y0341339I0000000J0000394D01*
G01*
X0124016Y0344488D01*
G75*
G02*
X0124409Y0344882I0000394J0000000D01*
G01*
G37*
G36*
G01*
X0390256Y0464764D02*
X0385335Y0464764D01*
G75*
G02*
X0384941Y0465157I0000000J0000394D01*
G01*
X0384941Y0468307D01*
G75*
G02*
X0385335Y0468701I0000394J0000000D01*
G01*
X0390256Y0468701D01*
G75*
G02*
X0390650Y0468307I0000000J-000394D01*
G01*
X0390650Y0465157D01*
G75*
G02*
X0390256Y0464764I-000394J0000000D01*
G01*
G37*
G36*
G01*
X0390256Y0472244D02*
X0385335Y0472244D01*
G75*
G02*
X0384941Y0472638I0000000J0000394D01*
G01*
X0384941Y0475787D01*
G75*
G02*
X0385335Y0476181I0000394J0000000D01*
G01*
X0390256Y0476181D01*
G75*
G02*
X0390650Y0475787I0000000J-000394D01*
G01*
X0390650Y0472638D01*
G75*
G02*
X0390256Y0472244I-000394J0000000D01*
G01*
G37*
G36*
G01*
X0211417Y0325433D02*
X0211417Y0327323D01*
G75*
G02*
X0211654Y0327559I0000236J0000000D01*
G01*
X0213543Y0327559D01*
G75*
G02*
X0213780Y0327323I0000000J-000236D01*
G01*
X0213780Y0325433D01*
G75*
G02*
X0213543Y0325197I-000236J0000000D01*
G01*
X0211654Y0325197D01*
G75*
G02*
X0211417Y0325433I0000000J0000236D01*
G01*
G37*
G36*
G01*
X0211417Y0334094D02*
X0211417Y0335984D01*
G75*
G02*
X0211654Y0336220I0000236J0000000D01*
G01*
X0213543Y0336220D01*
G75*
G02*
X0213780Y0335984I0000000J-000236D01*
G01*
X0213780Y0334094D01*
G75*
G02*
X0213543Y0333858I-000236J0000000D01*
G01*
X0211654Y0333858D01*
G75*
G02*
X0211417Y0334094I0000000J0000236D01*
G01*
G37*
G36*
G01*
X0116535Y0351575D02*
X0120079Y0351575D01*
G75*
G02*
X0120472Y0351181I0000000J-000394D01*
G01*
X0120472Y0348031D01*
G75*
G02*
X0120079Y0347638I-000394J0000000D01*
G01*
X0116535Y0347638D01*
G75*
G02*
X0116142Y0348031I0000000J0000394D01*
G01*
X0116142Y0351181D01*
G75*
G02*
X0116535Y0351575I0000394J0000000D01*
G01*
G37*
G36*
G01*
X0116535Y0344882D02*
X0120079Y0344882D01*
G75*
G02*
X0120472Y0344488I0000000J-000394D01*
G01*
X0120472Y0341339D01*
G75*
G02*
X0120079Y0340945I-000394J0000000D01*
G01*
X0116535Y0340945D01*
G75*
G02*
X0116142Y0341339I0000000J0000394D01*
G01*
X0116142Y0344488D01*
G75*
G02*
X0116535Y0344882I0000394J0000000D01*
G01*
G37*
G36*
G01*
X0323622Y0411811D02*
X0323622Y0415354D01*
G75*
G02*
X0324016Y0415748I0000394J0000000D01*
G01*
X0327165Y0415748D01*
G75*
G02*
X0327559Y0415354I0000000J-000394D01*
G01*
X0327559Y0411811D01*
G75*
G02*
X0327165Y0411417I-000394J0000000D01*
G01*
X0324016Y0411417D01*
G75*
G02*
X0323622Y0411811I0000000J0000394D01*
G01*
G37*
G36*
G01*
X0330315Y0411811D02*
X0330315Y0415354D01*
G75*
G02*
X0330709Y0415748I0000394J0000000D01*
G01*
X0333858Y0415748D01*
G75*
G02*
X0334252Y0415354I0000000J-000394D01*
G01*
X0334252Y0411811D01*
G75*
G02*
X0333858Y0411417I-000394J0000000D01*
G01*
X0330709Y0411417D01*
G75*
G02*
X0330315Y0411811I0000000J0000394D01*
G01*
G37*
G36*
G01*
X0269094Y0419724D02*
X0269094Y0422795D01*
G75*
G02*
X0269370Y0423071I0000276J0000000D01*
G01*
X0271575Y0423071D01*
G75*
G02*
X0271850Y0422795I0000000J-000276D01*
G01*
X0271850Y0419724D01*
G75*
G02*
X0271575Y0419449I-000276J0000000D01*
G01*
X0269370Y0419449D01*
G75*
G02*
X0269094Y0419724I0000000J0000276D01*
G01*
G37*
G36*
G01*
X0275394Y0419724D02*
X0275394Y0422795D01*
G75*
G02*
X0275669Y0423071I0000276J0000000D01*
G01*
X0277874Y0423071D01*
G75*
G02*
X0278150Y0422795I0000000J-000276D01*
G01*
X0278150Y0419724D01*
G75*
G02*
X0277874Y0419449I-000276J0000000D01*
G01*
X0275669Y0419449D01*
G75*
G02*
X0275394Y0419724I0000000J0000276D01*
G01*
G37*
D191*
X0109252Y0095669D03*
X0109252Y0086614D03*
X0109252Y0077559D03*
D85*
X0134055Y0086614D03*
G36*
G01*
X0608711Y0079528D02*
X0608711Y0068307D01*
G75*
G02*
X0607726Y0067323I-000984J0000000D01*
G01*
X0604872Y0067323D01*
G75*
G02*
X0603888Y0068307I0000000J0000984D01*
G01*
X0603888Y0079528D01*
G75*
G02*
X0604872Y0080512I0000984J0000000D01*
G01*
X0607726Y0080512D01*
G75*
G02*
X0608711Y0079528I0000000J-000984D01*
G01*
G37*
G36*
G01*
X0585384Y0079528D02*
X0585384Y0068307D01*
G75*
G02*
X0584400Y0067323I-000984J0000000D01*
G01*
X0581545Y0067323D01*
G75*
G02*
X0580561Y0068307I0000000J0000984D01*
G01*
X0580561Y0079528D01*
G75*
G02*
X0581545Y0080512I0000984J0000000D01*
G01*
X0584400Y0080512D01*
G75*
G02*
X0585384Y0079528I0000000J-000984D01*
G01*
G37*
G36*
G01*
X0205217Y0473031D02*
X0200295Y0473031D01*
G75*
G02*
X0199902Y0473425I0000000J0000394D01*
G01*
X0199902Y0476575D01*
G75*
G02*
X0200295Y0476969I0000394J0000000D01*
G01*
X0205217Y0476969D01*
G75*
G02*
X0205610Y0476575I0000000J-000394D01*
G01*
X0205610Y0473425D01*
G75*
G02*
X0205217Y0473031I-000394J0000000D01*
G01*
G37*
G36*
G01*
X0205217Y0480512D02*
X0200295Y0480512D01*
G75*
G02*
X0199902Y0480906I0000000J0000394D01*
G01*
X0199902Y0484055D01*
G75*
G02*
X0200295Y0484449I0000394J0000000D01*
G01*
X0205217Y0484449D01*
G75*
G02*
X0205610Y0484055I0000000J-000394D01*
G01*
X0205610Y0480906D01*
G75*
G02*
X0205217Y0480512I-000394J0000000D01*
G01*
G37*
G36*
G01*
X0244587Y0473031D02*
X0239665Y0473031D01*
G75*
G02*
X0239272Y0473425I0000000J0000394D01*
G01*
X0239272Y0476575D01*
G75*
G02*
X0239665Y0476969I0000394J0000000D01*
G01*
X0244587Y0476969D01*
G75*
G02*
X0244980Y0476575I0000000J-000394D01*
G01*
X0244980Y0473425D01*
G75*
G02*
X0244587Y0473031I-000394J0000000D01*
G01*
G37*
G36*
G01*
X0244587Y0480512D02*
X0239665Y0480512D01*
G75*
G02*
X0239272Y0480906I0000000J0000394D01*
G01*
X0239272Y0484055D01*
G75*
G02*
X0239665Y0484449I0000394J0000000D01*
G01*
X0244587Y0484449D01*
G75*
G02*
X0244980Y0484055I0000000J-000394D01*
G01*
X0244980Y0480906D01*
G75*
G02*
X0244587Y0480512I-000394J0000000D01*
G01*
G37*
G36*
G01*
X0215059Y0457677D02*
X0210138Y0457677D01*
G75*
G02*
X0209744Y0458071I0000000J0000394D01*
G01*
X0209744Y0461220D01*
G75*
G02*
X0210138Y0461614I0000394J0000000D01*
G01*
X0215059Y0461614D01*
G75*
G02*
X0215453Y0461220I0000000J-000394D01*
G01*
X0215453Y0458071D01*
G75*
G02*
X0215059Y0457677I-000394J0000000D01*
G01*
G37*
G36*
G01*
X0215059Y0465158D02*
X0210138Y0465158D01*
G75*
G02*
X0209744Y0465551I0000000J0000394D01*
G01*
X0209744Y0468701D01*
G75*
G02*
X0210138Y0469095I0000394J0000000D01*
G01*
X0215059Y0469095D01*
G75*
G02*
X0215453Y0468701I0000000J-000394D01*
G01*
X0215453Y0465551D01*
G75*
G02*
X0215059Y0465158I-000394J0000000D01*
G01*
G37*
G36*
G01*
X0166142Y0325433D02*
X0166142Y0327323D01*
G75*
G02*
X0166378Y0327559I0000236J0000000D01*
G01*
X0168268Y0327559D01*
G75*
G02*
X0168504Y0327323I0000000J-000236D01*
G01*
X0168504Y0325433D01*
G75*
G02*
X0168268Y0325197I-000236J0000000D01*
G01*
X0166378Y0325197D01*
G75*
G02*
X0166142Y0325433I0000000J0000236D01*
G01*
G37*
G36*
G01*
X0166142Y0334094D02*
X0166142Y0335984D01*
G75*
G02*
X0166378Y0336220I0000236J0000000D01*
G01*
X0168268Y0336220D01*
G75*
G02*
X0168504Y0335984I0000000J-000236D01*
G01*
X0168504Y0334094D01*
G75*
G02*
X0168268Y0333858I-000236J0000000D01*
G01*
X0166378Y0333858D01*
G75*
G02*
X0166142Y0334094I0000000J0000236D01*
G01*
G37*
G36*
G01*
X0207047Y0375342D02*
X0203976Y0375342D01*
G75*
G02*
X0203701Y0375618I0000000J0000276D01*
G01*
X0203701Y0377823D01*
G75*
G02*
X0203976Y0378098I0000276J0000000D01*
G01*
X0207047Y0378098D01*
G75*
G02*
X0207323Y0377823I0000000J-000276D01*
G01*
X0207323Y0375618D01*
G75*
G02*
X0207047Y0375342I-000276J0000000D01*
G01*
G37*
G36*
G01*
X0207047Y0381641D02*
X0203976Y0381641D01*
G75*
G02*
X0203701Y0381917I0000000J0000276D01*
G01*
X0203701Y0384122D01*
G75*
G02*
X0203976Y0384397I0000276J0000000D01*
G01*
X0207047Y0384397D01*
G75*
G02*
X0207323Y0384122I0000000J-000276D01*
G01*
X0207323Y0381917D01*
G75*
G02*
X0207047Y0381641I-000276J0000000D01*
G01*
G37*
G36*
G01*
X0264272Y0428543D02*
X0259350Y0428543D01*
G75*
G02*
X0258957Y0428937I0000000J0000394D01*
G01*
X0258957Y0432087D01*
G75*
G02*
X0259350Y0432480I0000394J0000000D01*
G01*
X0264272Y0432480D01*
G75*
G02*
X0264665Y0432087I0000000J-000394D01*
G01*
X0264665Y0428937D01*
G75*
G02*
X0264272Y0428543I-000394J0000000D01*
G01*
G37*
G36*
G01*
X0264272Y0436024D02*
X0259350Y0436024D01*
G75*
G02*
X0258957Y0436417I0000000J0000394D01*
G01*
X0258957Y0439567D01*
G75*
G02*
X0259350Y0439961I0000394J0000000D01*
G01*
X0264272Y0439961D01*
G75*
G02*
X0264665Y0439567I0000000J-000394D01*
G01*
X0264665Y0436417D01*
G75*
G02*
X0264272Y0436024I-000394J0000000D01*
G01*
G37*
G36*
G01*
X0440158Y0390197D02*
X0440158Y0393268D01*
G75*
G02*
X0440433Y0393543I0000276J0000000D01*
G01*
X0442638Y0393543D01*
G75*
G02*
X0442913Y0393268I0000000J-000276D01*
G01*
X0442913Y0390197D01*
G75*
G02*
X0442638Y0389921I-000276J0000000D01*
G01*
X0440433Y0389921D01*
G75*
G02*
X0440158Y0390197I0000000J0000276D01*
G01*
G37*
G36*
G01*
X0446457Y0390197D02*
X0446457Y0393268D01*
G75*
G02*
X0446732Y0393543I0000276J0000000D01*
G01*
X0448937Y0393543D01*
G75*
G02*
X0449213Y0393268I0000000J-000276D01*
G01*
X0449213Y0390197D01*
G75*
G02*
X0448937Y0389921I-000276J0000000D01*
G01*
X0446732Y0389921D01*
G75*
G02*
X0446457Y0390197I0000000J0000276D01*
G01*
G37*
G36*
G01*
X0209823Y0369882D02*
X0209823Y0372559D01*
G75*
G02*
X0210157Y0372894I0000335J0000000D01*
G01*
X0212835Y0372894D01*
G75*
G02*
X0213169Y0372559I0000000J-000335D01*
G01*
X0213169Y0369882D01*
G75*
G02*
X0212835Y0369547I-000335J0000000D01*
G01*
X0210157Y0369547D01*
G75*
G02*
X0209823Y0369882I0000000J0000335D01*
G01*
G37*
G36*
G01*
X0216043Y0369882D02*
X0216043Y0372559D01*
G75*
G02*
X0216378Y0372894I0000335J0000000D01*
G01*
X0219055Y0372894D01*
G75*
G02*
X0219390Y0372559I0000000J-000335D01*
G01*
X0219390Y0369882D01*
G75*
G02*
X0219055Y0369547I-000335J0000000D01*
G01*
X0216378Y0369547D01*
G75*
G02*
X0216043Y0369882I0000000J0000335D01*
G01*
G37*
D297*
X0151335Y0413504D03*
X0151335Y0426496D03*
D161*
X0454281Y0047415D03*
G36*
G01*
X0272106Y0060000D02*
X0272106Y0057323D01*
G75*
G02*
X0271772Y0056988I-000335J0000000D01*
G01*
X0269094Y0056988D01*
G75*
G02*
X0268760Y0057323I0000000J0000335D01*
G01*
X0268760Y0060000D01*
G75*
G02*
X0269094Y0060335I0000335J0000000D01*
G01*
X0271772Y0060335D01*
G75*
G02*
X0272106Y0060000I0000000J-000335D01*
G01*
G37*
G36*
G01*
X0265886Y0060000D02*
X0265886Y0057323D01*
G75*
G02*
X0265551Y0056988I-000335J0000000D01*
G01*
X0262874Y0056988D01*
G75*
G02*
X0262539Y0057323I0000000J0000335D01*
G01*
X0262539Y0060000D01*
G75*
G02*
X0262874Y0060335I0000335J0000000D01*
G01*
X0265551Y0060335D01*
G75*
G02*
X0265886Y0060000I0000000J-000335D01*
G01*
G37*
G36*
G01*
X0561811Y0057480D02*
X0561811Y0061024D01*
G75*
G02*
X0562205Y0061417I0000394J0000000D01*
G01*
X0565354Y0061417D01*
G75*
G02*
X0565748Y0061024I0000000J-000394D01*
G01*
X0565748Y0057480D01*
G75*
G02*
X0565354Y0057087I-000394J0000000D01*
G01*
X0562205Y0057087D01*
G75*
G02*
X0561811Y0057480I0000000J0000394D01*
G01*
G37*
G36*
G01*
X0568504Y0057480D02*
X0568504Y0061024D01*
G75*
G02*
X0568898Y0061417I0000394J0000000D01*
G01*
X0572047Y0061417D01*
G75*
G02*
X0572441Y0061024I0000000J-000394D01*
G01*
X0572441Y0057480D01*
G75*
G02*
X0572047Y0057087I-000394J0000000D01*
G01*
X0568898Y0057087D01*
G75*
G02*
X0568504Y0057480I0000000J0000394D01*
G01*
G37*
G36*
G01*
X0157874Y0351575D02*
X0161417Y0351575D01*
G75*
G02*
X0161811Y0351181I0000000J-000394D01*
G01*
X0161811Y0348031D01*
G75*
G02*
X0161417Y0347638I-000394J0000000D01*
G01*
X0157874Y0347638D01*
G75*
G02*
X0157480Y0348031I0000000J0000394D01*
G01*
X0157480Y0351181D01*
G75*
G02*
X0157874Y0351575I0000394J0000000D01*
G01*
G37*
G36*
G01*
X0157874Y0344882D02*
X0161417Y0344882D01*
G75*
G02*
X0161811Y0344488I0000000J-000394D01*
G01*
X0161811Y0341339D01*
G75*
G02*
X0161417Y0340945I-000394J0000000D01*
G01*
X0157874Y0340945D01*
G75*
G02*
X0157480Y0341339I0000000J0000394D01*
G01*
X0157480Y0344488D01*
G75*
G02*
X0157874Y0344882I0000394J0000000D01*
G01*
G37*
G36*
G01*
X0274114Y0473031D02*
X0269193Y0473031D01*
G75*
G02*
X0268799Y0473425I0000000J0000394D01*
G01*
X0268799Y0476575D01*
G75*
G02*
X0269193Y0476969I0000394J0000000D01*
G01*
X0274114Y0476969D01*
G75*
G02*
X0274508Y0476575I0000000J-000394D01*
G01*
X0274508Y0473425D01*
G75*
G02*
X0274114Y0473031I-000394J0000000D01*
G01*
G37*
G36*
G01*
X0274114Y0480512D02*
X0269193Y0480512D01*
G75*
G02*
X0268799Y0480906I0000000J0000394D01*
G01*
X0268799Y0484055D01*
G75*
G02*
X0269193Y0484449I0000394J0000000D01*
G01*
X0274114Y0484449D01*
G75*
G02*
X0274508Y0484055I0000000J-000394D01*
G01*
X0274508Y0480906D01*
G75*
G02*
X0274114Y0480512I-000394J0000000D01*
G01*
G37*
G36*
G01*
X0110728Y0456890D02*
X0105807Y0456890D01*
G75*
G02*
X0105413Y0457283I0000000J0000394D01*
G01*
X0105413Y0460433D01*
G75*
G02*
X0105807Y0460827I0000394J0000000D01*
G01*
X0110728Y0460827D01*
G75*
G02*
X0111122Y0460433I0000000J-000394D01*
G01*
X0111122Y0457283D01*
G75*
G02*
X0110728Y0456890I-000394J0000000D01*
G01*
G37*
G36*
G01*
X0110728Y0464370D02*
X0105807Y0464370D01*
G75*
G02*
X0105413Y0464764I0000000J0000394D01*
G01*
X0105413Y0467913D01*
G75*
G02*
X0105807Y0468307I0000394J0000000D01*
G01*
X0110728Y0468307D01*
G75*
G02*
X0111122Y0467913I0000000J-000394D01*
G01*
X0111122Y0464764D01*
G75*
G02*
X0110728Y0464370I-000394J0000000D01*
G01*
G37*
G36*
G01*
X0561811Y0033858D02*
X0561811Y0037402D01*
G75*
G02*
X0562205Y0037795I0000394J0000000D01*
G01*
X0565354Y0037795D01*
G75*
G02*
X0565748Y0037402I0000000J-000394D01*
G01*
X0565748Y0033858D01*
G75*
G02*
X0565354Y0033465I-000394J0000000D01*
G01*
X0562205Y0033465D01*
G75*
G02*
X0561811Y0033858I0000000J0000394D01*
G01*
G37*
G36*
G01*
X0568504Y0033858D02*
X0568504Y0037402D01*
G75*
G02*
X0568898Y0037795I0000394J0000000D01*
G01*
X0572047Y0037795D01*
G75*
G02*
X0572441Y0037402I0000000J-000394D01*
G01*
X0572441Y0033858D01*
G75*
G02*
X0572047Y0033465I-000394J0000000D01*
G01*
X0568898Y0033465D01*
G75*
G02*
X0568504Y0033858I0000000J0000394D01*
G01*
G37*
G36*
G01*
X0427756Y0415827D02*
X0427756Y0410945D01*
G75*
G02*
X0427244Y0410433I-000512J0000000D01*
G01*
X0423150Y0410433D01*
G75*
G02*
X0422638Y0410945I0000000J0000512D01*
G01*
X0422638Y0415827D01*
G75*
G02*
X0423150Y0416339I0000512J0000000D01*
G01*
X0427244Y0416339D01*
G75*
G02*
X0427756Y0415827I0000000J-000512D01*
G01*
G37*
G36*
G01*
X0435236Y0415827D02*
X0435236Y0410945D01*
G75*
G02*
X0434724Y0410433I-000512J0000000D01*
G01*
X0430630Y0410433D01*
G75*
G02*
X0430118Y0410945I0000000J0000512D01*
G01*
X0430118Y0415827D01*
G75*
G02*
X0430630Y0416339I0000512J0000000D01*
G01*
X0434724Y0416339D01*
G75*
G02*
X0435236Y0415827I0000000J-000512D01*
G01*
G37*
G36*
G01*
X0257874Y0045591D02*
X0257874Y0052835D01*
G75*
G02*
X0258189Y0053150I0000315J0000000D01*
G01*
X0260709Y0053150D01*
G75*
G02*
X0261024Y0052835I0000000J-000315D01*
G01*
X0261024Y0045591D01*
G75*
G02*
X0260709Y0045276I-000315J0000000D01*
G01*
X0258189Y0045276D01*
G75*
G02*
X0257874Y0045591I0000000J0000315D01*
G01*
G37*
G36*
G01*
X0274409Y0045591D02*
X0274409Y0052835D01*
G75*
G02*
X0274724Y0053150I0000315J0000000D01*
G01*
X0277244Y0053150D01*
G75*
G02*
X0277559Y0052835I0000000J-000315D01*
G01*
X0277559Y0045591D01*
G75*
G02*
X0277244Y0045276I-000315J0000000D01*
G01*
X0274724Y0045276D01*
G75*
G02*
X0274409Y0045591I0000000J0000315D01*
G01*
G37*
G36*
G01*
X0444291Y0060610D02*
X0441614Y0060610D01*
G75*
G02*
X0441280Y0060945I0000000J0000335D01*
G01*
X0441280Y0063622D01*
G75*
G02*
X0441614Y0063957I0000335J0000000D01*
G01*
X0444291Y0063957D01*
G75*
G02*
X0444626Y0063622I0000000J-000335D01*
G01*
X0444626Y0060945D01*
G75*
G02*
X0444291Y0060610I-000335J0000000D01*
G01*
G37*
G36*
G01*
X0444291Y0066831D02*
X0441614Y0066831D01*
G75*
G02*
X0441280Y0067165I0000000J0000335D01*
G01*
X0441280Y0069843D01*
G75*
G02*
X0441614Y0070177I0000335J0000000D01*
G01*
X0444291Y0070177D01*
G75*
G02*
X0444626Y0069843I0000000J-000335D01*
G01*
X0444626Y0067165D01*
G75*
G02*
X0444291Y0066831I-000335J0000000D01*
G01*
G37*
G36*
G01*
X0203543Y0325433D02*
X0203543Y0327323D01*
G75*
G02*
X0203780Y0327559I0000236J0000000D01*
G01*
X0205669Y0327559D01*
G75*
G02*
X0205906Y0327323I0000000J-000236D01*
G01*
X0205906Y0325433D01*
G75*
G02*
X0205669Y0325197I-000236J0000000D01*
G01*
X0203780Y0325197D01*
G75*
G02*
X0203543Y0325433I0000000J0000236D01*
G01*
G37*
G36*
G01*
X0203543Y0334094D02*
X0203543Y0335984D01*
G75*
G02*
X0203780Y0336220I0000236J0000000D01*
G01*
X0205669Y0336220D01*
G75*
G02*
X0205906Y0335984I0000000J-000236D01*
G01*
X0205906Y0334094D01*
G75*
G02*
X0205669Y0333858I-000236J0000000D01*
G01*
X0203780Y0333858D01*
G75*
G02*
X0203543Y0334094I0000000J0000236D01*
G01*
G37*
G36*
G01*
X0322933Y0408661D02*
X0326673Y0408661D01*
G75*
G02*
X0327657Y0407677I0000000J-000984D01*
G01*
X0327657Y0405709D01*
G75*
G02*
X0326673Y0404724I-000984J0000000D01*
G01*
X0322933Y0404724D01*
G75*
G02*
X0321949Y0405709I0000000J0000984D01*
G01*
X0321949Y0407677D01*
G75*
G02*
X0322933Y0408661I0000984J0000000D01*
G01*
G37*
G36*
G01*
X0322933Y0401181D02*
X0326673Y0401181D01*
G75*
G02*
X0327657Y0400197I0000000J-000984D01*
G01*
X0327657Y0398228D01*
G75*
G02*
X0326673Y0397244I-000984J0000000D01*
G01*
X0322933Y0397244D01*
G75*
G02*
X0321949Y0398228I0000000J0000984D01*
G01*
X0321949Y0400197D01*
G75*
G02*
X0322933Y0401181I0000984J0000000D01*
G01*
G37*
G36*
G01*
X0132382Y0473012D02*
X0127461Y0473012D01*
G75*
G02*
X0127067Y0473406I0000000J0000394D01*
G01*
X0127067Y0476555D01*
G75*
G02*
X0127461Y0476949I0000394J0000000D01*
G01*
X0132382Y0476949D01*
G75*
G02*
X0132776Y0476555I0000000J-000394D01*
G01*
X0132776Y0473406D01*
G75*
G02*
X0132382Y0473012I-000394J0000000D01*
G01*
G37*
G36*
G01*
X0132382Y0480492D02*
X0127461Y0480492D01*
G75*
G02*
X0127067Y0480886I0000000J0000394D01*
G01*
X0127067Y0484036D01*
G75*
G02*
X0127461Y0484429I0000394J0000000D01*
G01*
X0132382Y0484429D01*
G75*
G02*
X0132776Y0484036I0000000J-000394D01*
G01*
X0132776Y0480886D01*
G75*
G02*
X0132382Y0480492I-000394J0000000D01*
G01*
G37*
G36*
G01*
X0363130Y0414961D02*
X0360492Y0414961D01*
G75*
G02*
X0360236Y0415217I0000000J0000256D01*
G01*
X0360236Y0417264D01*
G75*
G02*
X0360492Y0417520I0000256J0000000D01*
G01*
X0363130Y0417520D01*
G75*
G02*
X0363386Y0417264I0000000J-000256D01*
G01*
X0363386Y0415217D01*
G75*
G02*
X0363130Y0414961I-000256J0000000D01*
G01*
G37*
G36*
G01*
X0363209Y0418799D02*
X0360413Y0418799D01*
G75*
G02*
X0360236Y0418976I0000000J0000177D01*
G01*
X0360236Y0420394D01*
G75*
G02*
X0360413Y0420571I0000177J0000000D01*
G01*
X0363209Y0420571D01*
G75*
G02*
X0363386Y0420394I0000000J-000177D01*
G01*
X0363386Y0418976D01*
G75*
G02*
X0363209Y0418799I-000177J0000000D01*
G01*
G37*
G36*
G01*
X0363209Y0421949D02*
X0360413Y0421949D01*
G75*
G02*
X0360236Y0422126I0000000J0000177D01*
G01*
X0360236Y0423543D01*
G75*
G02*
X0360413Y0423720I0000177J0000000D01*
G01*
X0363209Y0423720D01*
G75*
G02*
X0363386Y0423543I0000000J-000177D01*
G01*
X0363386Y0422126D01*
G75*
G02*
X0363209Y0421949I-000177J0000000D01*
G01*
G37*
G36*
G01*
X0363130Y0425000D02*
X0360492Y0425000D01*
G75*
G02*
X0360236Y0425256I0000000J0000256D01*
G01*
X0360236Y0427303D01*
G75*
G02*
X0360492Y0427559I0000256J0000000D01*
G01*
X0363130Y0427559D01*
G75*
G02*
X0363386Y0427303I0000000J-000256D01*
G01*
X0363386Y0425256D01*
G75*
G02*
X0363130Y0425000I-000256J0000000D01*
G01*
G37*
G36*
G01*
X0356043Y0425000D02*
X0353406Y0425000D01*
G75*
G02*
X0353150Y0425256I0000000J0000256D01*
G01*
X0353150Y0427303D01*
G75*
G02*
X0353406Y0427559I0000256J0000000D01*
G01*
X0356043Y0427559D01*
G75*
G02*
X0356299Y0427303I0000000J-000256D01*
G01*
X0356299Y0425256D01*
G75*
G02*
X0356043Y0425000I-000256J0000000D01*
G01*
G37*
G36*
G01*
X0356122Y0421949D02*
X0353327Y0421949D01*
G75*
G02*
X0353150Y0422126I0000000J0000177D01*
G01*
X0353150Y0423543D01*
G75*
G02*
X0353327Y0423720I0000177J0000000D01*
G01*
X0356122Y0423720D01*
G75*
G02*
X0356299Y0423543I0000000J-000177D01*
G01*
X0356299Y0422126D01*
G75*
G02*
X0356122Y0421949I-000177J0000000D01*
G01*
G37*
G36*
G01*
X0356122Y0418799D02*
X0353327Y0418799D01*
G75*
G02*
X0353150Y0418976I0000000J0000177D01*
G01*
X0353150Y0420394D01*
G75*
G02*
X0353327Y0420571I0000177J0000000D01*
G01*
X0356122Y0420571D01*
G75*
G02*
X0356299Y0420394I0000000J-000177D01*
G01*
X0356299Y0418976D01*
G75*
G02*
X0356122Y0418799I-000177J0000000D01*
G01*
G37*
G36*
G01*
X0356043Y0414961D02*
X0353406Y0414961D01*
G75*
G02*
X0353150Y0415217I0000000J0000256D01*
G01*
X0353150Y0417264D01*
G75*
G02*
X0353406Y0417520I0000256J0000000D01*
G01*
X0356043Y0417520D01*
G75*
G02*
X0356299Y0417264I0000000J-000256D01*
G01*
X0356299Y0415217D01*
G75*
G02*
X0356043Y0414961I-000256J0000000D01*
G01*
G37*
G36*
G01*
X0427756Y0394173D02*
X0427756Y0389291D01*
G75*
G02*
X0427244Y0388780I-000512J0000000D01*
G01*
X0423150Y0388780D01*
G75*
G02*
X0422638Y0389291I0000000J0000512D01*
G01*
X0422638Y0394173D01*
G75*
G02*
X0423150Y0394685I0000512J0000000D01*
G01*
X0427244Y0394685D01*
G75*
G02*
X0427756Y0394173I0000000J-000512D01*
G01*
G37*
G36*
G01*
X0435236Y0394173D02*
X0435236Y0389291D01*
G75*
G02*
X0434724Y0388780I-000512J0000000D01*
G01*
X0430630Y0388780D01*
G75*
G02*
X0430118Y0389291I0000000J0000512D01*
G01*
X0430118Y0394173D01*
G75*
G02*
X0430630Y0394685I0000512J0000000D01*
G01*
X0434724Y0394685D01*
G75*
G02*
X0435236Y0394173I0000000J-000512D01*
G01*
G37*
G36*
G01*
X0305610Y0445866D02*
X0300689Y0445866D01*
G75*
G02*
X0300295Y0446260I0000000J0000394D01*
G01*
X0300295Y0449409D01*
G75*
G02*
X0300689Y0449803I0000394J0000000D01*
G01*
X0305610Y0449803D01*
G75*
G02*
X0306004Y0449409I0000000J-000394D01*
G01*
X0306004Y0446260D01*
G75*
G02*
X0305610Y0445866I-000394J0000000D01*
G01*
G37*
G36*
G01*
X0305610Y0453347D02*
X0300689Y0453347D01*
G75*
G02*
X0300295Y0453740I0000000J0000394D01*
G01*
X0300295Y0456890D01*
G75*
G02*
X0300689Y0457284I0000394J0000000D01*
G01*
X0305610Y0457284D01*
G75*
G02*
X0306004Y0456890I0000000J-000394D01*
G01*
X0306004Y0453740D01*
G75*
G02*
X0305610Y0453347I-000394J0000000D01*
G01*
G37*
G36*
G01*
X0604764Y0355709D02*
X0607835Y0355709D01*
G75*
G02*
X0608110Y0355433I0000000J-000276D01*
G01*
X0608110Y0353228D01*
G75*
G02*
X0607835Y0352953I-000276J0000000D01*
G01*
X0604764Y0352953D01*
G75*
G02*
X0604488Y0353228I0000000J0000276D01*
G01*
X0604488Y0355433D01*
G75*
G02*
X0604764Y0355709I0000276J0000000D01*
G01*
G37*
G36*
G01*
X0604764Y0349409D02*
X0607835Y0349409D01*
G75*
G02*
X0608110Y0349134I0000000J-000276D01*
G01*
X0608110Y0346929D01*
G75*
G02*
X0607835Y0346654I-000276J0000000D01*
G01*
X0604764Y0346654D01*
G75*
G02*
X0604488Y0346929I0000000J0000276D01*
G01*
X0604488Y0349134D01*
G75*
G02*
X0604764Y0349409I0000276J0000000D01*
G01*
G37*
G36*
G01*
X0390256Y0492323D02*
X0385335Y0492323D01*
G75*
G02*
X0384941Y0492717I0000000J0000394D01*
G01*
X0384941Y0495866D01*
G75*
G02*
X0385335Y0496260I0000394J0000000D01*
G01*
X0390256Y0496260D01*
G75*
G02*
X0390650Y0495866I0000000J-000394D01*
G01*
X0390650Y0492717D01*
G75*
G02*
X0390256Y0492323I-000394J0000000D01*
G01*
G37*
G36*
G01*
X0390256Y0499803D02*
X0385335Y0499803D01*
G75*
G02*
X0384941Y0500197I0000000J0000394D01*
G01*
X0384941Y0503347D01*
G75*
G02*
X0385335Y0503740I0000394J0000000D01*
G01*
X0390256Y0503740D01*
G75*
G02*
X0390650Y0503347I0000000J-000394D01*
G01*
X0390650Y0500197D01*
G75*
G02*
X0390256Y0499803I-000394J0000000D01*
G01*
G37*
G36*
G01*
X0366634Y0445453D02*
X0361713Y0445453D01*
G75*
G02*
X0361319Y0445846I0000000J0000394D01*
G01*
X0361319Y0448996D01*
G75*
G02*
X0361713Y0449390I0000394J0000000D01*
G01*
X0366634Y0449390D01*
G75*
G02*
X0367028Y0448996I0000000J-000394D01*
G01*
X0367028Y0445846D01*
G75*
G02*
X0366634Y0445453I-000394J0000000D01*
G01*
G37*
G36*
G01*
X0366634Y0452933D02*
X0361713Y0452933D01*
G75*
G02*
X0361319Y0453327I0000000J0000394D01*
G01*
X0361319Y0456476D01*
G75*
G02*
X0361713Y0456870I0000394J0000000D01*
G01*
X0366634Y0456870D01*
G75*
G02*
X0367028Y0456476I0000000J-000394D01*
G01*
X0367028Y0453327D01*
G75*
G02*
X0366634Y0452933I-000394J0000000D01*
G01*
G37*
X0230427Y0257096D03*
G36*
G01*
X0561811Y0049606D02*
X0561811Y0053150D01*
G75*
G02*
X0562205Y0053543I0000394J0000000D01*
G01*
X0565354Y0053543D01*
G75*
G02*
X0565748Y0053150I0000000J-000394D01*
G01*
X0565748Y0049606D01*
G75*
G02*
X0565354Y0049213I-000394J0000000D01*
G01*
X0562205Y0049213D01*
G75*
G02*
X0561811Y0049606I0000000J0000394D01*
G01*
G37*
G36*
G01*
X0568504Y0049606D02*
X0568504Y0053150D01*
G75*
G02*
X0568898Y0053543I0000394J0000000D01*
G01*
X0572047Y0053543D01*
G75*
G02*
X0572441Y0053150I0000000J-000394D01*
G01*
X0572441Y0049606D01*
G75*
G02*
X0572047Y0049213I-000394J0000000D01*
G01*
X0568898Y0049213D01*
G75*
G02*
X0568504Y0049606I0000000J0000394D01*
G01*
G37*
G36*
G01*
X0195276Y0351575D02*
X0198819Y0351575D01*
G75*
G02*
X0199213Y0351181I0000000J-000394D01*
G01*
X0199213Y0348031D01*
G75*
G02*
X0198819Y0347638I-000394J0000000D01*
G01*
X0195276Y0347638D01*
G75*
G02*
X0194882Y0348031I0000000J0000394D01*
G01*
X0194882Y0351181D01*
G75*
G02*
X0195276Y0351575I0000394J0000000D01*
G01*
G37*
G36*
G01*
X0195276Y0344882D02*
X0198819Y0344882D01*
G75*
G02*
X0199213Y0344488I0000000J-000394D01*
G01*
X0199213Y0341339D01*
G75*
G02*
X0198819Y0340945I-000394J0000000D01*
G01*
X0195276Y0340945D01*
G75*
G02*
X0194882Y0341339I0000000J0000394D01*
G01*
X0194882Y0344488D01*
G75*
G02*
X0195276Y0344882I0000394J0000000D01*
G01*
G37*
G36*
G01*
X0254429Y0473031D02*
X0249508Y0473031D01*
G75*
G02*
X0249114Y0473425I0000000J0000394D01*
G01*
X0249114Y0476575D01*
G75*
G02*
X0249508Y0476969I0000394J0000000D01*
G01*
X0254429Y0476969D01*
G75*
G02*
X0254823Y0476575I0000000J-000394D01*
G01*
X0254823Y0473425D01*
G75*
G02*
X0254429Y0473031I-000394J0000000D01*
G01*
G37*
G36*
G01*
X0254429Y0480512D02*
X0249508Y0480512D01*
G75*
G02*
X0249114Y0480906I0000000J0000394D01*
G01*
X0249114Y0484055D01*
G75*
G02*
X0249508Y0484449I0000394J0000000D01*
G01*
X0254429Y0484449D01*
G75*
G02*
X0254823Y0484055I0000000J-000394D01*
G01*
X0254823Y0480906D01*
G75*
G02*
X0254429Y0480512I-000394J0000000D01*
G01*
G37*
G36*
G01*
X0339173Y0412047D02*
X0339173Y0415118D01*
G75*
G02*
X0339449Y0415394I0000276J0000000D01*
G01*
X0341654Y0415394D01*
G75*
G02*
X0341929Y0415118I0000000J-000276D01*
G01*
X0341929Y0412047D01*
G75*
G02*
X0341654Y0411772I-000276J0000000D01*
G01*
X0339449Y0411772D01*
G75*
G02*
X0339173Y0412047I0000000J0000276D01*
G01*
G37*
G36*
G01*
X0345472Y0412047D02*
X0345472Y0415118D01*
G75*
G02*
X0345748Y0415394I0000276J0000000D01*
G01*
X0347953Y0415394D01*
G75*
G02*
X0348228Y0415118I0000000J-000276D01*
G01*
X0348228Y0412047D01*
G75*
G02*
X0347953Y0411772I-000276J0000000D01*
G01*
X0345748Y0411772D01*
G75*
G02*
X0345472Y0412047I0000000J0000276D01*
G01*
G37*
X0392297Y0048474D03*
G36*
G01*
X0264272Y0473031D02*
X0259350Y0473031D01*
G75*
G02*
X0258957Y0473425I0000000J0000394D01*
G01*
X0258957Y0476575D01*
G75*
G02*
X0259350Y0476969I0000394J0000000D01*
G01*
X0264272Y0476969D01*
G75*
G02*
X0264665Y0476575I0000000J-000394D01*
G01*
X0264665Y0473425D01*
G75*
G02*
X0264272Y0473031I-000394J0000000D01*
G01*
G37*
G36*
G01*
X0264272Y0480512D02*
X0259350Y0480512D01*
G75*
G02*
X0258957Y0480906I0000000J0000394D01*
G01*
X0258957Y0484055D01*
G75*
G02*
X0259350Y0484449I0000394J0000000D01*
G01*
X0264272Y0484449D01*
G75*
G02*
X0264665Y0484055I0000000J-000394D01*
G01*
X0264665Y0480906D01*
G75*
G02*
X0264272Y0480512I-000394J0000000D01*
G01*
G37*
X0440482Y0317243D02*
G01*
G75*
D342*
X0422175Y0300708D02*
D03*
X0422175Y0308188D02*
D03*
D343*
X0431821Y0264585D02*
D03*
X0431821Y0282302D02*
D03*
D344*
X0340187Y0310944D02*
D03*
X0340187Y0304645D02*
D03*
D352*
X0423454Y0313700D02*
D03*
X0430935Y0313700D02*
D03*
D162*
X0427687Y0301889D02*
D03*
X0427687Y0308188D02*
D03*
D347*
X0325718Y0286239D02*
D03*
X0325718Y0282499D02*
D03*
X0325718Y0278759D02*
D03*
X0335167Y0278759D02*
D03*
X0335167Y0282499D02*
D03*
X0335167Y0286239D02*
D03*
X0402884Y0286239D02*
D03*
X0402884Y0282499D02*
D03*
X0402884Y0278759D02*
D03*
X0393435Y0278759D02*
D03*
X0393435Y0282499D02*
D03*
X0393435Y0286239D02*
D03*
X0410364Y0286239D02*
D03*
X0410364Y0282499D02*
D03*
X0410364Y0278759D02*
D03*
X0419813Y0278759D02*
D03*
X0419813Y0282499D02*
D03*
X0419813Y0286239D02*
D03*
X0385954Y0286239D02*
D03*
X0385954Y0282499D02*
D03*
X0385954Y0278759D02*
D03*
X0376506Y0278759D02*
D03*
X0376506Y0282499D02*
D03*
X0376506Y0286239D02*
D03*
X0359577Y0286239D02*
D03*
X0359577Y0282499D02*
D03*
X0359577Y0278759D02*
D03*
X0369025Y0278759D02*
D03*
X0369025Y0282499D02*
D03*
X0369025Y0286239D02*
D03*
X0352096Y0286239D02*
D03*
X0352096Y0282499D02*
D03*
X0352096Y0278759D02*
D03*
X0342647Y0278759D02*
D03*
X0342647Y0282499D02*
D03*
X0342647Y0286239D02*
D03*
D346*
X0326013Y0311633D02*
D03*
X0326013Y0304546D02*
D03*
X0336053Y0304546D02*
D03*
X0336053Y0311633D02*
D03*
X0401112Y0311633D02*
D03*
X0401112Y0304546D02*
D03*
X0391073Y0304546D02*
D03*
X0391073Y0311633D02*
D03*
X0405639Y0311633D02*
D03*
X0405639Y0304546D02*
D03*
X0415679Y0304546D02*
D03*
X0415679Y0311633D02*
D03*
X0386053Y0311633D02*
D03*
X0386053Y0304546D02*
D03*
X0376014Y0304546D02*
D03*
X0376014Y0311633D02*
D03*
X0359183Y0311633D02*
D03*
X0359183Y0304546D02*
D03*
X0369222Y0304546D02*
D03*
X0369222Y0311633D02*
D03*
X0354261Y0311633D02*
D03*
X0354261Y0304546D02*
D03*
X0344222Y0304546D02*
D03*
X0344222Y0311633D02*
D03*
X0391171Y0297853D02*
D03*
X0391171Y0290767D02*
D03*
X0401210Y0290767D02*
D03*
X0401210Y0297853D02*
D03*
X0417155Y0297853D02*
D03*
X0417155Y0290767D02*
D03*
X0407116Y0290767D02*
D03*
X0407116Y0297853D02*
D03*
X0375915Y0297853D02*
D03*
X0375915Y0290767D02*
D03*
X0385954Y0290767D02*
D03*
X0385954Y0297853D02*
D03*
X0369222Y0297853D02*
D03*
X0369222Y0290767D02*
D03*
X0359183Y0290767D02*
D03*
X0359183Y0297853D02*
D03*
X0343927Y0297853D02*
D03*
X0343927Y0290767D02*
D03*
X0353966Y0290767D02*
D03*
X0353966Y0297853D02*
D03*
X0336545Y0297755D02*
D03*
X0336545Y0290668D02*
D03*
X0326506Y0290668D02*
D03*
X0326506Y0297755D02*
D03*
D349*
X0332608Y0304546D02*
D03*
X0329458Y0304546D02*
D03*
X0329458Y0311633D02*
D03*
X0332608Y0311633D02*
D03*
X0397667Y0311633D02*
D03*
X0394517Y0311633D02*
D03*
X0394517Y0304546D02*
D03*
X0397667Y0304546D02*
D03*
X0412234Y0304546D02*
D03*
X0409084Y0304546D02*
D03*
X0409084Y0311633D02*
D03*
X0412234Y0311633D02*
D03*
X0382608Y0311633D02*
D03*
X0379458Y0311633D02*
D03*
X0379458Y0304546D02*
D03*
X0382608Y0304546D02*
D03*
X0365777Y0304546D02*
D03*
X0362628Y0304546D02*
D03*
X0362628Y0311633D02*
D03*
X0365777Y0311633D02*
D03*
X0350817Y0311633D02*
D03*
X0347667Y0311633D02*
D03*
X0347667Y0304546D02*
D03*
X0350817Y0304546D02*
D03*
X0397765Y0290767D02*
D03*
X0394616Y0290767D02*
D03*
X0394616Y0297853D02*
D03*
X0397765Y0297853D02*
D03*
X0413710Y0297853D02*
D03*
X0410561Y0297853D02*
D03*
X0410561Y0290767D02*
D03*
X0413710Y0290767D02*
D03*
X0382509Y0290767D02*
D03*
X0379360Y0290767D02*
D03*
X0379360Y0297853D02*
D03*
X0382509Y0297853D02*
D03*
X0365777Y0297853D02*
D03*
X0362628Y0297853D02*
D03*
X0362628Y0290767D02*
D03*
X0365777Y0290767D02*
D03*
X0350521Y0290767D02*
D03*
X0347372Y0290767D02*
D03*
X0347372Y0297853D02*
D03*
X0350521Y0297853D02*
D03*
X0333100Y0297755D02*
D03*
X0329951Y0297755D02*
D03*
X0329951Y0290668D02*
D03*
X0333100Y0290668D02*
D03*
D348*
X0321978Y0311495D02*
D03*
X0321978Y0305274D02*
D03*
X0356525Y0270058D02*
D03*
X0356525Y0263837D02*
D03*
X0360856Y0263837D02*
D03*
X0360856Y0270058D02*
D03*
X0365187Y0270058D02*
D03*
X0365187Y0263837D02*
D03*
X0369517Y0263837D02*
D03*
X0369517Y0270058D02*
D03*
X0352195Y0270058D02*
D03*
X0352195Y0263837D02*
D03*
X0347864Y0263837D02*
D03*
X0347864Y0270058D02*
D03*
X0343533Y0270058D02*
D03*
X0343533Y0263837D02*
D03*
X0339203Y0263837D02*
D03*
X0339203Y0270058D02*
D03*
X0386840Y0270058D02*
D03*
X0386840Y0263837D02*
D03*
X0382509Y0263837D02*
D03*
X0382509Y0270058D02*
D03*
X0378179Y0270058D02*
D03*
X0378179Y0263837D02*
D03*
X0373848Y0263837D02*
D03*
X0373848Y0270058D02*
D03*
X0421486Y0270058D02*
D03*
X0421486Y0263837D02*
D03*
X0417155Y0263837D02*
D03*
X0417155Y0270058D02*
D03*
X0412825Y0270058D02*
D03*
X0412825Y0263837D02*
D03*
X0408494Y0263837D02*
D03*
X0408494Y0270058D02*
D03*
X0404163Y0270058D02*
D03*
X0404163Y0263837D02*
D03*
X0399832Y0263837D02*
D03*
X0399832Y0270058D02*
D03*
X0395502Y0270058D02*
D03*
X0395502Y0263837D02*
D03*
X0391171Y0263837D02*
D03*
X0391171Y0270058D02*
D03*
X0321978Y0298109D02*
D03*
X0321978Y0291889D02*
D03*
X0334872Y0270058D02*
D03*
X0334872Y0263837D02*
D03*
X0330541Y0263837D02*
D03*
X0330541Y0270058D02*
D03*
X0326210Y0270058D02*
D03*
X0326210Y0263837D02*
D03*
X0321880Y0263837D02*
D03*
X0321880Y0270058D02*
D03*
D351*
X0437923Y0302971D02*
D03*
X0431624Y0302971D02*
D03*
X0431624Y0307499D02*
D03*
X0437923Y0307499D02*
D03*
X0430639Y0294015D02*
D03*
X0436939Y0294015D02*
D03*
X0430639Y0289389D02*
D03*
X0436939Y0289389D02*
D03*
D350*
X0425325Y0288503D02*
D03*
X0425325Y0295983D02*
D03*
D354*
X0437687Y0298444D02*
D03*
X0431466Y0298444D02*
D03*
X0546503Y0021771D02*
G01*
G75*
D367*
X0527802Y0048819D02*
D03*
X0525243Y0048819D02*
D03*
X0522684Y0048819D02*
D03*
X0520125Y0048819D02*
D03*
X0517566Y0048819D02*
D03*
X0515007Y0048819D02*
D03*
X0512448Y0048819D02*
D03*
X0509889Y0048819D02*
D03*
X0507330Y0048819D02*
D03*
X0504771Y0048819D02*
D03*
X0502212Y0048819D02*
D03*
X0499653Y0048819D02*
D03*
X0527802Y0025826D02*
D03*
X0525243Y0025826D02*
D03*
X0522684Y0025826D02*
D03*
X0520125Y0025826D02*
D03*
X0517566Y0025826D02*
D03*
X0515007Y0025826D02*
D03*
X0512448Y0025826D02*
D03*
X0509889Y0025826D02*
D03*
X0507330Y0025826D02*
D03*
X0504771Y0025826D02*
D03*
X0502212Y0025826D02*
D03*
X0499653Y0025826D02*
D03*
D368*
X0495716Y0025846D02*
D03*
X0495716Y0032067D02*
D03*
X0495716Y0042598D02*
D03*
X0495716Y0036377D02*
D03*
D323*
X0532920Y0044606D02*
D03*
X0532920Y0050905D02*
D03*
X0533314Y0031614D02*
D03*
X0533314Y0037913D02*
D03*
D369*
X0543944Y0039689D02*
D03*
X0537645Y0039689D02*
D03*
X0537645Y0033366D02*
D03*
X0543944Y0033366D02*
D03*
X0543944Y0028740D02*
D03*
X0537645Y0028740D02*
D03*
X0537743Y0048917D02*
D03*
X0544042Y0048917D02*
D03*
X0537645Y0024114D02*
D03*
X0543944Y0024114D02*
D03*
X0537645Y0044311D02*
D03*
X0543944Y0044311D02*
D03*
X0440896Y0245093D02*
G01*
G75*
D429*
X0330069Y0227770D02*
D03*
X0336369Y0227770D02*
D03*
X0358022Y0217829D02*
D03*
X0364321Y0217829D02*
D03*
X0275739Y0168125D02*
D03*
X0282038Y0168125D02*
D03*
X0322637Y0104436D02*
D03*
X0316337Y0104436D02*
D03*
X0269833Y0168321D02*
D03*
X0263534Y0168321D02*
D03*
X0267864Y0173833D02*
D03*
X0261565Y0173833D02*
D03*
X0402018Y0195388D02*
D03*
X0408317Y0195388D02*
D03*
X0262254Y0124916D02*
D03*
X0268553Y0124916D02*
D03*
D434*
X0280365Y0144109D02*
D03*
X0284105Y0144109D02*
D03*
X0287845Y0144109D02*
D03*
X0287845Y0134660D02*
D03*
X0284105Y0134660D02*
D03*
X0280365Y0134660D02*
D03*
D354*
X0353652Y0217239D02*
D03*
X0347431Y0217239D02*
D03*
X0278731Y0225014D02*
D03*
X0284951Y0225014D02*
D03*
X0281487Y0116353D02*
D03*
X0287707Y0116353D02*
D03*
X0271939Y0175211D02*
D03*
X0278160Y0175211D02*
D03*
X0372510Y0217239D02*
D03*
X0378731Y0217239D02*
D03*
X0305699Y0212908D02*
D03*
X0311920Y0212908D02*
D03*
X0392609Y0109660D02*
D03*
X0398829Y0109660D02*
D03*
X0276369Y0149916D02*
D03*
X0282589Y0149916D02*
D03*
X0383455Y0217337D02*
D03*
X0389676Y0217337D02*
D03*
X0330502Y0221668D02*
D03*
X0336723Y0221668D02*
D03*
X0383179Y0110054D02*
D03*
X0376959Y0110054D02*
D03*
X0349400Y0109266D02*
D03*
X0355620Y0109266D02*
D03*
X0331191Y0104837D02*
D03*
X0337412Y0104837D02*
D03*
X0327865Y0213006D02*
D03*
X0321644Y0213006D02*
D03*
X0409459Y0146570D02*
D03*
X0403239Y0146570D02*
D03*
X0402057Y0190861D02*
D03*
X0408278Y0190861D02*
D03*
D441*
X0287353Y0167337D02*
D03*
X0287353Y0161038D02*
D03*
X0293750Y0107199D02*
D03*
X0293750Y0113499D02*
D03*
X0300371Y0108479D02*
D03*
X0300371Y0102180D02*
D03*
X0270719Y0109857D02*
D03*
X0270719Y0103558D02*
D03*
X0261664Y0120684D02*
D03*
X0261664Y0114384D02*
D03*
X0261664Y0110546D02*
D03*
X0261664Y0104247D02*
D03*
X0266290Y0119109D02*
D03*
X0266290Y0112810D02*
D03*
X0402313Y0179050D02*
D03*
X0402313Y0185349D02*
D03*
D12*
X0386664Y0125802D02*
D03*
X0386664Y0127770D02*
D03*
X0386664Y0129739D02*
D03*
X0386664Y0131707D02*
D03*
X0386664Y0133676D02*
D03*
X0386664Y0135644D02*
D03*
X0386664Y0137613D02*
D03*
X0386664Y0139581D02*
D03*
X0386664Y0141550D02*
D03*
X0386664Y0143518D02*
D03*
X0386664Y0145487D02*
D03*
X0386664Y0147455D02*
D03*
X0386664Y0149424D02*
D03*
X0386664Y0151392D02*
D03*
X0386664Y0153361D02*
D03*
X0386664Y0155329D02*
D03*
X0386664Y0157298D02*
D03*
X0386664Y0159266D02*
D03*
X0386664Y0161235D02*
D03*
X0386664Y0163203D02*
D03*
X0386664Y0165172D02*
D03*
X0386664Y0167140D02*
D03*
X0386664Y0169109D02*
D03*
X0386664Y0171077D02*
D03*
X0386664Y0173046D02*
D03*
X0386664Y0175014D02*
D03*
X0386664Y0176983D02*
D03*
X0386664Y0178951D02*
D03*
X0386664Y0180920D02*
D03*
X0386664Y0182888D02*
D03*
X0386664Y0184857D02*
D03*
X0386664Y0186825D02*
D03*
X0386664Y0188794D02*
D03*
X0386664Y0190762D02*
D03*
X0386664Y0192731D02*
D03*
X0386664Y0194699D02*
D03*
X0303002Y0194699D02*
D03*
X0303002Y0192731D02*
D03*
X0303002Y0190762D02*
D03*
X0303002Y0188794D02*
D03*
X0303002Y0186825D02*
D03*
X0303002Y0184857D02*
D03*
X0303002Y0182888D02*
D03*
X0303002Y0180920D02*
D03*
X0303002Y0178951D02*
D03*
X0303002Y0176983D02*
D03*
X0303002Y0175014D02*
D03*
X0303002Y0173046D02*
D03*
X0303002Y0171077D02*
D03*
X0303002Y0169109D02*
D03*
X0303002Y0167140D02*
D03*
X0303002Y0165172D02*
D03*
X0303002Y0163203D02*
D03*
X0303002Y0161235D02*
D03*
X0303002Y0159266D02*
D03*
X0303002Y0157298D02*
D03*
X0303002Y0155329D02*
D03*
X0303002Y0153361D02*
D03*
X0303002Y0151392D02*
D03*
X0303002Y0149424D02*
D03*
X0303002Y0147455D02*
D03*
X0303002Y0145487D02*
D03*
X0303002Y0143518D02*
D03*
X0303002Y0141550D02*
D03*
X0303002Y0139581D02*
D03*
X0303002Y0137613D02*
D03*
X0303002Y0135644D02*
D03*
X0303002Y0133676D02*
D03*
X0303002Y0131707D02*
D03*
X0303002Y0129739D02*
D03*
X0303002Y0127770D02*
D03*
X0303002Y0125802D02*
D03*
D266*
X0379282Y0202081D02*
D03*
X0377313Y0202081D02*
D03*
X0375345Y0202081D02*
D03*
X0373376Y0202081D02*
D03*
X0371408Y0202081D02*
D03*
X0369439Y0202081D02*
D03*
X0367471Y0202081D02*
D03*
X0365502Y0202081D02*
D03*
X0363534Y0202081D02*
D03*
X0361565Y0202081D02*
D03*
X0359597Y0202081D02*
D03*
X0357628Y0202081D02*
D03*
X0355660Y0202081D02*
D03*
X0353691Y0202081D02*
D03*
X0351723Y0202081D02*
D03*
X0349754Y0202081D02*
D03*
X0347786Y0202081D02*
D03*
X0345817Y0202081D02*
D03*
X0343849Y0202081D02*
D03*
X0341880Y0202081D02*
D03*
X0339912Y0202081D02*
D03*
X0337943Y0202081D02*
D03*
X0335975Y0202081D02*
D03*
X0334006Y0202081D02*
D03*
X0332038Y0202081D02*
D03*
X0330069Y0202081D02*
D03*
X0328101Y0202081D02*
D03*
X0326132Y0202081D02*
D03*
X0324164Y0202081D02*
D03*
X0322195Y0202081D02*
D03*
X0320227Y0202081D02*
D03*
X0318258Y0202081D02*
D03*
X0316290Y0202081D02*
D03*
X0314321Y0202081D02*
D03*
X0312353Y0202081D02*
D03*
X0310384Y0202081D02*
D03*
X0310384Y0118420D02*
D03*
X0312353Y0118420D02*
D03*
X0314321Y0118420D02*
D03*
X0316290Y0118420D02*
D03*
X0318258Y0118420D02*
D03*
X0320227Y0118420D02*
D03*
X0322195Y0118420D02*
D03*
X0324164Y0118420D02*
D03*
X0326132Y0118420D02*
D03*
X0328101Y0118420D02*
D03*
X0330069Y0118420D02*
D03*
X0332038Y0118420D02*
D03*
X0334006Y0118420D02*
D03*
X0335975Y0118420D02*
D03*
X0337943Y0118420D02*
D03*
X0339912Y0118420D02*
D03*
X0341880Y0118420D02*
D03*
X0343849Y0118420D02*
D03*
X0345817Y0118420D02*
D03*
X0347786Y0118420D02*
D03*
X0349754Y0118420D02*
D03*
X0351723Y0118420D02*
D03*
X0353691Y0118420D02*
D03*
X0355660Y0118420D02*
D03*
X0357628Y0118420D02*
D03*
X0359597Y0118420D02*
D03*
X0361565Y0118420D02*
D03*
X0363534Y0118420D02*
D03*
X0365502Y0118420D02*
D03*
X0367471Y0118420D02*
D03*
X0369439Y0118420D02*
D03*
X0371408Y0118420D02*
D03*
X0373376Y0118420D02*
D03*
X0375345Y0118420D02*
D03*
X0377313Y0118420D02*
D03*
X0379282Y0118420D02*
D03*
D442*
X0368061Y0220880D02*
D03*
X0368061Y0216943D02*
D03*
D444*
X0272983Y0182101D02*
D03*
D443*
X0263927Y0206510D02*
D03*
X0282038Y0206510D02*
D03*
D439*
X0272983Y0206510D02*
D03*
D41*
X0289912Y0239778D02*
D03*
X0289912Y0237219D02*
D03*
X0289912Y0234660D02*
D03*
X0289912Y0232101D02*
D03*
X0289912Y0229542D02*
D03*
X0289912Y0226983D02*
D03*
X0289912Y0224424D02*
D03*
X0312353Y0239778D02*
D03*
X0312353Y0237219D02*
D03*
X0312353Y0234660D02*
D03*
X0312353Y0232101D02*
D03*
X0312353Y0229542D02*
D03*
X0312353Y0226983D02*
D03*
X0312353Y0224424D02*
D03*
X0413927Y0205428D02*
D03*
X0413927Y0202869D02*
D03*
X0413927Y0200310D02*
D03*
X0413927Y0197750D02*
D03*
X0413927Y0195191D02*
D03*
X0413927Y0192632D02*
D03*
X0413927Y0190073D02*
D03*
X0436369Y0205428D02*
D03*
X0436369Y0202869D02*
D03*
X0436369Y0200310D02*
D03*
X0436369Y0197750D02*
D03*
X0436369Y0195191D02*
D03*
X0436369Y0192632D02*
D03*
X0436369Y0190073D02*
D03*
X0414420Y0160447D02*
D03*
X0414420Y0157888D02*
D03*
X0414420Y0155329D02*
D03*
X0414420Y0152770D02*
D03*
X0414420Y0150211D02*
D03*
X0414420Y0147652D02*
D03*
X0414420Y0145093D02*
D03*
X0436861Y0160447D02*
D03*
X0436861Y0157888D02*
D03*
X0436861Y0155329D02*
D03*
X0436861Y0152770D02*
D03*
X0436861Y0150211D02*
D03*
X0436861Y0147652D02*
D03*
X0436861Y0145093D02*
D03*
X0408612Y0224424D02*
D03*
X0408612Y0226983D02*
D03*
X0408612Y0229542D02*
D03*
X0408612Y0232101D02*
D03*
X0408612Y0234660D02*
D03*
X0408612Y0237219D02*
D03*
X0408612Y0239778D02*
D03*
X0386172Y0224424D02*
D03*
X0386172Y0226983D02*
D03*
X0386172Y0229542D02*
D03*
X0386172Y0232101D02*
D03*
X0386172Y0234660D02*
D03*
X0386172Y0237219D02*
D03*
X0386172Y0239778D02*
D03*
X0364321Y0224424D02*
D03*
X0364321Y0226983D02*
D03*
X0364321Y0229542D02*
D03*
X0364321Y0232101D02*
D03*
X0364321Y0234660D02*
D03*
X0364321Y0237219D02*
D03*
X0364321Y0239778D02*
D03*
X0341880Y0224424D02*
D03*
X0341880Y0226983D02*
D03*
X0341880Y0229542D02*
D03*
X0341880Y0232101D02*
D03*
X0341880Y0234660D02*
D03*
X0341880Y0237219D02*
D03*
X0341880Y0239778D02*
D03*
X0414223Y0239778D02*
D03*
X0414223Y0237219D02*
D03*
X0414223Y0234660D02*
D03*
X0414223Y0232101D02*
D03*
X0414223Y0229542D02*
D03*
X0414223Y0226983D02*
D03*
X0414223Y0224424D02*
D03*
X0436664Y0239778D02*
D03*
X0436664Y0237219D02*
D03*
X0436664Y0234660D02*
D03*
X0436664Y0232101D02*
D03*
X0436664Y0229542D02*
D03*
X0436664Y0226983D02*
D03*
X0436664Y0224424D02*
D03*
D348*
X0275246Y0110605D02*
D03*
X0275246Y0104384D02*
D03*
X0261467Y0215605D02*
D03*
X0261467Y0221825D02*
D03*
X0291290Y0120625D02*
D03*
X0291290Y0126845D02*
D03*
X0403593Y0155270D02*
D03*
X0403593Y0161491D02*
D03*
X0284695Y0121707D02*
D03*
X0284695Y0127928D02*
D03*
X0318553Y0231353D02*
D03*
X0318553Y0237573D02*
D03*
X0284105Y0229876D02*
D03*
X0284105Y0236097D02*
D03*
X0279675Y0236097D02*
D03*
X0279675Y0229877D02*
D03*
X0428396Y0172613D02*
D03*
X0428396Y0166392D02*
D03*
X0408120Y0155270D02*
D03*
X0408120Y0161491D02*
D03*
X0403494Y0199955D02*
D03*
X0403494Y0206176D02*
D03*
X0282530Y0178912D02*
D03*
X0282530Y0172691D02*
D03*
X0408317Y0200054D02*
D03*
X0408317Y0206274D02*
D03*
X0421900Y0212455D02*
D03*
X0421900Y0218676D02*
D03*
X0435483Y0166491D02*
D03*
X0435483Y0172711D02*
D03*
X0293258Y0157829D02*
D03*
X0293258Y0164050D02*
D03*
X0286861Y0183931D02*
D03*
X0286861Y0177711D02*
D03*
X0407136Y0179188D02*
D03*
X0407136Y0185408D02*
D03*
X0402412Y0132357D02*
D03*
X0402412Y0126136D02*
D03*
D438*
X0262451Y0163400D02*
D03*
X0262451Y0156707D02*
D03*
X0275935Y0156609D02*
D03*
X0275935Y0163302D02*
D03*
X0268750Y0163400D02*
D03*
X0268750Y0156707D02*
D03*
X0281664Y0156412D02*
D03*
X0281664Y0163105D02*
D03*
D118*
X0267668Y0214286D02*
D03*
X0267668Y0221766D02*
D03*
D435*
X0289046Y0103754D02*
D03*
X0279794Y0107494D02*
D03*
D435*
X0289046Y0111235D02*
D03*
D240*
X0407727Y0169994D02*
D03*
X0422294Y0169994D02*
D03*
D346*
X0271900Y0236924D02*
D03*
X0271900Y0229837D02*
D03*
X0261861Y0229837D02*
D03*
X0261861Y0236924D02*
D03*
X0273278Y0220388D02*
D03*
X0273278Y0213302D02*
D03*
X0283317Y0213302D02*
D03*
X0283317Y0220388D02*
D03*
X0421506Y0185940D02*
D03*
X0421506Y0178853D02*
D03*
X0411467Y0178853D02*
D03*
X0411467Y0185940D02*
D03*
X0426723Y0185939D02*
D03*
X0426723Y0178853D02*
D03*
X0436762Y0178853D02*
D03*
X0436762Y0185939D02*
D03*
X0417569Y0219306D02*
D03*
X0417569Y0212219D02*
D03*
X0407530Y0212219D02*
D03*
X0407530Y0219306D02*
D03*
X0426231Y0219306D02*
D03*
X0426231Y0212219D02*
D03*
X0436270Y0212219D02*
D03*
X0436270Y0219306D02*
D03*
X0421309Y0140762D02*
D03*
X0421309Y0133676D02*
D03*
X0411270Y0133676D02*
D03*
X0411270Y0140762D02*
D03*
X0289124Y0220093D02*
D03*
X0289124Y0213006D02*
D03*
X0299164Y0213006D02*
D03*
X0299164Y0220093D02*
D03*
X0436664Y0140762D02*
D03*
X0436664Y0133676D02*
D03*
X0426624Y0133676D02*
D03*
X0426624Y0140762D02*
D03*
X0381743Y0221569D02*
D03*
X0381743Y0228656D02*
D03*
X0371703Y0228656D02*
D03*
X0371703Y0221569D02*
D03*
X0370522Y0239876D02*
D03*
X0370522Y0232790D02*
D03*
X0380561Y0232790D02*
D03*
X0380561Y0239876D02*
D03*
D349*
X0268455Y0236924D02*
D03*
X0265305Y0236924D02*
D03*
X0265305Y0229837D02*
D03*
X0268455Y0229837D02*
D03*
X0279872Y0213302D02*
D03*
X0276723Y0213302D02*
D03*
X0276723Y0220388D02*
D03*
X0279872Y0220388D02*
D03*
X0418061Y0185940D02*
D03*
X0414912Y0185940D02*
D03*
X0414912Y0178853D02*
D03*
X0418061Y0178853D02*
D03*
X0433317Y0178853D02*
D03*
X0430168Y0178853D02*
D03*
X0430168Y0185939D02*
D03*
X0433317Y0185939D02*
D03*
X0414124Y0219306D02*
D03*
X0410975Y0219306D02*
D03*
X0410975Y0212219D02*
D03*
X0414124Y0212219D02*
D03*
X0432825Y0212219D02*
D03*
X0429675Y0212219D02*
D03*
X0429675Y0219306D02*
D03*
X0432825Y0219306D02*
D03*
X0417864Y0140762D02*
D03*
X0414715Y0140762D02*
D03*
X0414715Y0133676D02*
D03*
X0417864Y0133676D02*
D03*
X0295719Y0213006D02*
D03*
X0292569Y0213006D02*
D03*
X0292569Y0220093D02*
D03*
X0295719Y0220093D02*
D03*
X0433219Y0140762D02*
D03*
X0430069Y0140762D02*
D03*
X0430069Y0133676D02*
D03*
X0433219Y0133676D02*
D03*
X0375148Y0228656D02*
D03*
X0378298Y0228656D02*
D03*
X0378298Y0221569D02*
D03*
X0375148Y0221569D02*
D03*
X0377116Y0232790D02*
D03*
X0373967Y0232790D02*
D03*
X0373967Y0239876D02*
D03*
X0377116Y0239876D02*
D03*
D432*
X0275739Y0115172D02*
D03*
X0275739Y0128164D02*
D03*
D433*
X0398278Y0220014D02*
D03*
X0394538Y0210762D02*
D03*
D433*
X0402018Y0210762D02*
D03*
D448*
X0335778Y0241845D02*
D03*
X0328691Y0241845D02*
D03*
X0328691Y0231806D02*
D03*
X0335778Y0231806D02*
D03*
X0325542Y0226983D02*
D03*
X0318455Y0226983D02*
D03*
X0318455Y0216943D02*
D03*
X0325542Y0216943D02*
D03*
X0412392Y0126216D02*
D03*
X0419479Y0126216D02*
D03*
X0419479Y0116176D02*
D03*
X0412392Y0116176D02*
D03*
X0428002Y0116451D02*
D03*
X0435089Y0116451D02*
D03*
X0435089Y0106412D02*
D03*
X0428002Y0106412D02*
D03*
D447*
X0328691Y0235250D02*
D03*
X0328691Y0238400D02*
D03*
X0335778Y0238400D02*
D03*
X0335778Y0235250D02*
D03*
X0318455Y0220388D02*
D03*
X0318455Y0223538D02*
D03*
X0325542Y0223538D02*
D03*
X0325542Y0220388D02*
D03*
X0412392Y0122771D02*
D03*
X0412392Y0119621D02*
D03*
X0419479Y0119621D02*
D03*
X0419479Y0122771D02*
D03*
X0428002Y0113006D02*
D03*
X0428002Y0109857D02*
D03*
X0435089Y0109857D02*
D03*
X0435089Y0113006D02*
D03*
D446*
X0404282Y0142337D02*
D03*
X0404282Y0136432D02*
D03*
D445*
X0398573Y0103262D02*
D03*
X0385581Y0103262D02*
D03*
X0266191Y0032716D02*
G01*
G75*
D151*
X0283809Y0080747D02*
D03*
X0283809Y0048070D02*
D03*
X0337943Y0048070D02*
D03*
X0337943Y0080747D02*
D03*
D19*
X0328573Y0070511D02*
D03*
X0324242Y0070511D02*
D03*
X0319911Y0070511D02*
D03*
X0315581Y0070511D02*
D03*
X0311250Y0070511D02*
D03*
X0306919Y0070511D02*
D03*
X0302589Y0070511D02*
D03*
X0298258Y0070511D02*
D03*
D242*
X0277904Y0085314D02*
D03*
X0277904Y0091535D02*
D03*
X0273278Y0085314D02*
D03*
X0273278Y0091535D02*
D03*
D183*
X0268750Y0091574D02*
D03*
X0268750Y0085275D02*
D03*
X0232283Y0274163D02*
G01*
G75*
D435*
X0169507Y0230069D02*
D03*
X0160255Y0233809D02*
D03*
X0164192Y0254380D02*
D03*
X0173444Y0250639D02*
D03*
D435*
X0169507Y0237549D02*
D03*
X0173444Y0258120D02*
D03*
D505*
X0163188Y0248690D02*
D03*
X0159448Y0239439D02*
D03*
X0161515Y0146879D02*
D03*
X0165256Y0156131D02*
D03*
X0204626Y0261486D02*
D03*
X0208366Y0270738D02*
D03*
X0222342Y0270738D02*
D03*
X0218602Y0261486D02*
D03*
X0194783Y0270738D02*
D03*
X0191043Y0261486D02*
D03*
X0182283Y0238001D02*
D03*
X0178543Y0228749D02*
D03*
X0215255Y0242785D02*
D03*
X0211515Y0233533D02*
D03*
D505*
X0155708Y0248690D02*
D03*
X0168996Y0146879D02*
D03*
X0212106Y0261486D02*
D03*
X0226082Y0261486D02*
D03*
X0198523Y0261486D02*
D03*
X0174803Y0238001D02*
D03*
X0218996Y0233533D02*
D03*
D344*
X0155315Y0238238D02*
D03*
X0155315Y0231939D02*
D03*
X0168602Y0241092D02*
D03*
X0168602Y0247391D02*
D03*
X0125492Y0143690D02*
D03*
X0125492Y0137391D02*
D03*
X0146456Y0140698D02*
D03*
X0146456Y0146998D02*
D03*
X0141830Y0151820D02*
D03*
X0141830Y0145521D02*
D03*
D514*
X0155118Y0258218D02*
D03*
X0155118Y0269636D02*
D03*
D510*
X0153543Y0163376D02*
D03*
X0171653Y0163376D02*
D03*
X0153543Y0221643D02*
D03*
X0171653Y0221643D02*
D03*
X0144291Y0221643D02*
D03*
X0126181Y0221643D02*
D03*
X0144291Y0163376D02*
D03*
X0126181Y0163376D02*
D03*
X0180905Y0163376D02*
D03*
X0199015Y0163376D02*
D03*
X0226377Y0163376D02*
D03*
X0208267Y0163376D02*
D03*
X0199409Y0221643D02*
D03*
X0181299Y0221643D02*
D03*
X0209055Y0221643D02*
D03*
X0227165Y0221643D02*
D03*
D509*
X0162598Y0163376D02*
D03*
X0162598Y0221643D02*
D03*
X0135236Y0221643D02*
D03*
X0135236Y0163376D02*
D03*
X0189960Y0163376D02*
D03*
X0217322Y0163376D02*
D03*
X0190354Y0221643D02*
D03*
X0218110Y0221643D02*
D03*
D512*
X0162598Y0187785D02*
D03*
X0162598Y0197234D02*
D03*
X0135236Y0197234D02*
D03*
X0135236Y0187785D02*
D03*
X0189960Y0187785D02*
D03*
X0217322Y0187785D02*
D03*
X0190354Y0197234D02*
D03*
X0218110Y0197234D02*
D03*
D511*
X0200689Y0197135D02*
D03*
X0207775Y0197135D02*
D03*
X0207775Y0187096D02*
D03*
X0200689Y0187096D02*
D03*
X0221653Y0150580D02*
D03*
X0228740Y0150580D02*
D03*
X0228740Y0140541D02*
D03*
X0221653Y0140541D02*
D03*
X0144980Y0187588D02*
D03*
X0152067Y0187588D02*
D03*
X0152067Y0197628D02*
D03*
X0144980Y0197628D02*
D03*
D513*
X0200689Y0193691D02*
D03*
X0200689Y0190541D02*
D03*
X0207775Y0190541D02*
D03*
X0207775Y0193691D02*
D03*
X0221653Y0147135D02*
D03*
X0221653Y0143986D02*
D03*
X0228740Y0143986D02*
D03*
X0228740Y0147135D02*
D03*
X0152067Y0194183D02*
D03*
X0152067Y0191033D02*
D03*
X0144980Y0191033D02*
D03*
X0144980Y0194183D02*
D03*
D136*
X0226850Y0130502D02*
D03*
X0221850Y0130502D02*
D03*
X0216850Y0130502D02*
D03*
X0211850Y0130502D02*
D03*
X0206850Y0130502D02*
D03*
X0201850Y0130502D02*
D03*
X0196850Y0130502D02*
D03*
X0191850Y0130502D02*
D03*
X0226850Y0111604D02*
D03*
X0221850Y0111604D02*
D03*
X0216850Y0111604D02*
D03*
X0211850Y0111604D02*
D03*
X0206850Y0111604D02*
D03*
X0201850Y0111604D02*
D03*
X0196850Y0111604D02*
D03*
X0191850Y0111604D02*
D03*
X0150413Y0111407D02*
D03*
X0155413Y0111407D02*
D03*
X0160413Y0111407D02*
D03*
X0165413Y0111407D02*
D03*
X0170413Y0111407D02*
D03*
X0175413Y0111407D02*
D03*
X0180413Y0111407D02*
D03*
X0185413Y0111407D02*
D03*
X0150413Y0130305D02*
D03*
X0155413Y0130305D02*
D03*
X0160413Y0130305D02*
D03*
X0165413Y0130305D02*
D03*
X0170413Y0130305D02*
D03*
X0175413Y0130305D02*
D03*
X0180413Y0130305D02*
D03*
X0185413Y0130305D02*
D03*
X0143818Y0130305D02*
D03*
X0138818Y0130305D02*
D03*
X0133818Y0130305D02*
D03*
X0128818Y0130305D02*
D03*
X0143818Y0111407D02*
D03*
X0138818Y0111407D02*
D03*
X0133818Y0111407D02*
D03*
X0128818Y0111407D02*
D03*
D287*
X0146259Y0255482D02*
D03*
X0146259Y0260482D02*
D03*
X0146259Y0265482D02*
D03*
X0146259Y0270482D02*
D03*
X0127361Y0255482D02*
D03*
X0127361Y0260482D02*
D03*
X0127361Y0265482D02*
D03*
X0127361Y0270482D02*
D03*
X0129133Y0248631D02*
D03*
X0129133Y0243632D02*
D03*
X0129133Y0238632D02*
D03*
X0129133Y0233631D02*
D03*
X0148031Y0248631D02*
D03*
X0148031Y0243632D02*
D03*
X0148031Y0238632D02*
D03*
X0148031Y0233631D02*
D03*
D350*
X0227362Y0249104D02*
D03*
X0227362Y0256584D02*
D03*
X0220472Y0256584D02*
D03*
X0220472Y0249104D02*
D03*
X0213582Y0249104D02*
D03*
X0213582Y0256584D02*
D03*
X0206692Y0256584D02*
D03*
X0206692Y0249104D02*
D03*
X0199803Y0249104D02*
D03*
X0199803Y0256584D02*
D03*
X0192913Y0256584D02*
D03*
X0192913Y0249104D02*
D03*
X0186023Y0249104D02*
D03*
X0186023Y0256584D02*
D03*
X0179133Y0256584D02*
D03*
X0179133Y0249104D02*
D03*
X0166633Y0270856D02*
D03*
X0166633Y0263376D02*
D03*
X0173818Y0263277D02*
D03*
X0173818Y0270758D02*
D03*
D508*
X0188877Y0242805D02*
D03*
X0188877Y0229813D02*
D03*
X0226082Y0230206D02*
D03*
X0226082Y0243198D02*
D03*
X0204921Y0242805D02*
D03*
X0204921Y0229813D02*
D03*
X0196752Y0229813D02*
D03*
X0196752Y0242805D02*
D03*
D429*
X0179330Y0263179D02*
D03*
X0185629Y0263179D02*
D03*
X0185728Y0268789D02*
D03*
X0179429Y0268789D02*
D03*
X0181791Y0242214D02*
D03*
X0175492Y0242214D02*
D03*
X0150916Y0153143D02*
D03*
X0157215Y0153143D02*
D03*
X0210925Y0228828D02*
D03*
X0217224Y0228828D02*
D03*
D352*
X0137893Y0138671D02*
D03*
X0130413Y0138671D02*
D03*
X0479380Y0048497D02*
G01*
G75*
D433*
X0467963Y0035485D02*
D03*
X0471703Y0044737D02*
D03*
D433*
X0475443Y0035485D02*
D03*
D287*
X0460404Y0023871D02*
D03*
X0460404Y0028871D02*
D03*
X0460404Y0033871D02*
D03*
X0460404Y0038871D02*
D03*
X0441506Y0023871D02*
D03*
X0441506Y0028871D02*
D03*
X0441506Y0033871D02*
D03*
X0441506Y0038871D02*
D03*
D524*
X0444695Y0044166D02*
D03*
X0438475Y0044166D02*
D03*
X0453041Y0044166D02*
D03*
X0459262Y0044166D02*
D03*
D429*
X0474853Y0030584D02*
D03*
X0468553Y0030584D02*
D03*
D132*
X0464223Y0046627D02*
D03*
X0250689Y0023524D02*
G01*
G75*
D533*
X0240059Y0071181D02*
D03*
X0216634Y0071181D02*
D03*
X0240059Y0061181D02*
D03*
X0216634Y0061181D02*
D03*
X0240059Y0051181D02*
D03*
X0216634Y0051181D02*
D03*
X0240059Y0041181D02*
D03*
X0216634Y0041181D02*
D03*
X0240059Y0031181D02*
D03*
X0216634Y0031181D02*
D03*
D325*
X0226969Y0081240D02*
D03*
X0226969Y0087461D02*
D03*
X0238976Y0083799D02*
D03*
X0238976Y0090020D02*
D03*
D535*
X0232972Y0091437D02*
D03*
X0232972Y0078445D02*
D03*
D323*
X0243602Y0089961D02*
D03*
X0243602Y0083662D02*
D03*
D476*
X0213110Y0083957D02*
D03*
X0222362Y0080217D02*
D03*
D476*
X0222362Y0087697D02*
D03*
D320*
X0244153Y0079331D02*
D03*
X0237933Y0079331D02*
D03*
X0383022Y0433852D02*
G01*
G75*
D547*
X0391349Y0386509D02*
D03*
X0385128Y0386509D02*
D03*
X0386998Y0381194D02*
D03*
X0393219Y0381194D02*
D03*
X0385128Y0391037D02*
D03*
X0391349Y0391037D02*
D03*
X0392136Y0430899D02*
D03*
X0385916Y0430899D02*
D03*
X0385424Y0399994D02*
D03*
X0391644Y0399994D02*
D03*
D544*
X0393553Y0367218D02*
D03*
X0386073Y0367218D02*
D03*
X0386073Y0375683D02*
D03*
X0389813Y0375683D02*
D03*
X0394046Y0410584D02*
D03*
X0386565Y0410584D02*
D03*
X0386565Y0419049D02*
D03*
X0390305Y0419049D02*
D03*
D544*
X0393553Y0375683D02*
D03*
X0394046Y0419049D02*
D03*
D545*
X0396113Y0382966D02*
D03*
X0396113Y0389265D02*
D03*
X0396900Y0393005D02*
D03*
X0396900Y0399305D02*
D03*
D546*
X0392766Y0395466D02*
D03*
X0386467Y0395466D02*
D03*
X0392766Y0424797D02*
D03*
X0386467Y0424797D02*
D03*
X0392766Y0404915D02*
D03*
X0386467Y0404915D02*
D03*
X0309512Y0341881D02*
G01*
G75*
D514*
X0295929Y0286074D02*
D03*
X0295929Y0297491D02*
D03*
X0304000Y0285976D02*
D03*
X0304000Y0297393D02*
D03*
X0267189Y0284401D02*
D03*
X0267189Y0295818D02*
D03*
D354*
X0274118Y0306448D02*
D03*
X0280339Y0306448D02*
D03*
D573*
X0258311Y0313436D02*
D03*
X0267563Y0309696D02*
D03*
D573*
X0258311Y0305956D02*
D03*
D575*
X0281855Y0292432D02*
D03*
X0274374Y0292432D02*
D03*
X0274374Y0300897D02*
D03*
X0278114Y0300897D02*
D03*
D575*
X0281855Y0300897D02*
D03*
D577*
X0252032Y0328790D02*
D03*
X0279394Y0328790D02*
D03*
D576*
X0293567Y0313731D02*
D03*
X0302229Y0313731D02*
D03*
X0301933Y0303692D02*
D03*
X0293272Y0303692D02*
D03*
D579*
X0260890Y0284401D02*
D03*
X0247898Y0284401D02*
D03*
D578*
X0249473Y0299755D02*
D03*
X0249473Y0291094D02*
D03*
X0258144Y0301438D02*
D03*
X0258144Y0292777D02*
D03*
D351*
X0289925Y0313535D02*
D03*
X0283626Y0313535D02*
D03*
X0289827Y0308712D02*
D03*
X0296126Y0308712D02*
D03*
X0279591Y0313731D02*
D03*
X0273292Y0313731D02*
D03*
D580*
X0305870Y0310385D02*
D03*
X0305870Y0304165D02*
D03*
D508*
X0288351Y0283712D02*
D03*
X0288351Y0296704D02*
D03*
X0451624Y0358711D02*
G01*
G75*
D350*
X0432037Y0340305D02*
D03*
X0432037Y0332825D02*
D03*
X0400640Y0340502D02*
D03*
X0400640Y0333022D02*
D03*
D608*
X0302707Y0340601D02*
D03*
X0302707Y0351624D02*
D03*
D609*
X0424360Y0346605D02*
D03*
X0408218Y0346605D02*
D03*
D429*
X0298868Y0334695D02*
D03*
X0305167Y0334695D02*
D03*
X0349754Y0334105D02*
D03*
X0343455Y0334105D02*
D03*
X0388435Y0334695D02*
D03*
X0394734Y0334695D02*
D03*
D354*
X0309734Y0333809D02*
D03*
X0315955Y0333809D02*
D03*
X0394793Y0339223D02*
D03*
X0388573Y0339223D02*
D03*
X0340955Y0354282D02*
D03*
X0334734Y0354282D02*
D03*
D348*
X0384203Y0335424D02*
D03*
X0384203Y0341644D02*
D03*
D88*
X0371309Y0338317D02*
D03*
X0371309Y0343317D02*
D03*
X0371309Y0348317D02*
D03*
X0371309Y0353317D02*
D03*
X0348671Y0338317D02*
D03*
X0348671Y0343317D02*
D03*
X0348671Y0348317D02*
D03*
X0348671Y0353317D02*
D03*
D611*
X0359990Y0345817D02*
D03*
D610*
X0381840Y0349164D02*
D03*
X0397589Y0349164D02*
D03*
D613*
X0320620Y0338928D02*
D03*
X0320620Y0350345D02*
D03*
X0337549Y0332825D02*
D03*
X0337549Y0344242D02*
D03*
X0328789Y0350246D02*
D03*
X0328789Y0338829D02*
D03*
X0312549Y0350443D02*
D03*
X0312549Y0339026D02*
D03*
D612*
X0443553Y0335286D02*
D03*
X0443553Y0353002D02*
D03*
D344*
X0379774Y0335384D02*
D03*
X0379774Y0341683D02*
D03*
D272*
X0443553Y0332825D02*
D03*
X0393379Y0023376D02*
G01*
G75*
D384*
X0380367Y0034793D02*
D03*
X0389619Y0031053D02*
D03*
D384*
X0380367Y0027313D02*
D03*
D136*
X0368753Y0042352D02*
D03*
X0373753Y0042352D02*
D03*
X0378753Y0042352D02*
D03*
X0383753Y0042352D02*
D03*
X0368753Y0061250D02*
D03*
X0373753Y0061250D02*
D03*
X0378753Y0061250D02*
D03*
X0383753Y0061250D02*
D03*
D368*
X0389048Y0058061D02*
D03*
X0389048Y0064281D02*
D03*
X0389048Y0049715D02*
D03*
X0389048Y0043494D02*
D03*
D380*
X0375466Y0027903D02*
D03*
X0375466Y0034203D02*
D03*
D132*
X0391509Y0038533D02*
D03*
M02*
