G75*
G70*
%OFA0B0*%
%FSLAX25Y25*%
%IPPOS*%
%LPD*%
%AMOC8*
5,1,8,0,0,1.08239X$1,22.5*
%
%AMM130*
21,1,0.040950,0.050000,-0.000000,-0.000000,90.000000*
21,1,0.028350,0.062600,-0.000000,-0.000000,90.000000*
1,1,0.012600,0.025000,0.014170*
1,1,0.012600,0.025000,-0.014170*
1,1,0.012600,-0.025000,-0.014170*
1,1,0.012600,-0.025000,0.014170*
%
%AMM131*
21,1,0.092130,0.073230,-0.000000,-0.000000,90.000000*
21,1,0.069290,0.096060,-0.000000,-0.000000,90.000000*
1,1,0.022840,0.036610,0.034650*
1,1,0.022840,0.036610,-0.034650*
1,1,0.022840,-0.036610,-0.034650*
1,1,0.022840,-0.036610,0.034650*
%
%AMM132*
21,1,0.033070,0.030710,-0.000000,-0.000000,270.000000*
21,1,0.022050,0.041730,-0.000000,-0.000000,270.000000*
1,1,0.011020,-0.015350,-0.011020*
1,1,0.011020,-0.015350,0.011020*
1,1,0.011020,0.015350,0.011020*
1,1,0.011020,0.015350,-0.011020*
%
%AMM133*
21,1,0.044880,0.049210,-0.000000,-0.000000,0.000000*
21,1,0.031500,0.062600,-0.000000,-0.000000,0.000000*
1,1,0.013390,0.015750,-0.024610*
1,1,0.013390,-0.015750,-0.024610*
1,1,0.013390,-0.015750,0.024610*
1,1,0.013390,0.015750,0.024610*
%
%AMM134*
21,1,0.029130,0.030710,-0.000000,-0.000000,270.000000*
21,1,0.018900,0.040950,-0.000000,-0.000000,270.000000*
1,1,0.010240,-0.015350,-0.009450*
1,1,0.010240,-0.015350,0.009450*
1,1,0.010240,0.015350,0.009450*
1,1,0.010240,0.015350,-0.009450*
%
%AMM135*
21,1,0.031100,0.026380,-0.000000,-0.000000,180.000000*
21,1,0.020470,0.037010,-0.000000,-0.000000,180.000000*
1,1,0.010630,-0.010240,0.013190*
1,1,0.010630,0.010240,0.013190*
1,1,0.010630,0.010240,-0.013190*
1,1,0.010630,-0.010240,-0.013190*
%
%AMM136*
21,1,0.023230,0.027950,-0.000000,-0.000000,180.000000*
21,1,0.014170,0.037010,-0.000000,-0.000000,180.000000*
1,1,0.009060,-0.007090,0.013980*
1,1,0.009060,0.007090,0.013980*
1,1,0.009060,0.007090,-0.013980*
1,1,0.009060,-0.007090,-0.013980*
%
%AMM137*
21,1,0.038980,0.026770,-0.000000,-0.000000,90.000000*
21,1,0.026770,0.038980,-0.000000,-0.000000,90.000000*
1,1,0.012210,0.013390,0.013390*
1,1,0.012210,0.013390,-0.013390*
1,1,0.012210,-0.013390,-0.013390*
1,1,0.012210,-0.013390,0.013390*
%
%AMM138*
21,1,0.033070,0.030710,-0.000000,-0.000000,180.000000*
21,1,0.022050,0.041730,-0.000000,-0.000000,180.000000*
1,1,0.011020,-0.011020,0.015350*
1,1,0.011020,0.011020,0.015350*
1,1,0.011020,0.011020,-0.015350*
1,1,0.011020,-0.011020,-0.015350*
%
%AMM139*
21,1,0.044880,0.049210,-0.000000,-0.000000,270.000000*
21,1,0.031500,0.062600,-0.000000,-0.000000,270.000000*
1,1,0.013390,-0.024610,-0.015750*
1,1,0.013390,-0.024610,0.015750*
1,1,0.013390,0.024610,0.015750*
1,1,0.013390,0.024610,-0.015750*
%
%AMM140*
21,1,0.038980,0.026770,-0.000000,-0.000000,0.000000*
21,1,0.026770,0.038980,-0.000000,-0.000000,0.000000*
1,1,0.012210,0.013390,-0.013390*
1,1,0.012210,-0.013390,-0.013390*
1,1,0.012210,-0.013390,0.013390*
1,1,0.012210,0.013390,0.013390*
%
%AMM185*
21,1,0.038980,0.026770,-0.000000,-0.000000,180.000000*
21,1,0.026770,0.038980,-0.000000,-0.000000,180.000000*
1,1,0.012210,-0.013390,0.013390*
1,1,0.012210,0.013390,0.013390*
1,1,0.012210,0.013390,-0.013390*
1,1,0.012210,-0.013390,-0.013390*
%
%AMM186*
21,1,0.040950,0.030320,-0.000000,-0.000000,90.000000*
21,1,0.028350,0.042910,-0.000000,-0.000000,90.000000*
1,1,0.012600,0.015160,0.014170*
1,1,0.012600,0.015160,-0.014170*
1,1,0.012600,-0.015160,-0.014170*
1,1,0.012600,-0.015160,0.014170*
%
%AMM187*
21,1,0.040950,0.030320,-0.000000,-0.000000,180.000000*
21,1,0.028350,0.042910,-0.000000,-0.000000,180.000000*
1,1,0.012600,-0.014170,0.015160*
1,1,0.012600,0.014170,0.015160*
1,1,0.012600,0.014170,-0.015160*
1,1,0.012600,-0.014170,-0.015160*
%
%AMM188*
21,1,0.076380,0.036220,-0.000000,-0.000000,180.000000*
21,1,0.061810,0.050790,-0.000000,-0.000000,180.000000*
1,1,0.014570,-0.030910,0.018110*
1,1,0.014570,0.030910,0.018110*
1,1,0.014570,0.030910,-0.018110*
1,1,0.014570,-0.030910,-0.018110*
%
%AMM189*
21,1,0.048820,0.075980,-0.000000,-0.000000,0.000000*
21,1,0.034650,0.090160,-0.000000,-0.000000,0.000000*
1,1,0.014170,0.017320,-0.037990*
1,1,0.014170,-0.017320,-0.037990*
1,1,0.014170,-0.017320,0.037990*
1,1,0.014170,0.017320,0.037990*
%
%AMM190*
21,1,0.048820,0.075990,-0.000000,-0.000000,0.000000*
21,1,0.034650,0.090160,-0.000000,-0.000000,0.000000*
1,1,0.014170,0.017320,-0.037990*
1,1,0.014170,-0.017320,-0.037990*
1,1,0.014170,-0.017320,0.037990*
1,1,0.014170,0.017320,0.037990*
%
%AMM191*
21,1,0.143310,0.067720,-0.000000,-0.000000,0.000000*
21,1,0.120870,0.090160,-0.000000,-0.000000,0.000000*
1,1,0.022440,0.060430,-0.033860*
1,1,0.022440,-0.060430,-0.033860*
1,1,0.022440,-0.060430,0.033860*
1,1,0.022440,0.060430,0.033860*
%
%AMM192*
21,1,0.031100,0.026380,-0.000000,-0.000000,270.000000*
21,1,0.020470,0.037010,-0.000000,-0.000000,270.000000*
1,1,0.010630,-0.013190,-0.010240*
1,1,0.010630,-0.013190,0.010240*
1,1,0.010630,0.013190,0.010240*
1,1,0.010630,0.013190,-0.010240*
%
%AMM193*
21,1,0.023230,0.027950,-0.000000,-0.000000,270.000000*
21,1,0.014170,0.037010,-0.000000,-0.000000,270.000000*
1,1,0.009060,-0.013980,-0.007090*
1,1,0.009060,-0.013980,0.007090*
1,1,0.009060,0.013980,0.007090*
1,1,0.009060,0.013980,-0.007090*
%
%AMM194*
21,1,0.041340,0.026770,-0.000000,-0.000000,270.000000*
21,1,0.029130,0.038980,-0.000000,-0.000000,270.000000*
1,1,0.012210,-0.013390,-0.014570*
1,1,0.012210,-0.013390,0.014570*
1,1,0.012210,0.013390,0.014570*
1,1,0.012210,0.013390,-0.014570*
%
%AMM195*
21,1,0.033070,0.030710,-0.000000,-0.000000,0.000000*
21,1,0.022050,0.041730,-0.000000,-0.000000,0.000000*
1,1,0.011020,0.011020,-0.015350*
1,1,0.011020,-0.011020,-0.015350*
1,1,0.011020,-0.011020,0.015350*
1,1,0.011020,0.011020,0.015350*
%
%AMM216*
21,1,0.041340,0.026770,-0.000000,-0.000000,180.000000*
21,1,0.029130,0.038980,-0.000000,-0.000000,180.000000*
1,1,0.012210,-0.014570,0.013390*
1,1,0.012210,0.014570,0.013390*
1,1,0.012210,0.014570,-0.013390*
1,1,0.012210,-0.014570,-0.013390*
%
%AMM23*
21,1,0.033070,0.030710,0.000000,0.000000,0.000000*
21,1,0.022050,0.041730,0.000000,0.000000,0.000000*
1,1,0.011020,0.011020,-0.015350*
1,1,0.011020,-0.011020,-0.015350*
1,1,0.011020,-0.011020,0.015350*
1,1,0.011020,0.011020,0.015350*
%
%AMM233*
21,1,0.038980,0.026770,0.000000,-0.000000,180.000000*
21,1,0.026770,0.038980,0.000000,-0.000000,180.000000*
1,1,0.012210,-0.013390,0.013390*
1,1,0.012210,0.013390,0.013390*
1,1,0.012210,0.013390,-0.013390*
1,1,0.012210,-0.013390,-0.013390*
%
%AMM234*
21,1,0.027170,0.052760,0.000000,-0.000000,180.000000*
21,1,0.017320,0.062600,0.000000,-0.000000,180.000000*
1,1,0.009840,-0.008660,0.026380*
1,1,0.009840,0.008660,0.026380*
1,1,0.009840,0.008660,-0.026380*
1,1,0.009840,-0.008660,-0.026380*
%
%AMM235*
21,1,0.033070,0.030710,0.000000,-0.000000,90.000000*
21,1,0.022050,0.041730,0.000000,-0.000000,90.000000*
1,1,0.011020,0.015350,0.011020*
1,1,0.011020,0.015350,-0.011020*
1,1,0.011020,-0.015350,-0.011020*
1,1,0.011020,-0.015350,0.011020*
%
%AMM236*
21,1,0.033070,0.030710,0.000000,-0.000000,180.000000*
21,1,0.022050,0.041730,0.000000,-0.000000,180.000000*
1,1,0.011020,-0.011020,0.015350*
1,1,0.011020,0.011020,0.015350*
1,1,0.011020,0.011020,-0.015350*
1,1,0.011020,-0.011020,-0.015350*
%
%AMM25*
21,1,0.038980,0.026770,0.000000,0.000000,180.000000*
21,1,0.026770,0.038980,0.000000,0.000000,180.000000*
1,1,0.012210,-0.013390,0.013390*
1,1,0.012210,0.013390,0.013390*
1,1,0.012210,0.013390,-0.013390*
1,1,0.012210,-0.013390,-0.013390*
%
%AMM44*
21,1,0.038980,0.026770,0.000000,0.000000,0.000000*
21,1,0.026770,0.038980,0.000000,0.000000,0.000000*
1,1,0.012210,0.013390,-0.013390*
1,1,0.012210,-0.013390,-0.013390*
1,1,0.012210,-0.013390,0.013390*
1,1,0.012210,0.013390,0.013390*
%
%AMM47*
21,1,0.076380,0.036220,0.000000,0.000000,0.000000*
21,1,0.061810,0.050790,0.000000,0.000000,0.000000*
1,1,0.014570,0.030910,-0.018110*
1,1,0.014570,-0.030910,-0.018110*
1,1,0.014570,-0.030910,0.018110*
1,1,0.014570,0.030910,0.018110*
%
%AMM53*
21,1,0.041340,0.026770,0.000000,0.000000,90.000000*
21,1,0.029130,0.038980,0.000000,0.000000,90.000000*
1,1,0.012210,0.013390,0.014570*
1,1,0.012210,0.013390,-0.014570*
1,1,0.012210,-0.013390,-0.014570*
1,1,0.012210,-0.013390,0.014570*
%
%AMM54*
21,1,0.033070,0.030710,0.000000,0.000000,180.000000*
21,1,0.022050,0.041730,0.000000,0.000000,180.000000*
1,1,0.011020,-0.011020,0.015350*
1,1,0.011020,0.011020,0.015350*
1,1,0.011020,0.011020,-0.015350*
1,1,0.011020,-0.011020,-0.015350*
%
%AMM57*
21,1,0.040950,0.030320,0.000000,0.000000,180.000000*
21,1,0.028350,0.042910,0.000000,0.000000,180.000000*
1,1,0.012600,-0.014170,0.015160*
1,1,0.012600,0.014170,0.015160*
1,1,0.012600,0.014170,-0.015160*
1,1,0.012600,-0.014170,-0.015160*
%
%AMM65*
21,1,0.041340,0.026770,0.000000,0.000000,0.000000*
21,1,0.029130,0.038980,0.000000,0.000000,0.000000*
1,1,0.012210,0.014570,-0.013390*
1,1,0.012210,-0.014570,-0.013390*
1,1,0.012210,-0.014570,0.013390*
1,1,0.012210,0.014570,0.013390*
%
%AMM81*
21,1,0.040950,0.030320,0.000000,0.000000,90.000000*
21,1,0.028350,0.042910,0.000000,0.000000,90.000000*
1,1,0.012600,0.015160,0.014170*
1,1,0.012600,0.015160,-0.014170*
1,1,0.012600,-0.015160,-0.014170*
1,1,0.012600,-0.015160,0.014170*
%
%AMM82*
21,1,0.027170,0.052760,0.000000,0.000000,0.000000*
21,1,0.017320,0.062600,0.000000,0.000000,0.000000*
1,1,0.009840,0.008660,-0.026380*
1,1,0.009840,-0.008660,-0.026380*
1,1,0.009840,-0.008660,0.026380*
1,1,0.009840,0.008660,0.026380*
%
%AMM83*
21,1,0.100000,0.111020,0.000000,0.000000,180.000000*
21,1,0.075590,0.135430,0.000000,0.000000,180.000000*
1,1,0.024410,-0.037800,0.055510*
1,1,0.024410,0.037800,0.055510*
1,1,0.024410,0.037800,-0.055510*
1,1,0.024410,-0.037800,-0.055510*
%
%AMM84*
21,1,0.029130,0.018900,0.000000,0.000000,270.000000*
21,1,0.018900,0.029130,0.000000,0.000000,270.000000*
1,1,0.010240,-0.009450,-0.009450*
1,1,0.010240,-0.009450,0.009450*
1,1,0.010240,0.009450,0.009450*
1,1,0.010240,0.009450,-0.009450*
%
%AMM85*
21,1,0.029130,0.018900,0.000000,0.000000,180.000000*
21,1,0.018900,0.029130,0.000000,0.000000,180.000000*
1,1,0.010240,-0.009450,0.009450*
1,1,0.010240,0.009450,0.009450*
1,1,0.010240,0.009450,-0.009450*
1,1,0.010240,-0.009450,-0.009450*
%
%AMM86*
21,1,0.038980,0.026770,0.000000,0.000000,90.000000*
21,1,0.026770,0.038980,0.000000,0.000000,90.000000*
1,1,0.012210,0.013390,0.013390*
1,1,0.012210,0.013390,-0.013390*
1,1,0.012210,-0.013390,-0.013390*
1,1,0.012210,-0.013390,0.013390*
%
%ADD11C,0.06693*%
%ADD12R,0.06693X0.06693*%
%ADD129C,0.03701*%
%ADD13O,0.06693X0.06693*%
%ADD134M23*%
%ADD136M25*%
%ADD14C,0.06000*%
%ADD15R,0.08661X0.04724*%
%ADD16R,0.25197X0.22835*%
%ADD160M44*%
%ADD163O,0.04488X0.06457*%
%ADD164O,0.03701X0.02913*%
%ADD165M47*%
%ADD17C,0.07874*%
%ADD171O,0.02913X0.09213*%
%ADD172O,0.09213X0.02913*%
%ADD173M53*%
%ADD174M54*%
%ADD18C,0.13780*%
%ADD184O,0.02520X0.01535*%
%ADD185O,0.01535X0.02520*%
%ADD186M57*%
%ADD187C,0.02913*%
%ADD19R,0.03543X0.04724*%
%ADD197O,0.04567X0.11772*%
%ADD198M65*%
%ADD199C,0.06457*%
%ADD20R,0.05157X0.02559*%
%ADD200R,0.06457X0.06457*%
%ADD21R,0.05157X0.02362*%
%ADD22R,0.05217X0.05906*%
%ADD220M81*%
%ADD221M82*%
%ADD222O,0.04488X0.02520*%
%ADD223O,0.01339X0.02520*%
%ADD224M83*%
%ADD225M84*%
%ADD226M85*%
%ADD227M86*%
%ADD23C,0.05906*%
%ADD24R,0.04724X0.03543*%
%ADD25R,0.06299X0.09449*%
%ADD26C,0.06496*%
%ADD271M130*%
%ADD272M131*%
%ADD273M132*%
%ADD274M133*%
%ADD275M134*%
%ADD276M135*%
%ADD277M136*%
%ADD278M137*%
%ADD279M138*%
%ADD280M139*%
%ADD281M140*%
%ADD30C,0.02362*%
%ADD32O,0.01969X0.00984*%
%ADD343M185*%
%ADD344M186*%
%ADD345M187*%
%ADD346M188*%
%ADD347M189*%
%ADD348M190*%
%ADD349M191*%
%ADD35O,0.01575X0.00787*%
%ADD350M192*%
%ADD351M193*%
%ADD352M194*%
%ADD353M195*%
%ADD376M216*%
%ADD393M233*%
%ADD394M234*%
%ADD395M235*%
%ADD396M236*%
%ADD40O,0.03937X0.01969*%
%ADD44O,0.00787X0.01969*%
%ADD55O,0.10630X0.12992*%
%ADD56R,0.01378X0.01476*%
%ADD57R,0.01476X0.01378*%
%ADD58O,0.07677X0.06693*%
%ADD59R,0.07874X0.02559*%
%ADD60R,0.17717X0.31890*%
%ADD64O,0.00984X0.01969*%
%ADD65R,0.14173X0.10236*%
%ADD75O,0.03937X0.05906*%
%ADD76O,0.03150X0.02362*%
%ADD86C,0.09843*%
%ADD87C,0.14567*%
%ADD88C,0.11811*%
X0000000Y0000000D02*
%LPD*%
G01*
G36*
G01*
X0265157Y0495709D02*
X0265157Y0498780D01*
G75*
G02*
X0265433Y0499055I0000276J0000000D01*
G01*
X0267638Y0499055D01*
G75*
G02*
X0267913Y0498780I0000000J-000276D01*
G01*
X0267913Y0495709D01*
G75*
G02*
X0267638Y0495433I-000276J0000000D01*
G01*
X0265433Y0495433D01*
G75*
G02*
X0265157Y0495709I0000000J0000276D01*
G01*
G37*
G36*
G01*
X0271457Y0495709D02*
X0271457Y0498780D01*
G75*
G02*
X0271732Y0499055I0000276J0000000D01*
G01*
X0273937Y0499055D01*
G75*
G02*
X0274213Y0498780I0000000J-000276D01*
G01*
X0274213Y0495709D01*
G75*
G02*
X0273937Y0495433I-000276J0000000D01*
G01*
X0271732Y0495433D01*
G75*
G02*
X0271457Y0495709I0000000J0000276D01*
G01*
G37*
D11*
X0411417Y0505906D03*
G36*
G01*
X0403740Y0480669D02*
X0403740Y0477598D01*
G75*
G02*
X0403465Y0477323I-000276J0000000D01*
G01*
X0401260Y0477323D01*
G75*
G02*
X0400984Y0477598I0000000J0000276D01*
G01*
X0400984Y0480669D01*
G75*
G02*
X0401260Y0480945I0000276J0000000D01*
G01*
X0403465Y0480945D01*
G75*
G02*
X0403740Y0480669I0000000J-000276D01*
G01*
G37*
G36*
G01*
X0397441Y0480669D02*
X0397441Y0477598D01*
G75*
G02*
X0397165Y0477323I-000276J0000000D01*
G01*
X0394961Y0477323D01*
G75*
G02*
X0394685Y0477598I0000000J0000276D01*
G01*
X0394685Y0480669D01*
G75*
G02*
X0394961Y0480945I0000276J0000000D01*
G01*
X0397165Y0480945D01*
G75*
G02*
X0397441Y0480669I0000000J-000276D01*
G01*
G37*
G36*
G01*
X0596752Y0375689D02*
X0596752Y0364469D01*
G75*
G02*
X0595768Y0363484I-000984J0000000D01*
G01*
X0592913Y0363484D01*
G75*
G02*
X0591929Y0364469I0000000J0000984D01*
G01*
X0591929Y0375689D01*
G75*
G02*
X0592913Y0376673I0000984J0000000D01*
G01*
X0595768Y0376673D01*
G75*
G02*
X0596752Y0375689I0000000J-000984D01*
G01*
G37*
G36*
G01*
X0573425Y0375689D02*
X0573425Y0364469D01*
G75*
G02*
X0572441Y0363484I-000984J0000000D01*
G01*
X0569587Y0363484D01*
G75*
G02*
X0568602Y0364469I0000000J0000984D01*
G01*
X0568602Y0375689D01*
G75*
G02*
X0569587Y0376673I0000984J0000000D01*
G01*
X0572441Y0376673D01*
G75*
G02*
X0573425Y0375689I0000000J-000984D01*
G01*
G37*
X0505906Y0470472D03*
X0446850Y0488189D03*
D12*
X0282992Y0025591D03*
D13*
X0292992Y0025591D03*
X0302992Y0025591D03*
X0312992Y0025591D03*
X0322992Y0025591D03*
X0332992Y0025591D03*
D14*
X0331890Y0486024D03*
G36*
G01*
X0328346Y0480728D02*
X0328346Y0483445D01*
G75*
G02*
X0329252Y0484350I0000906J0000000D01*
G01*
X0334528Y0484350D01*
G75*
G02*
X0335433Y0483445I0000000J-000906D01*
G01*
X0335433Y0480728D01*
G75*
G02*
X0334528Y0479823I-000906J0000000D01*
G01*
X0329252Y0479823D01*
G75*
G02*
X0328346Y0480728I0000000J0000906D01*
G01*
G37*
G36*
G01*
X0328346Y0469311D02*
X0328346Y0472028D01*
G75*
G02*
X0329252Y0472933I0000906J0000000D01*
G01*
X0334528Y0472933D01*
G75*
G02*
X0335433Y0472028I0000000J-000906D01*
G01*
X0335433Y0469311D01*
G75*
G02*
X0334528Y0468405I-000906J0000000D01*
G01*
X0329252Y0468405D01*
G75*
G02*
X0328346Y0469311I0000000J0000906D01*
G01*
G37*
X0331890Y0466732D03*
D11*
X0260630Y0086614D03*
D15*
X0595669Y0337480D03*
D16*
X0570866Y0346457D03*
D15*
X0595669Y0355433D03*
G36*
G01*
X0418680Y0394134D02*
X0418680Y0397205D01*
G75*
G02*
X0418956Y0397480I0000276J0000000D01*
G01*
X0421160Y0397480D01*
G75*
G02*
X0421436Y0397205I0000000J-000276D01*
G01*
X0421436Y0394134D01*
G75*
G02*
X0421160Y0393858I-000276J0000000D01*
G01*
X0418956Y0393858D01*
G75*
G02*
X0418680Y0394134I0000000J0000276D01*
G01*
G37*
G36*
G01*
X0424979Y0394134D02*
X0424979Y0397205D01*
G75*
G02*
X0425255Y0397480I0000276J0000000D01*
G01*
X0427460Y0397480D01*
G75*
G02*
X0427735Y0397205I0000000J-000276D01*
G01*
X0427735Y0394134D01*
G75*
G02*
X0427460Y0393858I-000276J0000000D01*
G01*
X0425255Y0393858D01*
G75*
G02*
X0424979Y0394134I0000000J0000276D01*
G01*
G37*
D11*
X0482283Y0505906D03*
X0499921Y0291772D03*
X0499921Y0301772D03*
X0499921Y0311772D03*
X0499921Y0321772D03*
X0499921Y0331772D03*
X0509921Y0291772D03*
X0509921Y0301772D03*
X0509921Y0311772D03*
X0509921Y0321772D03*
X0509921Y0331772D03*
X0312598Y0486240D03*
G36*
G01*
X0116929Y0325433D02*
X0116929Y0327323D01*
G75*
G02*
X0117165Y0327559I0000236J0000000D01*
G01*
X0119055Y0327559D01*
G75*
G02*
X0119291Y0327323I0000000J-000236D01*
G01*
X0119291Y0325433D01*
G75*
G02*
X0119055Y0325197I-000236J0000000D01*
G01*
X0117165Y0325197D01*
G75*
G02*
X0116929Y0325433I0000000J0000236D01*
G01*
G37*
G36*
G01*
X0116929Y0334094D02*
X0116929Y0335984D01*
G75*
G02*
X0117165Y0336220I0000236J0000000D01*
G01*
X0119055Y0336220D01*
G75*
G02*
X0119291Y0335984I0000000J-000236D01*
G01*
X0119291Y0334094D01*
G75*
G02*
X0119055Y0333858I-000236J0000000D01*
G01*
X0117165Y0333858D01*
G75*
G02*
X0116929Y0334094I0000000J0000236D01*
G01*
G37*
D86*
X0070522Y0515748D03*
D87*
X0145325Y0598819D03*
X0499656Y0598819D03*
D88*
X0370522Y0515748D03*
D86*
X0556742Y0582677D03*
D11*
X0542963Y0572835D03*
X0529183Y0572835D03*
X0515404Y0572835D03*
X0501624Y0572835D03*
X0487844Y0572835D03*
X0476033Y0572835D03*
X0466191Y0572835D03*
X0456348Y0572835D03*
X0446506Y0572835D03*
X0436663Y0572835D03*
X0426821Y0572835D03*
X0416978Y0572835D03*
X0407136Y0572835D03*
X0397293Y0572835D03*
X0385482Y0572835D03*
X0542963Y0562992D03*
X0529183Y0562992D03*
X0515404Y0562992D03*
X0501624Y0562992D03*
X0487844Y0562992D03*
X0476033Y0562992D03*
X0466191Y0562992D03*
X0456348Y0562992D03*
X0446506Y0562992D03*
X0436663Y0562992D03*
X0426821Y0562992D03*
X0416978Y0562992D03*
X0407136Y0562992D03*
X0397293Y0562992D03*
X0385482Y0562992D03*
X0542963Y0539370D03*
X0529183Y0539370D03*
X0515404Y0539370D03*
X0501624Y0539370D03*
X0487844Y0539370D03*
X0476033Y0539370D03*
X0466191Y0539370D03*
X0456348Y0539370D03*
X0446506Y0539370D03*
X0436663Y0539370D03*
X0426821Y0539370D03*
X0416978Y0539370D03*
X0407136Y0539370D03*
X0397293Y0539370D03*
X0385482Y0539370D03*
X0542963Y0529528D03*
X0529183Y0529528D03*
X0515404Y0529528D03*
X0501624Y0529528D03*
X0487844Y0529528D03*
X0476033Y0529528D03*
X0466191Y0529528D03*
X0456348Y0529528D03*
X0446506Y0529528D03*
X0436663Y0529528D03*
X0426821Y0529528D03*
X0416978Y0529528D03*
X0407136Y0529528D03*
X0397293Y0529528D03*
X0385482Y0529528D03*
D17*
X0333514Y0572835D03*
X0313041Y0572835D03*
X0333514Y0551181D03*
X0313041Y0551181D03*
X0333514Y0529528D03*
X0313041Y0529528D03*
D11*
X0287057Y0572835D03*
X0275246Y0572835D03*
X0265404Y0572835D03*
X0255561Y0572835D03*
X0245719Y0572835D03*
X0235876Y0572835D03*
X0226033Y0572835D03*
X0216191Y0572835D03*
X0206348Y0572835D03*
X0196506Y0572835D03*
X0186663Y0572835D03*
X0176821Y0572835D03*
X0166978Y0572835D03*
X0157136Y0572835D03*
X0147293Y0572835D03*
X0137451Y0572835D03*
X0127608Y0572835D03*
X0117766Y0572835D03*
X0107923Y0572835D03*
X0098081Y0572835D03*
X0088238Y0572835D03*
X0078396Y0572835D03*
X0287057Y0562992D03*
X0275246Y0562992D03*
X0265404Y0562992D03*
X0255561Y0562992D03*
X0245719Y0562992D03*
X0235876Y0562992D03*
X0226033Y0562992D03*
X0216191Y0562992D03*
X0206348Y0562992D03*
X0196506Y0562992D03*
X0186663Y0562992D03*
X0176821Y0562992D03*
X0166978Y0562992D03*
X0157136Y0562992D03*
X0147293Y0562992D03*
X0137451Y0562992D03*
X0127608Y0562992D03*
X0117766Y0562992D03*
X0107923Y0562992D03*
X0098081Y0562992D03*
X0088238Y0562992D03*
X0078396Y0562992D03*
X0287057Y0539370D03*
X0275246Y0539370D03*
X0265404Y0539370D03*
X0255561Y0539370D03*
X0245719Y0539370D03*
X0235876Y0539370D03*
X0226033Y0539370D03*
X0216191Y0539370D03*
X0206348Y0539370D03*
X0196506Y0539370D03*
X0186663Y0539370D03*
X0176821Y0539370D03*
X0166978Y0539370D03*
X0157136Y0539370D03*
X0147293Y0539370D03*
X0137451Y0539370D03*
X0127608Y0539370D03*
X0117766Y0539370D03*
X0107923Y0539370D03*
X0098081Y0539370D03*
X0088238Y0539370D03*
X0078396Y0539370D03*
X0287057Y0529528D03*
X0275246Y0529528D03*
X0265404Y0529528D03*
X0255561Y0529528D03*
X0245719Y0529528D03*
X0235876Y0529528D03*
X0226033Y0529528D03*
X0216191Y0529528D03*
X0206348Y0529528D03*
X0196506Y0529528D03*
X0186663Y0529528D03*
X0176821Y0529528D03*
X0166978Y0529528D03*
X0157136Y0529528D03*
X0147293Y0529528D03*
X0137451Y0529528D03*
X0127608Y0529528D03*
X0117766Y0529528D03*
X0107923Y0529528D03*
X0098081Y0529528D03*
X0088238Y0529528D03*
X0078396Y0529528D03*
G36*
G01*
X0165846Y0439961D02*
X0160925Y0439961D01*
G75*
G02*
X0160531Y0440354I0000000J0000394D01*
G01*
X0160531Y0443504D01*
G75*
G02*
X0160925Y0443898I0000394J0000000D01*
G01*
X0165846Y0443898D01*
G75*
G02*
X0166240Y0443504I0000000J-000394D01*
G01*
X0166240Y0440354D01*
G75*
G02*
X0165846Y0439961I-000394J0000000D01*
G01*
G37*
D14*
X0163386Y0438169D03*
X0163386Y0453169D03*
G36*
G01*
X0165846Y0447441D02*
X0160925Y0447441D01*
G75*
G02*
X0160531Y0447835I0000000J0000394D01*
G01*
X0160531Y0450984D01*
G75*
G02*
X0160925Y0451378I0000394J0000000D01*
G01*
X0165846Y0451378D01*
G75*
G02*
X0166240Y0450984I0000000J-000394D01*
G01*
X0166240Y0447835D01*
G75*
G02*
X0165846Y0447441I-000394J0000000D01*
G01*
G37*
G36*
G01*
X0481693Y0060610D02*
X0479016Y0060610D01*
G75*
G02*
X0478681Y0060945I0000000J0000335D01*
G01*
X0478681Y0063622D01*
G75*
G02*
X0479016Y0063957I0000335J0000000D01*
G01*
X0481693Y0063957D01*
G75*
G02*
X0482028Y0063622I0000000J-000335D01*
G01*
X0482028Y0060945D01*
G75*
G02*
X0481693Y0060610I-000335J0000000D01*
G01*
G37*
G36*
G01*
X0481693Y0066831D02*
X0479016Y0066831D01*
G75*
G02*
X0478681Y0067165I0000000J0000335D01*
G01*
X0478681Y0069843D01*
G75*
G02*
X0479016Y0070177I0000335J0000000D01*
G01*
X0481693Y0070177D01*
G75*
G02*
X0482028Y0069843I0000000J-000335D01*
G01*
X0482028Y0067165D01*
G75*
G02*
X0481693Y0066831I-000335J0000000D01*
G01*
G37*
D11*
X0458661Y0505906D03*
G36*
G01*
X0115759Y0209280D02*
X0115759Y0206210D01*
G75*
G02*
X0115484Y0205934I-000276J0000000D01*
G01*
X0113279Y0205934D01*
G75*
G02*
X0113003Y0206210I0000000J0000276D01*
G01*
X0113003Y0209280D01*
G75*
G02*
X0113279Y0209556I0000276J0000000D01*
G01*
X0115484Y0209556D01*
G75*
G02*
X0115759Y0209280I0000000J-000276D01*
G01*
G37*
G36*
G01*
X0109460Y0209280D02*
X0109460Y0206210D01*
G75*
G02*
X0109184Y0205934I-000276J0000000D01*
G01*
X0106980Y0205934D01*
G75*
G02*
X0106704Y0206210I0000000J0000276D01*
G01*
X0106704Y0209280D01*
G75*
G02*
X0106980Y0209556I0000276J0000000D01*
G01*
X0109184Y0209556D01*
G75*
G02*
X0109460Y0209280I0000000J-000276D01*
G01*
G37*
D14*
X0139764Y0438169D03*
G36*
G01*
X0142224Y0439961D02*
X0137303Y0439961D01*
G75*
G02*
X0136909Y0440354I0000000J0000394D01*
G01*
X0136909Y0443504D01*
G75*
G02*
X0137303Y0443898I0000394J0000000D01*
G01*
X0142224Y0443898D01*
G75*
G02*
X0142618Y0443504I0000000J-000394D01*
G01*
X0142618Y0440354D01*
G75*
G02*
X0142224Y0439961I-000394J0000000D01*
G01*
G37*
G36*
G01*
X0142224Y0447441D02*
X0137303Y0447441D01*
G75*
G02*
X0136909Y0447835I0000000J0000394D01*
G01*
X0136909Y0450984D01*
G75*
G02*
X0137303Y0451378I0000394J0000000D01*
G01*
X0142224Y0451378D01*
G75*
G02*
X0142618Y0450984I0000000J-000394D01*
G01*
X0142618Y0447835D01*
G75*
G02*
X0142224Y0447441I-000394J0000000D01*
G01*
G37*
X0139764Y0453169D03*
G36*
G01*
X0406869Y0364606D02*
X0406869Y0367677D01*
G75*
G02*
X0407145Y0367953I0000276J0000000D01*
G01*
X0409349Y0367953D01*
G75*
G02*
X0409625Y0367677I0000000J-000276D01*
G01*
X0409625Y0364606D01*
G75*
G02*
X0409349Y0364331I-000276J0000000D01*
G01*
X0407145Y0364331D01*
G75*
G02*
X0406869Y0364606I0000000J0000276D01*
G01*
G37*
G36*
G01*
X0413168Y0364606D02*
X0413168Y0367677D01*
G75*
G02*
X0413444Y0367953I0000276J0000000D01*
G01*
X0415648Y0367953D01*
G75*
G02*
X0415924Y0367677I0000000J-000276D01*
G01*
X0415924Y0364606D01*
G75*
G02*
X0415648Y0364331I-000276J0000000D01*
G01*
X0413444Y0364331D01*
G75*
G02*
X0413168Y0364606I0000000J0000276D01*
G01*
G37*
D12*
X0174213Y0084951D03*
D11*
X0164370Y0084951D03*
X0164370Y0077077D03*
X0174213Y0077077D03*
D18*
X0192992Y0066407D03*
X0145591Y0066407D03*
D11*
X0411811Y0470472D03*
X0325591Y0252362D03*
D14*
X0384252Y0412028D03*
G36*
G01*
X0381791Y0410236D02*
X0386713Y0410236D01*
G75*
G02*
X0387106Y0409843I0000000J-000394D01*
G01*
X0387106Y0406693D01*
G75*
G02*
X0386713Y0406299I-000394J0000000D01*
G01*
X0381791Y0406299D01*
G75*
G02*
X0381398Y0406693I0000000J0000394D01*
G01*
X0381398Y0409843D01*
G75*
G02*
X0381791Y0410236I0000394J0000000D01*
G01*
G37*
G36*
G01*
X0381791Y0402756D02*
X0386713Y0402756D01*
G75*
G02*
X0387106Y0402362I0000000J-000394D01*
G01*
X0387106Y0399213D01*
G75*
G02*
X0386713Y0398819I-000394J0000000D01*
G01*
X0381791Y0398819D01*
G75*
G02*
X0381398Y0399213I0000000J0000394D01*
G01*
X0381398Y0402362D01*
G75*
G02*
X0381791Y0402756I0000394J0000000D01*
G01*
G37*
X0384252Y0397028D03*
D11*
X0485433Y0041732D03*
G36*
G01*
X0447441Y0067933D02*
X0447441Y0069114D01*
G75*
G02*
X0448031Y0069705I0000591J0000000D01*
G01*
X0454528Y0069705D01*
G75*
G02*
X0455118Y0069114I0000000J-000591D01*
G01*
X0455118Y0067933D01*
G75*
G02*
X0454528Y0067343I-000591J0000000D01*
G01*
X0448031Y0067343D01*
G75*
G02*
X0447441Y0067933I0000000J0000591D01*
G01*
G37*
G36*
G01*
X0447441Y0062933D02*
X0447441Y0064114D01*
G75*
G02*
X0448031Y0064705I0000591J0000000D01*
G01*
X0454528Y0064705D01*
G75*
G02*
X0455118Y0064114I0000000J-000591D01*
G01*
X0455118Y0062933D01*
G75*
G02*
X0454528Y0062343I-000591J0000000D01*
G01*
X0448031Y0062343D01*
G75*
G02*
X0447441Y0062933I0000000J0000591D01*
G01*
G37*
G36*
G01*
X0447441Y0057933D02*
X0447441Y0059114D01*
G75*
G02*
X0448031Y0059705I0000591J0000000D01*
G01*
X0454528Y0059705D01*
G75*
G02*
X0455118Y0059114I0000000J-000591D01*
G01*
X0455118Y0057933D01*
G75*
G02*
X0454528Y0057343I-000591J0000000D01*
G01*
X0448031Y0057343D01*
G75*
G02*
X0447441Y0057933I0000000J0000591D01*
G01*
G37*
G36*
G01*
X0447441Y0052933D02*
X0447441Y0054114D01*
G75*
G02*
X0448031Y0054705I0000591J0000000D01*
G01*
X0454528Y0054705D01*
G75*
G02*
X0455118Y0054114I0000000J-000591D01*
G01*
X0455118Y0052933D01*
G75*
G02*
X0454528Y0052343I-000591J0000000D01*
G01*
X0448031Y0052343D01*
G75*
G02*
X0447441Y0052933I0000000J0000591D01*
G01*
G37*
G36*
G01*
X0466929Y0052933D02*
X0466929Y0054114D01*
G75*
G02*
X0467520Y0054705I0000591J0000000D01*
G01*
X0474016Y0054705D01*
G75*
G02*
X0474606Y0054114I0000000J-000591D01*
G01*
X0474606Y0052933D01*
G75*
G02*
X0474016Y0052343I-000591J0000000D01*
G01*
X0467520Y0052343D01*
G75*
G02*
X0466929Y0052933I0000000J0000591D01*
G01*
G37*
G36*
G01*
X0466929Y0057933D02*
X0466929Y0059114D01*
G75*
G02*
X0467520Y0059705I0000591J0000000D01*
G01*
X0474016Y0059705D01*
G75*
G02*
X0474606Y0059114I0000000J-000591D01*
G01*
X0474606Y0057933D01*
G75*
G02*
X0474016Y0057343I-000591J0000000D01*
G01*
X0467520Y0057343D01*
G75*
G02*
X0466929Y0057933I0000000J0000591D01*
G01*
G37*
G36*
G01*
X0466929Y0062933D02*
X0466929Y0064114D01*
G75*
G02*
X0467520Y0064705I0000591J0000000D01*
G01*
X0474016Y0064705D01*
G75*
G02*
X0474606Y0064114I0000000J-000591D01*
G01*
X0474606Y0062933D01*
G75*
G02*
X0474016Y0062343I-000591J0000000D01*
G01*
X0467520Y0062343D01*
G75*
G02*
X0466929Y0062933I0000000J0000591D01*
G01*
G37*
G36*
G01*
X0466929Y0067933D02*
X0466929Y0069114D01*
G75*
G02*
X0467520Y0069705I0000591J0000000D01*
G01*
X0474016Y0069705D01*
G75*
G02*
X0474606Y0069114I0000000J-000591D01*
G01*
X0474606Y0067933D01*
G75*
G02*
X0474016Y0067343I-000591J0000000D01*
G01*
X0467520Y0067343D01*
G75*
G02*
X0466929Y0067933I0000000J0000591D01*
G01*
G37*
X0458661Y0488189D03*
G36*
G01*
X0596752Y0422933D02*
X0596752Y0411713D01*
G75*
G02*
X0595768Y0410728I-000984J0000000D01*
G01*
X0592913Y0410728D01*
G75*
G02*
X0591929Y0411713I0000000J0000984D01*
G01*
X0591929Y0422933D01*
G75*
G02*
X0592913Y0423917I0000984J0000000D01*
G01*
X0595768Y0423917D01*
G75*
G02*
X0596752Y0422933I0000000J-000984D01*
G01*
G37*
G36*
G01*
X0573425Y0422933D02*
X0573425Y0411713D01*
G75*
G02*
X0572441Y0410728I-000984J0000000D01*
G01*
X0569587Y0410728D01*
G75*
G02*
X0568602Y0411713I0000000J0000984D01*
G01*
X0568602Y0422933D01*
G75*
G02*
X0569587Y0423917I0000984J0000000D01*
G01*
X0572441Y0423917D01*
G75*
G02*
X0573425Y0422933I0000000J-000984D01*
G01*
G37*
X0139370Y0299606D03*
X0292913Y0451969D03*
G36*
G01*
X0187402Y0351575D02*
X0190945Y0351575D01*
G75*
G02*
X0191339Y0351181I0000000J-000394D01*
G01*
X0191339Y0348031D01*
G75*
G02*
X0190945Y0347638I-000394J0000000D01*
G01*
X0187402Y0347638D01*
G75*
G02*
X0187008Y0348031I0000000J0000394D01*
G01*
X0187008Y0351181D01*
G75*
G02*
X0187402Y0351575I0000394J0000000D01*
G01*
G37*
G36*
G01*
X0187402Y0344882D02*
X0190945Y0344882D01*
G75*
G02*
X0191339Y0344488I0000000J-000394D01*
G01*
X0191339Y0341339D01*
G75*
G02*
X0190945Y0340945I-000394J0000000D01*
G01*
X0187402Y0340945D01*
G75*
G02*
X0187008Y0341339I0000000J0000394D01*
G01*
X0187008Y0344488D01*
G75*
G02*
X0187402Y0344882I0000394J0000000D01*
G01*
G37*
X0266142Y0270472D03*
D14*
X0183071Y0471240D03*
G36*
G01*
X0185531Y0473031D02*
X0180610Y0473031D01*
G75*
G02*
X0180217Y0473425I0000000J0000394D01*
G01*
X0180217Y0476575D01*
G75*
G02*
X0180610Y0476968I0000394J0000000D01*
G01*
X0185531Y0476968D01*
G75*
G02*
X0185925Y0476575I0000000J-000394D01*
G01*
X0185925Y0473425D01*
G75*
G02*
X0185531Y0473031I-000394J0000000D01*
G01*
G37*
X0183071Y0486240D03*
G36*
G01*
X0185531Y0480512D02*
X0180610Y0480512D01*
G75*
G02*
X0180217Y0480906I0000000J0000394D01*
G01*
X0180217Y0484055D01*
G75*
G02*
X0180610Y0484449I0000394J0000000D01*
G01*
X0185531Y0484449D01*
G75*
G02*
X0185925Y0484055I0000000J-000394D01*
G01*
X0185925Y0480906D01*
G75*
G02*
X0185531Y0480512I-000394J0000000D01*
G01*
G37*
G36*
G01*
X0258858Y0371260D02*
X0262402Y0371260D01*
G75*
G02*
X0262795Y0370866I0000000J-000394D01*
G01*
X0262795Y0367717D01*
G75*
G02*
X0262402Y0367323I-000394J0000000D01*
G01*
X0258858Y0367323D01*
G75*
G02*
X0258465Y0367717I0000000J0000394D01*
G01*
X0258465Y0370866D01*
G75*
G02*
X0258858Y0371260I0000394J0000000D01*
G01*
G37*
G36*
G01*
X0258858Y0364567D02*
X0262402Y0364567D01*
G75*
G02*
X0262795Y0364173I0000000J-000394D01*
G01*
X0262795Y0361024D01*
G75*
G02*
X0262402Y0360630I-000394J0000000D01*
G01*
X0258858Y0360630D01*
G75*
G02*
X0258465Y0361024I0000000J0000394D01*
G01*
X0258465Y0364173D01*
G75*
G02*
X0258858Y0364567I0000394J0000000D01*
G01*
G37*
D11*
X0494094Y0488189D03*
G36*
G01*
X0406869Y0374449D02*
X0406869Y0377520D01*
G75*
G02*
X0407145Y0377795I0000276J0000000D01*
G01*
X0409349Y0377795D01*
G75*
G02*
X0409625Y0377520I0000000J-000276D01*
G01*
X0409625Y0374449D01*
G75*
G02*
X0409349Y0374173I-000276J0000000D01*
G01*
X0407145Y0374173D01*
G75*
G02*
X0406869Y0374449I0000000J0000276D01*
G01*
G37*
G36*
G01*
X0413168Y0374449D02*
X0413168Y0377520D01*
G75*
G02*
X0413444Y0377795I0000276J0000000D01*
G01*
X0415648Y0377795D01*
G75*
G02*
X0415924Y0377520I0000000J-000276D01*
G01*
X0415924Y0374449D01*
G75*
G02*
X0415648Y0374173I-000276J0000000D01*
G01*
X0413444Y0374173D01*
G75*
G02*
X0413168Y0374449I0000000J0000276D01*
G01*
G37*
X0336614Y0252362D03*
G36*
G01*
X0604764Y0382480D02*
X0607835Y0382480D01*
G75*
G02*
X0608110Y0382205I0000000J-000276D01*
G01*
X0608110Y0380000D01*
G75*
G02*
X0607835Y0379724I-000276J0000000D01*
G01*
X0604764Y0379724D01*
G75*
G02*
X0604488Y0380000I0000000J0000276D01*
G01*
X0604488Y0382205D01*
G75*
G02*
X0604764Y0382480I0000276J0000000D01*
G01*
G37*
G36*
G01*
X0604764Y0376181D02*
X0607835Y0376181D01*
G75*
G02*
X0608110Y0375906I0000000J-000276D01*
G01*
X0608110Y0373701D01*
G75*
G02*
X0607835Y0373425I-000276J0000000D01*
G01*
X0604764Y0373425D01*
G75*
G02*
X0604488Y0373701I0000000J0000276D01*
G01*
X0604488Y0375906D01*
G75*
G02*
X0604764Y0376181I0000276J0000000D01*
G01*
G37*
G36*
G01*
X0267087Y0431043D02*
X0264409Y0431043D01*
G75*
G02*
X0264075Y0431378I0000000J0000335D01*
G01*
X0264075Y0434055D01*
G75*
G02*
X0264409Y0434390I0000335J0000000D01*
G01*
X0267087Y0434390D01*
G75*
G02*
X0267421Y0434055I0000000J-000335D01*
G01*
X0267421Y0431378D01*
G75*
G02*
X0267087Y0431043I-000335J0000000D01*
G01*
G37*
G36*
G01*
X0267087Y0437264D02*
X0264409Y0437264D01*
G75*
G02*
X0264075Y0437598I0000000J0000335D01*
G01*
X0264075Y0440276D01*
G75*
G02*
X0264409Y0440610I0000335J0000000D01*
G01*
X0267087Y0440610D01*
G75*
G02*
X0267421Y0440276I0000000J-000335D01*
G01*
X0267421Y0437598D01*
G75*
G02*
X0267087Y0437264I-000335J0000000D01*
G01*
G37*
G36*
G01*
X0227362Y0371260D02*
X0230906Y0371260D01*
G75*
G02*
X0231299Y0370866I0000000J-000394D01*
G01*
X0231299Y0367717D01*
G75*
G02*
X0230906Y0367323I-000394J0000000D01*
G01*
X0227362Y0367323D01*
G75*
G02*
X0226969Y0367717I0000000J0000394D01*
G01*
X0226969Y0370866D01*
G75*
G02*
X0227362Y0371260I0000394J0000000D01*
G01*
G37*
G36*
G01*
X0227362Y0364567D02*
X0230906Y0364567D01*
G75*
G02*
X0231299Y0364173I0000000J-000394D01*
G01*
X0231299Y0361024D01*
G75*
G02*
X0230906Y0360630I-000394J0000000D01*
G01*
X0227362Y0360630D01*
G75*
G02*
X0226969Y0361024I0000000J0000394D01*
G01*
X0226969Y0364173D01*
G75*
G02*
X0227362Y0364567I0000394J0000000D01*
G01*
G37*
G36*
G01*
X0154035Y0310098D02*
X0154035Y0312736D01*
G75*
G02*
X0154291Y0312992I0000256J0000000D01*
G01*
X0156339Y0312992D01*
G75*
G02*
X0156594Y0312736I0000000J-000256D01*
G01*
X0156594Y0310098D01*
G75*
G02*
X0156339Y0309843I-000256J0000000D01*
G01*
X0154291Y0309843D01*
G75*
G02*
X0154035Y0310098I0000000J0000256D01*
G01*
G37*
G36*
G01*
X0157874Y0310020D02*
X0157874Y0312815D01*
G75*
G02*
X0158051Y0312992I0000177J0000000D01*
G01*
X0159469Y0312992D01*
G75*
G02*
X0159646Y0312815I0000000J-000177D01*
G01*
X0159646Y0310020D01*
G75*
G02*
X0159469Y0309843I-000177J0000000D01*
G01*
X0158051Y0309843D01*
G75*
G02*
X0157874Y0310020I0000000J0000177D01*
G01*
G37*
G36*
G01*
X0161024Y0310020D02*
X0161024Y0312815D01*
G75*
G02*
X0161201Y0312992I0000177J0000000D01*
G01*
X0162618Y0312992D01*
G75*
G02*
X0162795Y0312815I0000000J-000177D01*
G01*
X0162795Y0310020D01*
G75*
G02*
X0162618Y0309843I-000177J0000000D01*
G01*
X0161201Y0309843D01*
G75*
G02*
X0161024Y0310020I0000000J0000177D01*
G01*
G37*
G36*
G01*
X0164075Y0310098D02*
X0164075Y0312736D01*
G75*
G02*
X0164331Y0312992I0000256J0000000D01*
G01*
X0166378Y0312992D01*
G75*
G02*
X0166634Y0312736I0000000J-000256D01*
G01*
X0166634Y0310098D01*
G75*
G02*
X0166378Y0309843I-000256J0000000D01*
G01*
X0164331Y0309843D01*
G75*
G02*
X0164075Y0310098I0000000J0000256D01*
G01*
G37*
G36*
G01*
X0164075Y0317185D02*
X0164075Y0319823D01*
G75*
G02*
X0164331Y0320079I0000256J0000000D01*
G01*
X0166378Y0320079D01*
G75*
G02*
X0166634Y0319823I0000000J-000256D01*
G01*
X0166634Y0317185D01*
G75*
G02*
X0166378Y0316929I-000256J0000000D01*
G01*
X0164331Y0316929D01*
G75*
G02*
X0164075Y0317185I0000000J0000256D01*
G01*
G37*
G36*
G01*
X0161024Y0317106D02*
X0161024Y0319902D01*
G75*
G02*
X0161201Y0320079I0000177J0000000D01*
G01*
X0162618Y0320079D01*
G75*
G02*
X0162795Y0319902I0000000J-000177D01*
G01*
X0162795Y0317106D01*
G75*
G02*
X0162618Y0316929I-000177J0000000D01*
G01*
X0161201Y0316929D01*
G75*
G02*
X0161024Y0317106I0000000J0000177D01*
G01*
G37*
G36*
G01*
X0157874Y0317106D02*
X0157874Y0319902D01*
G75*
G02*
X0158051Y0320079I0000177J0000000D01*
G01*
X0159469Y0320079D01*
G75*
G02*
X0159646Y0319902I0000000J-000177D01*
G01*
X0159646Y0317106D01*
G75*
G02*
X0159469Y0316929I-000177J0000000D01*
G01*
X0158051Y0316929D01*
G75*
G02*
X0157874Y0317106I0000000J0000177D01*
G01*
G37*
G36*
G01*
X0154035Y0317185D02*
X0154035Y0319823D01*
G75*
G02*
X0154291Y0320079I0000256J0000000D01*
G01*
X0156339Y0320079D01*
G75*
G02*
X0156594Y0319823I0000000J-000256D01*
G01*
X0156594Y0317185D01*
G75*
G02*
X0156339Y0316929I-000256J0000000D01*
G01*
X0154291Y0316929D01*
G75*
G02*
X0154035Y0317185I0000000J0000256D01*
G01*
G37*
D19*
X0174213Y0496063D03*
X0161220Y0496063D03*
G36*
G01*
X0215453Y0440354D02*
X0210531Y0440354D01*
G75*
G02*
X0210138Y0440748I0000000J0000394D01*
G01*
X0210138Y0443898D01*
G75*
G02*
X0210531Y0444291I0000394J0000000D01*
G01*
X0215453Y0444291D01*
G75*
G02*
X0215846Y0443898I0000000J-000394D01*
G01*
X0215846Y0440748D01*
G75*
G02*
X0215453Y0440354I-000394J0000000D01*
G01*
G37*
D14*
X0212992Y0438563D03*
X0212992Y0453563D03*
G36*
G01*
X0215453Y0447835D02*
X0210531Y0447835D01*
G75*
G02*
X0210138Y0448228I0000000J0000394D01*
G01*
X0210138Y0451378D01*
G75*
G02*
X0210531Y0451772I0000394J0000000D01*
G01*
X0215453Y0451772D01*
G75*
G02*
X0215846Y0451378I0000000J-000394D01*
G01*
X0215846Y0448228D01*
G75*
G02*
X0215453Y0447835I-000394J0000000D01*
G01*
G37*
D11*
X0470472Y0470472D03*
G36*
G01*
X0253740Y0371417D02*
X0253740Y0369528D01*
G75*
G02*
X0253504Y0369291I-000236J0000000D01*
G01*
X0251614Y0369291D01*
G75*
G02*
X0251378Y0369528I0000000J0000236D01*
G01*
X0251378Y0371417D01*
G75*
G02*
X0251614Y0371654I0000236J0000000D01*
G01*
X0253504Y0371654D01*
G75*
G02*
X0253740Y0371417I0000000J-000236D01*
G01*
G37*
G36*
G01*
X0253740Y0362756D02*
X0253740Y0360866D01*
G75*
G02*
X0253504Y0360630I-000236J0000000D01*
G01*
X0251614Y0360630D01*
G75*
G02*
X0251378Y0360866I0000000J0000236D01*
G01*
X0251378Y0362756D01*
G75*
G02*
X0251614Y0362992I0000236J0000000D01*
G01*
X0253504Y0362992D01*
G75*
G02*
X0253740Y0362756I0000000J-000236D01*
G01*
G37*
G36*
G01*
X0418680Y0374449D02*
X0418680Y0377520D01*
G75*
G02*
X0418956Y0377795I0000276J0000000D01*
G01*
X0421160Y0377795D01*
G75*
G02*
X0421436Y0377520I0000000J-000276D01*
G01*
X0421436Y0374449D01*
G75*
G02*
X0421160Y0374173I-000276J0000000D01*
G01*
X0418956Y0374173D01*
G75*
G02*
X0418680Y0374449I0000000J0000276D01*
G01*
G37*
G36*
G01*
X0424979Y0374449D02*
X0424979Y0377520D01*
G75*
G02*
X0425255Y0377795I0000276J0000000D01*
G01*
X0427460Y0377795D01*
G75*
G02*
X0427735Y0377520I0000000J-000276D01*
G01*
X0427735Y0374449D01*
G75*
G02*
X0427460Y0374173I-000276J0000000D01*
G01*
X0425255Y0374173D01*
G75*
G02*
X0424979Y0374449I0000000J0000276D01*
G01*
G37*
X0485433Y0030315D03*
G36*
G01*
X0596752Y0470177D02*
X0596752Y0458957D01*
G75*
G02*
X0595768Y0457972I-000984J0000000D01*
G01*
X0592913Y0457972D01*
G75*
G02*
X0591929Y0458957I0000000J0000984D01*
G01*
X0591929Y0470177D01*
G75*
G02*
X0592913Y0471161I0000984J0000000D01*
G01*
X0595768Y0471161D01*
G75*
G02*
X0596752Y0470177I0000000J-000984D01*
G01*
G37*
G36*
G01*
X0573425Y0470177D02*
X0573425Y0458957D01*
G75*
G02*
X0572441Y0457972I-000984J0000000D01*
G01*
X0569587Y0457972D01*
G75*
G02*
X0568602Y0458957I0000000J0000984D01*
G01*
X0568602Y0470177D01*
G75*
G02*
X0569587Y0471161I0000984J0000000D01*
G01*
X0572441Y0471161D01*
G75*
G02*
X0573425Y0470177I0000000J-000984D01*
G01*
G37*
G36*
G01*
X0108661Y0351575D02*
X0112205Y0351575D01*
G75*
G02*
X0112598Y0351181I0000000J-000394D01*
G01*
X0112598Y0348031D01*
G75*
G02*
X0112205Y0347638I-000394J0000000D01*
G01*
X0108661Y0347638D01*
G75*
G02*
X0108268Y0348031I0000000J0000394D01*
G01*
X0108268Y0351181D01*
G75*
G02*
X0108661Y0351575I0000394J0000000D01*
G01*
G37*
G36*
G01*
X0108661Y0344882D02*
X0112205Y0344882D01*
G75*
G02*
X0112598Y0344488I0000000J-000394D01*
G01*
X0112598Y0341339D01*
G75*
G02*
X0112205Y0340945I-000394J0000000D01*
G01*
X0108661Y0340945D01*
G75*
G02*
X0108268Y0341339I0000000J0000394D01*
G01*
X0108268Y0344488D01*
G75*
G02*
X0108661Y0344882I0000394J0000000D01*
G01*
G37*
D20*
X0230925Y0439193D03*
X0230925Y0434193D03*
X0230925Y0429193D03*
D21*
X0230925Y0424193D03*
D20*
X0253327Y0424193D03*
X0253327Y0429193D03*
X0253327Y0434193D03*
X0253327Y0439193D03*
D22*
X0239518Y0428740D03*
X0244734Y0428740D03*
D23*
X0242126Y0431693D03*
D22*
X0244734Y0434646D03*
X0239518Y0434646D03*
D11*
X0499921Y0341772D03*
X0499921Y0351772D03*
X0499921Y0361772D03*
X0499921Y0371772D03*
X0499921Y0381772D03*
X0509921Y0341772D03*
X0509921Y0351772D03*
X0509921Y0361772D03*
X0509921Y0371772D03*
X0509921Y0381772D03*
D14*
X0384252Y0388406D03*
G36*
G01*
X0381791Y0386614D02*
X0386713Y0386614D01*
G75*
G02*
X0387106Y0386220I0000000J-000394D01*
G01*
X0387106Y0383071D01*
G75*
G02*
X0386713Y0382677I-000394J0000000D01*
G01*
X0381791Y0382677D01*
G75*
G02*
X0381398Y0383071I0000000J0000394D01*
G01*
X0381398Y0386220D01*
G75*
G02*
X0381791Y0386614I0000394J0000000D01*
G01*
G37*
X0384252Y0373406D03*
G36*
G01*
X0381791Y0379134D02*
X0386713Y0379134D01*
G75*
G02*
X0387106Y0378740I0000000J-000394D01*
G01*
X0387106Y0375590D01*
G75*
G02*
X0386713Y0375197I-000394J0000000D01*
G01*
X0381791Y0375197D01*
G75*
G02*
X0381398Y0375590I0000000J0000394D01*
G01*
X0381398Y0378740D01*
G75*
G02*
X0381791Y0379134I0000394J0000000D01*
G01*
G37*
D11*
X0108661Y0468898D03*
G36*
G01*
X0381043Y0073465D02*
X0381043Y0076142D01*
G75*
G02*
X0381378Y0076476I0000335J0000000D01*
G01*
X0384055Y0076476D01*
G75*
G02*
X0384390Y0076142I0000000J-000335D01*
G01*
X0384390Y0073465D01*
G75*
G02*
X0384055Y0073130I-000335J0000000D01*
G01*
X0381378Y0073130D01*
G75*
G02*
X0381043Y0073465I0000000J0000335D01*
G01*
G37*
G36*
G01*
X0387264Y0073465D02*
X0387264Y0076142D01*
G75*
G02*
X0387598Y0076476I0000335J0000000D01*
G01*
X0390276Y0076476D01*
G75*
G02*
X0390610Y0076142I0000000J-000335D01*
G01*
X0390610Y0073465D01*
G75*
G02*
X0390276Y0073130I-000335J0000000D01*
G01*
X0387598Y0073130D01*
G75*
G02*
X0387264Y0073465I0000000J0000335D01*
G01*
G37*
X0435039Y0488189D03*
X0505906Y0488189D03*
X0505906Y0505906D03*
G36*
G01*
X0305217Y0473031D02*
X0300295Y0473031D01*
G75*
G02*
X0299902Y0473425I0000000J0000394D01*
G01*
X0299902Y0476575D01*
G75*
G02*
X0300295Y0476968I0000394J0000000D01*
G01*
X0305217Y0476968D01*
G75*
G02*
X0305610Y0476575I0000000J-000394D01*
G01*
X0305610Y0473425D01*
G75*
G02*
X0305217Y0473031I-000394J0000000D01*
G01*
G37*
D14*
X0302756Y0471240D03*
G36*
G01*
X0305217Y0480512D02*
X0300295Y0480512D01*
G75*
G02*
X0299902Y0480906I0000000J0000394D01*
G01*
X0299902Y0484055D01*
G75*
G02*
X0300295Y0484449I0000394J0000000D01*
G01*
X0305217Y0484449D01*
G75*
G02*
X0305610Y0484055I0000000J-000394D01*
G01*
X0305610Y0480906D01*
G75*
G02*
X0305217Y0480512I-000394J0000000D01*
G01*
G37*
X0302756Y0486240D03*
D11*
X0470472Y0505906D03*
G36*
G01*
X0587047Y0254528D02*
X0590118Y0254528D01*
G75*
G02*
X0590394Y0254252I0000000J-000276D01*
G01*
X0590394Y0252047D01*
G75*
G02*
X0590118Y0251772I-000276J0000000D01*
G01*
X0587047Y0251772D01*
G75*
G02*
X0586772Y0252047I0000000J0000276D01*
G01*
X0586772Y0254252D01*
G75*
G02*
X0587047Y0254528I0000276J0000000D01*
G01*
G37*
G36*
G01*
X0587047Y0248228D02*
X0590118Y0248228D01*
G75*
G02*
X0590394Y0247953I0000000J-000276D01*
G01*
X0590394Y0245748D01*
G75*
G02*
X0590118Y0245472I-000276J0000000D01*
G01*
X0587047Y0245472D01*
G75*
G02*
X0586772Y0245748I0000000J0000276D01*
G01*
X0586772Y0247953D01*
G75*
G02*
X0587047Y0248228I0000276J0000000D01*
G01*
G37*
G36*
G01*
X0402067Y0492323D02*
X0397146Y0492323D01*
G75*
G02*
X0396752Y0492717I0000000J0000394D01*
G01*
X0396752Y0495866D01*
G75*
G02*
X0397146Y0496260I0000394J0000000D01*
G01*
X0402067Y0496260D01*
G75*
G02*
X0402461Y0495866I0000000J-000394D01*
G01*
X0402461Y0492717D01*
G75*
G02*
X0402067Y0492323I-000394J0000000D01*
G01*
G37*
D14*
X0399606Y0490531D03*
X0399606Y0505531D03*
G36*
G01*
X0402067Y0499803D02*
X0397146Y0499803D01*
G75*
G02*
X0396752Y0500197I0000000J0000394D01*
G01*
X0396752Y0503347D01*
G75*
G02*
X0397146Y0503740I0000394J0000000D01*
G01*
X0402067Y0503740D01*
G75*
G02*
X0402461Y0503347I0000000J-000394D01*
G01*
X0402461Y0500197D01*
G75*
G02*
X0402067Y0499803I-000394J0000000D01*
G01*
G37*
G36*
G01*
X0418680Y0403976D02*
X0418680Y0407047D01*
G75*
G02*
X0418956Y0407323I0000276J0000000D01*
G01*
X0421160Y0407323D01*
G75*
G02*
X0421436Y0407047I0000000J-000276D01*
G01*
X0421436Y0403976D01*
G75*
G02*
X0421160Y0403701I-000276J0000000D01*
G01*
X0418956Y0403701D01*
G75*
G02*
X0418680Y0403976I0000000J0000276D01*
G01*
G37*
G36*
G01*
X0424979Y0403976D02*
X0424979Y0407047D01*
G75*
G02*
X0425255Y0407323I0000276J0000000D01*
G01*
X0427460Y0407323D01*
G75*
G02*
X0427735Y0407047I0000000J-000276D01*
G01*
X0427735Y0403976D01*
G75*
G02*
X0427460Y0403701I-000276J0000000D01*
G01*
X0425255Y0403701D01*
G75*
G02*
X0424979Y0403976I0000000J0000276D01*
G01*
G37*
G36*
G01*
X0110247Y0218454D02*
X0110247Y0213572D01*
G75*
G02*
X0109736Y0213060I-000512J0000000D01*
G01*
X0105641Y0213060D01*
G75*
G02*
X0105129Y0213572I0000000J0000512D01*
G01*
X0105129Y0218454D01*
G75*
G02*
X0105641Y0218965I0000512J0000000D01*
G01*
X0109736Y0218965D01*
G75*
G02*
X0110247Y0218454I0000000J-000512D01*
G01*
G37*
G36*
G01*
X0117728Y0218454D02*
X0117728Y0213572D01*
G75*
G02*
X0117216Y0213060I-000512J0000000D01*
G01*
X0113122Y0213060D01*
G75*
G02*
X0112610Y0213572I0000000J0000512D01*
G01*
X0112610Y0218454D01*
G75*
G02*
X0113122Y0218965I0000512J0000000D01*
G01*
X0117216Y0218965D01*
G75*
G02*
X0117728Y0218454I0000000J-000512D01*
G01*
G37*
D11*
X0139764Y0468504D03*
X0479921Y0241772D03*
X0479921Y0251772D03*
X0479921Y0261772D03*
X0479921Y0271772D03*
X0479921Y0281772D03*
X0489921Y0241772D03*
X0489921Y0251772D03*
X0489921Y0261772D03*
X0489921Y0271772D03*
X0489921Y0281772D03*
G36*
G01*
X0227603Y0499360D02*
X0229774Y0501531D01*
G75*
G02*
X0230164Y0501531I0000195J-000195D01*
G01*
X0231723Y0499972D01*
G75*
G02*
X0231723Y0499583I-000195J-000195D01*
G01*
X0229551Y0497411D01*
G75*
G02*
X0229162Y0497411I-000195J0000195D01*
G01*
X0227603Y0498970D01*
G75*
G02*
X0227603Y0499360I0000195J0000195D01*
G01*
G37*
G36*
G01*
X0232057Y0494906D02*
X0234228Y0497077D01*
G75*
G02*
X0234618Y0497077I0000195J-000195D01*
G01*
X0236177Y0495518D01*
G75*
G02*
X0236177Y0495128I-000195J-000195D01*
G01*
X0234006Y0492957D01*
G75*
G02*
X0233616Y0492957I-000195J0000195D01*
G01*
X0232057Y0494516D01*
G75*
G02*
X0232057Y0494906I0000195J0000195D01*
G01*
G37*
X0535433Y0078740D03*
X0222441Y0457087D03*
X0494094Y0470472D03*
D24*
X0528346Y0249409D03*
X0528346Y0262402D03*
D11*
X0120079Y0486220D03*
G36*
G01*
X0418680Y0413819D02*
X0418680Y0416890D01*
G75*
G02*
X0418956Y0417165I0000276J0000000D01*
G01*
X0421160Y0417165D01*
G75*
G02*
X0421436Y0416890I0000000J-000276D01*
G01*
X0421436Y0413819D01*
G75*
G02*
X0421160Y0413543I-000276J0000000D01*
G01*
X0418956Y0413543D01*
G75*
G02*
X0418680Y0413819I0000000J0000276D01*
G01*
G37*
G36*
G01*
X0424979Y0413819D02*
X0424979Y0416890D01*
G75*
G02*
X0425255Y0417165I0000276J0000000D01*
G01*
X0427460Y0417165D01*
G75*
G02*
X0427735Y0416890I0000000J-000276D01*
G01*
X0427735Y0413819D01*
G75*
G02*
X0427460Y0413543I-000276J0000000D01*
G01*
X0425255Y0413543D01*
G75*
G02*
X0424979Y0413819I0000000J0000276D01*
G01*
G37*
G36*
G01*
X0279331Y0371417D02*
X0279331Y0369528D01*
G75*
G02*
X0279094Y0369291I-000236J0000000D01*
G01*
X0277205Y0369291D01*
G75*
G02*
X0276969Y0369528I0000000J0000236D01*
G01*
X0276969Y0371417D01*
G75*
G02*
X0277205Y0371654I0000236J0000000D01*
G01*
X0279094Y0371654D01*
G75*
G02*
X0279331Y0371417I0000000J-000236D01*
G01*
G37*
G36*
G01*
X0279331Y0362756D02*
X0279331Y0360866D01*
G75*
G02*
X0279094Y0360630I-000236J0000000D01*
G01*
X0277205Y0360630D01*
G75*
G02*
X0276969Y0360866I0000000J0000236D01*
G01*
X0276969Y0362756D01*
G75*
G02*
X0277205Y0362992I0000236J0000000D01*
G01*
X0279094Y0362992D01*
G75*
G02*
X0279331Y0362756I0000000J-000236D01*
G01*
G37*
X0151181Y0299606D03*
G36*
G01*
X0195374Y0445866D02*
X0190453Y0445866D01*
G75*
G02*
X0190059Y0446260I0000000J0000394D01*
G01*
X0190059Y0449409D01*
G75*
G02*
X0190453Y0449803I0000394J0000000D01*
G01*
X0195374Y0449803D01*
G75*
G02*
X0195768Y0449409I0000000J-000394D01*
G01*
X0195768Y0446260D01*
G75*
G02*
X0195374Y0445866I-000394J0000000D01*
G01*
G37*
D14*
X0192913Y0444075D03*
G36*
G01*
X0195374Y0453347D02*
X0190453Y0453347D01*
G75*
G02*
X0190059Y0453740I0000000J0000394D01*
G01*
X0190059Y0456890D01*
G75*
G02*
X0190453Y0457284I0000394J0000000D01*
G01*
X0195374Y0457284D01*
G75*
G02*
X0195768Y0456890I0000000J-000394D01*
G01*
X0195768Y0453740D01*
G75*
G02*
X0195374Y0453347I-000394J0000000D01*
G01*
G37*
X0192913Y0459075D03*
X0340551Y0471220D03*
G36*
G01*
X0343012Y0473012D02*
X0338091Y0473012D01*
G75*
G02*
X0337697Y0473406I0000000J0000394D01*
G01*
X0337697Y0476555D01*
G75*
G02*
X0338091Y0476949I0000394J0000000D01*
G01*
X0343012Y0476949D01*
G75*
G02*
X0343406Y0476555I0000000J-000394D01*
G01*
X0343406Y0473406D01*
G75*
G02*
X0343012Y0473012I-000394J0000000D01*
G01*
G37*
G36*
G01*
X0343012Y0480492D02*
X0338091Y0480492D01*
G75*
G02*
X0337697Y0480886I0000000J0000394D01*
G01*
X0337697Y0484036D01*
G75*
G02*
X0338091Y0484429I0000394J0000000D01*
G01*
X0343012Y0484429D01*
G75*
G02*
X0343406Y0484036I0000000J-000394D01*
G01*
X0343406Y0480886D01*
G75*
G02*
X0343012Y0480492I-000394J0000000D01*
G01*
G37*
X0340551Y0486220D03*
G36*
G01*
X0154035Y0439961D02*
X0149114Y0439961D01*
G75*
G02*
X0148720Y0440354I0000000J0000394D01*
G01*
X0148720Y0443504D01*
G75*
G02*
X0149114Y0443898I0000394J0000000D01*
G01*
X0154035Y0443898D01*
G75*
G02*
X0154429Y0443504I0000000J-000394D01*
G01*
X0154429Y0440354D01*
G75*
G02*
X0154035Y0439961I-000394J0000000D01*
G01*
G37*
X0151575Y0438169D03*
G36*
G01*
X0154035Y0447441D02*
X0149114Y0447441D01*
G75*
G02*
X0148720Y0447835I0000000J0000394D01*
G01*
X0148720Y0450984D01*
G75*
G02*
X0149114Y0451378I0000394J0000000D01*
G01*
X0154035Y0451378D01*
G75*
G02*
X0154429Y0450984I0000000J-000394D01*
G01*
X0154429Y0447835D01*
G75*
G02*
X0154035Y0447441I-000394J0000000D01*
G01*
G37*
X0151575Y0453169D03*
G36*
G01*
X0221850Y0343799D02*
X0220669Y0343799D01*
G75*
G02*
X0220079Y0344390I0000000J0000591D01*
G01*
X0220079Y0349016D01*
G75*
G02*
X0220669Y0349606I0000591J0000000D01*
G01*
X0221850Y0349606D01*
G75*
G02*
X0222441Y0349016I0000000J-000591D01*
G01*
X0222441Y0344390D01*
G75*
G02*
X0221850Y0343799I-000591J0000000D01*
G01*
G37*
G36*
G01*
X0225591Y0351181D02*
X0224409Y0351181D01*
G75*
G02*
X0223819Y0351772I0000000J0000591D01*
G01*
X0223819Y0356398D01*
G75*
G02*
X0224409Y0356988I0000591J0000000D01*
G01*
X0225591Y0356988D01*
G75*
G02*
X0226181Y0356398I0000000J-000591D01*
G01*
X0226181Y0351772D01*
G75*
G02*
X0225591Y0351181I-000591J0000000D01*
G01*
G37*
G36*
G01*
X0229331Y0343799D02*
X0228150Y0343799D01*
G75*
G02*
X0227559Y0344390I0000000J0000591D01*
G01*
X0227559Y0349016D01*
G75*
G02*
X0228150Y0349606I0000591J0000000D01*
G01*
X0229331Y0349606D01*
G75*
G02*
X0229921Y0349016I0000000J-000591D01*
G01*
X0229921Y0344390D01*
G75*
G02*
X0229331Y0343799I-000591J0000000D01*
G01*
G37*
D11*
X0163386Y0486220D03*
D15*
X0595669Y0384724D03*
D16*
X0570866Y0393701D03*
D15*
X0595669Y0402677D03*
G36*
G01*
X0418680Y0364606D02*
X0418680Y0367677D01*
G75*
G02*
X0418956Y0367953I0000276J0000000D01*
G01*
X0421160Y0367953D01*
G75*
G02*
X0421436Y0367677I0000000J-000276D01*
G01*
X0421436Y0364606D01*
G75*
G02*
X0421160Y0364331I-000276J0000000D01*
G01*
X0418956Y0364331D01*
G75*
G02*
X0418680Y0364606I0000000J0000276D01*
G01*
G37*
G36*
G01*
X0424979Y0364606D02*
X0424979Y0367677D01*
G75*
G02*
X0425255Y0367953I0000276J0000000D01*
G01*
X0427460Y0367953D01*
G75*
G02*
X0427735Y0367677I0000000J-000276D01*
G01*
X0427735Y0364606D01*
G75*
G02*
X0427460Y0364331I-000276J0000000D01*
G01*
X0425255Y0364331D01*
G75*
G02*
X0424979Y0364606I0000000J0000276D01*
G01*
G37*
D11*
X0446850Y0470472D03*
D17*
X0111429Y0196328D03*
G36*
G01*
X0272717Y0367520D02*
X0267835Y0367520D01*
G75*
G02*
X0267323Y0368031I0000000J0000512D01*
G01*
X0267323Y0372126D01*
G75*
G02*
X0267835Y0372638I0000512J0000000D01*
G01*
X0272717Y0372638D01*
G75*
G02*
X0273228Y0372126I0000000J-000512D01*
G01*
X0273228Y0368031D01*
G75*
G02*
X0272717Y0367520I-000512J0000000D01*
G01*
G37*
G36*
G01*
X0272717Y0360039D02*
X0267835Y0360039D01*
G75*
G02*
X0267323Y0360551I0000000J0000512D01*
G01*
X0267323Y0364646D01*
G75*
G02*
X0267835Y0365157I0000512J0000000D01*
G01*
X0272717Y0365157D01*
G75*
G02*
X0273228Y0364646I0000000J-000512D01*
G01*
X0273228Y0360551D01*
G75*
G02*
X0272717Y0360039I-000512J0000000D01*
G01*
G37*
D11*
X0517717Y0505906D03*
G36*
G01*
X0406869Y0413819D02*
X0406869Y0416890D01*
G75*
G02*
X0407145Y0417165I0000276J0000000D01*
G01*
X0409349Y0417165D01*
G75*
G02*
X0409625Y0416890I0000000J-000276D01*
G01*
X0409625Y0413819D01*
G75*
G02*
X0409349Y0413543I-000276J0000000D01*
G01*
X0407145Y0413543D01*
G75*
G02*
X0406869Y0413819I0000000J0000276D01*
G01*
G37*
G36*
G01*
X0413168Y0413819D02*
X0413168Y0416890D01*
G75*
G02*
X0413444Y0417165I0000276J0000000D01*
G01*
X0415648Y0417165D01*
G75*
G02*
X0415924Y0416890I0000000J-000276D01*
G01*
X0415924Y0413819D01*
G75*
G02*
X0415648Y0413543I-000276J0000000D01*
G01*
X0413444Y0413543D01*
G75*
G02*
X0413168Y0413819I0000000J0000276D01*
G01*
G37*
G36*
G01*
X0418680Y0384291D02*
X0418680Y0387362D01*
G75*
G02*
X0418956Y0387638I0000276J0000000D01*
G01*
X0421160Y0387638D01*
G75*
G02*
X0421436Y0387362I0000000J-000276D01*
G01*
X0421436Y0384291D01*
G75*
G02*
X0421160Y0384016I-000276J0000000D01*
G01*
X0418956Y0384016D01*
G75*
G02*
X0418680Y0384291I0000000J0000276D01*
G01*
G37*
G36*
G01*
X0424979Y0384291D02*
X0424979Y0387362D01*
G75*
G02*
X0425255Y0387638I0000276J0000000D01*
G01*
X0427460Y0387638D01*
G75*
G02*
X0427735Y0387362I0000000J-000276D01*
G01*
X0427735Y0384291D01*
G75*
G02*
X0427460Y0384016I-000276J0000000D01*
G01*
X0425255Y0384016D01*
G75*
G02*
X0424979Y0384291I0000000J0000276D01*
G01*
G37*
X0535433Y0061024D03*
X0108268Y0248031D03*
D17*
X0111429Y0164832D03*
G36*
G01*
X0211024Y0351575D02*
X0214567Y0351575D01*
G75*
G02*
X0214961Y0351181I0000000J-000394D01*
G01*
X0214961Y0348031D01*
G75*
G02*
X0214567Y0347638I-000394J0000000D01*
G01*
X0211024Y0347638D01*
G75*
G02*
X0210630Y0348031I0000000J0000394D01*
G01*
X0210630Y0351181D01*
G75*
G02*
X0211024Y0351575I0000394J0000000D01*
G01*
G37*
G36*
G01*
X0211024Y0344882D02*
X0214567Y0344882D01*
G75*
G02*
X0214961Y0344488I0000000J-000394D01*
G01*
X0214961Y0341339D01*
G75*
G02*
X0214567Y0340945I-000394J0000000D01*
G01*
X0211024Y0340945D01*
G75*
G02*
X0210630Y0341339I0000000J0000394D01*
G01*
X0210630Y0344488D01*
G75*
G02*
X0211024Y0344882I0000394J0000000D01*
G01*
G37*
G36*
G01*
X0561811Y0041732D02*
X0561811Y0045276D01*
G75*
G02*
X0562205Y0045669I0000394J0000000D01*
G01*
X0565354Y0045669D01*
G75*
G02*
X0565748Y0045276I0000000J-000394D01*
G01*
X0565748Y0041732D01*
G75*
G02*
X0565354Y0041339I-000394J0000000D01*
G01*
X0562205Y0041339D01*
G75*
G02*
X0561811Y0041732I0000000J0000394D01*
G01*
G37*
G36*
G01*
X0568504Y0041732D02*
X0568504Y0045276D01*
G75*
G02*
X0568898Y0045669I0000394J0000000D01*
G01*
X0572047Y0045669D01*
G75*
G02*
X0572441Y0045276I0000000J-000394D01*
G01*
X0572441Y0041732D01*
G75*
G02*
X0572047Y0041339I-000394J0000000D01*
G01*
X0568898Y0041339D01*
G75*
G02*
X0568504Y0041732I0000000J0000394D01*
G01*
G37*
D11*
X0479921Y0391772D03*
X0479921Y0401772D03*
X0479921Y0411772D03*
X0479921Y0421772D03*
X0479921Y0431772D03*
X0489921Y0391772D03*
X0489921Y0401772D03*
X0489921Y0411772D03*
X0489921Y0421772D03*
X0489921Y0431772D03*
G36*
G01*
X0386220Y0435433D02*
X0382480Y0435433D01*
G75*
G02*
X0381496Y0436417I0000000J0000984D01*
G01*
X0381496Y0438386D01*
G75*
G02*
X0382480Y0439370I0000984J0000000D01*
G01*
X0386220Y0439370D01*
G75*
G02*
X0387205Y0438386I0000000J-000984D01*
G01*
X0387205Y0436417D01*
G75*
G02*
X0386220Y0435433I-000984J0000000D01*
G01*
G37*
G36*
G01*
X0386220Y0442913D02*
X0382480Y0442913D01*
G75*
G02*
X0381496Y0443898I0000000J0000984D01*
G01*
X0381496Y0445866D01*
G75*
G02*
X0382480Y0446850I0000984J0000000D01*
G01*
X0386220Y0446850D01*
G75*
G02*
X0387205Y0445866I0000000J-000984D01*
G01*
X0387205Y0443898D01*
G75*
G02*
X0386220Y0442913I-000984J0000000D01*
G01*
G37*
G36*
G01*
X0528189Y0091732D02*
X0530079Y0091732D01*
G75*
G02*
X0530315Y0091496I0000000J-000236D01*
G01*
X0530315Y0089606D01*
G75*
G02*
X0530079Y0089370I-000236J0000000D01*
G01*
X0528189Y0089370D01*
G75*
G02*
X0527953Y0089606I0000000J0000236D01*
G01*
X0527953Y0091496D01*
G75*
G02*
X0528189Y0091732I0000236J0000000D01*
G01*
G37*
G36*
G01*
X0536850Y0091732D02*
X0538740Y0091732D01*
G75*
G02*
X0538976Y0091496I0000000J-000236D01*
G01*
X0538976Y0089606D01*
G75*
G02*
X0538740Y0089370I-000236J0000000D01*
G01*
X0536850Y0089370D01*
G75*
G02*
X0536614Y0089606I0000000J0000236D01*
G01*
X0536614Y0091496D01*
G75*
G02*
X0536850Y0091732I0000236J0000000D01*
G01*
G37*
G36*
G01*
X0268740Y0354921D02*
X0271811Y0354921D01*
G75*
G02*
X0272087Y0354646I0000000J-000276D01*
G01*
X0272087Y0352441D01*
G75*
G02*
X0271811Y0352165I-000276J0000000D01*
G01*
X0268740Y0352165D01*
G75*
G02*
X0268465Y0352441I0000000J0000276D01*
G01*
X0268465Y0354646D01*
G75*
G02*
X0268740Y0354921I0000276J0000000D01*
G01*
G37*
G36*
G01*
X0268740Y0348622D02*
X0271811Y0348622D01*
G75*
G02*
X0272087Y0348346I0000000J-000276D01*
G01*
X0272087Y0346142D01*
G75*
G02*
X0271811Y0345866I-000276J0000000D01*
G01*
X0268740Y0345866D01*
G75*
G02*
X0268465Y0346142I0000000J0000276D01*
G01*
X0268465Y0348346D01*
G75*
G02*
X0268740Y0348622I0000276J0000000D01*
G01*
G37*
X0479921Y0291772D03*
X0479921Y0301772D03*
X0479921Y0311772D03*
X0479921Y0321772D03*
X0479921Y0331772D03*
X0489921Y0291772D03*
X0489921Y0301772D03*
X0489921Y0311772D03*
X0489921Y0321772D03*
X0489921Y0331772D03*
D19*
X0124016Y0496063D03*
X0137008Y0496063D03*
G36*
G01*
X0257874Y0071181D02*
X0257874Y0078425D01*
G75*
G02*
X0258189Y0078740I0000315J0000000D01*
G01*
X0260709Y0078740D01*
G75*
G02*
X0261024Y0078425I0000000J-000315D01*
G01*
X0261024Y0071181D01*
G75*
G02*
X0260709Y0070866I-000315J0000000D01*
G01*
X0258189Y0070866D01*
G75*
G02*
X0257874Y0071181I0000000J0000315D01*
G01*
G37*
G36*
G01*
X0274409Y0071181D02*
X0274409Y0078425D01*
G75*
G02*
X0274724Y0078740I0000315J0000000D01*
G01*
X0277244Y0078740D01*
G75*
G02*
X0277559Y0078425I0000000J-000315D01*
G01*
X0277559Y0071181D01*
G75*
G02*
X0277244Y0070866I-000315J0000000D01*
G01*
X0274724Y0070866D01*
G75*
G02*
X0274409Y0071181I0000000J0000315D01*
G01*
G37*
G36*
G01*
X0229626Y0454134D02*
X0229626Y0454724D01*
G75*
G02*
X0229921Y0455020I0000295J0000000D01*
G01*
X0232677Y0455020D01*
G75*
G02*
X0232972Y0454724I0000000J-000295D01*
G01*
X0232972Y0454134D01*
G75*
G02*
X0232677Y0453839I-000295J0000000D01*
G01*
X0229921Y0453839D01*
G75*
G02*
X0229626Y0454134I0000000J0000295D01*
G01*
G37*
G36*
G01*
X0229626Y0451575D02*
X0229626Y0452165D01*
G75*
G02*
X0229921Y0452461I0000295J0000000D01*
G01*
X0232677Y0452461D01*
G75*
G02*
X0232972Y0452165I0000000J-000295D01*
G01*
X0232972Y0451575D01*
G75*
G02*
X0232677Y0451280I-000295J0000000D01*
G01*
X0229921Y0451280D01*
G75*
G02*
X0229626Y0451575I0000000J0000295D01*
G01*
G37*
G36*
G01*
X0229626Y0449016D02*
X0229626Y0449606D01*
G75*
G02*
X0229921Y0449902I0000295J0000000D01*
G01*
X0232677Y0449902D01*
G75*
G02*
X0232972Y0449606I0000000J-000295D01*
G01*
X0232972Y0449016D01*
G75*
G02*
X0232677Y0448720I-000295J0000000D01*
G01*
X0229921Y0448720D01*
G75*
G02*
X0229626Y0449016I0000000J0000295D01*
G01*
G37*
G36*
G01*
X0229626Y0446457D02*
X0229626Y0447047D01*
G75*
G02*
X0229921Y0447343I0000295J0000000D01*
G01*
X0232677Y0447343D01*
G75*
G02*
X0232972Y0447047I0000000J-000295D01*
G01*
X0232972Y0446457D01*
G75*
G02*
X0232677Y0446161I-000295J0000000D01*
G01*
X0229921Y0446161D01*
G75*
G02*
X0229626Y0446457I0000000J0000295D01*
G01*
G37*
G36*
G01*
X0241043Y0446457D02*
X0241043Y0447047D01*
G75*
G02*
X0241339Y0447343I0000295J0000000D01*
G01*
X0244094Y0447343D01*
G75*
G02*
X0244390Y0447047I0000000J-000295D01*
G01*
X0244390Y0446457D01*
G75*
G02*
X0244094Y0446161I-000295J0000000D01*
G01*
X0241339Y0446161D01*
G75*
G02*
X0241043Y0446457I0000000J0000295D01*
G01*
G37*
G36*
G01*
X0241043Y0449016D02*
X0241043Y0449606D01*
G75*
G02*
X0241339Y0449902I0000295J0000000D01*
G01*
X0244094Y0449902D01*
G75*
G02*
X0244390Y0449606I0000000J-000295D01*
G01*
X0244390Y0449016D01*
G75*
G02*
X0244094Y0448720I-000295J0000000D01*
G01*
X0241339Y0448720D01*
G75*
G02*
X0241043Y0449016I0000000J0000295D01*
G01*
G37*
G36*
G01*
X0241043Y0451575D02*
X0241043Y0452165D01*
G75*
G02*
X0241339Y0452461I0000295J0000000D01*
G01*
X0244094Y0452461D01*
G75*
G02*
X0244390Y0452165I0000000J-000295D01*
G01*
X0244390Y0451575D01*
G75*
G02*
X0244094Y0451280I-000295J0000000D01*
G01*
X0241339Y0451280D01*
G75*
G02*
X0241043Y0451575I0000000J0000295D01*
G01*
G37*
G36*
G01*
X0241043Y0454134D02*
X0241043Y0454724D01*
G75*
G02*
X0241339Y0455020I0000295J0000000D01*
G01*
X0244094Y0455020D01*
G75*
G02*
X0244390Y0454724I0000000J-000295D01*
G01*
X0244390Y0454134D01*
G75*
G02*
X0244094Y0453839I-000295J0000000D01*
G01*
X0241339Y0453839D01*
G75*
G02*
X0241043Y0454134I0000000J0000295D01*
G01*
G37*
D25*
X0237008Y0450591D03*
D11*
X0163386Y0468504D03*
D26*
X0533465Y0498189D03*
X0533465Y0478189D03*
G36*
G01*
X0589508Y0038976D02*
X0586870Y0038976D01*
G75*
G02*
X0586614Y0039232I0000000J0000256D01*
G01*
X0586614Y0041280D01*
G75*
G02*
X0586870Y0041535I0000256J0000000D01*
G01*
X0589508Y0041535D01*
G75*
G02*
X0589764Y0041280I0000000J-000256D01*
G01*
X0589764Y0039232D01*
G75*
G02*
X0589508Y0038976I-000256J0000000D01*
G01*
G37*
G36*
G01*
X0589587Y0042815D02*
X0586791Y0042815D01*
G75*
G02*
X0586614Y0042992I0000000J0000177D01*
G01*
X0586614Y0044409D01*
G75*
G02*
X0586791Y0044587I0000177J0000000D01*
G01*
X0589587Y0044587D01*
G75*
G02*
X0589764Y0044409I0000000J-000177D01*
G01*
X0589764Y0042992D01*
G75*
G02*
X0589587Y0042815I-000177J0000000D01*
G01*
G37*
G36*
G01*
X0589587Y0045965D02*
X0586791Y0045965D01*
G75*
G02*
X0586614Y0046142I0000000J0000177D01*
G01*
X0586614Y0047559D01*
G75*
G02*
X0586791Y0047736I0000177J0000000D01*
G01*
X0589587Y0047736D01*
G75*
G02*
X0589764Y0047559I0000000J-000177D01*
G01*
X0589764Y0046142D01*
G75*
G02*
X0589587Y0045965I-000177J0000000D01*
G01*
G37*
G36*
G01*
X0589508Y0049016D02*
X0586870Y0049016D01*
G75*
G02*
X0586614Y0049272I0000000J0000256D01*
G01*
X0586614Y0051319D01*
G75*
G02*
X0586870Y0051575I0000256J0000000D01*
G01*
X0589508Y0051575D01*
G75*
G02*
X0589764Y0051319I0000000J-000256D01*
G01*
X0589764Y0049272D01*
G75*
G02*
X0589508Y0049016I-000256J0000000D01*
G01*
G37*
G36*
G01*
X0582421Y0049016D02*
X0579783Y0049016D01*
G75*
G02*
X0579528Y0049272I0000000J0000256D01*
G01*
X0579528Y0051319D01*
G75*
G02*
X0579783Y0051575I0000256J0000000D01*
G01*
X0582421Y0051575D01*
G75*
G02*
X0582677Y0051319I0000000J-000256D01*
G01*
X0582677Y0049272D01*
G75*
G02*
X0582421Y0049016I-000256J0000000D01*
G01*
G37*
G36*
G01*
X0582500Y0045965D02*
X0579705Y0045965D01*
G75*
G02*
X0579528Y0046142I0000000J0000177D01*
G01*
X0579528Y0047559D01*
G75*
G02*
X0579705Y0047736I0000177J0000000D01*
G01*
X0582500Y0047736D01*
G75*
G02*
X0582677Y0047559I0000000J-000177D01*
G01*
X0582677Y0046142D01*
G75*
G02*
X0582500Y0045965I-000177J0000000D01*
G01*
G37*
G36*
G01*
X0582500Y0042815D02*
X0579705Y0042815D01*
G75*
G02*
X0579528Y0042992I0000000J0000177D01*
G01*
X0579528Y0044409D01*
G75*
G02*
X0579705Y0044587I0000177J0000000D01*
G01*
X0582500Y0044587D01*
G75*
G02*
X0582677Y0044409I0000000J-000177D01*
G01*
X0582677Y0042992D01*
G75*
G02*
X0582500Y0042815I-000177J0000000D01*
G01*
G37*
G36*
G01*
X0582421Y0038976D02*
X0579783Y0038976D01*
G75*
G02*
X0579528Y0039232I0000000J0000256D01*
G01*
X0579528Y0041280D01*
G75*
G02*
X0579783Y0041535I0000256J0000000D01*
G01*
X0582421Y0041535D01*
G75*
G02*
X0582677Y0041280I0000000J-000256D01*
G01*
X0582677Y0039232D01*
G75*
G02*
X0582421Y0038976I-000256J0000000D01*
G01*
G37*
D14*
X0232283Y0471240D03*
G36*
G01*
X0234744Y0473031D02*
X0229823Y0473031D01*
G75*
G02*
X0229429Y0473425I0000000J0000394D01*
G01*
X0229429Y0476575D01*
G75*
G02*
X0229823Y0476968I0000394J0000000D01*
G01*
X0234744Y0476968D01*
G75*
G02*
X0235138Y0476575I0000000J-000394D01*
G01*
X0235138Y0473425D01*
G75*
G02*
X0234744Y0473031I-000394J0000000D01*
G01*
G37*
G36*
G01*
X0234744Y0480512D02*
X0229823Y0480512D01*
G75*
G02*
X0229429Y0480906I0000000J0000394D01*
G01*
X0229429Y0484055D01*
G75*
G02*
X0229823Y0484449I0000394J0000000D01*
G01*
X0234744Y0484449D01*
G75*
G02*
X0235138Y0484055I0000000J-000394D01*
G01*
X0235138Y0480906D01*
G75*
G02*
X0234744Y0480512I-000394J0000000D01*
G01*
G37*
X0232283Y0486240D03*
D26*
X0533465Y0403701D03*
X0533465Y0383701D03*
G36*
G01*
X0406869Y0403976D02*
X0406869Y0407047D01*
G75*
G02*
X0407145Y0407323I0000276J0000000D01*
G01*
X0409349Y0407323D01*
G75*
G02*
X0409625Y0407047I0000000J-000276D01*
G01*
X0409625Y0403976D01*
G75*
G02*
X0409349Y0403701I-000276J0000000D01*
G01*
X0407145Y0403701D01*
G75*
G02*
X0406869Y0403976I0000000J0000276D01*
G01*
G37*
G36*
G01*
X0413168Y0403976D02*
X0413168Y0407047D01*
G75*
G02*
X0413444Y0407323I0000276J0000000D01*
G01*
X0415648Y0407323D01*
G75*
G02*
X0415924Y0407047I0000000J-000276D01*
G01*
X0415924Y0403976D01*
G75*
G02*
X0415648Y0403701I-000276J0000000D01*
G01*
X0413444Y0403701D01*
G75*
G02*
X0413168Y0403976I0000000J0000276D01*
G01*
G37*
D15*
X0577559Y0217402D03*
D16*
X0552756Y0226378D03*
D15*
X0577559Y0235354D03*
D30*
X0226476Y0406557D03*
X0255118Y0408946D03*
X0255118Y0405600D03*
X0255118Y0402253D03*
X0255118Y0398907D03*
X0260823Y0411353D03*
X0222047Y0398907D03*
X0222047Y0404419D03*
X0222047Y0408651D03*
X0222047Y0414163D03*
D14*
X0173228Y0444075D03*
G36*
G01*
X0175689Y0445866D02*
X0170768Y0445866D01*
G75*
G02*
X0170374Y0446260I0000000J0000394D01*
G01*
X0170374Y0449409D01*
G75*
G02*
X0170768Y0449803I0000394J0000000D01*
G01*
X0175689Y0449803D01*
G75*
G02*
X0176083Y0449409I0000000J-000394D01*
G01*
X0176083Y0446260D01*
G75*
G02*
X0175689Y0445866I-000394J0000000D01*
G01*
G37*
X0173228Y0459075D03*
G36*
G01*
X0175689Y0453347D02*
X0170768Y0453347D01*
G75*
G02*
X0170374Y0453740I0000000J0000394D01*
G01*
X0170374Y0456890D01*
G75*
G02*
X0170768Y0457284I0000394J0000000D01*
G01*
X0175689Y0457284D01*
G75*
G02*
X0176083Y0456890I0000000J-000394D01*
G01*
X0176083Y0453740D01*
G75*
G02*
X0175689Y0453347I-000394J0000000D01*
G01*
G37*
G36*
G01*
X0175689Y0473031D02*
X0170768Y0473031D01*
G75*
G02*
X0170374Y0473425I0000000J0000394D01*
G01*
X0170374Y0476575D01*
G75*
G02*
X0170768Y0476968I0000394J0000000D01*
G01*
X0175689Y0476968D01*
G75*
G02*
X0176083Y0476575I0000000J-000394D01*
G01*
X0176083Y0473425D01*
G75*
G02*
X0175689Y0473031I-000394J0000000D01*
G01*
G37*
X0173228Y0471240D03*
X0173228Y0486240D03*
G36*
G01*
X0175689Y0480512D02*
X0170768Y0480512D01*
G75*
G02*
X0170374Y0480906I0000000J0000394D01*
G01*
X0170374Y0484055D01*
G75*
G02*
X0170768Y0484449I0000394J0000000D01*
G01*
X0175689Y0484449D01*
G75*
G02*
X0176083Y0484055I0000000J-000394D01*
G01*
X0176083Y0480906D01*
G75*
G02*
X0175689Y0480512I-000394J0000000D01*
G01*
G37*
G36*
G01*
X0319291Y0480728D02*
X0319291Y0483445D01*
G75*
G02*
X0320197Y0484350I0000906J0000000D01*
G01*
X0325472Y0484350D01*
G75*
G02*
X0326378Y0483445I0000000J-000906D01*
G01*
X0326378Y0480728D01*
G75*
G02*
X0325472Y0479823I-000906J0000000D01*
G01*
X0320197Y0479823D01*
G75*
G02*
X0319291Y0480728I0000000J0000906D01*
G01*
G37*
X0322835Y0486024D03*
G36*
G01*
X0319291Y0469311D02*
X0319291Y0472028D01*
G75*
G02*
X0320197Y0472933I0000906J0000000D01*
G01*
X0325472Y0472933D01*
G75*
G02*
X0326378Y0472028I0000000J-000906D01*
G01*
X0326378Y0469311D01*
G75*
G02*
X0325472Y0468405I-000906J0000000D01*
G01*
X0320197Y0468405D01*
G75*
G02*
X0319291Y0469311I0000000J0000906D01*
G01*
G37*
X0322835Y0466732D03*
G36*
G01*
X0165748Y0351575D02*
X0169291Y0351575D01*
G75*
G02*
X0169685Y0351181I0000000J-000394D01*
G01*
X0169685Y0348031D01*
G75*
G02*
X0169291Y0347638I-000394J0000000D01*
G01*
X0165748Y0347638D01*
G75*
G02*
X0165354Y0348031I0000000J0000394D01*
G01*
X0165354Y0351181D01*
G75*
G02*
X0165748Y0351575I0000394J0000000D01*
G01*
G37*
G36*
G01*
X0165748Y0344882D02*
X0169291Y0344882D01*
G75*
G02*
X0169685Y0344488I0000000J-000394D01*
G01*
X0169685Y0341339D01*
G75*
G02*
X0169291Y0340945I-000394J0000000D01*
G01*
X0165748Y0340945D01*
G75*
G02*
X0165354Y0341339I0000000J0000394D01*
G01*
X0165354Y0344488D01*
G75*
G02*
X0165748Y0344882I0000394J0000000D01*
G01*
G37*
G36*
G01*
X0203150Y0351575D02*
X0206693Y0351575D01*
G75*
G02*
X0207087Y0351181I0000000J-000394D01*
G01*
X0207087Y0348031D01*
G75*
G02*
X0206693Y0347638I-000394J0000000D01*
G01*
X0203150Y0347638D01*
G75*
G02*
X0202756Y0348031I0000000J0000394D01*
G01*
X0202756Y0351181D01*
G75*
G02*
X0203150Y0351575I0000394J0000000D01*
G01*
G37*
G36*
G01*
X0203150Y0344882D02*
X0206693Y0344882D01*
G75*
G02*
X0207087Y0344488I0000000J-000394D01*
G01*
X0207087Y0341339D01*
G75*
G02*
X0206693Y0340945I-000394J0000000D01*
G01*
X0203150Y0340945D01*
G75*
G02*
X0202756Y0341339I0000000J0000394D01*
G01*
X0202756Y0344488D01*
G75*
G02*
X0203150Y0344882I0000394J0000000D01*
G01*
G37*
G36*
G01*
X0150000Y0351575D02*
X0153543Y0351575D01*
G75*
G02*
X0153937Y0351181I0000000J-000394D01*
G01*
X0153937Y0348031D01*
G75*
G02*
X0153543Y0347638I-000394J0000000D01*
G01*
X0150000Y0347638D01*
G75*
G02*
X0149606Y0348031I0000000J0000394D01*
G01*
X0149606Y0351181D01*
G75*
G02*
X0150000Y0351575I0000394J0000000D01*
G01*
G37*
G36*
G01*
X0150000Y0344882D02*
X0153543Y0344882D01*
G75*
G02*
X0153937Y0344488I0000000J-000394D01*
G01*
X0153937Y0341339D01*
G75*
G02*
X0153543Y0340945I-000394J0000000D01*
G01*
X0150000Y0340945D01*
G75*
G02*
X0149606Y0341339I0000000J0000394D01*
G01*
X0149606Y0344488D01*
G75*
G02*
X0150000Y0344882I0000394J0000000D01*
G01*
G37*
D11*
X0435039Y0470472D03*
G36*
G01*
X0170079Y0403622D02*
X0166339Y0403622D01*
G75*
G02*
X0165354Y0404606I0000000J0000984D01*
G01*
X0165354Y0406575D01*
G75*
G02*
X0166339Y0407559I0000984J0000000D01*
G01*
X0170079Y0407559D01*
G75*
G02*
X0171063Y0406575I0000000J-000984D01*
G01*
X0171063Y0404606D01*
G75*
G02*
X0170079Y0403622I-000984J0000000D01*
G01*
G37*
G36*
G01*
X0170079Y0411102D02*
X0166339Y0411102D01*
G75*
G02*
X0165354Y0412087I0000000J0000984D01*
G01*
X0165354Y0414055D01*
G75*
G02*
X0166339Y0415039I0000984J0000000D01*
G01*
X0170079Y0415039D01*
G75*
G02*
X0171063Y0414055I0000000J-000984D01*
G01*
X0171063Y0412087D01*
G75*
G02*
X0170079Y0411102I-000984J0000000D01*
G01*
G37*
D14*
X0375984Y0457067D03*
G36*
G01*
X0378445Y0458858D02*
X0373524Y0458858D01*
G75*
G02*
X0373130Y0459252I0000000J0000394D01*
G01*
X0373130Y0462402D01*
G75*
G02*
X0373524Y0462795I0000394J0000000D01*
G01*
X0378445Y0462795D01*
G75*
G02*
X0378839Y0462402I0000000J-000394D01*
G01*
X0378839Y0459252D01*
G75*
G02*
X0378445Y0458858I-000394J0000000D01*
G01*
G37*
X0375984Y0472067D03*
G36*
G01*
X0378445Y0466339D02*
X0373524Y0466339D01*
G75*
G02*
X0373130Y0466732I0000000J0000394D01*
G01*
X0373130Y0469882D01*
G75*
G02*
X0373524Y0470276I0000394J0000000D01*
G01*
X0378445Y0470276D01*
G75*
G02*
X0378839Y0469882I0000000J-000394D01*
G01*
X0378839Y0466732D01*
G75*
G02*
X0378445Y0466339I-000394J0000000D01*
G01*
G37*
D11*
X0423228Y0488189D03*
G36*
G01*
X0237402Y0343799D02*
X0236220Y0343799D01*
G75*
G02*
X0235630Y0344390I0000000J0000591D01*
G01*
X0235630Y0349016D01*
G75*
G02*
X0236220Y0349606I0000591J0000000D01*
G01*
X0237402Y0349606D01*
G75*
G02*
X0237992Y0349016I0000000J-000591D01*
G01*
X0237992Y0344390D01*
G75*
G02*
X0237402Y0343799I-000591J0000000D01*
G01*
G37*
G36*
G01*
X0241142Y0351181D02*
X0239961Y0351181D01*
G75*
G02*
X0239370Y0351772I0000000J0000591D01*
G01*
X0239370Y0356398D01*
G75*
G02*
X0239961Y0356988I0000591J0000000D01*
G01*
X0241142Y0356988D01*
G75*
G02*
X0241732Y0356398I0000000J-000591D01*
G01*
X0241732Y0351772D01*
G75*
G02*
X0241142Y0351181I-000591J0000000D01*
G01*
G37*
G36*
G01*
X0244882Y0343799D02*
X0243701Y0343799D01*
G75*
G02*
X0243110Y0344390I0000000J0000591D01*
G01*
X0243110Y0349016D01*
G75*
G02*
X0243701Y0349606I0000591J0000000D01*
G01*
X0244882Y0349606D01*
G75*
G02*
X0245472Y0349016I0000000J-000591D01*
G01*
X0245472Y0344390D01*
G75*
G02*
X0244882Y0343799I-000591J0000000D01*
G01*
G37*
G36*
G01*
X0414018Y0080160D02*
X0414018Y0080160D01*
G75*
G02*
X0414018Y0073479I-003341J-003341D01*
G01*
X0412348Y0071808D01*
G75*
G02*
X0405667Y0071808I-003341J0003341D01*
G01*
X0405667Y0071808D01*
G75*
G02*
X0405667Y0078490I0003341J0003341D01*
G01*
X0407337Y0080160D01*
G75*
G02*
X0414018Y0080160I0003341J-003341D01*
G01*
G37*
G36*
G01*
X0422680Y0072680D02*
X0422680Y0072680D01*
G75*
G02*
X0422680Y0065998I-003341J-003341D01*
G01*
X0421009Y0064328D01*
G75*
G02*
X0414328Y0064328I-003341J0003341D01*
G01*
X0414328Y0064328D01*
G75*
G02*
X0414328Y0071009I0003341J0003341D01*
G01*
X0415998Y0072680D01*
G75*
G02*
X0422680Y0072680I0003341J-003341D01*
G01*
G37*
G36*
G01*
X0422680Y0048270D02*
X0422680Y0048270D01*
G75*
G02*
X0422680Y0041589I-003341J-003341D01*
G01*
X0421009Y0039919D01*
G75*
G02*
X0414328Y0039919I-003341J0003341D01*
G01*
X0414328Y0039919D01*
G75*
G02*
X0414328Y0046600I0003341J0003341D01*
G01*
X0415998Y0048270D01*
G75*
G02*
X0422680Y0048270I0003341J-003341D01*
G01*
G37*
G36*
G01*
X0414018Y0058113D02*
X0414018Y0058113D01*
G75*
G02*
X0414018Y0051432I-003341J-003341D01*
G01*
X0412348Y0049761D01*
G75*
G02*
X0405667Y0049761I-003341J0003341D01*
G01*
X0405667Y0049761D01*
G75*
G02*
X0405667Y0056443I0003341J0003341D01*
G01*
X0407337Y0058113D01*
G75*
G02*
X0414018Y0058113I0003341J-003341D01*
G01*
G37*
G36*
G01*
X0422680Y0094727D02*
X0422680Y0094727D01*
G75*
G02*
X0422680Y0088046I-003341J-003341D01*
G01*
X0421009Y0086375D01*
G75*
G02*
X0414328Y0086375I-003341J0003341D01*
G01*
X0414328Y0086375D01*
G75*
G02*
X0414328Y0093057I0003341J0003341D01*
G01*
X0415998Y0094727D01*
G75*
G02*
X0422680Y0094727I0003341J-003341D01*
G01*
G37*
G36*
G01*
X0132283Y0351575D02*
X0135827Y0351575D01*
G75*
G02*
X0136220Y0351181I0000000J-000394D01*
G01*
X0136220Y0348031D01*
G75*
G02*
X0135827Y0347638I-000394J0000000D01*
G01*
X0132283Y0347638D01*
G75*
G02*
X0131890Y0348031I0000000J0000394D01*
G01*
X0131890Y0351181D01*
G75*
G02*
X0132283Y0351575I0000394J0000000D01*
G01*
G37*
G36*
G01*
X0132283Y0344882D02*
X0135827Y0344882D01*
G75*
G02*
X0136220Y0344488I0000000J-000394D01*
G01*
X0136220Y0341339D01*
G75*
G02*
X0135827Y0340945I-000394J0000000D01*
G01*
X0132283Y0340945D01*
G75*
G02*
X0131890Y0341339I0000000J0000394D01*
G01*
X0131890Y0344488D01*
G75*
G02*
X0132283Y0344882I0000394J0000000D01*
G01*
G37*
D15*
X0577559Y0276457D03*
D16*
X0552756Y0285433D03*
D15*
X0577559Y0294409D03*
X0595669Y0479213D03*
D16*
X0570866Y0488189D03*
D15*
X0595669Y0497165D03*
G36*
G01*
X0406869Y0384291D02*
X0406869Y0387362D01*
G75*
G02*
X0407145Y0387638I0000276J0000000D01*
G01*
X0409349Y0387638D01*
G75*
G02*
X0409625Y0387362I0000000J-000276D01*
G01*
X0409625Y0384291D01*
G75*
G02*
X0409349Y0384016I-000276J0000000D01*
G01*
X0407145Y0384016D01*
G75*
G02*
X0406869Y0384291I0000000J0000276D01*
G01*
G37*
G36*
G01*
X0413168Y0384291D02*
X0413168Y0387362D01*
G75*
G02*
X0413444Y0387638I0000276J0000000D01*
G01*
X0415648Y0387638D01*
G75*
G02*
X0415924Y0387362I0000000J-000276D01*
G01*
X0415924Y0384291D01*
G75*
G02*
X0415648Y0384016I-000276J0000000D01*
G01*
X0413444Y0384016D01*
G75*
G02*
X0413168Y0384291I0000000J0000276D01*
G01*
G37*
D11*
X0151575Y0468504D03*
X0399606Y0466142D03*
D26*
X0533465Y0356457D03*
X0533465Y0336457D03*
D11*
X0251969Y0251969D03*
X0511811Y0068898D03*
D12*
X0349311Y0059921D03*
D13*
X0359311Y0059921D03*
X0349311Y0049921D03*
X0359311Y0049921D03*
G36*
G01*
X0180168Y0490201D02*
X0177996Y0492372D01*
G75*
G02*
X0177996Y0492762I0000195J0000195D01*
G01*
X0179555Y0494321D01*
G75*
G02*
X0179945Y0494321I0000195J-000195D01*
G01*
X0182116Y0492150D01*
G75*
G02*
X0182116Y0491760I-000195J-000195D01*
G01*
X0180557Y0490201D01*
G75*
G02*
X0180168Y0490201I-000195J0000195D01*
G01*
G37*
G36*
G01*
X0184622Y0494655D02*
X0182450Y0496827D01*
G75*
G02*
X0182450Y0497216I0000195J0000195D01*
G01*
X0184009Y0498775D01*
G75*
G02*
X0184399Y0498775I0000195J-000195D01*
G01*
X0186571Y0496604D01*
G75*
G02*
X0186571Y0496214I-000195J-000195D01*
G01*
X0185012Y0494655D01*
G75*
G02*
X0184622Y0494655I-000195J0000195D01*
G01*
G37*
G36*
G01*
X0353878Y0069134D02*
X0353878Y0071811D01*
G75*
G02*
X0354213Y0072146I0000335J0000000D01*
G01*
X0356890Y0072146D01*
G75*
G02*
X0357224Y0071811I0000000J-000335D01*
G01*
X0357224Y0069134D01*
G75*
G02*
X0356890Y0068799I-000335J0000000D01*
G01*
X0354213Y0068799D01*
G75*
G02*
X0353878Y0069134I0000000J0000335D01*
G01*
G37*
G36*
G01*
X0360098Y0069134D02*
X0360098Y0071811D01*
G75*
G02*
X0360433Y0072146I0000335J0000000D01*
G01*
X0363110Y0072146D01*
G75*
G02*
X0363445Y0071811I0000000J-000335D01*
G01*
X0363445Y0069134D01*
G75*
G02*
X0363110Y0068799I-000335J0000000D01*
G01*
X0360433Y0068799D01*
G75*
G02*
X0360098Y0069134I0000000J0000335D01*
G01*
G37*
G36*
G01*
X0222244Y0371417D02*
X0222244Y0369528D01*
G75*
G02*
X0222008Y0369291I-000236J0000000D01*
G01*
X0220118Y0369291D01*
G75*
G02*
X0219882Y0369528I0000000J0000236D01*
G01*
X0219882Y0371417D01*
G75*
G02*
X0220118Y0371654I0000236J0000000D01*
G01*
X0222008Y0371654D01*
G75*
G02*
X0222244Y0371417I0000000J-000236D01*
G01*
G37*
G36*
G01*
X0222244Y0362756D02*
X0222244Y0360866D01*
G75*
G02*
X0222008Y0360630I-000236J0000000D01*
G01*
X0220118Y0360630D01*
G75*
G02*
X0219882Y0360866I0000000J0000236D01*
G01*
X0219882Y0362756D01*
G75*
G02*
X0220118Y0362992I0000236J0000000D01*
G01*
X0222008Y0362992D01*
G75*
G02*
X0222244Y0362756I0000000J-000236D01*
G01*
G37*
D11*
X0517717Y0470472D03*
G36*
G01*
X0124803Y0325433D02*
X0124803Y0327323D01*
G75*
G02*
X0125039Y0327559I0000236J0000000D01*
G01*
X0126929Y0327559D01*
G75*
G02*
X0127165Y0327323I0000000J-000236D01*
G01*
X0127165Y0325433D01*
G75*
G02*
X0126929Y0325197I-000236J0000000D01*
G01*
X0125039Y0325197D01*
G75*
G02*
X0124803Y0325433I0000000J0000236D01*
G01*
G37*
G36*
G01*
X0124803Y0334094D02*
X0124803Y0335984D01*
G75*
G02*
X0125039Y0336220I0000236J0000000D01*
G01*
X0126929Y0336220D01*
G75*
G02*
X0127165Y0335984I0000000J-000236D01*
G01*
X0127165Y0334094D01*
G75*
G02*
X0126929Y0333858I-000236J0000000D01*
G01*
X0125039Y0333858D01*
G75*
G02*
X0124803Y0334094I0000000J0000236D01*
G01*
G37*
X0139764Y0486220D03*
D14*
X0192913Y0471240D03*
G36*
G01*
X0195374Y0473031D02*
X0190453Y0473031D01*
G75*
G02*
X0190059Y0473425I0000000J0000394D01*
G01*
X0190059Y0476575D01*
G75*
G02*
X0190453Y0476968I0000394J0000000D01*
G01*
X0195374Y0476968D01*
G75*
G02*
X0195768Y0476575I0000000J-000394D01*
G01*
X0195768Y0473425D01*
G75*
G02*
X0195374Y0473031I-000394J0000000D01*
G01*
G37*
X0192913Y0486240D03*
G36*
G01*
X0195374Y0480512D02*
X0190453Y0480512D01*
G75*
G02*
X0190059Y0480906I0000000J0000394D01*
G01*
X0190059Y0484055D01*
G75*
G02*
X0190453Y0484449I0000394J0000000D01*
G01*
X0195374Y0484449D01*
G75*
G02*
X0195768Y0484055I0000000J-000394D01*
G01*
X0195768Y0480906D01*
G75*
G02*
X0195374Y0480512I-000394J0000000D01*
G01*
G37*
X0222441Y0471240D03*
G36*
G01*
X0224902Y0473031D02*
X0219980Y0473031D01*
G75*
G02*
X0219587Y0473425I0000000J0000394D01*
G01*
X0219587Y0476575D01*
G75*
G02*
X0219980Y0476968I0000394J0000000D01*
G01*
X0224902Y0476968D01*
G75*
G02*
X0225295Y0476575I0000000J-000394D01*
G01*
X0225295Y0473425D01*
G75*
G02*
X0224902Y0473031I-000394J0000000D01*
G01*
G37*
X0222441Y0486240D03*
G36*
G01*
X0224902Y0480512D02*
X0219980Y0480512D01*
G75*
G02*
X0219587Y0480906I0000000J0000394D01*
G01*
X0219587Y0484055D01*
G75*
G02*
X0219980Y0484449I0000394J0000000D01*
G01*
X0224902Y0484449D01*
G75*
G02*
X0225295Y0484055I0000000J-000394D01*
G01*
X0225295Y0480906D01*
G75*
G02*
X0224902Y0480512I-000394J0000000D01*
G01*
G37*
G36*
G01*
X0223579Y0493554D02*
X0221407Y0491382D01*
G75*
G02*
X0221017Y0491382I-000195J0000195D01*
G01*
X0219458Y0492941D01*
G75*
G02*
X0219458Y0493331I0000195J0000195D01*
G01*
X0221630Y0495502D01*
G75*
G02*
X0222020Y0495502I0000195J-000195D01*
G01*
X0223579Y0493943D01*
G75*
G02*
X0223579Y0493554I-000195J-000195D01*
G01*
G37*
G36*
G01*
X0219124Y0498008D02*
X0216953Y0495836D01*
G75*
G02*
X0216563Y0495836I-000195J0000195D01*
G01*
X0215004Y0497395D01*
G75*
G02*
X0215004Y0497785I0000195J0000195D01*
G01*
X0217176Y0499956D01*
G75*
G02*
X0217565Y0499956I0000195J-000195D01*
G01*
X0219124Y0498397D01*
G75*
G02*
X0219124Y0498008I-000195J-000195D01*
G01*
G37*
X0357874Y0471240D03*
G36*
G01*
X0360335Y0473031D02*
X0355413Y0473031D01*
G75*
G02*
X0355020Y0473425I0000000J0000394D01*
G01*
X0355020Y0476575D01*
G75*
G02*
X0355413Y0476968I0000394J0000000D01*
G01*
X0360335Y0476968D01*
G75*
G02*
X0360728Y0476575I0000000J-000394D01*
G01*
X0360728Y0473425D01*
G75*
G02*
X0360335Y0473031I-000394J0000000D01*
G01*
G37*
G36*
G01*
X0360335Y0480512D02*
X0355413Y0480512D01*
G75*
G02*
X0355020Y0480906I0000000J0000394D01*
G01*
X0355020Y0484055D01*
G75*
G02*
X0355413Y0484449I0000394J0000000D01*
G01*
X0360335Y0484449D01*
G75*
G02*
X0360728Y0484055I0000000J-000394D01*
G01*
X0360728Y0480906D01*
G75*
G02*
X0360335Y0480512I-000394J0000000D01*
G01*
G37*
X0357874Y0486240D03*
D35*
X0545419Y0052381D03*
X0545419Y0049389D03*
X0545419Y0044763D03*
X0545419Y0040137D03*
X0545419Y0036831D03*
X0545419Y0033878D03*
X0545419Y0029252D03*
X0545419Y0024626D03*
D30*
X0505657Y0044468D03*
X0507330Y0051693D03*
X0509496Y0043622D03*
X0512940Y0044468D03*
X0516287Y0044763D03*
X0517566Y0051693D03*
X0522684Y0046535D03*
X0525244Y0051693D03*
X0496995Y0028366D03*
X0498177Y0044409D03*
D15*
X0595669Y0431969D03*
D16*
X0570866Y0440945D03*
D15*
X0595669Y0449921D03*
G36*
G01*
X0604764Y0476969D02*
X0607835Y0476969D01*
G75*
G02*
X0608110Y0476693I0000000J-000276D01*
G01*
X0608110Y0474488D01*
G75*
G02*
X0607835Y0474213I-000276J0000000D01*
G01*
X0604764Y0474213D01*
G75*
G02*
X0604488Y0474488I0000000J0000276D01*
G01*
X0604488Y0476693D01*
G75*
G02*
X0604764Y0476969I0000276J0000000D01*
G01*
G37*
G36*
G01*
X0604764Y0470669D02*
X0607835Y0470669D01*
G75*
G02*
X0608110Y0470394I0000000J-000276D01*
G01*
X0608110Y0468189D01*
G75*
G02*
X0607835Y0467913I-000276J0000000D01*
G01*
X0604764Y0467913D01*
G75*
G02*
X0604488Y0468189I0000000J0000276D01*
G01*
X0604488Y0470394D01*
G75*
G02*
X0604764Y0470669I0000276J0000000D01*
G01*
G37*
D26*
X0533465Y0450945D03*
X0533465Y0430945D03*
D30*
X0302018Y0331545D03*
X0449117Y0331545D03*
X0400837Y0331545D03*
X0344931Y0331545D03*
D40*
X0298002Y0346211D03*
X0298002Y0338730D03*
D30*
X0443652Y0346506D03*
G36*
G01*
X0108563Y0383976D02*
X0108563Y0387047D01*
G75*
G02*
X0108839Y0387323I0000276J0000000D01*
G01*
X0111043Y0387323D01*
G75*
G02*
X0111319Y0387047I0000000J-000276D01*
G01*
X0111319Y0383976D01*
G75*
G02*
X0111043Y0383701I-000276J0000000D01*
G01*
X0108839Y0383701D01*
G75*
G02*
X0108563Y0383976I0000000J0000276D01*
G01*
G37*
G36*
G01*
X0114862Y0383976D02*
X0114862Y0387047D01*
G75*
G02*
X0115138Y0387323I0000276J0000000D01*
G01*
X0117343Y0387323D01*
G75*
G02*
X0117618Y0387047I0000000J-000276D01*
G01*
X0117618Y0383976D01*
G75*
G02*
X0117343Y0383701I-000276J0000000D01*
G01*
X0115138Y0383701D01*
G75*
G02*
X0114862Y0383976I0000000J0000276D01*
G01*
G37*
D40*
X0247602Y0299755D03*
D44*
X0308724Y0315700D03*
D30*
X0252228Y0282039D03*
X0284610Y0287255D03*
X0284541Y0307856D03*
X0277130Y0309795D03*
X0306067Y0314224D03*
G36*
G01*
X0297470Y0242436D02*
X0297470Y0244207D01*
G75*
G02*
X0297963Y0244699I0000492J0000000D01*
G01*
X0297963Y0244699D01*
G75*
G02*
X0298455Y0244207I0000000J-000492D01*
G01*
X0298455Y0242436D01*
G75*
G02*
X0297963Y0241943I-000492J0000000D01*
G01*
X0297963Y0241943D01*
G75*
G02*
X0297470Y0242436I0000000J0000492D01*
G01*
G37*
D11*
X0523622Y0061024D03*
X0151575Y0486220D03*
G36*
G01*
X0406869Y0394134D02*
X0406869Y0397205D01*
G75*
G02*
X0407145Y0397480I0000276J0000000D01*
G01*
X0409349Y0397480D01*
G75*
G02*
X0409625Y0397205I0000000J-000276D01*
G01*
X0409625Y0394134D01*
G75*
G02*
X0409349Y0393858I-000276J0000000D01*
G01*
X0407145Y0393858D01*
G75*
G02*
X0406869Y0394134I0000000J0000276D01*
G01*
G37*
G36*
G01*
X0413168Y0394134D02*
X0413168Y0397205D01*
G75*
G02*
X0413444Y0397480I0000276J0000000D01*
G01*
X0415648Y0397480D01*
G75*
G02*
X0415924Y0397205I0000000J-000276D01*
G01*
X0415924Y0394134D01*
G75*
G02*
X0415648Y0393858I-000276J0000000D01*
G01*
X0413444Y0393858D01*
G75*
G02*
X0413168Y0394134I0000000J0000276D01*
G01*
G37*
D30*
X0279675Y0086161D03*
X0285876Y0066850D03*
X0335892Y0066885D03*
X0302510Y0064212D03*
X0307136Y0064212D03*
X0315699Y0064212D03*
X0324459Y0064212D03*
D11*
X0281496Y0486220D03*
X0482283Y0470472D03*
G36*
G01*
X0194488Y0310098D02*
X0194488Y0312736D01*
G75*
G02*
X0194744Y0312992I0000256J0000000D01*
G01*
X0196791Y0312992D01*
G75*
G02*
X0197047Y0312736I0000000J-000256D01*
G01*
X0197047Y0310098D01*
G75*
G02*
X0196791Y0309843I-000256J0000000D01*
G01*
X0194744Y0309843D01*
G75*
G02*
X0194488Y0310098I0000000J0000256D01*
G01*
G37*
G36*
G01*
X0198327Y0310020D02*
X0198327Y0312815D01*
G75*
G02*
X0198504Y0312992I0000177J0000000D01*
G01*
X0199921Y0312992D01*
G75*
G02*
X0200098Y0312815I0000000J-000177D01*
G01*
X0200098Y0310020D01*
G75*
G02*
X0199921Y0309843I-000177J0000000D01*
G01*
X0198504Y0309843D01*
G75*
G02*
X0198327Y0310020I0000000J0000177D01*
G01*
G37*
G36*
G01*
X0201476Y0310020D02*
X0201476Y0312815D01*
G75*
G02*
X0201654Y0312992I0000177J0000000D01*
G01*
X0203071Y0312992D01*
G75*
G02*
X0203248Y0312815I0000000J-000177D01*
G01*
X0203248Y0310020D01*
G75*
G02*
X0203071Y0309843I-000177J0000000D01*
G01*
X0201654Y0309843D01*
G75*
G02*
X0201476Y0310020I0000000J0000177D01*
G01*
G37*
G36*
G01*
X0204528Y0310098D02*
X0204528Y0312736D01*
G75*
G02*
X0204783Y0312992I0000256J0000000D01*
G01*
X0206831Y0312992D01*
G75*
G02*
X0207087Y0312736I0000000J-000256D01*
G01*
X0207087Y0310098D01*
G75*
G02*
X0206831Y0309843I-000256J0000000D01*
G01*
X0204783Y0309843D01*
G75*
G02*
X0204528Y0310098I0000000J0000256D01*
G01*
G37*
G36*
G01*
X0204528Y0317185D02*
X0204528Y0319823D01*
G75*
G02*
X0204783Y0320079I0000256J0000000D01*
G01*
X0206831Y0320079D01*
G75*
G02*
X0207087Y0319823I0000000J-000256D01*
G01*
X0207087Y0317185D01*
G75*
G02*
X0206831Y0316929I-000256J0000000D01*
G01*
X0204783Y0316929D01*
G75*
G02*
X0204528Y0317185I0000000J0000256D01*
G01*
G37*
G36*
G01*
X0201476Y0317106D02*
X0201476Y0319902D01*
G75*
G02*
X0201654Y0320079I0000177J0000000D01*
G01*
X0203071Y0320079D01*
G75*
G02*
X0203248Y0319902I0000000J-000177D01*
G01*
X0203248Y0317106D01*
G75*
G02*
X0203071Y0316929I-000177J0000000D01*
G01*
X0201654Y0316929D01*
G75*
G02*
X0201476Y0317106I0000000J0000177D01*
G01*
G37*
G36*
G01*
X0198327Y0317106D02*
X0198327Y0319902D01*
G75*
G02*
X0198504Y0320079I0000177J0000000D01*
G01*
X0199921Y0320079D01*
G75*
G02*
X0200098Y0319902I0000000J-000177D01*
G01*
X0200098Y0317106D01*
G75*
G02*
X0199921Y0316929I-000177J0000000D01*
G01*
X0198504Y0316929D01*
G75*
G02*
X0198327Y0317106I0000000J0000177D01*
G01*
G37*
G36*
G01*
X0194488Y0317185D02*
X0194488Y0319823D01*
G75*
G02*
X0194744Y0320079I0000256J0000000D01*
G01*
X0196791Y0320079D01*
G75*
G02*
X0197047Y0319823I0000000J-000256D01*
G01*
X0197047Y0317185D01*
G75*
G02*
X0196791Y0316929I-000256J0000000D01*
G01*
X0194744Y0316929D01*
G75*
G02*
X0194488Y0317185I0000000J0000256D01*
G01*
G37*
D19*
X0118307Y0504331D03*
X0105315Y0504331D03*
G36*
G01*
X0587047Y0284055D02*
X0590118Y0284055D01*
G75*
G02*
X0590394Y0283780I0000000J-000276D01*
G01*
X0590394Y0281575D01*
G75*
G02*
X0590118Y0281299I-000276J0000000D01*
G01*
X0587047Y0281299D01*
G75*
G02*
X0586772Y0281575I0000000J0000276D01*
G01*
X0586772Y0283780D01*
G75*
G02*
X0587047Y0284055I0000276J0000000D01*
G01*
G37*
G36*
G01*
X0587047Y0277756D02*
X0590118Y0277756D01*
G75*
G02*
X0590394Y0277480I0000000J-000276D01*
G01*
X0590394Y0275276D01*
G75*
G02*
X0590118Y0275000I-000276J0000000D01*
G01*
X0587047Y0275000D01*
G75*
G02*
X0586772Y0275276I0000000J0000276D01*
G01*
X0586772Y0277480D01*
G75*
G02*
X0587047Y0277756I0000276J0000000D01*
G01*
G37*
D14*
X0281102Y0455886D03*
G36*
G01*
X0283563Y0457677D02*
X0278642Y0457677D01*
G75*
G02*
X0278248Y0458071I0000000J0000394D01*
G01*
X0278248Y0461220D01*
G75*
G02*
X0278642Y0461614I0000394J0000000D01*
G01*
X0283563Y0461614D01*
G75*
G02*
X0283957Y0461220I0000000J-000394D01*
G01*
X0283957Y0458071D01*
G75*
G02*
X0283563Y0457677I-000394J0000000D01*
G01*
G37*
X0281102Y0470886D03*
G36*
G01*
X0283563Y0465158D02*
X0278642Y0465158D01*
G75*
G02*
X0278248Y0465551I0000000J0000394D01*
G01*
X0278248Y0468701D01*
G75*
G02*
X0278642Y0469095I0000394J0000000D01*
G01*
X0283563Y0469095D01*
G75*
G02*
X0283957Y0468701I0000000J-000394D01*
G01*
X0283957Y0465551D01*
G75*
G02*
X0283563Y0465158I-000394J0000000D01*
G01*
G37*
D11*
X0266142Y0258661D03*
G36*
G01*
X0109055Y0325433D02*
X0109055Y0327323D01*
G75*
G02*
X0109291Y0327559I0000236J0000000D01*
G01*
X0111181Y0327559D01*
G75*
G02*
X0111417Y0327323I0000000J-000236D01*
G01*
X0111417Y0325433D01*
G75*
G02*
X0111181Y0325197I-000236J0000000D01*
G01*
X0109291Y0325197D01*
G75*
G02*
X0109055Y0325433I0000000J0000236D01*
G01*
G37*
G36*
G01*
X0109055Y0334094D02*
X0109055Y0335984D01*
G75*
G02*
X0109291Y0336220I0000236J0000000D01*
G01*
X0111181Y0336220D01*
G75*
G02*
X0111417Y0335984I0000000J-000236D01*
G01*
X0111417Y0334094D01*
G75*
G02*
X0111181Y0333858I-000236J0000000D01*
G01*
X0109291Y0333858D01*
G75*
G02*
X0109055Y0334094I0000000J0000236D01*
G01*
G37*
G36*
G01*
X0377815Y0436988D02*
X0375138Y0436988D01*
G75*
G02*
X0374803Y0437323I0000000J0000335D01*
G01*
X0374803Y0440000D01*
G75*
G02*
X0375138Y0440335I0000335J0000000D01*
G01*
X0377815Y0440335D01*
G75*
G02*
X0378150Y0440000I0000000J-000335D01*
G01*
X0378150Y0437323D01*
G75*
G02*
X0377815Y0436988I-000335J0000000D01*
G01*
G37*
G36*
G01*
X0377815Y0443209D02*
X0375138Y0443209D01*
G75*
G02*
X0374803Y0443543I0000000J0000335D01*
G01*
X0374803Y0446220D01*
G75*
G02*
X0375138Y0446555I0000335J0000000D01*
G01*
X0377815Y0446555D01*
G75*
G02*
X0378150Y0446220I0000000J-000335D01*
G01*
X0378150Y0443543D01*
G75*
G02*
X0377815Y0443209I-000335J0000000D01*
G01*
G37*
X0108268Y0283465D03*
G36*
G01*
X0187795Y0325433D02*
X0187795Y0327323D01*
G75*
G02*
X0188031Y0327559I0000236J0000000D01*
G01*
X0189921Y0327559D01*
G75*
G02*
X0190157Y0327323I0000000J-000236D01*
G01*
X0190157Y0325433D01*
G75*
G02*
X0189921Y0325197I-000236J0000000D01*
G01*
X0188031Y0325197D01*
G75*
G02*
X0187795Y0325433I0000000J0000236D01*
G01*
G37*
G36*
G01*
X0187795Y0334094D02*
X0187795Y0335984D01*
G75*
G02*
X0188031Y0336220I0000236J0000000D01*
G01*
X0189921Y0336220D01*
G75*
G02*
X0190157Y0335984I0000000J-000236D01*
G01*
X0190157Y0334094D01*
G75*
G02*
X0189921Y0333858I-000236J0000000D01*
G01*
X0188031Y0333858D01*
G75*
G02*
X0187795Y0334094I0000000J0000236D01*
G01*
G37*
X0470472Y0488189D03*
G36*
G01*
X0278937Y0405512D02*
X0278937Y0416535D01*
G75*
G02*
X0279921Y0417520I0000984J0000000D01*
G01*
X0288583Y0417520D01*
G75*
G02*
X0289567Y0416535I0000000J-000984D01*
G01*
X0289567Y0405512D01*
G75*
G02*
X0288583Y0404528I-000984J0000000D01*
G01*
X0279921Y0404528D01*
G75*
G02*
X0278937Y0405512I0000000J0000984D01*
G01*
G37*
D55*
X0300787Y0411024D03*
X0317323Y0411024D03*
X0333858Y0411024D03*
X0350394Y0411024D03*
X0366929Y0411024D03*
X0284252Y0389370D03*
X0300787Y0389370D03*
X0317323Y0389370D03*
X0333858Y0389370D03*
X0350394Y0389370D03*
X0366929Y0389370D03*
G36*
G01*
X0286811Y0498780D02*
X0286811Y0495709D01*
G75*
G02*
X0286535Y0495433I-000276J0000000D01*
G01*
X0284331Y0495433D01*
G75*
G02*
X0284055Y0495709I0000000J0000276D01*
G01*
X0284055Y0498780D01*
G75*
G02*
X0284331Y0499055I0000276J0000000D01*
G01*
X0286535Y0499055D01*
G75*
G02*
X0286811Y0498780I0000000J-000276D01*
G01*
G37*
G36*
G01*
X0280512Y0498780D02*
X0280512Y0495709D01*
G75*
G02*
X0280236Y0495433I-000276J0000000D01*
G01*
X0278031Y0495433D01*
G75*
G02*
X0277756Y0495709I0000000J0000276D01*
G01*
X0277756Y0498780D01*
G75*
G02*
X0278031Y0499055I0000276J0000000D01*
G01*
X0280236Y0499055D01*
G75*
G02*
X0280512Y0498780I0000000J-000276D01*
G01*
G37*
G36*
G01*
X0132677Y0325433D02*
X0132677Y0327323D01*
G75*
G02*
X0132913Y0327559I0000236J0000000D01*
G01*
X0134803Y0327559D01*
G75*
G02*
X0135039Y0327323I0000000J-000236D01*
G01*
X0135039Y0325433D01*
G75*
G02*
X0134803Y0325197I-000236J0000000D01*
G01*
X0132913Y0325197D01*
G75*
G02*
X0132677Y0325433I0000000J0000236D01*
G01*
G37*
G36*
G01*
X0132677Y0334094D02*
X0132677Y0335984D01*
G75*
G02*
X0132913Y0336220I0000236J0000000D01*
G01*
X0134803Y0336220D01*
G75*
G02*
X0135039Y0335984I0000000J-000236D01*
G01*
X0135039Y0334094D01*
G75*
G02*
X0134803Y0333858I-000236J0000000D01*
G01*
X0132913Y0333858D01*
G75*
G02*
X0132677Y0334094I0000000J0000236D01*
G01*
G37*
G36*
G01*
X0237795Y0371417D02*
X0237795Y0369528D01*
G75*
G02*
X0237559Y0369291I-000236J0000000D01*
G01*
X0235669Y0369291D01*
G75*
G02*
X0235433Y0369528I0000000J0000236D01*
G01*
X0235433Y0371417D01*
G75*
G02*
X0235669Y0371654I0000236J0000000D01*
G01*
X0237559Y0371654D01*
G75*
G02*
X0237795Y0371417I0000000J-000236D01*
G01*
G37*
G36*
G01*
X0237795Y0362756D02*
X0237795Y0360866D01*
G75*
G02*
X0237559Y0360630I-000236J0000000D01*
G01*
X0235669Y0360630D01*
G75*
G02*
X0235433Y0360866I0000000J0000236D01*
G01*
X0235433Y0362756D01*
G75*
G02*
X0235669Y0362992I0000236J0000000D01*
G01*
X0237559Y0362992D01*
G75*
G02*
X0237795Y0362756I0000000J-000236D01*
G01*
G37*
D11*
X0423228Y0470472D03*
X0212598Y0468898D03*
D24*
X0528346Y0291929D03*
X0528346Y0278937D03*
G36*
G01*
X0150394Y0325433D02*
X0150394Y0327323D01*
G75*
G02*
X0150630Y0327559I0000236J0000000D01*
G01*
X0152520Y0327559D01*
G75*
G02*
X0152756Y0327323I0000000J-000236D01*
G01*
X0152756Y0325433D01*
G75*
G02*
X0152520Y0325197I-000236J0000000D01*
G01*
X0150630Y0325197D01*
G75*
G02*
X0150394Y0325433I0000000J0000236D01*
G01*
G37*
G36*
G01*
X0150394Y0334094D02*
X0150394Y0335984D01*
G75*
G02*
X0150630Y0336220I0000236J0000000D01*
G01*
X0152520Y0336220D01*
G75*
G02*
X0152756Y0335984I0000000J-000236D01*
G01*
X0152756Y0334094D01*
G75*
G02*
X0152520Y0333858I-000236J0000000D01*
G01*
X0150630Y0333858D01*
G75*
G02*
X0150394Y0334094I0000000J0000236D01*
G01*
G37*
G36*
G01*
X0604764Y0336811D02*
X0607835Y0336811D01*
G75*
G02*
X0608110Y0336535I0000000J-000276D01*
G01*
X0608110Y0334331D01*
G75*
G02*
X0607835Y0334055I-000276J0000000D01*
G01*
X0604764Y0334055D01*
G75*
G02*
X0604488Y0334331I0000000J0000276D01*
G01*
X0604488Y0336535D01*
G75*
G02*
X0604764Y0336811I0000276J0000000D01*
G01*
G37*
G36*
G01*
X0604764Y0330512D02*
X0607835Y0330512D01*
G75*
G02*
X0608110Y0330236I0000000J-000276D01*
G01*
X0608110Y0328031D01*
G75*
G02*
X0607835Y0327756I-000276J0000000D01*
G01*
X0604764Y0327756D01*
G75*
G02*
X0604488Y0328031I0000000J0000276D01*
G01*
X0604488Y0330236D01*
G75*
G02*
X0604764Y0330512I0000276J0000000D01*
G01*
G37*
D11*
X0251969Y0240157D03*
X0202756Y0457087D03*
G36*
G01*
X0392323Y0453504D02*
X0392323Y0450433D01*
G75*
G02*
X0392047Y0450157I-000276J0000000D01*
G01*
X0389843Y0450157D01*
G75*
G02*
X0389567Y0450433I0000000J0000276D01*
G01*
X0389567Y0453504D01*
G75*
G02*
X0389843Y0453780I0000276J0000000D01*
G01*
X0392047Y0453780D01*
G75*
G02*
X0392323Y0453504I0000000J-000276D01*
G01*
G37*
G36*
G01*
X0386024Y0453504D02*
X0386024Y0450433D01*
G75*
G02*
X0385748Y0450157I-000276J0000000D01*
G01*
X0383543Y0450157D01*
G75*
G02*
X0383268Y0450433I0000000J0000276D01*
G01*
X0383268Y0453504D01*
G75*
G02*
X0383543Y0453780I0000276J0000000D01*
G01*
X0385748Y0453780D01*
G75*
G02*
X0386024Y0453504I0000000J-000276D01*
G01*
G37*
G36*
G01*
X0158268Y0325433D02*
X0158268Y0327323D01*
G75*
G02*
X0158504Y0327559I0000236J0000000D01*
G01*
X0160394Y0327559D01*
G75*
G02*
X0160630Y0327323I0000000J-000236D01*
G01*
X0160630Y0325433D01*
G75*
G02*
X0160394Y0325197I-000236J0000000D01*
G01*
X0158504Y0325197D01*
G75*
G02*
X0158268Y0325433I0000000J0000236D01*
G01*
G37*
G36*
G01*
X0158268Y0334094D02*
X0158268Y0335984D01*
G75*
G02*
X0158504Y0336220I0000236J0000000D01*
G01*
X0160394Y0336220D01*
G75*
G02*
X0160630Y0335984I0000000J-000236D01*
G01*
X0160630Y0334094D01*
G75*
G02*
X0160394Y0333858I-000236J0000000D01*
G01*
X0158504Y0333858D01*
G75*
G02*
X0158268Y0334094I0000000J0000236D01*
G01*
G37*
G36*
G01*
X0388583Y0083858D02*
X0388583Y0083071D01*
G75*
G02*
X0388189Y0082677I-000394J0000000D01*
G01*
X0386811Y0082677D01*
G75*
G02*
X0386417Y0083071I0000000J0000394D01*
G01*
X0386417Y0083858D01*
G75*
G02*
X0386811Y0084252I0000394J0000000D01*
G01*
X0388189Y0084252D01*
G75*
G02*
X0388583Y0083858I0000000J-000394D01*
G01*
G37*
G36*
G01*
X0388583Y0086220D02*
X0388583Y0085433D01*
G75*
G02*
X0388189Y0085039I-000394J0000000D01*
G01*
X0386811Y0085039D01*
G75*
G02*
X0386417Y0085433I0000000J0000394D01*
G01*
X0386417Y0086220D01*
G75*
G02*
X0386811Y0086614I0000394J0000000D01*
G01*
X0388189Y0086614D01*
G75*
G02*
X0388583Y0086220I0000000J-000394D01*
G01*
G37*
G36*
G01*
X0387008Y0088976D02*
X0387008Y0087598D01*
G75*
G02*
X0386614Y0087205I-000394J0000000D01*
G01*
X0385827Y0087205D01*
G75*
G02*
X0385433Y0087598I0000000J0000394D01*
G01*
X0385433Y0088976D01*
G75*
G02*
X0385827Y0089370I0000394J0000000D01*
G01*
X0386614Y0089370D01*
G75*
G02*
X0387008Y0088976I0000000J-000394D01*
G01*
G37*
G36*
G01*
X0384646Y0088976D02*
X0384646Y0087598D01*
G75*
G02*
X0384252Y0087205I-000394J0000000D01*
G01*
X0383465Y0087205D01*
G75*
G02*
X0383071Y0087598I0000000J0000394D01*
G01*
X0383071Y0088976D01*
G75*
G02*
X0383465Y0089370I0000394J0000000D01*
G01*
X0384252Y0089370D01*
G75*
G02*
X0384646Y0088976I0000000J-000394D01*
G01*
G37*
G36*
G01*
X0382283Y0088976D02*
X0382283Y0087598D01*
G75*
G02*
X0381890Y0087205I-000394J0000000D01*
G01*
X0381102Y0087205D01*
G75*
G02*
X0380709Y0087598I0000000J0000394D01*
G01*
X0380709Y0088976D01*
G75*
G02*
X0381102Y0089370I0000394J0000000D01*
G01*
X0381890Y0089370D01*
G75*
G02*
X0382283Y0088976I0000000J-000394D01*
G01*
G37*
G36*
G01*
X0381299Y0086220D02*
X0381299Y0085433D01*
G75*
G02*
X0380906Y0085039I-000394J0000000D01*
G01*
X0379528Y0085039D01*
G75*
G02*
X0379134Y0085433I0000000J0000394D01*
G01*
X0379134Y0086220D01*
G75*
G02*
X0379528Y0086614I0000394J0000000D01*
G01*
X0380906Y0086614D01*
G75*
G02*
X0381299Y0086220I0000000J-000394D01*
G01*
G37*
G36*
G01*
X0381299Y0083858D02*
X0381299Y0083071D01*
G75*
G02*
X0380906Y0082677I-000394J0000000D01*
G01*
X0379528Y0082677D01*
G75*
G02*
X0379134Y0083071I0000000J0000394D01*
G01*
X0379134Y0083858D01*
G75*
G02*
X0379528Y0084252I0000394J0000000D01*
G01*
X0380906Y0084252D01*
G75*
G02*
X0381299Y0083858I0000000J-000394D01*
G01*
G37*
G36*
G01*
X0382283Y0081693D02*
X0382283Y0080315D01*
G75*
G02*
X0381890Y0079921I-000394J0000000D01*
G01*
X0381102Y0079921D01*
G75*
G02*
X0380709Y0080315I0000000J0000394D01*
G01*
X0380709Y0081693D01*
G75*
G02*
X0381102Y0082087I0000394J0000000D01*
G01*
X0381890Y0082087D01*
G75*
G02*
X0382283Y0081693I0000000J-000394D01*
G01*
G37*
G36*
G01*
X0384646Y0081693D02*
X0384646Y0080315D01*
G75*
G02*
X0384252Y0079921I-000394J0000000D01*
G01*
X0383465Y0079921D01*
G75*
G02*
X0383071Y0080315I0000000J0000394D01*
G01*
X0383071Y0081693D01*
G75*
G02*
X0383465Y0082087I0000394J0000000D01*
G01*
X0384252Y0082087D01*
G75*
G02*
X0384646Y0081693I0000000J-000394D01*
G01*
G37*
G36*
G01*
X0387008Y0081693D02*
X0387008Y0080315D01*
G75*
G02*
X0386614Y0079921I-000394J0000000D01*
G01*
X0385827Y0079921D01*
G75*
G02*
X0385433Y0080315I0000000J0000394D01*
G01*
X0385433Y0081693D01*
G75*
G02*
X0385827Y0082087I0000394J0000000D01*
G01*
X0386614Y0082087D01*
G75*
G02*
X0387008Y0081693I0000000J-000394D01*
G01*
G37*
D14*
X0349213Y0471240D03*
G36*
G01*
X0351673Y0473031D02*
X0346752Y0473031D01*
G75*
G02*
X0346358Y0473425I0000000J0000394D01*
G01*
X0346358Y0476575D01*
G75*
G02*
X0346752Y0476968I0000394J0000000D01*
G01*
X0351673Y0476968D01*
G75*
G02*
X0352067Y0476575I0000000J-000394D01*
G01*
X0352067Y0473425D01*
G75*
G02*
X0351673Y0473031I-000394J0000000D01*
G01*
G37*
X0349213Y0486240D03*
G36*
G01*
X0351673Y0480512D02*
X0346752Y0480512D01*
G75*
G02*
X0346358Y0480906I0000000J0000394D01*
G01*
X0346358Y0484055D01*
G75*
G02*
X0346752Y0484449I0000394J0000000D01*
G01*
X0351673Y0484449D01*
G75*
G02*
X0352067Y0484055I0000000J-000394D01*
G01*
X0352067Y0480906D01*
G75*
G02*
X0351673Y0480512I-000394J0000000D01*
G01*
G37*
G36*
G01*
X0195669Y0325433D02*
X0195669Y0327323D01*
G75*
G02*
X0195906Y0327559I0000236J0000000D01*
G01*
X0197795Y0327559D01*
G75*
G02*
X0198031Y0327323I0000000J-000236D01*
G01*
X0198031Y0325433D01*
G75*
G02*
X0197795Y0325197I-000236J0000000D01*
G01*
X0195906Y0325197D01*
G75*
G02*
X0195669Y0325433I0000000J0000236D01*
G01*
G37*
G36*
G01*
X0195669Y0334094D02*
X0195669Y0335984D01*
G75*
G02*
X0195906Y0336220I0000236J0000000D01*
G01*
X0197795Y0336220D01*
G75*
G02*
X0198031Y0335984I0000000J-000236D01*
G01*
X0198031Y0334094D01*
G75*
G02*
X0197795Y0333858I-000236J0000000D01*
G01*
X0195906Y0333858D01*
G75*
G02*
X0195669Y0334094I0000000J0000236D01*
G01*
G37*
G36*
G01*
X0115748Y0310098D02*
X0115748Y0312736D01*
G75*
G02*
X0116004Y0312992I0000256J0000000D01*
G01*
X0118051Y0312992D01*
G75*
G02*
X0118307Y0312736I0000000J-000256D01*
G01*
X0118307Y0310098D01*
G75*
G02*
X0118051Y0309843I-000256J0000000D01*
G01*
X0116004Y0309843D01*
G75*
G02*
X0115748Y0310098I0000000J0000256D01*
G01*
G37*
G36*
G01*
X0119587Y0310020D02*
X0119587Y0312815D01*
G75*
G02*
X0119764Y0312992I0000177J0000000D01*
G01*
X0121181Y0312992D01*
G75*
G02*
X0121358Y0312815I0000000J-000177D01*
G01*
X0121358Y0310020D01*
G75*
G02*
X0121181Y0309843I-000177J0000000D01*
G01*
X0119764Y0309843D01*
G75*
G02*
X0119587Y0310020I0000000J0000177D01*
G01*
G37*
G36*
G01*
X0122736Y0310020D02*
X0122736Y0312815D01*
G75*
G02*
X0122913Y0312992I0000177J0000000D01*
G01*
X0124331Y0312992D01*
G75*
G02*
X0124508Y0312815I0000000J-000177D01*
G01*
X0124508Y0310020D01*
G75*
G02*
X0124331Y0309843I-000177J0000000D01*
G01*
X0122913Y0309843D01*
G75*
G02*
X0122736Y0310020I0000000J0000177D01*
G01*
G37*
G36*
G01*
X0125787Y0310098D02*
X0125787Y0312736D01*
G75*
G02*
X0126043Y0312992I0000256J0000000D01*
G01*
X0128091Y0312992D01*
G75*
G02*
X0128346Y0312736I0000000J-000256D01*
G01*
X0128346Y0310098D01*
G75*
G02*
X0128091Y0309843I-000256J0000000D01*
G01*
X0126043Y0309843D01*
G75*
G02*
X0125787Y0310098I0000000J0000256D01*
G01*
G37*
G36*
G01*
X0125787Y0317185D02*
X0125787Y0319823D01*
G75*
G02*
X0126043Y0320079I0000256J0000000D01*
G01*
X0128091Y0320079D01*
G75*
G02*
X0128346Y0319823I0000000J-000256D01*
G01*
X0128346Y0317185D01*
G75*
G02*
X0128091Y0316929I-000256J0000000D01*
G01*
X0126043Y0316929D01*
G75*
G02*
X0125787Y0317185I0000000J0000256D01*
G01*
G37*
G36*
G01*
X0122736Y0317106D02*
X0122736Y0319902D01*
G75*
G02*
X0122913Y0320079I0000177J0000000D01*
G01*
X0124331Y0320079D01*
G75*
G02*
X0124508Y0319902I0000000J-000177D01*
G01*
X0124508Y0317106D01*
G75*
G02*
X0124331Y0316929I-000177J0000000D01*
G01*
X0122913Y0316929D01*
G75*
G02*
X0122736Y0317106I0000000J0000177D01*
G01*
G37*
G36*
G01*
X0119587Y0317106D02*
X0119587Y0319902D01*
G75*
G02*
X0119764Y0320079I0000177J0000000D01*
G01*
X0121181Y0320079D01*
G75*
G02*
X0121358Y0319902I0000000J-000177D01*
G01*
X0121358Y0317106D01*
G75*
G02*
X0121181Y0316929I-000177J0000000D01*
G01*
X0119764Y0316929D01*
G75*
G02*
X0119587Y0317106I0000000J0000177D01*
G01*
G37*
G36*
G01*
X0115748Y0317185D02*
X0115748Y0319823D01*
G75*
G02*
X0116004Y0320079I0000256J0000000D01*
G01*
X0118051Y0320079D01*
G75*
G02*
X0118307Y0319823I0000000J-000256D01*
G01*
X0118307Y0317185D01*
G75*
G02*
X0118051Y0316929I-000256J0000000D01*
G01*
X0116004Y0316929D01*
G75*
G02*
X0115748Y0317185I0000000J0000256D01*
G01*
G37*
G36*
G01*
X0221811Y0437657D02*
X0219134Y0437657D01*
G75*
G02*
X0218799Y0437992I0000000J0000335D01*
G01*
X0218799Y0440669D01*
G75*
G02*
X0219134Y0441004I0000335J0000000D01*
G01*
X0221811Y0441004D01*
G75*
G02*
X0222146Y0440669I0000000J-000335D01*
G01*
X0222146Y0437992D01*
G75*
G02*
X0221811Y0437657I-000335J0000000D01*
G01*
G37*
G36*
G01*
X0221811Y0431437D02*
X0219134Y0431437D01*
G75*
G02*
X0218799Y0431772I0000000J0000335D01*
G01*
X0218799Y0434449D01*
G75*
G02*
X0219134Y0434783I0000335J0000000D01*
G01*
X0221811Y0434783D01*
G75*
G02*
X0222146Y0434449I0000000J-000335D01*
G01*
X0222146Y0431772D01*
G75*
G02*
X0221811Y0431437I-000335J0000000D01*
G01*
G37*
G36*
G01*
X0116153Y0178572D02*
X0116153Y0175501D01*
G75*
G02*
X0115877Y0175225I-000276J0000000D01*
G01*
X0113673Y0175225D01*
G75*
G02*
X0113397Y0175501I0000000J0000276D01*
G01*
X0113397Y0178572D01*
G75*
G02*
X0113673Y0178847I0000276J0000000D01*
G01*
X0115877Y0178847D01*
G75*
G02*
X0116153Y0178572I0000000J-000276D01*
G01*
G37*
G36*
G01*
X0109854Y0178572D02*
X0109854Y0175501D01*
G75*
G02*
X0109578Y0175225I-000276J0000000D01*
G01*
X0107373Y0175225D01*
G75*
G02*
X0107098Y0175501I0000000J0000276D01*
G01*
X0107098Y0178572D01*
G75*
G02*
X0107373Y0178847I0000276J0000000D01*
G01*
X0109578Y0178847D01*
G75*
G02*
X0109854Y0178572I0000000J-000276D01*
G01*
G37*
D24*
X0528346Y0219882D03*
X0528346Y0232874D03*
D11*
X0251969Y0457087D03*
G36*
G01*
X0315059Y0457677D02*
X0310138Y0457677D01*
G75*
G02*
X0309744Y0458071I0000000J0000394D01*
G01*
X0309744Y0461220D01*
G75*
G02*
X0310138Y0461614I0000394J0000000D01*
G01*
X0315059Y0461614D01*
G75*
G02*
X0315453Y0461220I0000000J-000394D01*
G01*
X0315453Y0458071D01*
G75*
G02*
X0315059Y0457677I-000394J0000000D01*
G01*
G37*
D14*
X0312598Y0455886D03*
G36*
G01*
X0315059Y0465158D02*
X0310138Y0465158D01*
G75*
G02*
X0309744Y0465551I0000000J0000394D01*
G01*
X0309744Y0468701D01*
G75*
G02*
X0310138Y0469095I0000394J0000000D01*
G01*
X0315059Y0469095D01*
G75*
G02*
X0315453Y0468701I0000000J-000394D01*
G01*
X0315453Y0465551D01*
G75*
G02*
X0315059Y0465158I-000394J0000000D01*
G01*
G37*
X0312598Y0470886D03*
D56*
X0361614Y0081348D03*
X0359646Y0081348D03*
X0357677Y0081348D03*
X0355709Y0081348D03*
D57*
X0355659Y0079331D03*
X0355659Y0077362D03*
D56*
X0355709Y0075344D03*
X0357677Y0075344D03*
X0359646Y0075344D03*
X0361614Y0075344D03*
D57*
X0361663Y0077362D03*
X0361663Y0079331D03*
D14*
X0183071Y0444075D03*
G36*
G01*
X0185531Y0445866D02*
X0180610Y0445866D01*
G75*
G02*
X0180217Y0446260I0000000J0000394D01*
G01*
X0180217Y0449409D01*
G75*
G02*
X0180610Y0449803I0000394J0000000D01*
G01*
X0185531Y0449803D01*
G75*
G02*
X0185925Y0449409I0000000J-000394D01*
G01*
X0185925Y0446260D01*
G75*
G02*
X0185531Y0445866I-000394J0000000D01*
G01*
G37*
X0183071Y0459075D03*
G36*
G01*
X0185531Y0453347D02*
X0180610Y0453347D01*
G75*
G02*
X0180217Y0453740I0000000J0000394D01*
G01*
X0180217Y0456890D01*
G75*
G02*
X0180610Y0457284I0000394J0000000D01*
G01*
X0185531Y0457284D01*
G75*
G02*
X0185925Y0456890I0000000J-000394D01*
G01*
X0185925Y0453740D01*
G75*
G02*
X0185531Y0453347I-000394J0000000D01*
G01*
G37*
G36*
G01*
X0124409Y0351575D02*
X0127953Y0351575D01*
G75*
G02*
X0128346Y0351181I0000000J-000394D01*
G01*
X0128346Y0348031D01*
G75*
G02*
X0127953Y0347638I-000394J0000000D01*
G01*
X0124409Y0347638D01*
G75*
G02*
X0124016Y0348031I0000000J0000394D01*
G01*
X0124016Y0351181D01*
G75*
G02*
X0124409Y0351575I0000394J0000000D01*
G01*
G37*
G36*
G01*
X0124409Y0344882D02*
X0127953Y0344882D01*
G75*
G02*
X0128346Y0344488I0000000J-000394D01*
G01*
X0128346Y0341339D01*
G75*
G02*
X0127953Y0340945I-000394J0000000D01*
G01*
X0124409Y0340945D01*
G75*
G02*
X0124016Y0341339I0000000J0000394D01*
G01*
X0124016Y0344488D01*
G75*
G02*
X0124409Y0344882I0000394J0000000D01*
G01*
G37*
G36*
G01*
X0390256Y0464764D02*
X0385335Y0464764D01*
G75*
G02*
X0384941Y0465157I0000000J0000394D01*
G01*
X0384941Y0468307D01*
G75*
G02*
X0385335Y0468701I0000394J0000000D01*
G01*
X0390256Y0468701D01*
G75*
G02*
X0390650Y0468307I0000000J-000394D01*
G01*
X0390650Y0465157D01*
G75*
G02*
X0390256Y0464764I-000394J0000000D01*
G01*
G37*
X0387795Y0462972D03*
G36*
G01*
X0390256Y0472244D02*
X0385335Y0472244D01*
G75*
G02*
X0384941Y0472638I0000000J0000394D01*
G01*
X0384941Y0475787D01*
G75*
G02*
X0385335Y0476181I0000394J0000000D01*
G01*
X0390256Y0476181D01*
G75*
G02*
X0390650Y0475787I0000000J-000394D01*
G01*
X0390650Y0472638D01*
G75*
G02*
X0390256Y0472244I-000394J0000000D01*
G01*
G37*
X0387795Y0477972D03*
G36*
G01*
X0211417Y0325433D02*
X0211417Y0327323D01*
G75*
G02*
X0211654Y0327559I0000236J0000000D01*
G01*
X0213543Y0327559D01*
G75*
G02*
X0213780Y0327323I0000000J-000236D01*
G01*
X0213780Y0325433D01*
G75*
G02*
X0213543Y0325197I-000236J0000000D01*
G01*
X0211654Y0325197D01*
G75*
G02*
X0211417Y0325433I0000000J0000236D01*
G01*
G37*
G36*
G01*
X0211417Y0334094D02*
X0211417Y0335984D01*
G75*
G02*
X0211654Y0336220I0000236J0000000D01*
G01*
X0213543Y0336220D01*
G75*
G02*
X0213780Y0335984I0000000J-000236D01*
G01*
X0213780Y0334094D01*
G75*
G02*
X0213543Y0333858I-000236J0000000D01*
G01*
X0211654Y0333858D01*
G75*
G02*
X0211417Y0334094I0000000J0000236D01*
G01*
G37*
G36*
G01*
X0116535Y0351575D02*
X0120079Y0351575D01*
G75*
G02*
X0120472Y0351181I0000000J-000394D01*
G01*
X0120472Y0348031D01*
G75*
G02*
X0120079Y0347638I-000394J0000000D01*
G01*
X0116535Y0347638D01*
G75*
G02*
X0116142Y0348031I0000000J0000394D01*
G01*
X0116142Y0351181D01*
G75*
G02*
X0116535Y0351575I0000394J0000000D01*
G01*
G37*
G36*
G01*
X0116535Y0344882D02*
X0120079Y0344882D01*
G75*
G02*
X0120472Y0344488I0000000J-000394D01*
G01*
X0120472Y0341339D01*
G75*
G02*
X0120079Y0340945I-000394J0000000D01*
G01*
X0116535Y0340945D01*
G75*
G02*
X0116142Y0341339I0000000J0000394D01*
G01*
X0116142Y0344488D01*
G75*
G02*
X0116535Y0344882I0000394J0000000D01*
G01*
G37*
D11*
X0375984Y0488189D03*
X0411417Y0488189D03*
G36*
G01*
X0242913Y0371260D02*
X0246457Y0371260D01*
G75*
G02*
X0246850Y0370866I0000000J-000394D01*
G01*
X0246850Y0367717D01*
G75*
G02*
X0246457Y0367323I-000394J0000000D01*
G01*
X0242913Y0367323D01*
G75*
G02*
X0242520Y0367717I0000000J0000394D01*
G01*
X0242520Y0370866D01*
G75*
G02*
X0242913Y0371260I0000394J0000000D01*
G01*
G37*
G36*
G01*
X0242913Y0364567D02*
X0246457Y0364567D01*
G75*
G02*
X0246850Y0364173I0000000J-000394D01*
G01*
X0246850Y0361024D01*
G75*
G02*
X0246457Y0360630I-000394J0000000D01*
G01*
X0242913Y0360630D01*
G75*
G02*
X0242520Y0361024I0000000J0000394D01*
G01*
X0242520Y0364173D01*
G75*
G02*
X0242913Y0364567I0000394J0000000D01*
G01*
G37*
G36*
G01*
X0252165Y0495709D02*
X0252165Y0498780D01*
G75*
G02*
X0252441Y0499055I0000276J0000000D01*
G01*
X0254646Y0499055D01*
G75*
G02*
X0254921Y0498780I0000000J-000276D01*
G01*
X0254921Y0495709D01*
G75*
G02*
X0254646Y0495433I-000276J0000000D01*
G01*
X0252441Y0495433D01*
G75*
G02*
X0252165Y0495709I0000000J0000276D01*
G01*
G37*
G36*
G01*
X0258465Y0495709D02*
X0258465Y0498780D01*
G75*
G02*
X0258740Y0499055I0000276J0000000D01*
G01*
X0260945Y0499055D01*
G75*
G02*
X0261220Y0498780I0000000J-000276D01*
G01*
X0261220Y0495709D01*
G75*
G02*
X0260945Y0495433I-000276J0000000D01*
G01*
X0258740Y0495433D01*
G75*
G02*
X0258465Y0495709I0000000J0000276D01*
G01*
G37*
X0423228Y0505906D03*
D15*
X0577559Y0246929D03*
D16*
X0552756Y0255906D03*
D15*
X0577559Y0264882D03*
G36*
G01*
X0590453Y0328445D02*
X0590453Y0317224D01*
G75*
G02*
X0589469Y0316240I-000984J0000000D01*
G01*
X0586614Y0316240D01*
G75*
G02*
X0585630Y0317224I0000000J0000984D01*
G01*
X0585630Y0328445D01*
G75*
G02*
X0586614Y0329429I0000984J0000000D01*
G01*
X0589469Y0329429D01*
G75*
G02*
X0590453Y0328445I0000000J-000984D01*
G01*
G37*
G36*
G01*
X0567126Y0328445D02*
X0567126Y0317224D01*
G75*
G02*
X0566142Y0316240I-000984J0000000D01*
G01*
X0563287Y0316240D01*
G75*
G02*
X0562303Y0317224I0000000J0000984D01*
G01*
X0562303Y0328445D01*
G75*
G02*
X0563287Y0329429I0000984J0000000D01*
G01*
X0566142Y0329429D01*
G75*
G02*
X0567126Y0328445I0000000J-000984D01*
G01*
G37*
D11*
X0254724Y0263386D03*
D14*
X0202756Y0471240D03*
G36*
G01*
X0205217Y0473031D02*
X0200295Y0473031D01*
G75*
G02*
X0199902Y0473425I0000000J0000394D01*
G01*
X0199902Y0476575D01*
G75*
G02*
X0200295Y0476968I0000394J0000000D01*
G01*
X0205217Y0476968D01*
G75*
G02*
X0205610Y0476575I0000000J-000394D01*
G01*
X0205610Y0473425D01*
G75*
G02*
X0205217Y0473031I-000394J0000000D01*
G01*
G37*
G36*
G01*
X0205217Y0480512D02*
X0200295Y0480512D01*
G75*
G02*
X0199902Y0480906I0000000J0000394D01*
G01*
X0199902Y0484055D01*
G75*
G02*
X0200295Y0484449I0000394J0000000D01*
G01*
X0205217Y0484449D01*
G75*
G02*
X0205610Y0484055I0000000J-000394D01*
G01*
X0205610Y0480906D01*
G75*
G02*
X0205217Y0480512I-000394J0000000D01*
G01*
G37*
X0202756Y0486240D03*
G36*
G01*
X0311949Y0439567D02*
X0315020Y0439567D01*
G75*
G02*
X0315295Y0439291I0000000J-000276D01*
G01*
X0315295Y0437087D01*
G75*
G02*
X0315020Y0436811I-000276J0000000D01*
G01*
X0311949Y0436811D01*
G75*
G02*
X0311673Y0437087I0000000J0000276D01*
G01*
X0311673Y0439291D01*
G75*
G02*
X0311949Y0439567I0000276J0000000D01*
G01*
G37*
G36*
G01*
X0311949Y0433268D02*
X0315020Y0433268D01*
G75*
G02*
X0315295Y0432992I0000000J-000276D01*
G01*
X0315295Y0430787D01*
G75*
G02*
X0315020Y0430512I-000276J0000000D01*
G01*
X0311949Y0430512D01*
G75*
G02*
X0311673Y0430787I0000000J0000276D01*
G01*
X0311673Y0432992D01*
G75*
G02*
X0311949Y0433268I0000276J0000000D01*
G01*
G37*
D17*
X0111429Y0133335D03*
X0111429Y0227824D03*
G36*
G01*
X0166142Y0325433D02*
X0166142Y0327323D01*
G75*
G02*
X0166378Y0327559I0000236J0000000D01*
G01*
X0168268Y0327559D01*
G75*
G02*
X0168504Y0327323I0000000J-000236D01*
G01*
X0168504Y0325433D01*
G75*
G02*
X0168268Y0325197I-000236J0000000D01*
G01*
X0166378Y0325197D01*
G75*
G02*
X0166142Y0325433I0000000J0000236D01*
G01*
G37*
G36*
G01*
X0166142Y0334094D02*
X0166142Y0335984D01*
G75*
G02*
X0166378Y0336220I0000236J0000000D01*
G01*
X0168268Y0336220D01*
G75*
G02*
X0168504Y0335984I0000000J-000236D01*
G01*
X0168504Y0334094D01*
G75*
G02*
X0168268Y0333858I-000236J0000000D01*
G01*
X0166378Y0333858D01*
G75*
G02*
X0166142Y0334094I0000000J0000236D01*
G01*
G37*
G36*
G01*
X0117224Y0084055D02*
X0122933Y0084055D01*
G75*
G02*
X0123917Y0083071I0000000J-000984D01*
G01*
X0123917Y0078346D01*
G75*
G02*
X0122933Y0077362I-000984J0000000D01*
G01*
X0117224Y0077362D01*
G75*
G02*
X0116240Y0078346I0000000J0000984D01*
G01*
X0116240Y0083071D01*
G75*
G02*
X0117224Y0084055I0000984J0000000D01*
G01*
G37*
D58*
X0120079Y0070866D03*
X0120079Y0061024D03*
X0120079Y0051181D03*
X0120079Y0041339D03*
G36*
G01*
X0264272Y0473031D02*
X0259350Y0473031D01*
G75*
G02*
X0258957Y0473425I0000000J0000394D01*
G01*
X0258957Y0476575D01*
G75*
G02*
X0259350Y0476968I0000394J0000000D01*
G01*
X0264272Y0476968D01*
G75*
G02*
X0264665Y0476575I0000000J-000394D01*
G01*
X0264665Y0473425D01*
G75*
G02*
X0264272Y0473031I-000394J0000000D01*
G01*
G37*
D14*
X0261811Y0471240D03*
G36*
G01*
X0264272Y0480512D02*
X0259350Y0480512D01*
G75*
G02*
X0258957Y0480906I0000000J0000394D01*
G01*
X0258957Y0484055D01*
G75*
G02*
X0259350Y0484449I0000394J0000000D01*
G01*
X0264272Y0484449D01*
G75*
G02*
X0264665Y0484055I0000000J-000394D01*
G01*
X0264665Y0480906D01*
G75*
G02*
X0264272Y0480512I-000394J0000000D01*
G01*
G37*
X0261811Y0486240D03*
D11*
X0458661Y0470472D03*
D59*
X0147736Y0401260D03*
X0147736Y0405197D03*
X0147736Y0409134D03*
X0147736Y0413071D03*
X0147736Y0417008D03*
X0147736Y0420945D03*
X0109941Y0420945D03*
X0109941Y0417008D03*
X0109941Y0413071D03*
X0109941Y0409134D03*
X0109941Y0405197D03*
X0109941Y0401260D03*
D60*
X0128839Y0411102D03*
D23*
X0128839Y0422913D03*
X0128839Y0399291D03*
D11*
X0517717Y0488189D03*
X0479921Y0341772D03*
X0479921Y0351772D03*
X0479921Y0361772D03*
X0479921Y0371772D03*
X0479921Y0381772D03*
X0489921Y0341772D03*
X0489921Y0351772D03*
X0489921Y0361772D03*
X0489921Y0371772D03*
X0489921Y0381772D03*
G36*
G01*
X0115759Y0146682D02*
X0115759Y0143611D01*
G75*
G02*
X0115484Y0143335I-000276J0000000D01*
G01*
X0113279Y0143335D01*
G75*
G02*
X0113003Y0143611I0000000J0000276D01*
G01*
X0113003Y0146682D01*
G75*
G02*
X0113279Y0146958I0000276J0000000D01*
G01*
X0115484Y0146958D01*
G75*
G02*
X0115759Y0146682I0000000J-000276D01*
G01*
G37*
G36*
G01*
X0109460Y0146682D02*
X0109460Y0143611D01*
G75*
G02*
X0109184Y0143335I-000276J0000000D01*
G01*
X0106980Y0143335D01*
G75*
G02*
X0106704Y0143611I0000000J0000276D01*
G01*
X0106704Y0146682D01*
G75*
G02*
X0106980Y0146958I0000276J0000000D01*
G01*
X0109184Y0146958D01*
G75*
G02*
X0109460Y0146682I0000000J-000276D01*
G01*
G37*
X0212598Y0486220D03*
X0412205Y0453150D03*
D24*
X0129921Y0451378D03*
X0129921Y0438386D03*
D32*
X0436073Y0047415D03*
D64*
X0476821Y0047218D03*
X0474852Y0047218D03*
D30*
X0449065Y0043084D03*
X0452510Y0041017D03*
X0447884Y0038064D03*
X0448179Y0024088D03*
G36*
G01*
X0272106Y0060000D02*
X0272106Y0057323D01*
G75*
G02*
X0271772Y0056988I-000335J0000000D01*
G01*
X0269094Y0056988D01*
G75*
G02*
X0268760Y0057323I0000000J0000335D01*
G01*
X0268760Y0060000D01*
G75*
G02*
X0269094Y0060335I0000335J0000000D01*
G01*
X0271772Y0060335D01*
G75*
G02*
X0272106Y0060000I0000000J-000335D01*
G01*
G37*
G36*
G01*
X0265886Y0060000D02*
X0265886Y0057323D01*
G75*
G02*
X0265551Y0056988I-000335J0000000D01*
G01*
X0262874Y0056988D01*
G75*
G02*
X0262539Y0057323I0000000J0000335D01*
G01*
X0262539Y0060000D01*
G75*
G02*
X0262874Y0060335I0000335J0000000D01*
G01*
X0265551Y0060335D01*
G75*
G02*
X0265886Y0060000I0000000J-000335D01*
G01*
G37*
D65*
X0568898Y0087992D03*
X0568898Y0203346D03*
D11*
X0499921Y0241772D03*
X0499921Y0251772D03*
X0499921Y0261772D03*
X0499921Y0271772D03*
X0499921Y0281772D03*
X0509921Y0241772D03*
X0509921Y0251772D03*
X0509921Y0261772D03*
X0509921Y0271772D03*
X0509921Y0281772D03*
X0494094Y0505906D03*
X0287008Y0368504D03*
G36*
G01*
X0561811Y0057480D02*
X0561811Y0061024D01*
G75*
G02*
X0562205Y0061417I0000394J0000000D01*
G01*
X0565354Y0061417D01*
G75*
G02*
X0565748Y0061024I0000000J-000394D01*
G01*
X0565748Y0057480D01*
G75*
G02*
X0565354Y0057087I-000394J0000000D01*
G01*
X0562205Y0057087D01*
G75*
G02*
X0561811Y0057480I0000000J0000394D01*
G01*
G37*
G36*
G01*
X0568504Y0057480D02*
X0568504Y0061024D01*
G75*
G02*
X0568898Y0061417I0000394J0000000D01*
G01*
X0572047Y0061417D01*
G75*
G02*
X0572441Y0061024I0000000J-000394D01*
G01*
X0572441Y0057480D01*
G75*
G02*
X0572047Y0057087I-000394J0000000D01*
G01*
X0568898Y0057087D01*
G75*
G02*
X0568504Y0057480I0000000J0000394D01*
G01*
G37*
G36*
G01*
X0157874Y0351575D02*
X0161417Y0351575D01*
G75*
G02*
X0161811Y0351181I0000000J-000394D01*
G01*
X0161811Y0348031D01*
G75*
G02*
X0161417Y0347638I-000394J0000000D01*
G01*
X0157874Y0347638D01*
G75*
G02*
X0157480Y0348031I0000000J0000394D01*
G01*
X0157480Y0351181D01*
G75*
G02*
X0157874Y0351575I0000394J0000000D01*
G01*
G37*
G36*
G01*
X0157874Y0344882D02*
X0161417Y0344882D01*
G75*
G02*
X0161811Y0344488I0000000J-000394D01*
G01*
X0161811Y0341339D01*
G75*
G02*
X0161417Y0340945I-000394J0000000D01*
G01*
X0157874Y0340945D01*
G75*
G02*
X0157480Y0341339I0000000J0000394D01*
G01*
X0157480Y0344488D01*
G75*
G02*
X0157874Y0344882I0000394J0000000D01*
G01*
G37*
D14*
X0271654Y0471240D03*
G36*
G01*
X0274114Y0473031D02*
X0269193Y0473031D01*
G75*
G02*
X0268799Y0473425I0000000J0000394D01*
G01*
X0268799Y0476575D01*
G75*
G02*
X0269193Y0476968I0000394J0000000D01*
G01*
X0274114Y0476968D01*
G75*
G02*
X0274508Y0476575I0000000J-000394D01*
G01*
X0274508Y0473425D01*
G75*
G02*
X0274114Y0473031I-000394J0000000D01*
G01*
G37*
X0271654Y0486240D03*
G36*
G01*
X0274114Y0480512D02*
X0269193Y0480512D01*
G75*
G02*
X0268799Y0480906I0000000J0000394D01*
G01*
X0268799Y0484055D01*
G75*
G02*
X0269193Y0484449I0000394J0000000D01*
G01*
X0274114Y0484449D01*
G75*
G02*
X0274508Y0484055I0000000J-000394D01*
G01*
X0274508Y0480906D01*
G75*
G02*
X0274114Y0480512I-000394J0000000D01*
G01*
G37*
G36*
G01*
X0561811Y0033858D02*
X0561811Y0037402D01*
G75*
G02*
X0562205Y0037795I0000394J0000000D01*
G01*
X0565354Y0037795D01*
G75*
G02*
X0565748Y0037402I0000000J-000394D01*
G01*
X0565748Y0033858D01*
G75*
G02*
X0565354Y0033465I-000394J0000000D01*
G01*
X0562205Y0033465D01*
G75*
G02*
X0561811Y0033858I0000000J0000394D01*
G01*
G37*
G36*
G01*
X0568504Y0033858D02*
X0568504Y0037402D01*
G75*
G02*
X0568898Y0037795I0000394J0000000D01*
G01*
X0572047Y0037795D01*
G75*
G02*
X0572441Y0037402I0000000J-000394D01*
G01*
X0572441Y0033858D01*
G75*
G02*
X0572047Y0033465I-000394J0000000D01*
G01*
X0568898Y0033465D01*
G75*
G02*
X0568504Y0033858I0000000J0000394D01*
G01*
G37*
G36*
G01*
X0110247Y0186958D02*
X0110247Y0182076D01*
G75*
G02*
X0109736Y0181564I-000512J0000000D01*
G01*
X0105641Y0181564D01*
G75*
G02*
X0105129Y0182076I0000000J0000512D01*
G01*
X0105129Y0186958D01*
G75*
G02*
X0105641Y0187469I0000512J0000000D01*
G01*
X0109736Y0187469D01*
G75*
G02*
X0110247Y0186958I0000000J-000512D01*
G01*
G37*
G36*
G01*
X0117728Y0186958D02*
X0117728Y0182076D01*
G75*
G02*
X0117216Y0181564I-000512J0000000D01*
G01*
X0113122Y0181564D01*
G75*
G02*
X0112610Y0182076I0000000J0000512D01*
G01*
X0112610Y0186958D01*
G75*
G02*
X0113122Y0187469I0000512J0000000D01*
G01*
X0117216Y0187469D01*
G75*
G02*
X0117728Y0186958I0000000J-000512D01*
G01*
G37*
G36*
G01*
X0257874Y0045591D02*
X0257874Y0052835D01*
G75*
G02*
X0258189Y0053150I0000315J0000000D01*
G01*
X0260709Y0053150D01*
G75*
G02*
X0261024Y0052835I0000000J-000315D01*
G01*
X0261024Y0045591D01*
G75*
G02*
X0260709Y0045276I-000315J0000000D01*
G01*
X0258189Y0045276D01*
G75*
G02*
X0257874Y0045591I0000000J0000315D01*
G01*
G37*
G36*
G01*
X0274409Y0045591D02*
X0274409Y0052835D01*
G75*
G02*
X0274724Y0053150I0000315J0000000D01*
G01*
X0277244Y0053150D01*
G75*
G02*
X0277559Y0052835I0000000J-000315D01*
G01*
X0277559Y0045591D01*
G75*
G02*
X0277244Y0045276I-000315J0000000D01*
G01*
X0274724Y0045276D01*
G75*
G02*
X0274409Y0045591I0000000J0000315D01*
G01*
G37*
G36*
G01*
X0444291Y0060610D02*
X0441614Y0060610D01*
G75*
G02*
X0441280Y0060945I0000000J0000335D01*
G01*
X0441280Y0063622D01*
G75*
G02*
X0441614Y0063957I0000335J0000000D01*
G01*
X0444291Y0063957D01*
G75*
G02*
X0444626Y0063622I0000000J-000335D01*
G01*
X0444626Y0060945D01*
G75*
G02*
X0444291Y0060610I-000335J0000000D01*
G01*
G37*
G36*
G01*
X0444291Y0066831D02*
X0441614Y0066831D01*
G75*
G02*
X0441280Y0067165I0000000J0000335D01*
G01*
X0441280Y0069843D01*
G75*
G02*
X0441614Y0070177I0000335J0000000D01*
G01*
X0444291Y0070177D01*
G75*
G02*
X0444626Y0069843I0000000J-000335D01*
G01*
X0444626Y0067165D01*
G75*
G02*
X0444291Y0066831I-000335J0000000D01*
G01*
G37*
D11*
X0174803Y0299606D03*
G36*
G01*
X0203543Y0325433D02*
X0203543Y0327323D01*
G75*
G02*
X0203780Y0327559I0000236J0000000D01*
G01*
X0205669Y0327559D01*
G75*
G02*
X0205906Y0327323I0000000J-000236D01*
G01*
X0205906Y0325433D01*
G75*
G02*
X0205669Y0325197I-000236J0000000D01*
G01*
X0203780Y0325197D01*
G75*
G02*
X0203543Y0325433I0000000J0000236D01*
G01*
G37*
G36*
G01*
X0203543Y0334094D02*
X0203543Y0335984D01*
G75*
G02*
X0203780Y0336220I0000236J0000000D01*
G01*
X0205669Y0336220D01*
G75*
G02*
X0205906Y0335984I0000000J-000236D01*
G01*
X0205906Y0334094D01*
G75*
G02*
X0205669Y0333858I-000236J0000000D01*
G01*
X0203780Y0333858D01*
G75*
G02*
X0203543Y0334094I0000000J0000236D01*
G01*
G37*
X0108268Y0486220D03*
D64*
X0443061Y0368301D03*
X0439616Y0368301D03*
X0436860Y0368301D03*
X0435088Y0438478D03*
X0444537Y0438478D03*
D11*
X0120079Y0468898D03*
X0108268Y0301181D03*
G36*
G01*
X0161673Y0405177D02*
X0158996Y0405177D01*
G75*
G02*
X0158661Y0405512I0000000J0000335D01*
G01*
X0158661Y0408189D01*
G75*
G02*
X0158996Y0408524I0000335J0000000D01*
G01*
X0161673Y0408524D01*
G75*
G02*
X0162008Y0408189I0000000J-000335D01*
G01*
X0162008Y0405512D01*
G75*
G02*
X0161673Y0405177I-000335J0000000D01*
G01*
G37*
G36*
G01*
X0161673Y0411398D02*
X0158996Y0411398D01*
G75*
G02*
X0158661Y0411732I0000000J0000335D01*
G01*
X0158661Y0414409D01*
G75*
G02*
X0158996Y0414744I0000335J0000000D01*
G01*
X0161673Y0414744D01*
G75*
G02*
X0162008Y0414409I0000000J-000335D01*
G01*
X0162008Y0411732D01*
G75*
G02*
X0161673Y0411398I-000335J0000000D01*
G01*
G37*
X0108268Y0265748D03*
X0482283Y0488189D03*
D14*
X0129921Y0471220D03*
G36*
G01*
X0132382Y0473012D02*
X0127461Y0473012D01*
G75*
G02*
X0127067Y0473406I0000000J0000394D01*
G01*
X0127067Y0476555D01*
G75*
G02*
X0127461Y0476949I0000394J0000000D01*
G01*
X0132382Y0476949D01*
G75*
G02*
X0132776Y0476555I0000000J-000394D01*
G01*
X0132776Y0473406D01*
G75*
G02*
X0132382Y0473012I-000394J0000000D01*
G01*
G37*
X0129921Y0486220D03*
G36*
G01*
X0132382Y0480492D02*
X0127461Y0480492D01*
G75*
G02*
X0127067Y0480886I0000000J0000394D01*
G01*
X0127067Y0484036D01*
G75*
G02*
X0127461Y0484429I0000394J0000000D01*
G01*
X0132382Y0484429D01*
G75*
G02*
X0132776Y0484036I0000000J-000394D01*
G01*
X0132776Y0480886D01*
G75*
G02*
X0132382Y0480492I-000394J0000000D01*
G01*
G37*
D11*
X0292913Y0468898D03*
G36*
G01*
X0218898Y0330177D02*
X0218898Y0332815D01*
G75*
G02*
X0219154Y0333071I0000256J0000000D01*
G01*
X0221201Y0333071D01*
G75*
G02*
X0221457Y0332815I0000000J-000256D01*
G01*
X0221457Y0330177D01*
G75*
G02*
X0221201Y0329921I-000256J0000000D01*
G01*
X0219154Y0329921D01*
G75*
G02*
X0218898Y0330177I0000000J0000256D01*
G01*
G37*
G36*
G01*
X0222736Y0330098D02*
X0222736Y0332894D01*
G75*
G02*
X0222913Y0333071I0000177J0000000D01*
G01*
X0224331Y0333071D01*
G75*
G02*
X0224508Y0332894I0000000J-000177D01*
G01*
X0224508Y0330098D01*
G75*
G02*
X0224331Y0329921I-000177J0000000D01*
G01*
X0222913Y0329921D01*
G75*
G02*
X0222736Y0330098I0000000J0000177D01*
G01*
G37*
G36*
G01*
X0225886Y0330098D02*
X0225886Y0332894D01*
G75*
G02*
X0226063Y0333071I0000177J0000000D01*
G01*
X0227480Y0333071D01*
G75*
G02*
X0227657Y0332894I0000000J-000177D01*
G01*
X0227657Y0330098D01*
G75*
G02*
X0227480Y0329921I-000177J0000000D01*
G01*
X0226063Y0329921D01*
G75*
G02*
X0225886Y0330098I0000000J0000177D01*
G01*
G37*
G36*
G01*
X0228937Y0330177D02*
X0228937Y0332815D01*
G75*
G02*
X0229193Y0333071I0000256J0000000D01*
G01*
X0231240Y0333071D01*
G75*
G02*
X0231496Y0332815I0000000J-000256D01*
G01*
X0231496Y0330177D01*
G75*
G02*
X0231240Y0329921I-000256J0000000D01*
G01*
X0229193Y0329921D01*
G75*
G02*
X0228937Y0330177I0000000J0000256D01*
G01*
G37*
G36*
G01*
X0228937Y0337264D02*
X0228937Y0339902D01*
G75*
G02*
X0229193Y0340157I0000256J0000000D01*
G01*
X0231240Y0340157D01*
G75*
G02*
X0231496Y0339902I0000000J-000256D01*
G01*
X0231496Y0337264D01*
G75*
G02*
X0231240Y0337008I-000256J0000000D01*
G01*
X0229193Y0337008D01*
G75*
G02*
X0228937Y0337264I0000000J0000256D01*
G01*
G37*
G36*
G01*
X0225886Y0337185D02*
X0225886Y0339980D01*
G75*
G02*
X0226063Y0340157I0000177J0000000D01*
G01*
X0227480Y0340157D01*
G75*
G02*
X0227657Y0339980I0000000J-000177D01*
G01*
X0227657Y0337185D01*
G75*
G02*
X0227480Y0337008I-000177J0000000D01*
G01*
X0226063Y0337008D01*
G75*
G02*
X0225886Y0337185I0000000J0000177D01*
G01*
G37*
G36*
G01*
X0222736Y0337185D02*
X0222736Y0339980D01*
G75*
G02*
X0222913Y0340157I0000177J0000000D01*
G01*
X0224331Y0340157D01*
G75*
G02*
X0224508Y0339980I0000000J-000177D01*
G01*
X0224508Y0337185D01*
G75*
G02*
X0224331Y0337008I-000177J0000000D01*
G01*
X0222913Y0337008D01*
G75*
G02*
X0222736Y0337185I0000000J0000177D01*
G01*
G37*
G36*
G01*
X0218898Y0337264D02*
X0218898Y0339902D01*
G75*
G02*
X0219154Y0340157I0000256J0000000D01*
G01*
X0221201Y0340157D01*
G75*
G02*
X0221457Y0339902I0000000J-000256D01*
G01*
X0221457Y0337264D01*
G75*
G02*
X0221201Y0337008I-000256J0000000D01*
G01*
X0219154Y0337008D01*
G75*
G02*
X0218898Y0337264I0000000J0000256D01*
G01*
G37*
X0162992Y0299606D03*
G36*
G01*
X0110247Y0155461D02*
X0110247Y0150580D01*
G75*
G02*
X0109736Y0150068I-000512J0000000D01*
G01*
X0105641Y0150068D01*
G75*
G02*
X0105129Y0150580I0000000J0000512D01*
G01*
X0105129Y0155461D01*
G75*
G02*
X0105641Y0155973I0000512J0000000D01*
G01*
X0109736Y0155973D01*
G75*
G02*
X0110247Y0155461I0000000J-000512D01*
G01*
G37*
G36*
G01*
X0117728Y0155461D02*
X0117728Y0150580D01*
G75*
G02*
X0117216Y0150068I-000512J0000000D01*
G01*
X0113122Y0150068D01*
G75*
G02*
X0112610Y0150580I0000000J0000512D01*
G01*
X0112610Y0155461D01*
G75*
G02*
X0113122Y0155973I0000512J0000000D01*
G01*
X0117216Y0155973D01*
G75*
G02*
X0117728Y0155461I0000000J-000512D01*
G01*
G37*
D14*
X0302756Y0444075D03*
G36*
G01*
X0305217Y0445866D02*
X0300295Y0445866D01*
G75*
G02*
X0299902Y0446260I0000000J0000394D01*
G01*
X0299902Y0449409D01*
G75*
G02*
X0300295Y0449803I0000394J0000000D01*
G01*
X0305217Y0449803D01*
G75*
G02*
X0305610Y0449409I0000000J-000394D01*
G01*
X0305610Y0446260D01*
G75*
G02*
X0305217Y0445866I-000394J0000000D01*
G01*
G37*
X0302756Y0459075D03*
G36*
G01*
X0305217Y0453347D02*
X0300295Y0453347D01*
G75*
G02*
X0299902Y0453740I0000000J0000394D01*
G01*
X0299902Y0456890D01*
G75*
G02*
X0300295Y0457284I0000394J0000000D01*
G01*
X0305217Y0457284D01*
G75*
G02*
X0305610Y0456890I0000000J-000394D01*
G01*
X0305610Y0453740D01*
G75*
G02*
X0305217Y0453347I-000394J0000000D01*
G01*
G37*
G36*
G01*
X0604764Y0429724D02*
X0607835Y0429724D01*
G75*
G02*
X0608110Y0429449I0000000J-000276D01*
G01*
X0608110Y0427244D01*
G75*
G02*
X0607835Y0426969I-000276J0000000D01*
G01*
X0604764Y0426969D01*
G75*
G02*
X0604488Y0427244I0000000J0000276D01*
G01*
X0604488Y0429449D01*
G75*
G02*
X0604764Y0429724I0000276J0000000D01*
G01*
G37*
G36*
G01*
X0604764Y0423425D02*
X0607835Y0423425D01*
G75*
G02*
X0608110Y0423150I0000000J-000276D01*
G01*
X0608110Y0420945D01*
G75*
G02*
X0607835Y0420669I-000276J0000000D01*
G01*
X0604764Y0420669D01*
G75*
G02*
X0604488Y0420945I0000000J0000276D01*
G01*
X0604488Y0423150D01*
G75*
G02*
X0604764Y0423425I0000276J0000000D01*
G01*
G37*
G36*
G01*
X0587047Y0225000D02*
X0590118Y0225000D01*
G75*
G02*
X0590394Y0224724I0000000J-000276D01*
G01*
X0590394Y0222520D01*
G75*
G02*
X0590118Y0222244I-000276J0000000D01*
G01*
X0587047Y0222244D01*
G75*
G02*
X0586772Y0222520I0000000J0000276D01*
G01*
X0586772Y0224724D01*
G75*
G02*
X0587047Y0225000I0000276J0000000D01*
G01*
G37*
G36*
G01*
X0587047Y0218701D02*
X0590118Y0218701D01*
G75*
G02*
X0590394Y0218425I0000000J-000276D01*
G01*
X0590394Y0216220D01*
G75*
G02*
X0590118Y0215945I-000276J0000000D01*
G01*
X0587047Y0215945D01*
G75*
G02*
X0586772Y0216220I0000000J0000276D01*
G01*
X0586772Y0218425D01*
G75*
G02*
X0587047Y0218701I0000276J0000000D01*
G01*
G37*
X0387795Y0490531D03*
G36*
G01*
X0390256Y0492323D02*
X0385335Y0492323D01*
G75*
G02*
X0384941Y0492717I0000000J0000394D01*
G01*
X0384941Y0495866D01*
G75*
G02*
X0385335Y0496260I0000394J0000000D01*
G01*
X0390256Y0496260D01*
G75*
G02*
X0390650Y0495866I0000000J-000394D01*
G01*
X0390650Y0492717D01*
G75*
G02*
X0390256Y0492323I-000394J0000000D01*
G01*
G37*
G36*
G01*
X0390256Y0499803D02*
X0385335Y0499803D01*
G75*
G02*
X0384941Y0500197I0000000J0000394D01*
G01*
X0384941Y0503347D01*
G75*
G02*
X0385335Y0503740I0000394J0000000D01*
G01*
X0390256Y0503740D01*
G75*
G02*
X0390650Y0503347I0000000J-000394D01*
G01*
X0390650Y0500197D01*
G75*
G02*
X0390256Y0499803I-000394J0000000D01*
G01*
G37*
X0387795Y0505531D03*
G36*
G01*
X0368996Y0473031D02*
X0364075Y0473031D01*
G75*
G02*
X0363681Y0473425I0000000J0000394D01*
G01*
X0363681Y0476575D01*
G75*
G02*
X0364075Y0476968I0000394J0000000D01*
G01*
X0368996Y0476968D01*
G75*
G02*
X0369390Y0476575I0000000J-000394D01*
G01*
X0369390Y0473425D01*
G75*
G02*
X0368996Y0473031I-000394J0000000D01*
G01*
G37*
X0366535Y0471240D03*
X0366535Y0486240D03*
G36*
G01*
X0368996Y0480512D02*
X0364075Y0480512D01*
G75*
G02*
X0363681Y0480906I0000000J0000394D01*
G01*
X0363681Y0484055D01*
G75*
G02*
X0364075Y0484449I0000394J0000000D01*
G01*
X0368996Y0484449D01*
G75*
G02*
X0369390Y0484055I0000000J-000394D01*
G01*
X0369390Y0480906D01*
G75*
G02*
X0368996Y0480512I-000394J0000000D01*
G01*
G37*
G36*
G01*
X0253346Y0343799D02*
X0252165Y0343799D01*
G75*
G02*
X0251575Y0344390I0000000J0000591D01*
G01*
X0251575Y0349016D01*
G75*
G02*
X0252165Y0349606I0000591J0000000D01*
G01*
X0253346Y0349606D01*
G75*
G02*
X0253937Y0349016I0000000J-000591D01*
G01*
X0253937Y0344390D01*
G75*
G02*
X0253346Y0343799I-000591J0000000D01*
G01*
G37*
G36*
G01*
X0257087Y0351181D02*
X0255906Y0351181D01*
G75*
G02*
X0255315Y0351772I0000000J0000591D01*
G01*
X0255315Y0356398D01*
G75*
G02*
X0255906Y0356988I0000591J0000000D01*
G01*
X0257087Y0356988D01*
G75*
G02*
X0257677Y0356398I0000000J-000591D01*
G01*
X0257677Y0351772D01*
G75*
G02*
X0257087Y0351181I-000591J0000000D01*
G01*
G37*
G36*
G01*
X0260827Y0343799D02*
X0259646Y0343799D01*
G75*
G02*
X0259055Y0344390I0000000J0000591D01*
G01*
X0259055Y0349016D01*
G75*
G02*
X0259646Y0349606I0000591J0000000D01*
G01*
X0260827Y0349606D01*
G75*
G02*
X0261417Y0349016I0000000J-000591D01*
G01*
X0261417Y0344390D01*
G75*
G02*
X0260827Y0343799I-000591J0000000D01*
G01*
G37*
D75*
X0133238Y0270861D03*
X0138183Y0270861D03*
X0194777Y0270861D03*
D76*
X0230427Y0257096D03*
G36*
G01*
X0561811Y0049606D02*
X0561811Y0053150D01*
G75*
G02*
X0562205Y0053543I0000394J0000000D01*
G01*
X0565354Y0053543D01*
G75*
G02*
X0565748Y0053150I0000000J-000394D01*
G01*
X0565748Y0049606D01*
G75*
G02*
X0565354Y0049213I-000394J0000000D01*
G01*
X0562205Y0049213D01*
G75*
G02*
X0561811Y0049606I0000000J0000394D01*
G01*
G37*
G36*
G01*
X0568504Y0049606D02*
X0568504Y0053150D01*
G75*
G02*
X0568898Y0053543I0000394J0000000D01*
G01*
X0572047Y0053543D01*
G75*
G02*
X0572441Y0053150I0000000J-000394D01*
G01*
X0572441Y0049606D01*
G75*
G02*
X0572047Y0049213I-000394J0000000D01*
G01*
X0568898Y0049213D01*
G75*
G02*
X0568504Y0049606I0000000J0000394D01*
G01*
G37*
G36*
G01*
X0195276Y0351575D02*
X0198819Y0351575D01*
G75*
G02*
X0199213Y0351181I0000000J-000394D01*
G01*
X0199213Y0348031D01*
G75*
G02*
X0198819Y0347638I-000394J0000000D01*
G01*
X0195276Y0347638D01*
G75*
G02*
X0194882Y0348031I0000000J0000394D01*
G01*
X0194882Y0351181D01*
G75*
G02*
X0195276Y0351575I0000394J0000000D01*
G01*
G37*
G36*
G01*
X0195276Y0344882D02*
X0198819Y0344882D01*
G75*
G02*
X0199213Y0344488I0000000J-000394D01*
G01*
X0199213Y0341339D01*
G75*
G02*
X0198819Y0340945I-000394J0000000D01*
G01*
X0195276Y0340945D01*
G75*
G02*
X0194882Y0341339I0000000J0000394D01*
G01*
X0194882Y0344488D01*
G75*
G02*
X0195276Y0344882I0000394J0000000D01*
G01*
G37*
D11*
X0407087Y0251969D03*
G36*
G01*
X0244587Y0473031D02*
X0239665Y0473031D01*
G75*
G02*
X0239272Y0473425I0000000J0000394D01*
G01*
X0239272Y0476575D01*
G75*
G02*
X0239665Y0476968I0000394J0000000D01*
G01*
X0244587Y0476968D01*
G75*
G02*
X0244980Y0476575I0000000J-000394D01*
G01*
X0244980Y0473425D01*
G75*
G02*
X0244587Y0473031I-000394J0000000D01*
G01*
G37*
D14*
X0242126Y0471240D03*
X0242126Y0486240D03*
G36*
G01*
X0244587Y0480512D02*
X0239665Y0480512D01*
G75*
G02*
X0239272Y0480906I0000000J0000394D01*
G01*
X0239272Y0484055D01*
G75*
G02*
X0239665Y0484449I0000394J0000000D01*
G01*
X0244587Y0484449D01*
G75*
G02*
X0244980Y0484055I0000000J-000394D01*
G01*
X0244980Y0480906D01*
G75*
G02*
X0244587Y0480512I-000394J0000000D01*
G01*
G37*
D11*
X0292913Y0486220D03*
X0435039Y0505906D03*
D64*
X0392297Y0066683D03*
D32*
X0392100Y0025935D03*
X0392100Y0027904D03*
D30*
X0387966Y0053691D03*
X0385899Y0050246D03*
X0382946Y0054872D03*
X0368970Y0054577D03*
D59*
X0363878Y0433071D03*
X0363878Y0437008D03*
X0363878Y0440945D03*
X0363878Y0444882D03*
X0363878Y0448819D03*
X0363878Y0452756D03*
X0326083Y0452756D03*
X0326083Y0448819D03*
X0326083Y0444882D03*
X0326083Y0440945D03*
X0326083Y0437008D03*
X0326083Y0433071D03*
D23*
X0344980Y0431102D03*
D60*
X0344980Y0442913D03*
D23*
X0344980Y0454724D03*
D11*
X0446850Y0505906D03*
D14*
X0251969Y0471240D03*
G36*
G01*
X0254429Y0473031D02*
X0249508Y0473031D01*
G75*
G02*
X0249114Y0473425I0000000J0000394D01*
G01*
X0249114Y0476575D01*
G75*
G02*
X0249508Y0476968I0000394J0000000D01*
G01*
X0254429Y0476968D01*
G75*
G02*
X0254823Y0476575I0000000J-000394D01*
G01*
X0254823Y0473425D01*
G75*
G02*
X0254429Y0473031I-000394J0000000D01*
G01*
G37*
G36*
G01*
X0254429Y0480512D02*
X0249508Y0480512D01*
G75*
G02*
X0249114Y0480906I0000000J0000394D01*
G01*
X0249114Y0484055D01*
G75*
G02*
X0249508Y0484449I0000394J0000000D01*
G01*
X0254429Y0484449D01*
G75*
G02*
X0254823Y0484055I0000000J-000394D01*
G01*
X0254823Y0480906D01*
G75*
G02*
X0254429Y0480512I-000394J0000000D01*
G01*
G37*
X0251969Y0486240D03*
X0451150Y0258470D02*
G01*
G75*
D271*
X0432843Y0241935D02*
D03*
X0432843Y0249415D02*
D03*
D272*
X0442489Y0205812D02*
D03*
X0442489Y0223529D02*
D03*
D273*
X0350855Y0252171D02*
D03*
X0350855Y0245872D02*
D03*
D274*
X0434122Y0254927D02*
D03*
X0441603Y0254927D02*
D03*
D129*
X0438355Y0243116D02*
D03*
X0438355Y0249415D02*
D03*
D275*
X0336386Y0227466D02*
D03*
X0336386Y0223726D02*
D03*
X0336386Y0219986D02*
D03*
X0345835Y0219986D02*
D03*
X0345835Y0223726D02*
D03*
X0345835Y0227466D02*
D03*
X0413552Y0227466D02*
D03*
X0413552Y0223726D02*
D03*
X0413552Y0219986D02*
D03*
X0404103Y0219986D02*
D03*
X0404103Y0223726D02*
D03*
X0404103Y0227466D02*
D03*
X0421032Y0227466D02*
D03*
X0421032Y0223726D02*
D03*
X0421032Y0219986D02*
D03*
X0430481Y0219986D02*
D03*
X0430481Y0223726D02*
D03*
X0430481Y0227466D02*
D03*
X0396622Y0227466D02*
D03*
X0396622Y0223726D02*
D03*
X0396622Y0219986D02*
D03*
X0387174Y0219986D02*
D03*
X0387174Y0223726D02*
D03*
X0387174Y0227466D02*
D03*
X0370245Y0227466D02*
D03*
X0370245Y0223726D02*
D03*
X0370245Y0219986D02*
D03*
X0379693Y0219986D02*
D03*
X0379693Y0223726D02*
D03*
X0379693Y0227466D02*
D03*
X0362764Y0227466D02*
D03*
X0362764Y0223726D02*
D03*
X0362764Y0219986D02*
D03*
X0353315Y0219986D02*
D03*
X0353315Y0223726D02*
D03*
X0353315Y0227466D02*
D03*
D276*
X0336681Y0252860D02*
D03*
X0336681Y0245773D02*
D03*
X0346721Y0245773D02*
D03*
X0346721Y0252860D02*
D03*
X0411780Y0252860D02*
D03*
X0411780Y0245773D02*
D03*
X0401741Y0245773D02*
D03*
X0401741Y0252860D02*
D03*
X0416307Y0252860D02*
D03*
X0416307Y0245773D02*
D03*
X0426347Y0245773D02*
D03*
X0426347Y0252860D02*
D03*
X0396721Y0252860D02*
D03*
X0396721Y0245773D02*
D03*
X0386682Y0245773D02*
D03*
X0386682Y0252860D02*
D03*
X0369851Y0252860D02*
D03*
X0369851Y0245773D02*
D03*
X0379890Y0245773D02*
D03*
X0379890Y0252860D02*
D03*
X0364929Y0252860D02*
D03*
X0364929Y0245773D02*
D03*
X0354890Y0245773D02*
D03*
X0354890Y0252860D02*
D03*
X0401839Y0239080D02*
D03*
X0401839Y0231994D02*
D03*
X0411878Y0231994D02*
D03*
X0411878Y0239080D02*
D03*
X0427823Y0239080D02*
D03*
X0427823Y0231994D02*
D03*
X0417784Y0231994D02*
D03*
X0417784Y0239080D02*
D03*
X0386583Y0239080D02*
D03*
X0386583Y0231994D02*
D03*
X0396622Y0231994D02*
D03*
X0396622Y0239080D02*
D03*
X0379890Y0239080D02*
D03*
X0379890Y0231994D02*
D03*
X0369851Y0231994D02*
D03*
X0369851Y0239080D02*
D03*
X0354595Y0239080D02*
D03*
X0354595Y0231994D02*
D03*
X0364634Y0231994D02*
D03*
X0364634Y0239080D02*
D03*
X0347213Y0238982D02*
D03*
X0347213Y0231895D02*
D03*
X0337174Y0231895D02*
D03*
X0337174Y0238982D02*
D03*
D277*
X0343276Y0245773D02*
D03*
X0340126Y0245773D02*
D03*
X0340126Y0252860D02*
D03*
X0343276Y0252860D02*
D03*
X0408335Y0252860D02*
D03*
X0405185Y0252860D02*
D03*
X0405185Y0245773D02*
D03*
X0408335Y0245773D02*
D03*
X0422902Y0245773D02*
D03*
X0419752Y0245773D02*
D03*
X0419752Y0252860D02*
D03*
X0422902Y0252860D02*
D03*
X0393276Y0252860D02*
D03*
X0390126Y0252860D02*
D03*
X0390126Y0245773D02*
D03*
X0393276Y0245773D02*
D03*
X0376445Y0245773D02*
D03*
X0373296Y0245773D02*
D03*
X0373296Y0252860D02*
D03*
X0376445Y0252860D02*
D03*
X0361485Y0252860D02*
D03*
X0358335Y0252860D02*
D03*
X0358335Y0245773D02*
D03*
X0361485Y0245773D02*
D03*
X0408433Y0231994D02*
D03*
X0405284Y0231994D02*
D03*
X0405284Y0239080D02*
D03*
X0408433Y0239080D02*
D03*
X0424378Y0239080D02*
D03*
X0421229Y0239080D02*
D03*
X0421229Y0231994D02*
D03*
X0424378Y0231994D02*
D03*
X0393177Y0231994D02*
D03*
X0390028Y0231994D02*
D03*
X0390028Y0239080D02*
D03*
X0393177Y0239080D02*
D03*
X0376445Y0239080D02*
D03*
X0373296Y0239080D02*
D03*
X0373296Y0231994D02*
D03*
X0376445Y0231994D02*
D03*
X0361189Y0231994D02*
D03*
X0358040Y0231994D02*
D03*
X0358040Y0239080D02*
D03*
X0361189Y0239080D02*
D03*
X0343768Y0238982D02*
D03*
X0340619Y0238982D02*
D03*
X0340619Y0231895D02*
D03*
X0343768Y0231895D02*
D03*
D278*
X0332646Y0252722D02*
D03*
X0332646Y0246501D02*
D03*
X0367193Y0211285D02*
D03*
X0367193Y0205064D02*
D03*
X0371524Y0205064D02*
D03*
X0371524Y0211285D02*
D03*
X0375855Y0211285D02*
D03*
X0375855Y0205064D02*
D03*
X0380185Y0205064D02*
D03*
X0380185Y0211285D02*
D03*
X0362863Y0211285D02*
D03*
X0362863Y0205064D02*
D03*
X0358532Y0205064D02*
D03*
X0358532Y0211285D02*
D03*
X0354201Y0211285D02*
D03*
X0354201Y0205064D02*
D03*
X0349871Y0205064D02*
D03*
X0349871Y0211285D02*
D03*
X0397508Y0211285D02*
D03*
X0397508Y0205064D02*
D03*
X0393177Y0205064D02*
D03*
X0393177Y0211285D02*
D03*
X0388847Y0211285D02*
D03*
X0388847Y0205064D02*
D03*
X0384516Y0205064D02*
D03*
X0384516Y0211285D02*
D03*
X0432154Y0211285D02*
D03*
X0432154Y0205064D02*
D03*
X0427823Y0205064D02*
D03*
X0427823Y0211285D02*
D03*
X0423493Y0211285D02*
D03*
X0423493Y0205064D02*
D03*
X0419162Y0205064D02*
D03*
X0419162Y0211285D02*
D03*
X0414831Y0211285D02*
D03*
X0414831Y0205064D02*
D03*
X0410500Y0205064D02*
D03*
X0410500Y0211285D02*
D03*
X0406170Y0211285D02*
D03*
X0406170Y0205064D02*
D03*
X0401839Y0205064D02*
D03*
X0401839Y0211285D02*
D03*
X0332646Y0239336D02*
D03*
X0332646Y0233116D02*
D03*
X0345540Y0211285D02*
D03*
X0345540Y0205064D02*
D03*
X0341209Y0205064D02*
D03*
X0341209Y0211285D02*
D03*
X0336878Y0211285D02*
D03*
X0336878Y0205064D02*
D03*
X0332548Y0205064D02*
D03*
X0332548Y0211285D02*
D03*
D279*
X0448591Y0244198D02*
D03*
X0442292Y0244198D02*
D03*
X0442292Y0248726D02*
D03*
X0448591Y0248726D02*
D03*
X0441307Y0235242D02*
D03*
X0447607Y0235242D02*
D03*
X0441307Y0230616D02*
D03*
X0447607Y0230616D02*
D03*
D280*
X0435993Y0229730D02*
D03*
X0435993Y0237210D02*
D03*
D281*
X0448355Y0239671D02*
D03*
X0442134Y0239671D02*
D03*
X0216535Y0272638D02*
G01*
G75*
D343*
X0163838Y0186221D02*
D03*
X0157618Y0186221D02*
D03*
D278*
X0108858Y0113721D02*
D03*
X0108858Y0119941D02*
D03*
X0108759Y0124252D02*
D03*
X0108759Y0130473D02*
D03*
D274*
X0122933Y0108071D02*
D03*
X0130413Y0108071D02*
D03*
X0110531Y0108071D02*
D03*
X0118012Y0108071D02*
D03*
D273*
X0124606Y0153937D02*
D03*
X0124606Y0147638D02*
D03*
X0119980Y0153937D02*
D03*
X0119980Y0147638D02*
D03*
X0139567Y0236713D02*
D03*
X0139567Y0230414D02*
D03*
X0152854Y0239567D02*
D03*
X0152854Y0245866D02*
D03*
X0109350Y0154429D02*
D03*
X0109350Y0148130D02*
D03*
X0109055Y0134547D02*
D03*
X0109055Y0140847D02*
D03*
X0114370Y0154429D02*
D03*
X0114370Y0148130D02*
D03*
D344*
X0153759Y0228544D02*
D03*
X0144507Y0232284D02*
D03*
X0148444Y0252855D02*
D03*
X0157696Y0249114D02*
D03*
D344*
X0153759Y0236024D02*
D03*
X0157696Y0256595D02*
D03*
D345*
X0147440Y0247165D02*
D03*
X0143700Y0237914D02*
D03*
X0145767Y0145354D02*
D03*
X0149508Y0154606D02*
D03*
X0188878Y0259961D02*
D03*
X0192618Y0269213D02*
D03*
X0206594Y0269213D02*
D03*
X0202854Y0259961D02*
D03*
X0179035Y0269213D02*
D03*
X0175295Y0259961D02*
D03*
X0166535Y0236476D02*
D03*
X0162795Y0227224D02*
D03*
X0199507Y0241260D02*
D03*
X0195767Y0232008D02*
D03*
D345*
X0139960Y0247165D02*
D03*
X0153248Y0145354D02*
D03*
X0196358Y0259961D02*
D03*
X0210334Y0259961D02*
D03*
X0182775Y0259961D02*
D03*
X0159055Y0236476D02*
D03*
X0203248Y0232008D02*
D03*
D163*
X0179029Y0269336D02*
D03*
X0122434Y0269336D02*
D03*
X0117490Y0269336D02*
D03*
D164*
X0214679Y0255571D02*
D03*
D346*
X0139370Y0256693D02*
D03*
X0139370Y0268111D02*
D03*
D347*
X0137795Y0161851D02*
D03*
X0155905Y0161851D02*
D03*
X0137795Y0220118D02*
D03*
X0155905Y0220118D02*
D03*
X0128543Y0220118D02*
D03*
X0110433Y0220118D02*
D03*
X0128543Y0161851D02*
D03*
X0110433Y0161851D02*
D03*
X0165157Y0161851D02*
D03*
X0183267Y0161851D02*
D03*
X0210629Y0161851D02*
D03*
X0192519Y0161851D02*
D03*
X0183661Y0220118D02*
D03*
X0165551Y0220118D02*
D03*
X0193307Y0220118D02*
D03*
X0211417Y0220118D02*
D03*
D348*
X0146850Y0161851D02*
D03*
X0146850Y0220118D02*
D03*
X0119488Y0220118D02*
D03*
X0119488Y0161851D02*
D03*
X0174212Y0161851D02*
D03*
X0201574Y0161851D02*
D03*
X0174606Y0220118D02*
D03*
X0202362Y0220118D02*
D03*
D349*
X0146850Y0186260D02*
D03*
X0146850Y0195709D02*
D03*
X0119488Y0195709D02*
D03*
X0119488Y0186260D02*
D03*
X0174212Y0186260D02*
D03*
X0201574Y0186260D02*
D03*
X0174606Y0195709D02*
D03*
X0202362Y0195709D02*
D03*
D350*
X0184941Y0195610D02*
D03*
X0192027Y0195610D02*
D03*
X0192027Y0185571D02*
D03*
X0184941Y0185571D02*
D03*
X0205905Y0149055D02*
D03*
X0212992Y0149055D02*
D03*
X0212992Y0139016D02*
D03*
X0205905Y0139016D02*
D03*
X0129232Y0186063D02*
D03*
X0136319Y0186063D02*
D03*
X0136319Y0196103D02*
D03*
X0129232Y0196103D02*
D03*
D351*
X0184941Y0192166D02*
D03*
X0184941Y0189016D02*
D03*
X0192027Y0189016D02*
D03*
X0192027Y0192166D02*
D03*
X0205905Y0145610D02*
D03*
X0205905Y0142461D02*
D03*
X0212992Y0142461D02*
D03*
X0212992Y0145610D02*
D03*
X0136319Y0192658D02*
D03*
X0136319Y0189508D02*
D03*
X0129232Y0189508D02*
D03*
X0129232Y0192658D02*
D03*
D171*
X0211102Y0128977D02*
D03*
X0206102Y0128977D02*
D03*
X0201102Y0128977D02*
D03*
X0196102Y0128977D02*
D03*
X0191102Y0128977D02*
D03*
X0186102Y0128977D02*
D03*
X0181102Y0128977D02*
D03*
X0176102Y0128977D02*
D03*
X0211102Y0110079D02*
D03*
X0206102Y0110079D02*
D03*
X0201102Y0110079D02*
D03*
X0196102Y0110079D02*
D03*
X0191102Y0110079D02*
D03*
X0186102Y0110079D02*
D03*
X0181102Y0110079D02*
D03*
X0176102Y0110079D02*
D03*
X0134665Y0109882D02*
D03*
X0139665Y0109882D02*
D03*
X0144665Y0109882D02*
D03*
X0149665Y0109882D02*
D03*
X0154665Y0109882D02*
D03*
X0159665Y0109882D02*
D03*
X0164665Y0109882D02*
D03*
X0169665Y0109882D02*
D03*
X0134665Y0128780D02*
D03*
X0139665Y0128780D02*
D03*
X0144665Y0128780D02*
D03*
X0149665Y0128780D02*
D03*
X0154665Y0128780D02*
D03*
X0159665Y0128780D02*
D03*
X0164665Y0128780D02*
D03*
X0169665Y0128780D02*
D03*
X0128760Y0135177D02*
D03*
X0123760Y0135177D02*
D03*
X0118759Y0135177D02*
D03*
X0113759Y0135177D02*
D03*
X0128760Y0116280D02*
D03*
X0123760Y0116280D02*
D03*
X0118759Y0116280D02*
D03*
X0113759Y0116280D02*
D03*
D172*
X0130511Y0253957D02*
D03*
X0130511Y0258957D02*
D03*
X0130511Y0263957D02*
D03*
X0130511Y0268957D02*
D03*
X0111613Y0253957D02*
D03*
X0111613Y0258957D02*
D03*
X0111613Y0263957D02*
D03*
X0111613Y0268957D02*
D03*
X0113385Y0247106D02*
D03*
X0113385Y0242107D02*
D03*
X0113385Y0237107D02*
D03*
X0113385Y0232106D02*
D03*
X0132283Y0247106D02*
D03*
X0132283Y0242107D02*
D03*
X0132283Y0237107D02*
D03*
X0132283Y0232106D02*
D03*
D280*
X0211614Y0247579D02*
D03*
X0211614Y0255059D02*
D03*
X0204724Y0255059D02*
D03*
X0204724Y0247579D02*
D03*
X0197834Y0247579D02*
D03*
X0197834Y0255059D02*
D03*
X0190944Y0255059D02*
D03*
X0190944Y0247579D02*
D03*
X0184055Y0247579D02*
D03*
X0184055Y0255059D02*
D03*
X0177165Y0255059D02*
D03*
X0177165Y0247579D02*
D03*
X0170275Y0247579D02*
D03*
X0170275Y0255059D02*
D03*
X0163385Y0255059D02*
D03*
X0163385Y0247579D02*
D03*
X0150885Y0269331D02*
D03*
X0150885Y0261851D02*
D03*
X0158070Y0261752D02*
D03*
X0158070Y0269233D02*
D03*
D352*
X0173129Y0241280D02*
D03*
X0173129Y0228288D02*
D03*
X0210334Y0228681D02*
D03*
X0210334Y0241673D02*
D03*
X0189173Y0241280D02*
D03*
X0189173Y0228288D02*
D03*
X0181004Y0228288D02*
D03*
X0181004Y0241280D02*
D03*
D353*
X0163582Y0261654D02*
D03*
X0169881Y0261654D02*
D03*
X0169980Y0267264D02*
D03*
X0163681Y0267264D02*
D03*
X0166043Y0240689D02*
D03*
X0159744Y0240689D02*
D03*
X0130118Y0142520D02*
D03*
X0123819Y0142520D02*
D03*
X0195177Y0227303D02*
D03*
X0201476Y0227303D02*
D03*
X0228248Y0062402D02*
G01*
G75*
D184*
X0271555Y0063485D02*
D03*
D185*
X0230807Y0063682D02*
D03*
X0232776Y0063682D02*
D03*
D186*
X0239665Y0075414D02*
D03*
X0235925Y0066162D02*
D03*
D186*
X0232185Y0075414D02*
D03*
D172*
X0247224Y0087028D02*
D03*
X0247224Y0082028D02*
D03*
X0247224Y0077028D02*
D03*
X0247224Y0072028D02*
D03*
X0266122Y0087028D02*
D03*
X0266122Y0082028D02*
D03*
X0266122Y0077028D02*
D03*
X0266122Y0072028D02*
D03*
D160*
X0262933Y0066733D02*
D03*
X0269153Y0066733D02*
D03*
X0254587Y0066733D02*
D03*
X0248366Y0066733D02*
D03*
D174*
X0232775Y0080315D02*
D03*
X0239075Y0080315D02*
D03*
D187*
X0243405Y0064272D02*
D03*
X0259449Y0086811D02*
D03*
X0259744Y0072835D02*
D03*
X0258563Y0067815D02*
D03*
X0255118Y0069882D02*
D03*
X0352331Y0091344D02*
G01*
G75*
D197*
X0304674Y0080714D02*
D03*
X0304674Y0057289D02*
D03*
X0314674Y0080714D02*
D03*
X0314674Y0057289D02*
D03*
X0324674Y0080714D02*
D03*
X0324674Y0057289D02*
D03*
X0334674Y0080714D02*
D03*
X0334674Y0057289D02*
D03*
X0344674Y0080714D02*
D03*
X0344674Y0057289D02*
D03*
D281*
X0294615Y0067624D02*
D03*
X0288394Y0067624D02*
D03*
X0292056Y0079631D02*
D03*
X0285835Y0079631D02*
D03*
D376*
X0284418Y0073627D02*
D03*
X0297410Y0073627D02*
D03*
D279*
X0285894Y0084257D02*
D03*
X0292193Y0084257D02*
D03*
D345*
X0291898Y0053765D02*
D03*
X0295638Y0063017D02*
D03*
D345*
X0288158Y0063017D02*
D03*
D278*
X0296524Y0084808D02*
D03*
X0296524Y0078588D02*
D03*
D199*
X0304674Y0064001D02*
D03*
X0304674Y0074001D02*
D03*
X0314674Y0064001D02*
D03*
X0314674Y0074001D02*
D03*
X0324674Y0064001D02*
D03*
X0324674Y0074001D02*
D03*
X0334674Y0064001D02*
D03*
X0334674Y0074001D02*
D03*
X0344674Y0064001D02*
D03*
D200*
X0344674Y0074001D02*
D03*
X0354232Y0354429D02*
G01*
G75*
D185*
X0358858Y0282972D02*
D03*
X0361614Y0282972D02*
D03*
X0365059Y0282972D02*
D03*
X0357086Y0353149D02*
D03*
X0366535Y0353149D02*
D03*
D393*
X0362559Y0307086D02*
D03*
X0356338Y0307086D02*
D03*
X0358208Y0301771D02*
D03*
X0364429Y0301771D02*
D03*
X0356338Y0311614D02*
D03*
X0362559Y0311614D02*
D03*
X0363346Y0351476D02*
D03*
X0357126Y0351476D02*
D03*
X0356634Y0320571D02*
D03*
X0362854Y0320571D02*
D03*
D394*
X0364763Y0287795D02*
D03*
X0357283Y0287795D02*
D03*
X0357283Y0296260D02*
D03*
X0361023Y0296260D02*
D03*
X0365256Y0331161D02*
D03*
X0357775Y0331161D02*
D03*
X0357775Y0339626D02*
D03*
X0361515Y0339626D02*
D03*
D394*
X0364763Y0296260D02*
D03*
X0365256Y0339626D02*
D03*
D395*
X0367323Y0303543D02*
D03*
X0367323Y0309842D02*
D03*
X0368110Y0313582D02*
D03*
X0368110Y0319882D02*
D03*
D396*
X0363976Y0316043D02*
D03*
X0357677Y0316043D02*
D03*
X0363976Y0345374D02*
D03*
X0357677Y0345374D02*
D03*
X0363976Y0325492D02*
D03*
X0357677Y0325492D02*
D03*
X0382382Y0343406D02*
G01*
G75*
D165*
X0395965Y0399213D02*
D03*
X0395965Y0387796D02*
D03*
X0387894Y0399311D02*
D03*
X0387894Y0387894D02*
D03*
X0424705Y0400886D02*
D03*
X0424705Y0389469D02*
D03*
D136*
X0417776Y0378839D02*
D03*
X0411555Y0378839D02*
D03*
D220*
X0433583Y0371851D02*
D03*
X0424331Y0375591D02*
D03*
D220*
X0433583Y0379331D02*
D03*
D221*
X0410039Y0392855D02*
D03*
X0417520Y0392855D02*
D03*
X0417520Y0384390D02*
D03*
X0413780Y0384390D02*
D03*
D221*
X0410039Y0384390D02*
D03*
D222*
X0444292Y0385532D02*
D03*
D223*
X0383169Y0369587D02*
D03*
D224*
X0439862Y0356497D02*
D03*
X0412500Y0356497D02*
D03*
D225*
X0398327Y0371556D02*
D03*
X0389665Y0371556D02*
D03*
X0389961Y0381595D02*
D03*
X0398622Y0381595D02*
D03*
D198*
X0431004Y0400886D02*
D03*
X0443996Y0400886D02*
D03*
D226*
X0442421Y0385532D02*
D03*
X0442421Y0394193D02*
D03*
X0433750Y0383849D02*
D03*
X0433750Y0392510D02*
D03*
D134*
X0401969Y0371752D02*
D03*
X0408268Y0371752D02*
D03*
X0402067Y0376575D02*
D03*
X0395768Y0376575D02*
D03*
X0412303Y0371556D02*
D03*
X0418602Y0371556D02*
D03*
D227*
X0386024Y0374902D02*
D03*
X0386024Y0381122D02*
D03*
D173*
X0403543Y0401575D02*
D03*
X0403543Y0388583D02*
D03*
D187*
X0407353Y0377432D02*
D03*
X0439666Y0403248D02*
D03*
X0414764Y0375493D02*
D03*
X0385827Y0371063D02*
D03*
X0407284Y0398032D02*
D03*
M02*
