G75*
G70*
%OFA0B0*%
%FSLAX25Y25*%
%IPPOS*%
%LPD*%
%AMOC8*
5,1,8,0,0,1.08239X$1,22.5*
%
%AMM168*
21,1,0.039370,0.030320,-0.000000,-0.000000,270.000000*
21,1,0.028350,0.041340,-0.000000,-0.000000,270.000000*
1,1,0.011020,-0.015160,-0.014170*
1,1,0.011020,-0.015160,0.014170*
1,1,0.011020,0.015160,0.014170*
1,1,0.011020,0.015160,-0.014170*
%
%AMM174*
21,1,0.031500,0.018900,-0.000000,-0.000000,0.000000*
21,1,0.022840,0.027560,-0.000000,-0.000000,0.000000*
1,1,0.008660,0.011420,-0.009450*
1,1,0.008660,-0.011420,-0.009450*
1,1,0.008660,-0.011420,0.009450*
1,1,0.008660,0.011420,0.009450*
%
%AMM177*
21,1,0.029530,0.026380,-0.000000,-0.000000,270.000000*
21,1,0.020470,0.035430,-0.000000,-0.000000,270.000000*
1,1,0.009060,-0.013190,-0.010240*
1,1,0.009060,-0.013190,0.010240*
1,1,0.009060,0.013190,0.010240*
1,1,0.009060,0.013190,-0.010240*
%
%AMM178*
21,1,0.021650,0.027950,-0.000000,-0.000000,270.000000*
21,1,0.014170,0.035430,-0.000000,-0.000000,270.000000*
1,1,0.007480,-0.013980,-0.007090*
1,1,0.007480,-0.013980,0.007090*
1,1,0.007480,0.013980,0.007090*
1,1,0.007480,0.013980,-0.007090*
%
%AMM180*
21,1,0.016540,0.028980,-0.000000,-0.000000,270.000000*
21,1,0.010080,0.035430,-0.000000,-0.000000,270.000000*
1,1,0.006460,-0.014490,-0.005040*
1,1,0.006460,-0.014490,0.005040*
1,1,0.006460,0.014490,0.005040*
1,1,0.006460,0.014490,-0.005040*
%
%AMM183*
21,1,0.031500,0.018900,-0.000000,-0.000000,270.000000*
21,1,0.022840,0.027560,-0.000000,-0.000000,270.000000*
1,1,0.008660,-0.009450,-0.011420*
1,1,0.008660,-0.009450,0.011420*
1,1,0.008660,0.009450,0.011420*
1,1,0.008660,0.009450,-0.011420*
%
%AMM197*
21,1,0.037400,0.026770,-0.000000,-0.000000,0.000000*
21,1,0.026770,0.037400,-0.000000,-0.000000,0.000000*
1,1,0.010630,0.013390,-0.013390*
1,1,0.010630,-0.013390,-0.013390*
1,1,0.010630,-0.013390,0.013390*
1,1,0.010630,0.013390,0.013390*
%
%AMM198*
21,1,0.039370,0.030320,-0.000000,-0.000000,0.000000*
21,1,0.028350,0.041340,-0.000000,-0.000000,0.000000*
1,1,0.011020,0.014170,-0.015160*
1,1,0.011020,-0.014170,-0.015160*
1,1,0.011020,-0.014170,0.015160*
1,1,0.011020,0.014170,0.015160*
%
%AMM199*
21,1,0.039760,0.026770,-0.000000,-0.000000,180.000000*
21,1,0.029130,0.037400,-0.000000,-0.000000,180.000000*
1,1,0.010630,-0.014570,0.013390*
1,1,0.010630,0.014570,0.013390*
1,1,0.010630,0.014570,-0.013390*
1,1,0.010630,-0.014570,-0.013390*
%
%AMM200*
21,1,0.074800,0.036220,-0.000000,-0.000000,180.000000*
21,1,0.061810,0.049210,-0.000000,-0.000000,180.000000*
1,1,0.012990,-0.030910,0.018110*
1,1,0.012990,0.030910,0.018110*
1,1,0.012990,0.030910,-0.018110*
1,1,0.012990,-0.030910,-0.018110*
%
%AMM201*
21,1,0.062990,0.020470,-0.000000,-0.000000,270.000000*
21,1,0.053940,0.029530,-0.000000,-0.000000,270.000000*
1,1,0.009060,-0.010240,-0.026970*
1,1,0.009060,-0.010240,0.026970*
1,1,0.009060,0.010240,0.026970*
1,1,0.009060,0.010240,-0.026970*
%
%AMM202*
21,1,0.082680,0.045670,-0.000000,-0.000000,270.000000*
21,1,0.067320,0.061020,-0.000000,-0.000000,270.000000*
1,1,0.015350,-0.022840,-0.033660*
1,1,0.015350,-0.022840,0.033660*
1,1,0.015350,0.022840,0.033660*
1,1,0.015350,0.022840,-0.033660*
%
%AMM203*
21,1,0.029530,0.026380,-0.000000,-0.000000,180.000000*
21,1,0.020470,0.035430,-0.000000,-0.000000,180.000000*
1,1,0.009060,-0.010240,0.013190*
1,1,0.009060,0.010240,0.013190*
1,1,0.009060,0.010240,-0.013190*
1,1,0.009060,-0.010240,-0.013190*
%
%AMM204*
21,1,0.021650,0.027950,-0.000000,-0.000000,180.000000*
21,1,0.014170,0.035430,-0.000000,-0.000000,180.000000*
1,1,0.007480,-0.007090,0.013980*
1,1,0.007480,0.007090,0.013980*
1,1,0.007480,0.007090,-0.013980*
1,1,0.007480,-0.007090,-0.013980*
%
%AMM205*
21,1,0.031500,0.030710,-0.000000,-0.000000,270.000000*
21,1,0.022050,0.040160,-0.000000,-0.000000,270.000000*
1,1,0.009450,-0.015350,-0.011020*
1,1,0.009450,-0.015350,0.011020*
1,1,0.009450,0.015350,0.011020*
1,1,0.009450,0.015350,-0.011020*
%
%AMM206*
21,1,0.031500,0.049610,-0.000000,-0.000000,90.000000*
21,1,0.022050,0.059060,-0.000000,-0.000000,90.000000*
1,1,0.009450,0.024800,0.011020*
1,1,0.009450,0.024800,-0.011020*
1,1,0.009450,-0.024800,-0.011020*
1,1,0.009450,-0.024800,0.011020*
%
%AMM207*
21,1,0.031500,0.030710,-0.000000,-0.000000,180.000000*
21,1,0.022050,0.040160,-0.000000,-0.000000,180.000000*
1,1,0.009450,-0.011020,0.015350*
1,1,0.009450,0.011020,0.015350*
1,1,0.009450,0.011020,-0.015350*
1,1,0.009450,-0.011020,-0.015350*
%
%AMM208*
21,1,0.074800,0.036220,-0.000000,-0.000000,270.000000*
21,1,0.061810,0.049210,-0.000000,-0.000000,270.000000*
1,1,0.012990,-0.018110,-0.030910*
1,1,0.012990,-0.018110,0.030910*
1,1,0.012990,0.018110,0.030910*
1,1,0.012990,0.018110,-0.030910*
%
%AMM209*
21,1,0.037400,0.026770,-0.000000,-0.000000,90.000000*
21,1,0.026770,0.037400,-0.000000,-0.000000,90.000000*
1,1,0.010630,0.013390,0.013390*
1,1,0.010630,0.013390,-0.013390*
1,1,0.010630,-0.013390,-0.013390*
1,1,0.010630,-0.013390,0.013390*
%
%AMM293*
21,1,0.041340,0.026770,0.000000,-0.000000,270.000000*
21,1,0.029130,0.038980,0.000000,-0.000000,270.000000*
1,1,0.012210,-0.013390,-0.014570*
1,1,0.012210,-0.013390,0.014570*
1,1,0.012210,0.013390,0.014570*
1,1,0.012210,0.013390,-0.014570*
%
%AMM294*
21,1,0.076380,0.036220,0.000000,-0.000000,0.000000*
21,1,0.061810,0.050790,0.000000,-0.000000,0.000000*
1,1,0.014570,0.030910,-0.018110*
1,1,0.014570,-0.030910,-0.018110*
1,1,0.014570,-0.030910,0.018110*
1,1,0.014570,0.030910,0.018110*
%
%AMM297*
21,1,0.029130,0.018900,0.000000,-0.000000,0.000000*
21,1,0.018900,0.029130,0.000000,-0.000000,0.000000*
1,1,0.010240,0.009450,-0.009450*
1,1,0.010240,-0.009450,-0.009450*
1,1,0.010240,-0.009450,0.009450*
1,1,0.010240,0.009450,0.009450*
%
%AMM298*
21,1,0.025200,0.019680,0.000000,-0.000000,270.000000*
21,1,0.015750,0.029130,0.000000,-0.000000,270.000000*
1,1,0.009450,-0.009840,-0.007870*
1,1,0.009450,-0.009840,0.007870*
1,1,0.009450,0.009840,0.007870*
1,1,0.009450,0.009840,-0.007870*
%
%AMM299*
21,1,0.025200,0.019680,0.000000,-0.000000,180.000000*
21,1,0.015750,0.029130,0.000000,-0.000000,180.000000*
1,1,0.009450,-0.007870,0.009840*
1,1,0.009450,0.007870,0.009840*
1,1,0.009450,0.007870,-0.009840*
1,1,0.009450,-0.007870,-0.009840*
%
%AMM305*
21,1,0.111810,0.050390,0.000000,-0.000000,0.000000*
21,1,0.093700,0.068500,0.000000,-0.000000,0.000000*
1,1,0.018110,0.046850,-0.025200*
1,1,0.018110,-0.046850,-0.025200*
1,1,0.018110,-0.046850,0.025200*
1,1,0.018110,0.046850,0.025200*
%
%AMM306*
21,1,0.038980,0.026770,0.000000,-0.000000,180.000000*
21,1,0.026770,0.038980,0.000000,-0.000000,180.000000*
1,1,0.012210,-0.013390,0.013390*
1,1,0.012210,0.013390,0.013390*
1,1,0.012210,0.013390,-0.013390*
1,1,0.012210,-0.013390,-0.013390*
%
%AMM307*
21,1,0.029130,0.018900,0.000000,-0.000000,90.000000*
21,1,0.018900,0.029130,0.000000,-0.000000,90.000000*
1,1,0.010240,0.009450,0.009450*
1,1,0.010240,0.009450,-0.009450*
1,1,0.010240,-0.009450,-0.009450*
1,1,0.010240,-0.009450,0.009450*
%
%AMM308*
21,1,0.127560,0.075590,0.000000,-0.000000,90.000000*
21,1,0.103150,0.100000,0.000000,-0.000000,90.000000*
1,1,0.024410,0.037800,0.051580*
1,1,0.024410,0.037800,-0.051580*
1,1,0.024410,-0.037800,-0.051580*
1,1,0.024410,-0.037800,0.051580*
%
%AMM309*
21,1,0.123620,0.083460,0.000000,-0.000000,270.000000*
21,1,0.097240,0.109840,0.000000,-0.000000,270.000000*
1,1,0.026380,-0.041730,-0.048620*
1,1,0.026380,-0.041730,0.048620*
1,1,0.026380,0.041730,0.048620*
1,1,0.026380,0.041730,-0.048620*
%
%ADD108C,0.03900*%
%ADD11C,0.06693*%
%ADD12O,0.07677X0.06693*%
%ADD13C,0.06000*%
%ADD136C,0.04294*%
%ADD137C,0.04724*%
%ADD14C,0.07874*%
%ADD15R,0.06693X0.06693*%
%ADD16C,0.13780*%
%ADD164R,0.04331X0.04724*%
%ADD168R,0.09843X0.07087*%
%ADD176O,0.05354X0.01378*%
%ADD177R,0.01378X0.01772*%
%ADD178R,0.01772X0.01378*%
%ADD18C,0.11811*%
%ADD211C,0.02913*%
%ADD212C,0.06457*%
%ADD226C,0.05118*%
%ADD229R,0.07500X0.07874*%
%ADD230O,0.07500X0.07874*%
%ADD232R,0.05709X0.01772*%
%ADD233R,0.04803X0.02559*%
%ADD26O,0.12992X0.10630*%
%ADD27C,0.02362*%
%ADD341M168*%
%ADD347M174*%
%ADD350M177*%
%ADD351M178*%
%ADD353M180*%
%ADD356M183*%
%ADD370M197*%
%ADD371M198*%
%ADD372M199*%
%ADD373M200*%
%ADD374M201*%
%ADD375M202*%
%ADD376M203*%
%ADD377M204*%
%ADD378M205*%
%ADD379M206*%
%ADD380M207*%
%ADD381M208*%
%ADD382M209*%
%ADD40O,0.06693X0.06693*%
%ADD41C,0.05906*%
%ADD415O,0.09213X0.02520*%
%ADD469M293*%
%ADD470M294*%
%ADD473M297*%
%ADD474M298*%
%ADD475M299*%
%ADD481M305*%
%ADD482M306*%
%ADD483M307*%
%ADD484M308*%
%ADD485M309*%
%ADD53O,0.10630X0.12992*%
%ADD68C,0.18110*%
%ADD69C,0.14567*%
X0000000Y0000000D02*
%LPD*%
G01*
D11*
X0411417Y0505906D03*
G36*
G01*
X0191240Y0089173D02*
X0196949Y0089173D01*
G75*
G02*
X0197933Y0088189I0000000J-000984D01*
G01*
X0197933Y0083465D01*
G75*
G02*
X0196949Y0082480I-000984J0000000D01*
G01*
X0191240Y0082480D01*
G75*
G02*
X0190256Y0083465I0000000J0000984D01*
G01*
X0190256Y0088189D01*
G75*
G02*
X0191240Y0089173I0000984J0000000D01*
G01*
G37*
D12*
X0194094Y0075984D03*
X0194094Y0066142D03*
X0194094Y0056299D03*
X0194094Y0046457D03*
D11*
X0505906Y0470472D03*
X0446850Y0488189D03*
D13*
X0331890Y0486220D03*
X0331890Y0466929D03*
D11*
X0268110Y0116535D03*
X0482283Y0505906D03*
X0596089Y0098208D03*
X0596089Y0108208D03*
X0596089Y0118208D03*
X0596089Y0128208D03*
X0596089Y0138208D03*
X0606089Y0098208D03*
X0606089Y0108208D03*
X0606089Y0118208D03*
X0606089Y0128208D03*
X0606089Y0138208D03*
X0312598Y0486240D03*
D68*
X0067569Y0512795D03*
D69*
X0145325Y0598819D03*
D18*
X0370522Y0515748D03*
D69*
X0499656Y0598819D03*
D68*
X0559695Y0579724D03*
D11*
X0542963Y0572835D03*
X0529183Y0572835D03*
X0515404Y0572835D03*
X0501624Y0572835D03*
X0487844Y0572835D03*
X0476033Y0572835D03*
X0466191Y0572835D03*
X0456348Y0572835D03*
X0446506Y0572835D03*
X0436663Y0572835D03*
X0426821Y0572835D03*
X0416978Y0572835D03*
X0407136Y0572835D03*
X0397293Y0572835D03*
X0385482Y0572835D03*
X0542963Y0562992D03*
X0529183Y0562992D03*
X0515404Y0562992D03*
X0501624Y0562992D03*
X0487844Y0562992D03*
X0476033Y0562992D03*
X0466191Y0562992D03*
X0456348Y0562992D03*
X0446506Y0562992D03*
X0436663Y0562992D03*
X0426821Y0562992D03*
X0416978Y0562992D03*
X0407136Y0562992D03*
X0397293Y0562992D03*
X0385482Y0562992D03*
X0542963Y0539370D03*
X0529183Y0539370D03*
X0515404Y0539370D03*
X0501624Y0539370D03*
X0487844Y0539370D03*
X0476033Y0539370D03*
X0466191Y0539370D03*
X0456348Y0539370D03*
X0446506Y0539370D03*
X0436663Y0539370D03*
X0426821Y0539370D03*
X0416978Y0539370D03*
X0407136Y0539370D03*
X0397293Y0539370D03*
X0385482Y0539370D03*
X0542963Y0529528D03*
X0529183Y0529528D03*
X0515404Y0529528D03*
X0501624Y0529528D03*
X0487844Y0529528D03*
X0476033Y0529528D03*
X0466191Y0529528D03*
X0456348Y0529528D03*
X0446506Y0529528D03*
X0436663Y0529528D03*
X0426821Y0529528D03*
X0416978Y0529528D03*
X0407136Y0529528D03*
X0397293Y0529528D03*
X0385482Y0529528D03*
D14*
X0333514Y0572835D03*
X0313041Y0572835D03*
X0333514Y0551181D03*
X0313041Y0551181D03*
X0333514Y0529528D03*
X0313041Y0529528D03*
D11*
X0287057Y0572835D03*
X0275246Y0572835D03*
X0265404Y0572835D03*
X0255561Y0572835D03*
X0245719Y0572835D03*
X0235876Y0572835D03*
X0226033Y0572835D03*
X0216191Y0572835D03*
X0206348Y0572835D03*
X0196506Y0572835D03*
X0186663Y0572835D03*
X0176821Y0572835D03*
X0166978Y0572835D03*
X0157136Y0572835D03*
X0147293Y0572835D03*
X0137451Y0572835D03*
X0127608Y0572835D03*
X0117766Y0572835D03*
X0107923Y0572835D03*
X0098081Y0572835D03*
X0088238Y0572835D03*
X0078396Y0572835D03*
X0287057Y0562992D03*
X0275246Y0562992D03*
X0265404Y0562992D03*
X0255561Y0562992D03*
X0245719Y0562992D03*
X0235876Y0562992D03*
X0226033Y0562992D03*
X0216191Y0562992D03*
X0206348Y0562992D03*
X0196506Y0562992D03*
X0186663Y0562992D03*
X0176821Y0562992D03*
X0166978Y0562992D03*
X0157136Y0562992D03*
X0147293Y0562992D03*
X0137451Y0562992D03*
X0127608Y0562992D03*
X0117766Y0562992D03*
X0107923Y0562992D03*
X0098081Y0562992D03*
X0088238Y0562992D03*
X0078396Y0562992D03*
X0287057Y0539370D03*
X0275246Y0539370D03*
X0265404Y0539370D03*
X0255561Y0539370D03*
X0245719Y0539370D03*
X0235876Y0539370D03*
X0226033Y0539370D03*
X0216191Y0539370D03*
X0206348Y0539370D03*
X0196506Y0539370D03*
X0186663Y0539370D03*
X0176821Y0539370D03*
X0166978Y0539370D03*
X0157136Y0539370D03*
X0147293Y0539370D03*
X0137451Y0539370D03*
X0127608Y0539370D03*
X0117766Y0539370D03*
X0107923Y0539370D03*
X0098081Y0539370D03*
X0088238Y0539370D03*
X0078396Y0539370D03*
X0287057Y0529528D03*
X0275246Y0529528D03*
X0265404Y0529528D03*
X0255561Y0529528D03*
X0245719Y0529528D03*
X0235876Y0529528D03*
X0226033Y0529528D03*
X0216191Y0529528D03*
X0206348Y0529528D03*
X0196506Y0529528D03*
X0186663Y0529528D03*
X0176821Y0529528D03*
X0166978Y0529528D03*
X0157136Y0529528D03*
X0147293Y0529528D03*
X0137451Y0529528D03*
X0127608Y0529528D03*
X0117766Y0529528D03*
X0107923Y0529528D03*
X0098081Y0529528D03*
X0088238Y0529528D03*
X0078396Y0529528D03*
D13*
X0163386Y0438169D03*
X0163386Y0453169D03*
D11*
X0458661Y0505906D03*
D13*
X0139764Y0438169D03*
X0139764Y0453169D03*
D11*
X0411811Y0470472D03*
X0237598Y0052461D03*
X0458661Y0488189D03*
X0322835Y0457480D03*
D13*
X0183071Y0471240D03*
X0183071Y0486240D03*
D11*
X0494094Y0488189D03*
D13*
X0212598Y0444075D03*
X0212598Y0459075D03*
D11*
X0470472Y0470472D03*
D15*
X0146998Y0081040D03*
D11*
X0137156Y0081040D03*
X0137156Y0073166D03*
X0146998Y0073166D03*
D16*
X0165778Y0062497D03*
X0118376Y0062497D03*
D11*
X0226181Y0052461D03*
X0555931Y0098208D03*
X0555931Y0108208D03*
X0555931Y0118208D03*
X0555931Y0128208D03*
X0555931Y0138208D03*
X0565931Y0098208D03*
X0565931Y0108208D03*
X0565931Y0118208D03*
X0565931Y0128208D03*
X0565931Y0138208D03*
X0108661Y0468898D03*
X0435039Y0488189D03*
X0505906Y0488189D03*
X0505906Y0505906D03*
D13*
X0302756Y0471240D03*
X0302756Y0486240D03*
D11*
X0470472Y0505906D03*
D13*
X0399606Y0490531D03*
X0399606Y0505531D03*
D11*
X0139764Y0468504D03*
X0576010Y0148208D03*
X0576010Y0158208D03*
X0576010Y0168208D03*
X0576010Y0178208D03*
X0576010Y0188208D03*
X0586010Y0148208D03*
X0586010Y0158208D03*
X0586010Y0168208D03*
X0586010Y0178208D03*
X0586010Y0188208D03*
X0222441Y0457087D03*
X0494094Y0470472D03*
X0120079Y0486220D03*
D13*
X0192913Y0444075D03*
X0192913Y0459075D03*
X0340551Y0471220D03*
X0340551Y0486220D03*
X0151575Y0438169D03*
X0151575Y0453169D03*
D11*
X0163386Y0486220D03*
G36*
G01*
X0231102Y0103346D02*
X0220079Y0103346D01*
G75*
G02*
X0219094Y0104331I0000000J0000984D01*
G01*
X0219094Y0112992D01*
G75*
G02*
X0220079Y0113976I0000984J0000000D01*
G01*
X0231102Y0113976D01*
G75*
G02*
X0232087Y0112992I0000000J-000984D01*
G01*
X0232087Y0104331D01*
G75*
G02*
X0231102Y0103346I-000984J0000000D01*
G01*
G37*
D26*
X0225591Y0125197D03*
X0225591Y0141732D03*
X0247244Y0108661D03*
X0247244Y0125197D03*
X0247244Y0141732D03*
D11*
X0446850Y0470472D03*
X0517717Y0505906D03*
X0555931Y0148208D03*
X0555931Y0158208D03*
X0555931Y0168208D03*
X0555931Y0178208D03*
X0555931Y0188208D03*
X0565931Y0148208D03*
X0565931Y0158208D03*
X0565931Y0168208D03*
X0565931Y0178208D03*
X0565931Y0188208D03*
X0576010Y0098208D03*
X0576010Y0108208D03*
X0576010Y0118208D03*
X0576010Y0128208D03*
X0576010Y0138208D03*
X0586010Y0098208D03*
X0586010Y0108208D03*
X0586010Y0118208D03*
X0586010Y0128208D03*
X0586010Y0138208D03*
X0163386Y0468504D03*
D15*
X0390846Y0067255D03*
D40*
X0390846Y0057255D03*
X0380846Y0067255D03*
X0380846Y0057255D03*
D13*
X0232283Y0471240D03*
X0232283Y0486240D03*
X0173228Y0444075D03*
X0173228Y0459075D03*
X0173228Y0471240D03*
X0173228Y0486240D03*
X0322835Y0486220D03*
X0322835Y0466929D03*
D11*
X0435039Y0470472D03*
D13*
X0376772Y0457067D03*
X0376772Y0472067D03*
D11*
X0423228Y0488189D03*
X0151575Y0468504D03*
D41*
X0318701Y0369783D03*
X0293504Y0369783D03*
X0286024Y0369783D03*
X0269094Y0369783D03*
D27*
X0259646Y0368012D03*
X0255709Y0368012D03*
D41*
X0244488Y0369783D03*
X0320472Y0430807D03*
X0313189Y0430807D03*
X0293701Y0430807D03*
X0246260Y0430807D03*
D11*
X0400000Y0466142D03*
X0517717Y0470472D03*
X0139764Y0486220D03*
D13*
X0192913Y0471240D03*
X0192913Y0486240D03*
X0222441Y0471240D03*
X0222441Y0486240D03*
X0357874Y0471220D03*
X0357874Y0486220D03*
D11*
X0151575Y0486220D03*
X0281496Y0486220D03*
X0482283Y0470472D03*
D41*
X0163385Y0185433D03*
X0133858Y0185433D03*
D13*
X0281102Y0455886D03*
X0281102Y0470886D03*
D11*
X0470472Y0488189D03*
G36*
G01*
X0245472Y0318307D02*
X0245472Y0329331D01*
G75*
G02*
X0246457Y0330315I0000984J0000000D01*
G01*
X0255118Y0330315D01*
G75*
G02*
X0256102Y0329331I0000000J-000984D01*
G01*
X0256102Y0318307D01*
G75*
G02*
X0255118Y0317323I-000984J0000000D01*
G01*
X0246457Y0317323D01*
G75*
G02*
X0245472Y0318307I0000000J0000984D01*
G01*
G37*
D53*
X0267323Y0323819D03*
X0283858Y0323819D03*
X0300394Y0323819D03*
X0316929Y0323819D03*
X0333465Y0323819D03*
X0250787Y0302165D03*
X0267323Y0302165D03*
X0283858Y0302165D03*
X0300394Y0302165D03*
X0316929Y0302165D03*
X0333465Y0302165D03*
D11*
X0423228Y0470472D03*
X0212598Y0468898D03*
X0202756Y0457087D03*
D13*
X0349213Y0471220D03*
X0349213Y0486220D03*
D11*
X0251969Y0457087D03*
D13*
X0312598Y0455886D03*
X0312598Y0470886D03*
X0183071Y0444075D03*
X0183071Y0459075D03*
X0387795Y0457067D03*
X0387795Y0472067D03*
D11*
X0376772Y0488189D03*
X0411417Y0488189D03*
X0423228Y0505906D03*
D13*
X0202756Y0471240D03*
X0202756Y0486240D03*
X0261811Y0471240D03*
X0261811Y0486240D03*
D11*
X0458661Y0470472D03*
X0517717Y0488189D03*
X0536271Y0098208D03*
X0536271Y0108208D03*
X0536271Y0118208D03*
X0536271Y0128208D03*
X0536271Y0138208D03*
X0546271Y0098208D03*
X0546271Y0108208D03*
X0546271Y0118208D03*
X0546271Y0128208D03*
X0546271Y0138208D03*
X0212598Y0486220D03*
X0412205Y0453150D03*
D27*
X0258563Y0067815D03*
X0255118Y0069882D03*
X0259744Y0072835D03*
X0259449Y0086811D03*
D11*
X0596089Y0148208D03*
X0596089Y0158208D03*
X0596089Y0168208D03*
X0596089Y0178208D03*
X0596089Y0188208D03*
X0606089Y0148208D03*
X0606089Y0158208D03*
X0606089Y0168208D03*
X0606089Y0178208D03*
X0606089Y0188208D03*
X0494094Y0505906D03*
D13*
X0271654Y0471240D03*
X0271654Y0486240D03*
D11*
X0108268Y0486220D03*
D27*
X0236516Y0398228D03*
X0232776Y0398228D03*
X0229035Y0398228D03*
X0232972Y0432480D03*
X0236516Y0432480D03*
D11*
X0120079Y0468898D03*
X0482283Y0488189D03*
D13*
X0129921Y0471220D03*
X0129921Y0486220D03*
D11*
X0292913Y0468898D03*
D13*
X0302756Y0444075D03*
X0302756Y0459075D03*
X0387795Y0490531D03*
X0387795Y0505531D03*
X0366535Y0471220D03*
X0366535Y0486220D03*
X0242126Y0471240D03*
X0242126Y0486240D03*
D11*
X0292913Y0486220D03*
X0346063Y0268504D03*
X0435039Y0505906D03*
X0446850Y0505906D03*
D13*
X0251969Y0471240D03*
X0251969Y0486240D03*
G36*
G01*
X0274429Y0229626D02*
X0277500Y0229626D01*
G75*
G02*
X0277776Y0229350I0000000J-000276D01*
G01*
X0277776Y0227146D01*
G75*
G02*
X0277500Y0226870I-000276J0000000D01*
G01*
X0274429Y0226870D01*
G75*
G02*
X0274154Y0227146I0000000J0000276D01*
G01*
X0274154Y0229350D01*
G75*
G02*
X0274429Y0229626I0000276J0000000D01*
G01*
G37*
G36*
G01*
X0274429Y0223327D02*
X0277500Y0223327D01*
G75*
G02*
X0277776Y0223051I0000000J-000276D01*
G01*
X0277776Y0220846D01*
G75*
G02*
X0277500Y0220571I-000276J0000000D01*
G01*
X0274429Y0220571D01*
G75*
G02*
X0274154Y0220846I0000000J0000276D01*
G01*
X0274154Y0223051D01*
G75*
G02*
X0274429Y0223327I0000276J0000000D01*
G01*
G37*
G36*
G01*
X0191752Y0229626D02*
X0194823Y0229626D01*
G75*
G02*
X0195098Y0229350I0000000J-000276D01*
G01*
X0195098Y0227146D01*
G75*
G02*
X0194823Y0226870I-000276J0000000D01*
G01*
X0191752Y0226870D01*
G75*
G02*
X0191476Y0227146I0000000J0000276D01*
G01*
X0191476Y0229350D01*
G75*
G02*
X0191752Y0229626I0000276J0000000D01*
G01*
G37*
G36*
G01*
X0191752Y0223327D02*
X0194823Y0223327D01*
G75*
G02*
X0195098Y0223051I0000000J-000276D01*
G01*
X0195098Y0220846D01*
G75*
G02*
X0194823Y0220571I-000276J0000000D01*
G01*
X0191752Y0220571D01*
G75*
G02*
X0191476Y0220846I0000000J0000276D01*
G01*
X0191476Y0223051D01*
G75*
G02*
X0191752Y0223327I0000276J0000000D01*
G01*
G37*
G36*
G01*
X0138583Y0229626D02*
X0141654Y0229626D01*
G75*
G02*
X0141929Y0229350I0000000J-000276D01*
G01*
X0141929Y0227146D01*
G75*
G02*
X0141654Y0226870I-000276J0000000D01*
G01*
X0138583Y0226870D01*
G75*
G02*
X0138307Y0227146I0000000J0000276D01*
G01*
X0138307Y0229350D01*
G75*
G02*
X0138583Y0229626I0000276J0000000D01*
G01*
G37*
G36*
G01*
X0138583Y0223327D02*
X0141654Y0223327D01*
G75*
G02*
X0141929Y0223051I0000000J-000276D01*
G01*
X0141929Y0220846D01*
G75*
G02*
X0141654Y0220571I-000276J0000000D01*
G01*
X0138583Y0220571D01*
G75*
G02*
X0138307Y0220846I0000000J0000276D01*
G01*
X0138307Y0223051D01*
G75*
G02*
X0138583Y0223327I0000276J0000000D01*
G01*
G37*
G36*
G01*
X0156299Y0229626D02*
X0159370Y0229626D01*
G75*
G02*
X0159646Y0229350I0000000J-000276D01*
G01*
X0159646Y0227146D01*
G75*
G02*
X0159370Y0226870I-000276J0000000D01*
G01*
X0156299Y0226870D01*
G75*
G02*
X0156024Y0227146I0000000J0000276D01*
G01*
X0156024Y0229350D01*
G75*
G02*
X0156299Y0229626I0000276J0000000D01*
G01*
G37*
G36*
G01*
X0156299Y0223327D02*
X0159370Y0223327D01*
G75*
G02*
X0159646Y0223051I0000000J-000276D01*
G01*
X0159646Y0220846D01*
G75*
G02*
X0159370Y0220571I-000276J0000000D01*
G01*
X0156299Y0220571D01*
G75*
G02*
X0156024Y0220846I0000000J0000276D01*
G01*
X0156024Y0223051D01*
G75*
G02*
X0156299Y0223327I0000276J0000000D01*
G01*
G37*
G36*
G01*
X0114961Y0229626D02*
X0118031Y0229626D01*
G75*
G02*
X0118307Y0229350I0000000J-000276D01*
G01*
X0118307Y0227146D01*
G75*
G02*
X0118031Y0226870I-000276J0000000D01*
G01*
X0114961Y0226870D01*
G75*
G02*
X0114685Y0227146I0000000J0000276D01*
G01*
X0114685Y0229350D01*
G75*
G02*
X0114961Y0229626I0000276J0000000D01*
G01*
G37*
G36*
G01*
X0114961Y0223327D02*
X0118031Y0223327D01*
G75*
G02*
X0118307Y0223051I0000000J-000276D01*
G01*
X0118307Y0220846D01*
G75*
G02*
X0118031Y0220571I-000276J0000000D01*
G01*
X0114961Y0220571D01*
G75*
G02*
X0114685Y0220846I0000000J0000276D01*
G01*
X0114685Y0223051D01*
G75*
G02*
X0114961Y0223327I0000276J0000000D01*
G01*
G37*
G36*
G01*
X0203563Y0229626D02*
X0206634Y0229626D01*
G75*
G02*
X0206909Y0229350I0000000J-000276D01*
G01*
X0206909Y0227146D01*
G75*
G02*
X0206634Y0226870I-000276J0000000D01*
G01*
X0203563Y0226870D01*
G75*
G02*
X0203287Y0227146I0000000J0000276D01*
G01*
X0203287Y0229350D01*
G75*
G02*
X0203563Y0229626I0000276J0000000D01*
G01*
G37*
G36*
G01*
X0203563Y0223327D02*
X0206634Y0223327D01*
G75*
G02*
X0206909Y0223051I0000000J-000276D01*
G01*
X0206909Y0220846D01*
G75*
G02*
X0206634Y0220571I-000276J0000000D01*
G01*
X0203563Y0220571D01*
G75*
G02*
X0203287Y0220846I0000000J0000276D01*
G01*
X0203287Y0223051D01*
G75*
G02*
X0203563Y0223327I0000276J0000000D01*
G01*
G37*
G36*
G01*
X0236634Y0233169D02*
X0232618Y0233169D01*
G75*
G02*
X0232264Y0233524I0000000J0000354D01*
G01*
X0232264Y0236358D01*
G75*
G02*
X0232618Y0236713I0000354J0000000D01*
G01*
X0236634Y0236713D01*
G75*
G02*
X0236988Y0236358I0000000J-000354D01*
G01*
X0236988Y0233524D01*
G75*
G02*
X0236634Y0233169I-000354J0000000D01*
G01*
G37*
G36*
G01*
X0236634Y0246161D02*
X0232618Y0246161D01*
G75*
G02*
X0232264Y0246516I0000000J0000354D01*
G01*
X0232264Y0249350D01*
G75*
G02*
X0232618Y0249705I0000354J0000000D01*
G01*
X0236634Y0249705D01*
G75*
G02*
X0236988Y0249350I0000000J-000354D01*
G01*
X0236988Y0246516D01*
G75*
G02*
X0236634Y0246161I-000354J0000000D01*
G01*
G37*
G36*
G01*
X0262618Y0229626D02*
X0265689Y0229626D01*
G75*
G02*
X0265965Y0229350I0000000J-000276D01*
G01*
X0265965Y0227146D01*
G75*
G02*
X0265689Y0226870I-000276J0000000D01*
G01*
X0262618Y0226870D01*
G75*
G02*
X0262343Y0227146I0000000J0000276D01*
G01*
X0262343Y0229350D01*
G75*
G02*
X0262618Y0229626I0000276J0000000D01*
G01*
G37*
G36*
G01*
X0262618Y0223327D02*
X0265689Y0223327D01*
G75*
G02*
X0265965Y0223051I0000000J-000276D01*
G01*
X0265965Y0220846D01*
G75*
G02*
X0265689Y0220571I-000276J0000000D01*
G01*
X0262618Y0220571D01*
G75*
G02*
X0262343Y0220846I0000000J0000276D01*
G01*
X0262343Y0223051D01*
G75*
G02*
X0262618Y0223327I0000276J0000000D01*
G01*
G37*
D14*
X0530709Y0287795D03*
G36*
G01*
X0238996Y0229626D02*
X0242067Y0229626D01*
G75*
G02*
X0242343Y0229350I0000000J-000276D01*
G01*
X0242343Y0227146D01*
G75*
G02*
X0242067Y0226870I-000276J0000000D01*
G01*
X0238996Y0226870D01*
G75*
G02*
X0238720Y0227146I0000000J0000276D01*
G01*
X0238720Y0229350D01*
G75*
G02*
X0238996Y0229626I0000276J0000000D01*
G01*
G37*
G36*
G01*
X0238996Y0223327D02*
X0242067Y0223327D01*
G75*
G02*
X0242343Y0223051I0000000J-000276D01*
G01*
X0242343Y0220846D01*
G75*
G02*
X0242067Y0220571I-000276J0000000D01*
G01*
X0238996Y0220571D01*
G75*
G02*
X0238720Y0220846I0000000J0000276D01*
G01*
X0238720Y0223051D01*
G75*
G02*
X0238996Y0223327I0000276J0000000D01*
G01*
G37*
G36*
G01*
X0246476Y0233169D02*
X0242461Y0233169D01*
G75*
G02*
X0242106Y0233524I0000000J0000354D01*
G01*
X0242106Y0236358D01*
G75*
G02*
X0242461Y0236713I0000354J0000000D01*
G01*
X0246476Y0236713D01*
G75*
G02*
X0246831Y0236358I0000000J-000354D01*
G01*
X0246831Y0233524D01*
G75*
G02*
X0246476Y0233169I-000354J0000000D01*
G01*
G37*
G36*
G01*
X0246476Y0246161D02*
X0242461Y0246161D01*
G75*
G02*
X0242106Y0246516I0000000J0000354D01*
G01*
X0242106Y0249350D01*
G75*
G02*
X0242461Y0249705I0000354J0000000D01*
G01*
X0246476Y0249705D01*
G75*
G02*
X0246831Y0249350I0000000J-000354D01*
G01*
X0246831Y0246516D01*
G75*
G02*
X0246476Y0246161I-000354J0000000D01*
G01*
G37*
G36*
G01*
X0150394Y0229626D02*
X0153465Y0229626D01*
G75*
G02*
X0153740Y0229350I0000000J-000276D01*
G01*
X0153740Y0227146D01*
G75*
G02*
X0153465Y0226870I-000276J0000000D01*
G01*
X0150394Y0226870D01*
G75*
G02*
X0150118Y0227146I0000000J0000276D01*
G01*
X0150118Y0229350D01*
G75*
G02*
X0150394Y0229626I0000276J0000000D01*
G01*
G37*
G36*
G01*
X0150394Y0223327D02*
X0153465Y0223327D01*
G75*
G02*
X0153740Y0223051I0000000J-000276D01*
G01*
X0153740Y0220846D01*
G75*
G02*
X0153465Y0220571I-000276J0000000D01*
G01*
X0150394Y0220571D01*
G75*
G02*
X0150118Y0220846I0000000J0000276D01*
G01*
X0150118Y0223051D01*
G75*
G02*
X0150394Y0223327I0000276J0000000D01*
G01*
G37*
G36*
G01*
X0227185Y0229626D02*
X0230256Y0229626D01*
G75*
G02*
X0230531Y0229350I0000000J-000276D01*
G01*
X0230531Y0227146D01*
G75*
G02*
X0230256Y0226870I-000276J0000000D01*
G01*
X0227185Y0226870D01*
G75*
G02*
X0226909Y0227146I0000000J0000276D01*
G01*
X0226909Y0229350D01*
G75*
G02*
X0227185Y0229626I0000276J0000000D01*
G01*
G37*
G36*
G01*
X0227185Y0223327D02*
X0230256Y0223327D01*
G75*
G02*
X0230531Y0223051I0000000J-000276D01*
G01*
X0230531Y0220846D01*
G75*
G02*
X0230256Y0220571I-000276J0000000D01*
G01*
X0227185Y0220571D01*
G75*
G02*
X0226909Y0220846I0000000J0000276D01*
G01*
X0226909Y0223051D01*
G75*
G02*
X0227185Y0223327I0000276J0000000D01*
G01*
G37*
G36*
G01*
X0165748Y0233169D02*
X0161732Y0233169D01*
G75*
G02*
X0161378Y0233524I0000000J0000354D01*
G01*
X0161378Y0236358D01*
G75*
G02*
X0161732Y0236713I0000354J0000000D01*
G01*
X0165748Y0236713D01*
G75*
G02*
X0166102Y0236358I0000000J-000354D01*
G01*
X0166102Y0233524D01*
G75*
G02*
X0165748Y0233169I-000354J0000000D01*
G01*
G37*
G36*
G01*
X0165748Y0246161D02*
X0161732Y0246161D01*
G75*
G02*
X0161378Y0246516I0000000J0000354D01*
G01*
X0161378Y0249350D01*
G75*
G02*
X0161732Y0249705I0000354J0000000D01*
G01*
X0165748Y0249705D01*
G75*
G02*
X0166102Y0249350I0000000J-000354D01*
G01*
X0166102Y0246516D01*
G75*
G02*
X0165748Y0246161I-000354J0000000D01*
G01*
G37*
G36*
G01*
X0244902Y0229626D02*
X0247972Y0229626D01*
G75*
G02*
X0248248Y0229350I0000000J-000276D01*
G01*
X0248248Y0227146D01*
G75*
G02*
X0247972Y0226870I-000276J0000000D01*
G01*
X0244902Y0226870D01*
G75*
G02*
X0244626Y0227146I0000000J0000276D01*
G01*
X0244626Y0229350D01*
G75*
G02*
X0244902Y0229626I0000276J0000000D01*
G01*
G37*
G36*
G01*
X0244902Y0223327D02*
X0247972Y0223327D01*
G75*
G02*
X0248248Y0223051I0000000J-000276D01*
G01*
X0248248Y0220846D01*
G75*
G02*
X0247972Y0220571I-000276J0000000D01*
G01*
X0244902Y0220571D01*
G75*
G02*
X0244626Y0220846I0000000J0000276D01*
G01*
X0244626Y0223051D01*
G75*
G02*
X0244902Y0223327I0000276J0000000D01*
G01*
G37*
G36*
G01*
X0132677Y0229626D02*
X0135748Y0229626D01*
G75*
G02*
X0136024Y0229350I0000000J-000276D01*
G01*
X0136024Y0227146D01*
G75*
G02*
X0135748Y0226870I-000276J0000000D01*
G01*
X0132677Y0226870D01*
G75*
G02*
X0132402Y0227146I0000000J0000276D01*
G01*
X0132402Y0229350D01*
G75*
G02*
X0132677Y0229626I0000276J0000000D01*
G01*
G37*
G36*
G01*
X0132677Y0223327D02*
X0135748Y0223327D01*
G75*
G02*
X0136024Y0223051I0000000J-000276D01*
G01*
X0136024Y0220846D01*
G75*
G02*
X0135748Y0220571I-000276J0000000D01*
G01*
X0132677Y0220571D01*
G75*
G02*
X0132402Y0220846I0000000J0000276D01*
G01*
X0132402Y0223051D01*
G75*
G02*
X0132677Y0223327I0000276J0000000D01*
G01*
G37*
G36*
G01*
X0151969Y0233169D02*
X0147953Y0233169D01*
G75*
G02*
X0147598Y0233524I0000000J0000354D01*
G01*
X0147598Y0236358D01*
G75*
G02*
X0147953Y0236713I0000354J0000000D01*
G01*
X0151969Y0236713D01*
G75*
G02*
X0152323Y0236358I0000000J-000354D01*
G01*
X0152323Y0233524D01*
G75*
G02*
X0151969Y0233169I-000354J0000000D01*
G01*
G37*
G36*
G01*
X0151969Y0246161D02*
X0147953Y0246161D01*
G75*
G02*
X0147598Y0246516I0000000J0000354D01*
G01*
X0147598Y0249350D01*
G75*
G02*
X0147953Y0249705I0000354J0000000D01*
G01*
X0151969Y0249705D01*
G75*
G02*
X0152323Y0249350I0000000J-000354D01*
G01*
X0152323Y0246516D01*
G75*
G02*
X0151969Y0246161I-000354J0000000D01*
G01*
G37*
G36*
G01*
X0209469Y0229626D02*
X0212539Y0229626D01*
G75*
G02*
X0212815Y0229350I0000000J-000276D01*
G01*
X0212815Y0227146D01*
G75*
G02*
X0212539Y0226870I-000276J0000000D01*
G01*
X0209469Y0226870D01*
G75*
G02*
X0209193Y0227146I0000000J0000276D01*
G01*
X0209193Y0229350D01*
G75*
G02*
X0209469Y0229626I0000276J0000000D01*
G01*
G37*
G36*
G01*
X0209469Y0223327D02*
X0212539Y0223327D01*
G75*
G02*
X0212815Y0223051I0000000J-000276D01*
G01*
X0212815Y0220846D01*
G75*
G02*
X0212539Y0220571I-000276J0000000D01*
G01*
X0209469Y0220571D01*
G75*
G02*
X0209193Y0220846I0000000J0000276D01*
G01*
X0209193Y0223051D01*
G75*
G02*
X0209469Y0223327I0000276J0000000D01*
G01*
G37*
G36*
G01*
X0268524Y0229626D02*
X0271594Y0229626D01*
G75*
G02*
X0271870Y0229350I0000000J-000276D01*
G01*
X0271870Y0227146D01*
G75*
G02*
X0271594Y0226870I-000276J0000000D01*
G01*
X0268524Y0226870D01*
G75*
G02*
X0268248Y0227146I0000000J0000276D01*
G01*
X0268248Y0229350D01*
G75*
G02*
X0268524Y0229626I0000276J0000000D01*
G01*
G37*
G36*
G01*
X0268524Y0223327D02*
X0271594Y0223327D01*
G75*
G02*
X0271870Y0223051I0000000J-000276D01*
G01*
X0271870Y0220846D01*
G75*
G02*
X0271594Y0220571I-000276J0000000D01*
G01*
X0268524Y0220571D01*
G75*
G02*
X0268248Y0220846I0000000J0000276D01*
G01*
X0268248Y0223051D01*
G75*
G02*
X0268524Y0223327I0000276J0000000D01*
G01*
G37*
G36*
G01*
X0179921Y0229626D02*
X0182992Y0229626D01*
G75*
G02*
X0183268Y0229350I0000000J-000276D01*
G01*
X0183268Y0227146D01*
G75*
G02*
X0182992Y0226870I-000276J0000000D01*
G01*
X0179921Y0226870D01*
G75*
G02*
X0179646Y0227146I0000000J0000276D01*
G01*
X0179646Y0229350D01*
G75*
G02*
X0179921Y0229626I0000276J0000000D01*
G01*
G37*
G36*
G01*
X0179921Y0223327D02*
X0182992Y0223327D01*
G75*
G02*
X0183268Y0223051I0000000J-000276D01*
G01*
X0183268Y0220846D01*
G75*
G02*
X0182992Y0220571I-000276J0000000D01*
G01*
X0179921Y0220571D01*
G75*
G02*
X0179646Y0220846I0000000J0000276D01*
G01*
X0179646Y0223051D01*
G75*
G02*
X0179921Y0223327I0000276J0000000D01*
G01*
G37*
G36*
G01*
X0260256Y0233169D02*
X0256240Y0233169D01*
G75*
G02*
X0255886Y0233524I0000000J0000354D01*
G01*
X0255886Y0236358D01*
G75*
G02*
X0256240Y0236713I0000354J0000000D01*
G01*
X0260256Y0236713D01*
G75*
G02*
X0260610Y0236358I0000000J-000354D01*
G01*
X0260610Y0233524D01*
G75*
G02*
X0260256Y0233169I-000354J0000000D01*
G01*
G37*
G36*
G01*
X0260256Y0246161D02*
X0256240Y0246161D01*
G75*
G02*
X0255886Y0246516I0000000J0000354D01*
G01*
X0255886Y0249350D01*
G75*
G02*
X0256240Y0249705I0000354J0000000D01*
G01*
X0260256Y0249705D01*
G75*
G02*
X0260610Y0249350I0000000J-000354D01*
G01*
X0260610Y0246516D01*
G75*
G02*
X0260256Y0246161I-000354J0000000D01*
G01*
G37*
G36*
G01*
X0142126Y0233169D02*
X0138110Y0233169D01*
G75*
G02*
X0137756Y0233524I0000000J0000354D01*
G01*
X0137756Y0236358D01*
G75*
G02*
X0138110Y0236713I0000354J0000000D01*
G01*
X0142126Y0236713D01*
G75*
G02*
X0142480Y0236358I0000000J-000354D01*
G01*
X0142480Y0233524D01*
G75*
G02*
X0142126Y0233169I-000354J0000000D01*
G01*
G37*
G36*
G01*
X0142126Y0246161D02*
X0138110Y0246161D01*
G75*
G02*
X0137756Y0246516I0000000J0000354D01*
G01*
X0137756Y0249350D01*
G75*
G02*
X0138110Y0249705I0000354J0000000D01*
G01*
X0142126Y0249705D01*
G75*
G02*
X0142480Y0249350I0000000J-000354D01*
G01*
X0142480Y0246516D01*
G75*
G02*
X0142126Y0246161I-000354J0000000D01*
G01*
G37*
G36*
G01*
X0144488Y0229626D02*
X0147559Y0229626D01*
G75*
G02*
X0147835Y0229350I0000000J-000276D01*
G01*
X0147835Y0227146D01*
G75*
G02*
X0147559Y0226870I-000276J0000000D01*
G01*
X0144488Y0226870D01*
G75*
G02*
X0144213Y0227146I0000000J0000276D01*
G01*
X0144213Y0229350D01*
G75*
G02*
X0144488Y0229626I0000276J0000000D01*
G01*
G37*
G36*
G01*
X0144488Y0223327D02*
X0147559Y0223327D01*
G75*
G02*
X0147835Y0223051I0000000J-000276D01*
G01*
X0147835Y0220846D01*
G75*
G02*
X0147559Y0220571I-000276J0000000D01*
G01*
X0144488Y0220571D01*
G75*
G02*
X0144213Y0220846I0000000J0000276D01*
G01*
X0144213Y0223051D01*
G75*
G02*
X0144488Y0223327I0000276J0000000D01*
G01*
G37*
G36*
G01*
X0174016Y0229626D02*
X0177087Y0229626D01*
G75*
G02*
X0177362Y0229350I0000000J-000276D01*
G01*
X0177362Y0227146D01*
G75*
G02*
X0177087Y0226870I-000276J0000000D01*
G01*
X0174016Y0226870D01*
G75*
G02*
X0173740Y0227146I0000000J0000276D01*
G01*
X0173740Y0229350D01*
G75*
G02*
X0174016Y0229626I0000276J0000000D01*
G01*
G37*
G36*
G01*
X0174016Y0223327D02*
X0177087Y0223327D01*
G75*
G02*
X0177362Y0223051I0000000J-000276D01*
G01*
X0177362Y0220846D01*
G75*
G02*
X0177087Y0220571I-000276J0000000D01*
G01*
X0174016Y0220571D01*
G75*
G02*
X0173740Y0220846I0000000J0000276D01*
G01*
X0173740Y0223051D01*
G75*
G02*
X0174016Y0223327I0000276J0000000D01*
G01*
G37*
G36*
G01*
X0168110Y0229626D02*
X0171181Y0229626D01*
G75*
G02*
X0171457Y0229350I0000000J-000276D01*
G01*
X0171457Y0227146D01*
G75*
G02*
X0171181Y0226870I-000276J0000000D01*
G01*
X0168110Y0226870D01*
G75*
G02*
X0167835Y0227146I0000000J0000276D01*
G01*
X0167835Y0229350D01*
G75*
G02*
X0168110Y0229626I0000276J0000000D01*
G01*
G37*
G36*
G01*
X0168110Y0223327D02*
X0171181Y0223327D01*
G75*
G02*
X0171457Y0223051I0000000J-000276D01*
G01*
X0171457Y0220846D01*
G75*
G02*
X0171181Y0220571I-000276J0000000D01*
G01*
X0168110Y0220571D01*
G75*
G02*
X0167835Y0220846I0000000J0000276D01*
G01*
X0167835Y0223051D01*
G75*
G02*
X0168110Y0223327I0000276J0000000D01*
G01*
G37*
G36*
G01*
X0215374Y0229626D02*
X0218445Y0229626D01*
G75*
G02*
X0218720Y0229350I0000000J-000276D01*
G01*
X0218720Y0227146D01*
G75*
G02*
X0218445Y0226870I-000276J0000000D01*
G01*
X0215374Y0226870D01*
G75*
G02*
X0215098Y0227146I0000000J0000276D01*
G01*
X0215098Y0229350D01*
G75*
G02*
X0215374Y0229626I0000276J0000000D01*
G01*
G37*
G36*
G01*
X0215374Y0223327D02*
X0218445Y0223327D01*
G75*
G02*
X0218720Y0223051I0000000J-000276D01*
G01*
X0218720Y0220846D01*
G75*
G02*
X0218445Y0220571I-000276J0000000D01*
G01*
X0215374Y0220571D01*
G75*
G02*
X0215098Y0220846I0000000J0000276D01*
G01*
X0215098Y0223051D01*
G75*
G02*
X0215374Y0223327I0000276J0000000D01*
G01*
G37*
G36*
G01*
X0197657Y0229626D02*
X0200728Y0229626D01*
G75*
G02*
X0201004Y0229350I0000000J-000276D01*
G01*
X0201004Y0227146D01*
G75*
G02*
X0200728Y0226870I-000276J0000000D01*
G01*
X0197657Y0226870D01*
G75*
G02*
X0197382Y0227146I0000000J0000276D01*
G01*
X0197382Y0229350D01*
G75*
G02*
X0197657Y0229626I0000276J0000000D01*
G01*
G37*
G36*
G01*
X0197657Y0223327D02*
X0200728Y0223327D01*
G75*
G02*
X0201004Y0223051I0000000J-000276D01*
G01*
X0201004Y0220846D01*
G75*
G02*
X0200728Y0220571I-000276J0000000D01*
G01*
X0197657Y0220571D01*
G75*
G02*
X0197382Y0220846I0000000J0000276D01*
G01*
X0197382Y0223051D01*
G75*
G02*
X0197657Y0223327I0000276J0000000D01*
G01*
G37*
G36*
G01*
X0221280Y0229626D02*
X0224350Y0229626D01*
G75*
G02*
X0224626Y0229350I0000000J-000276D01*
G01*
X0224626Y0227146D01*
G75*
G02*
X0224350Y0226870I-000276J0000000D01*
G01*
X0221280Y0226870D01*
G75*
G02*
X0221004Y0227146I0000000J0000276D01*
G01*
X0221004Y0229350D01*
G75*
G02*
X0221280Y0229626I0000276J0000000D01*
G01*
G37*
G36*
G01*
X0221280Y0223327D02*
X0224350Y0223327D01*
G75*
G02*
X0224626Y0223051I0000000J-000276D01*
G01*
X0224626Y0220846D01*
G75*
G02*
X0224350Y0220571I-000276J0000000D01*
G01*
X0221280Y0220571D01*
G75*
G02*
X0221004Y0220846I0000000J0000276D01*
G01*
X0221004Y0223051D01*
G75*
G02*
X0221280Y0223327I0000276J0000000D01*
G01*
G37*
G36*
G01*
X0175591Y0233169D02*
X0171575Y0233169D01*
G75*
G02*
X0171220Y0233524I0000000J0000354D01*
G01*
X0171220Y0236358D01*
G75*
G02*
X0171575Y0236713I0000354J0000000D01*
G01*
X0175591Y0236713D01*
G75*
G02*
X0175945Y0236358I0000000J-000354D01*
G01*
X0175945Y0233524D01*
G75*
G02*
X0175591Y0233169I-000354J0000000D01*
G01*
G37*
G36*
G01*
X0175591Y0246161D02*
X0171575Y0246161D01*
G75*
G02*
X0171220Y0246516I0000000J0000354D01*
G01*
X0171220Y0249350D01*
G75*
G02*
X0171575Y0249705I0000354J0000000D01*
G01*
X0175591Y0249705D01*
G75*
G02*
X0175945Y0249350I0000000J-000354D01*
G01*
X0175945Y0246516D01*
G75*
G02*
X0175591Y0246161I-000354J0000000D01*
G01*
G37*
G36*
G01*
X0126772Y0229626D02*
X0129843Y0229626D01*
G75*
G02*
X0130118Y0229350I0000000J-000276D01*
G01*
X0130118Y0227146D01*
G75*
G02*
X0129843Y0226870I-000276J0000000D01*
G01*
X0126772Y0226870D01*
G75*
G02*
X0126496Y0227146I0000000J0000276D01*
G01*
X0126496Y0229350D01*
G75*
G02*
X0126772Y0229626I0000276J0000000D01*
G01*
G37*
G36*
G01*
X0126772Y0223327D02*
X0129843Y0223327D01*
G75*
G02*
X0130118Y0223051I0000000J-000276D01*
G01*
X0130118Y0220846D01*
G75*
G02*
X0129843Y0220571I-000276J0000000D01*
G01*
X0126772Y0220571D01*
G75*
G02*
X0126496Y0220846I0000000J0000276D01*
G01*
X0126496Y0223051D01*
G75*
G02*
X0126772Y0223327I0000276J0000000D01*
G01*
G37*
G36*
G01*
X0162205Y0229626D02*
X0165276Y0229626D01*
G75*
G02*
X0165551Y0229350I0000000J-000276D01*
G01*
X0165551Y0227146D01*
G75*
G02*
X0165276Y0226870I-000276J0000000D01*
G01*
X0162205Y0226870D01*
G75*
G02*
X0161929Y0227146I0000000J0000276D01*
G01*
X0161929Y0229350D01*
G75*
G02*
X0162205Y0229626I0000276J0000000D01*
G01*
G37*
G36*
G01*
X0162205Y0223327D02*
X0165276Y0223327D01*
G75*
G02*
X0165551Y0223051I0000000J-000276D01*
G01*
X0165551Y0220846D01*
G75*
G02*
X0165276Y0220571I-000276J0000000D01*
G01*
X0162205Y0220571D01*
G75*
G02*
X0161929Y0220846I0000000J0000276D01*
G01*
X0161929Y0223051D01*
G75*
G02*
X0162205Y0223327I0000276J0000000D01*
G01*
G37*
G36*
G01*
X0120866Y0229626D02*
X0123937Y0229626D01*
G75*
G02*
X0124213Y0229350I0000000J-000276D01*
G01*
X0124213Y0227146D01*
G75*
G02*
X0123937Y0226870I-000276J0000000D01*
G01*
X0120866Y0226870D01*
G75*
G02*
X0120591Y0227146I0000000J0000276D01*
G01*
X0120591Y0229350D01*
G75*
G02*
X0120866Y0229626I0000276J0000000D01*
G01*
G37*
G36*
G01*
X0120866Y0223327D02*
X0123937Y0223327D01*
G75*
G02*
X0124213Y0223051I0000000J-000276D01*
G01*
X0124213Y0220846D01*
G75*
G02*
X0123937Y0220571I-000276J0000000D01*
G01*
X0120866Y0220571D01*
G75*
G02*
X0120591Y0220846I0000000J0000276D01*
G01*
X0120591Y0223051D01*
G75*
G02*
X0120866Y0223327I0000276J0000000D01*
G01*
G37*
G36*
G01*
X0270098Y0233169D02*
X0266083Y0233169D01*
G75*
G02*
X0265728Y0233524I0000000J0000354D01*
G01*
X0265728Y0236358D01*
G75*
G02*
X0266083Y0236713I0000354J0000000D01*
G01*
X0270098Y0236713D01*
G75*
G02*
X0270453Y0236358I0000000J-000354D01*
G01*
X0270453Y0233524D01*
G75*
G02*
X0270098Y0233169I-000354J0000000D01*
G01*
G37*
G36*
G01*
X0270098Y0246161D02*
X0266083Y0246161D01*
G75*
G02*
X0265728Y0246516I0000000J0000354D01*
G01*
X0265728Y0249350D01*
G75*
G02*
X0266083Y0249705I0000354J0000000D01*
G01*
X0270098Y0249705D01*
G75*
G02*
X0270453Y0249350I0000000J-000354D01*
G01*
X0270453Y0246516D01*
G75*
G02*
X0270098Y0246161I-000354J0000000D01*
G01*
G37*
G36*
G01*
X0250807Y0229626D02*
X0253878Y0229626D01*
G75*
G02*
X0254154Y0229350I0000000J-000276D01*
G01*
X0254154Y0227146D01*
G75*
G02*
X0253878Y0226870I-000276J0000000D01*
G01*
X0250807Y0226870D01*
G75*
G02*
X0250531Y0227146I0000000J0000276D01*
G01*
X0250531Y0229350D01*
G75*
G02*
X0250807Y0229626I0000276J0000000D01*
G01*
G37*
G36*
G01*
X0250807Y0223327D02*
X0253878Y0223327D01*
G75*
G02*
X0254154Y0223051I0000000J-000276D01*
G01*
X0254154Y0220846D01*
G75*
G02*
X0253878Y0220571I-000276J0000000D01*
G01*
X0250807Y0220571D01*
G75*
G02*
X0250531Y0220846I0000000J0000276D01*
G01*
X0250531Y0223051D01*
G75*
G02*
X0250807Y0223327I0000276J0000000D01*
G01*
G37*
G36*
G01*
X0185846Y0229626D02*
X0188917Y0229626D01*
G75*
G02*
X0189193Y0229350I0000000J-000276D01*
G01*
X0189193Y0227146D01*
G75*
G02*
X0188917Y0226870I-000276J0000000D01*
G01*
X0185846Y0226870D01*
G75*
G02*
X0185571Y0227146I0000000J0000276D01*
G01*
X0185571Y0229350D01*
G75*
G02*
X0185846Y0229626I0000276J0000000D01*
G01*
G37*
G36*
G01*
X0185846Y0223327D02*
X0188917Y0223327D01*
G75*
G02*
X0189193Y0223051I0000000J-000276D01*
G01*
X0189193Y0220846D01*
G75*
G02*
X0188917Y0220571I-000276J0000000D01*
G01*
X0185846Y0220571D01*
G75*
G02*
X0185571Y0220846I0000000J0000276D01*
G01*
X0185571Y0223051D01*
G75*
G02*
X0185846Y0223327I0000276J0000000D01*
G01*
G37*
G36*
G01*
X0256713Y0229626D02*
X0259783Y0229626D01*
G75*
G02*
X0260059Y0229350I0000000J-000276D01*
G01*
X0260059Y0227146D01*
G75*
G02*
X0259783Y0226870I-000276J0000000D01*
G01*
X0256713Y0226870D01*
G75*
G02*
X0256437Y0227146I0000000J0000276D01*
G01*
X0256437Y0229350D01*
G75*
G02*
X0256713Y0229626I0000276J0000000D01*
G01*
G37*
G36*
G01*
X0256713Y0223327D02*
X0259783Y0223327D01*
G75*
G02*
X0260059Y0223051I0000000J-000276D01*
G01*
X0260059Y0220846D01*
G75*
G02*
X0259783Y0220571I-000276J0000000D01*
G01*
X0256713Y0220571D01*
G75*
G02*
X0256437Y0220846I0000000J0000276D01*
G01*
X0256437Y0223051D01*
G75*
G02*
X0256713Y0223327I0000276J0000000D01*
G01*
G37*
G36*
G01*
X0233091Y0229626D02*
X0236161Y0229626D01*
G75*
G02*
X0236437Y0229350I0000000J-000276D01*
G01*
X0236437Y0227146D01*
G75*
G02*
X0236161Y0226870I-000276J0000000D01*
G01*
X0233091Y0226870D01*
G75*
G02*
X0232815Y0227146I0000000J0000276D01*
G01*
X0232815Y0229350D01*
G75*
G02*
X0233091Y0229626I0000276J0000000D01*
G01*
G37*
G36*
G01*
X0233091Y0223327D02*
X0236161Y0223327D01*
G75*
G02*
X0236437Y0223051I0000000J-000276D01*
G01*
X0236437Y0220846D01*
G75*
G02*
X0236161Y0220571I-000276J0000000D01*
G01*
X0233091Y0220571D01*
G75*
G02*
X0232815Y0220846I0000000J0000276D01*
G01*
X0232815Y0223051D01*
G75*
G02*
X0233091Y0223327I0000276J0000000D01*
G01*
G37*
X0451150Y0258470D02*
G01*
G75*
D341*
X0439535Y0157228D02*
D03*
X0430283Y0153488D02*
D03*
D341*
X0439535Y0149747D02*
D03*
D347*
X0419457Y0206502D02*
D03*
X0419457Y0202565D02*
D03*
X0298788Y0163588D02*
D03*
X0298788Y0167525D02*
D03*
X0422508Y0104336D02*
D03*
X0422508Y0108273D02*
D03*
X0389325Y0181698D02*
D03*
X0389325Y0185635D02*
D03*
X0372420Y0181770D02*
D03*
X0372420Y0177833D02*
D03*
X0394457Y0185242D02*
D03*
X0394457Y0181305D02*
D03*
X0445651Y0201654D02*
D03*
X0445651Y0205591D02*
D03*
X0427922Y0132486D02*
D03*
X0427922Y0136423D02*
D03*
X0448394Y0113391D02*
D03*
X0448394Y0109454D02*
D03*
X0316504Y0189179D02*
D03*
X0316504Y0193116D02*
D03*
X0390126Y0124612D02*
D03*
X0390126Y0120675D02*
D03*
X0359909Y0191049D02*
D03*
X0359909Y0187112D02*
D03*
X0370934Y0109749D02*
D03*
X0370934Y0105813D02*
D03*
X0318079Y0177368D02*
D03*
X0318079Y0181305D02*
D03*
X0314142Y0177368D02*
D03*
X0314142Y0181305D02*
D03*
X0444260Y0113391D02*
D03*
X0444260Y0109454D02*
D03*
X0307252Y0162013D02*
D03*
X0307252Y0165950D02*
D03*
X0307449Y0139572D02*
D03*
X0307449Y0143509D02*
D03*
X0355579Y0191049D02*
D03*
X0355579Y0187112D02*
D03*
X0351937Y0104533D02*
D03*
X0351937Y0108470D02*
D03*
X0390126Y0154139D02*
D03*
X0390126Y0150202D02*
D03*
X0390126Y0157683D02*
D03*
X0390126Y0161620D02*
D03*
X0403512Y0234061D02*
D03*
X0403512Y0237998D02*
D03*
X0398788Y0234061D02*
D03*
X0398788Y0237998D02*
D03*
X0394063Y0234061D02*
D03*
X0394063Y0237998D02*
D03*
X0389339Y0234061D02*
D03*
X0389339Y0237998D02*
D03*
X0304693Y0253352D02*
D03*
X0304693Y0249415D02*
D03*
X0299969Y0249415D02*
D03*
X0299969Y0253352D02*
D03*
X0295245Y0253352D02*
D03*
X0295245Y0249415D02*
D03*
X0290520Y0253352D02*
D03*
X0290520Y0249415D02*
D03*
X0423394Y0206502D02*
D03*
X0423394Y0202565D02*
D03*
X0395441Y0206502D02*
D03*
X0395441Y0202565D02*
D03*
X0427134Y0234061D02*
D03*
X0427134Y0237998D02*
D03*
X0431858Y0234061D02*
D03*
X0431858Y0237998D02*
D03*
X0436583Y0234061D02*
D03*
X0436583Y0237998D02*
D03*
X0441307Y0234061D02*
D03*
X0441307Y0237998D02*
D03*
X0408236Y0234061D02*
D03*
X0408236Y0237998D02*
D03*
X0412961Y0234061D02*
D03*
X0412961Y0237998D02*
D03*
X0417685Y0234061D02*
D03*
X0417685Y0237998D02*
D03*
X0422410Y0234061D02*
D03*
X0422410Y0237998D02*
D03*
X0370441Y0234061D02*
D03*
X0370441Y0237998D02*
D03*
X0375165Y0234061D02*
D03*
X0375165Y0237998D02*
D03*
X0379890Y0234061D02*
D03*
X0379890Y0237998D02*
D03*
X0384614Y0234061D02*
D03*
X0384614Y0237998D02*
D03*
X0351543Y0237998D02*
D03*
X0351543Y0234061D02*
D03*
X0356268Y0234061D02*
D03*
X0356268Y0237998D02*
D03*
X0360992Y0234061D02*
D03*
X0360992Y0237998D02*
D03*
X0365717Y0234061D02*
D03*
X0365717Y0237998D02*
D03*
X0332646Y0234061D02*
D03*
X0332646Y0237998D02*
D03*
X0337370Y0234061D02*
D03*
X0337370Y0237998D02*
D03*
X0342095Y0234061D02*
D03*
X0342095Y0237998D02*
D03*
X0346819Y0234061D02*
D03*
X0346819Y0237998D02*
D03*
X0318473Y0234061D02*
D03*
X0318473Y0237998D02*
D03*
X0323197Y0234061D02*
D03*
X0323197Y0237998D02*
D03*
X0327922Y0234061D02*
D03*
X0327922Y0237998D02*
D03*
X0446426Y0243313D02*
D03*
X0446426Y0239376D02*
D03*
X0309417Y0249415D02*
D03*
X0309417Y0253352D02*
D03*
X0395441Y0216738D02*
D03*
X0395441Y0212801D02*
D03*
X0307843Y0237998D02*
D03*
X0307843Y0234061D02*
D03*
X0446426Y0250990D02*
D03*
X0446426Y0247053D02*
D03*
X0307843Y0241935D02*
D03*
X0307843Y0245872D02*
D03*
X0302725Y0111620D02*
D03*
X0302725Y0115557D02*
D03*
X0313748Y0234061D02*
D03*
X0313748Y0237998D02*
D03*
D350*
X0413748Y0141639D02*
D03*
X0406662Y0141639D02*
D03*
X0406662Y0151679D02*
D03*
X0413748Y0151679D02*
D03*
X0399181Y0189868D02*
D03*
X0406268Y0189868D02*
D03*
X0406268Y0179828D02*
D03*
X0399181Y0179828D02*
D03*
X0399181Y0173726D02*
D03*
X0406268Y0173726D02*
D03*
X0406268Y0163686D02*
D03*
X0399181Y0163686D02*
D03*
X0303709Y0209553D02*
D03*
X0310796Y0209553D02*
D03*
X0310796Y0219592D02*
D03*
X0303709Y0219592D02*
D03*
X0322213Y0219592D02*
D03*
X0315126Y0219592D02*
D03*
X0315126Y0209553D02*
D03*
X0322213Y0209553D02*
D03*
X0372213Y0209553D02*
D03*
X0379299Y0209553D02*
D03*
X0379299Y0219592D02*
D03*
X0372213Y0219592D02*
D03*
X0390717Y0219592D02*
D03*
X0383630Y0219592D02*
D03*
X0383630Y0209553D02*
D03*
X0390717Y0209553D02*
D03*
X0349378Y0209553D02*
D03*
X0356465Y0209553D02*
D03*
X0356465Y0219592D02*
D03*
X0349378Y0219592D02*
D03*
X0367882Y0219592D02*
D03*
X0360795Y0219592D02*
D03*
X0360795Y0209553D02*
D03*
X0367882Y0209553D02*
D03*
X0326543Y0209553D02*
D03*
X0333630Y0209553D02*
D03*
X0333630Y0219592D02*
D03*
X0326543Y0219592D02*
D03*
X0345047Y0219592D02*
D03*
X0337961Y0219592D02*
D03*
X0337961Y0209553D02*
D03*
X0345047Y0209553D02*
D03*
D351*
X0406662Y0148234D02*
D03*
X0406662Y0145084D02*
D03*
X0413748Y0145084D02*
D03*
X0413748Y0148234D02*
D03*
X0406268Y0183273D02*
D03*
X0406268Y0186423D02*
D03*
X0399181Y0186423D02*
D03*
X0399181Y0183273D02*
D03*
X0406268Y0167131D02*
D03*
X0406268Y0170281D02*
D03*
X0399181Y0170281D02*
D03*
X0399181Y0167131D02*
D03*
X0303709Y0212998D02*
D03*
X0303709Y0216147D02*
D03*
X0310796Y0216147D02*
D03*
X0310796Y0212998D02*
D03*
X0322213Y0216147D02*
D03*
X0322213Y0212998D02*
D03*
X0315126Y0212998D02*
D03*
X0315126Y0216147D02*
D03*
X0372213Y0212998D02*
D03*
X0372213Y0216147D02*
D03*
X0379299Y0216147D02*
D03*
X0379299Y0212998D02*
D03*
X0390717Y0216147D02*
D03*
X0390717Y0212998D02*
D03*
X0383630Y0212998D02*
D03*
X0383630Y0216147D02*
D03*
X0349378Y0212998D02*
D03*
X0349378Y0216147D02*
D03*
X0356465Y0216147D02*
D03*
X0356465Y0212998D02*
D03*
X0367882Y0216147D02*
D03*
X0367882Y0212998D02*
D03*
X0360795Y0212998D02*
D03*
X0360795Y0216147D02*
D03*
X0326543Y0212998D02*
D03*
X0326543Y0216147D02*
D03*
X0333630Y0216147D02*
D03*
X0333630Y0212998D02*
D03*
X0345047Y0216147D02*
D03*
X0345047Y0212998D02*
D03*
X0337961Y0212998D02*
D03*
X0337961Y0216147D02*
D03*
D353*
X0425756Y0147643D02*
D03*
X0425756Y0145084D02*
D03*
X0425756Y0142525D02*
D03*
X0418276Y0142525D02*
D03*
X0418276Y0147643D02*
D03*
D356*
X0407449Y0107092D02*
D03*
X0411386Y0107092D02*
D03*
X0291307Y0122840D02*
D03*
X0295245Y0122840D02*
D03*
X0432407Y0127661D02*
D03*
X0428470Y0127661D02*
D03*
X0409811Y0133667D02*
D03*
X0413748Y0133667D02*
D03*
X0418867Y0137604D02*
D03*
X0414930Y0137604D02*
D03*
X0309811Y0188391D02*
D03*
X0305874Y0188391D02*
D03*
X0379103Y0106501D02*
D03*
X0375166Y0106501D02*
D03*
X0310402Y0118706D02*
D03*
X0306465Y0118706D02*
D03*
X0337764Y0107683D02*
D03*
X0333827Y0107683D02*
D03*
X0382240Y0194492D02*
D03*
X0386177Y0194492D02*
D03*
X0391504Y0171856D02*
D03*
X0387567Y0171856D02*
D03*
X0381465Y0173431D02*
D03*
X0377528Y0173431D02*
D03*
X0382252Y0145084D02*
D03*
X0378315Y0145084D02*
D03*
X0286977Y0104927D02*
D03*
X0290914Y0104927D02*
D03*
X0400166Y0105911D02*
D03*
X0404103Y0105911D02*
D03*
X0418079Y0120281D02*
D03*
X0414142Y0120281D02*
D03*
X0307055Y0182092D02*
D03*
X0303118Y0182092D02*
D03*
X0307055Y0178155D02*
D03*
X0303118Y0178155D02*
D03*
X0306465Y0114769D02*
D03*
X0310402Y0114769D02*
D03*
X0333532Y0190655D02*
D03*
X0337469Y0190655D02*
D03*
X0390126Y0145478D02*
D03*
X0386189Y0145478D02*
D03*
X0390126Y0177171D02*
D03*
X0386189Y0177171D02*
D03*
X0381859Y0121856D02*
D03*
X0377922Y0121856D02*
D03*
X0382646Y0137210D02*
D03*
X0378709Y0137210D02*
D03*
X0367784Y0191049D02*
D03*
X0363847Y0191049D02*
D03*
X0313551Y0203352D02*
D03*
X0317488Y0203352D02*
D03*
X0382055Y0203352D02*
D03*
X0385992Y0203352D02*
D03*
X0359221Y0203352D02*
D03*
X0363158Y0203352D02*
D03*
X0336386Y0203352D02*
D03*
X0340323Y0203352D02*
D03*
X0375559Y0227368D02*
D03*
X0379496Y0227368D02*
D03*
X0430611Y0223824D02*
D03*
X0426674Y0223824D02*
D03*
X0439800Y0223824D02*
D03*
X0443737Y0223824D02*
D03*
X0405807Y0223824D02*
D03*
X0401870Y0223824D02*
D03*
X0414996Y0223824D02*
D03*
X0418933Y0223824D02*
D03*
X0443276Y0141935D02*
D03*
X0447213Y0141935D02*
D03*
X0437370Y0141935D02*
D03*
X0433433Y0141935D02*
D03*
X0400362Y0230124D02*
D03*
X0404299Y0230124D02*
D03*
X0447213Y0192328D02*
D03*
X0443276Y0192328D02*
D03*
X0447213Y0179927D02*
D03*
X0443276Y0179927D02*
D03*
X0447213Y0175793D02*
D03*
X0443276Y0175793D02*
D03*
X0447213Y0167525D02*
D03*
X0443276Y0167525D02*
D03*
X0447213Y0171659D02*
D03*
X0443276Y0171659D02*
D03*
X0447213Y0163391D02*
D03*
X0443276Y0163391D02*
D03*
X0447213Y0184060D02*
D03*
X0443276Y0184060D02*
D03*
X0447213Y0188194D02*
D03*
X0443276Y0188194D02*
D03*
D136*
X0395402Y0108529D02*
D03*
X0415402Y0112529D02*
D03*
X0415402Y0104529D02*
D03*
D137*
X0357055Y0197053D02*
D03*
X0309811Y0192722D02*
D03*
X0314929Y0197446D02*
D03*
X0326741Y0197446D02*
D03*
X0338158Y0197446D02*
D03*
X0374378Y0197446D02*
D03*
X0391308Y0196265D02*
D03*
D41*
X0446819Y0104927D02*
D03*
D370*
X0397173Y0140950D02*
D03*
X0390953Y0140950D02*
D03*
D371*
X0294570Y0130599D02*
D03*
X0290830Y0139851D02*
D03*
X0376999Y0188350D02*
D03*
X0380739Y0179098D02*
D03*
X0440520Y0127486D02*
D03*
X0444260Y0118234D02*
D03*
X0434811Y0114061D02*
D03*
X0431071Y0123312D02*
D03*
X0298197Y0222446D02*
D03*
X0294457Y0231698D02*
D03*
X0294457Y0216803D02*
D03*
X0298197Y0207551D02*
D03*
X0298197Y0192656D02*
D03*
X0294457Y0201908D02*
D03*
X0298984Y0177761D02*
D03*
X0295244Y0187013D02*
D03*
D371*
X0298310Y0139851D02*
D03*
X0384479Y0188350D02*
D03*
X0448000Y0127486D02*
D03*
X0427331Y0114060D02*
D03*
X0290717Y0222446D02*
D03*
X0290717Y0207551D02*
D03*
X0290717Y0192656D02*
D03*
X0291504Y0177761D02*
D03*
D372*
X0446819Y0134848D02*
D03*
X0433827Y0134848D02*
D03*
X0409418Y0124612D02*
D03*
X0396425Y0124612D02*
D03*
D164*
X0414339Y0126187D02*
D03*
X0421032Y0126187D02*
D03*
D373*
X0292095Y0163982D02*
D03*
X0292095Y0152565D02*
D03*
D374*
X0354024Y0152946D02*
D03*
X0349693Y0152946D02*
D03*
X0345362Y0152946D02*
D03*
X0341032Y0152946D02*
D03*
X0336701Y0152946D02*
D03*
X0332370Y0152946D02*
D03*
X0328039Y0152946D02*
D03*
X0323709Y0152946D02*
D03*
D375*
X0314339Y0163182D02*
D03*
X0314339Y0130505D02*
D03*
X0368472Y0130505D02*
D03*
X0368472Y0163182D02*
D03*
D168*
X0379102Y0151974D02*
D03*
X0379102Y0166541D02*
D03*
D376*
X0332547Y0175793D02*
D03*
X0332547Y0182879D02*
D03*
X0322508Y0182879D02*
D03*
X0322508Y0175793D02*
D03*
X0401445Y0250793D02*
D03*
X0401445Y0243706D02*
D03*
X0391406Y0243706D02*
D03*
X0391406Y0250793D02*
D03*
X0429595Y0216344D02*
D03*
X0429595Y0209257D02*
D03*
X0439634Y0209257D02*
D03*
X0439634Y0216344D02*
D03*
X0439634Y0197840D02*
D03*
X0439634Y0204927D02*
D03*
X0429595Y0204927D02*
D03*
X0429595Y0197840D02*
D03*
X0401642Y0216344D02*
D03*
X0401642Y0209257D02*
D03*
X0411681Y0209257D02*
D03*
X0411681Y0216344D02*
D03*
X0411681Y0197840D02*
D03*
X0411681Y0204927D02*
D03*
X0401642Y0204927D02*
D03*
X0401642Y0197840D02*
D03*
X0439240Y0250793D02*
D03*
X0439240Y0243706D02*
D03*
X0429201Y0243706D02*
D03*
X0429201Y0250793D02*
D03*
X0420343Y0250793D02*
D03*
X0420343Y0243706D02*
D03*
X0410304Y0243706D02*
D03*
X0410304Y0250793D02*
D03*
X0382548Y0250793D02*
D03*
X0382548Y0243706D02*
D03*
X0372508Y0243706D02*
D03*
X0372508Y0250793D02*
D03*
X0363650Y0250793D02*
D03*
X0363650Y0243706D02*
D03*
X0353610Y0243706D02*
D03*
X0353610Y0250793D02*
D03*
X0344752Y0250793D02*
D03*
X0344752Y0243706D02*
D03*
X0334713Y0243706D02*
D03*
X0334713Y0250793D02*
D03*
X0325855Y0250793D02*
D03*
X0325855Y0243706D02*
D03*
X0315815Y0243706D02*
D03*
X0315815Y0250793D02*
D03*
X0292587Y0245084D02*
D03*
X0292587Y0237998D02*
D03*
X0302626Y0237998D02*
D03*
X0302626Y0245084D02*
D03*
D377*
X0329103Y0175793D02*
D03*
X0325953Y0175793D02*
D03*
X0325953Y0182879D02*
D03*
X0329103Y0182879D02*
D03*
X0394851Y0243706D02*
D03*
X0398000Y0243706D02*
D03*
X0398000Y0250793D02*
D03*
X0394851Y0250793D02*
D03*
X0433040Y0216344D02*
D03*
X0436189Y0216344D02*
D03*
X0436189Y0209257D02*
D03*
X0433040Y0209257D02*
D03*
X0436189Y0197840D02*
D03*
X0433040Y0197840D02*
D03*
X0433040Y0204927D02*
D03*
X0436189Y0204927D02*
D03*
X0405087Y0216344D02*
D03*
X0408237Y0216344D02*
D03*
X0408237Y0209257D02*
D03*
X0405087Y0209257D02*
D03*
X0408236Y0197840D02*
D03*
X0405087Y0197840D02*
D03*
X0405087Y0204927D02*
D03*
X0408236Y0204927D02*
D03*
X0432646Y0243706D02*
D03*
X0435795Y0243706D02*
D03*
X0435795Y0250793D02*
D03*
X0432646Y0250793D02*
D03*
X0413748Y0243706D02*
D03*
X0416898Y0243706D02*
D03*
X0416898Y0250793D02*
D03*
X0413748Y0250793D02*
D03*
X0375953Y0243706D02*
D03*
X0379103Y0243706D02*
D03*
X0379103Y0250793D02*
D03*
X0375953Y0250793D02*
D03*
X0357055Y0243706D02*
D03*
X0360205Y0243706D02*
D03*
X0360205Y0250793D02*
D03*
X0357055Y0250793D02*
D03*
X0338158Y0243706D02*
D03*
X0341307Y0243706D02*
D03*
X0341307Y0250793D02*
D03*
X0338158Y0250793D02*
D03*
X0319260Y0243706D02*
D03*
X0322410Y0243706D02*
D03*
X0322410Y0250793D02*
D03*
X0319260Y0250793D02*
D03*
X0296032Y0245084D02*
D03*
X0299181Y0245084D02*
D03*
X0299181Y0237998D02*
D03*
X0296032Y0237998D02*
D03*
D378*
X0307449Y0148234D02*
D03*
X0307449Y0154533D02*
D03*
X0361091Y0112505D02*
D03*
X0361091Y0106206D02*
D03*
X0446425Y0146265D02*
D03*
X0446425Y0152565D02*
D03*
X0301937Y0155714D02*
D03*
X0301937Y0149415D02*
D03*
D379*
X0381859Y0126777D02*
D03*
X0381859Y0132683D02*
D03*
D380*
X0390913Y0131698D02*
D03*
X0397213Y0131698D02*
D03*
X0390913Y0136324D02*
D03*
X0397213Y0136324D02*
D03*
D381*
X0439339Y0107092D02*
D03*
X0427922Y0107092D02*
D03*
D382*
X0302922Y0167289D02*
D03*
X0302922Y0161068D02*
D03*
X0374378Y0137643D02*
D03*
X0374378Y0143864D02*
D03*
D176*
X0437528Y0191344D02*
D03*
X0437528Y0188785D02*
D03*
X0437528Y0186226D02*
D03*
X0437528Y0183667D02*
D03*
X0437528Y0181108D02*
D03*
X0437528Y0178549D02*
D03*
X0437528Y0175990D02*
D03*
X0437528Y0173431D02*
D03*
X0437528Y0170872D02*
D03*
X0437528Y0168312D02*
D03*
X0437528Y0165754D02*
D03*
X0437528Y0163194D02*
D03*
X0414535Y0191344D02*
D03*
X0414535Y0188785D02*
D03*
X0414535Y0186226D02*
D03*
X0414535Y0183667D02*
D03*
X0414535Y0181108D02*
D03*
X0414535Y0178549D02*
D03*
X0414535Y0175990D02*
D03*
X0414535Y0173431D02*
D03*
X0414535Y0170872D02*
D03*
X0414535Y0168312D02*
D03*
X0414535Y0165754D02*
D03*
X0414535Y0163194D02*
D03*
D177*
X0294260Y0115163D02*
D03*
X0296228Y0115163D02*
D03*
X0296228Y0108864D02*
D03*
X0294260Y0108864D02*
D03*
D178*
X0298394Y0114966D02*
D03*
X0298394Y0112997D02*
D03*
X0298394Y0111029D02*
D03*
X0298394Y0109061D02*
D03*
X0292094Y0114966D02*
D03*
X0292094Y0109061D02*
D03*
X0292094Y0112997D02*
D03*
X0292094Y0111029D02*
D03*
X0241535Y0433760D02*
G01*
G75*
D469*
X0317913Y0403845D02*
D03*
X0317913Y0416837D02*
D03*
D470*
X0318307Y0383985D02*
D03*
X0318307Y0395402D02*
D03*
X0310275Y0383985D02*
D03*
X0310275Y0395402D02*
D03*
D473*
X0296259Y0421358D02*
D03*
X0300196Y0421358D02*
D03*
X0310826Y0424705D02*
D03*
X0310826Y0416043D02*
D03*
X0305578Y0425492D02*
D03*
X0305578Y0416831D02*
D03*
D474*
X0252952Y0413605D02*
D03*
X0252952Y0417149D02*
D03*
X0289685Y0404214D02*
D03*
X0289685Y0400670D02*
D03*
X0304790Y0412211D02*
D03*
X0304790Y0408668D02*
D03*
X0252952Y0404987D02*
D03*
X0252952Y0408530D02*
D03*
X0256889Y0425492D02*
D03*
X0256889Y0421949D02*
D03*
D475*
X0306365Y0400007D02*
D03*
X0309909Y0400007D02*
D03*
X0318767Y0420774D02*
D03*
X0315223Y0420774D02*
D03*
X0260450Y0372010D02*
D03*
X0263994Y0372010D02*
D03*
D211*
X0259645Y0368012D02*
D03*
X0255708Y0368012D02*
D03*
D212*
X0313188Y0430807D02*
D03*
X0246259Y0430807D02*
D03*
X0293700Y0430807D02*
D03*
X0293503Y0369784D02*
D03*
X0318700Y0369784D02*
D03*
X0269094Y0369784D02*
D03*
X0286023Y0369784D02*
D03*
X0244488Y0369784D02*
D03*
X0320472Y0430807D02*
D03*
D481*
X0297834Y0384547D02*
D03*
X0297834Y0395571D02*
D03*
D482*
X0293511Y0417225D02*
D03*
X0299731Y0417225D02*
D03*
X0293511Y0403131D02*
D03*
X0299731Y0403131D02*
D03*
X0293511Y0407822D02*
D03*
X0299731Y0407822D02*
D03*
X0293511Y0412514D02*
D03*
X0299731Y0412514D02*
D03*
X0305755Y0404312D02*
D03*
X0311976Y0404312D02*
D03*
D483*
X0256889Y0413802D02*
D03*
X0256889Y0417739D02*
D03*
X0256889Y0409121D02*
D03*
X0256889Y0405184D02*
D03*
X0310826Y0412408D02*
D03*
X0310826Y0408471D02*
D03*
X0289212Y0389475D02*
D03*
X0289212Y0385538D02*
D03*
X0251771Y0381699D02*
D03*
X0251771Y0385637D02*
D03*
D415*
X0263649Y0408688D02*
D03*
X0263649Y0413688D02*
D03*
X0263649Y0418688D02*
D03*
X0263649Y0423688D02*
D03*
X0286286Y0408688D02*
D03*
X0286286Y0413688D02*
D03*
X0286286Y0418688D02*
D03*
X0286286Y0423688D02*
D03*
X0258366Y0385621D02*
D03*
X0258366Y0390621D02*
D03*
X0258366Y0395621D02*
D03*
X0258366Y0400621D02*
D03*
X0281791Y0385621D02*
D03*
X0281791Y0390621D02*
D03*
X0281791Y0395621D02*
D03*
X0281791Y0400621D02*
D03*
D484*
X0274967Y0416188D02*
D03*
D485*
X0270078Y0393121D02*
D03*
X0103346Y0098031D02*
%LPD*%
G01*
D226*
X0194527Y0109645D03*
X0186653Y0121456D03*
X0178779Y0109645D03*
D108*
X0107519Y0108858D03*
X0127519Y0104858D03*
X0127519Y0112858D03*
D229*
X0197007Y0147736D03*
D230*
X0187007Y0147736D03*
X0177007Y0147736D03*
G36*
G01*
X0183051Y0105390D02*
X0183051Y0106748D01*
G75*
G02*
X0183631Y0107329I0000581J0000000D01*
G01*
X0184793Y0107329D01*
G75*
G02*
X0185374Y0106748I0000000J-000581D01*
G01*
X0185374Y0105390D01*
G75*
G02*
X0184793Y0104809I-000581J0000000D01*
G01*
X0183631Y0104809D01*
G75*
G02*
X0183051Y0105390I0000000J0000581D01*
G01*
G37*
G36*
G01*
X0186870Y0105390D02*
X0186870Y0106748D01*
G75*
G02*
X0187450Y0107329I0000581J0000000D01*
G01*
X0188612Y0107329D01*
G75*
G02*
X0189192Y0106748I0000000J-000581D01*
G01*
X0189192Y0105390D01*
G75*
G02*
X0188612Y0104809I-000581J0000000D01*
G01*
X0187450Y0104809D01*
G75*
G02*
X0186870Y0105390I0000000J0000581D01*
G01*
G37*
G36*
G01*
X0197519Y0120679D02*
X0197519Y0122037D01*
G75*
G02*
X0198100Y0122618I0000581J0000000D01*
G01*
X0199261Y0122618D01*
G75*
G02*
X0199842Y0122037I0000000J-000581D01*
G01*
X0199842Y0120679D01*
G75*
G02*
X0199261Y0120098I-000581J0000000D01*
G01*
X0198100Y0120098D01*
G75*
G02*
X0197519Y0120679I0000000J0000581D01*
G01*
G37*
G36*
G01*
X0201338Y0120679D02*
X0201338Y0122037D01*
G75*
G02*
X0201919Y0122618I0000581J0000000D01*
G01*
X0203080Y0122618D01*
G75*
G02*
X0203661Y0122037I0000000J-000581D01*
G01*
X0203661Y0120679D01*
G75*
G02*
X0203080Y0120098I-000581J0000000D01*
G01*
X0201919Y0120098D01*
G75*
G02*
X0201338Y0120679I0000000J0000581D01*
G01*
G37*
G36*
G01*
X0147637Y0146875D02*
X0147637Y0144857D01*
G75*
G02*
X0146776Y0143996I-000861J0000000D01*
G01*
X0145054Y0143996D01*
G75*
G02*
X0144192Y0144857I0000000J0000861D01*
G01*
X0144192Y0146875D01*
G75*
G02*
X0145054Y0147736I0000861J0000000D01*
G01*
X0146776Y0147736D01*
G75*
G02*
X0147637Y0146875I0000000J-000861D01*
G01*
G37*
G36*
G01*
X0141437Y0146875D02*
X0141437Y0144857D01*
G75*
G02*
X0140575Y0143996I-000861J0000000D01*
G01*
X0138853Y0143996D01*
G75*
G02*
X0137992Y0144857I0000000J0000861D01*
G01*
X0137992Y0146875D01*
G75*
G02*
X0138853Y0147736I0000861J0000000D01*
G01*
X0140575Y0147736D01*
G75*
G02*
X0141437Y0146875I0000000J-000861D01*
G01*
G37*
G36*
G01*
X0189192Y0102549D02*
X0189192Y0101190D01*
G75*
G02*
X0188612Y0100610I-000581J0000000D01*
G01*
X0187450Y0100610D01*
G75*
G02*
X0186870Y0101190I0000000J0000581D01*
G01*
X0186870Y0102549D01*
G75*
G02*
X0187450Y0103129I0000581J0000000D01*
G01*
X0188612Y0103129D01*
G75*
G02*
X0189192Y0102549I0000000J-000581D01*
G01*
G37*
G36*
G01*
X0185374Y0102549D02*
X0185374Y0101190D01*
G75*
G02*
X0184793Y0100610I-000581J0000000D01*
G01*
X0183631Y0100610D01*
G75*
G02*
X0183051Y0101190I0000000J0000581D01*
G01*
X0183051Y0102549D01*
G75*
G02*
X0183631Y0103129I0000581J0000000D01*
G01*
X0184793Y0103129D01*
G75*
G02*
X0185374Y0102549I0000000J-000581D01*
G01*
G37*
G36*
G01*
X0129491Y0141545D02*
X0129491Y0142903D01*
G75*
G02*
X0130071Y0143484I0000581J0000000D01*
G01*
X0131233Y0143484D01*
G75*
G02*
X0131813Y0142903I0000000J-000581D01*
G01*
X0131813Y0141545D01*
G75*
G02*
X0131233Y0140964I-000581J0000000D01*
G01*
X0130071Y0140964D01*
G75*
G02*
X0129491Y0141545I0000000J0000581D01*
G01*
G37*
G36*
G01*
X0133309Y0141545D02*
X0133309Y0142903D01*
G75*
G02*
X0133890Y0143484I0000581J0000000D01*
G01*
X0135052Y0143484D01*
G75*
G02*
X0135632Y0142903I0000000J-000581D01*
G01*
X0135632Y0141545D01*
G75*
G02*
X0135052Y0140964I-000581J0000000D01*
G01*
X0133890Y0140964D01*
G75*
G02*
X0133309Y0141545I0000000J0000581D01*
G01*
G37*
G36*
G01*
X0137578Y0139675D02*
X0137578Y0141033D01*
G75*
G02*
X0138159Y0141614I0000581J0000000D01*
G01*
X0139320Y0141614D01*
G75*
G02*
X0139901Y0141033I0000000J-000581D01*
G01*
X0139901Y0139675D01*
G75*
G02*
X0139320Y0139094I-000581J0000000D01*
G01*
X0138159Y0139094D01*
G75*
G02*
X0137578Y0139675I0000000J0000581D01*
G01*
G37*
G36*
G01*
X0141397Y0139675D02*
X0141397Y0141033D01*
G75*
G02*
X0141978Y0141614I0000581J0000000D01*
G01*
X0143139Y0141614D01*
G75*
G02*
X0143720Y0141033I0000000J-000581D01*
G01*
X0143720Y0139675D01*
G75*
G02*
X0143139Y0139094I-000581J0000000D01*
G01*
X0141978Y0139094D01*
G75*
G02*
X0141397Y0139675I0000000J0000581D01*
G01*
G37*
G36*
G01*
X0108966Y0147007D02*
X0110324Y0147007D01*
G75*
G02*
X0110905Y0146427I0000000J-000581D01*
G01*
X0110905Y0145265D01*
G75*
G02*
X0110324Y0144685I-000581J0000000D01*
G01*
X0108966Y0144685D01*
G75*
G02*
X0108385Y0145265I0000000J0000581D01*
G01*
X0108385Y0146427D01*
G75*
G02*
X0108966Y0147007I0000581J0000000D01*
G01*
G37*
G36*
G01*
X0108966Y0143188D02*
X0110324Y0143188D01*
G75*
G02*
X0110905Y0142608I0000000J-000581D01*
G01*
X0110905Y0141446D01*
G75*
G02*
X0110324Y0140866I-000581J0000000D01*
G01*
X0108966Y0140866D01*
G75*
G02*
X0108385Y0141446I0000000J0000581D01*
G01*
X0108385Y0142608D01*
G75*
G02*
X0108966Y0143188I0000581J0000000D01*
G01*
G37*
G36*
G01*
X0158484Y0129419D02*
X0158484Y0128061D01*
G75*
G02*
X0157903Y0127480I-000581J0000000D01*
G01*
X0156742Y0127480D01*
G75*
G02*
X0156161Y0128061I0000000J0000581D01*
G01*
X0156161Y0129419D01*
G75*
G02*
X0156742Y0130000I0000581J0000000D01*
G01*
X0157903Y0130000D01*
G75*
G02*
X0158484Y0129419I0000000J-000581D01*
G01*
G37*
G36*
G01*
X0154665Y0129419D02*
X0154665Y0128061D01*
G75*
G02*
X0154084Y0127480I-000581J0000000D01*
G01*
X0152923Y0127480D01*
G75*
G02*
X0152342Y0128061I0000000J0000581D01*
G01*
X0152342Y0129419D01*
G75*
G02*
X0152923Y0130000I0000581J0000000D01*
G01*
X0154084Y0130000D01*
G75*
G02*
X0154665Y0129419I0000000J-000581D01*
G01*
G37*
G36*
G01*
X0152342Y0124124D02*
X0152342Y0125482D01*
G75*
G02*
X0152923Y0126062I0000581J0000000D01*
G01*
X0154084Y0126062D01*
G75*
G02*
X0154665Y0125482I0000000J-000581D01*
G01*
X0154665Y0124124D01*
G75*
G02*
X0154084Y0123543I-000581J0000000D01*
G01*
X0152923Y0123543D01*
G75*
G02*
X0152342Y0124124I0000000J0000581D01*
G01*
G37*
G36*
G01*
X0156161Y0124124D02*
X0156161Y0125482D01*
G75*
G02*
X0156742Y0126062I0000581J0000000D01*
G01*
X0157903Y0126062D01*
G75*
G02*
X0158484Y0125482I0000000J-000581D01*
G01*
X0158484Y0124124D01*
G75*
G02*
X0157903Y0123543I-000581J0000000D01*
G01*
X0156742Y0123543D01*
G75*
G02*
X0156161Y0124124I0000000J0000581D01*
G01*
G37*
G36*
G01*
X0199822Y0126564D02*
X0199822Y0125206D01*
G75*
G02*
X0199242Y0124625I-000581J0000000D01*
G01*
X0198080Y0124625D01*
G75*
G02*
X0197500Y0125206I0000000J0000581D01*
G01*
X0197500Y0126564D01*
G75*
G02*
X0198080Y0127145I0000581J0000000D01*
G01*
X0199242Y0127145D01*
G75*
G02*
X0199822Y0126564I0000000J-000581D01*
G01*
G37*
G36*
G01*
X0196003Y0126564D02*
X0196003Y0125206D01*
G75*
G02*
X0195423Y0124625I-000581J0000000D01*
G01*
X0194261Y0124625D01*
G75*
G02*
X0193681Y0125206I0000000J0000581D01*
G01*
X0193681Y0126564D01*
G75*
G02*
X0194261Y0127145I0000581J0000000D01*
G01*
X0195423Y0127145D01*
G75*
G02*
X0196003Y0126564I0000000J-000581D01*
G01*
G37*
D232*
X0145472Y0103149D03*
X0145472Y0105708D03*
X0145472Y0108267D03*
X0145472Y0110826D03*
X0145472Y0113385D03*
X0145472Y0115944D03*
X0145472Y0118503D03*
X0168700Y0118503D03*
X0168700Y0115944D03*
X0168700Y0113385D03*
X0168700Y0110826D03*
X0168700Y0108267D03*
X0168700Y0105708D03*
X0168700Y0103149D03*
G36*
G01*
X0135649Y0146643D02*
X0135649Y0145285D01*
G75*
G02*
X0135068Y0144704I-000581J0000000D01*
G01*
X0133907Y0144704D01*
G75*
G02*
X0133326Y0145285I0000000J0000581D01*
G01*
X0133326Y0146643D01*
G75*
G02*
X0133907Y0147224I0000581J0000000D01*
G01*
X0135068Y0147224D01*
G75*
G02*
X0135649Y0146643I0000000J-000581D01*
G01*
G37*
G36*
G01*
X0131830Y0146643D02*
X0131830Y0145285D01*
G75*
G02*
X0131250Y0144704I-000581J0000000D01*
G01*
X0130088Y0144704D01*
G75*
G02*
X0129507Y0145285I0000000J0000581D01*
G01*
X0129507Y0146643D01*
G75*
G02*
X0130088Y0147224I0000581J0000000D01*
G01*
X0131250Y0147224D01*
G75*
G02*
X0131830Y0146643I0000000J-000581D01*
G01*
G37*
G36*
G01*
X0129507Y0149025D02*
X0129507Y0150383D01*
G75*
G02*
X0130088Y0150964I0000581J0000000D01*
G01*
X0131250Y0150964D01*
G75*
G02*
X0131830Y0150383I0000000J-000581D01*
G01*
X0131830Y0149025D01*
G75*
G02*
X0131250Y0148444I-000581J0000000D01*
G01*
X0130088Y0148444D01*
G75*
G02*
X0129507Y0149025I0000000J0000581D01*
G01*
G37*
G36*
G01*
X0133326Y0149025D02*
X0133326Y0150383D01*
G75*
G02*
X0133907Y0150964I0000581J0000000D01*
G01*
X0135068Y0150964D01*
G75*
G02*
X0135649Y0150383I0000000J-000581D01*
G01*
X0135649Y0149025D01*
G75*
G02*
X0135068Y0148444I-000581J0000000D01*
G01*
X0133907Y0148444D01*
G75*
G02*
X0133326Y0149025I0000000J0000581D01*
G01*
G37*
G36*
G01*
X0189744Y0139576D02*
X0189744Y0140935D01*
G75*
G02*
X0190324Y0141515I0000581J0000000D01*
G01*
X0191486Y0141515D01*
G75*
G02*
X0192066Y0140935I0000000J-000581D01*
G01*
X0192066Y0139576D01*
G75*
G02*
X0191486Y0138996I-000581J0000000D01*
G01*
X0190324Y0138996D01*
G75*
G02*
X0189744Y0139576I0000000J0000581D01*
G01*
G37*
G36*
G01*
X0193563Y0139576D02*
X0193563Y0140935D01*
G75*
G02*
X0194143Y0141515I0000581J0000000D01*
G01*
X0195305Y0141515D01*
G75*
G02*
X0195885Y0140935I0000000J-000581D01*
G01*
X0195885Y0139576D01*
G75*
G02*
X0195305Y0138996I-000581J0000000D01*
G01*
X0194143Y0138996D01*
G75*
G02*
X0193563Y0139576I0000000J0000581D01*
G01*
G37*
G36*
G01*
X0183051Y0110278D02*
X0183051Y0111637D01*
G75*
G02*
X0183631Y0112217I0000581J0000000D01*
G01*
X0184793Y0112217D01*
G75*
G02*
X0185374Y0111637I0000000J-000581D01*
G01*
X0185374Y0110278D01*
G75*
G02*
X0184793Y0109698I-000581J0000000D01*
G01*
X0183631Y0109698D01*
G75*
G02*
X0183051Y0110278I0000000J0000581D01*
G01*
G37*
G36*
G01*
X0186870Y0110278D02*
X0186870Y0111637D01*
G75*
G02*
X0187450Y0112217I0000581J0000000D01*
G01*
X0188612Y0112217D01*
G75*
G02*
X0189192Y0111637I0000000J-000581D01*
G01*
X0189192Y0110278D01*
G75*
G02*
X0188612Y0109698I-000581J0000000D01*
G01*
X0187450Y0109698D01*
G75*
G02*
X0186870Y0110278I0000000J0000581D01*
G01*
G37*
G36*
G01*
X0155236Y0133356D02*
X0155236Y0131998D01*
G75*
G02*
X0154655Y0131417I-000581J0000000D01*
G01*
X0153494Y0131417D01*
G75*
G02*
X0152913Y0131998I0000000J0000581D01*
G01*
X0152913Y0133356D01*
G75*
G02*
X0153494Y0133937I0000581J0000000D01*
G01*
X0154655Y0133937D01*
G75*
G02*
X0155236Y0133356I0000000J-000581D01*
G01*
G37*
G36*
G01*
X0151417Y0133356D02*
X0151417Y0131998D01*
G75*
G02*
X0150836Y0131417I-000581J0000000D01*
G01*
X0149675Y0131417D01*
G75*
G02*
X0149094Y0131998I0000000J0000581D01*
G01*
X0149094Y0133356D01*
G75*
G02*
X0149675Y0133937I0000581J0000000D01*
G01*
X0150836Y0133937D01*
G75*
G02*
X0151417Y0133356I0000000J-000581D01*
G01*
G37*
G36*
G01*
X0203563Y0140935D02*
X0203563Y0139576D01*
G75*
G02*
X0202982Y0138996I-000581J0000000D01*
G01*
X0201820Y0138996D01*
G75*
G02*
X0201240Y0139576I0000000J0000581D01*
G01*
X0201240Y0140935D01*
G75*
G02*
X0201820Y0141515I0000581J0000000D01*
G01*
X0202982Y0141515D01*
G75*
G02*
X0203563Y0140935I0000000J-000581D01*
G01*
G37*
G36*
G01*
X0199744Y0140935D02*
X0199744Y0139576D01*
G75*
G02*
X0199163Y0138996I-000581J0000000D01*
G01*
X0198002Y0138996D01*
G75*
G02*
X0197421Y0139576I0000000J0000581D01*
G01*
X0197421Y0140935D01*
G75*
G02*
X0198002Y0141515I0000581J0000000D01*
G01*
X0199163Y0141515D01*
G75*
G02*
X0199744Y0140935I0000000J-000581D01*
G01*
G37*
G36*
G01*
X0151102Y0125482D02*
X0151102Y0124124D01*
G75*
G02*
X0150521Y0123543I-000581J0000000D01*
G01*
X0149360Y0123543D01*
G75*
G02*
X0148779Y0124124I0000000J0000581D01*
G01*
X0148779Y0125482D01*
G75*
G02*
X0149360Y0126062I0000581J0000000D01*
G01*
X0150521Y0126062D01*
G75*
G02*
X0151102Y0125482I0000000J-000581D01*
G01*
G37*
G36*
G01*
X0147283Y0125482D02*
X0147283Y0124124D01*
G75*
G02*
X0146702Y0123543I-000581J0000000D01*
G01*
X0145541Y0123543D01*
G75*
G02*
X0144960Y0124124I0000000J0000581D01*
G01*
X0144960Y0125482D01*
G75*
G02*
X0145541Y0126062I0000581J0000000D01*
G01*
X0146702Y0126062D01*
G75*
G02*
X0147283Y0125482I0000000J-000581D01*
G01*
G37*
G36*
G01*
X0139852Y0100866D02*
X0138494Y0100866D01*
G75*
G02*
X0137913Y0101446I0000000J0000581D01*
G01*
X0137913Y0102608D01*
G75*
G02*
X0138494Y0103188I0000581J0000000D01*
G01*
X0139852Y0103188D01*
G75*
G02*
X0140433Y0102608I0000000J-000581D01*
G01*
X0140433Y0101446D01*
G75*
G02*
X0139852Y0100866I-000581J0000000D01*
G01*
G37*
G36*
G01*
X0139852Y0104685D02*
X0138494Y0104685D01*
G75*
G02*
X0137913Y0105265I0000000J0000581D01*
G01*
X0137913Y0106427D01*
G75*
G02*
X0138494Y0107007I0000581J0000000D01*
G01*
X0139852Y0107007D01*
G75*
G02*
X0140433Y0106427I0000000J-000581D01*
G01*
X0140433Y0105265D01*
G75*
G02*
X0139852Y0104685I-000581J0000000D01*
G01*
G37*
G36*
G01*
X0165964Y0129419D02*
X0165964Y0128061D01*
G75*
G02*
X0165383Y0127480I-000581J0000000D01*
G01*
X0164222Y0127480D01*
G75*
G02*
X0163641Y0128061I0000000J0000581D01*
G01*
X0163641Y0129419D01*
G75*
G02*
X0164222Y0130000I0000581J0000000D01*
G01*
X0165383Y0130000D01*
G75*
G02*
X0165964Y0129419I0000000J-000581D01*
G01*
G37*
G36*
G01*
X0162145Y0129419D02*
X0162145Y0128061D01*
G75*
G02*
X0161565Y0127480I-000581J0000000D01*
G01*
X0160403Y0127480D01*
G75*
G02*
X0159822Y0128061I0000000J0000581D01*
G01*
X0159822Y0129419D01*
G75*
G02*
X0160403Y0130000I0000581J0000000D01*
G01*
X0161565Y0130000D01*
G75*
G02*
X0162145Y0129419I0000000J-000581D01*
G01*
G37*
G36*
G01*
X0167303Y0128061D02*
X0167303Y0129419D01*
G75*
G02*
X0167883Y0130000I0000581J0000000D01*
G01*
X0169045Y0130000D01*
G75*
G02*
X0169626Y0129419I0000000J-000581D01*
G01*
X0169626Y0128061D01*
G75*
G02*
X0169045Y0127480I-000581J0000000D01*
G01*
X0167883Y0127480D01*
G75*
G02*
X0167303Y0128061I0000000J0000581D01*
G01*
G37*
G36*
G01*
X0171122Y0128061D02*
X0171122Y0129419D01*
G75*
G02*
X0171702Y0130000I0000581J0000000D01*
G01*
X0172864Y0130000D01*
G75*
G02*
X0173444Y0129419I0000000J-000581D01*
G01*
X0173444Y0128061D01*
G75*
G02*
X0172864Y0127480I-000581J0000000D01*
G01*
X0171702Y0127480D01*
G75*
G02*
X0171122Y0128061I0000000J0000581D01*
G01*
G37*
G36*
G01*
X0136112Y0100866D02*
X0134753Y0100866D01*
G75*
G02*
X0134173Y0101446I0000000J0000581D01*
G01*
X0134173Y0102608D01*
G75*
G02*
X0134753Y0103188I0000581J0000000D01*
G01*
X0136112Y0103188D01*
G75*
G02*
X0136692Y0102608I0000000J-000581D01*
G01*
X0136692Y0101446D01*
G75*
G02*
X0136112Y0100866I-000581J0000000D01*
G01*
G37*
G36*
G01*
X0136112Y0104685D02*
X0134753Y0104685D01*
G75*
G02*
X0134173Y0105265I0000000J0000581D01*
G01*
X0134173Y0106427D01*
G75*
G02*
X0134753Y0107007I0000581J0000000D01*
G01*
X0136112Y0107007D01*
G75*
G02*
X0136692Y0106427I0000000J-000581D01*
G01*
X0136692Y0105265D01*
G75*
G02*
X0136112Y0104685I-000581J0000000D01*
G01*
G37*
D233*
X0125433Y0149704D03*
X0125433Y0145964D03*
X0125433Y0142224D03*
X0115118Y0142224D03*
X0115118Y0149704D03*
G36*
G01*
X0159921Y0131998D02*
X0159921Y0133356D01*
G75*
G02*
X0160502Y0133937I0000581J0000000D01*
G01*
X0161663Y0133937D01*
G75*
G02*
X0162244Y0133356I0000000J-000581D01*
G01*
X0162244Y0131998D01*
G75*
G02*
X0161663Y0131417I-000581J0000000D01*
G01*
X0160502Y0131417D01*
G75*
G02*
X0159921Y0131998I0000000J0000581D01*
G01*
G37*
G36*
G01*
X0163740Y0131998D02*
X0163740Y0133356D01*
G75*
G02*
X0164320Y0133937I0000581J0000000D01*
G01*
X0165482Y0133937D01*
G75*
G02*
X0166063Y0133356I0000000J-000581D01*
G01*
X0166063Y0131998D01*
G75*
G02*
X0165482Y0131417I-000581J0000000D01*
G01*
X0164320Y0131417D01*
G75*
G02*
X0163740Y0131998I0000000J0000581D01*
G01*
G37*
G36*
G01*
X0147332Y0136102D02*
X0145974Y0136102D01*
G75*
G02*
X0145393Y0136683I0000000J0000581D01*
G01*
X0145393Y0137844D01*
G75*
G02*
X0145974Y0138425I0000581J0000000D01*
G01*
X0147332Y0138425D01*
G75*
G02*
X0147913Y0137844I0000000J-000581D01*
G01*
X0147913Y0136683D01*
G75*
G02*
X0147332Y0136102I-000581J0000000D01*
G01*
G37*
G36*
G01*
X0147332Y0139921D02*
X0145974Y0139921D01*
G75*
G02*
X0145393Y0140501I0000000J0000581D01*
G01*
X0145393Y0141663D01*
G75*
G02*
X0145974Y0142244I0000581J0000000D01*
G01*
X0147332Y0142244D01*
G75*
G02*
X0147913Y0141663I0000000J-000581D01*
G01*
X0147913Y0140501D01*
G75*
G02*
X0147332Y0139921I-000581J0000000D01*
G01*
G37*
G36*
G01*
X0138494Y0115669D02*
X0139852Y0115669D01*
G75*
G02*
X0140433Y0115088I0000000J-000581D01*
G01*
X0140433Y0113927D01*
G75*
G02*
X0139852Y0113346I-000581J0000000D01*
G01*
X0138494Y0113346D01*
G75*
G02*
X0137913Y0113927I0000000J0000581D01*
G01*
X0137913Y0115088D01*
G75*
G02*
X0138494Y0115669I0000581J0000000D01*
G01*
G37*
G36*
G01*
X0138494Y0111850D02*
X0139852Y0111850D01*
G75*
G02*
X0140433Y0111269I0000000J-000581D01*
G01*
X0140433Y0110108D01*
G75*
G02*
X0139852Y0109527I-000581J0000000D01*
G01*
X0138494Y0109527D01*
G75*
G02*
X0137913Y0110108I0000000J0000581D01*
G01*
X0137913Y0111269D01*
G75*
G02*
X0138494Y0111850I0000581J0000000D01*
G01*
G37*
G36*
G01*
X0181614Y0116624D02*
X0181614Y0115265D01*
G75*
G02*
X0181033Y0114685I-000581J0000000D01*
G01*
X0179872Y0114685D01*
G75*
G02*
X0179291Y0115265I0000000J0000581D01*
G01*
X0179291Y0116624D01*
G75*
G02*
X0179872Y0117204I0000581J0000000D01*
G01*
X0181033Y0117204D01*
G75*
G02*
X0181614Y0116624I0000000J-000581D01*
G01*
G37*
G36*
G01*
X0177795Y0116624D02*
X0177795Y0115265D01*
G75*
G02*
X0177214Y0114685I-000581J0000000D01*
G01*
X0176053Y0114685D01*
G75*
G02*
X0175472Y0115265I0000000J0000581D01*
G01*
X0175472Y0116624D01*
G75*
G02*
X0176053Y0117204I0000581J0000000D01*
G01*
X0177214Y0117204D01*
G75*
G02*
X0177795Y0116624I0000000J-000581D01*
G01*
G37*
G36*
G01*
X0189192Y0116624D02*
X0189192Y0115265D01*
G75*
G02*
X0188612Y0114685I-000581J0000000D01*
G01*
X0187450Y0114685D01*
G75*
G02*
X0186870Y0115265I0000000J0000581D01*
G01*
X0186870Y0116624D01*
G75*
G02*
X0187450Y0117204I0000581J0000000D01*
G01*
X0188612Y0117204D01*
G75*
G02*
X0189192Y0116624I0000000J-000581D01*
G01*
G37*
G36*
G01*
X0185374Y0116624D02*
X0185374Y0115265D01*
G75*
G02*
X0184793Y0114685I-000581J0000000D01*
G01*
X0183631Y0114685D01*
G75*
G02*
X0183051Y0115265I0000000J0000581D01*
G01*
X0183051Y0116624D01*
G75*
G02*
X0183631Y0117204I0000581J0000000D01*
G01*
X0184793Y0117204D01*
G75*
G02*
X0185374Y0116624I0000000J-000581D01*
G01*
G37*
G36*
G01*
X0134753Y0115669D02*
X0136112Y0115669D01*
G75*
G02*
X0136692Y0115088I0000000J-000581D01*
G01*
X0136692Y0113927D01*
G75*
G02*
X0136112Y0113346I-000581J0000000D01*
G01*
X0134753Y0113346D01*
G75*
G02*
X0134173Y0113927I0000000J0000581D01*
G01*
X0134173Y0115088D01*
G75*
G02*
X0134753Y0115669I0000581J0000000D01*
G01*
G37*
G36*
G01*
X0134753Y0111850D02*
X0136112Y0111850D01*
G75*
G02*
X0136692Y0111269I0000000J-000581D01*
G01*
X0136692Y0110108D01*
G75*
G02*
X0136112Y0109527I-000581J0000000D01*
G01*
X0134753Y0109527D01*
G75*
G02*
X0134173Y0110108I0000000J0000581D01*
G01*
X0134173Y0111269D01*
G75*
G02*
X0134753Y0111850I0000581J0000000D01*
G01*
G37*
G36*
G01*
X0169114Y0125482D02*
X0169114Y0124124D01*
G75*
G02*
X0168533Y0123543I-000581J0000000D01*
G01*
X0167372Y0123543D01*
G75*
G02*
X0166791Y0124124I0000000J0000581D01*
G01*
X0166791Y0125482D01*
G75*
G02*
X0167372Y0126062I0000581J0000000D01*
G01*
X0168533Y0126062D01*
G75*
G02*
X0169114Y0125482I0000000J-000581D01*
G01*
G37*
G36*
G01*
X0165295Y0125482D02*
X0165295Y0124124D01*
G75*
G02*
X0164714Y0123543I-000581J0000000D01*
G01*
X0163553Y0123543D01*
G75*
G02*
X0162972Y0124124I0000000J0000581D01*
G01*
X0162972Y0125482D01*
G75*
G02*
X0163553Y0126062I0000581J0000000D01*
G01*
X0164714Y0126062D01*
G75*
G02*
X0165295Y0125482I0000000J-000581D01*
G01*
G37*
G36*
G01*
X0131013Y0115669D02*
X0132372Y0115669D01*
G75*
G02*
X0132952Y0115088I0000000J-000581D01*
G01*
X0132952Y0113927D01*
G75*
G02*
X0132372Y0113346I-000581J0000000D01*
G01*
X0131013Y0113346D01*
G75*
G02*
X0130433Y0113927I0000000J0000581D01*
G01*
X0130433Y0115088D01*
G75*
G02*
X0131013Y0115669I0000581J0000000D01*
G01*
G37*
G36*
G01*
X0131013Y0111850D02*
X0132372Y0111850D01*
G75*
G02*
X0132952Y0111269I0000000J-000581D01*
G01*
X0132952Y0110108D01*
G75*
G02*
X0132372Y0109527I-000581J0000000D01*
G01*
X0131013Y0109527D01*
G75*
G02*
X0130433Y0110108I0000000J0000581D01*
G01*
X0130433Y0111269D01*
G75*
G02*
X0131013Y0111850I0000581J0000000D01*
G01*
G37*
G36*
G01*
X0131013Y0107007D02*
X0132372Y0107007D01*
G75*
G02*
X0132952Y0106427I0000000J-000581D01*
G01*
X0132952Y0105265D01*
G75*
G02*
X0132372Y0104685I-000581J0000000D01*
G01*
X0131013Y0104685D01*
G75*
G02*
X0130433Y0105265I0000000J0000581D01*
G01*
X0130433Y0106427D01*
G75*
G02*
X0131013Y0107007I0000581J0000000D01*
G01*
G37*
G36*
G01*
X0131013Y0103188D02*
X0132372Y0103188D01*
G75*
G02*
X0132952Y0102608I0000000J-000581D01*
G01*
X0132952Y0101446D01*
G75*
G02*
X0132372Y0100866I-000581J0000000D01*
G01*
X0131013Y0100866D01*
G75*
G02*
X0130433Y0101446I0000000J0000581D01*
G01*
X0130433Y0102608D01*
G75*
G02*
X0131013Y0103188I0000581J0000000D01*
G01*
G37*
G36*
G01*
X0116200Y0112814D02*
X0116200Y0114153D01*
G75*
G02*
X0116751Y0114704I0000551J0000000D01*
G01*
X0117854Y0114704D01*
G75*
G02*
X0118405Y0114153I0000000J-000551D01*
G01*
X0118405Y0112814D01*
G75*
G02*
X0117854Y0112263I-000551J0000000D01*
G01*
X0116751Y0112263D01*
G75*
G02*
X0116200Y0112814I0000000J0000551D01*
G01*
G37*
G36*
G01*
X0119980Y0112814D02*
X0119980Y0114153D01*
G75*
G02*
X0120531Y0114704I0000551J0000000D01*
G01*
X0121633Y0114704D01*
G75*
G02*
X0122184Y0114153I0000000J-000551D01*
G01*
X0122184Y0112814D01*
G75*
G02*
X0121633Y0112263I-000551J0000000D01*
G01*
X0120531Y0112263D01*
G75*
G02*
X0119980Y0112814I0000000J0000551D01*
G01*
G37*
G36*
G01*
X0171141Y0139074D02*
X0171141Y0137618D01*
G75*
G02*
X0170610Y0137086I-000531J0000000D01*
G01*
X0169547Y0137086D01*
G75*
G02*
X0169015Y0137618I0000000J0000531D01*
G01*
X0169015Y0139074D01*
G75*
G02*
X0169547Y0139606I0000531J0000000D01*
G01*
X0170610Y0139606D01*
G75*
G02*
X0171141Y0139074I0000000J-000531D01*
G01*
G37*
G36*
G01*
X0167126Y0139074D02*
X0167126Y0137618D01*
G75*
G02*
X0166594Y0137086I-000531J0000000D01*
G01*
X0165531Y0137086D01*
G75*
G02*
X0165000Y0137618I0000000J0000531D01*
G01*
X0165000Y0139074D01*
G75*
G02*
X0165531Y0139606I0000531J0000000D01*
G01*
X0166594Y0139606D01*
G75*
G02*
X0167126Y0139074I0000000J-000531D01*
G01*
G37*
G36*
G01*
X0110413Y0124541D02*
X0108956Y0124541D01*
G75*
G02*
X0108425Y0125073I0000000J0000531D01*
G01*
X0108425Y0126136D01*
G75*
G02*
X0108956Y0126667I0000531J0000000D01*
G01*
X0110413Y0126667D01*
G75*
G02*
X0110944Y0126136I0000000J-000531D01*
G01*
X0110944Y0125073D01*
G75*
G02*
X0110413Y0124541I-000531J0000000D01*
G01*
G37*
G36*
G01*
X0110413Y0128557D02*
X0108956Y0128557D01*
G75*
G02*
X0108425Y0129089I0000000J0000531D01*
G01*
X0108425Y0130152D01*
G75*
G02*
X0108956Y0130683I0000531J0000000D01*
G01*
X0110413Y0130683D01*
G75*
G02*
X0110944Y0130152I0000000J-000531D01*
G01*
X0110944Y0129089D01*
G75*
G02*
X0110413Y0128557I-000531J0000000D01*
G01*
G37*
G36*
G01*
X0111023Y0100590D02*
X0111023Y0101771D01*
G75*
G02*
X0111614Y0102362I0000591J0000000D01*
G01*
X0116240Y0102362D01*
G75*
G02*
X0116830Y0101771I0000000J-000591D01*
G01*
X0116830Y0100590D01*
G75*
G02*
X0116240Y0100000I-000591J0000000D01*
G01*
X0111614Y0100000D01*
G75*
G02*
X0111023Y0100590I0000000J0000591D01*
G01*
G37*
G36*
G01*
X0111023Y0108070D02*
X0111023Y0109251D01*
G75*
G02*
X0111614Y0109842I0000591J0000000D01*
G01*
X0116240Y0109842D01*
G75*
G02*
X0116830Y0109251I0000000J-000591D01*
G01*
X0116830Y0108070D01*
G75*
G02*
X0116240Y0107480I-000591J0000000D01*
G01*
X0111614Y0107480D01*
G75*
G02*
X0111023Y0108070I0000000J0000591D01*
G01*
G37*
G36*
G01*
X0118405Y0104330D02*
X0118405Y0105511D01*
G75*
G02*
X0118996Y0106102I0000591J0000000D01*
G01*
X0123622Y0106102D01*
G75*
G02*
X0124212Y0105511I0000000J-000591D01*
G01*
X0124212Y0104330D01*
G75*
G02*
X0123622Y0103740I-000591J0000000D01*
G01*
X0118996Y0103740D01*
G75*
G02*
X0118405Y0104330I0000000J0000591D01*
G01*
G37*
G36*
G01*
X0108976Y0138522D02*
X0110315Y0138522D01*
G75*
G02*
X0110866Y0137970I0000000J-000551D01*
G01*
X0110866Y0136868D01*
G75*
G02*
X0110315Y0136317I-000551J0000000D01*
G01*
X0108976Y0136317D01*
G75*
G02*
X0108425Y0136868I0000000J0000551D01*
G01*
X0108425Y0137970D01*
G75*
G02*
X0108976Y0138522I0000551J0000000D01*
G01*
G37*
G36*
G01*
X0108976Y0134742D02*
X0110315Y0134742D01*
G75*
G02*
X0110866Y0134191I0000000J-000551D01*
G01*
X0110866Y0133089D01*
G75*
G02*
X0110315Y0132537I-000551J0000000D01*
G01*
X0108976Y0132537D01*
G75*
G02*
X0108425Y0133089I0000000J0000551D01*
G01*
X0108425Y0134191D01*
G75*
G02*
X0108976Y0134742I0000551J0000000D01*
G01*
G37*
G36*
G01*
X0139763Y0135451D02*
X0139763Y0134270D01*
G75*
G02*
X0139173Y0133679I-000591J0000000D01*
G01*
X0133464Y0133679D01*
G75*
G02*
X0132874Y0134270I0000000J0000591D01*
G01*
X0132874Y0135451D01*
G75*
G02*
X0133464Y0136041I0000591J0000000D01*
G01*
X0139173Y0136041D01*
G75*
G02*
X0139763Y0135451I0000000J-000591D01*
G01*
G37*
G36*
G01*
X0139763Y0130451D02*
X0139763Y0129270D01*
G75*
G02*
X0139173Y0128679I-000591J0000000D01*
G01*
X0133464Y0128679D01*
G75*
G02*
X0132874Y0129270I0000000J0000591D01*
G01*
X0132874Y0130451D01*
G75*
G02*
X0133464Y0131041I0000591J0000000D01*
G01*
X0139173Y0131041D01*
G75*
G02*
X0139763Y0130451I0000000J-000591D01*
G01*
G37*
G36*
G01*
X0139763Y0125451D02*
X0139763Y0124270D01*
G75*
G02*
X0139173Y0123679I-000591J0000000D01*
G01*
X0133464Y0123679D01*
G75*
G02*
X0132874Y0124270I0000000J0000591D01*
G01*
X0132874Y0125451D01*
G75*
G02*
X0133464Y0126041I0000591J0000000D01*
G01*
X0139173Y0126041D01*
G75*
G02*
X0139763Y0125451I0000000J-000591D01*
G01*
G37*
G36*
G01*
X0139763Y0120451D02*
X0139763Y0119270D01*
G75*
G02*
X0139173Y0118679I-000591J0000000D01*
G01*
X0133464Y0118679D01*
G75*
G02*
X0132874Y0119270I0000000J0000591D01*
G01*
X0132874Y0120451D01*
G75*
G02*
X0133464Y0121041I0000591J0000000D01*
G01*
X0139173Y0121041D01*
G75*
G02*
X0139763Y0120451I0000000J-000591D01*
G01*
G37*
G36*
G01*
X0119488Y0120451D02*
X0119488Y0119270D01*
G75*
G02*
X0118897Y0118679I-000591J0000000D01*
G01*
X0113189Y0118679D01*
G75*
G02*
X0112598Y0119270I0000000J0000591D01*
G01*
X0112598Y0120451D01*
G75*
G02*
X0113189Y0121041I0000591J0000000D01*
G01*
X0118897Y0121041D01*
G75*
G02*
X0119488Y0120451I0000000J-000591D01*
G01*
G37*
G36*
G01*
X0119488Y0125451D02*
X0119488Y0124270D01*
G75*
G02*
X0118897Y0123679I-000591J0000000D01*
G01*
X0113189Y0123679D01*
G75*
G02*
X0112598Y0124270I0000000J0000591D01*
G01*
X0112598Y0125451D01*
G75*
G02*
X0113189Y0126041I0000591J0000000D01*
G01*
X0118897Y0126041D01*
G75*
G02*
X0119488Y0125451I0000000J-000591D01*
G01*
G37*
G36*
G01*
X0119488Y0130451D02*
X0119488Y0129270D01*
G75*
G02*
X0118897Y0128679I-000591J0000000D01*
G01*
X0113189Y0128679D01*
G75*
G02*
X0112598Y0129270I0000000J0000591D01*
G01*
X0112598Y0130451D01*
G75*
G02*
X0113189Y0131041I0000591J0000000D01*
G01*
X0118897Y0131041D01*
G75*
G02*
X0119488Y0130451I0000000J-000591D01*
G01*
G37*
G36*
G01*
X0119488Y0135451D02*
X0119488Y0134270D01*
G75*
G02*
X0118897Y0133679I-000591J0000000D01*
G01*
X0113189Y0133679D01*
G75*
G02*
X0112598Y0134270I0000000J0000591D01*
G01*
X0112598Y0135451D01*
G75*
G02*
X0113189Y0136041I0000591J0000000D01*
G01*
X0118897Y0136041D01*
G75*
G02*
X0119488Y0135451I0000000J-000591D01*
G01*
G37*
X0228248Y0062402D02*
G01*
G75*
D211*
X0259449Y0086811D02*
D03*
X0259744Y0072835D02*
D03*
X0258563Y0067815D02*
D03*
X0255118Y0069882D02*
D03*
X0226280Y0433661D02*
G01*
G75*
D211*
X0236516Y0398228D02*
D03*
X0232776Y0398228D02*
D03*
X0229036Y0398228D02*
D03*
X0232973Y0432480D02*
D03*
X0236516Y0432480D02*
D03*
D483*
X0236516Y0405708D02*
D03*
X0236516Y0401771D02*
D03*
X0236516Y0416831D02*
D03*
X0236516Y0420768D02*
D03*
X0236516Y0425197D02*
D03*
X0236516Y0429134D02*
D03*
X0229233Y0405708D02*
D03*
X0229233Y0401771D02*
D03*
D475*
X0229036Y0409093D02*
D03*
X0232579Y0409093D02*
D03*
D482*
X0235749Y0412978D02*
D03*
X0229528Y0412978D02*
D03*
D474*
X0232579Y0425590D02*
D03*
X0232579Y0429133D02*
D03*
X0229036Y0417224D02*
D03*
X0229036Y0420767D02*
D03*
X0232637Y0402362D02*
D03*
X0232637Y0405905D02*
D03*
X0229036Y0429133D02*
D03*
X0229036Y0425590D02*
D03*
M02*
