G75*
G70*
%OFA0B0*%
%FSLAX25Y25*%
%IPPOS*%
%LPD*%
%AMOC8*
5,1,8,0,0,1.08239X$1,22.5*
%
%AMM152*
21,1,0.035430,0.030320,-0.000000,-0.000000,270.000000*
21,1,0.028350,0.037400,-0.000000,-0.000000,270.000000*
1,1,0.007090,-0.015160,-0.014170*
1,1,0.007090,-0.015160,0.014170*
1,1,0.007090,0.015160,0.014170*
1,1,0.007090,0.015160,-0.014170*
%
%AMM158*
21,1,0.027560,0.018900,-0.000000,-0.000000,0.000000*
21,1,0.022840,0.023620,-0.000000,-0.000000,0.000000*
1,1,0.004720,0.011420,-0.009450*
1,1,0.004720,-0.011420,-0.009450*
1,1,0.004720,-0.011420,0.009450*
1,1,0.004720,0.011420,0.009450*
%
%AMM161*
21,1,0.025590,0.026380,-0.000000,-0.000000,270.000000*
21,1,0.020470,0.031500,-0.000000,-0.000000,270.000000*
1,1,0.005120,-0.013190,-0.010240*
1,1,0.005120,-0.013190,0.010240*
1,1,0.005120,0.013190,0.010240*
1,1,0.005120,0.013190,-0.010240*
%
%AMM162*
21,1,0.017720,0.027950,-0.000000,-0.000000,270.000000*
21,1,0.014170,0.031500,-0.000000,-0.000000,270.000000*
1,1,0.003540,-0.013980,-0.007090*
1,1,0.003540,-0.013980,0.007090*
1,1,0.003540,0.013980,0.007090*
1,1,0.003540,0.013980,-0.007090*
%
%AMM164*
21,1,0.012600,0.028980,-0.000000,-0.000000,270.000000*
21,1,0.010080,0.031500,-0.000000,-0.000000,270.000000*
1,1,0.002520,-0.014490,-0.005040*
1,1,0.002520,-0.014490,0.005040*
1,1,0.002520,0.014490,0.005040*
1,1,0.002520,0.014490,-0.005040*
%
%AMM167*
21,1,0.027560,0.018900,-0.000000,-0.000000,270.000000*
21,1,0.022840,0.023620,-0.000000,-0.000000,270.000000*
1,1,0.004720,-0.009450,-0.011420*
1,1,0.004720,-0.009450,0.011420*
1,1,0.004720,0.009450,0.011420*
1,1,0.004720,0.009450,-0.011420*
%
%AMM184*
21,1,0.033470,0.026770,-0.000000,-0.000000,0.000000*
21,1,0.026770,0.033470,-0.000000,-0.000000,0.000000*
1,1,0.006690,0.013390,-0.013390*
1,1,0.006690,-0.013390,-0.013390*
1,1,0.006690,-0.013390,0.013390*
1,1,0.006690,0.013390,0.013390*
%
%AMM185*
21,1,0.035430,0.030320,-0.000000,-0.000000,0.000000*
21,1,0.028350,0.037400,-0.000000,-0.000000,0.000000*
1,1,0.007090,0.014170,-0.015160*
1,1,0.007090,-0.014170,-0.015160*
1,1,0.007090,-0.014170,0.015160*
1,1,0.007090,0.014170,0.015160*
%
%AMM186*
21,1,0.035830,0.026770,-0.000000,-0.000000,180.000000*
21,1,0.029130,0.033470,-0.000000,-0.000000,180.000000*
1,1,0.006690,-0.014570,0.013390*
1,1,0.006690,0.014570,0.013390*
1,1,0.006690,0.014570,-0.013390*
1,1,0.006690,-0.014570,-0.013390*
%
%AMM187*
21,1,0.070870,0.036220,-0.000000,-0.000000,180.000000*
21,1,0.061810,0.045280,-0.000000,-0.000000,180.000000*
1,1,0.009060,-0.030910,0.018110*
1,1,0.009060,0.030910,0.018110*
1,1,0.009060,0.030910,-0.018110*
1,1,0.009060,-0.030910,-0.018110*
%
%AMM188*
21,1,0.059060,0.020470,-0.000000,-0.000000,270.000000*
21,1,0.053940,0.025590,-0.000000,-0.000000,270.000000*
1,1,0.005120,-0.010240,-0.026970*
1,1,0.005120,-0.010240,0.026970*
1,1,0.005120,0.010240,0.026970*
1,1,0.005120,0.010240,-0.026970*
%
%AMM189*
21,1,0.078740,0.045670,-0.000000,-0.000000,270.000000*
21,1,0.067320,0.057090,-0.000000,-0.000000,270.000000*
1,1,0.011420,-0.022840,-0.033660*
1,1,0.011420,-0.022840,0.033660*
1,1,0.011420,0.022840,0.033660*
1,1,0.011420,0.022840,-0.033660*
%
%AMM190*
21,1,0.025590,0.026380,-0.000000,-0.000000,180.000000*
21,1,0.020470,0.031500,-0.000000,-0.000000,180.000000*
1,1,0.005120,-0.010240,0.013190*
1,1,0.005120,0.010240,0.013190*
1,1,0.005120,0.010240,-0.013190*
1,1,0.005120,-0.010240,-0.013190*
%
%AMM191*
21,1,0.017720,0.027950,-0.000000,-0.000000,180.000000*
21,1,0.014170,0.031500,-0.000000,-0.000000,180.000000*
1,1,0.003540,-0.007090,0.013980*
1,1,0.003540,0.007090,0.013980*
1,1,0.003540,0.007090,-0.013980*
1,1,0.003540,-0.007090,-0.013980*
%
%AMM192*
21,1,0.027560,0.030710,-0.000000,-0.000000,270.000000*
21,1,0.022050,0.036220,-0.000000,-0.000000,270.000000*
1,1,0.005510,-0.015350,-0.011020*
1,1,0.005510,-0.015350,0.011020*
1,1,0.005510,0.015350,0.011020*
1,1,0.005510,0.015350,-0.011020*
%
%AMM193*
21,1,0.027560,0.049610,-0.000000,-0.000000,90.000000*
21,1,0.022050,0.055120,-0.000000,-0.000000,90.000000*
1,1,0.005510,0.024800,0.011020*
1,1,0.005510,0.024800,-0.011020*
1,1,0.005510,-0.024800,-0.011020*
1,1,0.005510,-0.024800,0.011020*
%
%AMM194*
21,1,0.027560,0.030710,-0.000000,-0.000000,180.000000*
21,1,0.022050,0.036220,-0.000000,-0.000000,180.000000*
1,1,0.005510,-0.011020,0.015350*
1,1,0.005510,0.011020,0.015350*
1,1,0.005510,0.011020,-0.015350*
1,1,0.005510,-0.011020,-0.015350*
%
%AMM195*
21,1,0.070870,0.036220,-0.000000,-0.000000,270.000000*
21,1,0.061810,0.045280,-0.000000,-0.000000,270.000000*
1,1,0.009060,-0.018110,-0.030910*
1,1,0.009060,-0.018110,0.030910*
1,1,0.009060,0.018110,0.030910*
1,1,0.009060,0.018110,-0.030910*
%
%AMM196*
21,1,0.033470,0.026770,-0.000000,-0.000000,90.000000*
21,1,0.026770,0.033470,-0.000000,-0.000000,90.000000*
1,1,0.006690,0.013390,0.013390*
1,1,0.006690,0.013390,-0.013390*
1,1,0.006690,-0.013390,-0.013390*
1,1,0.006690,-0.013390,0.013390*
%
%AMM280*
21,1,0.035830,0.026770,0.000000,-0.000000,270.000000*
21,1,0.029130,0.033470,0.000000,-0.000000,270.000000*
1,1,0.006690,-0.013390,-0.014570*
1,1,0.006690,-0.013390,0.014570*
1,1,0.006690,0.013390,0.014570*
1,1,0.006690,0.013390,-0.014570*
%
%AMM281*
21,1,0.070870,0.036220,0.000000,-0.000000,0.000000*
21,1,0.061810,0.045280,0.000000,-0.000000,0.000000*
1,1,0.009060,0.030910,-0.018110*
1,1,0.009060,-0.030910,-0.018110*
1,1,0.009060,-0.030910,0.018110*
1,1,0.009060,0.030910,0.018110*
%
%AMM284*
21,1,0.023620,0.018900,0.000000,-0.000000,0.000000*
21,1,0.018900,0.023620,0.000000,-0.000000,0.000000*
1,1,0.004720,0.009450,-0.009450*
1,1,0.004720,-0.009450,-0.009450*
1,1,0.004720,-0.009450,0.009450*
1,1,0.004720,0.009450,0.009450*
%
%AMM285*
21,1,0.019680,0.019680,0.000000,-0.000000,270.000000*
21,1,0.015750,0.023620,0.000000,-0.000000,270.000000*
1,1,0.003940,-0.009840,-0.007870*
1,1,0.003940,-0.009840,0.007870*
1,1,0.003940,0.009840,0.007870*
1,1,0.003940,0.009840,-0.007870*
%
%AMM286*
21,1,0.019680,0.019680,0.000000,-0.000000,180.000000*
21,1,0.015750,0.023620,0.000000,-0.000000,180.000000*
1,1,0.003940,-0.007870,0.009840*
1,1,0.003940,0.007870,0.009840*
1,1,0.003940,0.007870,-0.009840*
1,1,0.003940,-0.007870,-0.009840*
%
%AMM300*
21,1,0.106300,0.050390,0.000000,-0.000000,0.000000*
21,1,0.093700,0.062990,0.000000,-0.000000,0.000000*
1,1,0.012600,0.046850,-0.025200*
1,1,0.012600,-0.046850,-0.025200*
1,1,0.012600,-0.046850,0.025200*
1,1,0.012600,0.046850,0.025200*
%
%AMM301*
21,1,0.033470,0.026770,0.000000,-0.000000,180.000000*
21,1,0.026770,0.033470,0.000000,-0.000000,180.000000*
1,1,0.006690,-0.013390,0.013390*
1,1,0.006690,0.013390,0.013390*
1,1,0.006690,0.013390,-0.013390*
1,1,0.006690,-0.013390,-0.013390*
%
%AMM302*
21,1,0.023620,0.018900,0.000000,-0.000000,90.000000*
21,1,0.018900,0.023620,0.000000,-0.000000,90.000000*
1,1,0.004720,0.009450,0.009450*
1,1,0.004720,0.009450,-0.009450*
1,1,0.004720,-0.009450,-0.009450*
1,1,0.004720,-0.009450,0.009450*
%
%AMM303*
21,1,0.122050,0.075590,0.000000,-0.000000,90.000000*
21,1,0.103150,0.094490,0.000000,-0.000000,90.000000*
1,1,0.018900,0.037800,0.051580*
1,1,0.018900,0.037800,-0.051580*
1,1,0.018900,-0.037800,-0.051580*
1,1,0.018900,-0.037800,0.051580*
%
%AMM304*
21,1,0.118110,0.083460,0.000000,-0.000000,270.000000*
21,1,0.097240,0.104330,0.000000,-0.000000,270.000000*
1,1,0.020870,-0.041730,-0.048620*
1,1,0.020870,-0.041730,0.048620*
1,1,0.020870,0.041730,0.048620*
1,1,0.020870,0.041730,-0.048620*
%
%ADD161R,0.03937X0.04331*%
%ADD166R,0.09449X0.06693*%
%ADD174O,0.04961X0.00984*%
%ADD175R,0.00984X0.01378*%
%ADD176R,0.01378X0.00984*%
%ADD21R,0.00787X0.23622*%
%ADD249R,0.19500X0.19500*%
%ADD264R,0.05709X0.01772*%
%ADD265R,0.04803X0.02559*%
%ADD354M152*%
%ADD36R,0.00787X0.09055*%
%ADD360M158*%
%ADD363M161*%
%ADD364M162*%
%ADD366M164*%
%ADD369M167*%
%ADD37R,0.00787X0.42126*%
%ADD38R,0.00787X0.08268*%
%ADD386M184*%
%ADD387M185*%
%ADD388M186*%
%ADD389M187*%
%ADD39R,0.00787X0.21260*%
%ADD390M188*%
%ADD391M189*%
%ADD392M190*%
%ADD393M191*%
%ADD394M192*%
%ADD395M193*%
%ADD396M194*%
%ADD397M195*%
%ADD398M196*%
%ADD40R,0.05512X0.00787*%
%ADD41R,0.19685X0.00787*%
%ADD42R,0.26772X0.00787*%
%ADD43R,0.17717X0.00787*%
%ADD438O,0.08661X0.01968*%
%ADD44R,0.00787X0.06299*%
%ADD45R,0.00787X0.22441*%
%ADD46R,0.00787X0.07874*%
%ADD485M280*%
%ADD486M281*%
%ADD489M284*%
%ADD490M285*%
%ADD491M286*%
%ADD505M300*%
%ADD506M301*%
%ADD507M302*%
%ADD508M303*%
%ADD509M304*%
%ADD515R,0.06300X0.01700*%
X0000000Y0000000D02*
%LPD*%
G01*
D36*
X0450757Y0253942D03*
D37*
X0450757Y0124808D03*
D38*
X0450757Y0157092D03*
D21*
X0450757Y0204533D03*
D39*
X0450757Y0230910D03*
D40*
X0443670Y0258076D03*
D41*
X0438158Y0100989D03*
D42*
X0404694Y0100989D03*
D43*
X0365914Y0100989D03*
D44*
X0285009Y0106895D03*
D45*
X0285009Y0232288D03*
D46*
X0285009Y0254533D03*
G36*
G01*
X0274429Y0229626D02*
X0277500Y0229626D01*
G75*
G02*
X0277776Y0229350I0000000J-000276D01*
G01*
X0277776Y0227146D01*
G75*
G02*
X0277500Y0226870I-000276J0000000D01*
G01*
X0274429Y0226870D01*
G75*
G02*
X0274154Y0227146I0000000J0000276D01*
G01*
X0274154Y0229350D01*
G75*
G02*
X0274429Y0229626I0000276J0000000D01*
G01*
G37*
G36*
G01*
X0274429Y0223327D02*
X0277500Y0223327D01*
G75*
G02*
X0277776Y0223051I0000000J-000276D01*
G01*
X0277776Y0220846D01*
G75*
G02*
X0277500Y0220571I-000276J0000000D01*
G01*
X0274429Y0220571D01*
G75*
G02*
X0274154Y0220846I0000000J0000276D01*
G01*
X0274154Y0223051D01*
G75*
G02*
X0274429Y0223327I0000276J0000000D01*
G01*
G37*
G36*
G01*
X0191752Y0229626D02*
X0194823Y0229626D01*
G75*
G02*
X0195098Y0229350I0000000J-000276D01*
G01*
X0195098Y0227146D01*
G75*
G02*
X0194823Y0226870I-000276J0000000D01*
G01*
X0191752Y0226870D01*
G75*
G02*
X0191476Y0227146I0000000J0000276D01*
G01*
X0191476Y0229350D01*
G75*
G02*
X0191752Y0229626I0000276J0000000D01*
G01*
G37*
G36*
G01*
X0191752Y0223327D02*
X0194823Y0223327D01*
G75*
G02*
X0195098Y0223051I0000000J-000276D01*
G01*
X0195098Y0220846D01*
G75*
G02*
X0194823Y0220571I-000276J0000000D01*
G01*
X0191752Y0220571D01*
G75*
G02*
X0191476Y0220846I0000000J0000276D01*
G01*
X0191476Y0223051D01*
G75*
G02*
X0191752Y0223327I0000276J0000000D01*
G01*
G37*
G36*
G01*
X0138583Y0229626D02*
X0141654Y0229626D01*
G75*
G02*
X0141929Y0229350I0000000J-000276D01*
G01*
X0141929Y0227146D01*
G75*
G02*
X0141654Y0226870I-000276J0000000D01*
G01*
X0138583Y0226870D01*
G75*
G02*
X0138307Y0227146I0000000J0000276D01*
G01*
X0138307Y0229350D01*
G75*
G02*
X0138583Y0229626I0000276J0000000D01*
G01*
G37*
G36*
G01*
X0138583Y0223327D02*
X0141654Y0223327D01*
G75*
G02*
X0141929Y0223051I0000000J-000276D01*
G01*
X0141929Y0220846D01*
G75*
G02*
X0141654Y0220571I-000276J0000000D01*
G01*
X0138583Y0220571D01*
G75*
G02*
X0138307Y0220846I0000000J0000276D01*
G01*
X0138307Y0223051D01*
G75*
G02*
X0138583Y0223327I0000276J0000000D01*
G01*
G37*
G36*
G01*
X0156299Y0229626D02*
X0159370Y0229626D01*
G75*
G02*
X0159646Y0229350I0000000J-000276D01*
G01*
X0159646Y0227146D01*
G75*
G02*
X0159370Y0226870I-000276J0000000D01*
G01*
X0156299Y0226870D01*
G75*
G02*
X0156024Y0227146I0000000J0000276D01*
G01*
X0156024Y0229350D01*
G75*
G02*
X0156299Y0229626I0000276J0000000D01*
G01*
G37*
G36*
G01*
X0156299Y0223327D02*
X0159370Y0223327D01*
G75*
G02*
X0159646Y0223051I0000000J-000276D01*
G01*
X0159646Y0220846D01*
G75*
G02*
X0159370Y0220571I-000276J0000000D01*
G01*
X0156299Y0220571D01*
G75*
G02*
X0156024Y0220846I0000000J0000276D01*
G01*
X0156024Y0223051D01*
G75*
G02*
X0156299Y0223327I0000276J0000000D01*
G01*
G37*
G36*
G01*
X0114961Y0229626D02*
X0118031Y0229626D01*
G75*
G02*
X0118307Y0229350I0000000J-000276D01*
G01*
X0118307Y0227146D01*
G75*
G02*
X0118031Y0226870I-000276J0000000D01*
G01*
X0114961Y0226870D01*
G75*
G02*
X0114685Y0227146I0000000J0000276D01*
G01*
X0114685Y0229350D01*
G75*
G02*
X0114961Y0229626I0000276J0000000D01*
G01*
G37*
G36*
G01*
X0114961Y0223327D02*
X0118031Y0223327D01*
G75*
G02*
X0118307Y0223051I0000000J-000276D01*
G01*
X0118307Y0220846D01*
G75*
G02*
X0118031Y0220571I-000276J0000000D01*
G01*
X0114961Y0220571D01*
G75*
G02*
X0114685Y0220846I0000000J0000276D01*
G01*
X0114685Y0223051D01*
G75*
G02*
X0114961Y0223327I0000276J0000000D01*
G01*
G37*
G36*
G01*
X0203563Y0229626D02*
X0206634Y0229626D01*
G75*
G02*
X0206909Y0229350I0000000J-000276D01*
G01*
X0206909Y0227146D01*
G75*
G02*
X0206634Y0226870I-000276J0000000D01*
G01*
X0203563Y0226870D01*
G75*
G02*
X0203287Y0227146I0000000J0000276D01*
G01*
X0203287Y0229350D01*
G75*
G02*
X0203563Y0229626I0000276J0000000D01*
G01*
G37*
G36*
G01*
X0203563Y0223327D02*
X0206634Y0223327D01*
G75*
G02*
X0206909Y0223051I0000000J-000276D01*
G01*
X0206909Y0220846D01*
G75*
G02*
X0206634Y0220571I-000276J0000000D01*
G01*
X0203563Y0220571D01*
G75*
G02*
X0203287Y0220846I0000000J0000276D01*
G01*
X0203287Y0223051D01*
G75*
G02*
X0203563Y0223327I0000276J0000000D01*
G01*
G37*
G36*
G01*
X0236634Y0233169D02*
X0232618Y0233169D01*
G75*
G02*
X0232264Y0233524I0000000J0000354D01*
G01*
X0232264Y0236358D01*
G75*
G02*
X0232618Y0236713I0000354J0000000D01*
G01*
X0236634Y0236713D01*
G75*
G02*
X0236988Y0236358I0000000J-000354D01*
G01*
X0236988Y0233524D01*
G75*
G02*
X0236634Y0233169I-000354J0000000D01*
G01*
G37*
G36*
G01*
X0236634Y0246161D02*
X0232618Y0246161D01*
G75*
G02*
X0232264Y0246516I0000000J0000354D01*
G01*
X0232264Y0249350D01*
G75*
G02*
X0232618Y0249705I0000354J0000000D01*
G01*
X0236634Y0249705D01*
G75*
G02*
X0236988Y0249350I0000000J-000354D01*
G01*
X0236988Y0246516D01*
G75*
G02*
X0236634Y0246161I-000354J0000000D01*
G01*
G37*
G36*
G01*
X0262618Y0229626D02*
X0265689Y0229626D01*
G75*
G02*
X0265965Y0229350I0000000J-000276D01*
G01*
X0265965Y0227146D01*
G75*
G02*
X0265689Y0226870I-000276J0000000D01*
G01*
X0262618Y0226870D01*
G75*
G02*
X0262343Y0227146I0000000J0000276D01*
G01*
X0262343Y0229350D01*
G75*
G02*
X0262618Y0229626I0000276J0000000D01*
G01*
G37*
G36*
G01*
X0262618Y0223327D02*
X0265689Y0223327D01*
G75*
G02*
X0265965Y0223051I0000000J-000276D01*
G01*
X0265965Y0220846D01*
G75*
G02*
X0265689Y0220571I-000276J0000000D01*
G01*
X0262618Y0220571D01*
G75*
G02*
X0262343Y0220846I0000000J0000276D01*
G01*
X0262343Y0223051D01*
G75*
G02*
X0262618Y0223327I0000276J0000000D01*
G01*
G37*
G36*
G01*
X0238996Y0229626D02*
X0242067Y0229626D01*
G75*
G02*
X0242343Y0229350I0000000J-000276D01*
G01*
X0242343Y0227146D01*
G75*
G02*
X0242067Y0226870I-000276J0000000D01*
G01*
X0238996Y0226870D01*
G75*
G02*
X0238720Y0227146I0000000J0000276D01*
G01*
X0238720Y0229350D01*
G75*
G02*
X0238996Y0229626I0000276J0000000D01*
G01*
G37*
G36*
G01*
X0238996Y0223327D02*
X0242067Y0223327D01*
G75*
G02*
X0242343Y0223051I0000000J-000276D01*
G01*
X0242343Y0220846D01*
G75*
G02*
X0242067Y0220571I-000276J0000000D01*
G01*
X0238996Y0220571D01*
G75*
G02*
X0238720Y0220846I0000000J0000276D01*
G01*
X0238720Y0223051D01*
G75*
G02*
X0238996Y0223327I0000276J0000000D01*
G01*
G37*
G36*
G01*
X0246476Y0233169D02*
X0242461Y0233169D01*
G75*
G02*
X0242106Y0233524I0000000J0000354D01*
G01*
X0242106Y0236358D01*
G75*
G02*
X0242461Y0236713I0000354J0000000D01*
G01*
X0246476Y0236713D01*
G75*
G02*
X0246831Y0236358I0000000J-000354D01*
G01*
X0246831Y0233524D01*
G75*
G02*
X0246476Y0233169I-000354J0000000D01*
G01*
G37*
G36*
G01*
X0246476Y0246161D02*
X0242461Y0246161D01*
G75*
G02*
X0242106Y0246516I0000000J0000354D01*
G01*
X0242106Y0249350D01*
G75*
G02*
X0242461Y0249705I0000354J0000000D01*
G01*
X0246476Y0249705D01*
G75*
G02*
X0246831Y0249350I0000000J-000354D01*
G01*
X0246831Y0246516D01*
G75*
G02*
X0246476Y0246161I-000354J0000000D01*
G01*
G37*
G36*
G01*
X0150394Y0229626D02*
X0153465Y0229626D01*
G75*
G02*
X0153740Y0229350I0000000J-000276D01*
G01*
X0153740Y0227146D01*
G75*
G02*
X0153465Y0226870I-000276J0000000D01*
G01*
X0150394Y0226870D01*
G75*
G02*
X0150118Y0227146I0000000J0000276D01*
G01*
X0150118Y0229350D01*
G75*
G02*
X0150394Y0229626I0000276J0000000D01*
G01*
G37*
G36*
G01*
X0150394Y0223327D02*
X0153465Y0223327D01*
G75*
G02*
X0153740Y0223051I0000000J-000276D01*
G01*
X0153740Y0220846D01*
G75*
G02*
X0153465Y0220571I-000276J0000000D01*
G01*
X0150394Y0220571D01*
G75*
G02*
X0150118Y0220846I0000000J0000276D01*
G01*
X0150118Y0223051D01*
G75*
G02*
X0150394Y0223327I0000276J0000000D01*
G01*
G37*
G36*
G01*
X0227185Y0229626D02*
X0230256Y0229626D01*
G75*
G02*
X0230531Y0229350I0000000J-000276D01*
G01*
X0230531Y0227146D01*
G75*
G02*
X0230256Y0226870I-000276J0000000D01*
G01*
X0227185Y0226870D01*
G75*
G02*
X0226909Y0227146I0000000J0000276D01*
G01*
X0226909Y0229350D01*
G75*
G02*
X0227185Y0229626I0000276J0000000D01*
G01*
G37*
G36*
G01*
X0227185Y0223327D02*
X0230256Y0223327D01*
G75*
G02*
X0230531Y0223051I0000000J-000276D01*
G01*
X0230531Y0220846D01*
G75*
G02*
X0230256Y0220571I-000276J0000000D01*
G01*
X0227185Y0220571D01*
G75*
G02*
X0226909Y0220846I0000000J0000276D01*
G01*
X0226909Y0223051D01*
G75*
G02*
X0227185Y0223327I0000276J0000000D01*
G01*
G37*
G36*
G01*
X0165748Y0233169D02*
X0161732Y0233169D01*
G75*
G02*
X0161378Y0233524I0000000J0000354D01*
G01*
X0161378Y0236358D01*
G75*
G02*
X0161732Y0236713I0000354J0000000D01*
G01*
X0165748Y0236713D01*
G75*
G02*
X0166102Y0236358I0000000J-000354D01*
G01*
X0166102Y0233524D01*
G75*
G02*
X0165748Y0233169I-000354J0000000D01*
G01*
G37*
G36*
G01*
X0165748Y0246161D02*
X0161732Y0246161D01*
G75*
G02*
X0161378Y0246516I0000000J0000354D01*
G01*
X0161378Y0249350D01*
G75*
G02*
X0161732Y0249705I0000354J0000000D01*
G01*
X0165748Y0249705D01*
G75*
G02*
X0166102Y0249350I0000000J-000354D01*
G01*
X0166102Y0246516D01*
G75*
G02*
X0165748Y0246161I-000354J0000000D01*
G01*
G37*
G36*
G01*
X0244902Y0229626D02*
X0247972Y0229626D01*
G75*
G02*
X0248248Y0229350I0000000J-000276D01*
G01*
X0248248Y0227146D01*
G75*
G02*
X0247972Y0226870I-000276J0000000D01*
G01*
X0244902Y0226870D01*
G75*
G02*
X0244626Y0227146I0000000J0000276D01*
G01*
X0244626Y0229350D01*
G75*
G02*
X0244902Y0229626I0000276J0000000D01*
G01*
G37*
G36*
G01*
X0244902Y0223327D02*
X0247972Y0223327D01*
G75*
G02*
X0248248Y0223051I0000000J-000276D01*
G01*
X0248248Y0220846D01*
G75*
G02*
X0247972Y0220571I-000276J0000000D01*
G01*
X0244902Y0220571D01*
G75*
G02*
X0244626Y0220846I0000000J0000276D01*
G01*
X0244626Y0223051D01*
G75*
G02*
X0244902Y0223327I0000276J0000000D01*
G01*
G37*
G36*
G01*
X0132677Y0229626D02*
X0135748Y0229626D01*
G75*
G02*
X0136024Y0229350I0000000J-000276D01*
G01*
X0136024Y0227146D01*
G75*
G02*
X0135748Y0226870I-000276J0000000D01*
G01*
X0132677Y0226870D01*
G75*
G02*
X0132402Y0227146I0000000J0000276D01*
G01*
X0132402Y0229350D01*
G75*
G02*
X0132677Y0229626I0000276J0000000D01*
G01*
G37*
G36*
G01*
X0132677Y0223327D02*
X0135748Y0223327D01*
G75*
G02*
X0136024Y0223051I0000000J-000276D01*
G01*
X0136024Y0220846D01*
G75*
G02*
X0135748Y0220571I-000276J0000000D01*
G01*
X0132677Y0220571D01*
G75*
G02*
X0132402Y0220846I0000000J0000276D01*
G01*
X0132402Y0223051D01*
G75*
G02*
X0132677Y0223327I0000276J0000000D01*
G01*
G37*
G36*
G01*
X0151969Y0233169D02*
X0147953Y0233169D01*
G75*
G02*
X0147598Y0233524I0000000J0000354D01*
G01*
X0147598Y0236358D01*
G75*
G02*
X0147953Y0236713I0000354J0000000D01*
G01*
X0151969Y0236713D01*
G75*
G02*
X0152323Y0236358I0000000J-000354D01*
G01*
X0152323Y0233524D01*
G75*
G02*
X0151969Y0233169I-000354J0000000D01*
G01*
G37*
G36*
G01*
X0151969Y0246161D02*
X0147953Y0246161D01*
G75*
G02*
X0147598Y0246516I0000000J0000354D01*
G01*
X0147598Y0249350D01*
G75*
G02*
X0147953Y0249705I0000354J0000000D01*
G01*
X0151969Y0249705D01*
G75*
G02*
X0152323Y0249350I0000000J-000354D01*
G01*
X0152323Y0246516D01*
G75*
G02*
X0151969Y0246161I-000354J0000000D01*
G01*
G37*
G36*
G01*
X0209469Y0229626D02*
X0212539Y0229626D01*
G75*
G02*
X0212815Y0229350I0000000J-000276D01*
G01*
X0212815Y0227146D01*
G75*
G02*
X0212539Y0226870I-000276J0000000D01*
G01*
X0209469Y0226870D01*
G75*
G02*
X0209193Y0227146I0000000J0000276D01*
G01*
X0209193Y0229350D01*
G75*
G02*
X0209469Y0229626I0000276J0000000D01*
G01*
G37*
G36*
G01*
X0209469Y0223327D02*
X0212539Y0223327D01*
G75*
G02*
X0212815Y0223051I0000000J-000276D01*
G01*
X0212815Y0220846D01*
G75*
G02*
X0212539Y0220571I-000276J0000000D01*
G01*
X0209469Y0220571D01*
G75*
G02*
X0209193Y0220846I0000000J0000276D01*
G01*
X0209193Y0223051D01*
G75*
G02*
X0209469Y0223327I0000276J0000000D01*
G01*
G37*
G36*
G01*
X0268524Y0229626D02*
X0271594Y0229626D01*
G75*
G02*
X0271870Y0229350I0000000J-000276D01*
G01*
X0271870Y0227146D01*
G75*
G02*
X0271594Y0226870I-000276J0000000D01*
G01*
X0268524Y0226870D01*
G75*
G02*
X0268248Y0227146I0000000J0000276D01*
G01*
X0268248Y0229350D01*
G75*
G02*
X0268524Y0229626I0000276J0000000D01*
G01*
G37*
G36*
G01*
X0268524Y0223327D02*
X0271594Y0223327D01*
G75*
G02*
X0271870Y0223051I0000000J-000276D01*
G01*
X0271870Y0220846D01*
G75*
G02*
X0271594Y0220571I-000276J0000000D01*
G01*
X0268524Y0220571D01*
G75*
G02*
X0268248Y0220846I0000000J0000276D01*
G01*
X0268248Y0223051D01*
G75*
G02*
X0268524Y0223327I0000276J0000000D01*
G01*
G37*
G36*
G01*
X0179921Y0229626D02*
X0182992Y0229626D01*
G75*
G02*
X0183268Y0229350I0000000J-000276D01*
G01*
X0183268Y0227146D01*
G75*
G02*
X0182992Y0226870I-000276J0000000D01*
G01*
X0179921Y0226870D01*
G75*
G02*
X0179646Y0227146I0000000J0000276D01*
G01*
X0179646Y0229350D01*
G75*
G02*
X0179921Y0229626I0000276J0000000D01*
G01*
G37*
G36*
G01*
X0179921Y0223327D02*
X0182992Y0223327D01*
G75*
G02*
X0183268Y0223051I0000000J-000276D01*
G01*
X0183268Y0220846D01*
G75*
G02*
X0182992Y0220571I-000276J0000000D01*
G01*
X0179921Y0220571D01*
G75*
G02*
X0179646Y0220846I0000000J0000276D01*
G01*
X0179646Y0223051D01*
G75*
G02*
X0179921Y0223327I0000276J0000000D01*
G01*
G37*
G36*
G01*
X0260256Y0233169D02*
X0256240Y0233169D01*
G75*
G02*
X0255886Y0233524I0000000J0000354D01*
G01*
X0255886Y0236358D01*
G75*
G02*
X0256240Y0236713I0000354J0000000D01*
G01*
X0260256Y0236713D01*
G75*
G02*
X0260610Y0236358I0000000J-000354D01*
G01*
X0260610Y0233524D01*
G75*
G02*
X0260256Y0233169I-000354J0000000D01*
G01*
G37*
G36*
G01*
X0260256Y0246161D02*
X0256240Y0246161D01*
G75*
G02*
X0255886Y0246516I0000000J0000354D01*
G01*
X0255886Y0249350D01*
G75*
G02*
X0256240Y0249705I0000354J0000000D01*
G01*
X0260256Y0249705D01*
G75*
G02*
X0260610Y0249350I0000000J-000354D01*
G01*
X0260610Y0246516D01*
G75*
G02*
X0260256Y0246161I-000354J0000000D01*
G01*
G37*
G36*
G01*
X0142126Y0233169D02*
X0138110Y0233169D01*
G75*
G02*
X0137756Y0233524I0000000J0000354D01*
G01*
X0137756Y0236358D01*
G75*
G02*
X0138110Y0236713I0000354J0000000D01*
G01*
X0142126Y0236713D01*
G75*
G02*
X0142480Y0236358I0000000J-000354D01*
G01*
X0142480Y0233524D01*
G75*
G02*
X0142126Y0233169I-000354J0000000D01*
G01*
G37*
G36*
G01*
X0142126Y0246161D02*
X0138110Y0246161D01*
G75*
G02*
X0137756Y0246516I0000000J0000354D01*
G01*
X0137756Y0249350D01*
G75*
G02*
X0138110Y0249705I0000354J0000000D01*
G01*
X0142126Y0249705D01*
G75*
G02*
X0142480Y0249350I0000000J-000354D01*
G01*
X0142480Y0246516D01*
G75*
G02*
X0142126Y0246161I-000354J0000000D01*
G01*
G37*
G36*
G01*
X0144488Y0229626D02*
X0147559Y0229626D01*
G75*
G02*
X0147835Y0229350I0000000J-000276D01*
G01*
X0147835Y0227146D01*
G75*
G02*
X0147559Y0226870I-000276J0000000D01*
G01*
X0144488Y0226870D01*
G75*
G02*
X0144213Y0227146I0000000J0000276D01*
G01*
X0144213Y0229350D01*
G75*
G02*
X0144488Y0229626I0000276J0000000D01*
G01*
G37*
G36*
G01*
X0144488Y0223327D02*
X0147559Y0223327D01*
G75*
G02*
X0147835Y0223051I0000000J-000276D01*
G01*
X0147835Y0220846D01*
G75*
G02*
X0147559Y0220571I-000276J0000000D01*
G01*
X0144488Y0220571D01*
G75*
G02*
X0144213Y0220846I0000000J0000276D01*
G01*
X0144213Y0223051D01*
G75*
G02*
X0144488Y0223327I0000276J0000000D01*
G01*
G37*
G36*
G01*
X0174016Y0229626D02*
X0177087Y0229626D01*
G75*
G02*
X0177362Y0229350I0000000J-000276D01*
G01*
X0177362Y0227146D01*
G75*
G02*
X0177087Y0226870I-000276J0000000D01*
G01*
X0174016Y0226870D01*
G75*
G02*
X0173740Y0227146I0000000J0000276D01*
G01*
X0173740Y0229350D01*
G75*
G02*
X0174016Y0229626I0000276J0000000D01*
G01*
G37*
G36*
G01*
X0174016Y0223327D02*
X0177087Y0223327D01*
G75*
G02*
X0177362Y0223051I0000000J-000276D01*
G01*
X0177362Y0220846D01*
G75*
G02*
X0177087Y0220571I-000276J0000000D01*
G01*
X0174016Y0220571D01*
G75*
G02*
X0173740Y0220846I0000000J0000276D01*
G01*
X0173740Y0223051D01*
G75*
G02*
X0174016Y0223327I0000276J0000000D01*
G01*
G37*
G36*
G01*
X0168110Y0229626D02*
X0171181Y0229626D01*
G75*
G02*
X0171457Y0229350I0000000J-000276D01*
G01*
X0171457Y0227146D01*
G75*
G02*
X0171181Y0226870I-000276J0000000D01*
G01*
X0168110Y0226870D01*
G75*
G02*
X0167835Y0227146I0000000J0000276D01*
G01*
X0167835Y0229350D01*
G75*
G02*
X0168110Y0229626I0000276J0000000D01*
G01*
G37*
G36*
G01*
X0168110Y0223327D02*
X0171181Y0223327D01*
G75*
G02*
X0171457Y0223051I0000000J-000276D01*
G01*
X0171457Y0220846D01*
G75*
G02*
X0171181Y0220571I-000276J0000000D01*
G01*
X0168110Y0220571D01*
G75*
G02*
X0167835Y0220846I0000000J0000276D01*
G01*
X0167835Y0223051D01*
G75*
G02*
X0168110Y0223327I0000276J0000000D01*
G01*
G37*
G36*
G01*
X0215374Y0229626D02*
X0218445Y0229626D01*
G75*
G02*
X0218720Y0229350I0000000J-000276D01*
G01*
X0218720Y0227146D01*
G75*
G02*
X0218445Y0226870I-000276J0000000D01*
G01*
X0215374Y0226870D01*
G75*
G02*
X0215098Y0227146I0000000J0000276D01*
G01*
X0215098Y0229350D01*
G75*
G02*
X0215374Y0229626I0000276J0000000D01*
G01*
G37*
G36*
G01*
X0215374Y0223327D02*
X0218445Y0223327D01*
G75*
G02*
X0218720Y0223051I0000000J-000276D01*
G01*
X0218720Y0220846D01*
G75*
G02*
X0218445Y0220571I-000276J0000000D01*
G01*
X0215374Y0220571D01*
G75*
G02*
X0215098Y0220846I0000000J0000276D01*
G01*
X0215098Y0223051D01*
G75*
G02*
X0215374Y0223327I0000276J0000000D01*
G01*
G37*
G36*
G01*
X0197657Y0229626D02*
X0200728Y0229626D01*
G75*
G02*
X0201004Y0229350I0000000J-000276D01*
G01*
X0201004Y0227146D01*
G75*
G02*
X0200728Y0226870I-000276J0000000D01*
G01*
X0197657Y0226870D01*
G75*
G02*
X0197382Y0227146I0000000J0000276D01*
G01*
X0197382Y0229350D01*
G75*
G02*
X0197657Y0229626I0000276J0000000D01*
G01*
G37*
G36*
G01*
X0197657Y0223327D02*
X0200728Y0223327D01*
G75*
G02*
X0201004Y0223051I0000000J-000276D01*
G01*
X0201004Y0220846D01*
G75*
G02*
X0200728Y0220571I-000276J0000000D01*
G01*
X0197657Y0220571D01*
G75*
G02*
X0197382Y0220846I0000000J0000276D01*
G01*
X0197382Y0223051D01*
G75*
G02*
X0197657Y0223327I0000276J0000000D01*
G01*
G37*
G36*
G01*
X0221280Y0229626D02*
X0224350Y0229626D01*
G75*
G02*
X0224626Y0229350I0000000J-000276D01*
G01*
X0224626Y0227146D01*
G75*
G02*
X0224350Y0226870I-000276J0000000D01*
G01*
X0221280Y0226870D01*
G75*
G02*
X0221004Y0227146I0000000J0000276D01*
G01*
X0221004Y0229350D01*
G75*
G02*
X0221280Y0229626I0000276J0000000D01*
G01*
G37*
G36*
G01*
X0221280Y0223327D02*
X0224350Y0223327D01*
G75*
G02*
X0224626Y0223051I0000000J-000276D01*
G01*
X0224626Y0220846D01*
G75*
G02*
X0224350Y0220571I-000276J0000000D01*
G01*
X0221280Y0220571D01*
G75*
G02*
X0221004Y0220846I0000000J0000276D01*
G01*
X0221004Y0223051D01*
G75*
G02*
X0221280Y0223327I0000276J0000000D01*
G01*
G37*
G36*
G01*
X0175591Y0233169D02*
X0171575Y0233169D01*
G75*
G02*
X0171220Y0233524I0000000J0000354D01*
G01*
X0171220Y0236358D01*
G75*
G02*
X0171575Y0236713I0000354J0000000D01*
G01*
X0175591Y0236713D01*
G75*
G02*
X0175945Y0236358I0000000J-000354D01*
G01*
X0175945Y0233524D01*
G75*
G02*
X0175591Y0233169I-000354J0000000D01*
G01*
G37*
G36*
G01*
X0175591Y0246161D02*
X0171575Y0246161D01*
G75*
G02*
X0171220Y0246516I0000000J0000354D01*
G01*
X0171220Y0249350D01*
G75*
G02*
X0171575Y0249705I0000354J0000000D01*
G01*
X0175591Y0249705D01*
G75*
G02*
X0175945Y0249350I0000000J-000354D01*
G01*
X0175945Y0246516D01*
G75*
G02*
X0175591Y0246161I-000354J0000000D01*
G01*
G37*
G36*
G01*
X0126772Y0229626D02*
X0129843Y0229626D01*
G75*
G02*
X0130118Y0229350I0000000J-000276D01*
G01*
X0130118Y0227146D01*
G75*
G02*
X0129843Y0226870I-000276J0000000D01*
G01*
X0126772Y0226870D01*
G75*
G02*
X0126496Y0227146I0000000J0000276D01*
G01*
X0126496Y0229350D01*
G75*
G02*
X0126772Y0229626I0000276J0000000D01*
G01*
G37*
G36*
G01*
X0126772Y0223327D02*
X0129843Y0223327D01*
G75*
G02*
X0130118Y0223051I0000000J-000276D01*
G01*
X0130118Y0220846D01*
G75*
G02*
X0129843Y0220571I-000276J0000000D01*
G01*
X0126772Y0220571D01*
G75*
G02*
X0126496Y0220846I0000000J0000276D01*
G01*
X0126496Y0223051D01*
G75*
G02*
X0126772Y0223327I0000276J0000000D01*
G01*
G37*
G36*
G01*
X0162205Y0229626D02*
X0165276Y0229626D01*
G75*
G02*
X0165551Y0229350I0000000J-000276D01*
G01*
X0165551Y0227146D01*
G75*
G02*
X0165276Y0226870I-000276J0000000D01*
G01*
X0162205Y0226870D01*
G75*
G02*
X0161929Y0227146I0000000J0000276D01*
G01*
X0161929Y0229350D01*
G75*
G02*
X0162205Y0229626I0000276J0000000D01*
G01*
G37*
G36*
G01*
X0162205Y0223327D02*
X0165276Y0223327D01*
G75*
G02*
X0165551Y0223051I0000000J-000276D01*
G01*
X0165551Y0220846D01*
G75*
G02*
X0165276Y0220571I-000276J0000000D01*
G01*
X0162205Y0220571D01*
G75*
G02*
X0161929Y0220846I0000000J0000276D01*
G01*
X0161929Y0223051D01*
G75*
G02*
X0162205Y0223327I0000276J0000000D01*
G01*
G37*
G36*
G01*
X0120866Y0229626D02*
X0123937Y0229626D01*
G75*
G02*
X0124213Y0229350I0000000J-000276D01*
G01*
X0124213Y0227146D01*
G75*
G02*
X0123937Y0226870I-000276J0000000D01*
G01*
X0120866Y0226870D01*
G75*
G02*
X0120591Y0227146I0000000J0000276D01*
G01*
X0120591Y0229350D01*
G75*
G02*
X0120866Y0229626I0000276J0000000D01*
G01*
G37*
G36*
G01*
X0120866Y0223327D02*
X0123937Y0223327D01*
G75*
G02*
X0124213Y0223051I0000000J-000276D01*
G01*
X0124213Y0220846D01*
G75*
G02*
X0123937Y0220571I-000276J0000000D01*
G01*
X0120866Y0220571D01*
G75*
G02*
X0120591Y0220846I0000000J0000276D01*
G01*
X0120591Y0223051D01*
G75*
G02*
X0120866Y0223327I0000276J0000000D01*
G01*
G37*
G36*
G01*
X0270098Y0233169D02*
X0266083Y0233169D01*
G75*
G02*
X0265728Y0233524I0000000J0000354D01*
G01*
X0265728Y0236358D01*
G75*
G02*
X0266083Y0236713I0000354J0000000D01*
G01*
X0270098Y0236713D01*
G75*
G02*
X0270453Y0236358I0000000J-000354D01*
G01*
X0270453Y0233524D01*
G75*
G02*
X0270098Y0233169I-000354J0000000D01*
G01*
G37*
G36*
G01*
X0270098Y0246161D02*
X0266083Y0246161D01*
G75*
G02*
X0265728Y0246516I0000000J0000354D01*
G01*
X0265728Y0249350D01*
G75*
G02*
X0266083Y0249705I0000354J0000000D01*
G01*
X0270098Y0249705D01*
G75*
G02*
X0270453Y0249350I0000000J-000354D01*
G01*
X0270453Y0246516D01*
G75*
G02*
X0270098Y0246161I-000354J0000000D01*
G01*
G37*
G36*
G01*
X0250807Y0229626D02*
X0253878Y0229626D01*
G75*
G02*
X0254154Y0229350I0000000J-000276D01*
G01*
X0254154Y0227146D01*
G75*
G02*
X0253878Y0226870I-000276J0000000D01*
G01*
X0250807Y0226870D01*
G75*
G02*
X0250531Y0227146I0000000J0000276D01*
G01*
X0250531Y0229350D01*
G75*
G02*
X0250807Y0229626I0000276J0000000D01*
G01*
G37*
G36*
G01*
X0250807Y0223327D02*
X0253878Y0223327D01*
G75*
G02*
X0254154Y0223051I0000000J-000276D01*
G01*
X0254154Y0220846D01*
G75*
G02*
X0253878Y0220571I-000276J0000000D01*
G01*
X0250807Y0220571D01*
G75*
G02*
X0250531Y0220846I0000000J0000276D01*
G01*
X0250531Y0223051D01*
G75*
G02*
X0250807Y0223327I0000276J0000000D01*
G01*
G37*
G36*
G01*
X0185846Y0229626D02*
X0188917Y0229626D01*
G75*
G02*
X0189193Y0229350I0000000J-000276D01*
G01*
X0189193Y0227146D01*
G75*
G02*
X0188917Y0226870I-000276J0000000D01*
G01*
X0185846Y0226870D01*
G75*
G02*
X0185571Y0227146I0000000J0000276D01*
G01*
X0185571Y0229350D01*
G75*
G02*
X0185846Y0229626I0000276J0000000D01*
G01*
G37*
G36*
G01*
X0185846Y0223327D02*
X0188917Y0223327D01*
G75*
G02*
X0189193Y0223051I0000000J-000276D01*
G01*
X0189193Y0220846D01*
G75*
G02*
X0188917Y0220571I-000276J0000000D01*
G01*
X0185846Y0220571D01*
G75*
G02*
X0185571Y0220846I0000000J0000276D01*
G01*
X0185571Y0223051D01*
G75*
G02*
X0185846Y0223327I0000276J0000000D01*
G01*
G37*
G36*
G01*
X0256713Y0229626D02*
X0259783Y0229626D01*
G75*
G02*
X0260059Y0229350I0000000J-000276D01*
G01*
X0260059Y0227146D01*
G75*
G02*
X0259783Y0226870I-000276J0000000D01*
G01*
X0256713Y0226870D01*
G75*
G02*
X0256437Y0227146I0000000J0000276D01*
G01*
X0256437Y0229350D01*
G75*
G02*
X0256713Y0229626I0000276J0000000D01*
G01*
G37*
G36*
G01*
X0256713Y0223327D02*
X0259783Y0223327D01*
G75*
G02*
X0260059Y0223051I0000000J-000276D01*
G01*
X0260059Y0220846D01*
G75*
G02*
X0259783Y0220571I-000276J0000000D01*
G01*
X0256713Y0220571D01*
G75*
G02*
X0256437Y0220846I0000000J0000276D01*
G01*
X0256437Y0223051D01*
G75*
G02*
X0256713Y0223327I0000276J0000000D01*
G01*
G37*
G36*
G01*
X0233091Y0229626D02*
X0236161Y0229626D01*
G75*
G02*
X0236437Y0229350I0000000J-000276D01*
G01*
X0236437Y0227146D01*
G75*
G02*
X0236161Y0226870I-000276J0000000D01*
G01*
X0233091Y0226870D01*
G75*
G02*
X0232815Y0227146I0000000J0000276D01*
G01*
X0232815Y0229350D01*
G75*
G02*
X0233091Y0229626I0000276J0000000D01*
G01*
G37*
G36*
G01*
X0233091Y0223327D02*
X0236161Y0223327D01*
G75*
G02*
X0236437Y0223051I0000000J-000276D01*
G01*
X0236437Y0220846D01*
G75*
G02*
X0236161Y0220571I-000276J0000000D01*
G01*
X0233091Y0220571D01*
G75*
G02*
X0232815Y0220846I0000000J0000276D01*
G01*
X0232815Y0223051D01*
G75*
G02*
X0233091Y0223327I0000276J0000000D01*
G01*
G37*
X0451150Y0258470D02*
G01*
G75*
D39*
X0450756Y0230911D02*
D03*
D36*
X0450756Y0253942D02*
D03*
D21*
X0450756Y0204533D02*
D03*
D46*
X0285008Y0254533D02*
D03*
D38*
X0450756Y0157092D02*
D03*
D37*
X0450756Y0124809D02*
D03*
D41*
X0438158Y0100990D02*
D03*
D42*
X0404693Y0100990D02*
D03*
D43*
X0365914Y0100990D02*
D03*
D45*
X0285008Y0232289D02*
D03*
D44*
X0285008Y0106895D02*
D03*
D40*
X0443670Y0258076D02*
D03*
D354*
X0439535Y0157228D02*
D03*
X0430283Y0153488D02*
D03*
D354*
X0439535Y0149747D02*
D03*
D360*
X0419457Y0206502D02*
D03*
X0419457Y0202565D02*
D03*
X0298788Y0163588D02*
D03*
X0298788Y0167525D02*
D03*
X0422508Y0104336D02*
D03*
X0422508Y0108273D02*
D03*
X0389325Y0181698D02*
D03*
X0389325Y0185635D02*
D03*
X0372420Y0181770D02*
D03*
X0372420Y0177833D02*
D03*
X0394457Y0185242D02*
D03*
X0394457Y0181305D02*
D03*
X0445651Y0201654D02*
D03*
X0445651Y0205591D02*
D03*
X0427922Y0132486D02*
D03*
X0427922Y0136423D02*
D03*
X0448394Y0113391D02*
D03*
X0448394Y0109454D02*
D03*
X0316504Y0189179D02*
D03*
X0316504Y0193116D02*
D03*
X0390126Y0124612D02*
D03*
X0390126Y0120675D02*
D03*
X0359909Y0191049D02*
D03*
X0359909Y0187112D02*
D03*
X0370934Y0109749D02*
D03*
X0370934Y0105813D02*
D03*
X0318079Y0177368D02*
D03*
X0318079Y0181305D02*
D03*
X0314142Y0177368D02*
D03*
X0314142Y0181305D02*
D03*
X0444260Y0113391D02*
D03*
X0444260Y0109454D02*
D03*
X0307252Y0162013D02*
D03*
X0307252Y0165950D02*
D03*
X0307449Y0139572D02*
D03*
X0307449Y0143509D02*
D03*
X0355579Y0191049D02*
D03*
X0355579Y0187112D02*
D03*
X0351937Y0104533D02*
D03*
X0351937Y0108470D02*
D03*
X0390126Y0154139D02*
D03*
X0390126Y0150202D02*
D03*
X0390126Y0157683D02*
D03*
X0390126Y0161620D02*
D03*
X0403512Y0234061D02*
D03*
X0403512Y0237998D02*
D03*
X0398788Y0234061D02*
D03*
X0398788Y0237998D02*
D03*
X0394063Y0234061D02*
D03*
X0394063Y0237998D02*
D03*
X0389339Y0234061D02*
D03*
X0389339Y0237998D02*
D03*
X0304693Y0253352D02*
D03*
X0304693Y0249415D02*
D03*
X0299969Y0249415D02*
D03*
X0299969Y0253352D02*
D03*
X0295245Y0253352D02*
D03*
X0295245Y0249415D02*
D03*
X0290520Y0253352D02*
D03*
X0290520Y0249415D02*
D03*
X0423394Y0206502D02*
D03*
X0423394Y0202565D02*
D03*
X0395441Y0206502D02*
D03*
X0395441Y0202565D02*
D03*
X0427134Y0234061D02*
D03*
X0427134Y0237998D02*
D03*
X0431858Y0234061D02*
D03*
X0431858Y0237998D02*
D03*
X0436583Y0234061D02*
D03*
X0436583Y0237998D02*
D03*
X0441307Y0234061D02*
D03*
X0441307Y0237998D02*
D03*
X0408236Y0234061D02*
D03*
X0408236Y0237998D02*
D03*
X0412961Y0234061D02*
D03*
X0412961Y0237998D02*
D03*
X0417685Y0234061D02*
D03*
X0417685Y0237998D02*
D03*
X0422410Y0234061D02*
D03*
X0422410Y0237998D02*
D03*
X0370441Y0234061D02*
D03*
X0370441Y0237998D02*
D03*
X0375165Y0234061D02*
D03*
X0375165Y0237998D02*
D03*
X0379890Y0234061D02*
D03*
X0379890Y0237998D02*
D03*
X0384614Y0234061D02*
D03*
X0384614Y0237998D02*
D03*
X0351543Y0237998D02*
D03*
X0351543Y0234061D02*
D03*
X0356268Y0234061D02*
D03*
X0356268Y0237998D02*
D03*
X0360992Y0234061D02*
D03*
X0360992Y0237998D02*
D03*
X0365717Y0234061D02*
D03*
X0365717Y0237998D02*
D03*
X0332646Y0234061D02*
D03*
X0332646Y0237998D02*
D03*
X0337370Y0234061D02*
D03*
X0337370Y0237998D02*
D03*
X0342095Y0234061D02*
D03*
X0342095Y0237998D02*
D03*
X0346819Y0234061D02*
D03*
X0346819Y0237998D02*
D03*
X0318473Y0234061D02*
D03*
X0318473Y0237998D02*
D03*
X0323197Y0234061D02*
D03*
X0323197Y0237998D02*
D03*
X0327922Y0234061D02*
D03*
X0327922Y0237998D02*
D03*
X0446426Y0243313D02*
D03*
X0446426Y0239376D02*
D03*
X0309417Y0249415D02*
D03*
X0309417Y0253352D02*
D03*
X0395441Y0216738D02*
D03*
X0395441Y0212801D02*
D03*
X0307843Y0237998D02*
D03*
X0307843Y0234061D02*
D03*
X0446426Y0250990D02*
D03*
X0446426Y0247053D02*
D03*
X0307843Y0241935D02*
D03*
X0307843Y0245872D02*
D03*
X0302725Y0111620D02*
D03*
X0302725Y0115557D02*
D03*
X0313748Y0234061D02*
D03*
X0313748Y0237998D02*
D03*
D363*
X0413748Y0141639D02*
D03*
X0406662Y0141639D02*
D03*
X0406662Y0151679D02*
D03*
X0413748Y0151679D02*
D03*
X0399181Y0189868D02*
D03*
X0406268Y0189868D02*
D03*
X0406268Y0179828D02*
D03*
X0399181Y0179828D02*
D03*
X0399181Y0173726D02*
D03*
X0406268Y0173726D02*
D03*
X0406268Y0163686D02*
D03*
X0399181Y0163686D02*
D03*
X0303709Y0209553D02*
D03*
X0310796Y0209553D02*
D03*
X0310796Y0219592D02*
D03*
X0303709Y0219592D02*
D03*
X0322213Y0219592D02*
D03*
X0315126Y0219592D02*
D03*
X0315126Y0209553D02*
D03*
X0322213Y0209553D02*
D03*
X0372213Y0209553D02*
D03*
X0379299Y0209553D02*
D03*
X0379299Y0219592D02*
D03*
X0372213Y0219592D02*
D03*
X0390717Y0219592D02*
D03*
X0383630Y0219592D02*
D03*
X0383630Y0209553D02*
D03*
X0390717Y0209553D02*
D03*
X0349378Y0209553D02*
D03*
X0356465Y0209553D02*
D03*
X0356465Y0219592D02*
D03*
X0349378Y0219592D02*
D03*
X0367882Y0219592D02*
D03*
X0360795Y0219592D02*
D03*
X0360795Y0209553D02*
D03*
X0367882Y0209553D02*
D03*
X0326543Y0209553D02*
D03*
X0333630Y0209553D02*
D03*
X0333630Y0219592D02*
D03*
X0326543Y0219592D02*
D03*
X0345047Y0219592D02*
D03*
X0337961Y0219592D02*
D03*
X0337961Y0209553D02*
D03*
X0345047Y0209553D02*
D03*
D364*
X0406662Y0148234D02*
D03*
X0406662Y0145084D02*
D03*
X0413748Y0145084D02*
D03*
X0413748Y0148234D02*
D03*
X0406268Y0183273D02*
D03*
X0406268Y0186423D02*
D03*
X0399181Y0186423D02*
D03*
X0399181Y0183273D02*
D03*
X0406268Y0167131D02*
D03*
X0406268Y0170281D02*
D03*
X0399181Y0170281D02*
D03*
X0399181Y0167131D02*
D03*
X0303709Y0212998D02*
D03*
X0303709Y0216147D02*
D03*
X0310796Y0216147D02*
D03*
X0310796Y0212998D02*
D03*
X0322213Y0216147D02*
D03*
X0322213Y0212998D02*
D03*
X0315126Y0212998D02*
D03*
X0315126Y0216147D02*
D03*
X0372213Y0212998D02*
D03*
X0372213Y0216147D02*
D03*
X0379299Y0216147D02*
D03*
X0379299Y0212998D02*
D03*
X0390717Y0216147D02*
D03*
X0390717Y0212998D02*
D03*
X0383630Y0212998D02*
D03*
X0383630Y0216147D02*
D03*
X0349378Y0212998D02*
D03*
X0349378Y0216147D02*
D03*
X0356465Y0216147D02*
D03*
X0356465Y0212998D02*
D03*
X0367882Y0216147D02*
D03*
X0367882Y0212998D02*
D03*
X0360795Y0212998D02*
D03*
X0360795Y0216147D02*
D03*
X0326543Y0212998D02*
D03*
X0326543Y0216147D02*
D03*
X0333630Y0216147D02*
D03*
X0333630Y0212998D02*
D03*
X0345047Y0216147D02*
D03*
X0345047Y0212998D02*
D03*
X0337961Y0212998D02*
D03*
X0337961Y0216147D02*
D03*
D366*
X0425756Y0147643D02*
D03*
X0425756Y0145084D02*
D03*
X0425756Y0142525D02*
D03*
X0418276Y0142525D02*
D03*
X0418276Y0147643D02*
D03*
D369*
X0407449Y0107092D02*
D03*
X0411386Y0107092D02*
D03*
X0291307Y0122840D02*
D03*
X0295245Y0122840D02*
D03*
X0432407Y0127661D02*
D03*
X0428470Y0127661D02*
D03*
X0409811Y0133667D02*
D03*
X0413748Y0133667D02*
D03*
X0418867Y0137604D02*
D03*
X0414930Y0137604D02*
D03*
X0309811Y0188391D02*
D03*
X0305874Y0188391D02*
D03*
X0379103Y0106501D02*
D03*
X0375166Y0106501D02*
D03*
X0310402Y0118706D02*
D03*
X0306465Y0118706D02*
D03*
X0337764Y0107683D02*
D03*
X0333827Y0107683D02*
D03*
X0382240Y0194492D02*
D03*
X0386177Y0194492D02*
D03*
X0391504Y0171856D02*
D03*
X0387567Y0171856D02*
D03*
X0381465Y0173431D02*
D03*
X0377528Y0173431D02*
D03*
X0382252Y0145084D02*
D03*
X0378315Y0145084D02*
D03*
X0286977Y0104927D02*
D03*
X0290914Y0104927D02*
D03*
X0400166Y0105911D02*
D03*
X0404103Y0105911D02*
D03*
X0418079Y0120281D02*
D03*
X0414142Y0120281D02*
D03*
X0307055Y0182092D02*
D03*
X0303118Y0182092D02*
D03*
X0307055Y0178155D02*
D03*
X0303118Y0178155D02*
D03*
X0306465Y0114769D02*
D03*
X0310402Y0114769D02*
D03*
X0333532Y0190655D02*
D03*
X0337469Y0190655D02*
D03*
X0390126Y0145478D02*
D03*
X0386189Y0145478D02*
D03*
X0390126Y0177171D02*
D03*
X0386189Y0177171D02*
D03*
X0381859Y0121856D02*
D03*
X0377922Y0121856D02*
D03*
X0382646Y0137210D02*
D03*
X0378709Y0137210D02*
D03*
X0367784Y0191049D02*
D03*
X0363847Y0191049D02*
D03*
X0313551Y0203352D02*
D03*
X0317488Y0203352D02*
D03*
X0382055Y0203352D02*
D03*
X0385992Y0203352D02*
D03*
X0359221Y0203352D02*
D03*
X0363158Y0203352D02*
D03*
X0336386Y0203352D02*
D03*
X0340323Y0203352D02*
D03*
X0375559Y0227368D02*
D03*
X0379496Y0227368D02*
D03*
X0430611Y0223824D02*
D03*
X0426674Y0223824D02*
D03*
X0439800Y0223824D02*
D03*
X0443737Y0223824D02*
D03*
X0405807Y0223824D02*
D03*
X0401870Y0223824D02*
D03*
X0414996Y0223824D02*
D03*
X0418933Y0223824D02*
D03*
X0443276Y0141935D02*
D03*
X0447213Y0141935D02*
D03*
X0437370Y0141935D02*
D03*
X0433433Y0141935D02*
D03*
X0400362Y0230124D02*
D03*
X0404299Y0230124D02*
D03*
X0447213Y0192328D02*
D03*
X0443276Y0192328D02*
D03*
X0447213Y0179927D02*
D03*
X0443276Y0179927D02*
D03*
X0447213Y0175793D02*
D03*
X0443276Y0175793D02*
D03*
X0447213Y0167525D02*
D03*
X0443276Y0167525D02*
D03*
X0447213Y0171659D02*
D03*
X0443276Y0171659D02*
D03*
X0447213Y0163391D02*
D03*
X0443276Y0163391D02*
D03*
X0447213Y0184060D02*
D03*
X0443276Y0184060D02*
D03*
X0447213Y0188194D02*
D03*
X0443276Y0188194D02*
D03*
D386*
X0397173Y0140950D02*
D03*
X0390953Y0140950D02*
D03*
D387*
X0294570Y0130599D02*
D03*
X0290830Y0139851D02*
D03*
X0376999Y0188350D02*
D03*
X0380739Y0179098D02*
D03*
X0440520Y0127486D02*
D03*
X0444260Y0118234D02*
D03*
X0434811Y0114061D02*
D03*
X0431071Y0123312D02*
D03*
X0298197Y0222446D02*
D03*
X0294457Y0231698D02*
D03*
X0294457Y0216803D02*
D03*
X0298197Y0207551D02*
D03*
X0298197Y0192656D02*
D03*
X0294457Y0201908D02*
D03*
X0298984Y0177761D02*
D03*
X0295244Y0187013D02*
D03*
D387*
X0298310Y0139851D02*
D03*
X0384479Y0188350D02*
D03*
X0448000Y0127486D02*
D03*
X0427331Y0114060D02*
D03*
X0290717Y0222446D02*
D03*
X0290717Y0207551D02*
D03*
X0290717Y0192656D02*
D03*
X0291504Y0177761D02*
D03*
D388*
X0446819Y0134848D02*
D03*
X0433827Y0134848D02*
D03*
X0409418Y0124612D02*
D03*
X0396425Y0124612D02*
D03*
D161*
X0414339Y0126187D02*
D03*
X0421032Y0126187D02*
D03*
D389*
X0292095Y0163982D02*
D03*
X0292095Y0152565D02*
D03*
D390*
X0354024Y0152946D02*
D03*
X0349693Y0152946D02*
D03*
X0345362Y0152946D02*
D03*
X0341032Y0152946D02*
D03*
X0336701Y0152946D02*
D03*
X0332370Y0152946D02*
D03*
X0328039Y0152946D02*
D03*
X0323709Y0152946D02*
D03*
D391*
X0314339Y0163182D02*
D03*
X0314339Y0130505D02*
D03*
X0368472Y0130505D02*
D03*
X0368472Y0163182D02*
D03*
D166*
X0379102Y0151974D02*
D03*
X0379102Y0166541D02*
D03*
D392*
X0332547Y0175793D02*
D03*
X0332547Y0182879D02*
D03*
X0322508Y0182879D02*
D03*
X0322508Y0175793D02*
D03*
X0401445Y0250793D02*
D03*
X0401445Y0243706D02*
D03*
X0391406Y0243706D02*
D03*
X0391406Y0250793D02*
D03*
X0429595Y0216344D02*
D03*
X0429595Y0209257D02*
D03*
X0439634Y0209257D02*
D03*
X0439634Y0216344D02*
D03*
X0439634Y0197840D02*
D03*
X0439634Y0204927D02*
D03*
X0429595Y0204927D02*
D03*
X0429595Y0197840D02*
D03*
X0401642Y0216344D02*
D03*
X0401642Y0209257D02*
D03*
X0411681Y0209257D02*
D03*
X0411681Y0216344D02*
D03*
X0411681Y0197840D02*
D03*
X0411681Y0204927D02*
D03*
X0401642Y0204927D02*
D03*
X0401642Y0197840D02*
D03*
X0439240Y0250793D02*
D03*
X0439240Y0243706D02*
D03*
X0429201Y0243706D02*
D03*
X0429201Y0250793D02*
D03*
X0420343Y0250793D02*
D03*
X0420343Y0243706D02*
D03*
X0410304Y0243706D02*
D03*
X0410304Y0250793D02*
D03*
X0382548Y0250793D02*
D03*
X0382548Y0243706D02*
D03*
X0372508Y0243706D02*
D03*
X0372508Y0250793D02*
D03*
X0363650Y0250793D02*
D03*
X0363650Y0243706D02*
D03*
X0353610Y0243706D02*
D03*
X0353610Y0250793D02*
D03*
X0344752Y0250793D02*
D03*
X0344752Y0243706D02*
D03*
X0334713Y0243706D02*
D03*
X0334713Y0250793D02*
D03*
X0325855Y0250793D02*
D03*
X0325855Y0243706D02*
D03*
X0315815Y0243706D02*
D03*
X0315815Y0250793D02*
D03*
X0292587Y0245084D02*
D03*
X0292587Y0237998D02*
D03*
X0302626Y0237998D02*
D03*
X0302626Y0245084D02*
D03*
D393*
X0329103Y0175793D02*
D03*
X0325953Y0175793D02*
D03*
X0325953Y0182879D02*
D03*
X0329103Y0182879D02*
D03*
X0394851Y0243706D02*
D03*
X0398000Y0243706D02*
D03*
X0398000Y0250793D02*
D03*
X0394851Y0250793D02*
D03*
X0433040Y0216344D02*
D03*
X0436189Y0216344D02*
D03*
X0436189Y0209257D02*
D03*
X0433040Y0209257D02*
D03*
X0436189Y0197840D02*
D03*
X0433040Y0197840D02*
D03*
X0433040Y0204927D02*
D03*
X0436189Y0204927D02*
D03*
X0405087Y0216344D02*
D03*
X0408237Y0216344D02*
D03*
X0408237Y0209257D02*
D03*
X0405087Y0209257D02*
D03*
X0408236Y0197840D02*
D03*
X0405087Y0197840D02*
D03*
X0405087Y0204927D02*
D03*
X0408236Y0204927D02*
D03*
X0432646Y0243706D02*
D03*
X0435795Y0243706D02*
D03*
X0435795Y0250793D02*
D03*
X0432646Y0250793D02*
D03*
X0413748Y0243706D02*
D03*
X0416898Y0243706D02*
D03*
X0416898Y0250793D02*
D03*
X0413748Y0250793D02*
D03*
X0375953Y0243706D02*
D03*
X0379103Y0243706D02*
D03*
X0379103Y0250793D02*
D03*
X0375953Y0250793D02*
D03*
X0357055Y0243706D02*
D03*
X0360205Y0243706D02*
D03*
X0360205Y0250793D02*
D03*
X0357055Y0250793D02*
D03*
X0338158Y0243706D02*
D03*
X0341307Y0243706D02*
D03*
X0341307Y0250793D02*
D03*
X0338158Y0250793D02*
D03*
X0319260Y0243706D02*
D03*
X0322410Y0243706D02*
D03*
X0322410Y0250793D02*
D03*
X0319260Y0250793D02*
D03*
X0296032Y0245084D02*
D03*
X0299181Y0245084D02*
D03*
X0299181Y0237998D02*
D03*
X0296032Y0237998D02*
D03*
D394*
X0307449Y0148234D02*
D03*
X0307449Y0154533D02*
D03*
X0361091Y0112505D02*
D03*
X0361091Y0106206D02*
D03*
X0446425Y0146265D02*
D03*
X0446425Y0152565D02*
D03*
X0301937Y0155714D02*
D03*
X0301937Y0149415D02*
D03*
D395*
X0381859Y0126777D02*
D03*
X0381859Y0132683D02*
D03*
D396*
X0390913Y0131698D02*
D03*
X0397213Y0131698D02*
D03*
X0390913Y0136324D02*
D03*
X0397213Y0136324D02*
D03*
D397*
X0439339Y0107092D02*
D03*
X0427922Y0107092D02*
D03*
D398*
X0302922Y0167289D02*
D03*
X0302922Y0161068D02*
D03*
X0374378Y0137643D02*
D03*
X0374378Y0143864D02*
D03*
D174*
X0437528Y0191344D02*
D03*
X0437528Y0188785D02*
D03*
X0437528Y0186226D02*
D03*
X0437528Y0183667D02*
D03*
X0437528Y0181108D02*
D03*
X0437528Y0178549D02*
D03*
X0437528Y0175990D02*
D03*
X0437528Y0173431D02*
D03*
X0437528Y0170872D02*
D03*
X0437528Y0168312D02*
D03*
X0437528Y0165754D02*
D03*
X0437528Y0163194D02*
D03*
X0414535Y0191344D02*
D03*
X0414535Y0188785D02*
D03*
X0414535Y0186226D02*
D03*
X0414535Y0183667D02*
D03*
X0414535Y0181108D02*
D03*
X0414535Y0178549D02*
D03*
X0414535Y0175990D02*
D03*
X0414535Y0173431D02*
D03*
X0414535Y0170872D02*
D03*
X0414535Y0168312D02*
D03*
X0414535Y0165754D02*
D03*
X0414535Y0163194D02*
D03*
D175*
X0294260Y0115163D02*
D03*
X0296228Y0115163D02*
D03*
X0296228Y0108864D02*
D03*
X0294260Y0108864D02*
D03*
D176*
X0298394Y0114966D02*
D03*
X0298394Y0112997D02*
D03*
X0298394Y0111029D02*
D03*
X0298394Y0109061D02*
D03*
X0292094Y0114966D02*
D03*
X0292094Y0109061D02*
D03*
X0292094Y0112997D02*
D03*
X0292094Y0111029D02*
D03*
X0241535Y0433760D02*
G01*
G75*
D485*
X0317913Y0403845D02*
D03*
X0317913Y0416837D02*
D03*
D486*
X0318307Y0383985D02*
D03*
X0318307Y0395402D02*
D03*
X0310275Y0383985D02*
D03*
X0310275Y0395402D02*
D03*
D489*
X0296259Y0421358D02*
D03*
X0300196Y0421358D02*
D03*
X0310826Y0424705D02*
D03*
X0310826Y0416043D02*
D03*
X0305578Y0425492D02*
D03*
X0305578Y0416831D02*
D03*
D490*
X0252952Y0413605D02*
D03*
X0252952Y0417149D02*
D03*
X0289685Y0404214D02*
D03*
X0289685Y0400670D02*
D03*
X0304790Y0412211D02*
D03*
X0304790Y0408668D02*
D03*
X0252952Y0404987D02*
D03*
X0252952Y0408530D02*
D03*
X0256889Y0425492D02*
D03*
X0256889Y0421949D02*
D03*
D491*
X0306365Y0400007D02*
D03*
X0309909Y0400007D02*
D03*
X0318767Y0420774D02*
D03*
X0315223Y0420774D02*
D03*
X0260450Y0372010D02*
D03*
X0263994Y0372010D02*
D03*
D505*
X0297834Y0384547D02*
D03*
X0297834Y0395571D02*
D03*
D506*
X0293511Y0417225D02*
D03*
X0299731Y0417225D02*
D03*
X0293511Y0403131D02*
D03*
X0299731Y0403131D02*
D03*
X0293511Y0407822D02*
D03*
X0299731Y0407822D02*
D03*
X0293511Y0412514D02*
D03*
X0299731Y0412514D02*
D03*
X0305755Y0404312D02*
D03*
X0311976Y0404312D02*
D03*
D507*
X0256889Y0413802D02*
D03*
X0256889Y0417739D02*
D03*
X0256889Y0409121D02*
D03*
X0256889Y0405184D02*
D03*
X0310826Y0412408D02*
D03*
X0310826Y0408471D02*
D03*
X0289212Y0389475D02*
D03*
X0289212Y0385538D02*
D03*
X0251771Y0381699D02*
D03*
X0251771Y0385637D02*
D03*
D438*
X0263649Y0408688D02*
D03*
X0263649Y0413688D02*
D03*
X0263649Y0418688D02*
D03*
X0263649Y0423688D02*
D03*
X0286286Y0408688D02*
D03*
X0286286Y0413688D02*
D03*
X0286286Y0418688D02*
D03*
X0286286Y0423688D02*
D03*
X0258366Y0385621D02*
D03*
X0258366Y0390621D02*
D03*
X0258366Y0395621D02*
D03*
X0258366Y0400621D02*
D03*
X0281791Y0385621D02*
D03*
X0281791Y0390621D02*
D03*
X0281791Y0395621D02*
D03*
X0281791Y0400621D02*
D03*
D508*
X0274967Y0416188D02*
D03*
D509*
X0270078Y0393121D02*
D03*
X0401378Y0446850D02*
%LPD*%
G01*
G36*
G01*
X0409134Y0351594D02*
X0411811Y0351594D01*
G75*
G02*
X0412146Y0351259I0000000J-000335D01*
G01*
X0412146Y0348582D01*
G75*
G02*
X0411811Y0348248I-000335J0000000D01*
G01*
X0409134Y0348248D01*
G75*
G02*
X0408799Y0348582I0000000J0000335D01*
G01*
X0408799Y0351259D01*
G75*
G02*
X0409134Y0351594I0000335J0000000D01*
G01*
G37*
G36*
G01*
X0409134Y0345374D02*
X0411811Y0345374D01*
G75*
G02*
X0412146Y0345039I0000000J-000335D01*
G01*
X0412146Y0342362D01*
G75*
G02*
X0411811Y0342027I-000335J0000000D01*
G01*
X0409134Y0342027D01*
G75*
G02*
X0408799Y0342362I0000000J0000335D01*
G01*
X0408799Y0345039D01*
G75*
G02*
X0409134Y0345374I0000335J0000000D01*
G01*
G37*
G36*
G01*
X0446742Y0335885D02*
X0446742Y0324665D01*
G75*
G02*
X0445758Y0323681I-000984J0000000D01*
G01*
X0442904Y0323681D01*
G75*
G02*
X0441919Y0324665I0000000J0000984D01*
G01*
X0441919Y0335885D01*
G75*
G02*
X0442904Y0336870I0000984J0000000D01*
G01*
X0445758Y0336870D01*
G75*
G02*
X0446742Y0335885I0000000J-000984D01*
G01*
G37*
G36*
G01*
X0423415Y0335885D02*
X0423415Y0324665D01*
G75*
G02*
X0422431Y0323681I-000984J0000000D01*
G01*
X0419577Y0323681D01*
G75*
G02*
X0418593Y0324665I0000000J0000984D01*
G01*
X0418593Y0335885D01*
G75*
G02*
X0419577Y0336870I0000984J0000000D01*
G01*
X0422431Y0336870D01*
G75*
G02*
X0423415Y0335885I0000000J-000984D01*
G01*
G37*
G36*
G01*
X0409134Y0413011D02*
X0411811Y0413011D01*
G75*
G02*
X0412146Y0412677I0000000J-000335D01*
G01*
X0412146Y0410000D01*
G75*
G02*
X0411811Y0409665I-000335J0000000D01*
G01*
X0409134Y0409665D01*
G75*
G02*
X0408799Y0410000I0000000J0000335D01*
G01*
X0408799Y0412677D01*
G75*
G02*
X0409134Y0413011I0000335J0000000D01*
G01*
G37*
G36*
G01*
X0409134Y0406791D02*
X0411811Y0406791D01*
G75*
G02*
X0412146Y0406456I0000000J-000335D01*
G01*
X0412146Y0403779D01*
G75*
G02*
X0411811Y0403444I-000335J0000000D01*
G01*
X0409134Y0403444D01*
G75*
G02*
X0408799Y0403779I0000000J0000335D01*
G01*
X0408799Y0406456D01*
G75*
G02*
X0409134Y0406791I0000335J0000000D01*
G01*
G37*
G36*
G01*
X0446742Y0412657D02*
X0446742Y0401437D01*
G75*
G02*
X0445758Y0400452I-000984J0000000D01*
G01*
X0442904Y0400452D01*
G75*
G02*
X0441919Y0401437I0000000J0000984D01*
G01*
X0441919Y0412657D01*
G75*
G02*
X0442904Y0413641I0000984J0000000D01*
G01*
X0445758Y0413641D01*
G75*
G02*
X0446742Y0412657I0000000J-000984D01*
G01*
G37*
G36*
G01*
X0423415Y0412657D02*
X0423415Y0401437D01*
G75*
G02*
X0422431Y0400452I-000984J0000000D01*
G01*
X0419577Y0400452D01*
G75*
G02*
X0418593Y0401437I0000000J0000984D01*
G01*
X0418593Y0412657D01*
G75*
G02*
X0419577Y0413641I0000984J0000000D01*
G01*
X0422431Y0413641D01*
G75*
G02*
X0423415Y0412657I0000000J-000984D01*
G01*
G37*
G36*
G01*
X0446742Y0428011D02*
X0446742Y0416791D01*
G75*
G02*
X0445758Y0415807I-000984J0000000D01*
G01*
X0442904Y0415807D01*
G75*
G02*
X0441919Y0416791I0000000J0000984D01*
G01*
X0441919Y0428011D01*
G75*
G02*
X0442904Y0428996I0000984J0000000D01*
G01*
X0445758Y0428996D01*
G75*
G02*
X0446742Y0428011I0000000J-000984D01*
G01*
G37*
G36*
G01*
X0423415Y0428011D02*
X0423415Y0416791D01*
G75*
G02*
X0422431Y0415807I-000984J0000000D01*
G01*
X0419577Y0415807D01*
G75*
G02*
X0418593Y0416791I0000000J0000984D01*
G01*
X0418593Y0428011D01*
G75*
G02*
X0419577Y0428996I0000984J0000000D01*
G01*
X0422431Y0428996D01*
G75*
G02*
X0423415Y0428011I0000000J-000984D01*
G01*
G37*
G36*
G01*
X0410374Y0339822D02*
X0415295Y0339822D01*
G75*
G02*
X0416280Y0338838I0000000J-000984D01*
G01*
X0416280Y0336378D01*
G75*
G02*
X0415295Y0335393I-000984J0000000D01*
G01*
X0410374Y0335393D01*
G75*
G02*
X0409390Y0336378I0000000J0000984D01*
G01*
X0409390Y0338838D01*
G75*
G02*
X0410374Y0339822I0000984J0000000D01*
G01*
G37*
G36*
G01*
X0410374Y0328307D02*
X0415295Y0328307D01*
G75*
G02*
X0416280Y0327322I0000000J-000984D01*
G01*
X0416280Y0324862D01*
G75*
G02*
X0415295Y0323878I-000984J0000000D01*
G01*
X0410374Y0323878D01*
G75*
G02*
X0409390Y0324862I0000000J0000984D01*
G01*
X0409390Y0327322D01*
G75*
G02*
X0410374Y0328307I0000984J0000000D01*
G01*
G37*
G36*
G01*
X0409134Y0382303D02*
X0411811Y0382303D01*
G75*
G02*
X0412146Y0381968I0000000J-000335D01*
G01*
X0412146Y0379291D01*
G75*
G02*
X0411811Y0378956I-000335J0000000D01*
G01*
X0409134Y0378956D01*
G75*
G02*
X0408799Y0379291I0000000J0000335D01*
G01*
X0408799Y0381968D01*
G75*
G02*
X0409134Y0382303I0000335J0000000D01*
G01*
G37*
G36*
G01*
X0409134Y0376082D02*
X0411811Y0376082D01*
G75*
G02*
X0412146Y0375748I0000000J-000335D01*
G01*
X0412146Y0373070D01*
G75*
G02*
X0411811Y0372736I-000335J0000000D01*
G01*
X0409134Y0372736D01*
G75*
G02*
X0408799Y0373070I0000000J0000335D01*
G01*
X0408799Y0375748D01*
G75*
G02*
X0409134Y0376082I0000335J0000000D01*
G01*
G37*
G36*
G01*
X0409134Y0443720D02*
X0411811Y0443720D01*
G75*
G02*
X0412146Y0443385I0000000J-000335D01*
G01*
X0412146Y0440708D01*
G75*
G02*
X0411811Y0440374I-000335J0000000D01*
G01*
X0409134Y0440374D01*
G75*
G02*
X0408799Y0440708I0000000J0000335D01*
G01*
X0408799Y0443385D01*
G75*
G02*
X0409134Y0443720I0000335J0000000D01*
G01*
G37*
G36*
G01*
X0409134Y0437500D02*
X0411811Y0437500D01*
G75*
G02*
X0412146Y0437165I0000000J-000335D01*
G01*
X0412146Y0434488D01*
G75*
G02*
X0411811Y0434153I-000335J0000000D01*
G01*
X0409134Y0434153D01*
G75*
G02*
X0408799Y0434488I0000000J0000335D01*
G01*
X0408799Y0437165D01*
G75*
G02*
X0409134Y0437500I0000335J0000000D01*
G01*
G37*
D515*
X0444721Y0313058D03*
X0444721Y0310458D03*
X0444721Y0307958D03*
X0444721Y0305358D03*
X0444721Y0302858D03*
X0444721Y0300258D03*
X0444721Y0297658D03*
X0444721Y0295158D03*
X0444721Y0292558D03*
X0444721Y0290058D03*
X0444721Y0287458D03*
X0444721Y0284858D03*
X0444721Y0282358D03*
X0444721Y0279758D03*
X0444721Y0277258D03*
X0444721Y0274658D03*
X0407721Y0274658D03*
X0407721Y0277258D03*
X0407721Y0279758D03*
X0407721Y0282358D03*
X0407721Y0284858D03*
X0407721Y0287458D03*
X0407721Y0290058D03*
X0407721Y0292558D03*
X0407721Y0295158D03*
X0407721Y0297658D03*
X0407721Y0300258D03*
X0407721Y0302858D03*
X0407721Y0305358D03*
X0407721Y0307958D03*
X0407721Y0310458D03*
X0407721Y0313058D03*
D249*
X0426221Y0293858D03*
G36*
G01*
X0446742Y0381948D02*
X0446742Y0370728D01*
G75*
G02*
X0445758Y0369744I-000984J0000000D01*
G01*
X0442904Y0369744D01*
G75*
G02*
X0441919Y0370728I0000000J0000984D01*
G01*
X0441919Y0381948D01*
G75*
G02*
X0442904Y0382933I0000984J0000000D01*
G01*
X0445758Y0382933D01*
G75*
G02*
X0446742Y0381948I0000000J-000984D01*
G01*
G37*
G36*
G01*
X0423415Y0381948D02*
X0423415Y0370728D01*
G75*
G02*
X0422431Y0369744I-000984J0000000D01*
G01*
X0419577Y0369744D01*
G75*
G02*
X0418593Y0370728I0000000J0000984D01*
G01*
X0418593Y0381948D01*
G75*
G02*
X0419577Y0382933I0000984J0000000D01*
G01*
X0422431Y0382933D01*
G75*
G02*
X0423415Y0381948I0000000J-000984D01*
G01*
G37*
G36*
G01*
X0446742Y0397303D02*
X0446742Y0386082D01*
G75*
G02*
X0445758Y0385098I-000984J0000000D01*
G01*
X0442904Y0385098D01*
G75*
G02*
X0441919Y0386082I0000000J0000984D01*
G01*
X0441919Y0397303D01*
G75*
G02*
X0442904Y0398287I0000984J0000000D01*
G01*
X0445758Y0398287D01*
G75*
G02*
X0446742Y0397303I0000000J-000984D01*
G01*
G37*
G36*
G01*
X0423415Y0397303D02*
X0423415Y0386082D01*
G75*
G02*
X0422431Y0385098I-000984J0000000D01*
G01*
X0419577Y0385098D01*
G75*
G02*
X0418593Y0386082I0000000J0000984D01*
G01*
X0418593Y0397303D01*
G75*
G02*
X0419577Y0398287I0000984J0000000D01*
G01*
X0422431Y0398287D01*
G75*
G02*
X0423415Y0397303I0000000J-000984D01*
G01*
G37*
G36*
G01*
X0446742Y0443366D02*
X0446742Y0432145D01*
G75*
G02*
X0445758Y0431161I-000984J0000000D01*
G01*
X0442904Y0431161D01*
G75*
G02*
X0441919Y0432145I0000000J0000984D01*
G01*
X0441919Y0443366D01*
G75*
G02*
X0442904Y0444350I0000984J0000000D01*
G01*
X0445758Y0444350D01*
G75*
G02*
X0446742Y0443366I0000000J-000984D01*
G01*
G37*
G36*
G01*
X0423415Y0443366D02*
X0423415Y0432145D01*
G75*
G02*
X0422431Y0431161I-000984J0000000D01*
G01*
X0419577Y0431161D01*
G75*
G02*
X0418593Y0432145I0000000J0000984D01*
G01*
X0418593Y0443366D01*
G75*
G02*
X0419577Y0444350I0000984J0000000D01*
G01*
X0422431Y0444350D01*
G75*
G02*
X0423415Y0443366I0000000J-000984D01*
G01*
G37*
G36*
G01*
X0410374Y0401240D02*
X0415295Y0401240D01*
G75*
G02*
X0416280Y0400256I0000000J-000984D01*
G01*
X0416280Y0397795D01*
G75*
G02*
X0415295Y0396811I-000984J0000000D01*
G01*
X0410374Y0396811D01*
G75*
G02*
X0409390Y0397795I0000000J0000984D01*
G01*
X0409390Y0400256D01*
G75*
G02*
X0410374Y0401240I0000984J0000000D01*
G01*
G37*
G36*
G01*
X0410374Y0389724D02*
X0415295Y0389724D01*
G75*
G02*
X0416280Y0388740I0000000J-000984D01*
G01*
X0416280Y0386279D01*
G75*
G02*
X0415295Y0385295I-000984J0000000D01*
G01*
X0410374Y0385295D01*
G75*
G02*
X0409390Y0386279I0000000J0000984D01*
G01*
X0409390Y0388740D01*
G75*
G02*
X0410374Y0389724I0000984J0000000D01*
G01*
G37*
G36*
G01*
X0446742Y0366594D02*
X0446742Y0355374D01*
G75*
G02*
X0445758Y0354389I-000984J0000000D01*
G01*
X0442904Y0354389D01*
G75*
G02*
X0441919Y0355374I0000000J0000984D01*
G01*
X0441919Y0366594D01*
G75*
G02*
X0442904Y0367578I0000984J0000000D01*
G01*
X0445758Y0367578D01*
G75*
G02*
X0446742Y0366594I0000000J-000984D01*
G01*
G37*
G36*
G01*
X0423415Y0366594D02*
X0423415Y0355374D01*
G75*
G02*
X0422431Y0354389I-000984J0000000D01*
G01*
X0419577Y0354389D01*
G75*
G02*
X0418593Y0355374I0000000J0000984D01*
G01*
X0418593Y0366594D01*
G75*
G02*
X0419577Y0367578I0000984J0000000D01*
G01*
X0422431Y0367578D01*
G75*
G02*
X0423415Y0366594I0000000J-000984D01*
G01*
G37*
G36*
G01*
X0410374Y0431948D02*
X0415295Y0431948D01*
G75*
G02*
X0416280Y0430964I0000000J-000984D01*
G01*
X0416280Y0428504D01*
G75*
G02*
X0415295Y0427519I-000984J0000000D01*
G01*
X0410374Y0427519D01*
G75*
G02*
X0409390Y0428504I0000000J0000984D01*
G01*
X0409390Y0430964D01*
G75*
G02*
X0410374Y0431948I0000984J0000000D01*
G01*
G37*
G36*
G01*
X0410374Y0420433D02*
X0415295Y0420433D01*
G75*
G02*
X0416280Y0419448I0000000J-000984D01*
G01*
X0416280Y0416988D01*
G75*
G02*
X0415295Y0416004I-000984J0000000D01*
G01*
X0410374Y0416004D01*
G75*
G02*
X0409390Y0416988I0000000J0000984D01*
G01*
X0409390Y0419448D01*
G75*
G02*
X0410374Y0420433I0000984J0000000D01*
G01*
G37*
G36*
G01*
X0446742Y0351240D02*
X0446742Y0340019D01*
G75*
G02*
X0445758Y0339035I-000984J0000000D01*
G01*
X0442904Y0339035D01*
G75*
G02*
X0441919Y0340019I0000000J0000984D01*
G01*
X0441919Y0351240D01*
G75*
G02*
X0442904Y0352224I0000984J0000000D01*
G01*
X0445758Y0352224D01*
G75*
G02*
X0446742Y0351240I0000000J-000984D01*
G01*
G37*
G36*
G01*
X0423415Y0351240D02*
X0423415Y0340019D01*
G75*
G02*
X0422431Y0339035I-000984J0000000D01*
G01*
X0419577Y0339035D01*
G75*
G02*
X0418593Y0340019I0000000J0000984D01*
G01*
X0418593Y0351240D01*
G75*
G02*
X0419577Y0352224I0000984J0000000D01*
G01*
X0422431Y0352224D01*
G75*
G02*
X0423415Y0351240I0000000J-000984D01*
G01*
G37*
G36*
G01*
X0410374Y0370531D02*
X0415295Y0370531D01*
G75*
G02*
X0416280Y0369547I0000000J-000984D01*
G01*
X0416280Y0367086D01*
G75*
G02*
X0415295Y0366102I-000984J0000000D01*
G01*
X0410374Y0366102D01*
G75*
G02*
X0409390Y0367086I0000000J0000984D01*
G01*
X0409390Y0369547D01*
G75*
G02*
X0410374Y0370531I0000984J0000000D01*
G01*
G37*
G36*
G01*
X0410374Y0359015D02*
X0415295Y0359015D01*
G75*
G02*
X0416280Y0358031I0000000J-000984D01*
G01*
X0416280Y0355570D01*
G75*
G02*
X0415295Y0354586I-000984J0000000D01*
G01*
X0410374Y0354586D01*
G75*
G02*
X0409390Y0355570I0000000J0000984D01*
G01*
X0409390Y0358031D01*
G75*
G02*
X0410374Y0359015I0000984J0000000D01*
G01*
G37*
X0104429Y0421949D02*
%LPD*%
G01*
G36*
G01*
X0121594Y0411319D02*
X0121594Y0414390D01*
G75*
G02*
X0121870Y0414666I0000276J0000000D01*
G01*
X0124075Y0414666D01*
G75*
G02*
X0124350Y0414390I0000000J-000276D01*
G01*
X0124350Y0411319D01*
G75*
G02*
X0124075Y0411043I-000276J0000000D01*
G01*
X0121870Y0411043D01*
G75*
G02*
X0121594Y0411319I0000000J0000276D01*
G01*
G37*
G36*
G01*
X0127894Y0411319D02*
X0127894Y0414390D01*
G75*
G02*
X0128169Y0414666I0000276J0000000D01*
G01*
X0130374Y0414666D01*
G75*
G02*
X0130649Y0414390I0000000J-000276D01*
G01*
X0130649Y0411319D01*
G75*
G02*
X0130374Y0411043I-000276J0000000D01*
G01*
X0128169Y0411043D01*
G75*
G02*
X0127894Y0411319I0000000J0000276D01*
G01*
G37*
G36*
G01*
X0142460Y0414390D02*
X0142460Y0411319D01*
G75*
G02*
X0142185Y0411043I-000276J0000000D01*
G01*
X0139980Y0411043D01*
G75*
G02*
X0139705Y0411319I0000000J0000276D01*
G01*
X0139705Y0414390D01*
G75*
G02*
X0139980Y0414666I0000276J0000000D01*
G01*
X0142185Y0414666D01*
G75*
G02*
X0142460Y0414390I0000000J-000276D01*
G01*
G37*
G36*
G01*
X0136161Y0414390D02*
X0136161Y0411319D01*
G75*
G02*
X0135886Y0411043I-000276J0000000D01*
G01*
X0133681Y0411043D01*
G75*
G02*
X0133405Y0411319I0000000J0000276D01*
G01*
X0133405Y0414390D01*
G75*
G02*
X0133681Y0414666I0000276J0000000D01*
G01*
X0135886Y0414666D01*
G75*
G02*
X0136161Y0414390I0000000J-000276D01*
G01*
G37*
G36*
G01*
X0139606Y0395138D02*
X0135472Y0395138D01*
G75*
G02*
X0135079Y0395532I0000000J0000394D01*
G01*
X0135079Y0398681D01*
G75*
G02*
X0135472Y0399075I0000394J0000000D01*
G01*
X0139606Y0399075D01*
G75*
G02*
X0140000Y0398681I0000000J-000394D01*
G01*
X0140000Y0395532D01*
G75*
G02*
X0139606Y0395138I-000394J0000000D01*
G01*
G37*
G36*
G01*
X0139606Y0403012D02*
X0135472Y0403012D01*
G75*
G02*
X0135079Y0403406I0000000J0000394D01*
G01*
X0135079Y0406555D01*
G75*
G02*
X0135472Y0406949I0000394J0000000D01*
G01*
X0139606Y0406949D01*
G75*
G02*
X0140000Y0406555I0000000J-000394D01*
G01*
X0140000Y0403406D01*
G75*
G02*
X0139606Y0403012I-000394J0000000D01*
G01*
G37*
G36*
G01*
X0121299Y0391988D02*
X0125433Y0391988D01*
G75*
G02*
X0125827Y0391595I0000000J-000394D01*
G01*
X0125827Y0388445D01*
G75*
G02*
X0125433Y0388051I-000394J0000000D01*
G01*
X0121299Y0388051D01*
G75*
G02*
X0120905Y0388445I0000000J0000394D01*
G01*
X0120905Y0391595D01*
G75*
G02*
X0121299Y0391988I0000394J0000000D01*
G01*
G37*
G36*
G01*
X0121299Y0384114D02*
X0125433Y0384114D01*
G75*
G02*
X0125827Y0383721I0000000J-000394D01*
G01*
X0125827Y0380571D01*
G75*
G02*
X0125433Y0380177I-000394J0000000D01*
G01*
X0121299Y0380177D01*
G75*
G02*
X0120905Y0380571I0000000J0000394D01*
G01*
X0120905Y0383721D01*
G75*
G02*
X0121299Y0384114I0000394J0000000D01*
G01*
G37*
G36*
G01*
X0119094Y0420099D02*
X0119094Y0417421D01*
G75*
G02*
X0118760Y0417087I-000335J0000000D01*
G01*
X0116083Y0417087D01*
G75*
G02*
X0115748Y0417421I0000000J0000335D01*
G01*
X0115748Y0420099D01*
G75*
G02*
X0116083Y0420433I0000335J0000000D01*
G01*
X0118760Y0420433D01*
G75*
G02*
X0119094Y0420099I0000000J-000335D01*
G01*
G37*
G36*
G01*
X0112874Y0420099D02*
X0112874Y0417421D01*
G75*
G02*
X0112539Y0417087I-000335J0000000D01*
G01*
X0109862Y0417087D01*
G75*
G02*
X0109527Y0417421I0000000J0000335D01*
G01*
X0109527Y0420099D01*
G75*
G02*
X0109862Y0420433I0000335J0000000D01*
G01*
X0112539Y0420433D01*
G75*
G02*
X0112874Y0420099I0000000J-000335D01*
G01*
G37*
G36*
G01*
X0117027Y0376004D02*
X0117027Y0373327D01*
G75*
G02*
X0116693Y0372992I-000335J0000000D01*
G01*
X0114016Y0372992D01*
G75*
G02*
X0113681Y0373327I0000000J0000335D01*
G01*
X0113681Y0376004D01*
G75*
G02*
X0114016Y0376339I0000335J0000000D01*
G01*
X0116693Y0376339D01*
G75*
G02*
X0117027Y0376004I0000000J-000335D01*
G01*
G37*
G36*
G01*
X0110807Y0376004D02*
X0110807Y0373327D01*
G75*
G02*
X0110472Y0372992I-000335J0000000D01*
G01*
X0107795Y0372992D01*
G75*
G02*
X0107460Y0373327I0000000J0000335D01*
G01*
X0107460Y0376004D01*
G75*
G02*
X0107795Y0376339I0000335J0000000D01*
G01*
X0110472Y0376339D01*
G75*
G02*
X0110807Y0376004I0000000J-000335D01*
G01*
G37*
G36*
G01*
X0132520Y0395138D02*
X0128386Y0395138D01*
G75*
G02*
X0127992Y0395532I0000000J0000394D01*
G01*
X0127992Y0398681D01*
G75*
G02*
X0128386Y0399075I0000394J0000000D01*
G01*
X0132520Y0399075D01*
G75*
G02*
X0132913Y0398681I0000000J-000394D01*
G01*
X0132913Y0395532D01*
G75*
G02*
X0132520Y0395138I-000394J0000000D01*
G01*
G37*
G36*
G01*
X0132520Y0403012D02*
X0128386Y0403012D01*
G75*
G02*
X0127992Y0403406I0000000J0000394D01*
G01*
X0127992Y0406555D01*
G75*
G02*
X0128386Y0406949I0000394J0000000D01*
G01*
X0132520Y0406949D01*
G75*
G02*
X0132913Y0406555I0000000J-000394D01*
G01*
X0132913Y0403406D01*
G75*
G02*
X0132520Y0403012I-000394J0000000D01*
G01*
G37*
G36*
G01*
X0128386Y0391988D02*
X0132520Y0391988D01*
G75*
G02*
X0132913Y0391595I0000000J-000394D01*
G01*
X0132913Y0388445D01*
G75*
G02*
X0132520Y0388051I-000394J0000000D01*
G01*
X0128386Y0388051D01*
G75*
G02*
X0127992Y0388445I0000000J0000394D01*
G01*
X0127992Y0391595D01*
G75*
G02*
X0128386Y0391988I0000394J0000000D01*
G01*
G37*
G36*
G01*
X0128386Y0384114D02*
X0132520Y0384114D01*
G75*
G02*
X0132913Y0383721I0000000J-000394D01*
G01*
X0132913Y0380571D01*
G75*
G02*
X0132520Y0380177I-000394J0000000D01*
G01*
X0128386Y0380177D01*
G75*
G02*
X0127992Y0380571I0000000J0000394D01*
G01*
X0127992Y0383721D01*
G75*
G02*
X0128386Y0384114I0000394J0000000D01*
G01*
G37*
G36*
G01*
X0118346Y0395138D02*
X0114212Y0395138D01*
G75*
G02*
X0113819Y0395532I0000000J0000394D01*
G01*
X0113819Y0398681D01*
G75*
G02*
X0114212Y0399075I0000394J0000000D01*
G01*
X0118346Y0399075D01*
G75*
G02*
X0118740Y0398681I0000000J-000394D01*
G01*
X0118740Y0395532D01*
G75*
G02*
X0118346Y0395138I-000394J0000000D01*
G01*
G37*
G36*
G01*
X0118346Y0403012D02*
X0114212Y0403012D01*
G75*
G02*
X0113819Y0403406I0000000J0000394D01*
G01*
X0113819Y0406555D01*
G75*
G02*
X0114212Y0406949I0000394J0000000D01*
G01*
X0118346Y0406949D01*
G75*
G02*
X0118740Y0406555I0000000J-000394D01*
G01*
X0118740Y0403406D01*
G75*
G02*
X0118346Y0403012I-000394J0000000D01*
G01*
G37*
G36*
G01*
X0107126Y0391988D02*
X0111260Y0391988D01*
G75*
G02*
X0111653Y0391595I0000000J-000394D01*
G01*
X0111653Y0388445D01*
G75*
G02*
X0111260Y0388051I-000394J0000000D01*
G01*
X0107126Y0388051D01*
G75*
G02*
X0106732Y0388445I0000000J0000394D01*
G01*
X0106732Y0391595D01*
G75*
G02*
X0107126Y0391988I0000394J0000000D01*
G01*
G37*
G36*
G01*
X0107126Y0384114D02*
X0111260Y0384114D01*
G75*
G02*
X0111653Y0383721I0000000J-000394D01*
G01*
X0111653Y0380571D01*
G75*
G02*
X0111260Y0380177I-000394J0000000D01*
G01*
X0107126Y0380177D01*
G75*
G02*
X0106732Y0380571I0000000J0000394D01*
G01*
X0106732Y0383721D01*
G75*
G02*
X0107126Y0384114I0000394J0000000D01*
G01*
G37*
G36*
G01*
X0119094Y0414193D02*
X0119094Y0411516D01*
G75*
G02*
X0118760Y0411181I-000335J0000000D01*
G01*
X0116083Y0411181D01*
G75*
G02*
X0115748Y0411516I0000000J0000335D01*
G01*
X0115748Y0414193D01*
G75*
G02*
X0116083Y0414528I0000335J0000000D01*
G01*
X0118760Y0414528D01*
G75*
G02*
X0119094Y0414193I0000000J-000335D01*
G01*
G37*
G36*
G01*
X0112874Y0414193D02*
X0112874Y0411516D01*
G75*
G02*
X0112539Y0411181I-000335J0000000D01*
G01*
X0109862Y0411181D01*
G75*
G02*
X0109527Y0411516I0000000J0000335D01*
G01*
X0109527Y0414193D01*
G75*
G02*
X0109862Y0414528I0000335J0000000D01*
G01*
X0112539Y0414528D01*
G75*
G02*
X0112874Y0414193I0000000J-000335D01*
G01*
G37*
G36*
G01*
X0111260Y0395138D02*
X0107126Y0395138D01*
G75*
G02*
X0106732Y0395532I0000000J0000394D01*
G01*
X0106732Y0398681D01*
G75*
G02*
X0107126Y0399075I0000394J0000000D01*
G01*
X0111260Y0399075D01*
G75*
G02*
X0111653Y0398681I0000000J-000394D01*
G01*
X0111653Y0395532D01*
G75*
G02*
X0111260Y0395138I-000394J0000000D01*
G01*
G37*
G36*
G01*
X0111260Y0403012D02*
X0107126Y0403012D01*
G75*
G02*
X0106732Y0403406I0000000J0000394D01*
G01*
X0106732Y0406555D01*
G75*
G02*
X0107126Y0406949I0000394J0000000D01*
G01*
X0111260Y0406949D01*
G75*
G02*
X0111653Y0406555I0000000J-000394D01*
G01*
X0111653Y0403406D01*
G75*
G02*
X0111260Y0403012I-000394J0000000D01*
G01*
G37*
G36*
G01*
X0114212Y0391988D02*
X0118346Y0391988D01*
G75*
G02*
X0118740Y0391595I0000000J-000394D01*
G01*
X0118740Y0388445D01*
G75*
G02*
X0118346Y0388051I-000394J0000000D01*
G01*
X0114212Y0388051D01*
G75*
G02*
X0113819Y0388445I0000000J0000394D01*
G01*
X0113819Y0391595D01*
G75*
G02*
X0114212Y0391988I0000394J0000000D01*
G01*
G37*
G36*
G01*
X0114212Y0384114D02*
X0118346Y0384114D01*
G75*
G02*
X0118740Y0383721I0000000J-000394D01*
G01*
X0118740Y0380571D01*
G75*
G02*
X0118346Y0380177I-000394J0000000D01*
G01*
X0114212Y0380177D01*
G75*
G02*
X0113819Y0380571I0000000J0000394D01*
G01*
X0113819Y0383721D01*
G75*
G02*
X0114212Y0384114I0000394J0000000D01*
G01*
G37*
G36*
G01*
X0135472Y0391988D02*
X0139606Y0391988D01*
G75*
G02*
X0140000Y0391595I0000000J-000394D01*
G01*
X0140000Y0388445D01*
G75*
G02*
X0139606Y0388051I-000394J0000000D01*
G01*
X0135472Y0388051D01*
G75*
G02*
X0135079Y0388445I0000000J0000394D01*
G01*
X0135079Y0391595D01*
G75*
G02*
X0135472Y0391988I0000394J0000000D01*
G01*
G37*
G36*
G01*
X0135472Y0384114D02*
X0139606Y0384114D01*
G75*
G02*
X0140000Y0383721I0000000J-000394D01*
G01*
X0140000Y0380571D01*
G75*
G02*
X0139606Y0380177I-000394J0000000D01*
G01*
X0135472Y0380177D01*
G75*
G02*
X0135079Y0380571I0000000J0000394D01*
G01*
X0135079Y0383721D01*
G75*
G02*
X0135472Y0384114I0000394J0000000D01*
G01*
G37*
G36*
G01*
X0125433Y0395138D02*
X0121299Y0395138D01*
G75*
G02*
X0120905Y0395532I0000000J0000394D01*
G01*
X0120905Y0398681D01*
G75*
G02*
X0121299Y0399075I0000394J0000000D01*
G01*
X0125433Y0399075D01*
G75*
G02*
X0125827Y0398681I0000000J-000394D01*
G01*
X0125827Y0395532D01*
G75*
G02*
X0125433Y0395138I-000394J0000000D01*
G01*
G37*
G36*
G01*
X0125433Y0403012D02*
X0121299Y0403012D01*
G75*
G02*
X0120905Y0403406I0000000J0000394D01*
G01*
X0120905Y0406555D01*
G75*
G02*
X0121299Y0406949I0000394J0000000D01*
G01*
X0125433Y0406949D01*
G75*
G02*
X0125827Y0406555I0000000J-000394D01*
G01*
X0125827Y0403406D01*
G75*
G02*
X0125433Y0403012I-000394J0000000D01*
G01*
G37*
X0103346Y0098031D02*
%LPD*%
G01*
G36*
G01*
X0183051Y0105390D02*
X0183051Y0106748D01*
G75*
G02*
X0183631Y0107329I0000581J0000000D01*
G01*
X0184793Y0107329D01*
G75*
G02*
X0185374Y0106748I0000000J-000581D01*
G01*
X0185374Y0105390D01*
G75*
G02*
X0184793Y0104809I-000581J0000000D01*
G01*
X0183631Y0104809D01*
G75*
G02*
X0183051Y0105390I0000000J0000581D01*
G01*
G37*
G36*
G01*
X0186870Y0105390D02*
X0186870Y0106748D01*
G75*
G02*
X0187450Y0107329I0000581J0000000D01*
G01*
X0188612Y0107329D01*
G75*
G02*
X0189192Y0106748I0000000J-000581D01*
G01*
X0189192Y0105390D01*
G75*
G02*
X0188612Y0104809I-000581J0000000D01*
G01*
X0187450Y0104809D01*
G75*
G02*
X0186870Y0105390I0000000J0000581D01*
G01*
G37*
G36*
G01*
X0197519Y0120679D02*
X0197519Y0122037D01*
G75*
G02*
X0198100Y0122618I0000581J0000000D01*
G01*
X0199261Y0122618D01*
G75*
G02*
X0199842Y0122037I0000000J-000581D01*
G01*
X0199842Y0120679D01*
G75*
G02*
X0199261Y0120098I-000581J0000000D01*
G01*
X0198100Y0120098D01*
G75*
G02*
X0197519Y0120679I0000000J0000581D01*
G01*
G37*
G36*
G01*
X0201338Y0120679D02*
X0201338Y0122037D01*
G75*
G02*
X0201919Y0122618I0000581J0000000D01*
G01*
X0203080Y0122618D01*
G75*
G02*
X0203661Y0122037I0000000J-000581D01*
G01*
X0203661Y0120679D01*
G75*
G02*
X0203080Y0120098I-000581J0000000D01*
G01*
X0201919Y0120098D01*
G75*
G02*
X0201338Y0120679I0000000J0000581D01*
G01*
G37*
G36*
G01*
X0147637Y0146875D02*
X0147637Y0144857D01*
G75*
G02*
X0146776Y0143996I-000861J0000000D01*
G01*
X0145054Y0143996D01*
G75*
G02*
X0144192Y0144857I0000000J0000861D01*
G01*
X0144192Y0146875D01*
G75*
G02*
X0145054Y0147736I0000861J0000000D01*
G01*
X0146776Y0147736D01*
G75*
G02*
X0147637Y0146875I0000000J-000861D01*
G01*
G37*
G36*
G01*
X0141437Y0146875D02*
X0141437Y0144857D01*
G75*
G02*
X0140575Y0143996I-000861J0000000D01*
G01*
X0138853Y0143996D01*
G75*
G02*
X0137992Y0144857I0000000J0000861D01*
G01*
X0137992Y0146875D01*
G75*
G02*
X0138853Y0147736I0000861J0000000D01*
G01*
X0140575Y0147736D01*
G75*
G02*
X0141437Y0146875I0000000J-000861D01*
G01*
G37*
G36*
G01*
X0189192Y0102549D02*
X0189192Y0101190D01*
G75*
G02*
X0188612Y0100610I-000581J0000000D01*
G01*
X0187450Y0100610D01*
G75*
G02*
X0186870Y0101190I0000000J0000581D01*
G01*
X0186870Y0102549D01*
G75*
G02*
X0187450Y0103129I0000581J0000000D01*
G01*
X0188612Y0103129D01*
G75*
G02*
X0189192Y0102549I0000000J-000581D01*
G01*
G37*
G36*
G01*
X0185374Y0102549D02*
X0185374Y0101190D01*
G75*
G02*
X0184793Y0100610I-000581J0000000D01*
G01*
X0183631Y0100610D01*
G75*
G02*
X0183051Y0101190I0000000J0000581D01*
G01*
X0183051Y0102549D01*
G75*
G02*
X0183631Y0103129I0000581J0000000D01*
G01*
X0184793Y0103129D01*
G75*
G02*
X0185374Y0102549I0000000J-000581D01*
G01*
G37*
G36*
G01*
X0129491Y0141545D02*
X0129491Y0142903D01*
G75*
G02*
X0130071Y0143484I0000581J0000000D01*
G01*
X0131233Y0143484D01*
G75*
G02*
X0131813Y0142903I0000000J-000581D01*
G01*
X0131813Y0141545D01*
G75*
G02*
X0131233Y0140964I-000581J0000000D01*
G01*
X0130071Y0140964D01*
G75*
G02*
X0129491Y0141545I0000000J0000581D01*
G01*
G37*
G36*
G01*
X0133309Y0141545D02*
X0133309Y0142903D01*
G75*
G02*
X0133890Y0143484I0000581J0000000D01*
G01*
X0135052Y0143484D01*
G75*
G02*
X0135632Y0142903I0000000J-000581D01*
G01*
X0135632Y0141545D01*
G75*
G02*
X0135052Y0140964I-000581J0000000D01*
G01*
X0133890Y0140964D01*
G75*
G02*
X0133309Y0141545I0000000J0000581D01*
G01*
G37*
G36*
G01*
X0137578Y0139675D02*
X0137578Y0141033D01*
G75*
G02*
X0138159Y0141614I0000581J0000000D01*
G01*
X0139320Y0141614D01*
G75*
G02*
X0139901Y0141033I0000000J-000581D01*
G01*
X0139901Y0139675D01*
G75*
G02*
X0139320Y0139094I-000581J0000000D01*
G01*
X0138159Y0139094D01*
G75*
G02*
X0137578Y0139675I0000000J0000581D01*
G01*
G37*
G36*
G01*
X0141397Y0139675D02*
X0141397Y0141033D01*
G75*
G02*
X0141978Y0141614I0000581J0000000D01*
G01*
X0143139Y0141614D01*
G75*
G02*
X0143720Y0141033I0000000J-000581D01*
G01*
X0143720Y0139675D01*
G75*
G02*
X0143139Y0139094I-000581J0000000D01*
G01*
X0141978Y0139094D01*
G75*
G02*
X0141397Y0139675I0000000J0000581D01*
G01*
G37*
G36*
G01*
X0108966Y0147007D02*
X0110324Y0147007D01*
G75*
G02*
X0110905Y0146427I0000000J-000581D01*
G01*
X0110905Y0145265D01*
G75*
G02*
X0110324Y0144685I-000581J0000000D01*
G01*
X0108966Y0144685D01*
G75*
G02*
X0108385Y0145265I0000000J0000581D01*
G01*
X0108385Y0146427D01*
G75*
G02*
X0108966Y0147007I0000581J0000000D01*
G01*
G37*
G36*
G01*
X0108966Y0143188D02*
X0110324Y0143188D01*
G75*
G02*
X0110905Y0142608I0000000J-000581D01*
G01*
X0110905Y0141446D01*
G75*
G02*
X0110324Y0140866I-000581J0000000D01*
G01*
X0108966Y0140866D01*
G75*
G02*
X0108385Y0141446I0000000J0000581D01*
G01*
X0108385Y0142608D01*
G75*
G02*
X0108966Y0143188I0000581J0000000D01*
G01*
G37*
G36*
G01*
X0158484Y0129419D02*
X0158484Y0128061D01*
G75*
G02*
X0157903Y0127480I-000581J0000000D01*
G01*
X0156742Y0127480D01*
G75*
G02*
X0156161Y0128061I0000000J0000581D01*
G01*
X0156161Y0129419D01*
G75*
G02*
X0156742Y0130000I0000581J0000000D01*
G01*
X0157903Y0130000D01*
G75*
G02*
X0158484Y0129419I0000000J-000581D01*
G01*
G37*
G36*
G01*
X0154665Y0129419D02*
X0154665Y0128061D01*
G75*
G02*
X0154084Y0127480I-000581J0000000D01*
G01*
X0152923Y0127480D01*
G75*
G02*
X0152342Y0128061I0000000J0000581D01*
G01*
X0152342Y0129419D01*
G75*
G02*
X0152923Y0130000I0000581J0000000D01*
G01*
X0154084Y0130000D01*
G75*
G02*
X0154665Y0129419I0000000J-000581D01*
G01*
G37*
G36*
G01*
X0152342Y0124124D02*
X0152342Y0125482D01*
G75*
G02*
X0152923Y0126062I0000581J0000000D01*
G01*
X0154084Y0126062D01*
G75*
G02*
X0154665Y0125482I0000000J-000581D01*
G01*
X0154665Y0124124D01*
G75*
G02*
X0154084Y0123543I-000581J0000000D01*
G01*
X0152923Y0123543D01*
G75*
G02*
X0152342Y0124124I0000000J0000581D01*
G01*
G37*
G36*
G01*
X0156161Y0124124D02*
X0156161Y0125482D01*
G75*
G02*
X0156742Y0126062I0000581J0000000D01*
G01*
X0157903Y0126062D01*
G75*
G02*
X0158484Y0125482I0000000J-000581D01*
G01*
X0158484Y0124124D01*
G75*
G02*
X0157903Y0123543I-000581J0000000D01*
G01*
X0156742Y0123543D01*
G75*
G02*
X0156161Y0124124I0000000J0000581D01*
G01*
G37*
G36*
G01*
X0199822Y0126564D02*
X0199822Y0125206D01*
G75*
G02*
X0199242Y0124625I-000581J0000000D01*
G01*
X0198080Y0124625D01*
G75*
G02*
X0197500Y0125206I0000000J0000581D01*
G01*
X0197500Y0126564D01*
G75*
G02*
X0198080Y0127145I0000581J0000000D01*
G01*
X0199242Y0127145D01*
G75*
G02*
X0199822Y0126564I0000000J-000581D01*
G01*
G37*
G36*
G01*
X0196003Y0126564D02*
X0196003Y0125206D01*
G75*
G02*
X0195423Y0124625I-000581J0000000D01*
G01*
X0194261Y0124625D01*
G75*
G02*
X0193681Y0125206I0000000J0000581D01*
G01*
X0193681Y0126564D01*
G75*
G02*
X0194261Y0127145I0000581J0000000D01*
G01*
X0195423Y0127145D01*
G75*
G02*
X0196003Y0126564I0000000J-000581D01*
G01*
G37*
D264*
X0145472Y0103149D03*
X0145472Y0105708D03*
X0145472Y0108267D03*
X0145472Y0110826D03*
X0145472Y0113385D03*
X0145472Y0115944D03*
X0145472Y0118503D03*
X0168700Y0118503D03*
X0168700Y0115944D03*
X0168700Y0113385D03*
X0168700Y0110826D03*
X0168700Y0108267D03*
X0168700Y0105708D03*
X0168700Y0103149D03*
G36*
G01*
X0135649Y0146643D02*
X0135649Y0145285D01*
G75*
G02*
X0135068Y0144704I-000581J0000000D01*
G01*
X0133907Y0144704D01*
G75*
G02*
X0133326Y0145285I0000000J0000581D01*
G01*
X0133326Y0146643D01*
G75*
G02*
X0133907Y0147224I0000581J0000000D01*
G01*
X0135068Y0147224D01*
G75*
G02*
X0135649Y0146643I0000000J-000581D01*
G01*
G37*
G36*
G01*
X0131830Y0146643D02*
X0131830Y0145285D01*
G75*
G02*
X0131250Y0144704I-000581J0000000D01*
G01*
X0130088Y0144704D01*
G75*
G02*
X0129507Y0145285I0000000J0000581D01*
G01*
X0129507Y0146643D01*
G75*
G02*
X0130088Y0147224I0000581J0000000D01*
G01*
X0131250Y0147224D01*
G75*
G02*
X0131830Y0146643I0000000J-000581D01*
G01*
G37*
G36*
G01*
X0129507Y0149025D02*
X0129507Y0150383D01*
G75*
G02*
X0130088Y0150964I0000581J0000000D01*
G01*
X0131250Y0150964D01*
G75*
G02*
X0131830Y0150383I0000000J-000581D01*
G01*
X0131830Y0149025D01*
G75*
G02*
X0131250Y0148444I-000581J0000000D01*
G01*
X0130088Y0148444D01*
G75*
G02*
X0129507Y0149025I0000000J0000581D01*
G01*
G37*
G36*
G01*
X0133326Y0149025D02*
X0133326Y0150383D01*
G75*
G02*
X0133907Y0150964I0000581J0000000D01*
G01*
X0135068Y0150964D01*
G75*
G02*
X0135649Y0150383I0000000J-000581D01*
G01*
X0135649Y0149025D01*
G75*
G02*
X0135068Y0148444I-000581J0000000D01*
G01*
X0133907Y0148444D01*
G75*
G02*
X0133326Y0149025I0000000J0000581D01*
G01*
G37*
G36*
G01*
X0189744Y0139576D02*
X0189744Y0140935D01*
G75*
G02*
X0190324Y0141515I0000581J0000000D01*
G01*
X0191486Y0141515D01*
G75*
G02*
X0192066Y0140935I0000000J-000581D01*
G01*
X0192066Y0139576D01*
G75*
G02*
X0191486Y0138996I-000581J0000000D01*
G01*
X0190324Y0138996D01*
G75*
G02*
X0189744Y0139576I0000000J0000581D01*
G01*
G37*
G36*
G01*
X0193563Y0139576D02*
X0193563Y0140935D01*
G75*
G02*
X0194143Y0141515I0000581J0000000D01*
G01*
X0195305Y0141515D01*
G75*
G02*
X0195885Y0140935I0000000J-000581D01*
G01*
X0195885Y0139576D01*
G75*
G02*
X0195305Y0138996I-000581J0000000D01*
G01*
X0194143Y0138996D01*
G75*
G02*
X0193563Y0139576I0000000J0000581D01*
G01*
G37*
G36*
G01*
X0183051Y0110278D02*
X0183051Y0111637D01*
G75*
G02*
X0183631Y0112217I0000581J0000000D01*
G01*
X0184793Y0112217D01*
G75*
G02*
X0185374Y0111637I0000000J-000581D01*
G01*
X0185374Y0110278D01*
G75*
G02*
X0184793Y0109698I-000581J0000000D01*
G01*
X0183631Y0109698D01*
G75*
G02*
X0183051Y0110278I0000000J0000581D01*
G01*
G37*
G36*
G01*
X0186870Y0110278D02*
X0186870Y0111637D01*
G75*
G02*
X0187450Y0112217I0000581J0000000D01*
G01*
X0188612Y0112217D01*
G75*
G02*
X0189192Y0111637I0000000J-000581D01*
G01*
X0189192Y0110278D01*
G75*
G02*
X0188612Y0109698I-000581J0000000D01*
G01*
X0187450Y0109698D01*
G75*
G02*
X0186870Y0110278I0000000J0000581D01*
G01*
G37*
G36*
G01*
X0155236Y0133356D02*
X0155236Y0131998D01*
G75*
G02*
X0154655Y0131417I-000581J0000000D01*
G01*
X0153494Y0131417D01*
G75*
G02*
X0152913Y0131998I0000000J0000581D01*
G01*
X0152913Y0133356D01*
G75*
G02*
X0153494Y0133937I0000581J0000000D01*
G01*
X0154655Y0133937D01*
G75*
G02*
X0155236Y0133356I0000000J-000581D01*
G01*
G37*
G36*
G01*
X0151417Y0133356D02*
X0151417Y0131998D01*
G75*
G02*
X0150836Y0131417I-000581J0000000D01*
G01*
X0149675Y0131417D01*
G75*
G02*
X0149094Y0131998I0000000J0000581D01*
G01*
X0149094Y0133356D01*
G75*
G02*
X0149675Y0133937I0000581J0000000D01*
G01*
X0150836Y0133937D01*
G75*
G02*
X0151417Y0133356I0000000J-000581D01*
G01*
G37*
G36*
G01*
X0203563Y0140935D02*
X0203563Y0139576D01*
G75*
G02*
X0202982Y0138996I-000581J0000000D01*
G01*
X0201820Y0138996D01*
G75*
G02*
X0201240Y0139576I0000000J0000581D01*
G01*
X0201240Y0140935D01*
G75*
G02*
X0201820Y0141515I0000581J0000000D01*
G01*
X0202982Y0141515D01*
G75*
G02*
X0203563Y0140935I0000000J-000581D01*
G01*
G37*
G36*
G01*
X0199744Y0140935D02*
X0199744Y0139576D01*
G75*
G02*
X0199163Y0138996I-000581J0000000D01*
G01*
X0198002Y0138996D01*
G75*
G02*
X0197421Y0139576I0000000J0000581D01*
G01*
X0197421Y0140935D01*
G75*
G02*
X0198002Y0141515I0000581J0000000D01*
G01*
X0199163Y0141515D01*
G75*
G02*
X0199744Y0140935I0000000J-000581D01*
G01*
G37*
G36*
G01*
X0151102Y0125482D02*
X0151102Y0124124D01*
G75*
G02*
X0150521Y0123543I-000581J0000000D01*
G01*
X0149360Y0123543D01*
G75*
G02*
X0148779Y0124124I0000000J0000581D01*
G01*
X0148779Y0125482D01*
G75*
G02*
X0149360Y0126062I0000581J0000000D01*
G01*
X0150521Y0126062D01*
G75*
G02*
X0151102Y0125482I0000000J-000581D01*
G01*
G37*
G36*
G01*
X0147283Y0125482D02*
X0147283Y0124124D01*
G75*
G02*
X0146702Y0123543I-000581J0000000D01*
G01*
X0145541Y0123543D01*
G75*
G02*
X0144960Y0124124I0000000J0000581D01*
G01*
X0144960Y0125482D01*
G75*
G02*
X0145541Y0126062I0000581J0000000D01*
G01*
X0146702Y0126062D01*
G75*
G02*
X0147283Y0125482I0000000J-000581D01*
G01*
G37*
G36*
G01*
X0139852Y0100866D02*
X0138494Y0100866D01*
G75*
G02*
X0137913Y0101446I0000000J0000581D01*
G01*
X0137913Y0102608D01*
G75*
G02*
X0138494Y0103188I0000581J0000000D01*
G01*
X0139852Y0103188D01*
G75*
G02*
X0140433Y0102608I0000000J-000581D01*
G01*
X0140433Y0101446D01*
G75*
G02*
X0139852Y0100866I-000581J0000000D01*
G01*
G37*
G36*
G01*
X0139852Y0104685D02*
X0138494Y0104685D01*
G75*
G02*
X0137913Y0105265I0000000J0000581D01*
G01*
X0137913Y0106427D01*
G75*
G02*
X0138494Y0107007I0000581J0000000D01*
G01*
X0139852Y0107007D01*
G75*
G02*
X0140433Y0106427I0000000J-000581D01*
G01*
X0140433Y0105265D01*
G75*
G02*
X0139852Y0104685I-000581J0000000D01*
G01*
G37*
G36*
G01*
X0165964Y0129419D02*
X0165964Y0128061D01*
G75*
G02*
X0165383Y0127480I-000581J0000000D01*
G01*
X0164222Y0127480D01*
G75*
G02*
X0163641Y0128061I0000000J0000581D01*
G01*
X0163641Y0129419D01*
G75*
G02*
X0164222Y0130000I0000581J0000000D01*
G01*
X0165383Y0130000D01*
G75*
G02*
X0165964Y0129419I0000000J-000581D01*
G01*
G37*
G36*
G01*
X0162145Y0129419D02*
X0162145Y0128061D01*
G75*
G02*
X0161565Y0127480I-000581J0000000D01*
G01*
X0160403Y0127480D01*
G75*
G02*
X0159822Y0128061I0000000J0000581D01*
G01*
X0159822Y0129419D01*
G75*
G02*
X0160403Y0130000I0000581J0000000D01*
G01*
X0161565Y0130000D01*
G75*
G02*
X0162145Y0129419I0000000J-000581D01*
G01*
G37*
G36*
G01*
X0167303Y0128061D02*
X0167303Y0129419D01*
G75*
G02*
X0167883Y0130000I0000581J0000000D01*
G01*
X0169045Y0130000D01*
G75*
G02*
X0169626Y0129419I0000000J-000581D01*
G01*
X0169626Y0128061D01*
G75*
G02*
X0169045Y0127480I-000581J0000000D01*
G01*
X0167883Y0127480D01*
G75*
G02*
X0167303Y0128061I0000000J0000581D01*
G01*
G37*
G36*
G01*
X0171122Y0128061D02*
X0171122Y0129419D01*
G75*
G02*
X0171702Y0130000I0000581J0000000D01*
G01*
X0172864Y0130000D01*
G75*
G02*
X0173444Y0129419I0000000J-000581D01*
G01*
X0173444Y0128061D01*
G75*
G02*
X0172864Y0127480I-000581J0000000D01*
G01*
X0171702Y0127480D01*
G75*
G02*
X0171122Y0128061I0000000J0000581D01*
G01*
G37*
G36*
G01*
X0136112Y0100866D02*
X0134753Y0100866D01*
G75*
G02*
X0134173Y0101446I0000000J0000581D01*
G01*
X0134173Y0102608D01*
G75*
G02*
X0134753Y0103188I0000581J0000000D01*
G01*
X0136112Y0103188D01*
G75*
G02*
X0136692Y0102608I0000000J-000581D01*
G01*
X0136692Y0101446D01*
G75*
G02*
X0136112Y0100866I-000581J0000000D01*
G01*
G37*
G36*
G01*
X0136112Y0104685D02*
X0134753Y0104685D01*
G75*
G02*
X0134173Y0105265I0000000J0000581D01*
G01*
X0134173Y0106427D01*
G75*
G02*
X0134753Y0107007I0000581J0000000D01*
G01*
X0136112Y0107007D01*
G75*
G02*
X0136692Y0106427I0000000J-000581D01*
G01*
X0136692Y0105265D01*
G75*
G02*
X0136112Y0104685I-000581J0000000D01*
G01*
G37*
D265*
X0125433Y0149704D03*
X0125433Y0145964D03*
X0125433Y0142224D03*
X0115118Y0142224D03*
X0115118Y0149704D03*
G36*
G01*
X0159921Y0131998D02*
X0159921Y0133356D01*
G75*
G02*
X0160502Y0133937I0000581J0000000D01*
G01*
X0161663Y0133937D01*
G75*
G02*
X0162244Y0133356I0000000J-000581D01*
G01*
X0162244Y0131998D01*
G75*
G02*
X0161663Y0131417I-000581J0000000D01*
G01*
X0160502Y0131417D01*
G75*
G02*
X0159921Y0131998I0000000J0000581D01*
G01*
G37*
G36*
G01*
X0163740Y0131998D02*
X0163740Y0133356D01*
G75*
G02*
X0164320Y0133937I0000581J0000000D01*
G01*
X0165482Y0133937D01*
G75*
G02*
X0166063Y0133356I0000000J-000581D01*
G01*
X0166063Y0131998D01*
G75*
G02*
X0165482Y0131417I-000581J0000000D01*
G01*
X0164320Y0131417D01*
G75*
G02*
X0163740Y0131998I0000000J0000581D01*
G01*
G37*
G36*
G01*
X0147332Y0136102D02*
X0145974Y0136102D01*
G75*
G02*
X0145393Y0136683I0000000J0000581D01*
G01*
X0145393Y0137844D01*
G75*
G02*
X0145974Y0138425I0000581J0000000D01*
G01*
X0147332Y0138425D01*
G75*
G02*
X0147913Y0137844I0000000J-000581D01*
G01*
X0147913Y0136683D01*
G75*
G02*
X0147332Y0136102I-000581J0000000D01*
G01*
G37*
G36*
G01*
X0147332Y0139921D02*
X0145974Y0139921D01*
G75*
G02*
X0145393Y0140501I0000000J0000581D01*
G01*
X0145393Y0141663D01*
G75*
G02*
X0145974Y0142244I0000581J0000000D01*
G01*
X0147332Y0142244D01*
G75*
G02*
X0147913Y0141663I0000000J-000581D01*
G01*
X0147913Y0140501D01*
G75*
G02*
X0147332Y0139921I-000581J0000000D01*
G01*
G37*
G36*
G01*
X0138494Y0115669D02*
X0139852Y0115669D01*
G75*
G02*
X0140433Y0115088I0000000J-000581D01*
G01*
X0140433Y0113927D01*
G75*
G02*
X0139852Y0113346I-000581J0000000D01*
G01*
X0138494Y0113346D01*
G75*
G02*
X0137913Y0113927I0000000J0000581D01*
G01*
X0137913Y0115088D01*
G75*
G02*
X0138494Y0115669I0000581J0000000D01*
G01*
G37*
G36*
G01*
X0138494Y0111850D02*
X0139852Y0111850D01*
G75*
G02*
X0140433Y0111269I0000000J-000581D01*
G01*
X0140433Y0110108D01*
G75*
G02*
X0139852Y0109527I-000581J0000000D01*
G01*
X0138494Y0109527D01*
G75*
G02*
X0137913Y0110108I0000000J0000581D01*
G01*
X0137913Y0111269D01*
G75*
G02*
X0138494Y0111850I0000581J0000000D01*
G01*
G37*
G36*
G01*
X0181614Y0116624D02*
X0181614Y0115265D01*
G75*
G02*
X0181033Y0114685I-000581J0000000D01*
G01*
X0179872Y0114685D01*
G75*
G02*
X0179291Y0115265I0000000J0000581D01*
G01*
X0179291Y0116624D01*
G75*
G02*
X0179872Y0117204I0000581J0000000D01*
G01*
X0181033Y0117204D01*
G75*
G02*
X0181614Y0116624I0000000J-000581D01*
G01*
G37*
G36*
G01*
X0177795Y0116624D02*
X0177795Y0115265D01*
G75*
G02*
X0177214Y0114685I-000581J0000000D01*
G01*
X0176053Y0114685D01*
G75*
G02*
X0175472Y0115265I0000000J0000581D01*
G01*
X0175472Y0116624D01*
G75*
G02*
X0176053Y0117204I0000581J0000000D01*
G01*
X0177214Y0117204D01*
G75*
G02*
X0177795Y0116624I0000000J-000581D01*
G01*
G37*
G36*
G01*
X0189192Y0116624D02*
X0189192Y0115265D01*
G75*
G02*
X0188612Y0114685I-000581J0000000D01*
G01*
X0187450Y0114685D01*
G75*
G02*
X0186870Y0115265I0000000J0000581D01*
G01*
X0186870Y0116624D01*
G75*
G02*
X0187450Y0117204I0000581J0000000D01*
G01*
X0188612Y0117204D01*
G75*
G02*
X0189192Y0116624I0000000J-000581D01*
G01*
G37*
G36*
G01*
X0185374Y0116624D02*
X0185374Y0115265D01*
G75*
G02*
X0184793Y0114685I-000581J0000000D01*
G01*
X0183631Y0114685D01*
G75*
G02*
X0183051Y0115265I0000000J0000581D01*
G01*
X0183051Y0116624D01*
G75*
G02*
X0183631Y0117204I0000581J0000000D01*
G01*
X0184793Y0117204D01*
G75*
G02*
X0185374Y0116624I0000000J-000581D01*
G01*
G37*
G36*
G01*
X0134753Y0115669D02*
X0136112Y0115669D01*
G75*
G02*
X0136692Y0115088I0000000J-000581D01*
G01*
X0136692Y0113927D01*
G75*
G02*
X0136112Y0113346I-000581J0000000D01*
G01*
X0134753Y0113346D01*
G75*
G02*
X0134173Y0113927I0000000J0000581D01*
G01*
X0134173Y0115088D01*
G75*
G02*
X0134753Y0115669I0000581J0000000D01*
G01*
G37*
G36*
G01*
X0134753Y0111850D02*
X0136112Y0111850D01*
G75*
G02*
X0136692Y0111269I0000000J-000581D01*
G01*
X0136692Y0110108D01*
G75*
G02*
X0136112Y0109527I-000581J0000000D01*
G01*
X0134753Y0109527D01*
G75*
G02*
X0134173Y0110108I0000000J0000581D01*
G01*
X0134173Y0111269D01*
G75*
G02*
X0134753Y0111850I0000581J0000000D01*
G01*
G37*
G36*
G01*
X0169114Y0125482D02*
X0169114Y0124124D01*
G75*
G02*
X0168533Y0123543I-000581J0000000D01*
G01*
X0167372Y0123543D01*
G75*
G02*
X0166791Y0124124I0000000J0000581D01*
G01*
X0166791Y0125482D01*
G75*
G02*
X0167372Y0126062I0000581J0000000D01*
G01*
X0168533Y0126062D01*
G75*
G02*
X0169114Y0125482I0000000J-000581D01*
G01*
G37*
G36*
G01*
X0165295Y0125482D02*
X0165295Y0124124D01*
G75*
G02*
X0164714Y0123543I-000581J0000000D01*
G01*
X0163553Y0123543D01*
G75*
G02*
X0162972Y0124124I0000000J0000581D01*
G01*
X0162972Y0125482D01*
G75*
G02*
X0163553Y0126062I0000581J0000000D01*
G01*
X0164714Y0126062D01*
G75*
G02*
X0165295Y0125482I0000000J-000581D01*
G01*
G37*
G36*
G01*
X0131013Y0115669D02*
X0132372Y0115669D01*
G75*
G02*
X0132952Y0115088I0000000J-000581D01*
G01*
X0132952Y0113927D01*
G75*
G02*
X0132372Y0113346I-000581J0000000D01*
G01*
X0131013Y0113346D01*
G75*
G02*
X0130433Y0113927I0000000J0000581D01*
G01*
X0130433Y0115088D01*
G75*
G02*
X0131013Y0115669I0000581J0000000D01*
G01*
G37*
G36*
G01*
X0131013Y0111850D02*
X0132372Y0111850D01*
G75*
G02*
X0132952Y0111269I0000000J-000581D01*
G01*
X0132952Y0110108D01*
G75*
G02*
X0132372Y0109527I-000581J0000000D01*
G01*
X0131013Y0109527D01*
G75*
G02*
X0130433Y0110108I0000000J0000581D01*
G01*
X0130433Y0111269D01*
G75*
G02*
X0131013Y0111850I0000581J0000000D01*
G01*
G37*
G36*
G01*
X0131013Y0107007D02*
X0132372Y0107007D01*
G75*
G02*
X0132952Y0106427I0000000J-000581D01*
G01*
X0132952Y0105265D01*
G75*
G02*
X0132372Y0104685I-000581J0000000D01*
G01*
X0131013Y0104685D01*
G75*
G02*
X0130433Y0105265I0000000J0000581D01*
G01*
X0130433Y0106427D01*
G75*
G02*
X0131013Y0107007I0000581J0000000D01*
G01*
G37*
G36*
G01*
X0131013Y0103188D02*
X0132372Y0103188D01*
G75*
G02*
X0132952Y0102608I0000000J-000581D01*
G01*
X0132952Y0101446D01*
G75*
G02*
X0132372Y0100866I-000581J0000000D01*
G01*
X0131013Y0100866D01*
G75*
G02*
X0130433Y0101446I0000000J0000581D01*
G01*
X0130433Y0102608D01*
G75*
G02*
X0131013Y0103188I0000581J0000000D01*
G01*
G37*
G36*
G01*
X0116200Y0112814D02*
X0116200Y0114153D01*
G75*
G02*
X0116751Y0114704I0000551J0000000D01*
G01*
X0117854Y0114704D01*
G75*
G02*
X0118405Y0114153I0000000J-000551D01*
G01*
X0118405Y0112814D01*
G75*
G02*
X0117854Y0112263I-000551J0000000D01*
G01*
X0116751Y0112263D01*
G75*
G02*
X0116200Y0112814I0000000J0000551D01*
G01*
G37*
G36*
G01*
X0119980Y0112814D02*
X0119980Y0114153D01*
G75*
G02*
X0120531Y0114704I0000551J0000000D01*
G01*
X0121633Y0114704D01*
G75*
G02*
X0122184Y0114153I0000000J-000551D01*
G01*
X0122184Y0112814D01*
G75*
G02*
X0121633Y0112263I-000551J0000000D01*
G01*
X0120531Y0112263D01*
G75*
G02*
X0119980Y0112814I0000000J0000551D01*
G01*
G37*
G36*
G01*
X0171141Y0139074D02*
X0171141Y0137618D01*
G75*
G02*
X0170610Y0137086I-000531J0000000D01*
G01*
X0169547Y0137086D01*
G75*
G02*
X0169015Y0137618I0000000J0000531D01*
G01*
X0169015Y0139074D01*
G75*
G02*
X0169547Y0139606I0000531J0000000D01*
G01*
X0170610Y0139606D01*
G75*
G02*
X0171141Y0139074I0000000J-000531D01*
G01*
G37*
G36*
G01*
X0167126Y0139074D02*
X0167126Y0137618D01*
G75*
G02*
X0166594Y0137086I-000531J0000000D01*
G01*
X0165531Y0137086D01*
G75*
G02*
X0165000Y0137618I0000000J0000531D01*
G01*
X0165000Y0139074D01*
G75*
G02*
X0165531Y0139606I0000531J0000000D01*
G01*
X0166594Y0139606D01*
G75*
G02*
X0167126Y0139074I0000000J-000531D01*
G01*
G37*
G36*
G01*
X0110413Y0124541D02*
X0108956Y0124541D01*
G75*
G02*
X0108425Y0125073I0000000J0000531D01*
G01*
X0108425Y0126136D01*
G75*
G02*
X0108956Y0126667I0000531J0000000D01*
G01*
X0110413Y0126667D01*
G75*
G02*
X0110944Y0126136I0000000J-000531D01*
G01*
X0110944Y0125073D01*
G75*
G02*
X0110413Y0124541I-000531J0000000D01*
G01*
G37*
G36*
G01*
X0110413Y0128557D02*
X0108956Y0128557D01*
G75*
G02*
X0108425Y0129089I0000000J0000531D01*
G01*
X0108425Y0130152D01*
G75*
G02*
X0108956Y0130683I0000531J0000000D01*
G01*
X0110413Y0130683D01*
G75*
G02*
X0110944Y0130152I0000000J-000531D01*
G01*
X0110944Y0129089D01*
G75*
G02*
X0110413Y0128557I-000531J0000000D01*
G01*
G37*
G36*
G01*
X0111023Y0100590D02*
X0111023Y0101771D01*
G75*
G02*
X0111614Y0102362I0000591J0000000D01*
G01*
X0116240Y0102362D01*
G75*
G02*
X0116830Y0101771I0000000J-000591D01*
G01*
X0116830Y0100590D01*
G75*
G02*
X0116240Y0100000I-000591J0000000D01*
G01*
X0111614Y0100000D01*
G75*
G02*
X0111023Y0100590I0000000J0000591D01*
G01*
G37*
G36*
G01*
X0111023Y0108070D02*
X0111023Y0109251D01*
G75*
G02*
X0111614Y0109842I0000591J0000000D01*
G01*
X0116240Y0109842D01*
G75*
G02*
X0116830Y0109251I0000000J-000591D01*
G01*
X0116830Y0108070D01*
G75*
G02*
X0116240Y0107480I-000591J0000000D01*
G01*
X0111614Y0107480D01*
G75*
G02*
X0111023Y0108070I0000000J0000591D01*
G01*
G37*
G36*
G01*
X0118405Y0104330D02*
X0118405Y0105511D01*
G75*
G02*
X0118996Y0106102I0000591J0000000D01*
G01*
X0123622Y0106102D01*
G75*
G02*
X0124212Y0105511I0000000J-000591D01*
G01*
X0124212Y0104330D01*
G75*
G02*
X0123622Y0103740I-000591J0000000D01*
G01*
X0118996Y0103740D01*
G75*
G02*
X0118405Y0104330I0000000J0000591D01*
G01*
G37*
G36*
G01*
X0108976Y0138522D02*
X0110315Y0138522D01*
G75*
G02*
X0110866Y0137970I0000000J-000551D01*
G01*
X0110866Y0136868D01*
G75*
G02*
X0110315Y0136317I-000551J0000000D01*
G01*
X0108976Y0136317D01*
G75*
G02*
X0108425Y0136868I0000000J0000551D01*
G01*
X0108425Y0137970D01*
G75*
G02*
X0108976Y0138522I0000551J0000000D01*
G01*
G37*
G36*
G01*
X0108976Y0134742D02*
X0110315Y0134742D01*
G75*
G02*
X0110866Y0134191I0000000J-000551D01*
G01*
X0110866Y0133089D01*
G75*
G02*
X0110315Y0132537I-000551J0000000D01*
G01*
X0108976Y0132537D01*
G75*
G02*
X0108425Y0133089I0000000J0000551D01*
G01*
X0108425Y0134191D01*
G75*
G02*
X0108976Y0134742I0000551J0000000D01*
G01*
G37*
G36*
G01*
X0139763Y0135451D02*
X0139763Y0134270D01*
G75*
G02*
X0139173Y0133679I-000591J0000000D01*
G01*
X0133464Y0133679D01*
G75*
G02*
X0132874Y0134270I0000000J0000591D01*
G01*
X0132874Y0135451D01*
G75*
G02*
X0133464Y0136041I0000591J0000000D01*
G01*
X0139173Y0136041D01*
G75*
G02*
X0139763Y0135451I0000000J-000591D01*
G01*
G37*
G36*
G01*
X0139763Y0130451D02*
X0139763Y0129270D01*
G75*
G02*
X0139173Y0128679I-000591J0000000D01*
G01*
X0133464Y0128679D01*
G75*
G02*
X0132874Y0129270I0000000J0000591D01*
G01*
X0132874Y0130451D01*
G75*
G02*
X0133464Y0131041I0000591J0000000D01*
G01*
X0139173Y0131041D01*
G75*
G02*
X0139763Y0130451I0000000J-000591D01*
G01*
G37*
G36*
G01*
X0139763Y0125451D02*
X0139763Y0124270D01*
G75*
G02*
X0139173Y0123679I-000591J0000000D01*
G01*
X0133464Y0123679D01*
G75*
G02*
X0132874Y0124270I0000000J0000591D01*
G01*
X0132874Y0125451D01*
G75*
G02*
X0133464Y0126041I0000591J0000000D01*
G01*
X0139173Y0126041D01*
G75*
G02*
X0139763Y0125451I0000000J-000591D01*
G01*
G37*
G36*
G01*
X0139763Y0120451D02*
X0139763Y0119270D01*
G75*
G02*
X0139173Y0118679I-000591J0000000D01*
G01*
X0133464Y0118679D01*
G75*
G02*
X0132874Y0119270I0000000J0000591D01*
G01*
X0132874Y0120451D01*
G75*
G02*
X0133464Y0121041I0000591J0000000D01*
G01*
X0139173Y0121041D01*
G75*
G02*
X0139763Y0120451I0000000J-000591D01*
G01*
G37*
G36*
G01*
X0119488Y0120451D02*
X0119488Y0119270D01*
G75*
G02*
X0118897Y0118679I-000591J0000000D01*
G01*
X0113189Y0118679D01*
G75*
G02*
X0112598Y0119270I0000000J0000591D01*
G01*
X0112598Y0120451D01*
G75*
G02*
X0113189Y0121041I0000591J0000000D01*
G01*
X0118897Y0121041D01*
G75*
G02*
X0119488Y0120451I0000000J-000591D01*
G01*
G37*
G36*
G01*
X0119488Y0125451D02*
X0119488Y0124270D01*
G75*
G02*
X0118897Y0123679I-000591J0000000D01*
G01*
X0113189Y0123679D01*
G75*
G02*
X0112598Y0124270I0000000J0000591D01*
G01*
X0112598Y0125451D01*
G75*
G02*
X0113189Y0126041I0000591J0000000D01*
G01*
X0118897Y0126041D01*
G75*
G02*
X0119488Y0125451I0000000J-000591D01*
G01*
G37*
G36*
G01*
X0119488Y0130451D02*
X0119488Y0129270D01*
G75*
G02*
X0118897Y0128679I-000591J0000000D01*
G01*
X0113189Y0128679D01*
G75*
G02*
X0112598Y0129270I0000000J0000591D01*
G01*
X0112598Y0130451D01*
G75*
G02*
X0113189Y0131041I0000591J0000000D01*
G01*
X0118897Y0131041D01*
G75*
G02*
X0119488Y0130451I0000000J-000591D01*
G01*
G37*
G36*
G01*
X0119488Y0135451D02*
X0119488Y0134270D01*
G75*
G02*
X0118897Y0133679I-000591J0000000D01*
G01*
X0113189Y0133679D01*
G75*
G02*
X0112598Y0134270I0000000J0000591D01*
G01*
X0112598Y0135451D01*
G75*
G02*
X0113189Y0136041I0000591J0000000D01*
G01*
X0118897Y0136041D01*
G75*
G02*
X0119488Y0135451I0000000J-000591D01*
G01*
G37*
X0390846Y0445768D02*
%LPD*%
G01*
G36*
G01*
X0380216Y0428603D02*
X0383287Y0428603D01*
G75*
G02*
X0383563Y0428327I0000000J-000276D01*
G01*
X0383563Y0426122D01*
G75*
G02*
X0383287Y0425847I-000276J0000000D01*
G01*
X0380216Y0425847D01*
G75*
G02*
X0379940Y0426122I0000000J0000276D01*
G01*
X0379940Y0428327D01*
G75*
G02*
X0380216Y0428603I0000276J0000000D01*
G01*
G37*
G36*
G01*
X0380216Y0422303D02*
X0383287Y0422303D01*
G75*
G02*
X0383563Y0422028I0000000J-000276D01*
G01*
X0383563Y0419823D01*
G75*
G02*
X0383287Y0419548I-000276J0000000D01*
G01*
X0380216Y0419548D01*
G75*
G02*
X0379940Y0419823I0000000J0000276D01*
G01*
X0379940Y0422028D01*
G75*
G02*
X0380216Y0422303I0000276J0000000D01*
G01*
G37*
G36*
G01*
X0383287Y0407737D02*
X0380216Y0407737D01*
G75*
G02*
X0379940Y0408012I0000000J0000276D01*
G01*
X0379940Y0410217D01*
G75*
G02*
X0380216Y0410492I0000276J0000000D01*
G01*
X0383287Y0410492D01*
G75*
G02*
X0383563Y0410217I0000000J-000276D01*
G01*
X0383563Y0408012D01*
G75*
G02*
X0383287Y0407737I-000276J0000000D01*
G01*
G37*
G36*
G01*
X0383287Y0414036D02*
X0380216Y0414036D01*
G75*
G02*
X0379940Y0414311I0000000J0000276D01*
G01*
X0379940Y0416516D01*
G75*
G02*
X0380216Y0416792I0000276J0000000D01*
G01*
X0383287Y0416792D01*
G75*
G02*
X0383563Y0416516I0000000J-000276D01*
G01*
X0383563Y0414311D01*
G75*
G02*
X0383287Y0414036I-000276J0000000D01*
G01*
G37*
G36*
G01*
X0364035Y0410591D02*
X0364035Y0414725D01*
G75*
G02*
X0364429Y0415118I0000394J0000000D01*
G01*
X0367578Y0415118D01*
G75*
G02*
X0367972Y0414725I0000000J-000394D01*
G01*
X0367972Y0410591D01*
G75*
G02*
X0367578Y0410197I-000394J0000000D01*
G01*
X0364429Y0410197D01*
G75*
G02*
X0364035Y0410591I0000000J0000394D01*
G01*
G37*
G36*
G01*
X0371909Y0410591D02*
X0371909Y0414725D01*
G75*
G02*
X0372303Y0415118I0000394J0000000D01*
G01*
X0375452Y0415118D01*
G75*
G02*
X0375846Y0414725I0000000J-000394D01*
G01*
X0375846Y0410591D01*
G75*
G02*
X0375452Y0410197I-000394J0000000D01*
G01*
X0372303Y0410197D01*
G75*
G02*
X0371909Y0410591I0000000J0000394D01*
G01*
G37*
G36*
G01*
X0360885Y0428898D02*
X0360885Y0424764D01*
G75*
G02*
X0360492Y0424370I-000394J0000000D01*
G01*
X0357342Y0424370D01*
G75*
G02*
X0356948Y0424764I0000000J0000394D01*
G01*
X0356948Y0428898D01*
G75*
G02*
X0357342Y0429292I0000394J0000000D01*
G01*
X0360492Y0429292D01*
G75*
G02*
X0360885Y0428898I0000000J-000394D01*
G01*
G37*
G36*
G01*
X0353011Y0428898D02*
X0353011Y0424764D01*
G75*
G02*
X0352618Y0424370I-000394J0000000D01*
G01*
X0349468Y0424370D01*
G75*
G02*
X0349074Y0424764I0000000J0000394D01*
G01*
X0349074Y0428898D01*
G75*
G02*
X0349468Y0429292I0000394J0000000D01*
G01*
X0352618Y0429292D01*
G75*
G02*
X0353011Y0428898I0000000J-000394D01*
G01*
G37*
G36*
G01*
X0388996Y0431103D02*
X0386318Y0431103D01*
G75*
G02*
X0385984Y0431437I0000000J0000335D01*
G01*
X0385984Y0434114D01*
G75*
G02*
X0386318Y0434449I0000335J0000000D01*
G01*
X0388996Y0434449D01*
G75*
G02*
X0389330Y0434114I0000000J-000335D01*
G01*
X0389330Y0431437D01*
G75*
G02*
X0388996Y0431103I-000335J0000000D01*
G01*
G37*
G36*
G01*
X0388996Y0437323D02*
X0386318Y0437323D01*
G75*
G02*
X0385984Y0437658I0000000J0000335D01*
G01*
X0385984Y0440335D01*
G75*
G02*
X0386318Y0440670I0000335J0000000D01*
G01*
X0388996Y0440670D01*
G75*
G02*
X0389330Y0440335I0000000J-000335D01*
G01*
X0389330Y0437658D01*
G75*
G02*
X0388996Y0437323I-000335J0000000D01*
G01*
G37*
G36*
G01*
X0344901Y0433170D02*
X0342224Y0433170D01*
G75*
G02*
X0341889Y0433504I0000000J0000335D01*
G01*
X0341889Y0436181D01*
G75*
G02*
X0342224Y0436516I0000335J0000000D01*
G01*
X0344901Y0436516D01*
G75*
G02*
X0345236Y0436181I0000000J-000335D01*
G01*
X0345236Y0433504D01*
G75*
G02*
X0344901Y0433170I-000335J0000000D01*
G01*
G37*
G36*
G01*
X0344901Y0439390D02*
X0342224Y0439390D01*
G75*
G02*
X0341889Y0439725I0000000J0000335D01*
G01*
X0341889Y0442402D01*
G75*
G02*
X0342224Y0442737I0000335J0000000D01*
G01*
X0344901Y0442737D01*
G75*
G02*
X0345236Y0442402I0000000J-000335D01*
G01*
X0345236Y0439725D01*
G75*
G02*
X0344901Y0439390I-000335J0000000D01*
G01*
G37*
G36*
G01*
X0364035Y0417677D02*
X0364035Y0421811D01*
G75*
G02*
X0364429Y0422205I0000394J0000000D01*
G01*
X0367578Y0422205D01*
G75*
G02*
X0367972Y0421811I0000000J-000394D01*
G01*
X0367972Y0417677D01*
G75*
G02*
X0367578Y0417284I-000394J0000000D01*
G01*
X0364429Y0417284D01*
G75*
G02*
X0364035Y0417677I0000000J0000394D01*
G01*
G37*
G36*
G01*
X0371909Y0417677D02*
X0371909Y0421811D01*
G75*
G02*
X0372303Y0422205I0000394J0000000D01*
G01*
X0375452Y0422205D01*
G75*
G02*
X0375846Y0421811I0000000J-000394D01*
G01*
X0375846Y0417677D01*
G75*
G02*
X0375452Y0417284I-000394J0000000D01*
G01*
X0372303Y0417284D01*
G75*
G02*
X0371909Y0417677I0000000J0000394D01*
G01*
G37*
G36*
G01*
X0360885Y0421811D02*
X0360885Y0417677D01*
G75*
G02*
X0360492Y0417284I-000394J0000000D01*
G01*
X0357342Y0417284D01*
G75*
G02*
X0356948Y0417677I0000000J0000394D01*
G01*
X0356948Y0421811D01*
G75*
G02*
X0357342Y0422205I0000394J0000000D01*
G01*
X0360492Y0422205D01*
G75*
G02*
X0360885Y0421811I0000000J-000394D01*
G01*
G37*
G36*
G01*
X0353011Y0421811D02*
X0353011Y0417677D01*
G75*
G02*
X0352618Y0417284I-000394J0000000D01*
G01*
X0349468Y0417284D01*
G75*
G02*
X0349074Y0417677I0000000J0000394D01*
G01*
X0349074Y0421811D01*
G75*
G02*
X0349468Y0422205I0000394J0000000D01*
G01*
X0352618Y0422205D01*
G75*
G02*
X0353011Y0421811I0000000J-000394D01*
G01*
G37*
G36*
G01*
X0364035Y0431851D02*
X0364035Y0435985D01*
G75*
G02*
X0364429Y0436378I0000394J0000000D01*
G01*
X0367578Y0436378D01*
G75*
G02*
X0367972Y0435985I0000000J-000394D01*
G01*
X0367972Y0431851D01*
G75*
G02*
X0367578Y0431457I-000394J0000000D01*
G01*
X0364429Y0431457D01*
G75*
G02*
X0364035Y0431851I0000000J0000394D01*
G01*
G37*
G36*
G01*
X0371909Y0431851D02*
X0371909Y0435985D01*
G75*
G02*
X0372303Y0436378I0000394J0000000D01*
G01*
X0375452Y0436378D01*
G75*
G02*
X0375846Y0435985I0000000J-000394D01*
G01*
X0375846Y0431851D01*
G75*
G02*
X0375452Y0431457I-000394J0000000D01*
G01*
X0372303Y0431457D01*
G75*
G02*
X0371909Y0431851I0000000J0000394D01*
G01*
G37*
G36*
G01*
X0360885Y0443071D02*
X0360885Y0438937D01*
G75*
G02*
X0360492Y0438544I-000394J0000000D01*
G01*
X0357342Y0438544D01*
G75*
G02*
X0356948Y0438937I0000000J0000394D01*
G01*
X0356948Y0443071D01*
G75*
G02*
X0357342Y0443465I0000394J0000000D01*
G01*
X0360492Y0443465D01*
G75*
G02*
X0360885Y0443071I0000000J-000394D01*
G01*
G37*
G36*
G01*
X0353011Y0443071D02*
X0353011Y0438937D01*
G75*
G02*
X0352618Y0438544I-000394J0000000D01*
G01*
X0349468Y0438544D01*
G75*
G02*
X0349074Y0438937I0000000J0000394D01*
G01*
X0349074Y0443071D01*
G75*
G02*
X0349468Y0443465I0000394J0000000D01*
G01*
X0352618Y0443465D01*
G75*
G02*
X0353011Y0443071I0000000J-000394D01*
G01*
G37*
G36*
G01*
X0383090Y0431103D02*
X0380413Y0431103D01*
G75*
G02*
X0380078Y0431437I0000000J0000335D01*
G01*
X0380078Y0434114D01*
G75*
G02*
X0380413Y0434449I0000335J0000000D01*
G01*
X0383090Y0434449D01*
G75*
G02*
X0383425Y0434114I0000000J-000335D01*
G01*
X0383425Y0431437D01*
G75*
G02*
X0383090Y0431103I-000335J0000000D01*
G01*
G37*
G36*
G01*
X0383090Y0437323D02*
X0380413Y0437323D01*
G75*
G02*
X0380078Y0437658I0000000J0000335D01*
G01*
X0380078Y0440335D01*
G75*
G02*
X0380413Y0440670I0000335J0000000D01*
G01*
X0383090Y0440670D01*
G75*
G02*
X0383425Y0440335I0000000J-000335D01*
G01*
X0383425Y0437658D01*
G75*
G02*
X0383090Y0437323I-000335J0000000D01*
G01*
G37*
G36*
G01*
X0364035Y0438937D02*
X0364035Y0443071D01*
G75*
G02*
X0364429Y0443465I0000394J0000000D01*
G01*
X0367578Y0443465D01*
G75*
G02*
X0367972Y0443071I0000000J-000394D01*
G01*
X0367972Y0438937D01*
G75*
G02*
X0367578Y0438544I-000394J0000000D01*
G01*
X0364429Y0438544D01*
G75*
G02*
X0364035Y0438937I0000000J0000394D01*
G01*
G37*
G36*
G01*
X0371909Y0438937D02*
X0371909Y0443071D01*
G75*
G02*
X0372303Y0443465I0000394J0000000D01*
G01*
X0375452Y0443465D01*
G75*
G02*
X0375846Y0443071I0000000J-000394D01*
G01*
X0375846Y0438937D01*
G75*
G02*
X0375452Y0438544I-000394J0000000D01*
G01*
X0372303Y0438544D01*
G75*
G02*
X0371909Y0438937I0000000J0000394D01*
G01*
G37*
G36*
G01*
X0360885Y0435985D02*
X0360885Y0431851D01*
G75*
G02*
X0360492Y0431457I-000394J0000000D01*
G01*
X0357342Y0431457D01*
G75*
G02*
X0356948Y0431851I0000000J0000394D01*
G01*
X0356948Y0435985D01*
G75*
G02*
X0357342Y0436378I0000394J0000000D01*
G01*
X0360492Y0436378D01*
G75*
G02*
X0360885Y0435985I0000000J-000394D01*
G01*
G37*
G36*
G01*
X0353011Y0435985D02*
X0353011Y0431851D01*
G75*
G02*
X0352618Y0431457I-000394J0000000D01*
G01*
X0349468Y0431457D01*
G75*
G02*
X0349074Y0431851I0000000J0000394D01*
G01*
X0349074Y0435985D01*
G75*
G02*
X0349468Y0436378I0000394J0000000D01*
G01*
X0352618Y0436378D01*
G75*
G02*
X0353011Y0435985I0000000J-000394D01*
G01*
G37*
G36*
G01*
X0360885Y0414725D02*
X0360885Y0410591D01*
G75*
G02*
X0360492Y0410197I-000394J0000000D01*
G01*
X0357342Y0410197D01*
G75*
G02*
X0356948Y0410591I0000000J0000394D01*
G01*
X0356948Y0414725D01*
G75*
G02*
X0357342Y0415118I0000394J0000000D01*
G01*
X0360492Y0415118D01*
G75*
G02*
X0360885Y0414725I0000000J-000394D01*
G01*
G37*
G36*
G01*
X0353011Y0414725D02*
X0353011Y0410591D01*
G75*
G02*
X0352618Y0410197I-000394J0000000D01*
G01*
X0349468Y0410197D01*
G75*
G02*
X0349074Y0410591I0000000J0000394D01*
G01*
X0349074Y0414725D01*
G75*
G02*
X0349468Y0415118I0000394J0000000D01*
G01*
X0352618Y0415118D01*
G75*
G02*
X0353011Y0414725I0000000J-000394D01*
G01*
G37*
G36*
G01*
X0364035Y0424764D02*
X0364035Y0428898D01*
G75*
G02*
X0364429Y0429292I0000394J0000000D01*
G01*
X0367578Y0429292D01*
G75*
G02*
X0367972Y0428898I0000000J-000394D01*
G01*
X0367972Y0424764D01*
G75*
G02*
X0367578Y0424370I-000394J0000000D01*
G01*
X0364429Y0424370D01*
G75*
G02*
X0364035Y0424764I0000000J0000394D01*
G01*
G37*
G36*
G01*
X0371909Y0424764D02*
X0371909Y0428898D01*
G75*
G02*
X0372303Y0429292I0000394J0000000D01*
G01*
X0375452Y0429292D01*
G75*
G02*
X0375846Y0428898I0000000J-000394D01*
G01*
X0375846Y0424764D01*
G75*
G02*
X0375452Y0424370I-000394J0000000D01*
G01*
X0372303Y0424370D01*
G75*
G02*
X0371909Y0424764I0000000J0000394D01*
G01*
G37*
X0226280Y0433661D02*
G01*
G75*
D507*
X0236516Y0405708D02*
D03*
X0236516Y0401771D02*
D03*
X0236516Y0416831D02*
D03*
X0236516Y0420768D02*
D03*
X0236516Y0425197D02*
D03*
X0236516Y0429134D02*
D03*
X0229233Y0405708D02*
D03*
X0229233Y0401771D02*
D03*
D491*
X0229036Y0409093D02*
D03*
X0232579Y0409093D02*
D03*
D506*
X0235749Y0412978D02*
D03*
X0229528Y0412978D02*
D03*
D490*
X0232579Y0425590D02*
D03*
X0232579Y0429133D02*
D03*
X0229036Y0417224D02*
D03*
X0229036Y0420767D02*
D03*
X0232637Y0402362D02*
D03*
X0232637Y0405905D02*
D03*
X0229036Y0429133D02*
D03*
X0229036Y0425590D02*
D03*
M02*
