G75*
G70*
%OFA0B0*%
%FSLAX25Y25*%
%IPPOS*%
%LPD*%
%AMOC8*
5,1,8,0,0,1.08239X$1,22.5*
%
%AMM11*
21,1,0.033470,0.026770,0.000000,0.000000,180.000000*
21,1,0.026770,0.033470,0.000000,0.000000,180.000000*
1,1,0.006690,-0.013390,0.013390*
1,1,0.006690,0.013390,0.013390*
1,1,0.006690,0.013390,-0.013390*
1,1,0.006690,-0.013390,-0.013390*
%
%AMM116*
21,1,0.012600,0.028980,0.000000,0.000000,270.000000*
21,1,0.010080,0.031500,0.000000,0.000000,270.000000*
1,1,0.002520,-0.014490,-0.005040*
1,1,0.002520,-0.014490,0.005040*
1,1,0.002520,0.014490,0.005040*
1,1,0.002520,0.014490,-0.005040*
%
%AMM150*
21,1,0.033470,0.026770,-0.000000,0.000000,0.000000*
21,1,0.026770,0.033470,-0.000000,0.000000,0.000000*
1,1,0.006690,0.013390,-0.013390*
1,1,0.006690,-0.013390,-0.013390*
1,1,0.006690,-0.013390,0.013390*
1,1,0.006690,0.013390,0.013390*
%
%AMM151*
21,1,0.027560,0.030710,-0.000000,0.000000,90.000000*
21,1,0.022050,0.036220,-0.000000,0.000000,90.000000*
1,1,0.005510,0.015350,0.011020*
1,1,0.005510,0.015350,-0.011020*
1,1,0.005510,-0.015350,-0.011020*
1,1,0.005510,-0.015350,0.011020*
%
%AMM153*
21,1,0.033470,0.026770,-0.000000,0.000000,270.000000*
21,1,0.026770,0.033470,-0.000000,0.000000,270.000000*
1,1,0.006690,-0.013390,-0.013390*
1,1,0.006690,-0.013390,0.013390*
1,1,0.006690,0.013390,0.013390*
1,1,0.006690,0.013390,-0.013390*
%
%AMM172*
21,1,0.035430,0.050000,-0.000000,-0.000000,90.000000*
21,1,0.028350,0.057090,-0.000000,-0.000000,90.000000*
1,1,0.007090,0.025000,0.014170*
1,1,0.007090,0.025000,-0.014170*
1,1,0.007090,-0.025000,-0.014170*
1,1,0.007090,-0.025000,0.014170*
%
%AMM173*
21,1,0.086610,0.073230,-0.000000,-0.000000,90.000000*
21,1,0.069290,0.090550,-0.000000,-0.000000,90.000000*
1,1,0.017320,0.036610,0.034650*
1,1,0.017320,0.036610,-0.034650*
1,1,0.017320,-0.036610,-0.034650*
1,1,0.017320,-0.036610,0.034650*
%
%AMM174*
21,1,0.027560,0.030710,-0.000000,-0.000000,270.000000*
21,1,0.022050,0.036220,-0.000000,-0.000000,270.000000*
1,1,0.005510,-0.015350,-0.011020*
1,1,0.005510,-0.015350,0.011020*
1,1,0.005510,0.015350,0.011020*
1,1,0.005510,0.015350,-0.011020*
%
%AMM175*
21,1,0.039370,0.049210,-0.000000,-0.000000,0.000000*
21,1,0.031500,0.057090,-0.000000,-0.000000,0.000000*
1,1,0.007870,0.015750,-0.024610*
1,1,0.007870,-0.015750,-0.024610*
1,1,0.007870,-0.015750,0.024610*
1,1,0.007870,0.015750,0.024610*
%
%AMM176*
21,1,0.023620,0.030710,-0.000000,-0.000000,270.000000*
21,1,0.018900,0.035430,-0.000000,-0.000000,270.000000*
1,1,0.004720,-0.015350,-0.009450*
1,1,0.004720,-0.015350,0.009450*
1,1,0.004720,0.015350,0.009450*
1,1,0.004720,0.015350,-0.009450*
%
%AMM177*
21,1,0.025590,0.026380,-0.000000,-0.000000,180.000000*
21,1,0.020470,0.031500,-0.000000,-0.000000,180.000000*
1,1,0.005120,-0.010240,0.013190*
1,1,0.005120,0.010240,0.013190*
1,1,0.005120,0.010240,-0.013190*
1,1,0.005120,-0.010240,-0.013190*
%
%AMM178*
21,1,0.017720,0.027950,-0.000000,-0.000000,180.000000*
21,1,0.014170,0.031500,-0.000000,-0.000000,180.000000*
1,1,0.003540,-0.007090,0.013980*
1,1,0.003540,0.007090,0.013980*
1,1,0.003540,0.007090,-0.013980*
1,1,0.003540,-0.007090,-0.013980*
%
%AMM179*
21,1,0.033470,0.026770,-0.000000,-0.000000,90.000000*
21,1,0.026770,0.033470,-0.000000,-0.000000,90.000000*
1,1,0.006690,0.013390,0.013390*
1,1,0.006690,0.013390,-0.013390*
1,1,0.006690,-0.013390,-0.013390*
1,1,0.006690,-0.013390,0.013390*
%
%AMM180*
21,1,0.027560,0.030710,-0.000000,-0.000000,180.000000*
21,1,0.022050,0.036220,-0.000000,-0.000000,180.000000*
1,1,0.005510,-0.011020,0.015350*
1,1,0.005510,0.011020,0.015350*
1,1,0.005510,0.011020,-0.015350*
1,1,0.005510,-0.011020,-0.015350*
%
%AMM181*
21,1,0.039370,0.049210,-0.000000,-0.000000,270.000000*
21,1,0.031500,0.057090,-0.000000,-0.000000,270.000000*
1,1,0.007870,-0.024610,-0.015750*
1,1,0.007870,-0.024610,0.015750*
1,1,0.007870,0.024610,0.015750*
1,1,0.007870,0.024610,-0.015750*
%
%AMM182*
21,1,0.033470,0.026770,-0.000000,-0.000000,0.000000*
21,1,0.026770,0.033470,-0.000000,-0.000000,0.000000*
1,1,0.006690,0.013390,-0.013390*
1,1,0.006690,-0.013390,-0.013390*
1,1,0.006690,-0.013390,0.013390*
1,1,0.006690,0.013390,0.013390*
%
%AMM201*
21,1,0.033470,0.026770,-0.000000,0.000000,90.000000*
21,1,0.026770,0.033470,-0.000000,0.000000,90.000000*
1,1,0.006690,0.013390,0.013390*
1,1,0.006690,0.013390,-0.013390*
1,1,0.006690,-0.013390,-0.013390*
1,1,0.006690,-0.013390,0.013390*
%
%AMM202*
21,1,0.027560,0.030710,-0.000000,0.000000,0.000000*
21,1,0.022050,0.036220,-0.000000,0.000000,0.000000*
1,1,0.005510,0.011020,-0.015350*
1,1,0.005510,-0.011020,-0.015350*
1,1,0.005510,-0.011020,0.015350*
1,1,0.005510,0.011020,0.015350*
%
%AMM208*
21,1,0.027560,0.030710,-0.000000,0.000000,270.000000*
21,1,0.022050,0.036220,-0.000000,0.000000,270.000000*
1,1,0.005510,-0.015350,-0.011020*
1,1,0.005510,-0.015350,0.011020*
1,1,0.005510,0.015350,0.011020*
1,1,0.005510,0.015350,-0.011020*
%
%AMM217*
21,1,0.035430,0.030320,-0.000000,0.000000,270.000000*
21,1,0.028350,0.037400,-0.000000,0.000000,270.000000*
1,1,0.007090,-0.015160,-0.014170*
1,1,0.007090,-0.015160,0.014170*
1,1,0.007090,0.015160,0.014170*
1,1,0.007090,0.015160,-0.014170*
%
%AMM253*
21,1,0.070870,0.036220,-0.000000,-0.000000,180.000000*
21,1,0.061810,0.045280,-0.000000,-0.000000,180.000000*
1,1,0.009060,-0.030910,0.018110*
1,1,0.009060,0.030910,0.018110*
1,1,0.009060,0.030910,-0.018110*
1,1,0.009060,-0.030910,-0.018110*
%
%AMM254*
21,1,0.027560,0.030710,-0.000000,-0.000000,90.000000*
21,1,0.022050,0.036220,-0.000000,-0.000000,90.000000*
1,1,0.005510,0.015350,0.011020*
1,1,0.005510,0.015350,-0.011020*
1,1,0.005510,-0.015350,-0.011020*
1,1,0.005510,-0.015350,0.011020*
%
%AMM255*
21,1,0.033470,0.026770,-0.000000,-0.000000,270.000000*
21,1,0.026770,0.033470,-0.000000,-0.000000,270.000000*
1,1,0.006690,-0.013390,-0.013390*
1,1,0.006690,-0.013390,0.013390*
1,1,0.006690,0.013390,0.013390*
1,1,0.006690,0.013390,-0.013390*
%
%AMM256*
21,1,0.027560,0.030710,-0.000000,-0.000000,0.000000*
21,1,0.022050,0.036220,-0.000000,-0.000000,0.000000*
1,1,0.005510,0.011020,-0.015350*
1,1,0.005510,-0.011020,-0.015350*
1,1,0.005510,-0.011020,0.015350*
1,1,0.005510,0.011020,0.015350*
%
%AMM257*
21,1,0.023620,0.030710,-0.000000,-0.000000,0.000000*
21,1,0.018900,0.035430,-0.000000,-0.000000,0.000000*
1,1,0.004720,0.009450,-0.015350*
1,1,0.004720,-0.009450,-0.015350*
1,1,0.004720,-0.009450,0.015350*
1,1,0.004720,0.009450,0.015350*
%
%AMM258*
21,1,0.027560,0.018900,-0.000000,-0.000000,0.000000*
21,1,0.022840,0.023620,-0.000000,-0.000000,0.000000*
1,1,0.004720,0.011420,-0.009450*
1,1,0.004720,-0.011420,-0.009450*
1,1,0.004720,-0.011420,0.009450*
1,1,0.004720,0.011420,0.009450*
%
%AMM259*
21,1,0.137800,0.067720,-0.000000,-0.000000,180.000000*
21,1,0.120870,0.084650,-0.000000,-0.000000,180.000000*
1,1,0.016930,-0.060430,0.033860*
1,1,0.016930,0.060430,0.033860*
1,1,0.016930,0.060430,-0.033860*
1,1,0.016930,-0.060430,-0.033860*
%
%AMM260*
21,1,0.043310,0.075980,-0.000000,-0.000000,180.000000*
21,1,0.034650,0.084650,-0.000000,-0.000000,180.000000*
1,1,0.008660,-0.017320,0.037990*
1,1,0.008660,0.017320,0.037990*
1,1,0.008660,0.017320,-0.037990*
1,1,0.008660,-0.017320,-0.037990*
%
%AMM261*
21,1,0.043310,0.075990,-0.000000,-0.000000,180.000000*
21,1,0.034650,0.084650,-0.000000,-0.000000,180.000000*
1,1,0.008660,-0.017320,0.037990*
1,1,0.008660,0.017320,0.037990*
1,1,0.008660,0.017320,-0.037990*
1,1,0.008660,-0.017320,-0.037990*
%
%AMM262*
21,1,0.039370,0.035430,-0.000000,-0.000000,90.000000*
21,1,0.031500,0.043310,-0.000000,-0.000000,90.000000*
1,1,0.007870,0.017720,0.015750*
1,1,0.007870,0.017720,-0.015750*
1,1,0.007870,-0.017720,-0.015750*
1,1,0.007870,-0.017720,0.015750*
%
%AMM263*
21,1,0.035430,0.030320,-0.000000,-0.000000,90.000000*
21,1,0.028350,0.037400,-0.000000,-0.000000,90.000000*
1,1,0.007090,0.015160,0.014170*
1,1,0.007090,0.015160,-0.014170*
1,1,0.007090,-0.015160,-0.014170*
1,1,0.007090,-0.015160,0.014170*
%
%AMM264*
21,1,0.035830,0.026770,-0.000000,-0.000000,90.000000*
21,1,0.029130,0.033470,-0.000000,-0.000000,90.000000*
1,1,0.006690,0.013390,0.014570*
1,1,0.006690,0.013390,-0.014570*
1,1,0.006690,-0.013390,-0.014570*
1,1,0.006690,-0.013390,0.014570*
%
%AMM265*
21,1,0.035430,0.030320,-0.000000,-0.000000,0.000000*
21,1,0.028350,0.037400,-0.000000,-0.000000,0.000000*
1,1,0.007090,0.014170,-0.015160*
1,1,0.007090,-0.014170,-0.015160*
1,1,0.007090,-0.014170,0.015160*
1,1,0.007090,0.014170,0.015160*
%
%AMM266*
21,1,0.025590,0.026380,-0.000000,-0.000000,90.000000*
21,1,0.020470,0.031500,-0.000000,-0.000000,90.000000*
1,1,0.005120,0.013190,0.010240*
1,1,0.005120,0.013190,-0.010240*
1,1,0.005120,-0.013190,-0.010240*
1,1,0.005120,-0.013190,0.010240*
%
%AMM267*
21,1,0.017720,0.027950,-0.000000,-0.000000,90.000000*
21,1,0.014170,0.031500,-0.000000,-0.000000,90.000000*
1,1,0.003540,0.013980,0.007090*
1,1,0.003540,0.013980,-0.007090*
1,1,0.003540,-0.013980,-0.007090*
1,1,0.003540,-0.013980,0.007090*
%
%AMM268*
21,1,0.027560,0.049610,-0.000000,-0.000000,90.000000*
21,1,0.022050,0.055120,-0.000000,-0.000000,90.000000*
1,1,0.005510,0.024800,0.011020*
1,1,0.005510,0.024800,-0.011020*
1,1,0.005510,-0.024800,-0.011020*
1,1,0.005510,-0.024800,0.011020*
%
%AMM269*
21,1,0.035830,0.026770,-0.000000,-0.000000,0.000000*
21,1,0.029130,0.033470,-0.000000,-0.000000,0.000000*
1,1,0.006690,0.014570,-0.013390*
1,1,0.006690,-0.014570,-0.013390*
1,1,0.006690,-0.014570,0.013390*
1,1,0.006690,0.014570,0.013390*
%
%AMM302*
21,1,0.035430,0.030320,-0.000000,0.000000,90.000000*
21,1,0.028350,0.037400,-0.000000,0.000000,90.000000*
1,1,0.007090,0.015160,0.014170*
1,1,0.007090,0.015160,-0.014170*
1,1,0.007090,-0.015160,-0.014170*
1,1,0.007090,-0.015160,0.014170*
%
%AMM31*
21,1,0.027560,0.030710,0.000000,0.000000,270.000000*
21,1,0.022050,0.036220,0.000000,0.000000,270.000000*
1,1,0.005510,-0.015350,-0.011020*
1,1,0.005510,-0.015350,0.011020*
1,1,0.005510,0.015350,0.011020*
1,1,0.005510,0.015350,-0.011020*
%
%AMM320*
21,1,0.033470,0.026770,-0.000000,-0.000000,180.000000*
21,1,0.026770,0.033470,-0.000000,-0.000000,180.000000*
1,1,0.006690,-0.013390,0.013390*
1,1,0.006690,0.013390,0.013390*
1,1,0.006690,0.013390,-0.013390*
1,1,0.006690,-0.013390,-0.013390*
%
%AMM321*
21,1,0.035430,0.030320,-0.000000,-0.000000,180.000000*
21,1,0.028350,0.037400,-0.000000,-0.000000,180.000000*
1,1,0.007090,-0.014170,0.015160*
1,1,0.007090,0.014170,0.015160*
1,1,0.007090,0.014170,-0.015160*
1,1,0.007090,-0.014170,-0.015160*
%
%AMM322*
21,1,0.043310,0.075980,-0.000000,-0.000000,0.000000*
21,1,0.034650,0.084650,-0.000000,-0.000000,0.000000*
1,1,0.008660,0.017320,-0.037990*
1,1,0.008660,-0.017320,-0.037990*
1,1,0.008660,-0.017320,0.037990*
1,1,0.008660,0.017320,0.037990*
%
%AMM323*
21,1,0.043310,0.075990,-0.000000,-0.000000,0.000000*
21,1,0.034650,0.084650,-0.000000,-0.000000,0.000000*
1,1,0.008660,0.017320,-0.037990*
1,1,0.008660,-0.017320,-0.037990*
1,1,0.008660,-0.017320,0.037990*
1,1,0.008660,0.017320,0.037990*
%
%AMM324*
21,1,0.137800,0.067720,-0.000000,-0.000000,0.000000*
21,1,0.120870,0.084650,-0.000000,-0.000000,0.000000*
1,1,0.016930,0.060430,-0.033860*
1,1,0.016930,-0.060430,-0.033860*
1,1,0.016930,-0.060430,0.033860*
1,1,0.016930,0.060430,0.033860*
%
%AMM325*
21,1,0.025590,0.026380,-0.000000,-0.000000,270.000000*
21,1,0.020470,0.031500,-0.000000,-0.000000,270.000000*
1,1,0.005120,-0.013190,-0.010240*
1,1,0.005120,-0.013190,0.010240*
1,1,0.005120,0.013190,0.010240*
1,1,0.005120,0.013190,-0.010240*
%
%AMM326*
21,1,0.017720,0.027950,-0.000000,-0.000000,270.000000*
21,1,0.014170,0.031500,-0.000000,-0.000000,270.000000*
1,1,0.003540,-0.013980,-0.007090*
1,1,0.003540,-0.013980,0.007090*
1,1,0.003540,0.013980,0.007090*
1,1,0.003540,0.013980,-0.007090*
%
%AMM327*
21,1,0.035830,0.026770,-0.000000,-0.000000,270.000000*
21,1,0.029130,0.033470,-0.000000,-0.000000,270.000000*
1,1,0.006690,-0.013390,-0.014570*
1,1,0.006690,-0.013390,0.014570*
1,1,0.006690,0.013390,0.014570*
1,1,0.006690,0.013390,-0.014570*
%
%AMM340*
21,1,0.035830,0.026770,-0.000000,0.000000,90.000000*
21,1,0.029130,0.033470,-0.000000,0.000000,90.000000*
1,1,0.006690,0.013390,0.014570*
1,1,0.006690,0.013390,-0.014570*
1,1,0.006690,-0.013390,-0.014570*
1,1,0.006690,-0.013390,0.014570*
%
%AMM356*
21,1,0.033470,0.026770,0.000000,-0.000000,180.000000*
21,1,0.026770,0.033470,0.000000,-0.000000,180.000000*
1,1,0.006690,-0.013390,0.013390*
1,1,0.006690,0.013390,0.013390*
1,1,0.006690,0.013390,-0.013390*
1,1,0.006690,-0.013390,-0.013390*
%
%AMM357*
21,1,0.021650,0.052760,0.000000,-0.000000,180.000000*
21,1,0.017320,0.057090,0.000000,-0.000000,180.000000*
1,1,0.004330,-0.008660,0.026380*
1,1,0.004330,0.008660,0.026380*
1,1,0.004330,0.008660,-0.026380*
1,1,0.004330,-0.008660,-0.026380*
%
%AMM358*
21,1,0.027560,0.030710,0.000000,-0.000000,90.000000*
21,1,0.022050,0.036220,0.000000,-0.000000,90.000000*
1,1,0.005510,0.015350,0.011020*
1,1,0.005510,0.015350,-0.011020*
1,1,0.005510,-0.015350,-0.011020*
1,1,0.005510,-0.015350,0.011020*
%
%AMM359*
21,1,0.027560,0.030710,0.000000,-0.000000,180.000000*
21,1,0.022050,0.036220,0.000000,-0.000000,180.000000*
1,1,0.005510,-0.011020,0.015350*
1,1,0.005510,0.011020,0.015350*
1,1,0.005510,0.011020,-0.015350*
1,1,0.005510,-0.011020,-0.015350*
%
%AMM36*
21,1,0.033470,0.026770,0.000000,0.000000,90.000000*
21,1,0.026770,0.033470,0.000000,0.000000,90.000000*
1,1,0.006690,0.013390,0.013390*
1,1,0.006690,0.013390,-0.013390*
1,1,0.006690,-0.013390,-0.013390*
1,1,0.006690,-0.013390,0.013390*
%
%AMM375*
21,1,0.035430,0.030320,-0.000000,-0.000000,270.000000*
21,1,0.028350,0.037400,-0.000000,-0.000000,270.000000*
1,1,0.007090,-0.015160,-0.014170*
1,1,0.007090,-0.015160,0.014170*
1,1,0.007090,0.015160,0.014170*
1,1,0.007090,0.015160,-0.014170*
%
%AMM376*
21,1,0.021650,0.052760,-0.000000,-0.000000,180.000000*
21,1,0.017320,0.057090,-0.000000,-0.000000,180.000000*
1,1,0.004330,-0.008660,0.026380*
1,1,0.004330,0.008660,0.026380*
1,1,0.004330,0.008660,-0.026380*
1,1,0.004330,-0.008660,-0.026380*
%
%AMM377*
21,1,0.094490,0.111020,-0.000000,-0.000000,0.000000*
21,1,0.075590,0.129920,-0.000000,-0.000000,0.000000*
1,1,0.018900,0.037800,-0.055510*
1,1,0.018900,-0.037800,-0.055510*
1,1,0.018900,-0.037800,0.055510*
1,1,0.018900,0.037800,0.055510*
%
%AMM378*
21,1,0.023620,0.018900,-0.000000,-0.000000,90.000000*
21,1,0.018900,0.023620,-0.000000,-0.000000,90.000000*
1,1,0.004720,0.009450,0.009450*
1,1,0.004720,0.009450,-0.009450*
1,1,0.004720,-0.009450,-0.009450*
1,1,0.004720,-0.009450,0.009450*
%
%AMM379*
21,1,0.035830,0.026770,-0.000000,-0.000000,180.000000*
21,1,0.029130,0.033470,-0.000000,-0.000000,180.000000*
1,1,0.006690,-0.014570,0.013390*
1,1,0.006690,0.014570,0.013390*
1,1,0.006690,0.014570,-0.013390*
1,1,0.006690,-0.014570,-0.013390*
%
%AMM380*
21,1,0.023620,0.018900,-0.000000,-0.000000,0.000000*
21,1,0.018900,0.023620,-0.000000,-0.000000,0.000000*
1,1,0.004720,0.009450,-0.009450*
1,1,0.004720,-0.009450,-0.009450*
1,1,0.004720,-0.009450,0.009450*
1,1,0.004720,0.009450,0.009450*
%
%AMM400*
21,1,0.106300,0.050390,-0.000000,-0.000000,180.000000*
21,1,0.093700,0.062990,-0.000000,-0.000000,180.000000*
1,1,0.012600,-0.046850,0.025200*
1,1,0.012600,0.046850,0.025200*
1,1,0.012600,0.046850,-0.025200*
1,1,0.012600,-0.046850,-0.025200*
%
%AMM401*
21,1,0.074800,0.083460,-0.000000,-0.000000,0.000000*
21,1,0.059840,0.098430,-0.000000,-0.000000,0.000000*
1,1,0.014960,0.029920,-0.041730*
1,1,0.014960,-0.029920,-0.041730*
1,1,0.014960,-0.029920,0.041730*
1,1,0.014960,0.029920,0.041730*
%
%AMM402*
21,1,0.122050,0.075590,-0.000000,-0.000000,90.000000*
21,1,0.103150,0.094490,-0.000000,-0.000000,90.000000*
1,1,0.018900,0.037800,0.051580*
1,1,0.018900,0.037800,-0.051580*
1,1,0.018900,-0.037800,-0.051580*
1,1,0.018900,-0.037800,0.051580*
%
%AMM403*
21,1,0.078740,0.053540,-0.000000,-0.000000,0.000000*
21,1,0.065350,0.066930,-0.000000,-0.000000,0.000000*
1,1,0.013390,0.032680,-0.026770*
1,1,0.013390,-0.032680,-0.026770*
1,1,0.013390,-0.032680,0.026770*
1,1,0.013390,0.032680,0.026770*
%
%AMM404*
21,1,0.070870,0.036220,-0.000000,-0.000000,0.000000*
21,1,0.061810,0.045280,-0.000000,-0.000000,0.000000*
1,1,0.009060,0.030910,-0.018110*
1,1,0.009060,-0.030910,-0.018110*
1,1,0.009060,-0.030910,0.018110*
1,1,0.009060,0.030910,0.018110*
%
%AMM405*
21,1,0.086610,0.073230,-0.000000,-0.000000,270.000000*
21,1,0.069290,0.090550,-0.000000,-0.000000,270.000000*
1,1,0.017320,-0.036610,-0.034650*
1,1,0.017320,-0.036610,0.034650*
1,1,0.017320,0.036610,0.034650*
1,1,0.017320,0.036610,-0.034650*
%
%AMM8*
21,1,0.033470,0.026770,0.000000,0.000000,270.000000*
21,1,0.026770,0.033470,0.000000,0.000000,270.000000*
1,1,0.006690,-0.013390,-0.013390*
1,1,0.006690,-0.013390,0.013390*
1,1,0.006690,0.013390,0.013390*
1,1,0.006690,0.013390,-0.013390*
%
%AMM82*
21,1,0.078740,0.045670,0.000000,0.000000,270.000000*
21,1,0.067320,0.057090,0.000000,0.000000,270.000000*
1,1,0.011420,-0.022840,-0.033660*
1,1,0.011420,-0.022840,0.033660*
1,1,0.011420,0.022840,0.033660*
1,1,0.011420,0.022840,-0.033660*
%
%AMM83*
21,1,0.059060,0.020470,0.000000,0.000000,270.000000*
21,1,0.053940,0.025590,0.000000,0.000000,270.000000*
1,1,0.005120,-0.010240,-0.026970*
1,1,0.005120,-0.010240,0.026970*
1,1,0.005120,0.010240,0.026970*
1,1,0.005120,0.010240,-0.026970*
%
%AMM90*
21,1,0.025590,0.026380,0.000000,0.000000,90.000000*
21,1,0.020470,0.031500,0.000000,0.000000,90.000000*
1,1,0.005120,0.013190,0.010240*
1,1,0.005120,0.013190,-0.010240*
1,1,0.005120,-0.013190,-0.010240*
1,1,0.005120,-0.013190,0.010240*
%
%AMM91*
21,1,0.017720,0.027950,0.000000,0.000000,90.000000*
21,1,0.014170,0.031500,0.000000,0.000000,90.000000*
1,1,0.003540,0.013980,0.007090*
1,1,0.003540,0.013980,-0.007090*
1,1,0.003540,-0.013980,-0.007090*
1,1,0.003540,-0.013980,0.007090*
%
%ADD118M8*%
%ADD121M11*%
%ADD145M31*%
%ADD15R,0.08661X0.04724*%
%ADD156M36*%
%ADD159O,0.05118X0.00866*%
%ADD160O,0.00866X0.05118*%
%ADD165O,0.04331X0.01181*%
%ADD168R,0.06693X0.09449*%
%ADD19R,0.03543X0.04724*%
%ADD20R,0.05157X0.02559*%
%ADD21R,0.05157X0.02362*%
%ADD216M82*%
%ADD217M83*%
%ADD229M90*%
%ADD230M91*%
%ADD231O,0.02362X0.08661*%
%ADD232O,0.08661X0.02362*%
%ADD24R,0.04724X0.03543*%
%ADD276M116*%
%ADD299O,0.08661X0.01968*%
%ADD30C,0.02362*%
%ADD304O,0.01968X0.03937*%
%ADD321M150*%
%ADD322M151*%
%ADD324M153*%
%ADD343M172*%
%ADD344M173*%
%ADD345M174*%
%ADD346M175*%
%ADD347M176*%
%ADD348M177*%
%ADD349M178*%
%ADD350M179*%
%ADD351M180*%
%ADD352M181*%
%ADD353M182*%
%ADD372O,0.00984X0.04961*%
%ADD373M201*%
%ADD374M202*%
%ADD382M208*%
%ADD393M217*%
%ADD431M253*%
%ADD432M254*%
%ADD433M255*%
%ADD434M256*%
%ADD435M257*%
%ADD436M258*%
%ADD437M259*%
%ADD438M260*%
%ADD439M261*%
%ADD440M262*%
%ADD441M263*%
%ADD442M264*%
%ADD443M265*%
%ADD444M266*%
%ADD445M267*%
%ADD446M268*%
%ADD447M269*%
%ADD480M302*%
%ADD513M320*%
%ADD514M321*%
%ADD515M322*%
%ADD516M323*%
%ADD517M324*%
%ADD518M325*%
%ADD519M326*%
%ADD520M327*%
%ADD533O,0.11221X0.04016*%
%ADD534M340*%
%ADD551M356*%
%ADD552M357*%
%ADD553M358*%
%ADD554M359*%
%ADD56R,0.01378X0.01476*%
%ADD57R,0.01476X0.01378*%
%ADD578M375*%
%ADD579M376*%
%ADD580M377*%
%ADD581M378*%
%ADD582M379*%
%ADD583M380*%
%ADD59R,0.07874X0.02559*%
%ADD611M400*%
%ADD612M401*%
%ADD613M402*%
%ADD614M403*%
%ADD615M404*%
%ADD616M405*%
%ADD65R,0.14173X0.10236*%
%ADD84C,0.03150*%
%ADD89R,0.12008X0.10827*%
%ADD90R,0.03130X0.03543*%
%ADD91O,0.00000X0.00000*%
%ADD92R,0.07677X0.04567*%
X0000000Y0000000D02*
%LPD*%
G01*
G36*
G01*
X0265157Y0495709D02*
X0265157Y0498780D01*
G75*
G02*
X0265433Y0499055I0000276J0000000D01*
G01*
X0267638Y0499055D01*
G75*
G02*
X0267913Y0498780I0000000J-000276D01*
G01*
X0267913Y0495709D01*
G75*
G02*
X0267638Y0495433I-000276J0000000D01*
G01*
X0265433Y0495433D01*
G75*
G02*
X0265157Y0495709I0000000J0000276D01*
G01*
G37*
G36*
G01*
X0271457Y0495709D02*
X0271457Y0498780D01*
G75*
G02*
X0271732Y0499055I0000276J0000000D01*
G01*
X0273937Y0499055D01*
G75*
G02*
X0274213Y0498780I0000000J-000276D01*
G01*
X0274213Y0495709D01*
G75*
G02*
X0273937Y0495433I-000276J0000000D01*
G01*
X0271732Y0495433D01*
G75*
G02*
X0271457Y0495709I0000000J0000276D01*
G01*
G37*
G36*
G01*
X0403740Y0480669D02*
X0403740Y0477598D01*
G75*
G02*
X0403465Y0477323I-000276J0000000D01*
G01*
X0401260Y0477323D01*
G75*
G02*
X0400984Y0477598I0000000J0000276D01*
G01*
X0400984Y0480669D01*
G75*
G02*
X0401260Y0480945I0000276J0000000D01*
G01*
X0403465Y0480945D01*
G75*
G02*
X0403740Y0480669I0000000J-000276D01*
G01*
G37*
G36*
G01*
X0397441Y0480669D02*
X0397441Y0477598D01*
G75*
G02*
X0397165Y0477323I-000276J0000000D01*
G01*
X0394961Y0477323D01*
G75*
G02*
X0394685Y0477598I0000000J0000276D01*
G01*
X0394685Y0480669D01*
G75*
G02*
X0394961Y0480945I0000276J0000000D01*
G01*
X0397165Y0480945D01*
G75*
G02*
X0397441Y0480669I0000000J-000276D01*
G01*
G37*
G36*
G01*
X0596752Y0375689D02*
X0596752Y0364469D01*
G75*
G02*
X0595768Y0363484I-000984J0000000D01*
G01*
X0592913Y0363484D01*
G75*
G02*
X0591929Y0364469I0000000J0000984D01*
G01*
X0591929Y0375689D01*
G75*
G02*
X0592913Y0376673I0000984J0000000D01*
G01*
X0595768Y0376673D01*
G75*
G02*
X0596752Y0375689I0000000J-000984D01*
G01*
G37*
G36*
G01*
X0573425Y0375689D02*
X0573425Y0364469D01*
G75*
G02*
X0572441Y0363484I-000984J0000000D01*
G01*
X0569587Y0363484D01*
G75*
G02*
X0568602Y0364469I0000000J0000984D01*
G01*
X0568602Y0375689D01*
G75*
G02*
X0569587Y0376673I0000984J0000000D01*
G01*
X0572441Y0376673D01*
G75*
G02*
X0573425Y0375689I0000000J-000984D01*
G01*
G37*
G36*
G01*
X0328346Y0480728D02*
X0328346Y0483445D01*
G75*
G02*
X0329252Y0484350I0000906J0000000D01*
G01*
X0334528Y0484350D01*
G75*
G02*
X0335433Y0483445I0000000J-000906D01*
G01*
X0335433Y0480728D01*
G75*
G02*
X0334528Y0479823I-000906J0000000D01*
G01*
X0329252Y0479823D01*
G75*
G02*
X0328346Y0480728I0000000J0000906D01*
G01*
G37*
G36*
G01*
X0328346Y0469311D02*
X0328346Y0472028D01*
G75*
G02*
X0329252Y0472933I0000906J0000000D01*
G01*
X0334528Y0472933D01*
G75*
G02*
X0335433Y0472028I0000000J-000906D01*
G01*
X0335433Y0469311D01*
G75*
G02*
X0334528Y0468405I-000906J0000000D01*
G01*
X0329252Y0468405D01*
G75*
G02*
X0328346Y0469311I0000000J0000906D01*
G01*
G37*
D89*
X0564272Y0352461D03*
X0564272Y0340453D03*
X0577461Y0340453D03*
X0577461Y0352461D03*
D15*
X0595669Y0337480D03*
X0595669Y0355433D03*
G36*
G01*
X0418680Y0394134D02*
X0418680Y0397205D01*
G75*
G02*
X0418956Y0397480I0000276J0000000D01*
G01*
X0421160Y0397480D01*
G75*
G02*
X0421436Y0397205I0000000J-000276D01*
G01*
X0421436Y0394134D01*
G75*
G02*
X0421160Y0393858I-000276J0000000D01*
G01*
X0418956Y0393858D01*
G75*
G02*
X0418680Y0394134I0000000J0000276D01*
G01*
G37*
G36*
G01*
X0424979Y0394134D02*
X0424979Y0397205D01*
G75*
G02*
X0425255Y0397480I0000276J0000000D01*
G01*
X0427460Y0397480D01*
G75*
G02*
X0427735Y0397205I0000000J-000276D01*
G01*
X0427735Y0394134D01*
G75*
G02*
X0427460Y0393858I-000276J0000000D01*
G01*
X0425255Y0393858D01*
G75*
G02*
X0424979Y0394134I0000000J0000276D01*
G01*
G37*
G36*
G01*
X0116929Y0325433D02*
X0116929Y0327323D01*
G75*
G02*
X0117165Y0327559I0000236J0000000D01*
G01*
X0119055Y0327559D01*
G75*
G02*
X0119291Y0327323I0000000J-000236D01*
G01*
X0119291Y0325433D01*
G75*
G02*
X0119055Y0325197I-000236J0000000D01*
G01*
X0117165Y0325197D01*
G75*
G02*
X0116929Y0325433I0000000J0000236D01*
G01*
G37*
G36*
G01*
X0116929Y0334094D02*
X0116929Y0335984D01*
G75*
G02*
X0117165Y0336220I0000236J0000000D01*
G01*
X0119055Y0336220D01*
G75*
G02*
X0119291Y0335984I0000000J-000236D01*
G01*
X0119291Y0334094D01*
G75*
G02*
X0119055Y0333858I-000236J0000000D01*
G01*
X0117165Y0333858D01*
G75*
G02*
X0116929Y0334094I0000000J0000236D01*
G01*
G37*
G36*
G01*
X0165846Y0439961D02*
X0160925Y0439961D01*
G75*
G02*
X0160531Y0440354I0000000J0000394D01*
G01*
X0160531Y0443504D01*
G75*
G02*
X0160925Y0443898I0000394J0000000D01*
G01*
X0165846Y0443898D01*
G75*
G02*
X0166240Y0443504I0000000J-000394D01*
G01*
X0166240Y0440354D01*
G75*
G02*
X0165846Y0439961I-000394J0000000D01*
G01*
G37*
G36*
G01*
X0165846Y0447441D02*
X0160925Y0447441D01*
G75*
G02*
X0160531Y0447835I0000000J0000394D01*
G01*
X0160531Y0450984D01*
G75*
G02*
X0160925Y0451378I0000394J0000000D01*
G01*
X0165846Y0451378D01*
G75*
G02*
X0166240Y0450984I0000000J-000394D01*
G01*
X0166240Y0447835D01*
G75*
G02*
X0165846Y0447441I-000394J0000000D01*
G01*
G37*
G36*
G01*
X0481693Y0060610D02*
X0479016Y0060610D01*
G75*
G02*
X0478681Y0060945I0000000J0000335D01*
G01*
X0478681Y0063622D01*
G75*
G02*
X0479016Y0063957I0000335J0000000D01*
G01*
X0481693Y0063957D01*
G75*
G02*
X0482028Y0063622I0000000J-000335D01*
G01*
X0482028Y0060945D01*
G75*
G02*
X0481693Y0060610I-000335J0000000D01*
G01*
G37*
G36*
G01*
X0481693Y0066831D02*
X0479016Y0066831D01*
G75*
G02*
X0478681Y0067165I0000000J0000335D01*
G01*
X0478681Y0069843D01*
G75*
G02*
X0479016Y0070177I0000335J0000000D01*
G01*
X0481693Y0070177D01*
G75*
G02*
X0482028Y0069843I0000000J-000335D01*
G01*
X0482028Y0067165D01*
G75*
G02*
X0481693Y0066831I-000335J0000000D01*
G01*
G37*
G36*
G01*
X0115759Y0209280D02*
X0115759Y0206210D01*
G75*
G02*
X0115484Y0205934I-000276J0000000D01*
G01*
X0113279Y0205934D01*
G75*
G02*
X0113003Y0206210I0000000J0000276D01*
G01*
X0113003Y0209280D01*
G75*
G02*
X0113279Y0209556I0000276J0000000D01*
G01*
X0115484Y0209556D01*
G75*
G02*
X0115759Y0209280I0000000J-000276D01*
G01*
G37*
G36*
G01*
X0109460Y0209280D02*
X0109460Y0206210D01*
G75*
G02*
X0109184Y0205934I-000276J0000000D01*
G01*
X0106980Y0205934D01*
G75*
G02*
X0106704Y0206210I0000000J0000276D01*
G01*
X0106704Y0209280D01*
G75*
G02*
X0106980Y0209556I0000276J0000000D01*
G01*
X0109184Y0209556D01*
G75*
G02*
X0109460Y0209280I0000000J-000276D01*
G01*
G37*
G36*
G01*
X0142224Y0439961D02*
X0137303Y0439961D01*
G75*
G02*
X0136909Y0440354I0000000J0000394D01*
G01*
X0136909Y0443504D01*
G75*
G02*
X0137303Y0443898I0000394J0000000D01*
G01*
X0142224Y0443898D01*
G75*
G02*
X0142618Y0443504I0000000J-000394D01*
G01*
X0142618Y0440354D01*
G75*
G02*
X0142224Y0439961I-000394J0000000D01*
G01*
G37*
G36*
G01*
X0142224Y0447441D02*
X0137303Y0447441D01*
G75*
G02*
X0136909Y0447835I0000000J0000394D01*
G01*
X0136909Y0450984D01*
G75*
G02*
X0137303Y0451378I0000394J0000000D01*
G01*
X0142224Y0451378D01*
G75*
G02*
X0142618Y0450984I0000000J-000394D01*
G01*
X0142618Y0447835D01*
G75*
G02*
X0142224Y0447441I-000394J0000000D01*
G01*
G37*
G36*
G01*
X0406869Y0364606D02*
X0406869Y0367677D01*
G75*
G02*
X0407145Y0367953I0000276J0000000D01*
G01*
X0409349Y0367953D01*
G75*
G02*
X0409625Y0367677I0000000J-000276D01*
G01*
X0409625Y0364606D01*
G75*
G02*
X0409349Y0364331I-000276J0000000D01*
G01*
X0407145Y0364331D01*
G75*
G02*
X0406869Y0364606I0000000J0000276D01*
G01*
G37*
G36*
G01*
X0413168Y0364606D02*
X0413168Y0367677D01*
G75*
G02*
X0413444Y0367953I0000276J0000000D01*
G01*
X0415648Y0367953D01*
G75*
G02*
X0415924Y0367677I0000000J-000276D01*
G01*
X0415924Y0364606D01*
G75*
G02*
X0415648Y0364331I-000276J0000000D01*
G01*
X0413444Y0364331D01*
G75*
G02*
X0413168Y0364606I0000000J0000276D01*
G01*
G37*
G36*
G01*
X0381791Y0410236D02*
X0386713Y0410236D01*
G75*
G02*
X0387106Y0409843I0000000J-000394D01*
G01*
X0387106Y0406693D01*
G75*
G02*
X0386713Y0406299I-000394J0000000D01*
G01*
X0381791Y0406299D01*
G75*
G02*
X0381398Y0406693I0000000J0000394D01*
G01*
X0381398Y0409843D01*
G75*
G02*
X0381791Y0410236I0000394J0000000D01*
G01*
G37*
G36*
G01*
X0381791Y0402756D02*
X0386713Y0402756D01*
G75*
G02*
X0387106Y0402362I0000000J-000394D01*
G01*
X0387106Y0399213D01*
G75*
G02*
X0386713Y0398819I-000394J0000000D01*
G01*
X0381791Y0398819D01*
G75*
G02*
X0381398Y0399213I0000000J0000394D01*
G01*
X0381398Y0402362D01*
G75*
G02*
X0381791Y0402756I0000394J0000000D01*
G01*
G37*
G36*
G01*
X0447441Y0067933D02*
X0447441Y0069114D01*
G75*
G02*
X0448031Y0069705I0000591J0000000D01*
G01*
X0454528Y0069705D01*
G75*
G02*
X0455118Y0069114I0000000J-000591D01*
G01*
X0455118Y0067933D01*
G75*
G02*
X0454528Y0067343I-000591J0000000D01*
G01*
X0448031Y0067343D01*
G75*
G02*
X0447441Y0067933I0000000J0000591D01*
G01*
G37*
G36*
G01*
X0447441Y0062933D02*
X0447441Y0064114D01*
G75*
G02*
X0448031Y0064705I0000591J0000000D01*
G01*
X0454528Y0064705D01*
G75*
G02*
X0455118Y0064114I0000000J-000591D01*
G01*
X0455118Y0062933D01*
G75*
G02*
X0454528Y0062343I-000591J0000000D01*
G01*
X0448031Y0062343D01*
G75*
G02*
X0447441Y0062933I0000000J0000591D01*
G01*
G37*
G36*
G01*
X0447441Y0057933D02*
X0447441Y0059114D01*
G75*
G02*
X0448031Y0059705I0000591J0000000D01*
G01*
X0454528Y0059705D01*
G75*
G02*
X0455118Y0059114I0000000J-000591D01*
G01*
X0455118Y0057933D01*
G75*
G02*
X0454528Y0057343I-000591J0000000D01*
G01*
X0448031Y0057343D01*
G75*
G02*
X0447441Y0057933I0000000J0000591D01*
G01*
G37*
G36*
G01*
X0447441Y0052933D02*
X0447441Y0054114D01*
G75*
G02*
X0448031Y0054705I0000591J0000000D01*
G01*
X0454528Y0054705D01*
G75*
G02*
X0455118Y0054114I0000000J-000591D01*
G01*
X0455118Y0052933D01*
G75*
G02*
X0454528Y0052343I-000591J0000000D01*
G01*
X0448031Y0052343D01*
G75*
G02*
X0447441Y0052933I0000000J0000591D01*
G01*
G37*
G36*
G01*
X0466929Y0052933D02*
X0466929Y0054114D01*
G75*
G02*
X0467520Y0054705I0000591J0000000D01*
G01*
X0474016Y0054705D01*
G75*
G02*
X0474606Y0054114I0000000J-000591D01*
G01*
X0474606Y0052933D01*
G75*
G02*
X0474016Y0052343I-000591J0000000D01*
G01*
X0467520Y0052343D01*
G75*
G02*
X0466929Y0052933I0000000J0000591D01*
G01*
G37*
G36*
G01*
X0466929Y0057933D02*
X0466929Y0059114D01*
G75*
G02*
X0467520Y0059705I0000591J0000000D01*
G01*
X0474016Y0059705D01*
G75*
G02*
X0474606Y0059114I0000000J-000591D01*
G01*
X0474606Y0057933D01*
G75*
G02*
X0474016Y0057343I-000591J0000000D01*
G01*
X0467520Y0057343D01*
G75*
G02*
X0466929Y0057933I0000000J0000591D01*
G01*
G37*
G36*
G01*
X0466929Y0062933D02*
X0466929Y0064114D01*
G75*
G02*
X0467520Y0064705I0000591J0000000D01*
G01*
X0474016Y0064705D01*
G75*
G02*
X0474606Y0064114I0000000J-000591D01*
G01*
X0474606Y0062933D01*
G75*
G02*
X0474016Y0062343I-000591J0000000D01*
G01*
X0467520Y0062343D01*
G75*
G02*
X0466929Y0062933I0000000J0000591D01*
G01*
G37*
G36*
G01*
X0466929Y0067933D02*
X0466929Y0069114D01*
G75*
G02*
X0467520Y0069705I0000591J0000000D01*
G01*
X0474016Y0069705D01*
G75*
G02*
X0474606Y0069114I0000000J-000591D01*
G01*
X0474606Y0067933D01*
G75*
G02*
X0474016Y0067343I-000591J0000000D01*
G01*
X0467520Y0067343D01*
G75*
G02*
X0466929Y0067933I0000000J0000591D01*
G01*
G37*
G36*
G01*
X0596752Y0422933D02*
X0596752Y0411713D01*
G75*
G02*
X0595768Y0410728I-000984J0000000D01*
G01*
X0592913Y0410728D01*
G75*
G02*
X0591929Y0411713I0000000J0000984D01*
G01*
X0591929Y0422933D01*
G75*
G02*
X0592913Y0423917I0000984J0000000D01*
G01*
X0595768Y0423917D01*
G75*
G02*
X0596752Y0422933I0000000J-000984D01*
G01*
G37*
G36*
G01*
X0573425Y0422933D02*
X0573425Y0411713D01*
G75*
G02*
X0572441Y0410728I-000984J0000000D01*
G01*
X0569587Y0410728D01*
G75*
G02*
X0568602Y0411713I0000000J0000984D01*
G01*
X0568602Y0422933D01*
G75*
G02*
X0569587Y0423917I0000984J0000000D01*
G01*
X0572441Y0423917D01*
G75*
G02*
X0573425Y0422933I0000000J-000984D01*
G01*
G37*
G36*
G01*
X0187402Y0351575D02*
X0190945Y0351575D01*
G75*
G02*
X0191339Y0351181I0000000J-000394D01*
G01*
X0191339Y0348031D01*
G75*
G02*
X0190945Y0347638I-000394J0000000D01*
G01*
X0187402Y0347638D01*
G75*
G02*
X0187008Y0348031I0000000J0000394D01*
G01*
X0187008Y0351181D01*
G75*
G02*
X0187402Y0351575I0000394J0000000D01*
G01*
G37*
G36*
G01*
X0187402Y0344882D02*
X0190945Y0344882D01*
G75*
G02*
X0191339Y0344488I0000000J-000394D01*
G01*
X0191339Y0341339D01*
G75*
G02*
X0190945Y0340945I-000394J0000000D01*
G01*
X0187402Y0340945D01*
G75*
G02*
X0187008Y0341339I0000000J0000394D01*
G01*
X0187008Y0344488D01*
G75*
G02*
X0187402Y0344882I0000394J0000000D01*
G01*
G37*
G36*
G01*
X0185531Y0473031D02*
X0180610Y0473031D01*
G75*
G02*
X0180217Y0473425I0000000J0000394D01*
G01*
X0180217Y0476575D01*
G75*
G02*
X0180610Y0476968I0000394J0000000D01*
G01*
X0185531Y0476968D01*
G75*
G02*
X0185925Y0476575I0000000J-000394D01*
G01*
X0185925Y0473425D01*
G75*
G02*
X0185531Y0473031I-000394J0000000D01*
G01*
G37*
G36*
G01*
X0185531Y0480512D02*
X0180610Y0480512D01*
G75*
G02*
X0180217Y0480906I0000000J0000394D01*
G01*
X0180217Y0484055D01*
G75*
G02*
X0180610Y0484449I0000394J0000000D01*
G01*
X0185531Y0484449D01*
G75*
G02*
X0185925Y0484055I0000000J-000394D01*
G01*
X0185925Y0480906D01*
G75*
G02*
X0185531Y0480512I-000394J0000000D01*
G01*
G37*
G36*
G01*
X0258858Y0371260D02*
X0262402Y0371260D01*
G75*
G02*
X0262795Y0370866I0000000J-000394D01*
G01*
X0262795Y0367717D01*
G75*
G02*
X0262402Y0367323I-000394J0000000D01*
G01*
X0258858Y0367323D01*
G75*
G02*
X0258465Y0367717I0000000J0000394D01*
G01*
X0258465Y0370866D01*
G75*
G02*
X0258858Y0371260I0000394J0000000D01*
G01*
G37*
G36*
G01*
X0258858Y0364567D02*
X0262402Y0364567D01*
G75*
G02*
X0262795Y0364173I0000000J-000394D01*
G01*
X0262795Y0361024D01*
G75*
G02*
X0262402Y0360630I-000394J0000000D01*
G01*
X0258858Y0360630D01*
G75*
G02*
X0258465Y0361024I0000000J0000394D01*
G01*
X0258465Y0364173D01*
G75*
G02*
X0258858Y0364567I0000394J0000000D01*
G01*
G37*
G36*
G01*
X0406869Y0374449D02*
X0406869Y0377520D01*
G75*
G02*
X0407145Y0377795I0000276J0000000D01*
G01*
X0409349Y0377795D01*
G75*
G02*
X0409625Y0377520I0000000J-000276D01*
G01*
X0409625Y0374449D01*
G75*
G02*
X0409349Y0374173I-000276J0000000D01*
G01*
X0407145Y0374173D01*
G75*
G02*
X0406869Y0374449I0000000J0000276D01*
G01*
G37*
G36*
G01*
X0413168Y0374449D02*
X0413168Y0377520D01*
G75*
G02*
X0413444Y0377795I0000276J0000000D01*
G01*
X0415648Y0377795D01*
G75*
G02*
X0415924Y0377520I0000000J-000276D01*
G01*
X0415924Y0374449D01*
G75*
G02*
X0415648Y0374173I-000276J0000000D01*
G01*
X0413444Y0374173D01*
G75*
G02*
X0413168Y0374449I0000000J0000276D01*
G01*
G37*
G36*
G01*
X0604764Y0382480D02*
X0607835Y0382480D01*
G75*
G02*
X0608110Y0382205I0000000J-000276D01*
G01*
X0608110Y0380000D01*
G75*
G02*
X0607835Y0379724I-000276J0000000D01*
G01*
X0604764Y0379724D01*
G75*
G02*
X0604488Y0380000I0000000J0000276D01*
G01*
X0604488Y0382205D01*
G75*
G02*
X0604764Y0382480I0000276J0000000D01*
G01*
G37*
G36*
G01*
X0604764Y0376181D02*
X0607835Y0376181D01*
G75*
G02*
X0608110Y0375906I0000000J-000276D01*
G01*
X0608110Y0373701D01*
G75*
G02*
X0607835Y0373425I-000276J0000000D01*
G01*
X0604764Y0373425D01*
G75*
G02*
X0604488Y0373701I0000000J0000276D01*
G01*
X0604488Y0375906D01*
G75*
G02*
X0604764Y0376181I0000276J0000000D01*
G01*
G37*
G36*
G01*
X0267087Y0431043D02*
X0264409Y0431043D01*
G75*
G02*
X0264075Y0431378I0000000J0000335D01*
G01*
X0264075Y0434055D01*
G75*
G02*
X0264409Y0434390I0000335J0000000D01*
G01*
X0267087Y0434390D01*
G75*
G02*
X0267421Y0434055I0000000J-000335D01*
G01*
X0267421Y0431378D01*
G75*
G02*
X0267087Y0431043I-000335J0000000D01*
G01*
G37*
G36*
G01*
X0267087Y0437264D02*
X0264409Y0437264D01*
G75*
G02*
X0264075Y0437598I0000000J0000335D01*
G01*
X0264075Y0440276D01*
G75*
G02*
X0264409Y0440610I0000335J0000000D01*
G01*
X0267087Y0440610D01*
G75*
G02*
X0267421Y0440276I0000000J-000335D01*
G01*
X0267421Y0437598D01*
G75*
G02*
X0267087Y0437264I-000335J0000000D01*
G01*
G37*
G36*
G01*
X0227362Y0371260D02*
X0230906Y0371260D01*
G75*
G02*
X0231299Y0370866I0000000J-000394D01*
G01*
X0231299Y0367717D01*
G75*
G02*
X0230906Y0367323I-000394J0000000D01*
G01*
X0227362Y0367323D01*
G75*
G02*
X0226969Y0367717I0000000J0000394D01*
G01*
X0226969Y0370866D01*
G75*
G02*
X0227362Y0371260I0000394J0000000D01*
G01*
G37*
G36*
G01*
X0227362Y0364567D02*
X0230906Y0364567D01*
G75*
G02*
X0231299Y0364173I0000000J-000394D01*
G01*
X0231299Y0361024D01*
G75*
G02*
X0230906Y0360630I-000394J0000000D01*
G01*
X0227362Y0360630D01*
G75*
G02*
X0226969Y0361024I0000000J0000394D01*
G01*
X0226969Y0364173D01*
G75*
G02*
X0227362Y0364567I0000394J0000000D01*
G01*
G37*
G36*
G01*
X0154035Y0310098D02*
X0154035Y0312736D01*
G75*
G02*
X0154291Y0312992I0000256J0000000D01*
G01*
X0156339Y0312992D01*
G75*
G02*
X0156594Y0312736I0000000J-000256D01*
G01*
X0156594Y0310098D01*
G75*
G02*
X0156339Y0309843I-000256J0000000D01*
G01*
X0154291Y0309843D01*
G75*
G02*
X0154035Y0310098I0000000J0000256D01*
G01*
G37*
G36*
G01*
X0157874Y0310020D02*
X0157874Y0312815D01*
G75*
G02*
X0158051Y0312992I0000177J0000000D01*
G01*
X0159469Y0312992D01*
G75*
G02*
X0159646Y0312815I0000000J-000177D01*
G01*
X0159646Y0310020D01*
G75*
G02*
X0159469Y0309843I-000177J0000000D01*
G01*
X0158051Y0309843D01*
G75*
G02*
X0157874Y0310020I0000000J0000177D01*
G01*
G37*
G36*
G01*
X0161024Y0310020D02*
X0161024Y0312815D01*
G75*
G02*
X0161201Y0312992I0000177J0000000D01*
G01*
X0162618Y0312992D01*
G75*
G02*
X0162795Y0312815I0000000J-000177D01*
G01*
X0162795Y0310020D01*
G75*
G02*
X0162618Y0309843I-000177J0000000D01*
G01*
X0161201Y0309843D01*
G75*
G02*
X0161024Y0310020I0000000J0000177D01*
G01*
G37*
G36*
G01*
X0164075Y0310098D02*
X0164075Y0312736D01*
G75*
G02*
X0164331Y0312992I0000256J0000000D01*
G01*
X0166378Y0312992D01*
G75*
G02*
X0166634Y0312736I0000000J-000256D01*
G01*
X0166634Y0310098D01*
G75*
G02*
X0166378Y0309843I-000256J0000000D01*
G01*
X0164331Y0309843D01*
G75*
G02*
X0164075Y0310098I0000000J0000256D01*
G01*
G37*
G36*
G01*
X0164075Y0317185D02*
X0164075Y0319823D01*
G75*
G02*
X0164331Y0320079I0000256J0000000D01*
G01*
X0166378Y0320079D01*
G75*
G02*
X0166634Y0319823I0000000J-000256D01*
G01*
X0166634Y0317185D01*
G75*
G02*
X0166378Y0316929I-000256J0000000D01*
G01*
X0164331Y0316929D01*
G75*
G02*
X0164075Y0317185I0000000J0000256D01*
G01*
G37*
G36*
G01*
X0161024Y0317106D02*
X0161024Y0319902D01*
G75*
G02*
X0161201Y0320079I0000177J0000000D01*
G01*
X0162618Y0320079D01*
G75*
G02*
X0162795Y0319902I0000000J-000177D01*
G01*
X0162795Y0317106D01*
G75*
G02*
X0162618Y0316929I-000177J0000000D01*
G01*
X0161201Y0316929D01*
G75*
G02*
X0161024Y0317106I0000000J0000177D01*
G01*
G37*
G36*
G01*
X0157874Y0317106D02*
X0157874Y0319902D01*
G75*
G02*
X0158051Y0320079I0000177J0000000D01*
G01*
X0159469Y0320079D01*
G75*
G02*
X0159646Y0319902I0000000J-000177D01*
G01*
X0159646Y0317106D01*
G75*
G02*
X0159469Y0316929I-000177J0000000D01*
G01*
X0158051Y0316929D01*
G75*
G02*
X0157874Y0317106I0000000J0000177D01*
G01*
G37*
G36*
G01*
X0154035Y0317185D02*
X0154035Y0319823D01*
G75*
G02*
X0154291Y0320079I0000256J0000000D01*
G01*
X0156339Y0320079D01*
G75*
G02*
X0156594Y0319823I0000000J-000256D01*
G01*
X0156594Y0317185D01*
G75*
G02*
X0156339Y0316929I-000256J0000000D01*
G01*
X0154291Y0316929D01*
G75*
G02*
X0154035Y0317185I0000000J0000256D01*
G01*
G37*
D19*
X0174213Y0496063D03*
X0161220Y0496063D03*
G36*
G01*
X0215453Y0440354D02*
X0210531Y0440354D01*
G75*
G02*
X0210138Y0440748I0000000J0000394D01*
G01*
X0210138Y0443898D01*
G75*
G02*
X0210531Y0444291I0000394J0000000D01*
G01*
X0215453Y0444291D01*
G75*
G02*
X0215846Y0443898I0000000J-000394D01*
G01*
X0215846Y0440748D01*
G75*
G02*
X0215453Y0440354I-000394J0000000D01*
G01*
G37*
G36*
G01*
X0215453Y0447835D02*
X0210531Y0447835D01*
G75*
G02*
X0210138Y0448228I0000000J0000394D01*
G01*
X0210138Y0451378D01*
G75*
G02*
X0210531Y0451772I0000394J0000000D01*
G01*
X0215453Y0451772D01*
G75*
G02*
X0215846Y0451378I0000000J-000394D01*
G01*
X0215846Y0448228D01*
G75*
G02*
X0215453Y0447835I-000394J0000000D01*
G01*
G37*
G36*
G01*
X0253740Y0371417D02*
X0253740Y0369528D01*
G75*
G02*
X0253504Y0369291I-000236J0000000D01*
G01*
X0251614Y0369291D01*
G75*
G02*
X0251378Y0369528I0000000J0000236D01*
G01*
X0251378Y0371417D01*
G75*
G02*
X0251614Y0371654I0000236J0000000D01*
G01*
X0253504Y0371654D01*
G75*
G02*
X0253740Y0371417I0000000J-000236D01*
G01*
G37*
G36*
G01*
X0253740Y0362756D02*
X0253740Y0360866D01*
G75*
G02*
X0253504Y0360630I-000236J0000000D01*
G01*
X0251614Y0360630D01*
G75*
G02*
X0251378Y0360866I0000000J0000236D01*
G01*
X0251378Y0362756D01*
G75*
G02*
X0251614Y0362992I0000236J0000000D01*
G01*
X0253504Y0362992D01*
G75*
G02*
X0253740Y0362756I0000000J-000236D01*
G01*
G37*
G36*
G01*
X0418680Y0374449D02*
X0418680Y0377520D01*
G75*
G02*
X0418956Y0377795I0000276J0000000D01*
G01*
X0421160Y0377795D01*
G75*
G02*
X0421436Y0377520I0000000J-000276D01*
G01*
X0421436Y0374449D01*
G75*
G02*
X0421160Y0374173I-000276J0000000D01*
G01*
X0418956Y0374173D01*
G75*
G02*
X0418680Y0374449I0000000J0000276D01*
G01*
G37*
G36*
G01*
X0424979Y0374449D02*
X0424979Y0377520D01*
G75*
G02*
X0425255Y0377795I0000276J0000000D01*
G01*
X0427460Y0377795D01*
G75*
G02*
X0427735Y0377520I0000000J-000276D01*
G01*
X0427735Y0374449D01*
G75*
G02*
X0427460Y0374173I-000276J0000000D01*
G01*
X0425255Y0374173D01*
G75*
G02*
X0424979Y0374449I0000000J0000276D01*
G01*
G37*
G36*
G01*
X0596752Y0470177D02*
X0596752Y0458957D01*
G75*
G02*
X0595768Y0457972I-000984J0000000D01*
G01*
X0592913Y0457972D01*
G75*
G02*
X0591929Y0458957I0000000J0000984D01*
G01*
X0591929Y0470177D01*
G75*
G02*
X0592913Y0471161I0000984J0000000D01*
G01*
X0595768Y0471161D01*
G75*
G02*
X0596752Y0470177I0000000J-000984D01*
G01*
G37*
G36*
G01*
X0573425Y0470177D02*
X0573425Y0458957D01*
G75*
G02*
X0572441Y0457972I-000984J0000000D01*
G01*
X0569587Y0457972D01*
G75*
G02*
X0568602Y0458957I0000000J0000984D01*
G01*
X0568602Y0470177D01*
G75*
G02*
X0569587Y0471161I0000984J0000000D01*
G01*
X0572441Y0471161D01*
G75*
G02*
X0573425Y0470177I0000000J-000984D01*
G01*
G37*
G36*
G01*
X0108661Y0351575D02*
X0112205Y0351575D01*
G75*
G02*
X0112598Y0351181I0000000J-000394D01*
G01*
X0112598Y0348031D01*
G75*
G02*
X0112205Y0347638I-000394J0000000D01*
G01*
X0108661Y0347638D01*
G75*
G02*
X0108268Y0348031I0000000J0000394D01*
G01*
X0108268Y0351181D01*
G75*
G02*
X0108661Y0351575I0000394J0000000D01*
G01*
G37*
G36*
G01*
X0108661Y0344882D02*
X0112205Y0344882D01*
G75*
G02*
X0112598Y0344488I0000000J-000394D01*
G01*
X0112598Y0341339D01*
G75*
G02*
X0112205Y0340945I-000394J0000000D01*
G01*
X0108661Y0340945D01*
G75*
G02*
X0108268Y0341339I0000000J0000394D01*
G01*
X0108268Y0344488D01*
G75*
G02*
X0108661Y0344882I0000394J0000000D01*
G01*
G37*
D20*
X0230925Y0439193D03*
X0230925Y0434193D03*
X0230925Y0429193D03*
D21*
X0230925Y0424193D03*
D20*
X0253327Y0424193D03*
X0253327Y0429193D03*
X0253327Y0434193D03*
X0253327Y0439193D03*
D90*
X0239518Y0428740D03*
X0244734Y0428740D03*
X0244734Y0434646D03*
X0239518Y0434646D03*
G36*
G01*
X0381791Y0386614D02*
X0386713Y0386614D01*
G75*
G02*
X0387106Y0386220I0000000J-000394D01*
G01*
X0387106Y0383071D01*
G75*
G02*
X0386713Y0382677I-000394J0000000D01*
G01*
X0381791Y0382677D01*
G75*
G02*
X0381398Y0383071I0000000J0000394D01*
G01*
X0381398Y0386220D01*
G75*
G02*
X0381791Y0386614I0000394J0000000D01*
G01*
G37*
G36*
G01*
X0381791Y0379134D02*
X0386713Y0379134D01*
G75*
G02*
X0387106Y0378740I0000000J-000394D01*
G01*
X0387106Y0375590D01*
G75*
G02*
X0386713Y0375197I-000394J0000000D01*
G01*
X0381791Y0375197D01*
G75*
G02*
X0381398Y0375590I0000000J0000394D01*
G01*
X0381398Y0378740D01*
G75*
G02*
X0381791Y0379134I0000394J0000000D01*
G01*
G37*
G36*
G01*
X0381043Y0073465D02*
X0381043Y0076142D01*
G75*
G02*
X0381378Y0076476I0000335J0000000D01*
G01*
X0384055Y0076476D01*
G75*
G02*
X0384390Y0076142I0000000J-000335D01*
G01*
X0384390Y0073465D01*
G75*
G02*
X0384055Y0073130I-000335J0000000D01*
G01*
X0381378Y0073130D01*
G75*
G02*
X0381043Y0073465I0000000J0000335D01*
G01*
G37*
G36*
G01*
X0387264Y0073465D02*
X0387264Y0076142D01*
G75*
G02*
X0387598Y0076476I0000335J0000000D01*
G01*
X0390276Y0076476D01*
G75*
G02*
X0390610Y0076142I0000000J-000335D01*
G01*
X0390610Y0073465D01*
G75*
G02*
X0390276Y0073130I-000335J0000000D01*
G01*
X0387598Y0073130D01*
G75*
G02*
X0387264Y0073465I0000000J0000335D01*
G01*
G37*
G36*
G01*
X0305217Y0473031D02*
X0300295Y0473031D01*
G75*
G02*
X0299902Y0473425I0000000J0000394D01*
G01*
X0299902Y0476575D01*
G75*
G02*
X0300295Y0476968I0000394J0000000D01*
G01*
X0305217Y0476968D01*
G75*
G02*
X0305610Y0476575I0000000J-000394D01*
G01*
X0305610Y0473425D01*
G75*
G02*
X0305217Y0473031I-000394J0000000D01*
G01*
G37*
G36*
G01*
X0305217Y0480512D02*
X0300295Y0480512D01*
G75*
G02*
X0299902Y0480906I0000000J0000394D01*
G01*
X0299902Y0484055D01*
G75*
G02*
X0300295Y0484449I0000394J0000000D01*
G01*
X0305217Y0484449D01*
G75*
G02*
X0305610Y0484055I0000000J-000394D01*
G01*
X0305610Y0480906D01*
G75*
G02*
X0305217Y0480512I-000394J0000000D01*
G01*
G37*
G36*
G01*
X0587047Y0254528D02*
X0590118Y0254528D01*
G75*
G02*
X0590394Y0254252I0000000J-000276D01*
G01*
X0590394Y0252047D01*
G75*
G02*
X0590118Y0251772I-000276J0000000D01*
G01*
X0587047Y0251772D01*
G75*
G02*
X0586772Y0252047I0000000J0000276D01*
G01*
X0586772Y0254252D01*
G75*
G02*
X0587047Y0254528I0000276J0000000D01*
G01*
G37*
G36*
G01*
X0587047Y0248228D02*
X0590118Y0248228D01*
G75*
G02*
X0590394Y0247953I0000000J-000276D01*
G01*
X0590394Y0245748D01*
G75*
G02*
X0590118Y0245472I-000276J0000000D01*
G01*
X0587047Y0245472D01*
G75*
G02*
X0586772Y0245748I0000000J0000276D01*
G01*
X0586772Y0247953D01*
G75*
G02*
X0587047Y0248228I0000276J0000000D01*
G01*
G37*
G36*
G01*
X0402067Y0492323D02*
X0397146Y0492323D01*
G75*
G02*
X0396752Y0492717I0000000J0000394D01*
G01*
X0396752Y0495866D01*
G75*
G02*
X0397146Y0496260I0000394J0000000D01*
G01*
X0402067Y0496260D01*
G75*
G02*
X0402461Y0495866I0000000J-000394D01*
G01*
X0402461Y0492717D01*
G75*
G02*
X0402067Y0492323I-000394J0000000D01*
G01*
G37*
G36*
G01*
X0402067Y0499803D02*
X0397146Y0499803D01*
G75*
G02*
X0396752Y0500197I0000000J0000394D01*
G01*
X0396752Y0503347D01*
G75*
G02*
X0397146Y0503740I0000394J0000000D01*
G01*
X0402067Y0503740D01*
G75*
G02*
X0402461Y0503347I0000000J-000394D01*
G01*
X0402461Y0500197D01*
G75*
G02*
X0402067Y0499803I-000394J0000000D01*
G01*
G37*
G36*
G01*
X0418680Y0403976D02*
X0418680Y0407047D01*
G75*
G02*
X0418956Y0407323I0000276J0000000D01*
G01*
X0421160Y0407323D01*
G75*
G02*
X0421436Y0407047I0000000J-000276D01*
G01*
X0421436Y0403976D01*
G75*
G02*
X0421160Y0403701I-000276J0000000D01*
G01*
X0418956Y0403701D01*
G75*
G02*
X0418680Y0403976I0000000J0000276D01*
G01*
G37*
G36*
G01*
X0424979Y0403976D02*
X0424979Y0407047D01*
G75*
G02*
X0425255Y0407323I0000276J0000000D01*
G01*
X0427460Y0407323D01*
G75*
G02*
X0427735Y0407047I0000000J-000276D01*
G01*
X0427735Y0403976D01*
G75*
G02*
X0427460Y0403701I-000276J0000000D01*
G01*
X0425255Y0403701D01*
G75*
G02*
X0424979Y0403976I0000000J0000276D01*
G01*
G37*
G36*
G01*
X0110247Y0218454D02*
X0110247Y0213572D01*
G75*
G02*
X0109736Y0213060I-000512J0000000D01*
G01*
X0105641Y0213060D01*
G75*
G02*
X0105129Y0213572I0000000J0000512D01*
G01*
X0105129Y0218454D01*
G75*
G02*
X0105641Y0218965I0000512J0000000D01*
G01*
X0109736Y0218965D01*
G75*
G02*
X0110247Y0218454I0000000J-000512D01*
G01*
G37*
G36*
G01*
X0117728Y0218454D02*
X0117728Y0213572D01*
G75*
G02*
X0117216Y0213060I-000512J0000000D01*
G01*
X0113122Y0213060D01*
G75*
G02*
X0112610Y0213572I0000000J0000512D01*
G01*
X0112610Y0218454D01*
G75*
G02*
X0113122Y0218965I0000512J0000000D01*
G01*
X0117216Y0218965D01*
G75*
G02*
X0117728Y0218454I0000000J-000512D01*
G01*
G37*
G36*
G01*
X0227603Y0499360D02*
X0229774Y0501531D01*
G75*
G02*
X0230164Y0501531I0000195J-000195D01*
G01*
X0231723Y0499972D01*
G75*
G02*
X0231723Y0499583I-000195J-000195D01*
G01*
X0229551Y0497411D01*
G75*
G02*
X0229162Y0497411I-000195J0000195D01*
G01*
X0227603Y0498970D01*
G75*
G02*
X0227603Y0499360I0000195J0000195D01*
G01*
G37*
G36*
G01*
X0232057Y0494906D02*
X0234228Y0497077D01*
G75*
G02*
X0234618Y0497077I0000195J-000195D01*
G01*
X0236177Y0495518D01*
G75*
G02*
X0236177Y0495128I-000195J-000195D01*
G01*
X0234006Y0492957D01*
G75*
G02*
X0233616Y0492957I-000195J0000195D01*
G01*
X0232057Y0494516D01*
G75*
G02*
X0232057Y0494906I0000195J0000195D01*
G01*
G37*
D24*
X0528346Y0249409D03*
X0528346Y0262402D03*
G36*
G01*
X0418680Y0413819D02*
X0418680Y0416890D01*
G75*
G02*
X0418956Y0417165I0000276J0000000D01*
G01*
X0421160Y0417165D01*
G75*
G02*
X0421436Y0416890I0000000J-000276D01*
G01*
X0421436Y0413819D01*
G75*
G02*
X0421160Y0413543I-000276J0000000D01*
G01*
X0418956Y0413543D01*
G75*
G02*
X0418680Y0413819I0000000J0000276D01*
G01*
G37*
G36*
G01*
X0424979Y0413819D02*
X0424979Y0416890D01*
G75*
G02*
X0425255Y0417165I0000276J0000000D01*
G01*
X0427460Y0417165D01*
G75*
G02*
X0427735Y0416890I0000000J-000276D01*
G01*
X0427735Y0413819D01*
G75*
G02*
X0427460Y0413543I-000276J0000000D01*
G01*
X0425255Y0413543D01*
G75*
G02*
X0424979Y0413819I0000000J0000276D01*
G01*
G37*
G36*
G01*
X0279331Y0371417D02*
X0279331Y0369528D01*
G75*
G02*
X0279094Y0369291I-000236J0000000D01*
G01*
X0277205Y0369291D01*
G75*
G02*
X0276969Y0369528I0000000J0000236D01*
G01*
X0276969Y0371417D01*
G75*
G02*
X0277205Y0371654I0000236J0000000D01*
G01*
X0279094Y0371654D01*
G75*
G02*
X0279331Y0371417I0000000J-000236D01*
G01*
G37*
G36*
G01*
X0279331Y0362756D02*
X0279331Y0360866D01*
G75*
G02*
X0279094Y0360630I-000236J0000000D01*
G01*
X0277205Y0360630D01*
G75*
G02*
X0276969Y0360866I0000000J0000236D01*
G01*
X0276969Y0362756D01*
G75*
G02*
X0277205Y0362992I0000236J0000000D01*
G01*
X0279094Y0362992D01*
G75*
G02*
X0279331Y0362756I0000000J-000236D01*
G01*
G37*
G36*
G01*
X0195374Y0445866D02*
X0190453Y0445866D01*
G75*
G02*
X0190059Y0446260I0000000J0000394D01*
G01*
X0190059Y0449409D01*
G75*
G02*
X0190453Y0449803I0000394J0000000D01*
G01*
X0195374Y0449803D01*
G75*
G02*
X0195768Y0449409I0000000J-000394D01*
G01*
X0195768Y0446260D01*
G75*
G02*
X0195374Y0445866I-000394J0000000D01*
G01*
G37*
G36*
G01*
X0195374Y0453347D02*
X0190453Y0453347D01*
G75*
G02*
X0190059Y0453740I0000000J0000394D01*
G01*
X0190059Y0456890D01*
G75*
G02*
X0190453Y0457284I0000394J0000000D01*
G01*
X0195374Y0457284D01*
G75*
G02*
X0195768Y0456890I0000000J-000394D01*
G01*
X0195768Y0453740D01*
G75*
G02*
X0195374Y0453347I-000394J0000000D01*
G01*
G37*
G36*
G01*
X0343012Y0473012D02*
X0338091Y0473012D01*
G75*
G02*
X0337697Y0473406I0000000J0000394D01*
G01*
X0337697Y0476555D01*
G75*
G02*
X0338091Y0476949I0000394J0000000D01*
G01*
X0343012Y0476949D01*
G75*
G02*
X0343406Y0476555I0000000J-000394D01*
G01*
X0343406Y0473406D01*
G75*
G02*
X0343012Y0473012I-000394J0000000D01*
G01*
G37*
G36*
G01*
X0343012Y0480492D02*
X0338091Y0480492D01*
G75*
G02*
X0337697Y0480886I0000000J0000394D01*
G01*
X0337697Y0484036D01*
G75*
G02*
X0338091Y0484429I0000394J0000000D01*
G01*
X0343012Y0484429D01*
G75*
G02*
X0343406Y0484036I0000000J-000394D01*
G01*
X0343406Y0480886D01*
G75*
G02*
X0343012Y0480492I-000394J0000000D01*
G01*
G37*
G36*
G01*
X0154035Y0439961D02*
X0149114Y0439961D01*
G75*
G02*
X0148720Y0440354I0000000J0000394D01*
G01*
X0148720Y0443504D01*
G75*
G02*
X0149114Y0443898I0000394J0000000D01*
G01*
X0154035Y0443898D01*
G75*
G02*
X0154429Y0443504I0000000J-000394D01*
G01*
X0154429Y0440354D01*
G75*
G02*
X0154035Y0439961I-000394J0000000D01*
G01*
G37*
G36*
G01*
X0154035Y0447441D02*
X0149114Y0447441D01*
G75*
G02*
X0148720Y0447835I0000000J0000394D01*
G01*
X0148720Y0450984D01*
G75*
G02*
X0149114Y0451378I0000394J0000000D01*
G01*
X0154035Y0451378D01*
G75*
G02*
X0154429Y0450984I0000000J-000394D01*
G01*
X0154429Y0447835D01*
G75*
G02*
X0154035Y0447441I-000394J0000000D01*
G01*
G37*
G36*
G01*
X0221850Y0343799D02*
X0220669Y0343799D01*
G75*
G02*
X0220079Y0344390I0000000J0000591D01*
G01*
X0220079Y0349016D01*
G75*
G02*
X0220669Y0349606I0000591J0000000D01*
G01*
X0221850Y0349606D01*
G75*
G02*
X0222441Y0349016I0000000J-000591D01*
G01*
X0222441Y0344390D01*
G75*
G02*
X0221850Y0343799I-000591J0000000D01*
G01*
G37*
G36*
G01*
X0225591Y0351181D02*
X0224409Y0351181D01*
G75*
G02*
X0223819Y0351772I0000000J0000591D01*
G01*
X0223819Y0356398D01*
G75*
G02*
X0224409Y0356988I0000591J0000000D01*
G01*
X0225591Y0356988D01*
G75*
G02*
X0226181Y0356398I0000000J-000591D01*
G01*
X0226181Y0351772D01*
G75*
G02*
X0225591Y0351181I-000591J0000000D01*
G01*
G37*
G36*
G01*
X0229331Y0343799D02*
X0228150Y0343799D01*
G75*
G02*
X0227559Y0344390I0000000J0000591D01*
G01*
X0227559Y0349016D01*
G75*
G02*
X0228150Y0349606I0000591J0000000D01*
G01*
X0229331Y0349606D01*
G75*
G02*
X0229921Y0349016I0000000J-000591D01*
G01*
X0229921Y0344390D01*
G75*
G02*
X0229331Y0343799I-000591J0000000D01*
G01*
G37*
D89*
X0577461Y0387697D03*
X0564272Y0399705D03*
X0564272Y0387697D03*
X0577461Y0399705D03*
D15*
X0595669Y0384724D03*
X0595669Y0402677D03*
G36*
G01*
X0418680Y0364606D02*
X0418680Y0367677D01*
G75*
G02*
X0418956Y0367953I0000276J0000000D01*
G01*
X0421160Y0367953D01*
G75*
G02*
X0421436Y0367677I0000000J-000276D01*
G01*
X0421436Y0364606D01*
G75*
G02*
X0421160Y0364331I-000276J0000000D01*
G01*
X0418956Y0364331D01*
G75*
G02*
X0418680Y0364606I0000000J0000276D01*
G01*
G37*
G36*
G01*
X0424979Y0364606D02*
X0424979Y0367677D01*
G75*
G02*
X0425255Y0367953I0000276J0000000D01*
G01*
X0427460Y0367953D01*
G75*
G02*
X0427735Y0367677I0000000J-000276D01*
G01*
X0427735Y0364606D01*
G75*
G02*
X0427460Y0364331I-000276J0000000D01*
G01*
X0425255Y0364331D01*
G75*
G02*
X0424979Y0364606I0000000J0000276D01*
G01*
G37*
G36*
G01*
X0272717Y0367520D02*
X0267835Y0367520D01*
G75*
G02*
X0267323Y0368031I0000000J0000512D01*
G01*
X0267323Y0372126D01*
G75*
G02*
X0267835Y0372638I0000512J0000000D01*
G01*
X0272717Y0372638D01*
G75*
G02*
X0273228Y0372126I0000000J-000512D01*
G01*
X0273228Y0368031D01*
G75*
G02*
X0272717Y0367520I-000512J0000000D01*
G01*
G37*
G36*
G01*
X0272717Y0360039D02*
X0267835Y0360039D01*
G75*
G02*
X0267323Y0360551I0000000J0000512D01*
G01*
X0267323Y0364646D01*
G75*
G02*
X0267835Y0365157I0000512J0000000D01*
G01*
X0272717Y0365157D01*
G75*
G02*
X0273228Y0364646I0000000J-000512D01*
G01*
X0273228Y0360551D01*
G75*
G02*
X0272717Y0360039I-000512J0000000D01*
G01*
G37*
G36*
G01*
X0406869Y0413819D02*
X0406869Y0416890D01*
G75*
G02*
X0407145Y0417165I0000276J0000000D01*
G01*
X0409349Y0417165D01*
G75*
G02*
X0409625Y0416890I0000000J-000276D01*
G01*
X0409625Y0413819D01*
G75*
G02*
X0409349Y0413543I-000276J0000000D01*
G01*
X0407145Y0413543D01*
G75*
G02*
X0406869Y0413819I0000000J0000276D01*
G01*
G37*
G36*
G01*
X0413168Y0413819D02*
X0413168Y0416890D01*
G75*
G02*
X0413444Y0417165I0000276J0000000D01*
G01*
X0415648Y0417165D01*
G75*
G02*
X0415924Y0416890I0000000J-000276D01*
G01*
X0415924Y0413819D01*
G75*
G02*
X0415648Y0413543I-000276J0000000D01*
G01*
X0413444Y0413543D01*
G75*
G02*
X0413168Y0413819I0000000J0000276D01*
G01*
G37*
G36*
G01*
X0418680Y0384291D02*
X0418680Y0387362D01*
G75*
G02*
X0418956Y0387638I0000276J0000000D01*
G01*
X0421160Y0387638D01*
G75*
G02*
X0421436Y0387362I0000000J-000276D01*
G01*
X0421436Y0384291D01*
G75*
G02*
X0421160Y0384016I-000276J0000000D01*
G01*
X0418956Y0384016D01*
G75*
G02*
X0418680Y0384291I0000000J0000276D01*
G01*
G37*
G36*
G01*
X0424979Y0384291D02*
X0424979Y0387362D01*
G75*
G02*
X0425255Y0387638I0000276J0000000D01*
G01*
X0427460Y0387638D01*
G75*
G02*
X0427735Y0387362I0000000J-000276D01*
G01*
X0427735Y0384291D01*
G75*
G02*
X0427460Y0384016I-000276J0000000D01*
G01*
X0425255Y0384016D01*
G75*
G02*
X0424979Y0384291I0000000J0000276D01*
G01*
G37*
G36*
G01*
X0211024Y0351575D02*
X0214567Y0351575D01*
G75*
G02*
X0214961Y0351181I0000000J-000394D01*
G01*
X0214961Y0348031D01*
G75*
G02*
X0214567Y0347638I-000394J0000000D01*
G01*
X0211024Y0347638D01*
G75*
G02*
X0210630Y0348031I0000000J0000394D01*
G01*
X0210630Y0351181D01*
G75*
G02*
X0211024Y0351575I0000394J0000000D01*
G01*
G37*
G36*
G01*
X0211024Y0344882D02*
X0214567Y0344882D01*
G75*
G02*
X0214961Y0344488I0000000J-000394D01*
G01*
X0214961Y0341339D01*
G75*
G02*
X0214567Y0340945I-000394J0000000D01*
G01*
X0211024Y0340945D01*
G75*
G02*
X0210630Y0341339I0000000J0000394D01*
G01*
X0210630Y0344488D01*
G75*
G02*
X0211024Y0344882I0000394J0000000D01*
G01*
G37*
G36*
G01*
X0561811Y0041732D02*
X0561811Y0045276D01*
G75*
G02*
X0562205Y0045669I0000394J0000000D01*
G01*
X0565354Y0045669D01*
G75*
G02*
X0565748Y0045276I0000000J-000394D01*
G01*
X0565748Y0041732D01*
G75*
G02*
X0565354Y0041339I-000394J0000000D01*
G01*
X0562205Y0041339D01*
G75*
G02*
X0561811Y0041732I0000000J0000394D01*
G01*
G37*
G36*
G01*
X0568504Y0041732D02*
X0568504Y0045276D01*
G75*
G02*
X0568898Y0045669I0000394J0000000D01*
G01*
X0572047Y0045669D01*
G75*
G02*
X0572441Y0045276I0000000J-000394D01*
G01*
X0572441Y0041732D01*
G75*
G02*
X0572047Y0041339I-000394J0000000D01*
G01*
X0568898Y0041339D01*
G75*
G02*
X0568504Y0041732I0000000J0000394D01*
G01*
G37*
G36*
G01*
X0386220Y0435433D02*
X0382480Y0435433D01*
G75*
G02*
X0381496Y0436417I0000000J0000984D01*
G01*
X0381496Y0438386D01*
G75*
G02*
X0382480Y0439370I0000984J0000000D01*
G01*
X0386220Y0439370D01*
G75*
G02*
X0387205Y0438386I0000000J-000984D01*
G01*
X0387205Y0436417D01*
G75*
G02*
X0386220Y0435433I-000984J0000000D01*
G01*
G37*
G36*
G01*
X0386220Y0442913D02*
X0382480Y0442913D01*
G75*
G02*
X0381496Y0443898I0000000J0000984D01*
G01*
X0381496Y0445866D01*
G75*
G02*
X0382480Y0446850I0000984J0000000D01*
G01*
X0386220Y0446850D01*
G75*
G02*
X0387205Y0445866I0000000J-000984D01*
G01*
X0387205Y0443898D01*
G75*
G02*
X0386220Y0442913I-000984J0000000D01*
G01*
G37*
G36*
G01*
X0528189Y0091732D02*
X0530079Y0091732D01*
G75*
G02*
X0530315Y0091496I0000000J-000236D01*
G01*
X0530315Y0089606D01*
G75*
G02*
X0530079Y0089370I-000236J0000000D01*
G01*
X0528189Y0089370D01*
G75*
G02*
X0527953Y0089606I0000000J0000236D01*
G01*
X0527953Y0091496D01*
G75*
G02*
X0528189Y0091732I0000236J0000000D01*
G01*
G37*
G36*
G01*
X0536850Y0091732D02*
X0538740Y0091732D01*
G75*
G02*
X0538976Y0091496I0000000J-000236D01*
G01*
X0538976Y0089606D01*
G75*
G02*
X0538740Y0089370I-000236J0000000D01*
G01*
X0536850Y0089370D01*
G75*
G02*
X0536614Y0089606I0000000J0000236D01*
G01*
X0536614Y0091496D01*
G75*
G02*
X0536850Y0091732I0000236J0000000D01*
G01*
G37*
G36*
G01*
X0268740Y0354921D02*
X0271811Y0354921D01*
G75*
G02*
X0272087Y0354646I0000000J-000276D01*
G01*
X0272087Y0352441D01*
G75*
G02*
X0271811Y0352165I-000276J0000000D01*
G01*
X0268740Y0352165D01*
G75*
G02*
X0268465Y0352441I0000000J0000276D01*
G01*
X0268465Y0354646D01*
G75*
G02*
X0268740Y0354921I0000276J0000000D01*
G01*
G37*
G36*
G01*
X0268740Y0348622D02*
X0271811Y0348622D01*
G75*
G02*
X0272087Y0348346I0000000J-000276D01*
G01*
X0272087Y0346142D01*
G75*
G02*
X0271811Y0345866I-000276J0000000D01*
G01*
X0268740Y0345866D01*
G75*
G02*
X0268465Y0346142I0000000J0000276D01*
G01*
X0268465Y0348346D01*
G75*
G02*
X0268740Y0348622I0000276J0000000D01*
G01*
G37*
D19*
X0124016Y0496063D03*
X0137008Y0496063D03*
G36*
G01*
X0257874Y0071181D02*
X0257874Y0078425D01*
G75*
G02*
X0258189Y0078740I0000315J0000000D01*
G01*
X0260709Y0078740D01*
G75*
G02*
X0261024Y0078425I0000000J-000315D01*
G01*
X0261024Y0071181D01*
G75*
G02*
X0260709Y0070866I-000315J0000000D01*
G01*
X0258189Y0070866D01*
G75*
G02*
X0257874Y0071181I0000000J0000315D01*
G01*
G37*
G36*
G01*
X0274409Y0071181D02*
X0274409Y0078425D01*
G75*
G02*
X0274724Y0078740I0000315J0000000D01*
G01*
X0277244Y0078740D01*
G75*
G02*
X0277559Y0078425I0000000J-000315D01*
G01*
X0277559Y0071181D01*
G75*
G02*
X0277244Y0070866I-000315J0000000D01*
G01*
X0274724Y0070866D01*
G75*
G02*
X0274409Y0071181I0000000J0000315D01*
G01*
G37*
G36*
G01*
X0237323Y0446949D02*
X0237323Y0449508D01*
G75*
G02*
X0237953Y0450138I0000630J0000000D01*
G01*
X0239213Y0450138D01*
G75*
G02*
X0239843Y0449508I0000000J-000630D01*
G01*
X0239843Y0446949D01*
G75*
G02*
X0239213Y0446319I-000630J0000000D01*
G01*
X0237953Y0446319D01*
G75*
G02*
X0237323Y0446949I0000000J0000630D01*
G01*
G37*
G36*
G01*
X0237323Y0451673D02*
X0237323Y0454232D01*
G75*
G02*
X0237953Y0454862I0000630J0000000D01*
G01*
X0239213Y0454862D01*
G75*
G02*
X0239843Y0454232I0000000J-000630D01*
G01*
X0239843Y0451673D01*
G75*
G02*
X0239213Y0451043I-000630J0000000D01*
G01*
X0237953Y0451043D01*
G75*
G02*
X0237323Y0451673I0000000J0000630D01*
G01*
G37*
G36*
G01*
X0234173Y0446949D02*
X0234173Y0449508D01*
G75*
G02*
X0234803Y0450138I0000630J0000000D01*
G01*
X0236063Y0450138D01*
G75*
G02*
X0236693Y0449508I0000000J-000630D01*
G01*
X0236693Y0446949D01*
G75*
G02*
X0236063Y0446319I-000630J0000000D01*
G01*
X0234803Y0446319D01*
G75*
G02*
X0234173Y0446949I0000000J0000630D01*
G01*
G37*
G36*
G01*
X0234173Y0451673D02*
X0234173Y0454232D01*
G75*
G02*
X0234803Y0454862I0000630J0000000D01*
G01*
X0236063Y0454862D01*
G75*
G02*
X0236693Y0454232I0000000J-000630D01*
G01*
X0236693Y0451673D01*
G75*
G02*
X0236063Y0451043I-000630J0000000D01*
G01*
X0234803Y0451043D01*
G75*
G02*
X0234173Y0451673I0000000J0000630D01*
G01*
G37*
G36*
G01*
X0229626Y0454134D02*
X0229626Y0454724D01*
G75*
G02*
X0229921Y0455020I0000295J0000000D01*
G01*
X0232677Y0455020D01*
G75*
G02*
X0232972Y0454724I0000000J-000295D01*
G01*
X0232972Y0454134D01*
G75*
G02*
X0232677Y0453839I-000295J0000000D01*
G01*
X0229921Y0453839D01*
G75*
G02*
X0229626Y0454134I0000000J0000295D01*
G01*
G37*
G36*
G01*
X0229626Y0451575D02*
X0229626Y0452165D01*
G75*
G02*
X0229921Y0452461I0000295J0000000D01*
G01*
X0232677Y0452461D01*
G75*
G02*
X0232972Y0452165I0000000J-000295D01*
G01*
X0232972Y0451575D01*
G75*
G02*
X0232677Y0451280I-000295J0000000D01*
G01*
X0229921Y0451280D01*
G75*
G02*
X0229626Y0451575I0000000J0000295D01*
G01*
G37*
G36*
G01*
X0229626Y0449016D02*
X0229626Y0449606D01*
G75*
G02*
X0229921Y0449902I0000295J0000000D01*
G01*
X0232677Y0449902D01*
G75*
G02*
X0232972Y0449606I0000000J-000295D01*
G01*
X0232972Y0449016D01*
G75*
G02*
X0232677Y0448720I-000295J0000000D01*
G01*
X0229921Y0448720D01*
G75*
G02*
X0229626Y0449016I0000000J0000295D01*
G01*
G37*
G36*
G01*
X0229626Y0446457D02*
X0229626Y0447047D01*
G75*
G02*
X0229921Y0447343I0000295J0000000D01*
G01*
X0232677Y0447343D01*
G75*
G02*
X0232972Y0447047I0000000J-000295D01*
G01*
X0232972Y0446457D01*
G75*
G02*
X0232677Y0446161I-000295J0000000D01*
G01*
X0229921Y0446161D01*
G75*
G02*
X0229626Y0446457I0000000J0000295D01*
G01*
G37*
G36*
G01*
X0241043Y0446457D02*
X0241043Y0447047D01*
G75*
G02*
X0241339Y0447343I0000295J0000000D01*
G01*
X0244094Y0447343D01*
G75*
G02*
X0244390Y0447047I0000000J-000295D01*
G01*
X0244390Y0446457D01*
G75*
G02*
X0244094Y0446161I-000295J0000000D01*
G01*
X0241339Y0446161D01*
G75*
G02*
X0241043Y0446457I0000000J0000295D01*
G01*
G37*
G36*
G01*
X0241043Y0449016D02*
X0241043Y0449606D01*
G75*
G02*
X0241339Y0449902I0000295J0000000D01*
G01*
X0244094Y0449902D01*
G75*
G02*
X0244390Y0449606I0000000J-000295D01*
G01*
X0244390Y0449016D01*
G75*
G02*
X0244094Y0448720I-000295J0000000D01*
G01*
X0241339Y0448720D01*
G75*
G02*
X0241043Y0449016I0000000J0000295D01*
G01*
G37*
G36*
G01*
X0241043Y0451575D02*
X0241043Y0452165D01*
G75*
G02*
X0241339Y0452461I0000295J0000000D01*
G01*
X0244094Y0452461D01*
G75*
G02*
X0244390Y0452165I0000000J-000295D01*
G01*
X0244390Y0451575D01*
G75*
G02*
X0244094Y0451280I-000295J0000000D01*
G01*
X0241339Y0451280D01*
G75*
G02*
X0241043Y0451575I0000000J0000295D01*
G01*
G37*
G36*
G01*
X0241043Y0454134D02*
X0241043Y0454724D01*
G75*
G02*
X0241339Y0455020I0000295J0000000D01*
G01*
X0244094Y0455020D01*
G75*
G02*
X0244390Y0454724I0000000J-000295D01*
G01*
X0244390Y0454134D01*
G75*
G02*
X0244094Y0453839I-000295J0000000D01*
G01*
X0241339Y0453839D01*
G75*
G02*
X0241043Y0454134I0000000J0000295D01*
G01*
G37*
G36*
G01*
X0589508Y0038976D02*
X0586870Y0038976D01*
G75*
G02*
X0586614Y0039232I0000000J0000256D01*
G01*
X0586614Y0041280D01*
G75*
G02*
X0586870Y0041535I0000256J0000000D01*
G01*
X0589508Y0041535D01*
G75*
G02*
X0589764Y0041280I0000000J-000256D01*
G01*
X0589764Y0039232D01*
G75*
G02*
X0589508Y0038976I-000256J0000000D01*
G01*
G37*
G36*
G01*
X0589587Y0042815D02*
X0586791Y0042815D01*
G75*
G02*
X0586614Y0042992I0000000J0000177D01*
G01*
X0586614Y0044409D01*
G75*
G02*
X0586791Y0044587I0000177J0000000D01*
G01*
X0589587Y0044587D01*
G75*
G02*
X0589764Y0044409I0000000J-000177D01*
G01*
X0589764Y0042992D01*
G75*
G02*
X0589587Y0042815I-000177J0000000D01*
G01*
G37*
G36*
G01*
X0589587Y0045965D02*
X0586791Y0045965D01*
G75*
G02*
X0586614Y0046142I0000000J0000177D01*
G01*
X0586614Y0047559D01*
G75*
G02*
X0586791Y0047736I0000177J0000000D01*
G01*
X0589587Y0047736D01*
G75*
G02*
X0589764Y0047559I0000000J-000177D01*
G01*
X0589764Y0046142D01*
G75*
G02*
X0589587Y0045965I-000177J0000000D01*
G01*
G37*
G36*
G01*
X0589508Y0049016D02*
X0586870Y0049016D01*
G75*
G02*
X0586614Y0049272I0000000J0000256D01*
G01*
X0586614Y0051319D01*
G75*
G02*
X0586870Y0051575I0000256J0000000D01*
G01*
X0589508Y0051575D01*
G75*
G02*
X0589764Y0051319I0000000J-000256D01*
G01*
X0589764Y0049272D01*
G75*
G02*
X0589508Y0049016I-000256J0000000D01*
G01*
G37*
G36*
G01*
X0582421Y0049016D02*
X0579783Y0049016D01*
G75*
G02*
X0579528Y0049272I0000000J0000256D01*
G01*
X0579528Y0051319D01*
G75*
G02*
X0579783Y0051575I0000256J0000000D01*
G01*
X0582421Y0051575D01*
G75*
G02*
X0582677Y0051319I0000000J-000256D01*
G01*
X0582677Y0049272D01*
G75*
G02*
X0582421Y0049016I-000256J0000000D01*
G01*
G37*
G36*
G01*
X0582500Y0045965D02*
X0579705Y0045965D01*
G75*
G02*
X0579528Y0046142I0000000J0000177D01*
G01*
X0579528Y0047559D01*
G75*
G02*
X0579705Y0047736I0000177J0000000D01*
G01*
X0582500Y0047736D01*
G75*
G02*
X0582677Y0047559I0000000J-000177D01*
G01*
X0582677Y0046142D01*
G75*
G02*
X0582500Y0045965I-000177J0000000D01*
G01*
G37*
G36*
G01*
X0582500Y0042815D02*
X0579705Y0042815D01*
G75*
G02*
X0579528Y0042992I0000000J0000177D01*
G01*
X0579528Y0044409D01*
G75*
G02*
X0579705Y0044587I0000177J0000000D01*
G01*
X0582500Y0044587D01*
G75*
G02*
X0582677Y0044409I0000000J-000177D01*
G01*
X0582677Y0042992D01*
G75*
G02*
X0582500Y0042815I-000177J0000000D01*
G01*
G37*
G36*
G01*
X0582421Y0038976D02*
X0579783Y0038976D01*
G75*
G02*
X0579528Y0039232I0000000J0000256D01*
G01*
X0579528Y0041280D01*
G75*
G02*
X0579783Y0041535I0000256J0000000D01*
G01*
X0582421Y0041535D01*
G75*
G02*
X0582677Y0041280I0000000J-000256D01*
G01*
X0582677Y0039232D01*
G75*
G02*
X0582421Y0038976I-000256J0000000D01*
G01*
G37*
G36*
G01*
X0234744Y0473031D02*
X0229823Y0473031D01*
G75*
G02*
X0229429Y0473425I0000000J0000394D01*
G01*
X0229429Y0476575D01*
G75*
G02*
X0229823Y0476968I0000394J0000000D01*
G01*
X0234744Y0476968D01*
G75*
G02*
X0235138Y0476575I0000000J-000394D01*
G01*
X0235138Y0473425D01*
G75*
G02*
X0234744Y0473031I-000394J0000000D01*
G01*
G37*
G36*
G01*
X0234744Y0480512D02*
X0229823Y0480512D01*
G75*
G02*
X0229429Y0480906I0000000J0000394D01*
G01*
X0229429Y0484055D01*
G75*
G02*
X0229823Y0484449I0000394J0000000D01*
G01*
X0234744Y0484449D01*
G75*
G02*
X0235138Y0484055I0000000J-000394D01*
G01*
X0235138Y0480906D01*
G75*
G02*
X0234744Y0480512I-000394J0000000D01*
G01*
G37*
G36*
G01*
X0406869Y0403976D02*
X0406869Y0407047D01*
G75*
G02*
X0407145Y0407323I0000276J0000000D01*
G01*
X0409349Y0407323D01*
G75*
G02*
X0409625Y0407047I0000000J-000276D01*
G01*
X0409625Y0403976D01*
G75*
G02*
X0409349Y0403701I-000276J0000000D01*
G01*
X0407145Y0403701D01*
G75*
G02*
X0406869Y0403976I0000000J0000276D01*
G01*
G37*
G36*
G01*
X0413168Y0403976D02*
X0413168Y0407047D01*
G75*
G02*
X0413444Y0407323I0000276J0000000D01*
G01*
X0415648Y0407323D01*
G75*
G02*
X0415924Y0407047I0000000J-000276D01*
G01*
X0415924Y0403976D01*
G75*
G02*
X0415648Y0403701I-000276J0000000D01*
G01*
X0413444Y0403701D01*
G75*
G02*
X0413168Y0403976I0000000J0000276D01*
G01*
G37*
D89*
X0546161Y0232382D03*
X0559350Y0232382D03*
X0559350Y0220374D03*
X0546161Y0220374D03*
D15*
X0577559Y0217402D03*
X0577559Y0235354D03*
G36*
G01*
X0175689Y0445866D02*
X0170768Y0445866D01*
G75*
G02*
X0170374Y0446260I0000000J0000394D01*
G01*
X0170374Y0449409D01*
G75*
G02*
X0170768Y0449803I0000394J0000000D01*
G01*
X0175689Y0449803D01*
G75*
G02*
X0176083Y0449409I0000000J-000394D01*
G01*
X0176083Y0446260D01*
G75*
G02*
X0175689Y0445866I-000394J0000000D01*
G01*
G37*
G36*
G01*
X0175689Y0453347D02*
X0170768Y0453347D01*
G75*
G02*
X0170374Y0453740I0000000J0000394D01*
G01*
X0170374Y0456890D01*
G75*
G02*
X0170768Y0457284I0000394J0000000D01*
G01*
X0175689Y0457284D01*
G75*
G02*
X0176083Y0456890I0000000J-000394D01*
G01*
X0176083Y0453740D01*
G75*
G02*
X0175689Y0453347I-000394J0000000D01*
G01*
G37*
G36*
G01*
X0175689Y0473031D02*
X0170768Y0473031D01*
G75*
G02*
X0170374Y0473425I0000000J0000394D01*
G01*
X0170374Y0476575D01*
G75*
G02*
X0170768Y0476968I0000394J0000000D01*
G01*
X0175689Y0476968D01*
G75*
G02*
X0176083Y0476575I0000000J-000394D01*
G01*
X0176083Y0473425D01*
G75*
G02*
X0175689Y0473031I-000394J0000000D01*
G01*
G37*
G36*
G01*
X0175689Y0480512D02*
X0170768Y0480512D01*
G75*
G02*
X0170374Y0480906I0000000J0000394D01*
G01*
X0170374Y0484055D01*
G75*
G02*
X0170768Y0484449I0000394J0000000D01*
G01*
X0175689Y0484449D01*
G75*
G02*
X0176083Y0484055I0000000J-000394D01*
G01*
X0176083Y0480906D01*
G75*
G02*
X0175689Y0480512I-000394J0000000D01*
G01*
G37*
G36*
G01*
X0319291Y0480728D02*
X0319291Y0483445D01*
G75*
G02*
X0320197Y0484350I0000906J0000000D01*
G01*
X0325472Y0484350D01*
G75*
G02*
X0326378Y0483445I0000000J-000906D01*
G01*
X0326378Y0480728D01*
G75*
G02*
X0325472Y0479823I-000906J0000000D01*
G01*
X0320197Y0479823D01*
G75*
G02*
X0319291Y0480728I0000000J0000906D01*
G01*
G37*
G36*
G01*
X0319291Y0469311D02*
X0319291Y0472028D01*
G75*
G02*
X0320197Y0472933I0000906J0000000D01*
G01*
X0325472Y0472933D01*
G75*
G02*
X0326378Y0472028I0000000J-000906D01*
G01*
X0326378Y0469311D01*
G75*
G02*
X0325472Y0468405I-000906J0000000D01*
G01*
X0320197Y0468405D01*
G75*
G02*
X0319291Y0469311I0000000J0000906D01*
G01*
G37*
G36*
G01*
X0165748Y0351575D02*
X0169291Y0351575D01*
G75*
G02*
X0169685Y0351181I0000000J-000394D01*
G01*
X0169685Y0348031D01*
G75*
G02*
X0169291Y0347638I-000394J0000000D01*
G01*
X0165748Y0347638D01*
G75*
G02*
X0165354Y0348031I0000000J0000394D01*
G01*
X0165354Y0351181D01*
G75*
G02*
X0165748Y0351575I0000394J0000000D01*
G01*
G37*
G36*
G01*
X0165748Y0344882D02*
X0169291Y0344882D01*
G75*
G02*
X0169685Y0344488I0000000J-000394D01*
G01*
X0169685Y0341339D01*
G75*
G02*
X0169291Y0340945I-000394J0000000D01*
G01*
X0165748Y0340945D01*
G75*
G02*
X0165354Y0341339I0000000J0000394D01*
G01*
X0165354Y0344488D01*
G75*
G02*
X0165748Y0344882I0000394J0000000D01*
G01*
G37*
G36*
G01*
X0203150Y0351575D02*
X0206693Y0351575D01*
G75*
G02*
X0207087Y0351181I0000000J-000394D01*
G01*
X0207087Y0348031D01*
G75*
G02*
X0206693Y0347638I-000394J0000000D01*
G01*
X0203150Y0347638D01*
G75*
G02*
X0202756Y0348031I0000000J0000394D01*
G01*
X0202756Y0351181D01*
G75*
G02*
X0203150Y0351575I0000394J0000000D01*
G01*
G37*
G36*
G01*
X0203150Y0344882D02*
X0206693Y0344882D01*
G75*
G02*
X0207087Y0344488I0000000J-000394D01*
G01*
X0207087Y0341339D01*
G75*
G02*
X0206693Y0340945I-000394J0000000D01*
G01*
X0203150Y0340945D01*
G75*
G02*
X0202756Y0341339I0000000J0000394D01*
G01*
X0202756Y0344488D01*
G75*
G02*
X0203150Y0344882I0000394J0000000D01*
G01*
G37*
G36*
G01*
X0150000Y0351575D02*
X0153543Y0351575D01*
G75*
G02*
X0153937Y0351181I0000000J-000394D01*
G01*
X0153937Y0348031D01*
G75*
G02*
X0153543Y0347638I-000394J0000000D01*
G01*
X0150000Y0347638D01*
G75*
G02*
X0149606Y0348031I0000000J0000394D01*
G01*
X0149606Y0351181D01*
G75*
G02*
X0150000Y0351575I0000394J0000000D01*
G01*
G37*
G36*
G01*
X0150000Y0344882D02*
X0153543Y0344882D01*
G75*
G02*
X0153937Y0344488I0000000J-000394D01*
G01*
X0153937Y0341339D01*
G75*
G02*
X0153543Y0340945I-000394J0000000D01*
G01*
X0150000Y0340945D01*
G75*
G02*
X0149606Y0341339I0000000J0000394D01*
G01*
X0149606Y0344488D01*
G75*
G02*
X0150000Y0344882I0000394J0000000D01*
G01*
G37*
G36*
G01*
X0170079Y0403622D02*
X0166339Y0403622D01*
G75*
G02*
X0165354Y0404606I0000000J0000984D01*
G01*
X0165354Y0406575D01*
G75*
G02*
X0166339Y0407559I0000984J0000000D01*
G01*
X0170079Y0407559D01*
G75*
G02*
X0171063Y0406575I0000000J-000984D01*
G01*
X0171063Y0404606D01*
G75*
G02*
X0170079Y0403622I-000984J0000000D01*
G01*
G37*
G36*
G01*
X0170079Y0411102D02*
X0166339Y0411102D01*
G75*
G02*
X0165354Y0412087I0000000J0000984D01*
G01*
X0165354Y0414055D01*
G75*
G02*
X0166339Y0415039I0000984J0000000D01*
G01*
X0170079Y0415039D01*
G75*
G02*
X0171063Y0414055I0000000J-000984D01*
G01*
X0171063Y0412087D01*
G75*
G02*
X0170079Y0411102I-000984J0000000D01*
G01*
G37*
G36*
G01*
X0378445Y0458858D02*
X0373524Y0458858D01*
G75*
G02*
X0373130Y0459252I0000000J0000394D01*
G01*
X0373130Y0462402D01*
G75*
G02*
X0373524Y0462795I0000394J0000000D01*
G01*
X0378445Y0462795D01*
G75*
G02*
X0378839Y0462402I0000000J-000394D01*
G01*
X0378839Y0459252D01*
G75*
G02*
X0378445Y0458858I-000394J0000000D01*
G01*
G37*
G36*
G01*
X0378445Y0466339D02*
X0373524Y0466339D01*
G75*
G02*
X0373130Y0466732I0000000J0000394D01*
G01*
X0373130Y0469882D01*
G75*
G02*
X0373524Y0470276I0000394J0000000D01*
G01*
X0378445Y0470276D01*
G75*
G02*
X0378839Y0469882I0000000J-000394D01*
G01*
X0378839Y0466732D01*
G75*
G02*
X0378445Y0466339I-000394J0000000D01*
G01*
G37*
G36*
G01*
X0237402Y0343799D02*
X0236220Y0343799D01*
G75*
G02*
X0235630Y0344390I0000000J0000591D01*
G01*
X0235630Y0349016D01*
G75*
G02*
X0236220Y0349606I0000591J0000000D01*
G01*
X0237402Y0349606D01*
G75*
G02*
X0237992Y0349016I0000000J-000591D01*
G01*
X0237992Y0344390D01*
G75*
G02*
X0237402Y0343799I-000591J0000000D01*
G01*
G37*
G36*
G01*
X0241142Y0351181D02*
X0239961Y0351181D01*
G75*
G02*
X0239370Y0351772I0000000J0000591D01*
G01*
X0239370Y0356398D01*
G75*
G02*
X0239961Y0356988I0000591J0000000D01*
G01*
X0241142Y0356988D01*
G75*
G02*
X0241732Y0356398I0000000J-000591D01*
G01*
X0241732Y0351772D01*
G75*
G02*
X0241142Y0351181I-000591J0000000D01*
G01*
G37*
G36*
G01*
X0244882Y0343799D02*
X0243701Y0343799D01*
G75*
G02*
X0243110Y0344390I0000000J0000591D01*
G01*
X0243110Y0349016D01*
G75*
G02*
X0243701Y0349606I0000591J0000000D01*
G01*
X0244882Y0349606D01*
G75*
G02*
X0245472Y0349016I0000000J-000591D01*
G01*
X0245472Y0344390D01*
G75*
G02*
X0244882Y0343799I-000591J0000000D01*
G01*
G37*
G36*
G01*
X0132283Y0351575D02*
X0135827Y0351575D01*
G75*
G02*
X0136220Y0351181I0000000J-000394D01*
G01*
X0136220Y0348031D01*
G75*
G02*
X0135827Y0347638I-000394J0000000D01*
G01*
X0132283Y0347638D01*
G75*
G02*
X0131890Y0348031I0000000J0000394D01*
G01*
X0131890Y0351181D01*
G75*
G02*
X0132283Y0351575I0000394J0000000D01*
G01*
G37*
G36*
G01*
X0132283Y0344882D02*
X0135827Y0344882D01*
G75*
G02*
X0136220Y0344488I0000000J-000394D01*
G01*
X0136220Y0341339D01*
G75*
G02*
X0135827Y0340945I-000394J0000000D01*
G01*
X0132283Y0340945D01*
G75*
G02*
X0131890Y0341339I0000000J0000394D01*
G01*
X0131890Y0344488D01*
G75*
G02*
X0132283Y0344882I0000394J0000000D01*
G01*
G37*
D89*
X0559350Y0279429D03*
X0546161Y0291437D03*
X0546161Y0279429D03*
X0559350Y0291437D03*
D15*
X0577559Y0276457D03*
X0577559Y0294409D03*
D89*
X0564272Y0482185D03*
X0577461Y0494193D03*
X0564272Y0494193D03*
X0577461Y0482185D03*
D15*
X0595669Y0479213D03*
X0595669Y0497165D03*
G36*
G01*
X0406869Y0384291D02*
X0406869Y0387362D01*
G75*
G02*
X0407145Y0387638I0000276J0000000D01*
G01*
X0409349Y0387638D01*
G75*
G02*
X0409625Y0387362I0000000J-000276D01*
G01*
X0409625Y0384291D01*
G75*
G02*
X0409349Y0384016I-000276J0000000D01*
G01*
X0407145Y0384016D01*
G75*
G02*
X0406869Y0384291I0000000J0000276D01*
G01*
G37*
G36*
G01*
X0413168Y0384291D02*
X0413168Y0387362D01*
G75*
G02*
X0413444Y0387638I0000276J0000000D01*
G01*
X0415648Y0387638D01*
G75*
G02*
X0415924Y0387362I0000000J-000276D01*
G01*
X0415924Y0384291D01*
G75*
G02*
X0415648Y0384016I-000276J0000000D01*
G01*
X0413444Y0384016D01*
G75*
G02*
X0413168Y0384291I0000000J0000276D01*
G01*
G37*
G36*
G01*
X0180168Y0490201D02*
X0177996Y0492372D01*
G75*
G02*
X0177996Y0492762I0000195J0000195D01*
G01*
X0179555Y0494321D01*
G75*
G02*
X0179945Y0494321I0000195J-000195D01*
G01*
X0182116Y0492150D01*
G75*
G02*
X0182116Y0491760I-000195J-000195D01*
G01*
X0180557Y0490201D01*
G75*
G02*
X0180168Y0490201I-000195J0000195D01*
G01*
G37*
G36*
G01*
X0184622Y0494655D02*
X0182450Y0496827D01*
G75*
G02*
X0182450Y0497216I0000195J0000195D01*
G01*
X0184009Y0498775D01*
G75*
G02*
X0184399Y0498775I0000195J-000195D01*
G01*
X0186571Y0496604D01*
G75*
G02*
X0186571Y0496214I-000195J-000195D01*
G01*
X0185012Y0494655D01*
G75*
G02*
X0184622Y0494655I-000195J0000195D01*
G01*
G37*
G36*
G01*
X0353878Y0069134D02*
X0353878Y0071811D01*
G75*
G02*
X0354213Y0072146I0000335J0000000D01*
G01*
X0356890Y0072146D01*
G75*
G02*
X0357224Y0071811I0000000J-000335D01*
G01*
X0357224Y0069134D01*
G75*
G02*
X0356890Y0068799I-000335J0000000D01*
G01*
X0354213Y0068799D01*
G75*
G02*
X0353878Y0069134I0000000J0000335D01*
G01*
G37*
G36*
G01*
X0360098Y0069134D02*
X0360098Y0071811D01*
G75*
G02*
X0360433Y0072146I0000335J0000000D01*
G01*
X0363110Y0072146D01*
G75*
G02*
X0363445Y0071811I0000000J-000335D01*
G01*
X0363445Y0069134D01*
G75*
G02*
X0363110Y0068799I-000335J0000000D01*
G01*
X0360433Y0068799D01*
G75*
G02*
X0360098Y0069134I0000000J0000335D01*
G01*
G37*
G36*
G01*
X0222244Y0371417D02*
X0222244Y0369528D01*
G75*
G02*
X0222008Y0369291I-000236J0000000D01*
G01*
X0220118Y0369291D01*
G75*
G02*
X0219882Y0369528I0000000J0000236D01*
G01*
X0219882Y0371417D01*
G75*
G02*
X0220118Y0371654I0000236J0000000D01*
G01*
X0222008Y0371654D01*
G75*
G02*
X0222244Y0371417I0000000J-000236D01*
G01*
G37*
G36*
G01*
X0222244Y0362756D02*
X0222244Y0360866D01*
G75*
G02*
X0222008Y0360630I-000236J0000000D01*
G01*
X0220118Y0360630D01*
G75*
G02*
X0219882Y0360866I0000000J0000236D01*
G01*
X0219882Y0362756D01*
G75*
G02*
X0220118Y0362992I0000236J0000000D01*
G01*
X0222008Y0362992D01*
G75*
G02*
X0222244Y0362756I0000000J-000236D01*
G01*
G37*
G36*
G01*
X0124803Y0325433D02*
X0124803Y0327323D01*
G75*
G02*
X0125039Y0327559I0000236J0000000D01*
G01*
X0126929Y0327559D01*
G75*
G02*
X0127165Y0327323I0000000J-000236D01*
G01*
X0127165Y0325433D01*
G75*
G02*
X0126929Y0325197I-000236J0000000D01*
G01*
X0125039Y0325197D01*
G75*
G02*
X0124803Y0325433I0000000J0000236D01*
G01*
G37*
G36*
G01*
X0124803Y0334094D02*
X0124803Y0335984D01*
G75*
G02*
X0125039Y0336220I0000236J0000000D01*
G01*
X0126929Y0336220D01*
G75*
G02*
X0127165Y0335984I0000000J-000236D01*
G01*
X0127165Y0334094D01*
G75*
G02*
X0126929Y0333858I-000236J0000000D01*
G01*
X0125039Y0333858D01*
G75*
G02*
X0124803Y0334094I0000000J0000236D01*
G01*
G37*
G36*
G01*
X0195374Y0473031D02*
X0190453Y0473031D01*
G75*
G02*
X0190059Y0473425I0000000J0000394D01*
G01*
X0190059Y0476575D01*
G75*
G02*
X0190453Y0476968I0000394J0000000D01*
G01*
X0195374Y0476968D01*
G75*
G02*
X0195768Y0476575I0000000J-000394D01*
G01*
X0195768Y0473425D01*
G75*
G02*
X0195374Y0473031I-000394J0000000D01*
G01*
G37*
G36*
G01*
X0195374Y0480512D02*
X0190453Y0480512D01*
G75*
G02*
X0190059Y0480906I0000000J0000394D01*
G01*
X0190059Y0484055D01*
G75*
G02*
X0190453Y0484449I0000394J0000000D01*
G01*
X0195374Y0484449D01*
G75*
G02*
X0195768Y0484055I0000000J-000394D01*
G01*
X0195768Y0480906D01*
G75*
G02*
X0195374Y0480512I-000394J0000000D01*
G01*
G37*
G36*
G01*
X0224902Y0473031D02*
X0219980Y0473031D01*
G75*
G02*
X0219587Y0473425I0000000J0000394D01*
G01*
X0219587Y0476575D01*
G75*
G02*
X0219980Y0476968I0000394J0000000D01*
G01*
X0224902Y0476968D01*
G75*
G02*
X0225295Y0476575I0000000J-000394D01*
G01*
X0225295Y0473425D01*
G75*
G02*
X0224902Y0473031I-000394J0000000D01*
G01*
G37*
G36*
G01*
X0224902Y0480512D02*
X0219980Y0480512D01*
G75*
G02*
X0219587Y0480906I0000000J0000394D01*
G01*
X0219587Y0484055D01*
G75*
G02*
X0219980Y0484449I0000394J0000000D01*
G01*
X0224902Y0484449D01*
G75*
G02*
X0225295Y0484055I0000000J-000394D01*
G01*
X0225295Y0480906D01*
G75*
G02*
X0224902Y0480512I-000394J0000000D01*
G01*
G37*
G36*
G01*
X0223579Y0493554D02*
X0221407Y0491382D01*
G75*
G02*
X0221017Y0491382I-000195J0000195D01*
G01*
X0219458Y0492941D01*
G75*
G02*
X0219458Y0493331I0000195J0000195D01*
G01*
X0221630Y0495502D01*
G75*
G02*
X0222020Y0495502I0000195J-000195D01*
G01*
X0223579Y0493943D01*
G75*
G02*
X0223579Y0493554I-000195J-000195D01*
G01*
G37*
G36*
G01*
X0219124Y0498008D02*
X0216953Y0495836D01*
G75*
G02*
X0216563Y0495836I-000195J0000195D01*
G01*
X0215004Y0497395D01*
G75*
G02*
X0215004Y0497785I0000195J0000195D01*
G01*
X0217176Y0499956D01*
G75*
G02*
X0217565Y0499956I0000195J-000195D01*
G01*
X0219124Y0498397D01*
G75*
G02*
X0219124Y0498008I-000195J-000195D01*
G01*
G37*
G36*
G01*
X0360335Y0473031D02*
X0355413Y0473031D01*
G75*
G02*
X0355020Y0473425I0000000J0000394D01*
G01*
X0355020Y0476575D01*
G75*
G02*
X0355413Y0476968I0000394J0000000D01*
G01*
X0360335Y0476968D01*
G75*
G02*
X0360728Y0476575I0000000J-000394D01*
G01*
X0360728Y0473425D01*
G75*
G02*
X0360335Y0473031I-000394J0000000D01*
G01*
G37*
G36*
G01*
X0360335Y0480512D02*
X0355413Y0480512D01*
G75*
G02*
X0355020Y0480906I0000000J0000394D01*
G01*
X0355020Y0484055D01*
G75*
G02*
X0355413Y0484449I0000394J0000000D01*
G01*
X0360335Y0484449D01*
G75*
G02*
X0360728Y0484055I0000000J-000394D01*
G01*
X0360728Y0480906D01*
G75*
G02*
X0360335Y0480512I-000394J0000000D01*
G01*
G37*
D89*
X0564272Y0446949D03*
X0577461Y0446949D03*
X0564272Y0434941D03*
X0577461Y0434941D03*
D15*
X0595669Y0431969D03*
X0595669Y0449921D03*
G36*
G01*
X0604764Y0476969D02*
X0607835Y0476969D01*
G75*
G02*
X0608110Y0476693I0000000J-000276D01*
G01*
X0608110Y0474488D01*
G75*
G02*
X0607835Y0474213I-000276J0000000D01*
G01*
X0604764Y0474213D01*
G75*
G02*
X0604488Y0474488I0000000J0000276D01*
G01*
X0604488Y0476693D01*
G75*
G02*
X0604764Y0476969I0000276J0000000D01*
G01*
G37*
G36*
G01*
X0604764Y0470669D02*
X0607835Y0470669D01*
G75*
G02*
X0608110Y0470394I0000000J-000276D01*
G01*
X0608110Y0468189D01*
G75*
G02*
X0607835Y0467913I-000276J0000000D01*
G01*
X0604764Y0467913D01*
G75*
G02*
X0604488Y0468189I0000000J0000276D01*
G01*
X0604488Y0470394D01*
G75*
G02*
X0604764Y0470669I0000276J0000000D01*
G01*
G37*
D91*
X0450344Y0344068D03*
X0391782Y0330659D03*
X0298002Y0346211D03*
X0298002Y0338730D03*
X0443652Y0351949D03*
G36*
G01*
X0108563Y0383976D02*
X0108563Y0387047D01*
G75*
G02*
X0108839Y0387323I0000276J0000000D01*
G01*
X0111043Y0387323D01*
G75*
G02*
X0111319Y0387047I0000000J-000276D01*
G01*
X0111319Y0383976D01*
G75*
G02*
X0111043Y0383701I-000276J0000000D01*
G01*
X0108839Y0383701D01*
G75*
G02*
X0108563Y0383976I0000000J0000276D01*
G01*
G37*
G36*
G01*
X0114862Y0383976D02*
X0114862Y0387047D01*
G75*
G02*
X0115138Y0387323I0000276J0000000D01*
G01*
X0117343Y0387323D01*
G75*
G02*
X0117618Y0387047I0000000J-000276D01*
G01*
X0117618Y0383976D01*
G75*
G02*
X0117343Y0383701I-000276J0000000D01*
G01*
X0115138Y0383701D01*
G75*
G02*
X0114862Y0383976I0000000J0000276D01*
G01*
G37*
X0247602Y0299755D03*
X0247938Y0321419D03*
X0284315Y0327019D03*
G36*
G01*
X0282346Y0338830D02*
X0282346Y0338830D01*
X0282346Y0338830D01*
X0282346Y0338830D01*
X0282346Y0338830D01*
G37*
G36*
G01*
X0406869Y0394134D02*
X0406869Y0397205D01*
G75*
G02*
X0407145Y0397480I0000276J0000000D01*
G01*
X0409349Y0397480D01*
G75*
G02*
X0409625Y0397205I0000000J-000276D01*
G01*
X0409625Y0394134D01*
G75*
G02*
X0409349Y0393858I-000276J0000000D01*
G01*
X0407145Y0393858D01*
G75*
G02*
X0406869Y0394134I0000000J0000276D01*
G01*
G37*
G36*
G01*
X0413168Y0394134D02*
X0413168Y0397205D01*
G75*
G02*
X0413444Y0397480I0000276J0000000D01*
G01*
X0415648Y0397480D01*
G75*
G02*
X0415924Y0397205I0000000J-000276D01*
G01*
X0415924Y0394134D01*
G75*
G02*
X0415648Y0393858I-000276J0000000D01*
G01*
X0413444Y0393858D01*
G75*
G02*
X0413168Y0394134I0000000J0000276D01*
G01*
G37*
X0336762Y0039114D03*
X0309282Y0034094D03*
X0306250Y0092460D03*
G36*
G01*
X0194488Y0310098D02*
X0194488Y0312736D01*
G75*
G02*
X0194744Y0312992I0000256J0000000D01*
G01*
X0196791Y0312992D01*
G75*
G02*
X0197047Y0312736I0000000J-000256D01*
G01*
X0197047Y0310098D01*
G75*
G02*
X0196791Y0309843I-000256J0000000D01*
G01*
X0194744Y0309843D01*
G75*
G02*
X0194488Y0310098I0000000J0000256D01*
G01*
G37*
G36*
G01*
X0198327Y0310020D02*
X0198327Y0312815D01*
G75*
G02*
X0198504Y0312992I0000177J0000000D01*
G01*
X0199921Y0312992D01*
G75*
G02*
X0200098Y0312815I0000000J-000177D01*
G01*
X0200098Y0310020D01*
G75*
G02*
X0199921Y0309843I-000177J0000000D01*
G01*
X0198504Y0309843D01*
G75*
G02*
X0198327Y0310020I0000000J0000177D01*
G01*
G37*
G36*
G01*
X0201476Y0310020D02*
X0201476Y0312815D01*
G75*
G02*
X0201654Y0312992I0000177J0000000D01*
G01*
X0203071Y0312992D01*
G75*
G02*
X0203248Y0312815I0000000J-000177D01*
G01*
X0203248Y0310020D01*
G75*
G02*
X0203071Y0309843I-000177J0000000D01*
G01*
X0201654Y0309843D01*
G75*
G02*
X0201476Y0310020I0000000J0000177D01*
G01*
G37*
G36*
G01*
X0204528Y0310098D02*
X0204528Y0312736D01*
G75*
G02*
X0204783Y0312992I0000256J0000000D01*
G01*
X0206831Y0312992D01*
G75*
G02*
X0207087Y0312736I0000000J-000256D01*
G01*
X0207087Y0310098D01*
G75*
G02*
X0206831Y0309843I-000256J0000000D01*
G01*
X0204783Y0309843D01*
G75*
G02*
X0204528Y0310098I0000000J0000256D01*
G01*
G37*
G36*
G01*
X0204528Y0317185D02*
X0204528Y0319823D01*
G75*
G02*
X0204783Y0320079I0000256J0000000D01*
G01*
X0206831Y0320079D01*
G75*
G02*
X0207087Y0319823I0000000J-000256D01*
G01*
X0207087Y0317185D01*
G75*
G02*
X0206831Y0316929I-000256J0000000D01*
G01*
X0204783Y0316929D01*
G75*
G02*
X0204528Y0317185I0000000J0000256D01*
G01*
G37*
G36*
G01*
X0201476Y0317106D02*
X0201476Y0319902D01*
G75*
G02*
X0201654Y0320079I0000177J0000000D01*
G01*
X0203071Y0320079D01*
G75*
G02*
X0203248Y0319902I0000000J-000177D01*
G01*
X0203248Y0317106D01*
G75*
G02*
X0203071Y0316929I-000177J0000000D01*
G01*
X0201654Y0316929D01*
G75*
G02*
X0201476Y0317106I0000000J0000177D01*
G01*
G37*
G36*
G01*
X0198327Y0317106D02*
X0198327Y0319902D01*
G75*
G02*
X0198504Y0320079I0000177J0000000D01*
G01*
X0199921Y0320079D01*
G75*
G02*
X0200098Y0319902I0000000J-000177D01*
G01*
X0200098Y0317106D01*
G75*
G02*
X0199921Y0316929I-000177J0000000D01*
G01*
X0198504Y0316929D01*
G75*
G02*
X0198327Y0317106I0000000J0000177D01*
G01*
G37*
G36*
G01*
X0194488Y0317185D02*
X0194488Y0319823D01*
G75*
G02*
X0194744Y0320079I0000256J0000000D01*
G01*
X0196791Y0320079D01*
G75*
G02*
X0197047Y0319823I0000000J-000256D01*
G01*
X0197047Y0317185D01*
G75*
G02*
X0196791Y0316929I-000256J0000000D01*
G01*
X0194744Y0316929D01*
G75*
G02*
X0194488Y0317185I0000000J0000256D01*
G01*
G37*
D19*
X0118307Y0504331D03*
X0105315Y0504331D03*
G36*
G01*
X0587047Y0284055D02*
X0590118Y0284055D01*
G75*
G02*
X0590394Y0283780I0000000J-000276D01*
G01*
X0590394Y0281575D01*
G75*
G02*
X0590118Y0281299I-000276J0000000D01*
G01*
X0587047Y0281299D01*
G75*
G02*
X0586772Y0281575I0000000J0000276D01*
G01*
X0586772Y0283780D01*
G75*
G02*
X0587047Y0284055I0000276J0000000D01*
G01*
G37*
G36*
G01*
X0587047Y0277756D02*
X0590118Y0277756D01*
G75*
G02*
X0590394Y0277480I0000000J-000276D01*
G01*
X0590394Y0275276D01*
G75*
G02*
X0590118Y0275000I-000276J0000000D01*
G01*
X0587047Y0275000D01*
G75*
G02*
X0586772Y0275276I0000000J0000276D01*
G01*
X0586772Y0277480D01*
G75*
G02*
X0587047Y0277756I0000276J0000000D01*
G01*
G37*
G36*
G01*
X0283563Y0457677D02*
X0278642Y0457677D01*
G75*
G02*
X0278248Y0458071I0000000J0000394D01*
G01*
X0278248Y0461220D01*
G75*
G02*
X0278642Y0461614I0000394J0000000D01*
G01*
X0283563Y0461614D01*
G75*
G02*
X0283957Y0461220I0000000J-000394D01*
G01*
X0283957Y0458071D01*
G75*
G02*
X0283563Y0457677I-000394J0000000D01*
G01*
G37*
G36*
G01*
X0283563Y0465158D02*
X0278642Y0465158D01*
G75*
G02*
X0278248Y0465551I0000000J0000394D01*
G01*
X0278248Y0468701D01*
G75*
G02*
X0278642Y0469095I0000394J0000000D01*
G01*
X0283563Y0469095D01*
G75*
G02*
X0283957Y0468701I0000000J-000394D01*
G01*
X0283957Y0465551D01*
G75*
G02*
X0283563Y0465158I-000394J0000000D01*
G01*
G37*
G36*
G01*
X0109055Y0325433D02*
X0109055Y0327323D01*
G75*
G02*
X0109291Y0327559I0000236J0000000D01*
G01*
X0111181Y0327559D01*
G75*
G02*
X0111417Y0327323I0000000J-000236D01*
G01*
X0111417Y0325433D01*
G75*
G02*
X0111181Y0325197I-000236J0000000D01*
G01*
X0109291Y0325197D01*
G75*
G02*
X0109055Y0325433I0000000J0000236D01*
G01*
G37*
G36*
G01*
X0109055Y0334094D02*
X0109055Y0335984D01*
G75*
G02*
X0109291Y0336220I0000236J0000000D01*
G01*
X0111181Y0336220D01*
G75*
G02*
X0111417Y0335984I0000000J-000236D01*
G01*
X0111417Y0334094D01*
G75*
G02*
X0111181Y0333858I-000236J0000000D01*
G01*
X0109291Y0333858D01*
G75*
G02*
X0109055Y0334094I0000000J0000236D01*
G01*
G37*
G36*
G01*
X0377815Y0436988D02*
X0375138Y0436988D01*
G75*
G02*
X0374803Y0437323I0000000J0000335D01*
G01*
X0374803Y0440000D01*
G75*
G02*
X0375138Y0440335I0000335J0000000D01*
G01*
X0377815Y0440335D01*
G75*
G02*
X0378150Y0440000I0000000J-000335D01*
G01*
X0378150Y0437323D01*
G75*
G02*
X0377815Y0436988I-000335J0000000D01*
G01*
G37*
G36*
G01*
X0377815Y0443209D02*
X0375138Y0443209D01*
G75*
G02*
X0374803Y0443543I0000000J0000335D01*
G01*
X0374803Y0446220D01*
G75*
G02*
X0375138Y0446555I0000335J0000000D01*
G01*
X0377815Y0446555D01*
G75*
G02*
X0378150Y0446220I0000000J-000335D01*
G01*
X0378150Y0443543D01*
G75*
G02*
X0377815Y0443209I-000335J0000000D01*
G01*
G37*
G36*
G01*
X0187795Y0325433D02*
X0187795Y0327323D01*
G75*
G02*
X0188031Y0327559I0000236J0000000D01*
G01*
X0189921Y0327559D01*
G75*
G02*
X0190157Y0327323I0000000J-000236D01*
G01*
X0190157Y0325433D01*
G75*
G02*
X0189921Y0325197I-000236J0000000D01*
G01*
X0188031Y0325197D01*
G75*
G02*
X0187795Y0325433I0000000J0000236D01*
G01*
G37*
G36*
G01*
X0187795Y0334094D02*
X0187795Y0335984D01*
G75*
G02*
X0188031Y0336220I0000236J0000000D01*
G01*
X0189921Y0336220D01*
G75*
G02*
X0190157Y0335984I0000000J-000236D01*
G01*
X0190157Y0334094D01*
G75*
G02*
X0189921Y0333858I-000236J0000000D01*
G01*
X0188031Y0333858D01*
G75*
G02*
X0187795Y0334094I0000000J0000236D01*
G01*
G37*
G36*
G01*
X0286811Y0498780D02*
X0286811Y0495709D01*
G75*
G02*
X0286535Y0495433I-000276J0000000D01*
G01*
X0284331Y0495433D01*
G75*
G02*
X0284055Y0495709I0000000J0000276D01*
G01*
X0284055Y0498780D01*
G75*
G02*
X0284331Y0499055I0000276J0000000D01*
G01*
X0286535Y0499055D01*
G75*
G02*
X0286811Y0498780I0000000J-000276D01*
G01*
G37*
G36*
G01*
X0280512Y0498780D02*
X0280512Y0495709D01*
G75*
G02*
X0280236Y0495433I-000276J0000000D01*
G01*
X0278031Y0495433D01*
G75*
G02*
X0277756Y0495709I0000000J0000276D01*
G01*
X0277756Y0498780D01*
G75*
G02*
X0278031Y0499055I0000276J0000000D01*
G01*
X0280236Y0499055D01*
G75*
G02*
X0280512Y0498780I0000000J-000276D01*
G01*
G37*
G36*
G01*
X0132677Y0325433D02*
X0132677Y0327323D01*
G75*
G02*
X0132913Y0327559I0000236J0000000D01*
G01*
X0134803Y0327559D01*
G75*
G02*
X0135039Y0327323I0000000J-000236D01*
G01*
X0135039Y0325433D01*
G75*
G02*
X0134803Y0325197I-000236J0000000D01*
G01*
X0132913Y0325197D01*
G75*
G02*
X0132677Y0325433I0000000J0000236D01*
G01*
G37*
G36*
G01*
X0132677Y0334094D02*
X0132677Y0335984D01*
G75*
G02*
X0132913Y0336220I0000236J0000000D01*
G01*
X0134803Y0336220D01*
G75*
G02*
X0135039Y0335984I0000000J-000236D01*
G01*
X0135039Y0334094D01*
G75*
G02*
X0134803Y0333858I-000236J0000000D01*
G01*
X0132913Y0333858D01*
G75*
G02*
X0132677Y0334094I0000000J0000236D01*
G01*
G37*
G36*
G01*
X0237795Y0371417D02*
X0237795Y0369528D01*
G75*
G02*
X0237559Y0369291I-000236J0000000D01*
G01*
X0235669Y0369291D01*
G75*
G02*
X0235433Y0369528I0000000J0000236D01*
G01*
X0235433Y0371417D01*
G75*
G02*
X0235669Y0371654I0000236J0000000D01*
G01*
X0237559Y0371654D01*
G75*
G02*
X0237795Y0371417I0000000J-000236D01*
G01*
G37*
G36*
G01*
X0237795Y0362756D02*
X0237795Y0360866D01*
G75*
G02*
X0237559Y0360630I-000236J0000000D01*
G01*
X0235669Y0360630D01*
G75*
G02*
X0235433Y0360866I0000000J0000236D01*
G01*
X0235433Y0362756D01*
G75*
G02*
X0235669Y0362992I0000236J0000000D01*
G01*
X0237559Y0362992D01*
G75*
G02*
X0237795Y0362756I0000000J-000236D01*
G01*
G37*
D24*
X0528346Y0291929D03*
X0528346Y0278937D03*
G36*
G01*
X0150394Y0325433D02*
X0150394Y0327323D01*
G75*
G02*
X0150630Y0327559I0000236J0000000D01*
G01*
X0152520Y0327559D01*
G75*
G02*
X0152756Y0327323I0000000J-000236D01*
G01*
X0152756Y0325433D01*
G75*
G02*
X0152520Y0325197I-000236J0000000D01*
G01*
X0150630Y0325197D01*
G75*
G02*
X0150394Y0325433I0000000J0000236D01*
G01*
G37*
G36*
G01*
X0150394Y0334094D02*
X0150394Y0335984D01*
G75*
G02*
X0150630Y0336220I0000236J0000000D01*
G01*
X0152520Y0336220D01*
G75*
G02*
X0152756Y0335984I0000000J-000236D01*
G01*
X0152756Y0334094D01*
G75*
G02*
X0152520Y0333858I-000236J0000000D01*
G01*
X0150630Y0333858D01*
G75*
G02*
X0150394Y0334094I0000000J0000236D01*
G01*
G37*
G36*
G01*
X0604764Y0336811D02*
X0607835Y0336811D01*
G75*
G02*
X0608110Y0336535I0000000J-000276D01*
G01*
X0608110Y0334331D01*
G75*
G02*
X0607835Y0334055I-000276J0000000D01*
G01*
X0604764Y0334055D01*
G75*
G02*
X0604488Y0334331I0000000J0000276D01*
G01*
X0604488Y0336535D01*
G75*
G02*
X0604764Y0336811I0000276J0000000D01*
G01*
G37*
G36*
G01*
X0604764Y0330512D02*
X0607835Y0330512D01*
G75*
G02*
X0608110Y0330236I0000000J-000276D01*
G01*
X0608110Y0328031D01*
G75*
G02*
X0607835Y0327756I-000276J0000000D01*
G01*
X0604764Y0327756D01*
G75*
G02*
X0604488Y0328031I0000000J0000276D01*
G01*
X0604488Y0330236D01*
G75*
G02*
X0604764Y0330512I0000276J0000000D01*
G01*
G37*
G36*
G01*
X0392323Y0453504D02*
X0392323Y0450433D01*
G75*
G02*
X0392047Y0450157I-000276J0000000D01*
G01*
X0389843Y0450157D01*
G75*
G02*
X0389567Y0450433I0000000J0000276D01*
G01*
X0389567Y0453504D01*
G75*
G02*
X0389843Y0453780I0000276J0000000D01*
G01*
X0392047Y0453780D01*
G75*
G02*
X0392323Y0453504I0000000J-000276D01*
G01*
G37*
G36*
G01*
X0386024Y0453504D02*
X0386024Y0450433D01*
G75*
G02*
X0385748Y0450157I-000276J0000000D01*
G01*
X0383543Y0450157D01*
G75*
G02*
X0383268Y0450433I0000000J0000276D01*
G01*
X0383268Y0453504D01*
G75*
G02*
X0383543Y0453780I0000276J0000000D01*
G01*
X0385748Y0453780D01*
G75*
G02*
X0386024Y0453504I0000000J-000276D01*
G01*
G37*
G36*
G01*
X0158268Y0325433D02*
X0158268Y0327323D01*
G75*
G02*
X0158504Y0327559I0000236J0000000D01*
G01*
X0160394Y0327559D01*
G75*
G02*
X0160630Y0327323I0000000J-000236D01*
G01*
X0160630Y0325433D01*
G75*
G02*
X0160394Y0325197I-000236J0000000D01*
G01*
X0158504Y0325197D01*
G75*
G02*
X0158268Y0325433I0000000J0000236D01*
G01*
G37*
G36*
G01*
X0158268Y0334094D02*
X0158268Y0335984D01*
G75*
G02*
X0158504Y0336220I0000236J0000000D01*
G01*
X0160394Y0336220D01*
G75*
G02*
X0160630Y0335984I0000000J-000236D01*
G01*
X0160630Y0334094D01*
G75*
G02*
X0160394Y0333858I-000236J0000000D01*
G01*
X0158504Y0333858D01*
G75*
G02*
X0158268Y0334094I0000000J0000236D01*
G01*
G37*
G36*
G01*
X0388583Y0083858D02*
X0388583Y0083071D01*
G75*
G02*
X0388189Y0082677I-000394J0000000D01*
G01*
X0386811Y0082677D01*
G75*
G02*
X0386417Y0083071I0000000J0000394D01*
G01*
X0386417Y0083858D01*
G75*
G02*
X0386811Y0084252I0000394J0000000D01*
G01*
X0388189Y0084252D01*
G75*
G02*
X0388583Y0083858I0000000J-000394D01*
G01*
G37*
G36*
G01*
X0388583Y0086220D02*
X0388583Y0085433D01*
G75*
G02*
X0388189Y0085039I-000394J0000000D01*
G01*
X0386811Y0085039D01*
G75*
G02*
X0386417Y0085433I0000000J0000394D01*
G01*
X0386417Y0086220D01*
G75*
G02*
X0386811Y0086614I0000394J0000000D01*
G01*
X0388189Y0086614D01*
G75*
G02*
X0388583Y0086220I0000000J-000394D01*
G01*
G37*
G36*
G01*
X0387008Y0088976D02*
X0387008Y0087598D01*
G75*
G02*
X0386614Y0087205I-000394J0000000D01*
G01*
X0385827Y0087205D01*
G75*
G02*
X0385433Y0087598I0000000J0000394D01*
G01*
X0385433Y0088976D01*
G75*
G02*
X0385827Y0089370I0000394J0000000D01*
G01*
X0386614Y0089370D01*
G75*
G02*
X0387008Y0088976I0000000J-000394D01*
G01*
G37*
G36*
G01*
X0384646Y0088976D02*
X0384646Y0087598D01*
G75*
G02*
X0384252Y0087205I-000394J0000000D01*
G01*
X0383465Y0087205D01*
G75*
G02*
X0383071Y0087598I0000000J0000394D01*
G01*
X0383071Y0088976D01*
G75*
G02*
X0383465Y0089370I0000394J0000000D01*
G01*
X0384252Y0089370D01*
G75*
G02*
X0384646Y0088976I0000000J-000394D01*
G01*
G37*
G36*
G01*
X0382283Y0088976D02*
X0382283Y0087598D01*
G75*
G02*
X0381890Y0087205I-000394J0000000D01*
G01*
X0381102Y0087205D01*
G75*
G02*
X0380709Y0087598I0000000J0000394D01*
G01*
X0380709Y0088976D01*
G75*
G02*
X0381102Y0089370I0000394J0000000D01*
G01*
X0381890Y0089370D01*
G75*
G02*
X0382283Y0088976I0000000J-000394D01*
G01*
G37*
G36*
G01*
X0381299Y0086220D02*
X0381299Y0085433D01*
G75*
G02*
X0380906Y0085039I-000394J0000000D01*
G01*
X0379528Y0085039D01*
G75*
G02*
X0379134Y0085433I0000000J0000394D01*
G01*
X0379134Y0086220D01*
G75*
G02*
X0379528Y0086614I0000394J0000000D01*
G01*
X0380906Y0086614D01*
G75*
G02*
X0381299Y0086220I0000000J-000394D01*
G01*
G37*
G36*
G01*
X0381299Y0083858D02*
X0381299Y0083071D01*
G75*
G02*
X0380906Y0082677I-000394J0000000D01*
G01*
X0379528Y0082677D01*
G75*
G02*
X0379134Y0083071I0000000J0000394D01*
G01*
X0379134Y0083858D01*
G75*
G02*
X0379528Y0084252I0000394J0000000D01*
G01*
X0380906Y0084252D01*
G75*
G02*
X0381299Y0083858I0000000J-000394D01*
G01*
G37*
G36*
G01*
X0382283Y0081693D02*
X0382283Y0080315D01*
G75*
G02*
X0381890Y0079921I-000394J0000000D01*
G01*
X0381102Y0079921D01*
G75*
G02*
X0380709Y0080315I0000000J0000394D01*
G01*
X0380709Y0081693D01*
G75*
G02*
X0381102Y0082087I0000394J0000000D01*
G01*
X0381890Y0082087D01*
G75*
G02*
X0382283Y0081693I0000000J-000394D01*
G01*
G37*
G36*
G01*
X0384646Y0081693D02*
X0384646Y0080315D01*
G75*
G02*
X0384252Y0079921I-000394J0000000D01*
G01*
X0383465Y0079921D01*
G75*
G02*
X0383071Y0080315I0000000J0000394D01*
G01*
X0383071Y0081693D01*
G75*
G02*
X0383465Y0082087I0000394J0000000D01*
G01*
X0384252Y0082087D01*
G75*
G02*
X0384646Y0081693I0000000J-000394D01*
G01*
G37*
G36*
G01*
X0387008Y0081693D02*
X0387008Y0080315D01*
G75*
G02*
X0386614Y0079921I-000394J0000000D01*
G01*
X0385827Y0079921D01*
G75*
G02*
X0385433Y0080315I0000000J0000394D01*
G01*
X0385433Y0081693D01*
G75*
G02*
X0385827Y0082087I0000394J0000000D01*
G01*
X0386614Y0082087D01*
G75*
G02*
X0387008Y0081693I0000000J-000394D01*
G01*
G37*
G36*
G01*
X0351673Y0473031D02*
X0346752Y0473031D01*
G75*
G02*
X0346358Y0473425I0000000J0000394D01*
G01*
X0346358Y0476575D01*
G75*
G02*
X0346752Y0476968I0000394J0000000D01*
G01*
X0351673Y0476968D01*
G75*
G02*
X0352067Y0476575I0000000J-000394D01*
G01*
X0352067Y0473425D01*
G75*
G02*
X0351673Y0473031I-000394J0000000D01*
G01*
G37*
G36*
G01*
X0351673Y0480512D02*
X0346752Y0480512D01*
G75*
G02*
X0346358Y0480906I0000000J0000394D01*
G01*
X0346358Y0484055D01*
G75*
G02*
X0346752Y0484449I0000394J0000000D01*
G01*
X0351673Y0484449D01*
G75*
G02*
X0352067Y0484055I0000000J-000394D01*
G01*
X0352067Y0480906D01*
G75*
G02*
X0351673Y0480512I-000394J0000000D01*
G01*
G37*
G36*
G01*
X0195669Y0325433D02*
X0195669Y0327323D01*
G75*
G02*
X0195906Y0327559I0000236J0000000D01*
G01*
X0197795Y0327559D01*
G75*
G02*
X0198031Y0327323I0000000J-000236D01*
G01*
X0198031Y0325433D01*
G75*
G02*
X0197795Y0325197I-000236J0000000D01*
G01*
X0195906Y0325197D01*
G75*
G02*
X0195669Y0325433I0000000J0000236D01*
G01*
G37*
G36*
G01*
X0195669Y0334094D02*
X0195669Y0335984D01*
G75*
G02*
X0195906Y0336220I0000236J0000000D01*
G01*
X0197795Y0336220D01*
G75*
G02*
X0198031Y0335984I0000000J-000236D01*
G01*
X0198031Y0334094D01*
G75*
G02*
X0197795Y0333858I-000236J0000000D01*
G01*
X0195906Y0333858D01*
G75*
G02*
X0195669Y0334094I0000000J0000236D01*
G01*
G37*
G36*
G01*
X0115748Y0310098D02*
X0115748Y0312736D01*
G75*
G02*
X0116004Y0312992I0000256J0000000D01*
G01*
X0118051Y0312992D01*
G75*
G02*
X0118307Y0312736I0000000J-000256D01*
G01*
X0118307Y0310098D01*
G75*
G02*
X0118051Y0309843I-000256J0000000D01*
G01*
X0116004Y0309843D01*
G75*
G02*
X0115748Y0310098I0000000J0000256D01*
G01*
G37*
G36*
G01*
X0119587Y0310020D02*
X0119587Y0312815D01*
G75*
G02*
X0119764Y0312992I0000177J0000000D01*
G01*
X0121181Y0312992D01*
G75*
G02*
X0121358Y0312815I0000000J-000177D01*
G01*
X0121358Y0310020D01*
G75*
G02*
X0121181Y0309843I-000177J0000000D01*
G01*
X0119764Y0309843D01*
G75*
G02*
X0119587Y0310020I0000000J0000177D01*
G01*
G37*
G36*
G01*
X0122736Y0310020D02*
X0122736Y0312815D01*
G75*
G02*
X0122913Y0312992I0000177J0000000D01*
G01*
X0124331Y0312992D01*
G75*
G02*
X0124508Y0312815I0000000J-000177D01*
G01*
X0124508Y0310020D01*
G75*
G02*
X0124331Y0309843I-000177J0000000D01*
G01*
X0122913Y0309843D01*
G75*
G02*
X0122736Y0310020I0000000J0000177D01*
G01*
G37*
G36*
G01*
X0125787Y0310098D02*
X0125787Y0312736D01*
G75*
G02*
X0126043Y0312992I0000256J0000000D01*
G01*
X0128091Y0312992D01*
G75*
G02*
X0128346Y0312736I0000000J-000256D01*
G01*
X0128346Y0310098D01*
G75*
G02*
X0128091Y0309843I-000256J0000000D01*
G01*
X0126043Y0309843D01*
G75*
G02*
X0125787Y0310098I0000000J0000256D01*
G01*
G37*
G36*
G01*
X0125787Y0317185D02*
X0125787Y0319823D01*
G75*
G02*
X0126043Y0320079I0000256J0000000D01*
G01*
X0128091Y0320079D01*
G75*
G02*
X0128346Y0319823I0000000J-000256D01*
G01*
X0128346Y0317185D01*
G75*
G02*
X0128091Y0316929I-000256J0000000D01*
G01*
X0126043Y0316929D01*
G75*
G02*
X0125787Y0317185I0000000J0000256D01*
G01*
G37*
G36*
G01*
X0122736Y0317106D02*
X0122736Y0319902D01*
G75*
G02*
X0122913Y0320079I0000177J0000000D01*
G01*
X0124331Y0320079D01*
G75*
G02*
X0124508Y0319902I0000000J-000177D01*
G01*
X0124508Y0317106D01*
G75*
G02*
X0124331Y0316929I-000177J0000000D01*
G01*
X0122913Y0316929D01*
G75*
G02*
X0122736Y0317106I0000000J0000177D01*
G01*
G37*
G36*
G01*
X0119587Y0317106D02*
X0119587Y0319902D01*
G75*
G02*
X0119764Y0320079I0000177J0000000D01*
G01*
X0121181Y0320079D01*
G75*
G02*
X0121358Y0319902I0000000J-000177D01*
G01*
X0121358Y0317106D01*
G75*
G02*
X0121181Y0316929I-000177J0000000D01*
G01*
X0119764Y0316929D01*
G75*
G02*
X0119587Y0317106I0000000J0000177D01*
G01*
G37*
G36*
G01*
X0115748Y0317185D02*
X0115748Y0319823D01*
G75*
G02*
X0116004Y0320079I0000256J0000000D01*
G01*
X0118051Y0320079D01*
G75*
G02*
X0118307Y0319823I0000000J-000256D01*
G01*
X0118307Y0317185D01*
G75*
G02*
X0118051Y0316929I-000256J0000000D01*
G01*
X0116004Y0316929D01*
G75*
G02*
X0115748Y0317185I0000000J0000256D01*
G01*
G37*
G36*
G01*
X0221811Y0437657D02*
X0219134Y0437657D01*
G75*
G02*
X0218799Y0437992I0000000J0000335D01*
G01*
X0218799Y0440669D01*
G75*
G02*
X0219134Y0441004I0000335J0000000D01*
G01*
X0221811Y0441004D01*
G75*
G02*
X0222146Y0440669I0000000J-000335D01*
G01*
X0222146Y0437992D01*
G75*
G02*
X0221811Y0437657I-000335J0000000D01*
G01*
G37*
G36*
G01*
X0221811Y0431437D02*
X0219134Y0431437D01*
G75*
G02*
X0218799Y0431772I0000000J0000335D01*
G01*
X0218799Y0434449D01*
G75*
G02*
X0219134Y0434783I0000335J0000000D01*
G01*
X0221811Y0434783D01*
G75*
G02*
X0222146Y0434449I0000000J-000335D01*
G01*
X0222146Y0431772D01*
G75*
G02*
X0221811Y0431437I-000335J0000000D01*
G01*
G37*
G36*
G01*
X0116153Y0178572D02*
X0116153Y0175501D01*
G75*
G02*
X0115877Y0175225I-000276J0000000D01*
G01*
X0113673Y0175225D01*
G75*
G02*
X0113397Y0175501I0000000J0000276D01*
G01*
X0113397Y0178572D01*
G75*
G02*
X0113673Y0178847I0000276J0000000D01*
G01*
X0115877Y0178847D01*
G75*
G02*
X0116153Y0178572I0000000J-000276D01*
G01*
G37*
G36*
G01*
X0109854Y0178572D02*
X0109854Y0175501D01*
G75*
G02*
X0109578Y0175225I-000276J0000000D01*
G01*
X0107373Y0175225D01*
G75*
G02*
X0107098Y0175501I0000000J0000276D01*
G01*
X0107098Y0178572D01*
G75*
G02*
X0107373Y0178847I0000276J0000000D01*
G01*
X0109578Y0178847D01*
G75*
G02*
X0109854Y0178572I0000000J-000276D01*
G01*
G37*
X0528346Y0219882D03*
X0528346Y0232874D03*
G36*
G01*
X0315059Y0457677D02*
X0310138Y0457677D01*
G75*
G02*
X0309744Y0458071I0000000J0000394D01*
G01*
X0309744Y0461220D01*
G75*
G02*
X0310138Y0461614I0000394J0000000D01*
G01*
X0315059Y0461614D01*
G75*
G02*
X0315453Y0461220I0000000J-000394D01*
G01*
X0315453Y0458071D01*
G75*
G02*
X0315059Y0457677I-000394J0000000D01*
G01*
G37*
G36*
G01*
X0315059Y0465158D02*
X0310138Y0465158D01*
G75*
G02*
X0309744Y0465551I0000000J0000394D01*
G01*
X0309744Y0468701D01*
G75*
G02*
X0310138Y0469095I0000394J0000000D01*
G01*
X0315059Y0469095D01*
G75*
G02*
X0315453Y0468701I0000000J-000394D01*
G01*
X0315453Y0465551D01*
G75*
G02*
X0315059Y0465158I-000394J0000000D01*
G01*
G37*
D56*
X0361614Y0081348D03*
X0359646Y0081348D03*
X0357677Y0081348D03*
X0355709Y0081348D03*
D57*
X0355659Y0079331D03*
X0355659Y0077362D03*
D56*
X0355709Y0075344D03*
X0357677Y0075344D03*
X0359646Y0075344D03*
X0361614Y0075344D03*
D57*
X0361663Y0077362D03*
X0361663Y0079331D03*
G36*
G01*
X0185531Y0445866D02*
X0180610Y0445866D01*
G75*
G02*
X0180217Y0446260I0000000J0000394D01*
G01*
X0180217Y0449409D01*
G75*
G02*
X0180610Y0449803I0000394J0000000D01*
G01*
X0185531Y0449803D01*
G75*
G02*
X0185925Y0449409I0000000J-000394D01*
G01*
X0185925Y0446260D01*
G75*
G02*
X0185531Y0445866I-000394J0000000D01*
G01*
G37*
G36*
G01*
X0185531Y0453347D02*
X0180610Y0453347D01*
G75*
G02*
X0180217Y0453740I0000000J0000394D01*
G01*
X0180217Y0456890D01*
G75*
G02*
X0180610Y0457284I0000394J0000000D01*
G01*
X0185531Y0457284D01*
G75*
G02*
X0185925Y0456890I0000000J-000394D01*
G01*
X0185925Y0453740D01*
G75*
G02*
X0185531Y0453347I-000394J0000000D01*
G01*
G37*
G36*
G01*
X0124409Y0351575D02*
X0127953Y0351575D01*
G75*
G02*
X0128346Y0351181I0000000J-000394D01*
G01*
X0128346Y0348031D01*
G75*
G02*
X0127953Y0347638I-000394J0000000D01*
G01*
X0124409Y0347638D01*
G75*
G02*
X0124016Y0348031I0000000J0000394D01*
G01*
X0124016Y0351181D01*
G75*
G02*
X0124409Y0351575I0000394J0000000D01*
G01*
G37*
G36*
G01*
X0124409Y0344882D02*
X0127953Y0344882D01*
G75*
G02*
X0128346Y0344488I0000000J-000394D01*
G01*
X0128346Y0341339D01*
G75*
G02*
X0127953Y0340945I-000394J0000000D01*
G01*
X0124409Y0340945D01*
G75*
G02*
X0124016Y0341339I0000000J0000394D01*
G01*
X0124016Y0344488D01*
G75*
G02*
X0124409Y0344882I0000394J0000000D01*
G01*
G37*
G36*
G01*
X0390256Y0464764D02*
X0385335Y0464764D01*
G75*
G02*
X0384941Y0465157I0000000J0000394D01*
G01*
X0384941Y0468307D01*
G75*
G02*
X0385335Y0468701I0000394J0000000D01*
G01*
X0390256Y0468701D01*
G75*
G02*
X0390650Y0468307I0000000J-000394D01*
G01*
X0390650Y0465157D01*
G75*
G02*
X0390256Y0464764I-000394J0000000D01*
G01*
G37*
G36*
G01*
X0390256Y0472244D02*
X0385335Y0472244D01*
G75*
G02*
X0384941Y0472638I0000000J0000394D01*
G01*
X0384941Y0475787D01*
G75*
G02*
X0385335Y0476181I0000394J0000000D01*
G01*
X0390256Y0476181D01*
G75*
G02*
X0390650Y0475787I0000000J-000394D01*
G01*
X0390650Y0472638D01*
G75*
G02*
X0390256Y0472244I-000394J0000000D01*
G01*
G37*
G36*
G01*
X0211417Y0325433D02*
X0211417Y0327323D01*
G75*
G02*
X0211654Y0327559I0000236J0000000D01*
G01*
X0213543Y0327559D01*
G75*
G02*
X0213780Y0327323I0000000J-000236D01*
G01*
X0213780Y0325433D01*
G75*
G02*
X0213543Y0325197I-000236J0000000D01*
G01*
X0211654Y0325197D01*
G75*
G02*
X0211417Y0325433I0000000J0000236D01*
G01*
G37*
G36*
G01*
X0211417Y0334094D02*
X0211417Y0335984D01*
G75*
G02*
X0211654Y0336220I0000236J0000000D01*
G01*
X0213543Y0336220D01*
G75*
G02*
X0213780Y0335984I0000000J-000236D01*
G01*
X0213780Y0334094D01*
G75*
G02*
X0213543Y0333858I-000236J0000000D01*
G01*
X0211654Y0333858D01*
G75*
G02*
X0211417Y0334094I0000000J0000236D01*
G01*
G37*
G36*
G01*
X0116535Y0351575D02*
X0120079Y0351575D01*
G75*
G02*
X0120472Y0351181I0000000J-000394D01*
G01*
X0120472Y0348031D01*
G75*
G02*
X0120079Y0347638I-000394J0000000D01*
G01*
X0116535Y0347638D01*
G75*
G02*
X0116142Y0348031I0000000J0000394D01*
G01*
X0116142Y0351181D01*
G75*
G02*
X0116535Y0351575I0000394J0000000D01*
G01*
G37*
G36*
G01*
X0116535Y0344882D02*
X0120079Y0344882D01*
G75*
G02*
X0120472Y0344488I0000000J-000394D01*
G01*
X0120472Y0341339D01*
G75*
G02*
X0120079Y0340945I-000394J0000000D01*
G01*
X0116535Y0340945D01*
G75*
G02*
X0116142Y0341339I0000000J0000394D01*
G01*
X0116142Y0344488D01*
G75*
G02*
X0116535Y0344882I0000394J0000000D01*
G01*
G37*
G36*
G01*
X0242913Y0371260D02*
X0246457Y0371260D01*
G75*
G02*
X0246850Y0370866I0000000J-000394D01*
G01*
X0246850Y0367717D01*
G75*
G02*
X0246457Y0367323I-000394J0000000D01*
G01*
X0242913Y0367323D01*
G75*
G02*
X0242520Y0367717I0000000J0000394D01*
G01*
X0242520Y0370866D01*
G75*
G02*
X0242913Y0371260I0000394J0000000D01*
G01*
G37*
G36*
G01*
X0242913Y0364567D02*
X0246457Y0364567D01*
G75*
G02*
X0246850Y0364173I0000000J-000394D01*
G01*
X0246850Y0361024D01*
G75*
G02*
X0246457Y0360630I-000394J0000000D01*
G01*
X0242913Y0360630D01*
G75*
G02*
X0242520Y0361024I0000000J0000394D01*
G01*
X0242520Y0364173D01*
G75*
G02*
X0242913Y0364567I0000394J0000000D01*
G01*
G37*
G36*
G01*
X0252165Y0495709D02*
X0252165Y0498780D01*
G75*
G02*
X0252441Y0499055I0000276J0000000D01*
G01*
X0254646Y0499055D01*
G75*
G02*
X0254921Y0498780I0000000J-000276D01*
G01*
X0254921Y0495709D01*
G75*
G02*
X0254646Y0495433I-000276J0000000D01*
G01*
X0252441Y0495433D01*
G75*
G02*
X0252165Y0495709I0000000J0000276D01*
G01*
G37*
G36*
G01*
X0258465Y0495709D02*
X0258465Y0498780D01*
G75*
G02*
X0258740Y0499055I0000276J0000000D01*
G01*
X0260945Y0499055D01*
G75*
G02*
X0261220Y0498780I0000000J-000276D01*
G01*
X0261220Y0495709D01*
G75*
G02*
X0260945Y0495433I-000276J0000000D01*
G01*
X0258740Y0495433D01*
G75*
G02*
X0258465Y0495709I0000000J0000276D01*
G01*
G37*
D89*
X0546161Y0261909D03*
X0559350Y0261909D03*
X0546161Y0249902D03*
X0559350Y0249902D03*
D15*
X0577559Y0246929D03*
X0577559Y0264882D03*
G36*
G01*
X0590453Y0328445D02*
X0590453Y0317224D01*
G75*
G02*
X0589469Y0316240I-000984J0000000D01*
G01*
X0586614Y0316240D01*
G75*
G02*
X0585630Y0317224I0000000J0000984D01*
G01*
X0585630Y0328445D01*
G75*
G02*
X0586614Y0329429I0000984J0000000D01*
G01*
X0589469Y0329429D01*
G75*
G02*
X0590453Y0328445I0000000J-000984D01*
G01*
G37*
G36*
G01*
X0567126Y0328445D02*
X0567126Y0317224D01*
G75*
G02*
X0566142Y0316240I-000984J0000000D01*
G01*
X0563287Y0316240D01*
G75*
G02*
X0562303Y0317224I0000000J0000984D01*
G01*
X0562303Y0328445D01*
G75*
G02*
X0563287Y0329429I0000984J0000000D01*
G01*
X0566142Y0329429D01*
G75*
G02*
X0567126Y0328445I0000000J-000984D01*
G01*
G37*
G36*
G01*
X0205217Y0473031D02*
X0200295Y0473031D01*
G75*
G02*
X0199902Y0473425I0000000J0000394D01*
G01*
X0199902Y0476575D01*
G75*
G02*
X0200295Y0476968I0000394J0000000D01*
G01*
X0205217Y0476968D01*
G75*
G02*
X0205610Y0476575I0000000J-000394D01*
G01*
X0205610Y0473425D01*
G75*
G02*
X0205217Y0473031I-000394J0000000D01*
G01*
G37*
G36*
G01*
X0205217Y0480512D02*
X0200295Y0480512D01*
G75*
G02*
X0199902Y0480906I0000000J0000394D01*
G01*
X0199902Y0484055D01*
G75*
G02*
X0200295Y0484449I0000394J0000000D01*
G01*
X0205217Y0484449D01*
G75*
G02*
X0205610Y0484055I0000000J-000394D01*
G01*
X0205610Y0480906D01*
G75*
G02*
X0205217Y0480512I-000394J0000000D01*
G01*
G37*
G36*
G01*
X0311949Y0439567D02*
X0315020Y0439567D01*
G75*
G02*
X0315295Y0439291I0000000J-000276D01*
G01*
X0315295Y0437087D01*
G75*
G02*
X0315020Y0436811I-000276J0000000D01*
G01*
X0311949Y0436811D01*
G75*
G02*
X0311673Y0437087I0000000J0000276D01*
G01*
X0311673Y0439291D01*
G75*
G02*
X0311949Y0439567I0000276J0000000D01*
G01*
G37*
G36*
G01*
X0311949Y0433268D02*
X0315020Y0433268D01*
G75*
G02*
X0315295Y0432992I0000000J-000276D01*
G01*
X0315295Y0430787D01*
G75*
G02*
X0315020Y0430512I-000276J0000000D01*
G01*
X0311949Y0430512D01*
G75*
G02*
X0311673Y0430787I0000000J0000276D01*
G01*
X0311673Y0432992D01*
G75*
G02*
X0311949Y0433268I0000276J0000000D01*
G01*
G37*
G36*
G01*
X0166142Y0325433D02*
X0166142Y0327323D01*
G75*
G02*
X0166378Y0327559I0000236J0000000D01*
G01*
X0168268Y0327559D01*
G75*
G02*
X0168504Y0327323I0000000J-000236D01*
G01*
X0168504Y0325433D01*
G75*
G02*
X0168268Y0325197I-000236J0000000D01*
G01*
X0166378Y0325197D01*
G75*
G02*
X0166142Y0325433I0000000J0000236D01*
G01*
G37*
G36*
G01*
X0166142Y0334094D02*
X0166142Y0335984D01*
G75*
G02*
X0166378Y0336220I0000236J0000000D01*
G01*
X0168268Y0336220D01*
G75*
G02*
X0168504Y0335984I0000000J-000236D01*
G01*
X0168504Y0334094D01*
G75*
G02*
X0168268Y0333858I-000236J0000000D01*
G01*
X0166378Y0333858D01*
G75*
G02*
X0166142Y0334094I0000000J0000236D01*
G01*
G37*
G36*
G01*
X0264272Y0473031D02*
X0259350Y0473031D01*
G75*
G02*
X0258957Y0473425I0000000J0000394D01*
G01*
X0258957Y0476575D01*
G75*
G02*
X0259350Y0476968I0000394J0000000D01*
G01*
X0264272Y0476968D01*
G75*
G02*
X0264665Y0476575I0000000J-000394D01*
G01*
X0264665Y0473425D01*
G75*
G02*
X0264272Y0473031I-000394J0000000D01*
G01*
G37*
G36*
G01*
X0264272Y0480512D02*
X0259350Y0480512D01*
G75*
G02*
X0258957Y0480906I0000000J0000394D01*
G01*
X0258957Y0484055D01*
G75*
G02*
X0259350Y0484449I0000394J0000000D01*
G01*
X0264272Y0484449D01*
G75*
G02*
X0264665Y0484055I0000000J-000394D01*
G01*
X0264665Y0480906D01*
G75*
G02*
X0264272Y0480512I-000394J0000000D01*
G01*
G37*
D92*
X0124409Y0411102D03*
X0133268Y0399606D03*
X0133268Y0422598D03*
X0124409Y0399606D03*
X0133268Y0416850D03*
X0124409Y0422598D03*
X0124409Y0416850D03*
X0133268Y0411102D03*
X0133268Y0405354D03*
X0124409Y0405354D03*
D59*
X0147736Y0401260D03*
X0147736Y0405197D03*
X0147736Y0409134D03*
X0147736Y0413071D03*
X0147736Y0417008D03*
X0147736Y0420945D03*
X0109941Y0420945D03*
X0109941Y0417008D03*
X0109941Y0413071D03*
X0109941Y0409134D03*
X0109941Y0405197D03*
X0109941Y0401260D03*
G36*
G01*
X0115759Y0146682D02*
X0115759Y0143611D01*
G75*
G02*
X0115484Y0143335I-000276J0000000D01*
G01*
X0113279Y0143335D01*
G75*
G02*
X0113003Y0143611I0000000J0000276D01*
G01*
X0113003Y0146682D01*
G75*
G02*
X0113279Y0146958I0000276J0000000D01*
G01*
X0115484Y0146958D01*
G75*
G02*
X0115759Y0146682I0000000J-000276D01*
G01*
G37*
G36*
G01*
X0109460Y0146682D02*
X0109460Y0143611D01*
G75*
G02*
X0109184Y0143335I-000276J0000000D01*
G01*
X0106980Y0143335D01*
G75*
G02*
X0106704Y0143611I0000000J0000276D01*
G01*
X0106704Y0146682D01*
G75*
G02*
X0106980Y0146958I0000276J0000000D01*
G01*
X0109184Y0146958D01*
G75*
G02*
X0109460Y0146682I0000000J-000276D01*
G01*
G37*
D24*
X0129921Y0451378D03*
X0129921Y0438386D03*
D91*
X0454281Y0047415D03*
G36*
G01*
X0272106Y0060000D02*
X0272106Y0057323D01*
G75*
G02*
X0271772Y0056988I-000335J0000000D01*
G01*
X0269094Y0056988D01*
G75*
G02*
X0268760Y0057323I0000000J0000335D01*
G01*
X0268760Y0060000D01*
G75*
G02*
X0269094Y0060335I0000335J0000000D01*
G01*
X0271772Y0060335D01*
G75*
G02*
X0272106Y0060000I0000000J-000335D01*
G01*
G37*
G36*
G01*
X0265886Y0060000D02*
X0265886Y0057323D01*
G75*
G02*
X0265551Y0056988I-000335J0000000D01*
G01*
X0262874Y0056988D01*
G75*
G02*
X0262539Y0057323I0000000J0000335D01*
G01*
X0262539Y0060000D01*
G75*
G02*
X0262874Y0060335I0000335J0000000D01*
G01*
X0265551Y0060335D01*
G75*
G02*
X0265886Y0060000I0000000J-000335D01*
G01*
G37*
D65*
X0568898Y0087992D03*
X0568898Y0203346D03*
G36*
G01*
X0561811Y0057480D02*
X0561811Y0061024D01*
G75*
G02*
X0562205Y0061417I0000394J0000000D01*
G01*
X0565354Y0061417D01*
G75*
G02*
X0565748Y0061024I0000000J-000394D01*
G01*
X0565748Y0057480D01*
G75*
G02*
X0565354Y0057087I-000394J0000000D01*
G01*
X0562205Y0057087D01*
G75*
G02*
X0561811Y0057480I0000000J0000394D01*
G01*
G37*
G36*
G01*
X0568504Y0057480D02*
X0568504Y0061024D01*
G75*
G02*
X0568898Y0061417I0000394J0000000D01*
G01*
X0572047Y0061417D01*
G75*
G02*
X0572441Y0061024I0000000J-000394D01*
G01*
X0572441Y0057480D01*
G75*
G02*
X0572047Y0057087I-000394J0000000D01*
G01*
X0568898Y0057087D01*
G75*
G02*
X0568504Y0057480I0000000J0000394D01*
G01*
G37*
G36*
G01*
X0157874Y0351575D02*
X0161417Y0351575D01*
G75*
G02*
X0161811Y0351181I0000000J-000394D01*
G01*
X0161811Y0348031D01*
G75*
G02*
X0161417Y0347638I-000394J0000000D01*
G01*
X0157874Y0347638D01*
G75*
G02*
X0157480Y0348031I0000000J0000394D01*
G01*
X0157480Y0351181D01*
G75*
G02*
X0157874Y0351575I0000394J0000000D01*
G01*
G37*
G36*
G01*
X0157874Y0344882D02*
X0161417Y0344882D01*
G75*
G02*
X0161811Y0344488I0000000J-000394D01*
G01*
X0161811Y0341339D01*
G75*
G02*
X0161417Y0340945I-000394J0000000D01*
G01*
X0157874Y0340945D01*
G75*
G02*
X0157480Y0341339I0000000J0000394D01*
G01*
X0157480Y0344488D01*
G75*
G02*
X0157874Y0344882I0000394J0000000D01*
G01*
G37*
G36*
G01*
X0274114Y0473031D02*
X0269193Y0473031D01*
G75*
G02*
X0268799Y0473425I0000000J0000394D01*
G01*
X0268799Y0476575D01*
G75*
G02*
X0269193Y0476968I0000394J0000000D01*
G01*
X0274114Y0476968D01*
G75*
G02*
X0274508Y0476575I0000000J-000394D01*
G01*
X0274508Y0473425D01*
G75*
G02*
X0274114Y0473031I-000394J0000000D01*
G01*
G37*
G36*
G01*
X0274114Y0480512D02*
X0269193Y0480512D01*
G75*
G02*
X0268799Y0480906I0000000J0000394D01*
G01*
X0268799Y0484055D01*
G75*
G02*
X0269193Y0484449I0000394J0000000D01*
G01*
X0274114Y0484449D01*
G75*
G02*
X0274508Y0484055I0000000J-000394D01*
G01*
X0274508Y0480906D01*
G75*
G02*
X0274114Y0480512I-000394J0000000D01*
G01*
G37*
G36*
G01*
X0561811Y0033858D02*
X0561811Y0037402D01*
G75*
G02*
X0562205Y0037795I0000394J0000000D01*
G01*
X0565354Y0037795D01*
G75*
G02*
X0565748Y0037402I0000000J-000394D01*
G01*
X0565748Y0033858D01*
G75*
G02*
X0565354Y0033465I-000394J0000000D01*
G01*
X0562205Y0033465D01*
G75*
G02*
X0561811Y0033858I0000000J0000394D01*
G01*
G37*
G36*
G01*
X0568504Y0033858D02*
X0568504Y0037402D01*
G75*
G02*
X0568898Y0037795I0000394J0000000D01*
G01*
X0572047Y0037795D01*
G75*
G02*
X0572441Y0037402I0000000J-000394D01*
G01*
X0572441Y0033858D01*
G75*
G02*
X0572047Y0033465I-000394J0000000D01*
G01*
X0568898Y0033465D01*
G75*
G02*
X0568504Y0033858I0000000J0000394D01*
G01*
G37*
G36*
G01*
X0110247Y0186958D02*
X0110247Y0182076D01*
G75*
G02*
X0109736Y0181564I-000512J0000000D01*
G01*
X0105641Y0181564D01*
G75*
G02*
X0105129Y0182076I0000000J0000512D01*
G01*
X0105129Y0186958D01*
G75*
G02*
X0105641Y0187469I0000512J0000000D01*
G01*
X0109736Y0187469D01*
G75*
G02*
X0110247Y0186958I0000000J-000512D01*
G01*
G37*
G36*
G01*
X0117728Y0186958D02*
X0117728Y0182076D01*
G75*
G02*
X0117216Y0181564I-000512J0000000D01*
G01*
X0113122Y0181564D01*
G75*
G02*
X0112610Y0182076I0000000J0000512D01*
G01*
X0112610Y0186958D01*
G75*
G02*
X0113122Y0187469I0000512J0000000D01*
G01*
X0117216Y0187469D01*
G75*
G02*
X0117728Y0186958I0000000J-000512D01*
G01*
G37*
G36*
G01*
X0257874Y0045591D02*
X0257874Y0052835D01*
G75*
G02*
X0258189Y0053150I0000315J0000000D01*
G01*
X0260709Y0053150D01*
G75*
G02*
X0261024Y0052835I0000000J-000315D01*
G01*
X0261024Y0045591D01*
G75*
G02*
X0260709Y0045276I-000315J0000000D01*
G01*
X0258189Y0045276D01*
G75*
G02*
X0257874Y0045591I0000000J0000315D01*
G01*
G37*
G36*
G01*
X0274409Y0045591D02*
X0274409Y0052835D01*
G75*
G02*
X0274724Y0053150I0000315J0000000D01*
G01*
X0277244Y0053150D01*
G75*
G02*
X0277559Y0052835I0000000J-000315D01*
G01*
X0277559Y0045591D01*
G75*
G02*
X0277244Y0045276I-000315J0000000D01*
G01*
X0274724Y0045276D01*
G75*
G02*
X0274409Y0045591I0000000J0000315D01*
G01*
G37*
G36*
G01*
X0444291Y0060610D02*
X0441614Y0060610D01*
G75*
G02*
X0441280Y0060945I0000000J0000335D01*
G01*
X0441280Y0063622D01*
G75*
G02*
X0441614Y0063957I0000335J0000000D01*
G01*
X0444291Y0063957D01*
G75*
G02*
X0444626Y0063622I0000000J-000335D01*
G01*
X0444626Y0060945D01*
G75*
G02*
X0444291Y0060610I-000335J0000000D01*
G01*
G37*
G36*
G01*
X0444291Y0066831D02*
X0441614Y0066831D01*
G75*
G02*
X0441280Y0067165I0000000J0000335D01*
G01*
X0441280Y0069843D01*
G75*
G02*
X0441614Y0070177I0000335J0000000D01*
G01*
X0444291Y0070177D01*
G75*
G02*
X0444626Y0069843I0000000J-000335D01*
G01*
X0444626Y0067165D01*
G75*
G02*
X0444291Y0066831I-000335J0000000D01*
G01*
G37*
G36*
G01*
X0203543Y0325433D02*
X0203543Y0327323D01*
G75*
G02*
X0203780Y0327559I0000236J0000000D01*
G01*
X0205669Y0327559D01*
G75*
G02*
X0205906Y0327323I0000000J-000236D01*
G01*
X0205906Y0325433D01*
G75*
G02*
X0205669Y0325197I-000236J0000000D01*
G01*
X0203780Y0325197D01*
G75*
G02*
X0203543Y0325433I0000000J0000236D01*
G01*
G37*
G36*
G01*
X0203543Y0334094D02*
X0203543Y0335984D01*
G75*
G02*
X0203780Y0336220I0000236J0000000D01*
G01*
X0205669Y0336220D01*
G75*
G02*
X0205906Y0335984I0000000J-000236D01*
G01*
X0205906Y0334094D01*
G75*
G02*
X0205669Y0333858I-000236J0000000D01*
G01*
X0203780Y0333858D01*
G75*
G02*
X0203543Y0334094I0000000J0000236D01*
G01*
G37*
G36*
G01*
X0161673Y0405177D02*
X0158996Y0405177D01*
G75*
G02*
X0158661Y0405512I0000000J0000335D01*
G01*
X0158661Y0408189D01*
G75*
G02*
X0158996Y0408524I0000335J0000000D01*
G01*
X0161673Y0408524D01*
G75*
G02*
X0162008Y0408189I0000000J-000335D01*
G01*
X0162008Y0405512D01*
G75*
G02*
X0161673Y0405177I-000335J0000000D01*
G01*
G37*
G36*
G01*
X0161673Y0411398D02*
X0158996Y0411398D01*
G75*
G02*
X0158661Y0411732I0000000J0000335D01*
G01*
X0158661Y0414409D01*
G75*
G02*
X0158996Y0414744I0000335J0000000D01*
G01*
X0161673Y0414744D01*
G75*
G02*
X0162008Y0414409I0000000J-000335D01*
G01*
X0162008Y0411732D01*
G75*
G02*
X0161673Y0411398I-000335J0000000D01*
G01*
G37*
G36*
G01*
X0132382Y0473012D02*
X0127461Y0473012D01*
G75*
G02*
X0127067Y0473406I0000000J0000394D01*
G01*
X0127067Y0476555D01*
G75*
G02*
X0127461Y0476949I0000394J0000000D01*
G01*
X0132382Y0476949D01*
G75*
G02*
X0132776Y0476555I0000000J-000394D01*
G01*
X0132776Y0473406D01*
G75*
G02*
X0132382Y0473012I-000394J0000000D01*
G01*
G37*
G36*
G01*
X0132382Y0480492D02*
X0127461Y0480492D01*
G75*
G02*
X0127067Y0480886I0000000J0000394D01*
G01*
X0127067Y0484036D01*
G75*
G02*
X0127461Y0484429I0000394J0000000D01*
G01*
X0132382Y0484429D01*
G75*
G02*
X0132776Y0484036I0000000J-000394D01*
G01*
X0132776Y0480886D01*
G75*
G02*
X0132382Y0480492I-000394J0000000D01*
G01*
G37*
G36*
G01*
X0218898Y0330177D02*
X0218898Y0332815D01*
G75*
G02*
X0219154Y0333071I0000256J0000000D01*
G01*
X0221201Y0333071D01*
G75*
G02*
X0221457Y0332815I0000000J-000256D01*
G01*
X0221457Y0330177D01*
G75*
G02*
X0221201Y0329921I-000256J0000000D01*
G01*
X0219154Y0329921D01*
G75*
G02*
X0218898Y0330177I0000000J0000256D01*
G01*
G37*
G36*
G01*
X0222736Y0330098D02*
X0222736Y0332894D01*
G75*
G02*
X0222913Y0333071I0000177J0000000D01*
G01*
X0224331Y0333071D01*
G75*
G02*
X0224508Y0332894I0000000J-000177D01*
G01*
X0224508Y0330098D01*
G75*
G02*
X0224331Y0329921I-000177J0000000D01*
G01*
X0222913Y0329921D01*
G75*
G02*
X0222736Y0330098I0000000J0000177D01*
G01*
G37*
G36*
G01*
X0225886Y0330098D02*
X0225886Y0332894D01*
G75*
G02*
X0226063Y0333071I0000177J0000000D01*
G01*
X0227480Y0333071D01*
G75*
G02*
X0227657Y0332894I0000000J-000177D01*
G01*
X0227657Y0330098D01*
G75*
G02*
X0227480Y0329921I-000177J0000000D01*
G01*
X0226063Y0329921D01*
G75*
G02*
X0225886Y0330098I0000000J0000177D01*
G01*
G37*
G36*
G01*
X0228937Y0330177D02*
X0228937Y0332815D01*
G75*
G02*
X0229193Y0333071I0000256J0000000D01*
G01*
X0231240Y0333071D01*
G75*
G02*
X0231496Y0332815I0000000J-000256D01*
G01*
X0231496Y0330177D01*
G75*
G02*
X0231240Y0329921I-000256J0000000D01*
G01*
X0229193Y0329921D01*
G75*
G02*
X0228937Y0330177I0000000J0000256D01*
G01*
G37*
G36*
G01*
X0228937Y0337264D02*
X0228937Y0339902D01*
G75*
G02*
X0229193Y0340157I0000256J0000000D01*
G01*
X0231240Y0340157D01*
G75*
G02*
X0231496Y0339902I0000000J-000256D01*
G01*
X0231496Y0337264D01*
G75*
G02*
X0231240Y0337008I-000256J0000000D01*
G01*
X0229193Y0337008D01*
G75*
G02*
X0228937Y0337264I0000000J0000256D01*
G01*
G37*
G36*
G01*
X0225886Y0337185D02*
X0225886Y0339980D01*
G75*
G02*
X0226063Y0340157I0000177J0000000D01*
G01*
X0227480Y0340157D01*
G75*
G02*
X0227657Y0339980I0000000J-000177D01*
G01*
X0227657Y0337185D01*
G75*
G02*
X0227480Y0337008I-000177J0000000D01*
G01*
X0226063Y0337008D01*
G75*
G02*
X0225886Y0337185I0000000J0000177D01*
G01*
G37*
G36*
G01*
X0222736Y0337185D02*
X0222736Y0339980D01*
G75*
G02*
X0222913Y0340157I0000177J0000000D01*
G01*
X0224331Y0340157D01*
G75*
G02*
X0224508Y0339980I0000000J-000177D01*
G01*
X0224508Y0337185D01*
G75*
G02*
X0224331Y0337008I-000177J0000000D01*
G01*
X0222913Y0337008D01*
G75*
G02*
X0222736Y0337185I0000000J0000177D01*
G01*
G37*
G36*
G01*
X0218898Y0337264D02*
X0218898Y0339902D01*
G75*
G02*
X0219154Y0340157I0000256J0000000D01*
G01*
X0221201Y0340157D01*
G75*
G02*
X0221457Y0339902I0000000J-000256D01*
G01*
X0221457Y0337264D01*
G75*
G02*
X0221201Y0337008I-000256J0000000D01*
G01*
X0219154Y0337008D01*
G75*
G02*
X0218898Y0337264I0000000J0000256D01*
G01*
G37*
G36*
G01*
X0110247Y0155461D02*
X0110247Y0150580D01*
G75*
G02*
X0109736Y0150068I-000512J0000000D01*
G01*
X0105641Y0150068D01*
G75*
G02*
X0105129Y0150580I0000000J0000512D01*
G01*
X0105129Y0155461D01*
G75*
G02*
X0105641Y0155973I0000512J0000000D01*
G01*
X0109736Y0155973D01*
G75*
G02*
X0110247Y0155461I0000000J-000512D01*
G01*
G37*
G36*
G01*
X0117728Y0155461D02*
X0117728Y0150580D01*
G75*
G02*
X0117216Y0150068I-000512J0000000D01*
G01*
X0113122Y0150068D01*
G75*
G02*
X0112610Y0150580I0000000J0000512D01*
G01*
X0112610Y0155461D01*
G75*
G02*
X0113122Y0155973I0000512J0000000D01*
G01*
X0117216Y0155973D01*
G75*
G02*
X0117728Y0155461I0000000J-000512D01*
G01*
G37*
G36*
G01*
X0305217Y0445866D02*
X0300295Y0445866D01*
G75*
G02*
X0299902Y0446260I0000000J0000394D01*
G01*
X0299902Y0449409D01*
G75*
G02*
X0300295Y0449803I0000394J0000000D01*
G01*
X0305217Y0449803D01*
G75*
G02*
X0305610Y0449409I0000000J-000394D01*
G01*
X0305610Y0446260D01*
G75*
G02*
X0305217Y0445866I-000394J0000000D01*
G01*
G37*
G36*
G01*
X0305217Y0453347D02*
X0300295Y0453347D01*
G75*
G02*
X0299902Y0453740I0000000J0000394D01*
G01*
X0299902Y0456890D01*
G75*
G02*
X0300295Y0457284I0000394J0000000D01*
G01*
X0305217Y0457284D01*
G75*
G02*
X0305610Y0456890I0000000J-000394D01*
G01*
X0305610Y0453740D01*
G75*
G02*
X0305217Y0453347I-000394J0000000D01*
G01*
G37*
G36*
G01*
X0604764Y0429724D02*
X0607835Y0429724D01*
G75*
G02*
X0608110Y0429449I0000000J-000276D01*
G01*
X0608110Y0427244D01*
G75*
G02*
X0607835Y0426969I-000276J0000000D01*
G01*
X0604764Y0426969D01*
G75*
G02*
X0604488Y0427244I0000000J0000276D01*
G01*
X0604488Y0429449D01*
G75*
G02*
X0604764Y0429724I0000276J0000000D01*
G01*
G37*
G36*
G01*
X0604764Y0423425D02*
X0607835Y0423425D01*
G75*
G02*
X0608110Y0423150I0000000J-000276D01*
G01*
X0608110Y0420945D01*
G75*
G02*
X0607835Y0420669I-000276J0000000D01*
G01*
X0604764Y0420669D01*
G75*
G02*
X0604488Y0420945I0000000J0000276D01*
G01*
X0604488Y0423150D01*
G75*
G02*
X0604764Y0423425I0000276J0000000D01*
G01*
G37*
G36*
G01*
X0587047Y0225000D02*
X0590118Y0225000D01*
G75*
G02*
X0590394Y0224724I0000000J-000276D01*
G01*
X0590394Y0222520D01*
G75*
G02*
X0590118Y0222244I-000276J0000000D01*
G01*
X0587047Y0222244D01*
G75*
G02*
X0586772Y0222520I0000000J0000276D01*
G01*
X0586772Y0224724D01*
G75*
G02*
X0587047Y0225000I0000276J0000000D01*
G01*
G37*
G36*
G01*
X0587047Y0218701D02*
X0590118Y0218701D01*
G75*
G02*
X0590394Y0218425I0000000J-000276D01*
G01*
X0590394Y0216220D01*
G75*
G02*
X0590118Y0215945I-000276J0000000D01*
G01*
X0587047Y0215945D01*
G75*
G02*
X0586772Y0216220I0000000J0000276D01*
G01*
X0586772Y0218425D01*
G75*
G02*
X0587047Y0218701I0000276J0000000D01*
G01*
G37*
G36*
G01*
X0390256Y0492323D02*
X0385335Y0492323D01*
G75*
G02*
X0384941Y0492717I0000000J0000394D01*
G01*
X0384941Y0495866D01*
G75*
G02*
X0385335Y0496260I0000394J0000000D01*
G01*
X0390256Y0496260D01*
G75*
G02*
X0390650Y0495866I0000000J-000394D01*
G01*
X0390650Y0492717D01*
G75*
G02*
X0390256Y0492323I-000394J0000000D01*
G01*
G37*
G36*
G01*
X0390256Y0499803D02*
X0385335Y0499803D01*
G75*
G02*
X0384941Y0500197I0000000J0000394D01*
G01*
X0384941Y0503347D01*
G75*
G02*
X0385335Y0503740I0000394J0000000D01*
G01*
X0390256Y0503740D01*
G75*
G02*
X0390650Y0503347I0000000J-000394D01*
G01*
X0390650Y0500197D01*
G75*
G02*
X0390256Y0499803I-000394J0000000D01*
G01*
G37*
G36*
G01*
X0368996Y0473031D02*
X0364075Y0473031D01*
G75*
G02*
X0363681Y0473425I0000000J0000394D01*
G01*
X0363681Y0476575D01*
G75*
G02*
X0364075Y0476968I0000394J0000000D01*
G01*
X0368996Y0476968D01*
G75*
G02*
X0369390Y0476575I0000000J-000394D01*
G01*
X0369390Y0473425D01*
G75*
G02*
X0368996Y0473031I-000394J0000000D01*
G01*
G37*
G36*
G01*
X0368996Y0480512D02*
X0364075Y0480512D01*
G75*
G02*
X0363681Y0480906I0000000J0000394D01*
G01*
X0363681Y0484055D01*
G75*
G02*
X0364075Y0484449I0000394J0000000D01*
G01*
X0368996Y0484449D01*
G75*
G02*
X0369390Y0484055I0000000J-000394D01*
G01*
X0369390Y0480906D01*
G75*
G02*
X0368996Y0480512I-000394J0000000D01*
G01*
G37*
G36*
G01*
X0253346Y0343799D02*
X0252165Y0343799D01*
G75*
G02*
X0251575Y0344390I0000000J0000591D01*
G01*
X0251575Y0349016D01*
G75*
G02*
X0252165Y0349606I0000591J0000000D01*
G01*
X0253346Y0349606D01*
G75*
G02*
X0253937Y0349016I0000000J-000591D01*
G01*
X0253937Y0344390D01*
G75*
G02*
X0253346Y0343799I-000591J0000000D01*
G01*
G37*
G36*
G01*
X0257087Y0351181D02*
X0255906Y0351181D01*
G75*
G02*
X0255315Y0351772I0000000J0000591D01*
G01*
X0255315Y0356398D01*
G75*
G02*
X0255906Y0356988I0000591J0000000D01*
G01*
X0257087Y0356988D01*
G75*
G02*
X0257677Y0356398I0000000J-000591D01*
G01*
X0257677Y0351772D01*
G75*
G02*
X0257087Y0351181I-000591J0000000D01*
G01*
G37*
G36*
G01*
X0260827Y0343799D02*
X0259646Y0343799D01*
G75*
G02*
X0259055Y0344390I0000000J0000591D01*
G01*
X0259055Y0349016D01*
G75*
G02*
X0259646Y0349606I0000591J0000000D01*
G01*
X0260827Y0349606D01*
G75*
G02*
X0261417Y0349016I0000000J-000591D01*
G01*
X0261417Y0344390D01*
G75*
G02*
X0260827Y0343799I-000591J0000000D01*
G01*
G37*
D91*
X0230427Y0257096D03*
G36*
G01*
X0561811Y0049606D02*
X0561811Y0053150D01*
G75*
G02*
X0562205Y0053543I0000394J0000000D01*
G01*
X0565354Y0053543D01*
G75*
G02*
X0565748Y0053150I0000000J-000394D01*
G01*
X0565748Y0049606D01*
G75*
G02*
X0565354Y0049213I-000394J0000000D01*
G01*
X0562205Y0049213D01*
G75*
G02*
X0561811Y0049606I0000000J0000394D01*
G01*
G37*
G36*
G01*
X0568504Y0049606D02*
X0568504Y0053150D01*
G75*
G02*
X0568898Y0053543I0000394J0000000D01*
G01*
X0572047Y0053543D01*
G75*
G02*
X0572441Y0053150I0000000J-000394D01*
G01*
X0572441Y0049606D01*
G75*
G02*
X0572047Y0049213I-000394J0000000D01*
G01*
X0568898Y0049213D01*
G75*
G02*
X0568504Y0049606I0000000J0000394D01*
G01*
G37*
G36*
G01*
X0195276Y0351575D02*
X0198819Y0351575D01*
G75*
G02*
X0199213Y0351181I0000000J-000394D01*
G01*
X0199213Y0348031D01*
G75*
G02*
X0198819Y0347638I-000394J0000000D01*
G01*
X0195276Y0347638D01*
G75*
G02*
X0194882Y0348031I0000000J0000394D01*
G01*
X0194882Y0351181D01*
G75*
G02*
X0195276Y0351575I0000394J0000000D01*
G01*
G37*
G36*
G01*
X0195276Y0344882D02*
X0198819Y0344882D01*
G75*
G02*
X0199213Y0344488I0000000J-000394D01*
G01*
X0199213Y0341339D01*
G75*
G02*
X0198819Y0340945I-000394J0000000D01*
G01*
X0195276Y0340945D01*
G75*
G02*
X0194882Y0341339I0000000J0000394D01*
G01*
X0194882Y0344488D01*
G75*
G02*
X0195276Y0344882I0000394J0000000D01*
G01*
G37*
G36*
G01*
X0244587Y0473031D02*
X0239665Y0473031D01*
G75*
G02*
X0239272Y0473425I0000000J0000394D01*
G01*
X0239272Y0476575D01*
G75*
G02*
X0239665Y0476968I0000394J0000000D01*
G01*
X0244587Y0476968D01*
G75*
G02*
X0244980Y0476575I0000000J-000394D01*
G01*
X0244980Y0473425D01*
G75*
G02*
X0244587Y0473031I-000394J0000000D01*
G01*
G37*
G36*
G01*
X0244587Y0480512D02*
X0239665Y0480512D01*
G75*
G02*
X0239272Y0480906I0000000J0000394D01*
G01*
X0239272Y0484055D01*
G75*
G02*
X0239665Y0484449I0000394J0000000D01*
G01*
X0244587Y0484449D01*
G75*
G02*
X0244980Y0484055I0000000J-000394D01*
G01*
X0244980Y0480906D01*
G75*
G02*
X0244587Y0480512I-000394J0000000D01*
G01*
G37*
X0392297Y0048474D03*
D92*
X0340551Y0448661D03*
X0349409Y0454409D03*
X0340551Y0431417D03*
X0340551Y0454409D03*
X0340551Y0437165D03*
X0349409Y0437165D03*
X0349409Y0431417D03*
X0340551Y0442913D03*
X0349409Y0442913D03*
X0349409Y0448661D03*
D59*
X0363878Y0433071D03*
X0363878Y0437008D03*
X0363878Y0440945D03*
X0363878Y0444882D03*
X0363878Y0448819D03*
X0363878Y0452756D03*
X0326083Y0452756D03*
X0326083Y0448819D03*
X0326083Y0444882D03*
X0326083Y0440945D03*
X0326083Y0437008D03*
X0326083Y0433071D03*
G36*
G01*
X0254429Y0473031D02*
X0249508Y0473031D01*
G75*
G02*
X0249114Y0473425I0000000J0000394D01*
G01*
X0249114Y0476575D01*
G75*
G02*
X0249508Y0476968I0000394J0000000D01*
G01*
X0254429Y0476968D01*
G75*
G02*
X0254823Y0476575I0000000J-000394D01*
G01*
X0254823Y0473425D01*
G75*
G02*
X0254429Y0473031I-000394J0000000D01*
G01*
G37*
G36*
G01*
X0254429Y0480512D02*
X0249508Y0480512D01*
G75*
G02*
X0249114Y0480906I0000000J0000394D01*
G01*
X0249114Y0484055D01*
G75*
G02*
X0249508Y0484449I0000394J0000000D01*
G01*
X0254429Y0484449D01*
G75*
G02*
X0254823Y0484055I0000000J-000394D01*
G01*
X0254823Y0480906D01*
G75*
G02*
X0254429Y0480512I-000394J0000000D01*
G01*
G37*
X0440482Y0317243D02*
G01*
G75*
D343*
X0422175Y0300708D02*
D03*
X0422175Y0308188D02*
D03*
D344*
X0431821Y0264585D02*
D03*
X0431821Y0282302D02*
D03*
D345*
X0340187Y0310944D02*
D03*
X0340187Y0304645D02*
D03*
D346*
X0423454Y0313700D02*
D03*
X0430935Y0313700D02*
D03*
D84*
X0427687Y0301889D02*
D03*
X0427687Y0308188D02*
D03*
D347*
X0325718Y0286239D02*
D03*
X0325718Y0282499D02*
D03*
X0325718Y0278759D02*
D03*
X0335167Y0278759D02*
D03*
X0335167Y0282499D02*
D03*
X0335167Y0286239D02*
D03*
X0402884Y0286239D02*
D03*
X0402884Y0282499D02*
D03*
X0402884Y0278759D02*
D03*
X0393435Y0278759D02*
D03*
X0393435Y0282499D02*
D03*
X0393435Y0286239D02*
D03*
X0410364Y0286239D02*
D03*
X0410364Y0282499D02*
D03*
X0410364Y0278759D02*
D03*
X0419813Y0278759D02*
D03*
X0419813Y0282499D02*
D03*
X0419813Y0286239D02*
D03*
X0385954Y0286239D02*
D03*
X0385954Y0282499D02*
D03*
X0385954Y0278759D02*
D03*
X0376506Y0278759D02*
D03*
X0376506Y0282499D02*
D03*
X0376506Y0286239D02*
D03*
X0359577Y0286239D02*
D03*
X0359577Y0282499D02*
D03*
X0359577Y0278759D02*
D03*
X0369025Y0278759D02*
D03*
X0369025Y0282499D02*
D03*
X0369025Y0286239D02*
D03*
X0352096Y0286239D02*
D03*
X0352096Y0282499D02*
D03*
X0352096Y0278759D02*
D03*
X0342647Y0278759D02*
D03*
X0342647Y0282499D02*
D03*
X0342647Y0286239D02*
D03*
D348*
X0326013Y0311633D02*
D03*
X0326013Y0304546D02*
D03*
X0336053Y0304546D02*
D03*
X0336053Y0311633D02*
D03*
X0401112Y0311633D02*
D03*
X0401112Y0304546D02*
D03*
X0391073Y0304546D02*
D03*
X0391073Y0311633D02*
D03*
X0405639Y0311633D02*
D03*
X0405639Y0304546D02*
D03*
X0415679Y0304546D02*
D03*
X0415679Y0311633D02*
D03*
X0386053Y0311633D02*
D03*
X0386053Y0304546D02*
D03*
X0376014Y0304546D02*
D03*
X0376014Y0311633D02*
D03*
X0359183Y0311633D02*
D03*
X0359183Y0304546D02*
D03*
X0369222Y0304546D02*
D03*
X0369222Y0311633D02*
D03*
X0354261Y0311633D02*
D03*
X0354261Y0304546D02*
D03*
X0344222Y0304546D02*
D03*
X0344222Y0311633D02*
D03*
X0391171Y0297853D02*
D03*
X0391171Y0290767D02*
D03*
X0401210Y0290767D02*
D03*
X0401210Y0297853D02*
D03*
X0417155Y0297853D02*
D03*
X0417155Y0290767D02*
D03*
X0407116Y0290767D02*
D03*
X0407116Y0297853D02*
D03*
X0375915Y0297853D02*
D03*
X0375915Y0290767D02*
D03*
X0385954Y0290767D02*
D03*
X0385954Y0297853D02*
D03*
X0369222Y0297853D02*
D03*
X0369222Y0290767D02*
D03*
X0359183Y0290767D02*
D03*
X0359183Y0297853D02*
D03*
X0343927Y0297853D02*
D03*
X0343927Y0290767D02*
D03*
X0353966Y0290767D02*
D03*
X0353966Y0297853D02*
D03*
X0336545Y0297755D02*
D03*
X0336545Y0290668D02*
D03*
X0326506Y0290668D02*
D03*
X0326506Y0297755D02*
D03*
D349*
X0332608Y0304546D02*
D03*
X0329458Y0304546D02*
D03*
X0329458Y0311633D02*
D03*
X0332608Y0311633D02*
D03*
X0397667Y0311633D02*
D03*
X0394517Y0311633D02*
D03*
X0394517Y0304546D02*
D03*
X0397667Y0304546D02*
D03*
X0412234Y0304546D02*
D03*
X0409084Y0304546D02*
D03*
X0409084Y0311633D02*
D03*
X0412234Y0311633D02*
D03*
X0382608Y0311633D02*
D03*
X0379458Y0311633D02*
D03*
X0379458Y0304546D02*
D03*
X0382608Y0304546D02*
D03*
X0365777Y0304546D02*
D03*
X0362628Y0304546D02*
D03*
X0362628Y0311633D02*
D03*
X0365777Y0311633D02*
D03*
X0350817Y0311633D02*
D03*
X0347667Y0311633D02*
D03*
X0347667Y0304546D02*
D03*
X0350817Y0304546D02*
D03*
X0397765Y0290767D02*
D03*
X0394616Y0290767D02*
D03*
X0394616Y0297853D02*
D03*
X0397765Y0297853D02*
D03*
X0413710Y0297853D02*
D03*
X0410561Y0297853D02*
D03*
X0410561Y0290767D02*
D03*
X0413710Y0290767D02*
D03*
X0382509Y0290767D02*
D03*
X0379360Y0290767D02*
D03*
X0379360Y0297853D02*
D03*
X0382509Y0297853D02*
D03*
X0365777Y0297853D02*
D03*
X0362628Y0297853D02*
D03*
X0362628Y0290767D02*
D03*
X0365777Y0290767D02*
D03*
X0350521Y0290767D02*
D03*
X0347372Y0290767D02*
D03*
X0347372Y0297853D02*
D03*
X0350521Y0297853D02*
D03*
X0333100Y0297755D02*
D03*
X0329951Y0297755D02*
D03*
X0329951Y0290668D02*
D03*
X0333100Y0290668D02*
D03*
D350*
X0321978Y0311495D02*
D03*
X0321978Y0305274D02*
D03*
X0356525Y0270058D02*
D03*
X0356525Y0263837D02*
D03*
X0360856Y0263837D02*
D03*
X0360856Y0270058D02*
D03*
X0365187Y0270058D02*
D03*
X0365187Y0263837D02*
D03*
X0369517Y0263837D02*
D03*
X0369517Y0270058D02*
D03*
X0352195Y0270058D02*
D03*
X0352195Y0263837D02*
D03*
X0347864Y0263837D02*
D03*
X0347864Y0270058D02*
D03*
X0343533Y0270058D02*
D03*
X0343533Y0263837D02*
D03*
X0339203Y0263837D02*
D03*
X0339203Y0270058D02*
D03*
X0386840Y0270058D02*
D03*
X0386840Y0263837D02*
D03*
X0382509Y0263837D02*
D03*
X0382509Y0270058D02*
D03*
X0378179Y0270058D02*
D03*
X0378179Y0263837D02*
D03*
X0373848Y0263837D02*
D03*
X0373848Y0270058D02*
D03*
X0421486Y0270058D02*
D03*
X0421486Y0263837D02*
D03*
X0417155Y0263837D02*
D03*
X0417155Y0270058D02*
D03*
X0412825Y0270058D02*
D03*
X0412825Y0263837D02*
D03*
X0408494Y0263837D02*
D03*
X0408494Y0270058D02*
D03*
X0404163Y0270058D02*
D03*
X0404163Y0263837D02*
D03*
X0399832Y0263837D02*
D03*
X0399832Y0270058D02*
D03*
X0395502Y0270058D02*
D03*
X0395502Y0263837D02*
D03*
X0391171Y0263837D02*
D03*
X0391171Y0270058D02*
D03*
X0321978Y0298109D02*
D03*
X0321978Y0291889D02*
D03*
X0334872Y0270058D02*
D03*
X0334872Y0263837D02*
D03*
X0330541Y0263837D02*
D03*
X0330541Y0270058D02*
D03*
X0326210Y0270058D02*
D03*
X0326210Y0263837D02*
D03*
X0321880Y0263837D02*
D03*
X0321880Y0270058D02*
D03*
D351*
X0437923Y0302971D02*
D03*
X0431624Y0302971D02*
D03*
X0431624Y0307499D02*
D03*
X0437923Y0307499D02*
D03*
X0430639Y0294015D02*
D03*
X0436939Y0294015D02*
D03*
X0430639Y0289389D02*
D03*
X0436939Y0289389D02*
D03*
D352*
X0425325Y0288503D02*
D03*
X0425325Y0295983D02*
D03*
D353*
X0437687Y0298444D02*
D03*
X0431466Y0298444D02*
D03*
X0546503Y0021771D02*
G01*
G75*
D372*
X0527802Y0049114D02*
D03*
X0525243Y0049114D02*
D03*
X0522684Y0049114D02*
D03*
X0520125Y0049114D02*
D03*
X0517566Y0049114D02*
D03*
X0515007Y0049114D02*
D03*
X0512448Y0049114D02*
D03*
X0509889Y0049114D02*
D03*
X0507330Y0049114D02*
D03*
X0504771Y0049114D02*
D03*
X0502212Y0049114D02*
D03*
X0499653Y0049114D02*
D03*
X0527802Y0026121D02*
D03*
X0525243Y0026121D02*
D03*
X0522684Y0026121D02*
D03*
X0520125Y0026121D02*
D03*
X0517566Y0026121D02*
D03*
X0515007Y0026121D02*
D03*
X0512448Y0026121D02*
D03*
X0509889Y0026121D02*
D03*
X0507330Y0026121D02*
D03*
X0504771Y0026121D02*
D03*
X0502212Y0026121D02*
D03*
X0499653Y0026121D02*
D03*
D373*
X0495716Y0026141D02*
D03*
X0495716Y0032362D02*
D03*
X0495716Y0042893D02*
D03*
X0495716Y0036672D02*
D03*
D322*
X0532920Y0044901D02*
D03*
X0532920Y0051200D02*
D03*
X0533314Y0031909D02*
D03*
X0533314Y0038208D02*
D03*
D374*
X0543944Y0039984D02*
D03*
X0537645Y0039984D02*
D03*
X0537645Y0033661D02*
D03*
X0543944Y0033661D02*
D03*
X0543944Y0029035D02*
D03*
X0537645Y0029035D02*
D03*
X0537743Y0049212D02*
D03*
X0544042Y0049212D02*
D03*
X0537645Y0024409D02*
D03*
X0543944Y0024409D02*
D03*
X0537645Y0044606D02*
D03*
X0543944Y0044606D02*
D03*
X0440896Y0245093D02*
G01*
G75*
D431*
X0267471Y0214089D02*
D03*
X0267471Y0225506D02*
D03*
D432*
X0428691Y0121766D02*
D03*
X0428691Y0128066D02*
D03*
X0424065Y0121668D02*
D03*
X0424065Y0127967D02*
D03*
X0287353Y0167337D02*
D03*
X0287353Y0161038D02*
D03*
X0293750Y0107199D02*
D03*
X0293750Y0113499D02*
D03*
X0300371Y0108479D02*
D03*
X0300371Y0102180D02*
D03*
X0270719Y0109857D02*
D03*
X0270719Y0103558D02*
D03*
X0261664Y0120684D02*
D03*
X0261664Y0114384D02*
D03*
X0261664Y0110546D02*
D03*
X0261664Y0104247D02*
D03*
X0266290Y0119109D02*
D03*
X0266290Y0112810D02*
D03*
X0402313Y0179050D02*
D03*
X0402313Y0185349D02*
D03*
D433*
X0433518Y0127670D02*
D03*
X0433518Y0121450D02*
D03*
X0403593Y0161491D02*
D03*
X0403593Y0155270D02*
D03*
X0275246Y0110605D02*
D03*
X0275246Y0104384D02*
D03*
X0261270Y0215605D02*
D03*
X0261270Y0221825D02*
D03*
X0291290Y0120625D02*
D03*
X0291290Y0126845D02*
D03*
X0284695Y0121707D02*
D03*
X0284695Y0127928D02*
D03*
X0318553Y0231353D02*
D03*
X0318553Y0237573D02*
D03*
X0284105Y0229876D02*
D03*
X0284105Y0236097D02*
D03*
X0279675Y0236097D02*
D03*
X0279675Y0229877D02*
D03*
X0428396Y0172613D02*
D03*
X0428396Y0166392D02*
D03*
X0408120Y0155270D02*
D03*
X0408120Y0161491D02*
D03*
X0403494Y0199955D02*
D03*
X0403494Y0206176D02*
D03*
X0282530Y0178912D02*
D03*
X0282530Y0172691D02*
D03*
X0408317Y0200054D02*
D03*
X0408317Y0206274D02*
D03*
X0421900Y0212455D02*
D03*
X0421900Y0218676D02*
D03*
X0435483Y0166491D02*
D03*
X0435483Y0172711D02*
D03*
X0293258Y0157829D02*
D03*
X0293258Y0164050D02*
D03*
X0286861Y0183931D02*
D03*
X0286861Y0177711D02*
D03*
X0404162Y0142967D02*
D03*
X0404162Y0149187D02*
D03*
X0407136Y0179188D02*
D03*
X0407136Y0185408D02*
D03*
D434*
X0330069Y0227770D02*
D03*
X0336369Y0227770D02*
D03*
X0358022Y0217829D02*
D03*
X0364321Y0217829D02*
D03*
X0275739Y0168125D02*
D03*
X0282038Y0168125D02*
D03*
X0322637Y0104436D02*
D03*
X0316337Y0104436D02*
D03*
X0269833Y0168321D02*
D03*
X0263534Y0168321D02*
D03*
X0267864Y0173833D02*
D03*
X0261565Y0173833D02*
D03*
X0402018Y0195388D02*
D03*
X0408317Y0195388D02*
D03*
X0262254Y0124916D02*
D03*
X0268553Y0124916D02*
D03*
D435*
X0280365Y0144109D02*
D03*
X0284105Y0144109D02*
D03*
X0287845Y0144109D02*
D03*
X0287845Y0134660D02*
D03*
X0284105Y0134660D02*
D03*
X0280365Y0134660D02*
D03*
D353*
X0353652Y0217239D02*
D03*
X0347431Y0217239D02*
D03*
X0278731Y0225014D02*
D03*
X0284951Y0225014D02*
D03*
X0281487Y0116353D02*
D03*
X0287707Y0116353D02*
D03*
X0271939Y0175211D02*
D03*
X0278160Y0175211D02*
D03*
X0372510Y0217239D02*
D03*
X0378731Y0217239D02*
D03*
X0305699Y0212908D02*
D03*
X0311920Y0212908D02*
D03*
X0392609Y0109660D02*
D03*
X0398829Y0109660D02*
D03*
X0276369Y0149916D02*
D03*
X0282589Y0149916D02*
D03*
X0383455Y0217337D02*
D03*
X0389676Y0217337D02*
D03*
X0330502Y0221668D02*
D03*
X0336723Y0221668D02*
D03*
X0383179Y0110054D02*
D03*
X0376959Y0110054D02*
D03*
X0349400Y0109266D02*
D03*
X0355620Y0109266D02*
D03*
X0331191Y0104837D02*
D03*
X0337412Y0104837D02*
D03*
X0327865Y0213006D02*
D03*
X0321644Y0213006D02*
D03*
X0402057Y0190861D02*
D03*
X0408278Y0190861D02*
D03*
X0398613Y0128065D02*
D03*
X0404833Y0128065D02*
D03*
D159*
X0386664Y0125802D02*
D03*
X0386664Y0127770D02*
D03*
X0386664Y0129739D02*
D03*
X0386664Y0131707D02*
D03*
X0386664Y0133676D02*
D03*
X0386664Y0135644D02*
D03*
X0386664Y0137613D02*
D03*
X0386664Y0139581D02*
D03*
X0386664Y0141550D02*
D03*
X0386664Y0143518D02*
D03*
X0386664Y0145487D02*
D03*
X0386664Y0147455D02*
D03*
X0386664Y0149424D02*
D03*
X0386664Y0151392D02*
D03*
X0386664Y0153361D02*
D03*
X0386664Y0155329D02*
D03*
X0386664Y0157298D02*
D03*
X0386664Y0159266D02*
D03*
X0386664Y0161235D02*
D03*
X0386664Y0163203D02*
D03*
X0386664Y0165172D02*
D03*
X0386664Y0167140D02*
D03*
X0386664Y0169109D02*
D03*
X0386664Y0171077D02*
D03*
X0386664Y0173046D02*
D03*
X0386664Y0175014D02*
D03*
X0386664Y0176983D02*
D03*
X0386664Y0178951D02*
D03*
X0386664Y0180920D02*
D03*
X0386664Y0182888D02*
D03*
X0386664Y0184857D02*
D03*
X0386664Y0186825D02*
D03*
X0386664Y0188794D02*
D03*
X0386664Y0190762D02*
D03*
X0386664Y0192731D02*
D03*
X0386664Y0194699D02*
D03*
X0303002Y0194699D02*
D03*
X0303002Y0192731D02*
D03*
X0303002Y0190762D02*
D03*
X0303002Y0188794D02*
D03*
X0303002Y0186825D02*
D03*
X0303002Y0184857D02*
D03*
X0303002Y0182888D02*
D03*
X0303002Y0180920D02*
D03*
X0303002Y0178951D02*
D03*
X0303002Y0176983D02*
D03*
X0303002Y0175014D02*
D03*
X0303002Y0173046D02*
D03*
X0303002Y0171077D02*
D03*
X0303002Y0169109D02*
D03*
X0303002Y0167140D02*
D03*
X0303002Y0165172D02*
D03*
X0303002Y0163203D02*
D03*
X0303002Y0161235D02*
D03*
X0303002Y0159266D02*
D03*
X0303002Y0157298D02*
D03*
X0303002Y0155329D02*
D03*
X0303002Y0153361D02*
D03*
X0303002Y0151392D02*
D03*
X0303002Y0149424D02*
D03*
X0303002Y0147455D02*
D03*
X0303002Y0145487D02*
D03*
X0303002Y0143518D02*
D03*
X0303002Y0141550D02*
D03*
X0303002Y0139581D02*
D03*
X0303002Y0137613D02*
D03*
X0303002Y0135644D02*
D03*
X0303002Y0133676D02*
D03*
X0303002Y0131707D02*
D03*
X0303002Y0129739D02*
D03*
X0303002Y0127770D02*
D03*
X0303002Y0125802D02*
D03*
D160*
X0379282Y0202081D02*
D03*
X0377313Y0202081D02*
D03*
X0375345Y0202081D02*
D03*
X0373376Y0202081D02*
D03*
X0371408Y0202081D02*
D03*
X0369439Y0202081D02*
D03*
X0367471Y0202081D02*
D03*
X0365502Y0202081D02*
D03*
X0363534Y0202081D02*
D03*
X0361565Y0202081D02*
D03*
X0359597Y0202081D02*
D03*
X0357628Y0202081D02*
D03*
X0355660Y0202081D02*
D03*
X0353691Y0202081D02*
D03*
X0351723Y0202081D02*
D03*
X0349754Y0202081D02*
D03*
X0347786Y0202081D02*
D03*
X0345817Y0202081D02*
D03*
X0343849Y0202081D02*
D03*
X0341880Y0202081D02*
D03*
X0339912Y0202081D02*
D03*
X0337943Y0202081D02*
D03*
X0335975Y0202081D02*
D03*
X0334006Y0202081D02*
D03*
X0332038Y0202081D02*
D03*
X0330069Y0202081D02*
D03*
X0328101Y0202081D02*
D03*
X0326132Y0202081D02*
D03*
X0324164Y0202081D02*
D03*
X0322195Y0202081D02*
D03*
X0320227Y0202081D02*
D03*
X0318258Y0202081D02*
D03*
X0316290Y0202081D02*
D03*
X0314321Y0202081D02*
D03*
X0312353Y0202081D02*
D03*
X0310384Y0202081D02*
D03*
X0310384Y0118420D02*
D03*
X0312353Y0118420D02*
D03*
X0314321Y0118420D02*
D03*
X0316290Y0118420D02*
D03*
X0318258Y0118420D02*
D03*
X0320227Y0118420D02*
D03*
X0322195Y0118420D02*
D03*
X0324164Y0118420D02*
D03*
X0326132Y0118420D02*
D03*
X0328101Y0118420D02*
D03*
X0330069Y0118420D02*
D03*
X0332038Y0118420D02*
D03*
X0334006Y0118420D02*
D03*
X0335975Y0118420D02*
D03*
X0337943Y0118420D02*
D03*
X0339912Y0118420D02*
D03*
X0341880Y0118420D02*
D03*
X0343849Y0118420D02*
D03*
X0345817Y0118420D02*
D03*
X0347786Y0118420D02*
D03*
X0349754Y0118420D02*
D03*
X0351723Y0118420D02*
D03*
X0353691Y0118420D02*
D03*
X0355660Y0118420D02*
D03*
X0357628Y0118420D02*
D03*
X0359597Y0118420D02*
D03*
X0361565Y0118420D02*
D03*
X0363534Y0118420D02*
D03*
X0365502Y0118420D02*
D03*
X0367471Y0118420D02*
D03*
X0369439Y0118420D02*
D03*
X0371408Y0118420D02*
D03*
X0373376Y0118420D02*
D03*
X0375345Y0118420D02*
D03*
X0377313Y0118420D02*
D03*
X0379282Y0118420D02*
D03*
D436*
X0368061Y0220880D02*
D03*
X0368061Y0216943D02*
D03*
D437*
X0272983Y0182101D02*
D03*
D438*
X0263927Y0206510D02*
D03*
X0282038Y0206510D02*
D03*
D439*
X0272983Y0206510D02*
D03*
D165*
X0289912Y0239778D02*
D03*
X0289912Y0237219D02*
D03*
X0289912Y0234660D02*
D03*
X0289912Y0232101D02*
D03*
X0289912Y0229542D02*
D03*
X0289912Y0226983D02*
D03*
X0289912Y0224424D02*
D03*
X0312353Y0239778D02*
D03*
X0312353Y0237219D02*
D03*
X0312353Y0234660D02*
D03*
X0312353Y0232101D02*
D03*
X0312353Y0229542D02*
D03*
X0312353Y0226983D02*
D03*
X0312353Y0224424D02*
D03*
X0413927Y0205428D02*
D03*
X0413927Y0202869D02*
D03*
X0413927Y0200310D02*
D03*
X0413927Y0197750D02*
D03*
X0413927Y0195191D02*
D03*
X0413927Y0192632D02*
D03*
X0413927Y0190073D02*
D03*
X0436369Y0205428D02*
D03*
X0436369Y0202869D02*
D03*
X0436369Y0200310D02*
D03*
X0436369Y0197750D02*
D03*
X0436369Y0195191D02*
D03*
X0436369Y0192632D02*
D03*
X0436369Y0190073D02*
D03*
X0414420Y0160447D02*
D03*
X0414420Y0157888D02*
D03*
X0414420Y0155329D02*
D03*
X0414420Y0152770D02*
D03*
X0414420Y0150211D02*
D03*
X0414420Y0147652D02*
D03*
X0414420Y0145093D02*
D03*
X0436861Y0160447D02*
D03*
X0436861Y0157888D02*
D03*
X0436861Y0155329D02*
D03*
X0436861Y0152770D02*
D03*
X0436861Y0150211D02*
D03*
X0436861Y0147652D02*
D03*
X0436861Y0145093D02*
D03*
X0408612Y0224424D02*
D03*
X0408612Y0226983D02*
D03*
X0408612Y0229542D02*
D03*
X0408612Y0232101D02*
D03*
X0408612Y0234660D02*
D03*
X0408612Y0237219D02*
D03*
X0408612Y0239778D02*
D03*
X0386172Y0224424D02*
D03*
X0386172Y0226983D02*
D03*
X0386172Y0229542D02*
D03*
X0386172Y0232101D02*
D03*
X0386172Y0234660D02*
D03*
X0386172Y0237219D02*
D03*
X0386172Y0239778D02*
D03*
X0364321Y0224424D02*
D03*
X0364321Y0226983D02*
D03*
X0364321Y0229542D02*
D03*
X0364321Y0232101D02*
D03*
X0364321Y0234660D02*
D03*
X0364321Y0237219D02*
D03*
X0364321Y0239778D02*
D03*
X0341880Y0224424D02*
D03*
X0341880Y0226983D02*
D03*
X0341880Y0229542D02*
D03*
X0341880Y0232101D02*
D03*
X0341880Y0234660D02*
D03*
X0341880Y0237219D02*
D03*
X0341880Y0239778D02*
D03*
X0414223Y0239778D02*
D03*
X0414223Y0237219D02*
D03*
X0414223Y0234660D02*
D03*
X0414223Y0232101D02*
D03*
X0414223Y0229542D02*
D03*
X0414223Y0226983D02*
D03*
X0414223Y0224424D02*
D03*
X0436664Y0239778D02*
D03*
X0436664Y0237219D02*
D03*
X0436664Y0234660D02*
D03*
X0436664Y0232101D02*
D03*
X0436664Y0229542D02*
D03*
X0436664Y0226983D02*
D03*
X0436664Y0224424D02*
D03*
D440*
X0262451Y0163400D02*
D03*
X0262451Y0156707D02*
D03*
X0275935Y0156609D02*
D03*
X0275935Y0163302D02*
D03*
X0268750Y0163400D02*
D03*
X0268750Y0156707D02*
D03*
X0281664Y0156412D02*
D03*
X0281664Y0163105D02*
D03*
D441*
X0289046Y0103754D02*
D03*
X0279794Y0107494D02*
D03*
D441*
X0289046Y0111235D02*
D03*
D168*
X0407727Y0169994D02*
D03*
X0422294Y0169994D02*
D03*
D348*
X0272097Y0237416D02*
D03*
X0272097Y0230329D02*
D03*
X0262057Y0230329D02*
D03*
X0262057Y0237416D02*
D03*
X0273278Y0220388D02*
D03*
X0273278Y0213302D02*
D03*
X0283317Y0213302D02*
D03*
X0283317Y0220388D02*
D03*
X0421506Y0185940D02*
D03*
X0421506Y0178853D02*
D03*
X0411467Y0178853D02*
D03*
X0411467Y0185940D02*
D03*
X0426723Y0185939D02*
D03*
X0426723Y0178853D02*
D03*
X0436762Y0178853D02*
D03*
X0436762Y0185939D02*
D03*
X0417569Y0219306D02*
D03*
X0417569Y0212219D02*
D03*
X0407530Y0212219D02*
D03*
X0407530Y0219306D02*
D03*
X0426231Y0219306D02*
D03*
X0426231Y0212219D02*
D03*
X0436270Y0212219D02*
D03*
X0436270Y0219306D02*
D03*
X0421309Y0140762D02*
D03*
X0421309Y0133676D02*
D03*
X0411270Y0133676D02*
D03*
X0411270Y0140762D02*
D03*
X0289124Y0220093D02*
D03*
X0289124Y0213006D02*
D03*
X0299164Y0213006D02*
D03*
X0299164Y0220093D02*
D03*
X0436664Y0140762D02*
D03*
X0436664Y0133676D02*
D03*
X0426624Y0133676D02*
D03*
X0426624Y0140762D02*
D03*
X0381743Y0221569D02*
D03*
X0381743Y0228656D02*
D03*
X0371703Y0228656D02*
D03*
X0371703Y0221569D02*
D03*
X0370522Y0239876D02*
D03*
X0370522Y0232790D02*
D03*
X0380561Y0232790D02*
D03*
X0380561Y0239876D02*
D03*
D349*
X0268652Y0237416D02*
D03*
X0265502Y0237416D02*
D03*
X0265502Y0230329D02*
D03*
X0268652Y0230329D02*
D03*
X0279872Y0213302D02*
D03*
X0276723Y0213302D02*
D03*
X0276723Y0220388D02*
D03*
X0279872Y0220388D02*
D03*
X0418061Y0185940D02*
D03*
X0414912Y0185940D02*
D03*
X0414912Y0178853D02*
D03*
X0418061Y0178853D02*
D03*
X0433317Y0178853D02*
D03*
X0430168Y0178853D02*
D03*
X0430168Y0185939D02*
D03*
X0433317Y0185939D02*
D03*
X0414124Y0219306D02*
D03*
X0410975Y0219306D02*
D03*
X0410975Y0212219D02*
D03*
X0414124Y0212219D02*
D03*
X0432825Y0212219D02*
D03*
X0429675Y0212219D02*
D03*
X0429675Y0219306D02*
D03*
X0432825Y0219306D02*
D03*
X0417864Y0140762D02*
D03*
X0414715Y0140762D02*
D03*
X0414715Y0133676D02*
D03*
X0417864Y0133676D02*
D03*
X0295719Y0213006D02*
D03*
X0292569Y0213006D02*
D03*
X0292569Y0220093D02*
D03*
X0295719Y0220093D02*
D03*
X0433219Y0140762D02*
D03*
X0430069Y0140762D02*
D03*
X0430069Y0133676D02*
D03*
X0433219Y0133676D02*
D03*
X0375148Y0228656D02*
D03*
X0378298Y0228656D02*
D03*
X0378298Y0221569D02*
D03*
X0375148Y0221569D02*
D03*
X0377116Y0232790D02*
D03*
X0373967Y0232790D02*
D03*
X0373967Y0239876D02*
D03*
X0377116Y0239876D02*
D03*
D442*
X0275739Y0115172D02*
D03*
X0275739Y0128164D02*
D03*
D443*
X0398278Y0220014D02*
D03*
X0394538Y0210762D02*
D03*
D443*
X0402018Y0210762D02*
D03*
D444*
X0335778Y0241845D02*
D03*
X0328691Y0241845D02*
D03*
X0328691Y0231806D02*
D03*
X0335778Y0231806D02*
D03*
X0325542Y0226983D02*
D03*
X0318455Y0226983D02*
D03*
X0318455Y0216943D02*
D03*
X0325542Y0216943D02*
D03*
X0412392Y0125232D02*
D03*
X0419479Y0125232D02*
D03*
X0419479Y0115192D02*
D03*
X0412392Y0115192D02*
D03*
X0428002Y0116451D02*
D03*
X0435089Y0116451D02*
D03*
X0435089Y0106412D02*
D03*
X0428002Y0106412D02*
D03*
D445*
X0328691Y0235250D02*
D03*
X0328691Y0238400D02*
D03*
X0335778Y0238400D02*
D03*
X0335778Y0235250D02*
D03*
X0318455Y0220388D02*
D03*
X0318455Y0223538D02*
D03*
X0325542Y0223538D02*
D03*
X0325542Y0220388D02*
D03*
X0412392Y0121787D02*
D03*
X0412392Y0118637D02*
D03*
X0419479Y0118637D02*
D03*
X0419479Y0121787D02*
D03*
X0428002Y0113006D02*
D03*
X0428002Y0109857D02*
D03*
X0435089Y0109857D02*
D03*
X0435089Y0113006D02*
D03*
D446*
X0402018Y0138892D02*
D03*
X0402018Y0132987D02*
D03*
D447*
X0398573Y0103262D02*
D03*
X0385581Y0103262D02*
D03*
X0266191Y0032716D02*
G01*
G75*
D216*
X0283809Y0080747D02*
D03*
X0283809Y0048070D02*
D03*
X0337943Y0048070D02*
D03*
X0337943Y0080747D02*
D03*
D217*
X0328573Y0070511D02*
D03*
X0324242Y0070511D02*
D03*
X0319911Y0070511D02*
D03*
X0315581Y0070511D02*
D03*
X0311250Y0070511D02*
D03*
X0306919Y0070511D02*
D03*
X0302589Y0070511D02*
D03*
X0298258Y0070511D02*
D03*
D156*
X0277904Y0085314D02*
D03*
X0277904Y0091535D02*
D03*
X0273278Y0085314D02*
D03*
X0273278Y0091535D02*
D03*
D145*
X0268750Y0091574D02*
D03*
X0268750Y0085275D02*
D03*
X0232283Y0274163D02*
G01*
G75*
D513*
X0179586Y0187746D02*
D03*
X0173366Y0187746D02*
D03*
D350*
X0124606Y0115246D02*
D03*
X0124606Y0121466D02*
D03*
X0124507Y0125777D02*
D03*
X0124507Y0131998D02*
D03*
D346*
X0138681Y0109596D02*
D03*
X0146161Y0109596D02*
D03*
X0126279Y0109596D02*
D03*
X0133760Y0109596D02*
D03*
D345*
X0140354Y0155462D02*
D03*
X0140354Y0149163D02*
D03*
X0135728Y0155462D02*
D03*
X0135728Y0149163D02*
D03*
X0155315Y0238238D02*
D03*
X0155315Y0231939D02*
D03*
X0168602Y0241092D02*
D03*
X0168602Y0247391D02*
D03*
X0125098Y0155954D02*
D03*
X0125098Y0149655D02*
D03*
X0124803Y0136072D02*
D03*
X0124803Y0142372D02*
D03*
X0130118Y0155954D02*
D03*
X0130118Y0149655D02*
D03*
D441*
X0169507Y0230069D02*
D03*
X0160255Y0233809D02*
D03*
X0164192Y0254380D02*
D03*
X0173444Y0250639D02*
D03*
D441*
X0169507Y0237549D02*
D03*
X0173444Y0258120D02*
D03*
D514*
X0163188Y0248690D02*
D03*
X0159448Y0239439D02*
D03*
X0161515Y0146879D02*
D03*
X0165256Y0156131D02*
D03*
X0204626Y0261486D02*
D03*
X0208366Y0270738D02*
D03*
X0222342Y0270738D02*
D03*
X0218602Y0261486D02*
D03*
X0194783Y0270738D02*
D03*
X0191043Y0261486D02*
D03*
X0182283Y0238001D02*
D03*
X0178543Y0228749D02*
D03*
X0215255Y0242785D02*
D03*
X0211515Y0233533D02*
D03*
D514*
X0155708Y0248690D02*
D03*
X0168996Y0146879D02*
D03*
X0212106Y0261486D02*
D03*
X0226082Y0261486D02*
D03*
X0198523Y0261486D02*
D03*
X0174803Y0238001D02*
D03*
X0218996Y0233533D02*
D03*
D431*
X0155118Y0258218D02*
D03*
X0155118Y0269636D02*
D03*
D515*
X0153543Y0163376D02*
D03*
X0171653Y0163376D02*
D03*
X0153543Y0221643D02*
D03*
X0171653Y0221643D02*
D03*
X0144291Y0221643D02*
D03*
X0126181Y0221643D02*
D03*
X0144291Y0163376D02*
D03*
X0126181Y0163376D02*
D03*
X0180905Y0163376D02*
D03*
X0199015Y0163376D02*
D03*
X0226377Y0163376D02*
D03*
X0208267Y0163376D02*
D03*
X0199409Y0221643D02*
D03*
X0181299Y0221643D02*
D03*
X0209055Y0221643D02*
D03*
X0227165Y0221643D02*
D03*
D516*
X0162598Y0163376D02*
D03*
X0162598Y0221643D02*
D03*
X0135236Y0221643D02*
D03*
X0135236Y0163376D02*
D03*
X0189960Y0163376D02*
D03*
X0217322Y0163376D02*
D03*
X0190354Y0221643D02*
D03*
X0218110Y0221643D02*
D03*
D517*
X0162598Y0187785D02*
D03*
X0162598Y0197234D02*
D03*
X0135236Y0197234D02*
D03*
X0135236Y0187785D02*
D03*
X0189960Y0187785D02*
D03*
X0217322Y0187785D02*
D03*
X0190354Y0197234D02*
D03*
X0218110Y0197234D02*
D03*
D518*
X0200689Y0197135D02*
D03*
X0207775Y0197135D02*
D03*
X0207775Y0187096D02*
D03*
X0200689Y0187096D02*
D03*
X0221653Y0150580D02*
D03*
X0228740Y0150580D02*
D03*
X0228740Y0140541D02*
D03*
X0221653Y0140541D02*
D03*
X0144980Y0187588D02*
D03*
X0152067Y0187588D02*
D03*
X0152067Y0197628D02*
D03*
X0144980Y0197628D02*
D03*
D519*
X0200689Y0193691D02*
D03*
X0200689Y0190541D02*
D03*
X0207775Y0190541D02*
D03*
X0207775Y0193691D02*
D03*
X0221653Y0147135D02*
D03*
X0221653Y0143986D02*
D03*
X0228740Y0143986D02*
D03*
X0228740Y0147135D02*
D03*
X0152067Y0194183D02*
D03*
X0152067Y0191033D02*
D03*
X0144980Y0191033D02*
D03*
X0144980Y0194183D02*
D03*
D231*
X0226850Y0130502D02*
D03*
X0221850Y0130502D02*
D03*
X0216850Y0130502D02*
D03*
X0211850Y0130502D02*
D03*
X0206850Y0130502D02*
D03*
X0201850Y0130502D02*
D03*
X0196850Y0130502D02*
D03*
X0191850Y0130502D02*
D03*
X0226850Y0111604D02*
D03*
X0221850Y0111604D02*
D03*
X0216850Y0111604D02*
D03*
X0211850Y0111604D02*
D03*
X0206850Y0111604D02*
D03*
X0201850Y0111604D02*
D03*
X0196850Y0111604D02*
D03*
X0191850Y0111604D02*
D03*
X0150413Y0111407D02*
D03*
X0155413Y0111407D02*
D03*
X0160413Y0111407D02*
D03*
X0165413Y0111407D02*
D03*
X0170413Y0111407D02*
D03*
X0175413Y0111407D02*
D03*
X0180413Y0111407D02*
D03*
X0185413Y0111407D02*
D03*
X0150413Y0130305D02*
D03*
X0155413Y0130305D02*
D03*
X0160413Y0130305D02*
D03*
X0165413Y0130305D02*
D03*
X0170413Y0130305D02*
D03*
X0175413Y0130305D02*
D03*
X0180413Y0130305D02*
D03*
X0185413Y0130305D02*
D03*
X0144508Y0136702D02*
D03*
X0139508Y0136702D02*
D03*
X0134507Y0136702D02*
D03*
X0129507Y0136702D02*
D03*
X0144508Y0117805D02*
D03*
X0139508Y0117805D02*
D03*
X0134507Y0117805D02*
D03*
X0129507Y0117805D02*
D03*
D232*
X0146259Y0255482D02*
D03*
X0146259Y0260482D02*
D03*
X0146259Y0265482D02*
D03*
X0146259Y0270482D02*
D03*
X0127361Y0255482D02*
D03*
X0127361Y0260482D02*
D03*
X0127361Y0265482D02*
D03*
X0127361Y0270482D02*
D03*
X0129133Y0248631D02*
D03*
X0129133Y0243632D02*
D03*
X0129133Y0238632D02*
D03*
X0129133Y0233631D02*
D03*
X0148031Y0248631D02*
D03*
X0148031Y0243632D02*
D03*
X0148031Y0238632D02*
D03*
X0148031Y0233631D02*
D03*
D352*
X0227362Y0249104D02*
D03*
X0227362Y0256584D02*
D03*
X0220472Y0256584D02*
D03*
X0220472Y0249104D02*
D03*
X0213582Y0249104D02*
D03*
X0213582Y0256584D02*
D03*
X0206692Y0256584D02*
D03*
X0206692Y0249104D02*
D03*
X0199803Y0249104D02*
D03*
X0199803Y0256584D02*
D03*
X0192913Y0256584D02*
D03*
X0192913Y0249104D02*
D03*
X0186023Y0249104D02*
D03*
X0186023Y0256584D02*
D03*
X0179133Y0256584D02*
D03*
X0179133Y0249104D02*
D03*
X0166633Y0270856D02*
D03*
X0166633Y0263376D02*
D03*
X0173818Y0263277D02*
D03*
X0173818Y0270758D02*
D03*
D520*
X0188877Y0242805D02*
D03*
X0188877Y0229813D02*
D03*
X0226082Y0230206D02*
D03*
X0226082Y0243198D02*
D03*
X0204921Y0242805D02*
D03*
X0204921Y0229813D02*
D03*
X0196752Y0229813D02*
D03*
X0196752Y0242805D02*
D03*
D434*
X0179330Y0263179D02*
D03*
X0185629Y0263179D02*
D03*
X0185728Y0268789D02*
D03*
X0179429Y0268789D02*
D03*
X0181791Y0242214D02*
D03*
X0175492Y0242214D02*
D03*
X0145866Y0144045D02*
D03*
X0139567Y0144045D02*
D03*
X0210925Y0228828D02*
D03*
X0217224Y0228828D02*
D03*
X0479380Y0048497D02*
G01*
G75*
D443*
X0467963Y0035485D02*
D03*
X0471703Y0044737D02*
D03*
D443*
X0475443Y0035485D02*
D03*
D232*
X0460404Y0023871D02*
D03*
X0460404Y0028871D02*
D03*
X0460404Y0033871D02*
D03*
X0460404Y0038871D02*
D03*
X0441506Y0023871D02*
D03*
X0441506Y0028871D02*
D03*
X0441506Y0033871D02*
D03*
X0441506Y0038871D02*
D03*
D513*
X0444695Y0044166D02*
D03*
X0438475Y0044166D02*
D03*
X0453041Y0044166D02*
D03*
X0459262Y0044166D02*
D03*
D434*
X0474853Y0030584D02*
D03*
X0468553Y0030584D02*
D03*
D30*
X0464223Y0046627D02*
D03*
X0250689Y0023524D02*
G01*
G75*
D533*
X0240059Y0071181D02*
D03*
X0216634Y0071181D02*
D03*
X0240059Y0061181D02*
D03*
X0216634Y0061181D02*
D03*
X0240059Y0051181D02*
D03*
X0216634Y0051181D02*
D03*
X0240059Y0041181D02*
D03*
X0216634Y0041181D02*
D03*
X0240059Y0031181D02*
D03*
X0216634Y0031181D02*
D03*
D324*
X0226969Y0081240D02*
D03*
X0226969Y0087461D02*
D03*
X0238976Y0083799D02*
D03*
X0238976Y0090020D02*
D03*
D534*
X0232972Y0091437D02*
D03*
X0232972Y0078445D02*
D03*
D322*
X0243602Y0089961D02*
D03*
X0243602Y0083662D02*
D03*
D480*
X0213110Y0083957D02*
D03*
X0222362Y0080217D02*
D03*
D480*
X0222362Y0087697D02*
D03*
D321*
X0244153Y0079331D02*
D03*
X0237933Y0079331D02*
D03*
X0221063Y0395659D02*
G01*
G75*
D276*
X0223622Y0404222D02*
D03*
X0223622Y0401663D02*
D03*
X0223622Y0399104D02*
D03*
X0231102Y0404222D02*
D03*
X0231102Y0401663D02*
D03*
X0231102Y0399104D02*
D03*
X0231102Y0408848D02*
D03*
X0231102Y0411407D02*
D03*
X0231102Y0413966D02*
D03*
X0223622Y0408848D02*
D03*
X0223622Y0411407D02*
D03*
X0223622Y0413966D02*
D03*
D121*
X0243858Y0412982D02*
D03*
X0237638Y0412982D02*
D03*
X0254390Y0412883D02*
D03*
X0248169Y0412883D02*
D03*
D118*
X0236024Y0403691D02*
D03*
X0236024Y0397470D02*
D03*
X0240354Y0399340D02*
D03*
X0240354Y0405561D02*
D03*
D229*
X0253051Y0408946D02*
D03*
X0245965Y0408946D02*
D03*
X0245965Y0398907D02*
D03*
X0253051Y0398907D02*
D03*
X0264272Y0408946D02*
D03*
X0257185Y0408946D02*
D03*
X0257185Y0398907D02*
D03*
X0264272Y0398907D02*
D03*
D230*
X0245965Y0402352D02*
D03*
X0245965Y0405501D02*
D03*
X0253051Y0405501D02*
D03*
X0253051Y0402352D02*
D03*
X0257185Y0402352D02*
D03*
X0257185Y0405501D02*
D03*
X0264272Y0405501D02*
D03*
X0264272Y0402352D02*
D03*
X0432234Y0439758D02*
G01*
G75*
D551*
X0440561Y0392415D02*
D03*
X0434340Y0392415D02*
D03*
X0436210Y0387100D02*
D03*
X0442431Y0387100D02*
D03*
X0434340Y0396943D02*
D03*
X0440561Y0396943D02*
D03*
X0441348Y0436805D02*
D03*
X0435128Y0436805D02*
D03*
X0434636Y0405900D02*
D03*
X0440856Y0405900D02*
D03*
D552*
X0442765Y0373124D02*
D03*
X0435285Y0373124D02*
D03*
X0435285Y0381589D02*
D03*
X0439025Y0381589D02*
D03*
X0443258Y0416490D02*
D03*
X0435777Y0416490D02*
D03*
X0435777Y0424955D02*
D03*
X0439517Y0424955D02*
D03*
D552*
X0442765Y0381589D02*
D03*
X0443258Y0424955D02*
D03*
D553*
X0445325Y0388872D02*
D03*
X0445325Y0395171D02*
D03*
X0446112Y0398911D02*
D03*
X0446112Y0405211D02*
D03*
D554*
X0441978Y0401372D02*
D03*
X0435679Y0401372D02*
D03*
X0441978Y0430703D02*
D03*
X0435679Y0430703D02*
D03*
X0441978Y0410821D02*
D03*
X0435679Y0410821D02*
D03*
X0309512Y0341881D02*
G01*
G75*
D431*
X0295929Y0286074D02*
D03*
X0295929Y0297491D02*
D03*
X0304000Y0285976D02*
D03*
X0304000Y0297393D02*
D03*
X0267189Y0284401D02*
D03*
X0267189Y0295818D02*
D03*
D353*
X0274118Y0306448D02*
D03*
X0280339Y0306448D02*
D03*
D578*
X0258311Y0313436D02*
D03*
X0267563Y0309696D02*
D03*
D578*
X0258311Y0305956D02*
D03*
D579*
X0281855Y0292432D02*
D03*
X0274374Y0292432D02*
D03*
X0274374Y0300897D02*
D03*
X0278114Y0300897D02*
D03*
D579*
X0281855Y0300897D02*
D03*
D580*
X0252032Y0328790D02*
D03*
X0279394Y0328790D02*
D03*
D581*
X0293567Y0313731D02*
D03*
X0302229Y0313731D02*
D03*
X0301933Y0303692D02*
D03*
X0293272Y0303692D02*
D03*
D582*
X0260890Y0284401D02*
D03*
X0247898Y0284401D02*
D03*
D583*
X0249473Y0299755D02*
D03*
X0249473Y0291094D02*
D03*
X0258144Y0301438D02*
D03*
X0258144Y0292777D02*
D03*
D351*
X0289925Y0313535D02*
D03*
X0283626Y0313535D02*
D03*
X0289827Y0308712D02*
D03*
X0296126Y0308712D02*
D03*
X0279591Y0313731D02*
D03*
X0273292Y0313731D02*
D03*
D433*
X0305870Y0310385D02*
D03*
X0305870Y0304165D02*
D03*
D520*
X0288351Y0283712D02*
D03*
X0288351Y0296704D02*
D03*
X0451624Y0358711D02*
G01*
G75*
D352*
X0432037Y0340305D02*
D03*
X0432037Y0332825D02*
D03*
X0400640Y0340502D02*
D03*
X0400640Y0333022D02*
D03*
D611*
X0302707Y0340601D02*
D03*
X0302707Y0351624D02*
D03*
D612*
X0424360Y0346605D02*
D03*
X0408218Y0346605D02*
D03*
D434*
X0298868Y0334695D02*
D03*
X0305167Y0334695D02*
D03*
X0349754Y0334105D02*
D03*
X0343455Y0334105D02*
D03*
X0388435Y0334695D02*
D03*
X0394734Y0334695D02*
D03*
D353*
X0309734Y0333809D02*
D03*
X0315955Y0333809D02*
D03*
X0394793Y0339223D02*
D03*
X0388573Y0339223D02*
D03*
X0340955Y0354282D02*
D03*
X0334734Y0354282D02*
D03*
D350*
X0384203Y0335424D02*
D03*
X0384203Y0341644D02*
D03*
D299*
X0371309Y0338317D02*
D03*
X0371309Y0343317D02*
D03*
X0371309Y0348317D02*
D03*
X0371309Y0353317D02*
D03*
X0348671Y0338317D02*
D03*
X0348671Y0343317D02*
D03*
X0348671Y0348317D02*
D03*
X0348671Y0353317D02*
D03*
D613*
X0359990Y0345817D02*
D03*
D614*
X0381840Y0349164D02*
D03*
X0397589Y0349164D02*
D03*
D615*
X0320620Y0338928D02*
D03*
X0320620Y0350345D02*
D03*
X0337549Y0332825D02*
D03*
X0337549Y0344242D02*
D03*
X0328789Y0350246D02*
D03*
X0328789Y0338829D02*
D03*
X0312549Y0350443D02*
D03*
X0312549Y0339026D02*
D03*
D616*
X0443553Y0335286D02*
D03*
X0443553Y0353002D02*
D03*
D345*
X0379774Y0335384D02*
D03*
X0379774Y0341683D02*
D03*
D304*
X0443553Y0332825D02*
D03*
X0393379Y0023376D02*
G01*
G75*
D393*
X0380367Y0034793D02*
D03*
X0389619Y0031053D02*
D03*
D393*
X0380367Y0027313D02*
D03*
D231*
X0368753Y0042352D02*
D03*
X0373753Y0042352D02*
D03*
X0378753Y0042352D02*
D03*
X0383753Y0042352D02*
D03*
X0368753Y0061250D02*
D03*
X0373753Y0061250D02*
D03*
X0378753Y0061250D02*
D03*
X0383753Y0061250D02*
D03*
D373*
X0389048Y0058061D02*
D03*
X0389048Y0064281D02*
D03*
X0389048Y0049715D02*
D03*
X0389048Y0043494D02*
D03*
D382*
X0375466Y0027903D02*
D03*
X0375466Y0034203D02*
D03*
D30*
X0391509Y0038533D02*
D03*
M02*
